<?xml version="1.0" encoding="UTF-8"?>
<svg width="24px" height="24px" viewBox="0 0 24 24" version="1.1" xmlns="http://www.w3.org/2000/svg" xmlns:xlink="http://www.w3.org/1999/xlink">
    <title>Icons / megaphone</title>
    <g id="Icons-/-megaphone" stroke="none" stroke-width="1" fill="none" fill-rule="evenodd" stroke-linecap="round" stroke-linejoin="round">
        <path d="M3.18480231,12.5212923 C2.05181626,13.1754221 1.66362657,14.6241658 2.31775637,15.7571518 C2.97188617,16.8901379 4.4206298,17.2783275 5.55361585,16.6241977 L9.56434097,14.3086045 L17.6115171,13.1761323 C17.7384918,13.1582277 17.860838,13.1160691 17.9718892,13.0519537 C18.4501818,12.7758113 18.614057,12.1642209 18.3379146,11.6859283 L13.81832,3.85776091 C13.7545042,3.74722868 13.670119,3.64993466 13.5697202,3.57113163 C13.1352769,3.23013689 12.5066601,3.30589195 12.1656654,3.74033531 L7.09099903,10.2056991 L3.18480231,12.5212923 Z M7.83289144,15.27021 L9.93289144,18.9075167 C10.4299477,19.7684434 10.2512923,20.8021489 9.53385334,21.2163624 C8.8164144,21.630576 7.83187151,21.2684434 7.33481523,20.4075167 L5.23481523,16.77021 L5.23481523,16.77021 M17.3134412,13.2056991 L11.9186818,3.97690775 M17.0865628,9.53733417 C17.6425987,9.18210338 18.1333496,8.41445701 18.1333496,7.7056991 C18.1333496,6.6011296 17.2379191,5.7056991 16.1333496,5.7056991 C15.7129117,5.7056991 15.3635703,5.77565867 15.0415812,5.99727675 M7.08773881,10.149836 L9.56434097,14.3086045 M19.9254732,5.77695253 L21.271982,5.08234246 M17.2288181,3.6286445 L17.7711819,2 M20.2391504,9 L21.901661,9.42743409" id="Combined-Shape" stroke="#67768A"></path>
    </g>
</svg>
