<svg xmlns="http://www.w3.org/2000/svg" viewBox="0 0 256 256">
  <g fill="none" fill-rule="evenodd">
    <path fill="#E1F2FF" d="M23.36 230.436c0-57.193 46.364-103.558 103.558-103.558 57.193 0 103.557 46.365 103.557 103.558H23.36z"/>
    <path fill="#5E63B6" d="M243.248 49.219a.5.5 0 01-.5-.5v-3.937a.5.5 0 111 0v3.937a.5.5 0 01-.5.5"/>
    <path fill="#5E63B6" d="M245.217 47.25h-3.938a.5.5 0 010-1h3.938a.5.5 0 010 1M63.585 27.938a.5.5 0 01-.5-.5V23.5a.5.5 0 111 0v3.937a.5.5 0 01-.5.5"/>
    <path fill="#5E63B6" d="M65.554 25.969h-3.938a.5.5 0 010-1h3.938a.5.5 0 010 1"/>
    <path fill="#FFF" d="M245.217 221.605h6.974"/>
    <path fill="#5E63B6" d="M252.19 222.605h-6.974a1 1 0 110-2h6.974a1 1 0 110 2"/>
    <path fill="#FFF" d="M3 221.605h8.973"/>
    <path fill="#5E63B6" d="M11.973 222.605H3a1 1 0 110-2h8.973a1 1 0 110 2"/>
    <path fill="#FFF" d="M94.231 230.719h67.186"/>
    <path fill="#5E63B6" d="M161.417 231.719H94.23a1 1 0 110-2h67.187a1 1 0 110 2"/>
    <path fill="#FFF" d="M170.035 230.719h9.142"/>
    <path fill="#5E63B6" d="M179.177 231.719h-9.142a1 1 0 110-2h9.142a1 1 0 110 2"/>
    <path fill="#FFF" d="M86.349 230.644l-5 .075"/>
    <path fill="#5E63B6" d="M81.349 231.719a1 1 0 01-.015-2l5-.075c.58.007 1.006.432 1.015.985a1.001 1.001 0 01-.985 1.015l-5 .075h-.015zM25.908 104.03a1 1 0 01-1-1v-7a1 1 0 112 0v7a1 1 0 01-1 1"/>
    <path fill="#5E63B6" d="M29.408 100.53h-7a1 1 0 110-2h7a1 1 0 110 2M233.976 177.348a1 1 0 01-1-1v-7a1 1 0 112 0v7a1 1 0 01-1 1"/>
    <path fill="#5E63B6" d="M237.476 173.848h-7a1 1 0 110-2h7a1 1 0 110 2M22.408 185.344a.5.5 0 01-.5-.5v-3.937a.5.5 0 111 0v3.937a.5.5 0 01-.5.5"/>
    <path fill="#5E63B6" d="M24.377 183.375h-3.938a.5.5 0 010-1h3.938a.5.5 0 010 1"/>
    <path fill="#FFF" d="M20.274 221.644h217.894"/>
    <path fill="#5E63B6" d="M238.168 222.644H20.274a1 1 0 110-2h217.894a1 1 0 110 2"/>
    <path fill="#FFF" d="M206.519 201.115h-68.692a2 2 0 01-2-2v-68.692a2 2 0 012-2h68.692a2 2 0 012 2v68.692a2 2 0 01-2 2"/>
    <path fill="#5E63B6" d="M137.826 129.424c-.552 0-1 .449-1 1v68.692a1 1 0 001 1h68.692a1 1 0 001-1v-68.692c0-.551-.448-1-1-1h-68.692zm68.692 72.692h-68.692c-1.654 0-3-1.346-3-3v-68.692c0-1.654 1.346-3 3-3h68.692c1.655 0 3 1.346 3 3v68.692c0 1.654-1.345 3-3 3z"/>
    <path fill="#FFF" d="M206.519 128.478h-68.692a2 2 0 01-2-2V57.786a2 2 0 012-2h68.692a2 2 0 012 2v68.692a2 2 0 01-2 2"/>
    <path fill="#FFF" d="M134.276 128.478h-68.69a2 2 0 01-2-2V57.786a2 2 0 012-2h68.69a2 2 0 012 2v68.692a2 2 0 01-2 2"/>
    <path fill="#5E63B6" d="M65.585 56.786c-.552 0-1 .45-1 1v68.692c0 .551.448 1 1 1h68.691c.552 0 1-.449 1-1V57.786c0-.55-.448-1-1-1H65.585zm68.691 72.692H65.585c-1.654 0-3-1.346-3-3V57.786c0-1.654 1.346-3 3-3h68.691c1.655 0 3 1.346 3 3v68.692c0 1.654-1.345 3-3 3z"/>
    <path fill="#5E63B6" d="M138.004 57c-.554 0-1.004.451-1.004 1.004v68.992c0 .553.45 1.004 1.004 1.004h68.992c.554 0 1.004-.451 1.004-1.004V58.004c0-.553-.45-1.004-1.004-1.004h-68.992zm.008 73a3.016 3.016 0 01-3.012-3.012V58.012A3.016 3.016 0 01138.012 55h68.976A3.015 3.015 0 01210 58.012v68.976c0 1.66-1.35 3.012-3.012 3.012h-68.976z"/>
    <path fill="#FFF" d="M146.69 130.168c0 7.39-5.992 13.382-13.382 13.382s-13.382-5.991-13.382-13.382 5.992-13.382 13.382-13.382 13.382 5.99 13.382 13.382"/>
    <path fill="#FFF" d="M149.842 127.646c0 7.39-5.991 13.382-13.382 13.382-7.39 0-13.382-5.991-13.382-13.382s5.992-13.382 13.382-13.382 13.382 5.99 13.382 13.382"/>
    <path fill="#5E63B6" d="M136.46 115.264c-6.827 0-12.382 5.555-12.382 12.382s5.555 12.382 12.382 12.382 12.382-5.555 12.382-12.382-5.555-12.382-12.382-12.382m0 26.764c-7.93 0-14.382-6.452-14.382-14.382s6.452-14.382 14.382-14.382 14.382 6.452 14.382 14.382-6.452 14.382-14.382 14.382"/>
    <path fill="#5E63B6" d="M136.88 134.306a1 1 0 01-1-1v-10.622a1 1 0 112 0v10.622a1 1 0 01-1 1"/>
    <path fill="#5E63B6" d="M142.191 128.995h-10.62a1 1 0 110-2h10.62a1 1 0 110 2"/>
    <path fill="#E1F2FF" d="M198.624 89.333c0 12.426-10.073 22.5-22.5 22.5-12.426 0-22.5-10.074-22.5-22.5s10.074-22.5 22.5-22.5c12.427 0 22.5 10.074 22.5 22.5M113.96 92.558c0 10.093-8.182 18.275-18.275 18.275-10.093 0-18.275-8.182-18.275-18.275 0-10.093 8.182-18.275 18.275-18.275 10.093 0 18.275 8.182 18.275 18.275M201.624 169.254c0 10.466-8.484 18.951-18.951 18.951s-18.951-8.485-18.951-18.95c0-10.468 8.484-18.953 18.951-18.953s18.951 8.485 18.951 18.952"/>
    <path fill="#5E63B6" d="M125.07 68.624a.5.5 0 01-.5-.5v-3.937a.5.5 0 111 0v3.937a.5.5 0 01-.5.5"/>
    <path fill="#5E63B6" d="M127.038 66.656H123.1a.5.5 0 010-1h3.938a.5.5 0 010 1M147.61 192.625a.5.5 0 01-.5-.5v-3.937a.5.5 0 111 0v3.937a.5.5 0 01-.5.5"/>
    <path fill="#5E63B6" d="M149.58 190.656h-3.939a.5.5 0 010-1h3.938a.5.5 0 010 1M198.607 110.364a.5.5 0 01-.5-.5v-3.938a.5.5 0 111 0v3.938a.5.5 0 01-.5.5"/>
    <path fill="#5E63B6" d="M200.576 108.395h-3.938a.5.5 0 010-1h3.938a.5.5 0 010 1"/>
    <path fill="#FFF" d="M110.892 95.981a.034.034 0 00.017-.01l.008.008a.04.04 0 00-.023.008.014.014 0 00-.002-.006m-10.906 2.854a5.853 5.853 0 005.472 7.684 5.832 5.832 0 004.25-1.746 6.066 6.066 0 004.95 2.687 6.075 6.075 0 006.164-5.983 6.059 6.059 0 00-.625-2.767 5.852 5.852 0 10-5.697-10.063 5.848 5.848 0 00-11.456.69 4.957 4.957 0 00-1.61-.295 4.992 4.992 0 00-1.449 9.793"/>
    <path fill="#ACD3EF" d="M109.894 98.045v-1.824l-.436-.87.863-.247.56-.7.737.857 2.06 1.718h-2.428l-1.356 1.066zm-.038 5.156l.683 1.014a5.08 5.08 0 004.133 2.245c2.768.051 5.109-2.2 5.15-4.998a5.025 5.025 0 00-.523-2.31l-.485-.987 1.028-.39a4.827 4.827 0 003.138-4.464 4.858 4.858 0 00-4.78-4.924 4.805 4.805 0 00-3.08 1.045l-1.203.95-.384-1.484a4.86 4.86 0 00-4.62-3.63c-2.487-.05-4.552 1.77-4.877 4.202l-.164 1.226-1.165-.418a3.982 3.982 0 00-1.288-.236 3.936 3.936 0 00-2.841 1.128 3.963 3.963 0 00-1.212 2.807 4 4 0 002.895 3.897l.999.286-.324.988a4.853 4.853 0 00-.242 1.445 4.82 4.82 0 001.369 3.453 4.818 4.818 0 003.41 1.473 4.82 4.82 0 003.525-1.448l.858-.87zm4.893 5.26h-.106a7.076 7.076 0 01-5.067-2.254 6.816 6.816 0 01-4.132 1.312 6.81 6.81 0 01-4.816-2.08 6.803 6.803 0 01-1.934-4.875c.006-.373.04-.745.106-1.11a6.005 6.005 0 01-3.434-5.506 6.002 6.002 0 016.084-5.906c.282.004.562.028.84.073a6.851 6.851 0 016.653-4.848 6.868 6.868 0 016.064 3.873 6.806 6.806 0 013.223-.753c3.778.056 6.806 3.176 6.75 6.954a6.809 6.809 0 01-3.501 5.873 7 7 0 01.343 2.277 7.083 7.083 0 01-7.073 6.97z"/>
    <path fill="#E1F2FF" d="M122.388 106.034c-3.57 2.271-8.521.88-8.521.88s.836-5.073 4.407-7.344c3.57-2.272 8.52-.882 8.52-.882s-.837 5.073-4.406 7.346"/>
    <path fill="#ACD3EF" d="M122.388 106.034h.01-.01zm-7.315.111c1.5.248 4.503.493 6.778-.956 2.284-1.452 3.33-4.27 3.738-5.732-1.501-.25-4.505-.492-6.778.956-2.285 1.454-3.331 4.27-3.738 5.733zm2.232 2.194c-2.027 0-3.591-.428-3.71-.462a1 1 0 01-.715-1.124c.037-.225.954-5.544 4.857-8.028 3.902-2.483 9.108-1.063 9.329-1 .49.138.799.623.716 1.126-.038.225-.956 5.543-4.857 8.026-1.802 1.147-3.882 1.462-5.62 1.462z"/>
    <path fill="#FFF" d="M92.136 95.839a7.41 7.41 0 00-.405-.347c.167-.09.325-.194.485-.295.066.057.129.116.196.17-.096.154-.191.31-.276.472m11.504-1.56a8.038 8.038 0 00-6.167-13.19c-1.025 0-2.002.2-2.903.55a9.218 9.218 0 00-7.241-3.511 9.24 9.24 0 00-9.24 9.239c0 .753.102 1.48.27 2.18-3.475.478-6.156 3.452-6.156 7.059a7.133 7.133 0 007.133 7.132c.453 0 .896-.046 1.325-.128 1.018 2.698 3.615 4.62 6.668 4.62a7.127 7.127 0 006.31-3.814 7.098 7.098 0 004.808 1.874 7.133 7.133 0 007.132-7.133 7.1 7.1 0 00-1.94-4.878"/>
    <path fill="#ACD3EF" d="M92.416 97.454l-.956-.878a6.146 6.146 0 00-.348-.298l-1.193-.94 1.334-.724c.116-.064.227-.135.339-.205l.719-.452 1.419 1.192-.471.75a6.52 6.52 0 00-.239.405l-.604 1.15zm-11.115 5.018l.296.785a6.16 6.16 0 005.732 3.972 6.12 6.12 0 005.426-3.28l.603-1.145.956.874a6.116 6.116 0 004.132 1.61 6.14 6.14 0 006.133-6.131 6.107 6.107 0 00-1.668-4.193l-.607-.647.568-.68a7.04 7.04 0 001.639-4.511c0-3.88-3.157-7.037-7.038-7.037a6.98 6.98 0 00-2.541.482l-.689.267-.458-.578a8.194 8.194 0 00-6.456-3.132c-4.543 0-8.239 3.696-8.239 8.239 0 .627.081 1.282.241 1.947l.26 1.075-1.096.15c-3.016.414-5.292 3.022-5.292 6.067a6.14 6.14 0 006.133 6.132c.367 0 .751-.037 1.14-.111l.825-.155zm6.028 6.757c-3.089 0-5.92-1.788-7.28-4.524-4.844.435-8.846-3.381-8.846-8.1 0-3.683 2.511-6.886 5.989-7.837a9.868 9.868 0 01-.102-1.401c0-5.646 4.594-10.24 10.239-10.24 2.902 0 5.619 1.21 7.561 3.345a8.923 8.923 0 012.583-.383c4.983 0 9.038 4.054 9.038 9.037a9.06 9.06 0 01-1.591 5.119 8.084 8.084 0 011.659 4.912c0 4.484-3.648 8.132-8.133 8.132a8.09 8.09 0 01-4.55-1.4 8.106 8.106 0 01-6.567 3.34z"/>
    <path fill="#E1F2FF" d="M87.922 101.166c3.426 1.692 4.67 6.167 4.67 6.167s-4.31 1.729-7.734.036c-3.426-1.692-4.671-6.166-4.671-6.166s4.309-1.73 7.735-.037"/>
    <path fill="#ACD3EF" d="M81.477 101.84c.528 1.286 1.727 3.596 3.824 4.632 2.098 1.036 4.659.585 6.002.222-.528-1.285-1.726-3.596-3.824-4.632-2.096-1.035-4.658-.584-6.002-.222m6.864 7.272c-1.264 0-2.641-.21-3.926-.847-3.783-1.868-5.135-6.594-5.192-6.795a1 1 0 01.592-1.196c.19-.078 4.766-1.875 8.55-.005 3.783 1.87 5.135 6.595 5.192 6.795a1 1 0 01-.592 1.196c-.127.051-2.165.852-4.624.852"/>
    <path fill="#E1F2FF" d="M95.868 99.656c.343 3.805-2.824 7.201-2.824 7.201s-3.724-2.775-4.068-6.58c-.342-3.806 2.826-7.203 2.826-7.203s3.723 2.776 4.066 6.582"/>
    <path fill="#ACD3EF" d="M91.93 94.509c-.82 1.12-2.167 3.349-1.957 5.678.212 2.343 1.933 4.287 2.94 5.239.822-1.12 2.169-3.35 1.959-5.68-.21-2.33-1.932-4.281-2.941-5.237m1.113 13.349a.99.99 0 01-.597-.2c-.167-.123-4.086-3.088-4.466-7.291-.378-4.203 2.948-7.822 3.09-7.974a1 1 0 011.329-.12c.167.125 4.086 3.09 4.465 7.293.378 4.203-2.948 7.822-3.09 7.974a1 1 0 01-.731.318"/>
    <path fill="#FFF" d="M195.179 96.705c-.35 9.623-8.434 17.14-18.056 16.79-9.622-.35-17.14-8.433-16.79-18.055.35-9.623 8.433-17.14 18.056-16.79 9.622.349 17.14 8.433 16.79 18.055"/>
    <path fill="#ACD3EF" d="M177.748 79.638c-8.789 0-16.094 6.984-16.416 15.838-.329 9.056 6.771 16.69 15.827 17.02 9.091.336 16.692-6.772 17.021-15.827a16.33 16.33 0 00-4.389-11.788 16.324 16.324 0 00-12.043-5.243m.016 34.869c-.225 0-.451-.004-.677-.012-10.158-.37-18.122-8.934-17.753-19.091.368-10.16 8.962-18.13 19.091-17.754a18.313 18.313 0 0112.83 5.869 18.318 18.318 0 014.923 13.222l-.999-.036.999.036c-.361 9.93-8.556 17.766-18.414 17.766"/>
    <path fill="#ACD3EF" d="M183.94 111.646c-18.74 0-24.14-18.75-24.195-18.952a.999.999 0 111.928-.532c.226.811 5.756 19.826 25.89 17.246a.991.991 0 011.12.864 1 1 0 01-.865 1.12 30.546 30.546 0 01-3.879.254"/>
    <path fill="#ACD3EF" d="M187.227 108.44c-16.077 0-26.154-18.839-26.263-19.046a1.001 1.001 0 011.773-.93c.11.213 11.303 21.111 28.392 17.57a1 1 0 11.407 1.958 21.218 21.218 0 01-4.309.447"/>
    <path fill="#ACD3EF" d="M185.037 108.324a.999.999 0 01-.594-1.806c7.524-5.531 8.687-16.405 8.698-16.514a.984.984 0 011.093-.897 1 1 0 01.897 1.092c-.047.482-1.25 11.863-9.502 17.931a1 1 0 01-.592.194M179.74 107.01a.999.999 0 01-.61-1.793c9.07-6.956 11.524-19.713 11.547-19.84a1 1 0 011.967.363c-.1.553-2.605 13.633-12.298 21.064a.988.988 0 01-.607.206M175.491 104.872a1 1 0 01-.69-1.723c8.642-8.27 13.444-20.447 13.492-20.569a1 1 0 011.863.726c-.2.515-5.014 12.714-13.974 21.29a.995.995 0 01-.69.276M168.791 98.958a.999.999 0 01-.974-1.231c2.529-10.658.666-16.594.647-16.652a.999.999 0 011.899-.628c.086.259 2.074 6.47-.6 17.742-.109.459-.52.769-.972.769M173.49 103.501a1 1 0 01-.952-1.307c4.281-13.298 1.55-22.963 1.52-23.059a1.001 1.001 0 011.92-.562c.122.417 2.932 10.357-1.536 24.234a1 1 0 01-.952.694"/>
    <path fill="#ACD3EF" d="M181.945 97.224a1 1 0 01-.973-1.237c2.627-10.747.96-16.224.942-16.279a.999.999 0 011.903-.615c.078.24 1.878 5.996-.9 17.368a1.002 1.002 0 01-.972.763M176.84 114.539h-.027l-6.625-.181a20.088 20.088 0 01-13.326-5.541 13.038 13.038 0 00-8.515-3.584l-2.967-.108a1 1 0 01.035-2h.037l2.967.109a15.03 15.03 0 019.82 4.135 18.1 18.1 0 0012.003 4.99l6.625.18a1.001 1.001 0 01-.026 2"/>
    <path fill="#FFF" d="M194.297 156.443a7.36 7.36 0 00-7.36-7.361h-22.501c-1.993 0-3.781 1.492-3.884 3.483a3.681 3.681 0 003.675 3.878h-4.951a7.361 7.361 0 00-.05 14.72h-3.631a3.68 3.68 0 100 7.36h34.343a7.36 7.36 0 007.359-7.36 7.36 7.36 0 00-7.36-7.36h-3a7.36 7.36 0 007.36-7.36"/>
    <path fill="#ACD3EF" d="M155.595 172.162a2.683 2.683 0 00-2.681 2.681 2.683 2.683 0 002.68 2.68h34.344a6.366 6.366 0 006.359-6.36 6.365 6.365 0 00-6.36-6.359h-3v-2a6.368 6.368 0 006.36-6.362 6.367 6.367 0 00-6.36-6.36h-22.501c-1.52 0-2.813 1.136-2.885 2.534a2.661 2.661 0 00.732 1.991 2.654 2.654 0 001.944.835v2h-4.951a6.37 6.37 0 00-6.362 6.362c0 3.482 2.834 6.335 6.319 6.358l-.007 2h-3.631zm34.343 7.361h-34.343a4.686 4.686 0 01-4.681-4.68 4.69 4.69 0 013.229-4.45 8.352 8.352 0 01-3.23-6.589c0-4.61 3.752-8.362 8.363-8.362h1.113a4.644 4.644 0 01-.836-2.929c.13-2.486 2.274-4.432 4.883-4.432h22.5c4.61 0 8.36 3.751 8.36 8.361a8.35 8.35 0 01-3.265 6.626c3.599.932 6.266 4.208 6.266 8.095 0 4.61-3.75 8.36-8.36 8.36z"/>
    <path fill="#FFF" d="M164.227 156.443h21.82"/>
    <path fill="#ACD3EF" d="M186.047 157.443h-21.82a1 1 0 110-2h21.82a1 1 0 110 2"/>
    <path fill="#FFF" d="M186.936 163.804h-27.639"/>
    <path fill="#ACD3EF" d="M186.936 164.804h-27.64a1 1 0 110-2h27.64a1 1 0 110 2"/>
    <path fill="#FFF" d="M159.226 171.162h26.821"/>
    <path fill="#ACD3EF" d="M186.047 172.162h-26.821a1 1 0 110-2h26.82a1 1 0 110 2"/>
    <path fill="#E1F2FF" d="M186.031 155.45h-22.544c-.99 0-1.793-.803-1.793-1.793h22.683c.923 0 1.67.748 1.67 1.671v.106a.016.016 0 01-.016.016M187.382 162.8h-28.085c0-1.059.858-1.917 1.917-1.917h30.297a5.405 5.405 0 01-4.13 1.917M158.864 170.164h27.084a1.916 1.916 0 00-1.916-1.916h-29.298a5.407 5.407 0 004.13 1.916M190.425 177.524h-35.473a1.917 1.917 0 01-1.917-1.917h41.519a5.405 5.405 0 01-4.13 1.917"/>
    <path fill="#9452BA" d="M74.581 219.776l4.98-.062a4.171 4.171 0 003.851-2.693c1.71-4.572 1.217-8.747 1.383-12.326.307-6.63-.77-10.011-1.826-15.538l-7.472.266s.67 2.746 1.197 10.998c.163 2.553-3.93 12.869-3.669 17.9.043.826.73 1.466 1.556 1.455"/>
    <path fill="#52267D" d="M76.694 190.381c.247 1.507.653 4.575.998 9.976.075 1.182-.5 3.315-1.445 6.697-1.055 3.77-2.366 8.462-2.223 11.216.015.288.285.494.544.506l4.98-.063a3.182 3.182 0 002.927-2.043c1.252-3.348 1.264-6.428 1.275-9.406.004-.903.006-1.776.046-2.615.245-5.284-.406-8.434-1.23-12.422a263.05 263.05 0 01-.416-2.04l-5.456.194zm-2.135 30.395a2.53 2.53 0 01-2.533-2.403c-.16-3.08 1.144-7.744 2.294-11.857.705-2.522 1.434-5.128 1.376-6.032-.516-8.07-1.164-10.797-1.17-10.824l-.292-1.193 9.556-.34.161.842c.193 1.012.388 1.952.574 2.853.818 3.962 1.525 7.384 1.27 12.918a59.336 59.336 0 00-.045 2.532c-.01 3.006-.024 6.416-1.402 10.1-.738 1.972-2.658 3.315-4.776 3.341l-4.979.063h-.034z"/>
    <path fill="#9452BA" d="M59.79 196.29l-6.097-6.74-3.71.193s-.449 5.678-.632 8.055c-.324 4.19-1.956 12.413-2.976 16.025-.332 1.176-.52 2.273-.563 3.265-.073 1.671 1.336 3.032 3.009 3.012l4.41-.056c2.57-.032 4.831-1.775 5.432-4.274 1.868-7.778 1.127-19.48 1.127-19.48"/>
    <path fill="#52267D" d="M50.911 190.697c-.133 1.686-.425 5.379-.563 7.179-.319 4.122-1.92 12.364-3.01 16.219-.31 1.095-.487 2.117-.527 3.037-.022.503.164.985.526 1.357.377.389.903.61 1.446.61h.025l4.411-.054c2.143-.027 3.982-1.47 4.471-3.507 1.636-6.81 1.223-16.86 1.121-18.84l-5.54-6.126-2.36.124zm-2.128 30.402a4.032 4.032 0 01-2.883-1.218 3.806 3.806 0 01-1.087-2.837c.047-1.075.248-2.249.6-3.493 1.042-3.69 2.636-11.884 2.94-15.83.184-2.378.633-8.057.633-8.057l.07-.874 5.06-.265 6.65 7.353.022.348c.03.485.73 11.943-1.152 19.778-.704 2.93-3.333 5.002-6.392 5.04l-4.41.054h-.05z"/>
    <path fill="#52267D" d="M50.792 201.978l.297.26-.03-.5-.267.24zm.417.366l.216.19 1.148-.457-.117-.248-.795.2.018.287-.47.028zm.116.769l-1.285-1.131 1.189-1.07.334.37-.39.353 1.56-.39.52 1.099-1.928.769z"/>
    <path fill="#9452BA" d="M51.054 171.012c4.379-.145 8.444-3.212 17.375-3.736.122-.585.272-1.116.467-1.55 1.573-3.523 3.728-13.642 2.179-20.251l-1.225-5.231a24.337 24.337 0 01-.64-5.233 10.698 10.698 0 01.785-4.15 10.637 10.637 0 011.249-2.241 10.774 10.774 0 012.974-2.77 10.597 10.597 0 015.495-1.609l1.744-.022a10.6 10.6 0 017.56 3.022 10.445 10.445 0 011.767 2.265 10.209 10.209 0 011.075 2.562 10.607 10.607 0 01.368 2.654 2.64 2.64 0 01-.753 1.884 2.647 2.647 0 01-1.865.801l-10.89.136 1.768 9.431c2.056 9.684 1.556 16.185.112 20.532-.322.97-2.181 4.413-2.181 4.413 5.553 8.524 13.95 12.175 22.892 13.153 7.602.831 23.9-6.296 15.352-14.198-8.548-7.901 1.723-3.05 3.239-2.055 1.515.994 10.299 8.393 1.007 19.527-3.93 4.708-8.393 9-19.221 12.383-1.737.542-11.24 1.353-16.341 2.887-15.19 4.568-27.643-.035-34.714-10.01-7.042-9.936-1.307-22.537.422-22.594"/>
    <path fill="#52267D" d="M51.231 172.006c-.478.382-1.78 2.48-2.522 5.901-.698 3.22-1.27 9.466 2.738 15.12 7.331 10.34 19.581 13.854 33.61 9.631 3.256-.978 8.24-1.667 11.88-2.17 1.993-.275 3.877-.535 4.451-.713 10.843-3.388 15.057-7.643 18.751-12.07 3.071-3.678 4.372-7.263 3.868-10.653-.586-3.947-3.559-6.678-4.656-7.398-.798-.524-3.056-1.576-4.468-2.019.431.522 1.175 1.32 2.457 2.505 3.318 3.066 3.026 5.881 2.197 7.701-2.452 5.378-12.853 8.822-18.336 8.225-10.546-1.154-18.493-5.729-23.62-13.6l-.326-.499.283-.523c.702-1.3 1.896-3.608 2.111-4.253 1.663-5.004 1.615-11.737-.142-20.009l-1.99-10.624 12.078-.152a1.63 1.63 0 001.161-.498c.31-.317.476-.733.47-1.173a9.7 9.7 0 00-.06-.986 9.486 9.486 0 00-1.246-3.741 9.941 9.941 0 00-.97-1.375 9.594 9.594 0 00-.63-.676 9.575 9.575 0 00-6.729-2.739l-.122.001-1.744.022a9.627 9.627 0 00-8.617 5.568 9.596 9.596 0 00-.898 4.19c.022 1.687.228 3.375.613 5.017l1.225 5.23c1.602 6.835-.607 17.231-2.24 20.888-.149.334-.284.786-.4 1.346l-.157.75-.764.044c-5.025.294-8.528 1.434-11.343 2.35-2.128.692-3.973 1.292-5.913 1.382m22.81 34.354c-9.952 0-18.586-4.22-24.225-12.176-5.615-7.923-3.558-17.202-1.456-21.436 1.336-2.69 2.333-2.724 2.66-2.735 1.711-.057 3.386-.602 5.505-1.29 2.785-.906 6.22-2.024 11.102-2.396.107-.382.224-.716.355-1.009 1.495-3.347 3.598-13.304 2.12-19.615l-1.226-5.23a25.367 25.367 0 01-.666-5.449 11.791 11.791 0 01.332-2.915 11.484 11.484 0 011.278-3.14 11.725 11.725 0 013.866-3.966 11.639 11.639 0 016.014-1.762l1.744-.022c3.12-.067 6.047 1.137 8.27 3.306.267.258.521.531.762.816a11.767 11.767 0 011.778 2.85 11.532 11.532 0 01.897 3.33c.045.39.07.786.075 1.187a3.62 3.62 0 01-1.037 2.596 3.628 3.628 0 01-2.567 1.102l-9.7.122 1.546 8.261c1.827 8.602 1.856 15.686.08 21.032-.27.815-1.414 3.002-1.966 4.042 4.795 7.045 12.138 11.154 21.836 12.214 5.212.585 14.394-2.884 16.298-7.065.821-1.8.253-3.568-1.733-5.403-3.384-3.128-4.242-4.546-3.402-5.622 1.464-1.869 7.806 1.955 7.868 1.996 1.622 1.064 4.868 4.267 5.537 8.775.591 3.978-.86 8.093-4.312 12.228-3.738 4.48-8.338 9.151-19.69 12.697-.732.23-2.428.463-4.774.787-3.574.494-8.469 1.17-11.577 2.104-3.989 1.2-7.882 1.786-11.593 1.786"/>
    <path fill="#9452BA" d="M60.331 156.424c.208-11.264-8.839-20-19.019-21.742-2.113-.362-2.807-1.015-5.114-.987l-1.766.023c-5.952.075-10.715 4.96-10.64 10.911a2.686 2.686 0 002.72 2.652s18.118-.233 18.203-.242c.001.001 1.475-.017 1.476-.016-.002.002-1.478.021-1.48.023 4.028 1.65 6.586 6.74 7.06 9.485.675 3.911.257 7.148-1.046 9.78-.87 1.751-.944 3.85-.786 5.547l.105.034c.074.907.234 1.938.52 3.113 1.69-1.21 4.322-3.032 4.803-3.294 1.04-.565 3.387-1.853 4.437-2.473 6.71-3.96.41-6.408.527-12.814"/>
    <path fill="#52267D" d="M50.889 171.11l.013.004.139.697c.039.48.103.98.19 1.495 1.453-1.02 3.209-2.228 3.659-2.473 1.166-.634 3.406-1.866 4.406-2.455 3.405-2.01 2.902-3.087 1.686-5.692-.757-1.621-1.7-3.64-1.651-6.28.21-11.412-9.213-19.202-18.187-20.738-.865-.15-1.512-.343-2.083-.514-.88-.265-1.581-.471-2.85-.458l-1.766.022c-5.391.069-9.721 4.509-9.653 9.899.006.45.187.872.509 1.186.323.315.754.525 1.198.479 6.136-.08 17.833-.232 18.178-.241l.432-.013.008.007.325-.003c.19-.003.336-.02.483-.005l.23-.003.002.006c.424.014.53.074.742.286l.707.707-.354.355c3.094 2.36 5.068 6.45 5.504 8.984.689 3.985.307 7.482-1.135 10.393-.683 1.377-.794 3.034-.732 4.356zm-.947 5.57l-.35-1.438a22.228 22.228 0 01-.478-2.61l-.11-.037-.06-.644c-.224-2.402.074-4.45.885-6.085 1.249-2.522 1.572-5.605.956-9.164-.387-2.25-2.624-7.044-6.287-8.66-.88.016-4.298.064-17.973.24-.99-.013-1.915-.36-2.62-1.047a3.664 3.664 0 01-1.113-2.593c-.082-6.493 5.134-11.842 11.627-11.924l1.767-.022c1.593-.021 2.49.253 3.45.542.542.163 1.102.33 1.846.459 9.795 1.676 20.08 10.218 19.849 22.746-.04 2.178.758 3.888 1.463 5.397 1.223 2.62 2.487 5.328-2.482 8.26-1.024.604-3.29 1.849-4.467 2.49-.381.208-2.797 1.867-4.7 3.229l-1.203.86z"/>
    <path fill="#F3E3FF" d="M54.725 169.505c-.11-1.737-.388-2.627-.202-3.337 1.07-4.087 1.42-5.377 1.366-9.688-.054-4.286-2.59-8.49-6.282-10.696-.203-.12-2.844-.274-4.896 1.262 4.029 1.65 6.586 6.74 7.06 9.485.676 3.911.258 7.148-1.046 9.78-.87 1.751-.943 3.85-.785 5.547 0 0 4.939 1.784 4.785-2.353"/>
    <path fill="#52267D" d="M50.41 171.483c.803.23 2.328.488 3.157-.12.468-.342.69-.96.658-1.832a26.292 26.292 0 00-.16-1.618c-.096-.778-.166-1.34-.026-1.87l.03-.118c1.055-4.022 1.373-5.236 1.32-9.44-.05-4.078-2.422-8.11-6.04-10.271-.145-.03-1.929-.122-3.609.77 3.678 2.009 6.046 6.697 6.524 9.463.67 3.879.302 7.272-1.09 10.085-.793 1.597-.866 3.517-.764 4.95m1.704 1.256c-1.188 0-2.273-.384-2.345-.41l-.298-.108-.03-.315c-.147-1.588-.123-3.885.835-5.818 1.298-2.618 1.635-5.804 1.001-9.47-.493-2.861-3.115-7.616-6.756-9.108l-.816-.335.706-.528c2.147-1.607 5.005-1.558 5.451-1.291 3.91 2.335 6.471 6.699 6.527 11.119.054 4.338-.3 5.69-1.353 9.705l-.03.117c-.09.346-.034.803.05 1.495.057.46.125 1.009.167 1.683l.001.013c.046 1.23-.313 2.134-1.068 2.685-.589.43-1.334.566-2.042.566"/>
    <path fill="#FFF" d="M28.8 135.62s-.026-1.882 1.834-2.653c.567-.236 1.604-.673 1.604-.673s1.143 2.342-.111 2.951c-1.805.878-3.326.375-3.326.375"/>
    <path fill="#52267D" d="M29.347 135.224c.52.07 1.488.095 2.562-.428a.468.468 0 00.252-.293c.145-.42-.025-1.086-.193-1.552l-1.142.478c-1.05.435-1.376 1.293-1.48 1.795m.569 1.04c-.745 0-1.234-.156-1.271-.17l-.338-.11-.005-.357c-.001-.09-.008-2.23 2.142-3.122.566-.234 1.6-.672 1.6-.672l.436-.183.208.425c.082.169.792 1.675.42 2.754a1.48 1.48 0 01-.761.867 5.547 5.547 0 01-2.431.568"/>
    <path fill="#FFF" d="M33.465 134.238s.02-2.564 2.9-2.975c.538-.076 1.943-.06 1.943-.06s.68 2.705-.836 2.985c-1.866.344-4.007.05-4.007.05"/>
    <path fill="#52267D" d="M34.03 133.794c.725.062 2.113.13 3.351-.099a.522.522 0 00.376-.249c.268-.418.218-1.223.138-1.745-.48.001-1.154.014-1.459.057-1.734.247-2.252 1.388-2.406 2.036m1.38 1.062c-1.102 0-1.957-.116-2.014-.124l-.435-.059.004-.44c.008-1.036.715-3.093 3.331-3.465.558-.079 1.866-.067 2.017-.066l.385.004.094.374c.05.192.453 1.9-.194 2.906a1.53 1.53 0 01-1.036.693c-.725.134-1.484.177-2.152.177"/>
    <path fill="#FFF" d="M39.204 134.411s.344-2.849 2.908-2.099a3.565 3.565 0 011.712 1.142s-.48 2.172-1.5 1.941c-1.78-.403-3.12-.984-3.12-.984"/>
    <path fill="#52267D" d="M39.782 134.105c.511.194 1.49.54 2.652.804.034.005.074.01.145-.033.284-.18.552-.795.694-1.29a3.1 3.1 0 00-1.3-.793c-.589-.171-1.05-.137-1.418.105-.445.294-.669.842-.773 1.207m2.691 1.808a1.15 1.15 0 01-.259-.03c-1.806-.408-3.153-.988-3.209-1.012l-.342-.15.045-.37c.008-.062.2-1.563 1.297-2.287.62-.408 1.374-.487 2.248-.23a4.06 4.06 0 011.971 1.32l.138.184-.05.225c-.037.166-.384 1.643-1.197 2.157a1.186 1.186 0 01-.642.193"/>
    <path fill="#FFF" d="M46.796 148.122s5.914-3.313 4.713-8.746c.799.642 2.937 2.601 3.717 3.608.013 1.067.262 5.3-5.55 8.21-1.042-1.054-1.925-2.374-2.88-3.072"/>
    <path fill="#52267D" d="M47.634 148.176c.426.403.835.887 1.26 1.39.287.339.58.686.885 1.012 4.94-2.62 4.97-6.147 4.95-7.415-.562-.682-1.671-1.755-2.564-2.559.119 3.926-3.156 6.618-4.531 7.572zm1.94 3.627l-.253-.258c-.421-.426-.812-.888-1.19-1.334-.563-.666-1.097-1.295-1.63-1.685l-.627-.458.677-.381c.057-.032 5.575-3.202 4.47-8.202l-.307-1.389 1.108.891c.854.685 2.999 2.658 3.799 3.692l.103.132.002.167c.067 3.813-1.894 6.694-5.826 8.663l-.325.162z"/>
    <path fill="#F3E3FF" d="M29.604 135.092s-.013-.974.95-1.373c.294-.122.83-.349.83-.349s.591 1.212-.058 1.528c-.935.455-1.722.194-1.722.194M34.69 133.643s.01-1.31 1.479-1.518c.274-.04.99-.03.99-.03s.347 1.379-.427 1.522c-.951.175-2.042.026-2.042.026M40.12 134.195s.183-1.511 1.543-1.113c.582.17.908.605.908.605s-.255 1.153-.796 1.03a10.285 10.285 0 01-1.655-.522M38.728 145.323l-5.445.068a4.967 4.967 0 014.903-5.027l.48-.006a2.483 2.483 0 01.063 4.966"/>
    <path fill="#FFF" d="M38.269 145.237l-4.893.06a3.903 3.903 0 013.853-3.95l.99-.011a1.95 1.95 0 11.05 3.9"/>
    <path fill="#52267D" d="M38.245 141.835h-.02l-.99.012a3.378 3.378 0 00-2.393 1.026 3.37 3.37 0 00-.936 1.917l4.357-.054a1.451 1.451 0 00-.018-2.9zm-5.362 3.968l-.007-.499a4.372 4.372 0 011.25-3.129 4.367 4.367 0 013.097-1.328l.991-.012h.031a2.452 2.452 0 012.45 2.42 2.453 2.453 0 01-2.42 2.481l-5.392.067z"/>
    <path fill="#52267D" d="M34.236 143.221a1.09 1.09 0 102.179-.026 1.09 1.09 0 00-2.179.026M26.253 146.466c.309-.07.583-.246.777-.496l.36-.464-.812.185-.477.108a.342.342 0 00.152.667"/>
    <path fill="#EAF3FB" d="M47.803 148.217s4.557-2.527 4.424-7.502c1.989 1.411 2.535 2.333 2.535 2.333s-.313 2.373-1.402 3.582c-1.671 1.857-3.428 2.443-5.557 1.587"/>
    <path fill="#FFF" d="M52.135 147.29s-1.785 1.861-3.54 2.767"/>
    <path fill="#52267D" d="M48.825 150.501l-.459-.889c1.661-.857 3.391-2.65 3.407-2.669l.723.692c-.075.08-1.864 1.933-3.67 2.866"/>
    <path fill="#9452BA" d="M70.368 166.41l-1.048-2.005c-3.934-9.333-4.593-14.834-2.724-23.81l1.093-5.26c.36-1.727.53-3.487.506-5.249-.073-5.874-4.895-10.576-10.769-10.502l-1.717.021c-5.794.074-10.432 4.828-10.359 10.622l.004.302a2.496 2.496 0 002.528 2.464l10.872-.137-1.53 9.473c-4.727 25.392-4.092 35.654 5.811 33.42"/>
    <path fill="#52267D" d="M60.6 177.05c-1.823 0-3.287-.549-4.434-1.653-3.731-3.593-3.711-12.915.076-33.25l1.336-8.276-9.683.122c-.923-.007-1.815-.34-2.485-.992a3.473 3.473 0 01-1.055-2.46l-.004-.3a11.414 11.414 0 013.263-8.168 11.419 11.419 0 018.083-3.467l1.716-.022c3.1-.074 6.044 1.133 8.27 3.305a11.558 11.558 0 013.513 8.184 25.398 25.398 0 01-.527 5.464l-1.093 5.26c-1.827 8.773-1.228 13.982 2.667 23.22l1.01 1.93-1.77.925-1.048-2.003c-4.068-9.642-4.72-15.343-2.818-24.479l1.093-5.259a23.32 23.32 0 00.486-5.032 9.58 9.58 0 00-2.907-6.779c-1.844-1.796-4.28-2.793-6.85-2.736l-1.717.022c-5.233.066-9.437 4.377-9.371 9.61l.004.301c.005.4.165.773.45 1.052.287.28.697.417 1.065.424l12.06-.15-1.718 10.645c-2.507 13.474-4.544 27.727-.658 31.468 1.135 1.094 2.855 1.361 5.262.817l.439 1.951c-.96.217-1.842.325-2.654.325"/>
    <path fill="#FFF" d="M50.477 120.93s.15-1.846 1.974-2.601c.556-.231 1.434-.003 1.434-.003s1.079 1.64-.15 2.238c-1.77.859-3.258.366-3.258.366"/>
    <path fill="#52267D" d="M51.067 120.542a4.357 4.357 0 002.448-.429c.205-.098.26-.216.285-.306.087-.314-.095-.769-.237-1.038-.292-.05-.69-.076-.92.022-1.02.422-1.422 1.244-1.576 1.751m.502 1.028c-.732 0-1.214-.154-1.25-.166l-.373-.124.032-.39c.007-.089.2-2.16 2.28-3.023.692-.289 1.645-.054 1.751-.026l.187.05.106.16c.074.111.711 1.117.463 2.02-.114.413-.394.74-.812.942a5.443 5.443 0 01-2.384.557"/>
    <path fill="#FFF" d="M54.83 120.268s.023-2.905 3.285-3.37c.61-.086 1.392-.036 1.392-.036s1.58 3.032-.14 3.348c-2.112.39-4.537.058-4.537.058"/>
    <path fill="#52267D" d="M55.385 119.825c.796.07 2.434.162 3.892-.107.212-.04.282-.127.322-.21.214-.437-.084-1.444-.41-2.158a6.223 6.223 0 00-1.003.044c-2.092.297-2.652 1.697-2.801 2.43m1.644 1.077c-1.241 0-2.203-.13-2.266-.139l-.437-.059.004-.44c.01-1.154.798-3.445 3.715-3.86.653-.092 1.46-.042 1.493-.04l.283.017.129.252c.115.218 1.103 2.178.547 3.315-.137.283-.43.644-1.04.756-.818.15-1.675.197-2.428.197"/>
    <path fill="#FFF" d="M60.683 120.855s.408-2.781 2.9-1.983c1.067.34 1.65 1.16 1.65 1.16s-.527 2.116-1.52 1.865c-1.731-.44-3.03-1.042-3.03-1.042"/>
    <path fill="#52267D" d="M61.27 120.563c.496.204 1.44.563 2.566.85.035.008.072.01.136-.028.276-.166.556-.763.706-1.233a3.015 3.015 0 00-1.246-.804c-.567-.181-1.018-.158-1.383.068-.435.272-.667.793-.78 1.147m2.607 1.854a1.12 1.12 0 01-.285-.036 19.408 19.408 0 01-3.119-1.073l-.339-.156.054-.37c.01-.062.236-1.531 1.334-2.215.617-.386 1.362-.444 2.215-.172a4.002 4.002 0 011.904 1.348l.133.187-.055.224c-.067.264-.436 1.612-1.233 2.09-.193.115-.4.173-.61.173"/>
    <path fill="#F3E3FF" d="M51.278 170.673a4.932 4.932 0 011.776-.884"/>
    <path fill="#52267D" d="M51.583 171.07l-.609-.793a5.441 5.441 0 011.959-.972l.244.969a4.431 4.431 0 00-1.594.796"/>
    <path fill="#F3E3FF" d="M54.878 170.57c-1.867-7.197 1.165-21.045 1.71-24.45l2.164-13.644 1.023-.013c1.297-.016 2.296 1.38 2.128 2.669l-1.544 11.829c-.521 4.006-.884 22.527 6.113 26.417 1.493.83 3.895.243 4.798-.202 3.282-1.62 4.18-5.75 4.862-9.077 1.41-6.887.177-12.265-.223-17.645l-.432-6.733c-.078-1.216.874-2.521 2.09-2.536l1.243-.015 2.407 13.586c.72 3.869 2.62 17.29-5.223 23.693-.141.116 1.934.553 1.347 1.62-2.33 4.242-9.225 4.995-10.502 6.815-4.92 7.006-.045 21.743-.045 21.743s-5.585-2.15-9.065-5.19c-8.136-7.11-9.29-17.543-9.365-20.617-.09-3.678.847-5.972 2.02-7.35"/>
    <path fill="#52267D" d="M67.6 205.472l-.985-.38c-.232-.088-5.708-2.215-9.215-5.278-8.775-7.67-9.483-18.823-9.535-20.982-.082-3.337.637-5.923 2.138-7.685l.762.648c-1.318 1.548-1.976 3.973-1.9 7.012.03 1.278.554 12.703 9.193 20.253 2.516 2.198 6.21 3.944 7.947 4.697-1.02-3.518-3.875-15.037.425-21.161.577-.822 1.92-1.371 3.62-2.066 2.454-1.003 5.507-2.251 6.853-4.702.057-.104.043-.148.037-.165-.078-.233-.66-.492-.878-.588-.283-.127-.528-.236-.57-.545l-.037-.277.222-.191c7.549-6.162 5.773-19.327 5.049-23.215l-2.334-13.173-.817.01c-.373.006-.745.186-1.045.51-.375.405-.587.978-.554 1.495l.433 6.732c.09 1.222.225 2.448.362 3.693.47 4.276.955 8.698-.15 14.086-.662 3.236-1.57 7.668-5.13 9.424-.931.458-3.548 1.145-5.262.19-7.506-4.172-6.806-23.53-6.365-26.918l1.544-11.83c.07-.534-.123-1.133-.505-1.562-.311-.35-.702-.541-1.105-.541h-.015l-.603.008-2.097 13.227c-.074.462-.194 1.117-.34 1.92-.89 4.849-2.968 16.208-1.38 22.327l-.97.252c-1.642-6.334.39-17.428 1.365-22.76.146-.793.264-1.44.337-1.897l2.23-14.06 1.445-.017h.029c.692 0 1.348.31 1.85.876.578.65.858 1.53.75 2.357l-1.543 11.829c-.607 4.659-.69 22.275 5.859 25.915 1.277.71 3.489.203 4.334-.212 3.12-1.54 3.972-5.695 4.593-8.73 1.072-5.233.596-9.576.135-13.776-.138-1.256-.274-2.493-.366-3.731l-.433-6.738c-.051-.794.255-1.63.818-2.238.489-.527 1.117-.822 1.767-.83l1.665-.021 2.48 14.004c.732 3.923 2.489 17.003-4.836 23.683.406.209.855.517 1.016.994.073.217.113.56-.108.965-1.517 2.76-4.751 4.083-7.35 5.145-1.427.583-2.773 1.134-3.182 1.715-4.72 6.724-.027 21.155.02 21.299l.333 1.003z"/>
    <path fill="#FFF" d="M120.263 175.774s1.127-1.28.464-2.972c-.203-.516-.915-.954-.915-.954s-1.778.334-1.39 1.53c.562 1.723 1.84 2.396 1.84 2.396"/>
    <path fill="#52267D" d="M119.714 172.388c-.278.084-.663.254-.798.483-.04.068-.077.168-.017.352a3.992 3.992 0 001.23 1.85 2.454 2.454 0 00.132-2.088c-.08-.205-.344-.444-.547-.597zm.664 4.012l-.348-.184c-.06-.031-1.466-.79-2.083-2.683-.135-.417-.098-.823.11-1.172.448-.757 1.54-.982 1.662-1.004l.19-.036.164.1c.088.055.862.545 1.119 1.198.766 1.954-.5 3.423-.554 3.485l-.26.296z"/>
    <path fill="#F3E3FF" d="M119.862 174.02s.396-.45.163-1.043c-.07-.181-.32-.334-.32-.334s-.624.117-.488.536c.197.605.645.84.645.84"/>
    <path fill="#FFF" d="M111.018 184.96s-1.117-2.464 1.456-4.133c.48-.31 1.16-.576 1.16-.576s2.522 1.943 1.194 2.884c-1.632 1.155-3.81 1.824-3.81 1.824"/>
    <path fill="#52267D" d="M113.55 180.828a6.12 6.12 0 00-.804.418c-1.602 1.04-1.56 2.394-1.41 3.075.712-.257 2.1-.813 3.202-1.595.152-.107.174-.196.176-.276.009-.433-.627-1.156-1.163-1.622zm-2.806 4.738l-.181-.4c-.45-.988-.682-3.253 1.638-4.759.517-.335 1.223-.61 1.253-.622l.263-.103.224.173c.299.232 1.797 1.446 1.773 2.616-.007.3-.115.73-.598 1.072-1.677 1.187-3.86 1.865-3.952 1.893l-.42.13z"/>
    <path fill="#F3E3FF" d="M111.91 184.016s-.62-1.366.807-2.291c.266-.173.643-.32.643-.32s1.4 1.078.662 1.599c-.905.64-2.113 1.012-2.113 1.012"/>
    <path fill="#FFF" d="M118.833 176.748s1.9 1.628.116 3.126a3.104 3.104 0 01-1.657.69s-1.344-1.4-.683-2.028c1.154-1.097 2.224-1.788 2.224-1.788"/>
    <path fill="#52267D" d="M118.765 177.403c-.396.284-1.09.81-1.811 1.496-.03.328.263.802.534 1.132a2.634 2.634 0 001.14-.54c.392-.328.583-.665.585-1.03.002-.42-.245-.81-.448-1.058zm-1.675 3.674l-.158-.166c-.172-.178-1.024-1.111-1.005-1.958.007-.306.124-.575.338-.78a17.383 17.383 0 012.297-1.844l.313-.202.284.242c.043.037 1.06.922 1.054 2.097-.003.666-.32 1.269-.942 1.79-.88.74-1.907.806-1.951.808l-.23.013z"/>
    <path fill="#F3E3FF" d="M118.574 177.922s.842.721.051 1.385c-.338.283-.734.305-.734.305s-.595-.62-.302-.898c.51-.486.985-.792.985-.792"/>
    <path fill="#FFF" d="M102.013 186.374s-.647-2.196 1.768-3.102c2.415-.906 3.076-.186 3.076-.186s1.37 2.242.18 2.984c-1.19.742-5.024.304-5.024.304"/>
    <path fill="#52267D" d="M102.436 185.915c1.45.134 3.64.165 4.336-.269.602-.375-.023-1.737-.294-2.218-.156-.08-.825-.324-2.521.312-1.467.55-1.57 1.635-1.52 2.175m1.88 1.09a22.61 22.61 0 01-2.36-.134l-.33-.038-.093-.317c-.27-.914-.184-2.867 2.07-3.71 2.603-.979 3.472-.22 3.62-.058.663 1.067 1.349 2.953.078 3.746-.647.403-1.869.511-2.985.511"/>
    <path fill="#F3E3FF" d="M103.144 185.86s-.336-1.143.92-1.613c1.257-.471 1.6-.097 1.6-.097s.712 1.166.093 1.552c-.619.386-2.613.158-2.613.158"/>
    <path fill="#FFF" d="M58.265 135.802s3.9 2.142 9.32.097c-.352 1.693-1.071 5.097-1.071 5.097s-5.024 1.61-8.946-.789c.37-2.246.697-4.405.697-4.405"/>
    <path fill="#52267D" d="M58.117 139.948c3.121 1.72 6.927.917 7.97.648.15-.707.535-2.535.83-3.939-3.948 1.23-6.99.37-8.258-.13-.115.749-.317 2.049-.542 3.422m4.603 2.081c-1.67 0-3.638-.31-5.414-1.396l-.287-.175.055-.332c.37-2.242.696-4.398.696-4.4l.107-.704.627.34c.038.022 3.786 2 8.904.068l.852-.321-.186.89c-.353 1.695-1.07 5.1-1.07 5.1l-.06.285-.278.088c-.12.038-1.786.558-3.946.558"/>
    <path fill="#FFF" d="M87.118 125.598s-.199-1.855-2.054-2.57c-.566-.218-2.088-.26-2.088-.26s-.402 1.973.851 2.543c1.803.82 3.291.287 3.291.287"/>
    <path fill="#52267D" d="M83.422 123.288c-.024.502.034 1.305.612 1.567a4.399 4.399 0 002.484.37c-.167-.507-.591-1.33-1.633-1.73-.27-.104-.922-.173-1.463-.207m2.479 2.98a5.496 5.496 0 01-2.281-.502c-1.596-.727-1.153-3.002-1.134-3.098l.084-.412.42.011c.165.005 1.625.052 2.254.293 2.116.816 2.362 2.896 2.37 2.984l.043.391-.37.133c-.04.014-.574.2-1.386.2"/>
    <path fill="#FFF" d="M82.424 124.708s-.085-2.53-2.937-2.863c-.532-.063-1.212-.002-1.212-.002s-1.31 2.677.195 2.915c1.849.293 3.954-.05 3.954-.05"/>
    <path fill="#52267D" d="M78.606 122.323c-.252.608-.477 1.454-.297 1.8.021.038.06.112.238.14 1.227.196 2.588.096 3.3.017-.17-.636-.71-1.738-2.418-1.937a5.263 5.263 0 00-.823-.02m1.535 3.055c-.559 0-1.165-.033-1.75-.125-.559-.09-.836-.413-.97-.67-.51-.985.247-2.638.404-2.96l.124-.252.281-.026c.027-.002.736-.063 1.315.003 2.593.304 3.344 2.32 3.378 3.344l.015.44-.435.07c-.06.01-1.097.175-2.362.175"/>
    <path fill="#FFF" d="M77.033 124.96s-.48-2.792-2.973-1.925a3.53 3.53 0 00-1.63 1.211s.582 2.117 1.576 1.84c1.734-.486 3.027-1.127 3.027-1.127"/>
    <path fill="#52267D" d="M72.986 124.352c.166.477.458 1.066.745 1.229.068.039.106.033.14.023a19.725 19.725 0 002.57-.922c-.123-.354-.37-.878-.823-1.143-.374-.22-.83-.228-1.394-.031a3.056 3.056 0 00-1.238.844m.841 2.259c-.2 0-.4-.054-.588-.16-.813-.46-1.219-1.806-1.292-2.072l-.06-.221.128-.191c.027-.04.674-.984 1.881-1.404.848-.293 1.601-.257 2.233.116 1.121.66 1.386 2.133 1.397 2.195l.063.368-.334.166c-.055.026-1.355.667-3.115 1.159a1.165 1.165 0 01-.313.044"/>
    <path fill="#F3E3FF" d="M51.43 120.452s.08-.986 1.055-1.39c.297-.123.766-.002.766-.002s.576.876-.081 1.196c-.944.46-1.74.196-1.74.196M55.9 119.766s.014-1.821 2.06-2.112c.38-.055.871-.023.871-.023s.99 1.9-.088 2.099c-1.324.244-2.844.036-2.844.036M61.758 120.562s.235-1.604 1.674-1.145c.615.198.95.67.95.67s-.302 1.22-.875 1.077c-1-.254-1.75-.602-1.75-.602M86.195 125.135s-.105-.98-1.086-1.359c-.299-.116-1.103-.137-1.103-.137s-.213 1.043.45 1.344c.953.434 1.74.152 1.74.152M81.314 124.276s-.047-1.398-1.623-1.583c-.295-.034-.671-.001-.671-.001s-.725 1.48.107 1.61c1.023.163 2.187-.026 2.187-.026M76.035 124.781s-.264-1.526-1.626-1.052a1.93 1.93 0 00-.893.663s.32 1.159.863 1.006a10.446 10.446 0 001.656-.616"/>
    <path fill="#FFF" d="M69.898 140.452s4.806.687 9.353-.489c.475 2.473.784 4.341.784 4.341s-3.137 2.188-8.996 1.015a454.282 454.282 0 00-1.14-4.867"/>
    <path fill="#52267D" d="M71.453 144.89c4.437.808 7.2-.396 8.032-.842-.099-.583-.323-1.87-.627-3.474-3.429.784-6.849.594-8.307.456.174.732.481 2.033.902 3.86m2.947 1.277c-1.026 0-2.179-.101-3.459-.357l-.317-.064-.072-.314a441.567 441.567 0 00-1.14-4.861l-.174-.717.731.103c.047.008 4.762.66 9.157-.478l.515-.133.101.523c.477 2.48.786 4.354.786 4.354l.052.31-.259.18c-.106.075-2.139 1.454-5.92 1.454"/>
    <path fill="#F3E3FF" d="M77.77 135.536l5.445-.069a4.966 4.966 0 00-5.029-4.904l-.478.007a2.484 2.484 0 00-2.453 2.514 2.484 2.484 0 002.515 2.452"/>
    <path fill="#FFF" d="M78.365 135.435l4.755-.06a3.903 3.903 0 00-3.95-3.852l-1.129.015a1.811 1.811 0 00-1.79 1.835 2.086 2.086 0 002.114 2.062"/>
    <path fill="#52267D" d="M79.219 132.023h-.043l-1.128.015a1.31 1.31 0 00-1.297 1.33c.005.424.175.82.479 1.116.299.292.692.45 1.108.45h.014l4.225-.052a3.406 3.406 0 00-3.358-2.86zm-.881 3.912c-.68 0-1.32-.26-1.807-.734a2.572 2.572 0 01-.78-1.822 2.3 2.3 0 01.656-1.643 2.3 2.3 0 011.628-.698l1.128-.015h.055a4.408 4.408 0 014.402 4.347l.006.5-5.255.065h-.033z"/>
    <path fill="#52267D" d="M80.356 134.496a1.089 1.089 0 111.947-.978 1.088 1.088 0 11-1.947.978"/>
    <path fill="#F3E3FF" d="M58.87 131.065l-5.445.068a4.966 4.966 0 014.903-5.028l.48-.006a2.482 2.482 0 11.061 4.966"/>
    <path fill="#FFF" d="M58.41 130.977l-4.894.062a3.904 3.904 0 013.853-3.951l.992-.012a1.952 1.952 0 01.05 3.9"/>
    <path fill="#52267D" d="M58.385 127.575h-.018l-.991.013a3.408 3.408 0 00-3.33 2.943l4.359-.055c.386-.005.749-.16 1.019-.437.27-.277.417-.644.412-1.03a1.454 1.454 0 00-1.451-1.434zm-5.362 3.97l-.006-.5a4.409 4.409 0 014.346-4.457l.992-.013h.029a2.455 2.455 0 012.452 2.421 2.435 2.435 0 01-.696 1.741 2.427 2.427 0 01-1.724.74l-5.393.067z"/>
    <path fill="#52267D" d="M54.88 129.907a1.089 1.089 0 101.375-1.69 1.089 1.089 0 10-1.374 1.69M89.79 136.518a1.356 1.356 0 01-.79-.477l-.37-.454.814.164.48.097a.34.34 0 01.267.402.34.34 0 01-.402.268M47.723 131.95c.309-.07.584-.246.777-.496l.36-.464-.811.185-.477.108a.342.342 0 10.15.667"/>
    <path fill="#EAF3FB" d="M58.738 136.503s4.08 1.68 8.153.047c-.398 2.406-.765 3.637-.765 3.637s-2.462.175-4.096-.125c-2.335-.429-3.266-1.477-3.292-3.559"/>
    <path fill="#FFF" d="M64.423 139.511s-3.688.354-6.565-1.092"/>
    <path fill="#52267D" d="M63.367 140.051c-1.354 0-3.715-.17-5.734-1.186l.45-.892c2.715 1.364 6.257 1.043 6.292 1.04l.096.996c-.05.005-.465.042-1.104.042"/>
    <path fill="#EAF3FB" d="M77.505 140.899s-3.587 1.068-6.771.473c.63 2.357.958 3.093.958 3.093s4.755-.694 5.813-3.566"/>
    <path fill="#F3E3FF" d="M75.995 174.5s-.216.158-.522.35"/>
    <path fill="#52267D" d="M75.605 175.06l-.265-.423a8.19 8.19 0 00.506-.34l.297.404s-.223.164-.539.36"/>
    <path fill="#FFF" d="M77.87 142.255s-3.615.732-7.468.321"/>
    <path fill="#52267D" d="M72.883 143.202c-.806 0-1.662-.036-2.533-.129l.105-.994c3.728.395 7.28-.307 7.315-.314l.199.98c-.117.023-2.3.457-5.086.457"/>
    <path fill="#FFF" d="M72.868 216.874s-.972-.77-2.235.294c-1.156.974-2.015 2.466-1.49 2.608a5.546 5.546 0 002.413.086c.84-.165 1.584-.01 1.9-1.777.147-.822-.588-1.21-.588-1.21"/>
    <path fill="#52267D" d="M71.993 216.855c-.322 0-.735.113-1.199.505-1.02.86-1.636 1.974-1.555 2.205.236.042 1.191.264 2.27.053.114-.023.228-.04.34-.057.673-.1 1.12-.166 1.361-1.52.112-.626-.437-.933-.46-.946l-.036-.023a1.239 1.239 0 00-.72-.217m-1.429 3.352a5.84 5.84 0 01-1.487-.19.449.449 0 01-.328-.348c-.137-.616.798-1.913 1.722-2.692 1.292-1.09 2.357-.434 2.528-.315.312.172.842.687.702 1.467-.305 1.708-1.055 1.82-1.78 1.927-.104.015-.21.03-.319.052a5.36 5.36 0 01-1.038.099"/>
    <path fill="#EAF3FB" d="M72.652 217.162s-.604-.48-1.39.183c-.719.606-1.255 1.535-.927 1.623.326.09.9.172 1.501.053.522-.102.986-.006 1.182-1.105.092-.512-.366-.754-.366-.754"/>
    <path fill="#FFF" d="M74.231 216.84c.508-.075 1.252 1.02 1.173 1.355-.079.338-.123 1.45-.944 1.581-.604.096-2.76.348-3.238-.116-.439-.426.386-2.435 3.01-2.82"/>
    <path fill="#52267D" d="M74.268 217.086c-1.844.271-2.661 1.353-2.854 1.948-.085.267-.048.416-.017.447.308.298 1.953.22 3.025.047.48-.076.614-.649.7-1.179.014-.084.027-.157.04-.21.009-.11-.196-.534-.516-.839-.18-.17-.302-.208-.378-.214m-1.667 3.098c-.65 0-1.28-.079-1.552-.344-.204-.198-.244-.548-.11-.96.305-.945 1.43-2.02 3.257-2.288.346-.057.686.221.904.458.266.29.63.848.548 1.203a1.885 1.885 0 00-.031.177c-.078.471-.24 1.452-1.117 1.593-.162.025-1.048.161-1.9.161"/>
    <path fill="#FFF" d="M74.744 216.733c.507-.074 1.252 1.02 1.173 1.356-.079.338-.123 1.45-.944 1.58-.604.096-2.76.348-3.238-.115-.439-.427.386-2.436 3.009-2.82"/>
    <path fill="#52267D" d="M74.79 217.232c-1.527.231-2.205 1.035-2.427 1.371-.22.333-.254.59-.236.655.198.118 1.565.111 2.767-.084.318-.049.42-.528.495-.97.014-.092.028-.17.04-.229-.034-.139-.434-.677-.64-.743m-1.65 3.097c-.717 0-1.421-.095-1.751-.415-.276-.268-.34-.712-.175-1.219.306-.944 1.395-2.154 3.459-2.457.37-.056.754.133 1.125.537.278.304.72.946.606 1.43-.01.04-.017.094-.028.16-.08.487-.267 1.63-1.322 1.798-.356.056-1.143.166-1.913.166"/>
    <path fill="#EAF3FB" d="M74.89 217.037c.3-.044.739.602.692.8-.046.2-.072.855-.555.932-.358.057-1.63.206-1.911-.067-.26-.252.227-1.437 1.775-1.665"/>
    <path fill="#FFF" d="M76.555 217.253s-.39-.197-1.152.252c-.674.396-1.68 1.029-1.403 1.798.277.767 2.416.454 2.89.285.476-.17.769-.692.679-1.146-.197-.988-1.014-1.19-1.014-1.19"/>
    <path fill="#52267D" d="M76.302 217.71c-.101 0-.313.03-.646.226-.33.194-1.333.785-1.185 1.198.189.257 1.703.178 2.252-.017.25-.09.394-.38.355-.577-.127-.638-.597-.788-.65-.804l-.064-.021a.33.33 0 00-.062-.005m-.957 2.585c-.783 0-1.582-.177-1.815-.823-.43-1.193 1.006-2.037 1.619-2.398.822-.483 1.364-.371 1.564-.297.425.12 1.149.573 1.346 1.568.14.712-.298 1.464-1 1.714-.174.062-.937.236-1.714.236"/>
    <path fill="#EAF3FB" d="M76.704 217.524s-.231-.116-.683.15c-.398.234-.994.61-.83 1.064.163.455 1.43.268 1.712.17.28-.102.454-.41.4-.68-.115-.585-.6-.704-.6-.704M74.378 217.144c.299-.044.738.6.69.8-.044.199-.071.854-.554.932-.358.057-1.63.205-1.911-.068-.26-.252.227-1.437 1.775-1.664"/>
    <path fill="#FFF" d="M76.383 217.027s-.441-.223-1.304.285c-.761.448-1.898 1.164-1.586 2.032.313.869 2.733.514 3.27.323.536-.192.867-.783.766-1.295-.222-1.117-1.146-1.345-1.146-1.345"/>
    <path fill="#52267D" d="M76.097 217.229c-.173 0-.471.05-.891.299-.857.504-1.703 1.104-1.477 1.73.214.597 2.322.395 2.95.173.407-.145.685-.608.605-1.011-.187-.938-.931-1.142-.962-1.151l-.045-.016a.544.544 0 00-.18-.024m-1.085 2.929c-.782 0-1.551-.164-1.754-.73-.396-1.101 1.016-1.932 1.694-2.332.862-.506 1.38-.358 1.514-.305.163.046 1.075.362 1.308 1.532.127.642-.288 1.35-.927 1.579-.257.092-1.053.256-1.835.256"/>
    <path fill="#EAF3FB" d="M76.552 217.334s-.262-.133-.772.168c-.452.266-1.124.69-.94 1.204.186.514 1.618.304 1.937.19.317-.113.513-.462.453-.766-.131-.662-.678-.796-.678-.796"/>
    <path fill="#9452BA" d="M65.897 189.343s.563 5.611-.754 14.459c-1.226 8.235-3.55 10.843-3.35 12.972.154 1.648.87 3.151 2.526 3.131l4.94-.063a5.363 5.363 0 005.035-3.72c.577-1.766 1.168-4.168 1.5-7.198.328-4.12.195-8.248.096-10.671"/>
    <path fill="#52267D" d="M64.284 220.904c-1.948 0-3.25-1.505-3.487-4.038-.106-1.129.31-2.247.887-3.795.75-2.014 1.78-4.772 2.47-9.417 1.28-8.6.753-14.157.747-14.212l1.99-.199c.024.233.562 5.837-.758 14.706-.723 4.851-1.837 7.842-2.575 9.82-.502 1.348-.833 2.238-.77 2.91.096 1.017.434 2.225 1.5 2.225h.017l4.941-.063a4.37 4.37 0 004.098-3.029c.69-2.117 1.18-4.47 1.456-6.998.343-4.323.161-8.826.091-10.52l1.998-.082c.111 2.713.221 6.782-.098 10.791-.295 2.692-.814 5.181-1.545 7.428a6.372 6.372 0 01-5.975 4.411l-4.94.062h-.047z"/>
    <path fill="#9452BA" d="M91.272 192.742c-1.618 1.429-2.438 3.746-2.398 5.865.053 2.828 1.74 6.41.758 11.125-.875 4.2-2.71 4.963-2.108 8.714.11.677.725 1.157 1.41 1.15l5.505-.07a5.188 5.188 0 005.063-4.4c1.023-6.69.099-12.98-.852-17.803"/>
    <path fill="#52267D" d="M88.916 220.595c-1.175 0-2.194-.85-2.379-1.989-.41-2.552.194-3.915.895-5.493.42-.946.895-2.017 1.22-3.584.608-2.916.12-5.39-.309-7.573-.231-1.173-.449-2.282-.469-3.331-.048-2.558 1-5.1 2.736-6.634l1.325 1.5c-1.309 1.156-2.099 3.108-2.061 5.097.016.872.209 1.85.432 2.982.443 2.252.995 5.053.305 8.367-.37 1.775-.914 3.001-1.351 3.987-.641 1.444-1.064 2.399-.748 4.364.028.174.251.326.41.307l5.505-.069a4.173 4.173 0 004.087-3.552c1.005-6.573.076-12.782-.845-17.457l1.963-.387c.952 4.834 1.91 11.266.858 18.147a6.163 6.163 0 01-6.038 5.249l-5.505.069h-.031z"/>
    <path fill="#52267D" d="M92.669 199.992l-1.89-.902 1.848-1.515.794.254-.152.476-.535-.172-1.029.845.925.441.533-.35-.351-.074-.231.17-.297-.402.41-.303 1.748.369z"/>
    <path fill="#FFF" d="M62.875 217s-.972-.772-2.235.294c-1.156.973-2.015 2.465-1.49 2.607a5.53 5.53 0 002.413.086c.839-.164 1.584-.01 1.9-1.776.147-.822-.588-1.212-.588-1.212"/>
    <path fill="#52267D" d="M59.537 219.479a5.076 5.076 0 001.93.019c.12-.024.236-.041.35-.06.628-.091.944-.138 1.154-1.314.082-.458-.326-.68-.33-.683l-.073-.046c-.078-.058-.71-.473-1.606.28-.75.633-1.274 1.416-1.425 1.804m1.027 1.104a6.021 6.021 0 01-1.545-.2.7.7 0 01-.506-.534c-.18-.815.97-2.234 1.804-2.937 1.213-1.023 2.36-.68 2.831-.332.394.226.97.818.807 1.719-.312 1.743-1.086 1.996-1.99 2.129-.1.016-.203.03-.307.05a5.593 5.593 0 01-1.094.105"/>
    <path fill="#EAF3FB" d="M62.66 217.287s-.605-.479-1.392.184c-.718.605-1.254 1.534-.926 1.623.326.09.9.171 1.501.053.522-.102.986-.007 1.182-1.106.092-.51-.366-.754-.366-.754"/>
    <path fill="#52267D" d="M70.699 205.184l-2.344-.141-.346-2.229 2.162-.704.154.474-1.758.574.22 1.411 1.691.101.646-.765-.853-.459-.513.156.373.404-.368.34-.914-.99 1.475-.449 1.579.849z"/>
    <g fill="#F3E3FF">
      <path d="M27.863 143.504a.662.662 0 01-.66-.652l.25-.004c0 .11.045.213.123.29a.405.405 0 00.287.116h.005a.41.41 0 00.405-.416l.25-.004a.657.657 0 01-.65.67h-.01z"/>
      <path d="M26.791 143.518a.655.655 0 01-.66-.652l.25-.004a.412.412 0 00.41.406h.003a.409.409 0 00.408-.416l.25-.004a.657.657 0 01-.652.67h-.009z"/>
      <path d="M27.333 144.046a.654.654 0 01-.46-.187.656.656 0 01-.2-.464l.25-.004a.407.407 0 00.411.405h.005a.411.411 0 00.406-.416l.25-.002a.662.662 0 01-.653.668h-.009zM48.256 142.328a.91.91 0 01-.471-.13l.129-.216a.661.661 0 00.912-.224.662.662 0 00-.224-.912l.129-.215a.914.914 0 01-.475 1.697"/>
      <path d="M48.523 143.412a.91.91 0 01-.47-.13l.128-.216a.662.662 0 00.989-.727.662.662 0 00-.3-.409l.128-.215a.914.914 0 01-.475 1.697M74.22 160.604a.839.839 0 01-.59-.24.836.836 0 01-.254-.592l.25-.004a.59.59 0 00.594.586h.005a.595.595 0 00.589-.601l.25-.003a.845.845 0 01-.833.854h-.011z"/>
      <path d="M72.783 160.622a.847.847 0 01-.845-.833l.25-.004a.597.597 0 00.595.587h.007a.586.586 0 00.417-.179.59.59 0 00.17-.422l.25-.003a.84.84 0 01-.832.854h-.012z"/>
      <path d="M73.51 161.331a.844.844 0 01-.843-.832l.25-.004c.004.325.27.586.594.586h.005a.594.594 0 00.588-.6l.25-.004a.844.844 0 01-.832.854h-.011zM53.33 206.402a.839.839 0 01-.59-.24.838.838 0 01-.255-.593l.25-.004a.59.59 0 00.594.587h.007a.588.588 0 00.418-.18.59.59 0 00.17-.421l.25-.003a.834.834 0 01-.24.599.837.837 0 01-.594.255h-.01z"/>
      <path d="M51.893 206.42a.845.845 0 01-.845-.833l.25-.004c.004.325.27.586.595.586h.007a.594.594 0 00.586-.6l.25-.004a.844.844 0 01-.832.854h-.011z"/>
      <path d="M52.62 207.13a.843.843 0 01-.844-.834l.25-.004a.59.59 0 00.18.418c.111.11.266.185.421.17a.586.586 0 00.417-.18.59.59 0 00.17-.422l.25-.003a.84.84 0 01-.832.854h-.012zM72.89 137.785a.918.918 0 01-.915-.903l.25-.004a.667.667 0 00.666.657h.005a.66.66 0 00.658-.673l.25-.004a.912.912 0 01-.902.927h-.011z"/>
      <path d="M72.11 138.584a.916.916 0 01-.915-.902l.25-.004a.661.661 0 00.664.656h.006a.661.661 0 00.66-.672l.25-.004a.91.91 0 01-.904.926h-.012zM63.143 152.026c-.285 0-.554-.11-.758-.31a1.07 1.07 0 01-.327-.761l.25-.002a.835.835 0 00.835.823h.01a.837.837 0 00.824-.846l.25-.002a1.088 1.088 0 01-1.071 1.098h-.013z"/>
      <path d="M62.193 152.996c-.284 0-.553-.109-.757-.309a1.072 1.072 0 01-.326-.762l.25-.002a.832.832 0 00.833.823h.011a.832.832 0 00.824-.844l.25-.004c.004.29-.106.565-.309.772a1.072 1.072 0 01-.762.326h-.014zM48.586 128.031a.768.768 0 01-.766-.757l.25-.004a.518.518 0 001.035-.012l.25-.002a.768.768 0 01-.758.775h-.011z"/>
      <path d="M47.955 128.682a.768.768 0 01-.768-.758l.25-.002a.513.513 0 00.518.51h.006a.518.518 0 00.51-.523l.25-.004a.768.768 0 01-.757.777h-.009zM109.717 191.593l-.061-.002a.857.857 0 01-.592-.295l.189-.164a.613.613 0 10.926-.806l.189-.164a.851.851 0 01.209.627.853.853 0 01-.295.592.855.855 0 01-.565.212"/>
      <path d="M109.644 192.635a.864.864 0 01-.653-.297l.189-.164a.614.614 0 10.926-.806l.189-.164a.866.866 0 01-.085 1.22.858.858 0 01-.566.211M80.448 182.005a1 1 0 01-.898-.569l.226-.108a.743.743 0 101.342-.632l.226-.107a.994.994 0 01-.896 1.416"/>
      <path d="M78.88 182.743a.994.994 0 01-.897-.568l.226-.108c.084.18.234.315.42.382a.74.74 0 00.921-1.014l.227-.107a.994.994 0 01-.896 1.415"/>
      <path d="M80.034 183.159a.984.984 0 01-.898-.569l.226-.108a.736.736 0 00.986.356.736.736 0 00.383-.42.73.73 0 00-.027-.567l.226-.107a.99.99 0 01-.896 1.415"/>
      <path d="M78.466 183.898a1 1 0 01-.898-.57l.226-.107a.743.743 0 001.342-.632l.226-.107a.994.994 0 01-.896 1.416M81.189 183.572a.995.995 0 01-.9-.568l.227-.107a.742.742 0 101.341-.632l.227-.107a.994.994 0 01-.895 1.415M64.843 134.548a1 1 0 01-1-.986l.25-.004a.75.75 0 00.75.74h.009a.75.75 0 00.74-.758l.25-.004a1 1 0 01-.986 1.012h-.013zM64.955 167.602a1 1 0 01-1-.986l.25-.004a.75.75 0 00.75.74h.01a.75.75 0 00.74-.76l.25-.003a1 1 0 01-.987 1.013h-.013zM74.427 149.05a.79.79 0 01-.79-.777l.25-.004a.54.54 0 00.54.531h.006a.536.536 0 00.53-.544l.25-.004a.778.778 0 01-.224.56.78.78 0 01-.553.238h-.01zM89.85 133.632a.62.62 0 01-.623-.615l.25-.002a.37.37 0 00.372.367h.005a.374.374 0 00.367-.377l.25-.002a.624.624 0 01-.614.63h-.007zM95.263 206.9a.991.991 0 01-.562-.176.987.987 0 01-.417-.641l.246-.045a.75.75 0 001.472-.276l.246-.047a.989.989 0 01-.158.749.984.984 0 01-.827.436M71.286 213.877a1.07 1.07 0 01-.756-.308 1.076 1.076 0 01-.328-.762l.25-.004a.837.837 0 00.834.824h.011a.837.837 0 00.824-.845l.25-.004c.004.29-.106.565-.308.772a1.08 1.08 0 01-.762.327h-.015z"/>
      <path d="M70.339 214.849a1.086 1.086 0 01-1.084-1.07l.25-.004a.835.835 0 00.834.824h.008a.839.839 0 00.59-.252.828.828 0 00.237-.593l.25-.004c.004.29-.106.565-.308.772a1.08 1.08 0 01-.762.327h-.015z"/>
    </g>
    <path fill="#FFF" d="M64.238 216.965c.507-.074 1.252 1.02 1.173 1.356-.079.338-.123 1.45-.944 1.58-.604.096-2.76.348-3.238-.115-.439-.427.386-2.436 3.01-2.82"/>
    <path fill="#52267D" d="M64.284 217.464c-1.527.231-2.205 1.035-2.427 1.371-.219.333-.254.59-.236.655.198.118 1.565.111 2.767-.084.318-.049.421-.528.495-.97.014-.092.028-.17.041-.229-.035-.139-.435-.677-.64-.743m-1.65 3.097c-.718 0-1.422-.095-1.752-.415-.276-.268-.339-.712-.175-1.219.306-.944 1.395-2.154 3.46-2.457.37-.056.753.133 1.124.537.278.304.72.946.606 1.43-.009.04-.017.094-.028.16-.08.487-.267 1.63-1.322 1.798-.356.056-1.143.166-1.913.166"/>
    <path fill="#EAF3FB" d="M64.385 217.269c.299-.044.738.602.69.8-.045.2-.071.855-.554.932-.358.057-1.63.206-1.911-.067-.26-.252.227-1.437 1.775-1.665"/>
    <path fill="#FFF" d="M66.049 217.485s-.39-.197-1.152.252c-.674.396-1.68 1.029-1.403 1.798.277.767 2.416.454 2.89.285.476-.17.769-.692.679-1.146-.197-.988-1.014-1.19-1.014-1.19M78.104 217.542s-.39-.197-1.152.252c-.674.396-1.68 1.03-1.403 1.798.277.767 2.416.454 2.89.285.476-.169.769-.692.679-1.146-.197-.988-1.014-1.189-1.014-1.189"/>
    <path fill="#52267D" d="M65.796 217.942c-.101 0-.313.03-.646.226-.33.194-1.333.785-1.185 1.198.189.257 1.703.178 2.252-.017.25-.09.394-.38.355-.577-.127-.638-.597-.788-.65-.804l-.064-.021a.33.33 0 00-.062-.005m-.957 2.585c-.783 0-1.582-.177-1.815-.823-.43-1.193 1.006-2.037 1.619-2.398.822-.483 1.364-.371 1.564-.297.425.12 1.149.573 1.346 1.568.14.712-.298 1.464-1 1.714-.174.062-.937.236-1.714.236M77.85 218c-.1 0-.312.03-.645.226-.33.194-1.333.785-1.185 1.198.189.257 1.703.178 2.252-.017.25-.09.394-.38.355-.577-.127-.638-.597-.788-.65-.804l-.064-.021a.33.33 0 00-.062-.005m-.957 2.585c-.783 0-1.582-.177-1.815-.823-.43-1.193 1.006-2.037 1.619-2.398.822-.483 1.364-.371 1.564-.297.425.12 1.149.573 1.346 1.568.14.712-.298 1.464-1 1.714-.174.062-.937.236-1.714.236"/>
    <path fill="#EAF3FB" d="M66.198 217.756s-.23-.116-.683.15c-.398.234-.994.61-.83 1.064.163.455 1.431.268 1.712.17.28-.102.454-.41.401-.68-.116-.585-.6-.704-.6-.704M78.253 217.814s-.23-.116-.683.149c-.398.235-.994.61-.83 1.065.163.455 1.431.268 1.712.169.28-.101.454-.41.401-.679-.116-.585-.6-.704-.6-.704"/>
    <path fill="#FFF" d="M89.875 217s-.972-.772-2.235.294c-1.156.973-2.015 2.465-1.49 2.607a5.53 5.53 0 002.413.086c.839-.164 1.584-.01 1.9-1.776.147-.822-.588-1.212-.588-1.212"/>
    <path fill="#52267D" d="M86.537 219.479a5.076 5.076 0 001.93.019c.12-.024.236-.041.35-.06.628-.091.944-.138 1.154-1.314.082-.458-.326-.68-.33-.683l-.073-.046c-.078-.058-.71-.473-1.606.28-.75.633-1.274 1.416-1.425 1.804m1.027 1.104a6.021 6.021 0 01-1.545-.2.7.7 0 01-.506-.534c-.18-.815.97-2.234 1.804-2.937 1.213-1.023 2.36-.68 2.831-.332.394.226.97.818.807 1.719-.312 1.743-1.086 1.996-1.99 2.129-.1.016-.203.03-.307.05a5.593 5.593 0 01-1.094.105"/>
    <path fill="#EAF3FB" d="M89.66 217.287s-.605-.479-1.392.184c-.718.605-1.254 1.534-.926 1.623.326.09.9.171 1.501.053.522-.102.986-.007 1.182-1.106.092-.51-.366-.754-.366-.754"/>
    <path fill="#FFF" d="M91.238 216.965c.507-.074 1.252 1.02 1.173 1.356-.079.338-.123 1.45-.944 1.58-.604.096-2.76.348-3.238-.115-.439-.427.386-2.436 3.01-2.82"/>
    <path fill="#52267D" d="M91.284 217.464c-1.527.231-2.205 1.035-2.427 1.371-.219.333-.254.59-.236.655.198.118 1.565.111 2.767-.084.318-.049.421-.528.495-.97.014-.092.028-.17.041-.229-.035-.139-.435-.677-.64-.743m-1.65 3.097c-.718 0-1.422-.095-1.752-.415-.276-.268-.339-.712-.175-1.219.306-.944 1.395-2.154 3.46-2.457.37-.056.753.133 1.124.537.278.304.72.946.606 1.43-.009.04-.017.094-.028.16-.08.487-.267 1.63-1.322 1.798-.356.056-1.143.166-1.913.166"/>
    <path fill="#EAF3FB" d="M91.385 217.269c.299-.044.738.602.69.8-.045.2-.071.855-.554.932-.358.057-1.63.206-1.911-.067-.26-.252.227-1.437 1.775-1.665"/>
    <path fill="#FFF" d="M93.049 217.485s-.39-.197-1.152.252c-.674.396-1.68 1.029-1.403 1.798.277.767 2.416.454 2.89.285.476-.17.769-.692.679-1.146-.197-.988-1.014-1.19-1.014-1.19"/>
    <path fill="#52267D" d="M92.796 217.942c-.101 0-.313.03-.646.226-.33.194-1.333.785-1.185 1.198.189.257 1.703.178 2.252-.017.25-.09.394-.38.355-.577-.127-.638-.597-.788-.65-.804l-.064-.021a.33.33 0 00-.062-.005m-.957 2.585c-.783 0-1.582-.177-1.815-.823-.43-1.193 1.006-2.037 1.619-2.398.822-.483 1.364-.371 1.564-.297.425.12 1.149.573 1.346 1.568.14.712-.298 1.464-1 1.714-.174.062-.937.236-1.714.236"/>
    <path fill="#EAF3FB" d="M93.198 217.756s-.23-.116-.683.15c-.398.234-.994.61-.83 1.064.163.455 1.431.268 1.712.17.28-.102.454-.41.401-.68-.116-.585-.6-.704-.6-.704"/>
    <path fill="#FFF" d="M45.775 217.953s-.39-.197-1.153.252c-.674.396-1.679 1.03-1.403 1.798.277.767 2.416.454 2.891.285.475-.17.768-.692.678-1.146-.197-.988-1.013-1.189-1.013-1.189"/>
    <path fill="#52267D" d="M45.522 218.41c-.101 0-.314.03-.646.226-.33.194-1.333.785-1.185 1.198.188.258 1.702.18 2.251-.017.251-.09.394-.379.355-.577-.126-.638-.595-.789-.65-.804l-.063-.02a.294.294 0 00-.063-.006m-.956 2.585c-.783 0-1.582-.177-1.815-.823-.43-1.193 1.006-2.037 1.619-2.398.824-.485 1.365-.37 1.565-.297.424.121 1.148.573 1.345 1.568.14.71-.298 1.463-1 1.714-.174.062-.937.236-1.714.236"/>
    <path fill="#EAF3FB" d="M45.924 218.225s-.23-.117-.683.149c-.398.235-.994.61-.83 1.065.163.454 1.43.268 1.712.168a.625.625 0 00.402-.678c-.117-.585-.601-.704-.601-.704"/>
    <path fill="#FFF" d="M48.113 217.381c.508-.074 1.252 1.02 1.173 1.357-.079.337-.123 1.45-.944 1.58-.604.096-2.76.348-3.238-.116-.439-.426.386-2.435 3.01-2.82"/>
    <path fill="#52267D" d="M48.16 217.88c-1.527.232-2.206 1.035-2.427 1.371-.219.333-.255.59-.237.655.197.117 1.566.11 2.768-.083.316-.049.42-.528.494-.97.014-.093.028-.17.042-.229-.036-.14-.436-.678-.64-.744m-1.65 3.098c-.718 0-1.423-.095-1.754-.417-.274-.266-.338-.709-.174-1.215.305-.945 1.393-2.156 3.46-2.46.362-.05.753.132 1.123.536.28.304.721.946.608 1.431-.009.041-.018.096-.029.16-.08.488-.267 1.63-1.322 1.8-.356.055-1.142.165-1.912.165"/>
    <path fill="#EAF3FB" d="M48.26 217.686c.299-.044.738.6.69.8-.044.199-.071.854-.554.932-.358.057-1.63.205-1.911-.068-.26-.252.227-1.437 1.775-1.664"/>
    <path fill="#FFF" d="M54.788 217.773c.157-.136.347-.176.504-.104.587.268 2.07 1.032 1.78 2.094-.227.827-.734.586-1.697.615l-.726.023a.41.41 0 01-.369-.208c-.427-.693-.215-1.794.458-2.377l.05-.043z"/>
    <path fill="#52267D" d="M55.084 218.123l.03.028-.05.043c-.486.422-.658 1.25-.358 1.737l.653-.053c.216-.006.411 0 .585.005.567.018.572.02.645-.252.185-.676-1.106-1.325-1.505-1.508zm-.449 2.777a.91.91 0 01-.781-.447c-.551-.894-.296-2.276.557-3.016l.05-.043c.305-.263.703-.333 1.037-.18 2.157.985 2.214 2.102 2.056 2.68-.283 1.033-1.043 1.01-1.642.99a8.707 8.707 0 00-.521-.006l-.726.022h-.03z"/>
    <path fill="#EAF3FB" d="M54.866 218.009c.114-.1.252-.128.366-.076.427.195 1.504.75 1.293 1.521-.165.602-.533.426-1.232.449l-.529.015a.298.298 0 01-.267-.15c-.31-.504-.156-1.304.333-1.728l.036-.031z"/>
    <path fill="#FFF" d="M51.375 217.5s-.902-.852-2.252.103c-1.233.871-2.217 2.285-1.706 2.471a5.55 5.55 0 002.396.291c.851-.093 1.581.123 2.045-1.609.216-.807-.483-1.257-.483-1.257"/>
    <path fill="#52267D" d="M47.839 219.686a5.076 5.076 0 001.92.183c.12-.013.24-.021.356-.03.633-.038.95-.057 1.26-1.213.112-.42-.21-.665-.276-.71l-.061-.047c-.064-.057-.662-.537-1.626.142-.801.566-1.39 1.3-1.573 1.675m1.43 1.209a6.069 6.069 0 01-2.023-.351.7.7 0 01-.46-.576c-.11-.827 1.157-2.144 2.049-2.773 1.296-.915 2.408-.476 2.849-.091.372.259.894.897.658 1.78-.46 1.712-1.252 1.898-2.165 1.954-.101.007-.204.013-.31.025a5.635 5.635 0 01-.597.032"/>
    <path fill="#EAF3FB" d="M51.136 217.768s-.562-.53-1.401.064c-.768.543-1.38 1.423-1.062 1.54a3.47 3.47 0 001.49.18c.53-.058.985.076 1.274-1.002.135-.502-.301-.782-.301-.782"/>
  </g>
</svg>
