<?xml version="1.0" encoding="UTF-8"?>
<svg width="256px" height="256px" viewBox="0 0 256 256" version="1.1" xmlns="http://www.w3.org/2000/svg" xmlns:xlink="http://www.w3.org/1999/xlink">
    <!-- Generator: Sketch Beta 47 (45392) - http://www.bohemiancoding.com/sketch -->
    <title>Default-picture</title>
    <desc>Created with Sketch Beta.</desc>
    <defs>
        <rect id="path-1" x="0.83027027" y="0.941667856" width="116.233011" height="105.546377" rx="2"></rect>
    </defs>
    <g id="Illustrations" stroke="none" stroke-width="1" fill="none" fill-rule="evenodd">
        <g id="Default-picture">
            <circle id="Oval-2" fill="#F6F7FB" cx="128" cy="128" r="95"></circle>
            <g id="Group-3" transform="translate(57.000000, 48.000000)">
                <rect id="Rectangle-path" stroke="#D9DDE2" stroke-width="2" fill="#FFFFFF" fill-rule="nonzero" x="0" y="0" width="144" height="164" rx="2"></rect>
                <rect id="Rectangle-path" stroke="#D9DDE2" stroke-width="2" fill="#F6F7FB" fill-rule="nonzero" x="13.3953488" y="16.7346939" width="116.093023" height="105.986395" rx="2"></rect>
                <path d="M44.6511628,40.1632653 L44.6511628,49.0884354" id="Shape" stroke="#FFFFFF" stroke-width="2" stroke-linecap="round" stroke-linejoin="round"></path>
                <path d="M49.1162791,45.7414966 L40.1860465,45.7414966" id="Shape" stroke="#FFFFFF" stroke-width="2" stroke-linecap="round" stroke-linejoin="round"></path>
                <path d="M108.27907,54.6666667 L108.27907,60.244898" id="Shape" stroke="#FFFFFF" stroke-linecap="round"></path>
                <path d="M111.627907,58.0136054 L106.046512,58.0136054" id="Shape" stroke="#FFFFFF" stroke-linecap="round"></path>
                <g id="Group-2" transform="translate(13.395349, 15.619048)">
                    <mask id="mask-2" fill="white">
                        <use xlink:href="#path-1"></use>
                    </mask>
                    <g id="Rectangle-path" fill-rule="nonzero"></g>
                    <g id="Group" mask="url(#mask-2)">
                        <g transform="translate(-30.139535, 51.725417)">
                            <path d="M68.470748,136.95299 L61.8334129,136.95299 C59.5549201,136.958896 57.5055552,135.569298 56.6695663,133.451577 C54.3199497,127.416945 54.9040352,121.873041 54.6252671,117.124913 C54.107555,108.331592 55.474846,103.861986 56.7890383,96.4877979 L66.7052168,96.7132677 C66.7052168,96.7132677 65.855638,100.360573 65.2981018,111.302488 C65.1255311,114.697797 70.7274419,128.305561 70.4619485,134.976814 C70.4337582,136.06148 69.5565386,136.93208 68.470748,136.95299 L68.470748,136.95299 Z" id="Shape" stroke="#52267D" stroke-width="2" fill="#9452BA" fill-rule="nonzero"></path>
                            <path d="M87.7190195,105.55964 L95.6838215,96.5143238 L100.608724,96.7132677 C100.608724,96.7132677 101.299007,104.233348 101.577775,107.32361 C102.467438,114.490175 103.878285,121.582493 105.79912,128.544294 C106.229735,129.950235 106.496986,131.401016 106.5956,132.868008 C106.61752,133.929835 106.20499,134.954652 105.45334,135.705637 C104.701691,136.456621 103.675966,136.868787 102.613199,136.846886 L96.7590698,136.846886 C93.3470799,136.863152 90.355668,134.572492 89.4845506,131.276457 C86.9225393,121.090529 87.7190195,105.55964 87.7190195,105.55964 Z" id="Shape" stroke="#52267D" stroke-width="2" fill="#9452BA" fill-rule="nonzero"></path>
                            <polyline id="Shape" stroke="#52267D" stroke-width="0.5" fill="none" points="98.9361157 111.793216 100.250308 112.947091 98.9892143 114.087703 96.9449151 113.30519 97.3564299 112.403311 99.0555877 112.801199 99.042313 113.106246 98.6042489 113.07972"></polyline>
                            <path d="M98.8962916,71.8983302 C93.0819862,71.7789639 87.6393715,67.7735598 75.7718165,67.2297797 C75.6270201,66.5281127 75.4090094,65.8435422 75.1213576,65.1872889 C72.9708611,60.5452643 69.9442363,47.1629704 71.8956128,38.3696494 L73.4354745,31.4066124 C73.9394711,29.1243358 74.1931856,26.7940052 74.1921307,24.4568384 L74.1921307,24.4568384 C74.1906443,23.5033403 74.0928005,22.5524286 73.900088,21.6185719 C73.8558391,21.3886812 73.8027404,21.1632114 73.740792,20.9421626 C73.568357,20.2723829 73.3465056,19.6162837 73.0770585,18.9792493 C72.9885607,18.7670425 72.895638,18.5592566 72.7982904,18.3558917 C72.6035952,17.9491619 72.3867756,17.5512741 72.1478316,17.1622282 C71.9088875,16.7731824 71.6566688,16.3973994 71.3911754,16.0348794 C70.5774505,14.9478519 69.6118366,13.9830921 68.5238466,13.1700871 C68.1610057,12.8959866 67.78489,12.6439909 67.3954997,12.4141002 C65.1872645,11.0733527 62.6518838,10.3666439 60.0678818,10.3716093 L57.7580893,10.3716093 C54.0222383,10.3612834 50.4356231,11.8356959 47.7888121,14.469854 C47.47022,14.7881642 47.1649026,15.1241584 46.8728598,15.4778364 C46.3500925,16.11248 45.8837125,16.7914611 45.4790195,17.5070644 C45.3197234,17.7723229 45.1737021,18.0508444 45.0409554,18.3293659 C44.9082087,18.6078874 44.8418353,18.7405166 44.7621873,18.9527235 C44.2168737,20.2419204 43.8678621,21.6054379 43.726763,22.9979164 C43.680182,23.4783711 43.6580291,23.9608777 43.6603897,24.4435755 L43.6603897,24.4435755 C43.6603897,25.3757255 44.0310127,26.269697 44.6907258,26.9288266 C45.350439,27.5879561 46.245202,27.9582513 47.1781772,27.9582513 L61.6342929,27.9582513 L59.4439723,40.4917178 C56.881961,53.3700205 57.6518919,61.9776604 59.6430924,67.7205081 C60.0811565,69.0468008 62.6166185,73.5429333 62.6166185,73.5429333 C55.355374,84.8827363 44.2710245,89.9359117 32.4167442,91.3815708 C22.3412696,92.6150231 0.557536141,83.4238143 11.8011816,72.8134722 C23.0448272,62.2031302 9.46483972,68.834594 7.47363922,70.1608867 C5.48243872,71.4871795 -6.05324953,81.460901 6.4647643,96.0766472 C11.7746323,102.257171 17.7615085,107.86739 32.1778001,112.177841 C34.4875927,112.867513 47.1118039,113.782655 53.9217096,115.732306 C74.1655814,121.541468 90.6128975,115.228315 99.8387932,101.872547 C109.064689,88.5167785 101.19281,71.938119 98.8962916,71.8983302 Z" id="Shape" stroke="#52267D" stroke-width="2" fill="#9452BA" fill-rule="nonzero"></path>
                            <path d="M86.2853551,52.6936112 C85.8207417,37.7595547 97.6882967,26.0218639 111.162087,23.5151705 C113.963042,22.9979164 114.86572,22.1888778 117.932168,22.1888778 L120.281785,22.1888778 C128.185032,22.1888778 134.591879,28.5900579 134.591879,36.4863137 C134.591879,38.4567152 132.993139,40.0540412 131.020993,40.0540412 L106.861094,40.0540412 C101.551226,42.3087389 98.2325581,49.0993578 97.6484727,52.7466629 C96.7583759,57.1160926 97.3030703,61.6558481 99.2016091,65.6912801 C100.233922,67.9940557 100.623797,70.5328751 100.329956,73.038942 L100.197209,73.038942 C100.093016,74.4327627 99.8799724,75.8163182 99.5600251,77.1769754 C97.2900566,75.598687 93.772269,73.1980971 93.1350849,72.8930498 C91.8076179,72.1635888 88.6084224,70.4924599 87.2013074,69.6834213 C78.3205531,64.5506684 86.5906725,61.1951477 86.2853551,52.6936112 Z" id="Shape" stroke="#52267D" stroke-width="2" fill="#9452BA" fill-rule="nonzero"></path>
                            <path d="M93.9979384,69.9486799 C94.1174104,67.6409305 94.4625519,66.4605299 94.2103331,65.5188621 C92.7235701,60.1208506 92.2324073,58.4099329 92.2324073,52.6936112 C92.3763377,46.8775716 95.4462108,41.5262544 100.396329,38.4624899 C102.692088,38.1529073 105.020152,38.7213808 106.914192,40.0540412 C101.604324,42.3087389 98.2856568,49.0993578 97.7015713,52.7466629 C96.8114746,57.1160926 97.3561689,61.6558481 99.2547077,65.6912801 C100.287021,67.9940557 100.676896,70.5328751 100.383055,73.038942 C100.383055,73.038942 93.851917,75.4925836 93.9979384,70.0017316" id="Shape" stroke="#52267D" stroke-width="1" fill="#F3E3FF" fill-rule="nonzero"></path>
                            <path d="M127.835072,24.5894677 C127.757295,23.0432571 126.788909,21.6825073 125.352709,21.1013177 L123.215487,20.2392274 C123.215487,20.2392274 121.741999,23.3692783 123.414607,24.1517911 C124.786175,24.8285886 126.357228,24.9841408 127.835072,24.5894677 L127.835072,24.5894677 Z" id="Shape" stroke="#52267D" stroke-width="1" fill="#FFFFFF" fill-rule="nonzero"></path>
                            <path d="M121.622527,22.8254983 C121.492579,20.7281043 119.819025,19.0560307 117.719774,18.9261976 C117.002942,18.8333571 115.144488,18.9261976 115.144488,18.9261976 C115.144488,18.9261976 114.281634,22.520451 116.299384,22.9050759 C118.069098,23.121139 119.860075,23.0943651 121.622527,22.8254983 Z" id="Shape" stroke="#52267D" stroke-width="1" fill="#FFFFFF" fill-rule="nonzero"></path>
                            <path d="M114.016141,23.1570715 C114.016141,23.1570715 113.511703,19.3904001 110.126662,20.4249084 C109.239581,20.7052918 108.454731,21.240363 107.869969,21.963408 C107.869969,21.963408 108.546977,24.8414633 109.887718,24.5098901 C111.299355,24.1752786 112.680354,23.7227471 114.016141,23.1570715 Z" id="Shape" stroke="#52267D" stroke-width="1" fill="#FFFFFF" fill-rule="nonzero"></path>
                            <path d="M104.166336,41.4599115 C104.166336,41.4599115 96.2015336,37.162723 97.7679447,29.9344275 C96.0176238,31.4159438 94.3885112,33.0347452 92.8961408,34.775396 C92.8961408,36.1945293 92.6306474,41.8047476 100.396329,45.5714191 C101.563675,44.1217528 102.822932,42.7484282 104.166336,41.4599115 L104.166336,41.4599115 Z" id="Shape" stroke="#52267D" stroke-width="1" fill="#FFFFFF" fill-rule="nonzero"></path>
                            <path d="M126.759824,23.8732696 C126.719382,23.0604611 126.196828,22.3504165 125.432357,22.0695114 L124.330559,21.6185719 C124.330559,21.6185719 123.560629,23.2366491 124.436757,23.6477998 C125.156872,24.0063139 125.984109,24.0866029 126.759824,23.8732696 Z" id="Shape" stroke="none" fill="#F3E3FF" fill-rule="nonzero"></path>
                            <path d="M119.989742,22.0562485 C119.924622,20.9856185 119.07012,20.1318721 117.998542,20.0668094 C117.640126,20.0668094 116.671075,20.0668094 116.671075,20.0668094 C116.671075,20.0668094 116.233011,21.8970934 117.268435,22.0827744 C118.172486,22.1982575 119.088118,22.1893324 119.989742,22.0562485 Z" id="Shape" stroke="none" fill="#F3E3FF" fill-rule="nonzero"></path>
                            <path d="M112.834695,22.87855 C112.834695,22.87855 112.569202,20.875848 110.763847,21.4328909 C110.293246,21.5834618 109.877627,21.869524 109.569126,22.2551924 C109.569126,22.2551924 109.927542,23.7804291 110.644375,23.5814852 C111.392866,23.4087644 112.125541,23.1736286 112.834695,22.87855 L112.834695,22.87855 Z" id="Shape" stroke="none" fill="#F3E3FF" fill-rule="nonzero"></path>
                            <path d="M111.547052,31.0883022 L118.781747,31.0883022 C120.599934,31.0883022 122.073865,32.5609299 122.073865,34.3775082 L122.073865,34.3775082 C122.073865,36.1940865 120.599934,37.6667142 118.781747,37.6667142 L118.184387,37.6667142 C114.518688,37.6667142 111.547052,34.6977068 111.547052,31.0352505 L111.547052,31.0352505 L111.547052,31.0883022 Z" id="Shape" stroke="none" fill="#F3E3FF" fill-rule="nonzero" opacity="0.3" transform="translate(116.810459, 34.350982) rotate(-180.000000) translate(-116.810459, -34.350982) "></path>
                            <path d="M112.808146,32.1891252 L119.299459,32.1891252 C120.765739,32.1891252 121.954393,33.3767281 121.954393,34.8417107 L121.954393,34.8417107 C121.954393,36.3066932 120.765739,37.4942962 119.299459,37.4942962 L117.971992,37.4942962 C115.112747,37.4942962 112.794871,35.1784704 112.794871,32.3217544 L112.794871,32.3217544 L112.808146,32.1891252 Z" id="Shape" stroke="#52267D" stroke-width="1" fill="#FFFFFF" fill-rule="nonzero" transform="translate(117.374632, 34.841711) rotate(180.000000) translate(-117.374632, -34.841711) "></path>
                            <ellipse id="Oval" stroke="none" fill="#52267D" fill-rule="nonzero" cx="119.299459" cy="34.7621331" rx="1.44693903" ry="1.4456591"></ellipse>
                            <path d="M131.419233,38.9266924 L131.419233,38.9266924 C131.009361,38.8359605 130.643529,38.6063463 130.383809,38.2768089 L129.892646,37.6667142 L130.967894,37.892184 L131.605079,38.0248133 C131.723628,38.0501227 131.827003,38.1220151 131.891924,38.2243004 C131.956845,38.3265857 131.977854,38.4506641 131.95022,38.5685933 L131.95022,38.5685933 C131.927744,38.6866477 131.859035,38.7908557 131.759343,38.8580882 C131.659651,38.9253208 131.537224,38.9500158 131.419233,38.9266924 L131.419233,38.9266924 Z" id="Shape" stroke="none" fill="#52267D" fill-rule="nonzero"></path>
                            <path d="M102.825594,41.6058037 C102.825594,41.6058037 96.7325204,38.3298606 96.8254431,31.7249227 C95.5307083,32.5535456 94.4009676,33.6148323 93.4935009,34.8549736 C93.7414966,36.5617482 94.4021766,38.1823969 95.4183281,39.5765758 C97.675022,42.0302174 100.011364,42.7729413 102.825594,41.6058037 Z" id="Shape" stroke="none" fill="#EAF3FB" fill-rule="nonzero"></path>
                            <path d="M97.0643872,40.451929 C98.4719159,41.8648529 100.066402,43.0786251 101.803444,44.0594453" id="Shape" stroke="#52267D" stroke-width="1" fill="#FFFFFF" fill-rule="nonzero"></path>
                            <path d="M73.1832558,66.1156938 L74.5107228,63.4631083 C79.5816468,51.0224823 80.3648523,43.7146092 77.7364676,31.844289 L76.1966059,24.8812521 C75.6926094,22.5989755 75.4388948,20.2686449 75.4399497,17.931478 L75.4399497,17.931478 C75.4399497,10.137771 81.7635913,3.81972313 89.5641986,3.81972313 L91.8474419,3.81972313 C99.5380782,3.81972313 105.772571,10.0487008 105.772571,17.7325341 L105.772571,18.130422 C105.772571,19.9616501 104.286753,21.4461538 102.453903,21.4461538 L88.0376116,21.4461538 L90.2677561,33.9530945 C96.9050911,67.54809 96.2944563,81.1691166 83.112709,78.3706389" id="Shape" stroke="#52267D" stroke-width="2" fill="#9452BA" fill-rule="nonzero"></path>
                            <path d="M98.8166436,5.46432615 C98.6029499,3.93346958 97.5922838,2.63086366 96.1617096,2.04249084 C95.5396954,1.87772432 94.885446,1.87772432 94.2634318,2.04249084 C94.2634318,2.04249084 92.8563168,4.23087389 94.5023759,5.01338661 C95.8385037,5.68022904 97.3713097,5.84044228 98.8166436,5.46432615 Z" id="Shape" stroke="#52267D" stroke-width="1" fill="#FFFFFF" fill-rule="nonzero"></path>
                            <path d="M93.0288875,4.65528757 C92.8854802,2.27796733 90.9878474,0.382013099 88.6084224,0.238732696 C87.9944822,0.186298169 87.3771834,0.186298169 86.7632432,0.238732696 C86.7632432,0.238732696 84.7189441,4.2839256 87.0021873,4.68181342 C89.0029084,4.94744372 91.0305864,4.93851912 93.0288875,4.65528757 Z" id="Shape" stroke="#52267D" stroke-width="1" fill="#FFFFFF" fill-rule="nonzero"></path>
                            <path d="M85.2764802,5.53064079 C85.2764802,5.53064079 84.6923947,1.84354693 81.3870019,2.94436992 C80.5279606,3.24317528 79.7756027,3.78734521 79.2232307,4.50939537 C79.2232307,4.50939537 79.9533375,7.30787308 81.2675299,6.94977404 C82.6412323,6.58962444 83.9822561,6.11491379 85.2764802,5.53064079 L85.2764802,5.53064079 Z" id="Shape" stroke="#52267D" stroke-width="1" fill="#FFFFFF" fill-rule="nonzero"></path>
                            <path d="M98.5909742,71.4473907 C97.8845555,70.9100882 97.0761011,70.5220124 96.2148083,70.3067789" id="Shape" stroke="#52267D" stroke-width="1" fill="#F3E3FF" fill-rule="nonzero"></path>
                            <path d="M93.812093,71.3678131 C96.1749843,61.7919794 91.9138152,43.5156653 91.157159,38.9664811 L88.0641609,20.9023738 L86.7366939,20.9023738 C85.8861585,20.9872455 85.1077361,21.4170914 84.5833074,22.0914766 C84.0588788,22.7658619 83.834388,23.6257051 83.9622879,24.4701013 L86.2057071,40.1336188 C86.9623633,45.4387898 87.7588435,69.9884687 78.5329478,75.2671138 C76.5682967,76.3944627 73.3691012,75.6517387 72.1611062,75.0814329 C67.7804651,72.9858903 66.5193715,67.5215642 65.5237712,63.1447981 C63.5325707,54.0331668 65.0857071,46.8844489 65.5237712,39.7357309 L65.9883847,30.7965178 C66.0972549,29.1118447 64.8547721,27.6420932 63.1741546,27.467523 L61.5280955,27.467523 L58.5545695,45.5316303 C57.6651666,50.6776462 55.3686486,68.5030208 65.8821873,76.8719281 C66.0680327,77.0178203 63.320176,77.6411779 64.1166562,79.0470482 C67.2760277,84.6307407 76.4488246,85.5193568 78.1745317,87.9066838 C84.8118668,97.1111555 78.5993212,116.740288 78.5993212,116.740288 C82.9031498,114.991082 86.9280665,112.62295 90.5465242,109.710937 C101.16626,100.148366 102.58665,86.2886066 102.639749,82.2168879 C102.639749,77.3361305 101.418479,74.2591313 99.8387932,72.5084249" id="Shape" stroke="#52267D" stroke-width="1" fill="#F3E3FF" fill-rule="nonzero"></path>
                            <path d="M7.10194846,79.3653585 C6.17434372,78.2577101 5.92030637,76.7348343 6.43821496,75.3864802 C6.7115167,74.8462334 7.12388677,74.3884498 7.63293526,74.0601874 C7.63293526,74.0601874 9.99582652,74.4713382 9.50466373,76.0628895 C9.14025512,77.422787 8.28419089,78.5994247 7.10194846,79.3653585 L7.10194846,79.3653585 Z" id="Shape" stroke="#52267D" stroke-width="1" fill="#FFFFFF" fill-rule="nonzero"></path>
                            <path d="M7.60638592,77.0310832 C7.30603416,76.6584148 7.21600737,76.1587084 7.36744186,75.7047904 C7.46686891,75.5197591 7.61339631,75.3642115 7.7922313,75.2538509 C7.7922313,75.2538509 8.61526084,75.3997431 8.44269013,75.9567861 C8.29900068,76.4019808 8.00289463,76.7823518 7.60638592,77.0310832 L7.60638592,77.0310832 Z" id="Shape" stroke="none" fill="#F3E3FF" fill-rule="nonzero"></path>
                            <path d="M19.5270396,91.3815708 C20.3290342,89.3194902 19.4699864,86.9833554 17.5225644,85.9305076 C17.0270132,85.6391068 16.5074041,85.390625 15.969428,85.1877836 C15.969428,85.1877836 12.6507605,87.8403692 14.4295663,89.0340326 C16.0136591,90.0450739 17.728709,90.8349055 19.5270396,91.3815708 L19.5270396,91.3815708 Z" id="Shape" stroke="#52267D" stroke-width="1" fill="#FFFFFF" fill-rule="nonzero"></path>
                            <path d="M18.3323193,90.1879073 C18.780659,89.0432385 18.3017189,87.7444081 17.217247,87.1639598 C16.9419105,87.0025387 16.6532368,86.8649853 16.3543935,86.7528091 C16.3543935,86.7528091 14.522489,88.1984682 15.5048146,88.8881404 C16.3835875,89.4481842 17.3349075,89.8854935 18.3323193,90.1879073 Z" id="Shape" stroke="none" fill="#F3E3FF" fill-rule="nonzero"></path>
                            <path d="M9.01350094,80.6253366 C9.01350094,80.6253366 6.51786298,82.8137196 8.90730358,84.7766329 C9.54247762,85.2846176 10.3137214,85.593765 11.1241735,85.665249 C11.1241735,85.665249 12.8897046,83.7819133 12.0003017,83.0126635 C11.0741166,82.1338702 10.0749282,81.3352266 9.01350094,80.6253366 Z" id="Shape" stroke="#52267D" stroke-width="1" fill="#FFFFFF" fill-rule="nonzero"></path>
                            <path d="M9.3851917,82.2301508 C9.3851917,82.2301508 8.28339409,83.1983445 9.3851917,84.0736977 C9.66623485,84.3001459 10.0079857,84.438571 10.3675173,84.4715856 C10.3675173,84.4715856 11.1507228,83.6360211 10.7524827,83.2779221 C10.3277128,82.8900444 9.87025433,82.5394885 9.3851917,82.2301508 L9.3851917,82.2301508 Z" id="Shape" stroke="none" fill="#F3E3FF" fill-rule="nonzero"></path>
                            <path d="M31.500792,93.1190143 C31.9478838,91.3306886 30.8793377,89.5139976 29.0980767,89.0340326 C25.8723319,87.866895 25.0094783,88.8350887 25.0094783,88.8350887 C25.0094783,88.8350887 23.2306725,91.8325103 24.8236329,92.813967 C26.4165933,93.7954236 31.500792,93.1190143 31.500792,93.1190143 Z" id="Shape" stroke="#52267D" stroke-width="1" fill="#FFFFFF" fill-rule="nonzero"></path>
                            <path d="M30.0007542,92.4558679 C30.2290214,91.5275537 29.675664,90.5865019 28.7529353,90.3337995 C27.0803268,89.7237049 26.6289881,90.2276961 26.6289881,90.2276961 C26.6289881,90.2276961 25.6997612,91.7794586 26.5360654,92.2834499 C27.666859,92.5780146 28.8462606,92.6367068 30.0007542,92.4558679 Z" id="Shape" stroke="none" fill="#F3E3FF" fill-rule="nonzero"></path>
                            <path d="M88.7278944,25.3189287 C84.8187611,27.1122506 80.3419134,27.2130345 76.3559019,25.5974502 C76.8470647,27.8388849 77.8692143,32.3350174 77.8692143,32.3350174 C77.8692143,32.3350174 84.5065493,34.3907711 89.7367693,31.1413539 C89.2057825,28.1704581 88.7278944,25.3189287 88.7278944,25.3189287 Z" id="Shape" stroke="#52267D" stroke-width="1" fill="#FFFFFF" fill-rule="nonzero"></path>
                            <path d="M50.2579007,12.268208 C50.4679343,10.729578 51.4782411,9.41734092 52.9128347,8.81984682 C53.8164663,8.59166059 54.7423248,8.46268873 55.6739661,8.43522192 C55.6739661,8.43522192 56.2447769,11.0878074 54.5854431,11.8172684 C53.2441576,12.4826962 51.7077498,12.6427933 50.2579007,12.268208 L50.2579007,12.268208 Z" id="Shape" stroke="#52267D" stroke-width="1" fill="#FFFFFF" fill-rule="nonzero"></path>
                            <path d="M56.4837209,11.0082299 C56.6076854,8.93747535 58.2607874,7.28583571 60.3333752,7.16198088 C60.8678142,7.11637954 61.4051713,7.11637954 61.9396103,7.16198088 C61.9396103,7.16198088 63.7184161,10.610342 61.7272156,11.0082299 C59.9875213,11.246536 58.2234152,11.246536 56.4837209,11.0082299 L56.4837209,11.0082299 Z" id="Shape" stroke="#52267D" stroke-width="1" fill="#FFFFFF" fill-rule="nonzero"></path>
                            <path d="M63.6387681,11.2469626 C63.6387681,11.2469626 64.2361282,7.53334285 67.5547957,8.59437705 C68.4244667,8.89361897 69.1864004,9.44264866 69.7451163,10.1726654 C69.7451163,10.1726654 69.0282841,13.0507207 67.7008171,12.6926217 C66.3084712,12.3258799 64.9496233,11.842274 63.6387681,11.2469626 Z" id="Shape" stroke="#52267D" stroke-width="1" fill="#FFFFFF" fill-rule="nonzero"></path>
                            <path d="M97.55555,4.84096856 C97.4423342,4.02158631 96.9012229,3.3243217 96.1351603,3.01068455 C95.8003289,2.92120562 95.4478421,2.92120562 95.1130107,3.01068455 C95.1130107,3.01068455 94.3563545,4.17782218 95.2457574,4.58897293 C95.9597939,4.94948459 96.780467,5.03901905 97.55555,4.84096856 L97.55555,4.84096856 Z" id="Shape" stroke="none" fill="#F3E3FF" fill-rule="nonzero"></path>
                            <path d="M91.5952231,3.97887826 C91.5041028,2.48730742 90.3137085,1.29796612 88.8208171,1.20692641 C88.4365516,1.17412483 88.0501863,1.17412483 87.6659208,1.20692641 C87.6659208,1.20692641 86.3384538,3.74014557 87.8119422,3.99214119 C89.0677351,4.16019685 90.3406415,4.15573446 91.5952231,3.97887826 L91.5952231,3.97887826 Z" id="Shape" stroke="none" fill="#F3E3FF" fill-rule="nonzero"></path>
                            <path d="M83.8428158,5.15927882 C83.8428158,5.15927882 83.4976744,3.03721041 81.5993966,3.67383093 C81.1034044,3.84467266 80.6691923,4.15850572 80.3515776,4.57571 C80.3515776,4.57571 80.7763671,6.19378717 81.5330233,5.98158032 C82.3246675,5.77266645 83.0973218,5.49759638 83.8428158,5.15927882 Z" id="Shape" stroke="none" fill="#F3E3FF" fill-rule="nonzero"></path>
                            <path d="M51.4791703,11.6315875 C51.5942081,10.8160797 52.1355072,10.1236275 52.89956,9.81456639 C53.3776021,9.69536135 53.8672403,9.62865158 54.3597737,9.61562247 C54.3597737,9.61562247 54.6650911,10.9419152 53.7889629,11.4061177 C53.0719515,11.7589146 52.2509687,11.8390546 51.4791703,11.6315875 L51.4791703,11.6315875 Z" id="Shape" stroke="none" fill="#F3E3FF" fill-rule="nonzero"></path>
                            <path d="M57.9439346,10.4113981 C58.0153209,9.27025949 58.9257329,8.3606528 60.0678818,8.28932972 C60.363809,8.26403463 60.6613576,8.26403463 60.9572847,8.28932972 C60.9572847,8.28932972 61.9396103,10.2389801 60.8378127,10.4246611 C59.8770999,10.5521914 58.9034359,10.547729 57.9439346,10.4113981 Z" id="Shape" stroke="none" fill="#F3E3FF" fill-rule="nonzero"></path>
                            <path d="M64.9662351,10.9949669 C64.9662351,10.9949669 65.2848272,8.96573902 67.1034569,9.57583369 C67.5776096,9.74008822 67.9930396,10.0398556 68.2981772,10.437924 C68.2981772,10.437924 67.8999371,11.9764236 67.1698303,11.7642167 C66.4151352,11.5695721 65.678039,11.3122603 64.9662351,10.9949669 L64.9662351,10.9949669 Z" id="Shape" stroke="none" fill="#F3E3FF" fill-rule="nonzero"></path>
                            <path d="M73.3691012,31.671871 C69.2301904,32.2279666 65.0260709,32.0619252 60.9440101,31.1811427 C60.3599246,34.4703487 59.9749591,36.9505162 59.9749591,36.9505162 C59.9749591,36.9505162 64.1697549,39.8020456 71.9221622,38.1441796 C72.8513891,33.9265687 73.3691012,31.671871 73.3691012,31.671871 Z" id="Shape" stroke="#52267D" stroke-width="1" fill="#FFFFFF" fill-rule="nonzero"></path>
                            <path d="M62.2051037,18.7007278 L62.8422879,18.7007278 C64.6604745,18.7007278 66.134406,20.1733555 66.134406,21.9899339 L66.134406,21.9899339 C66.134406,23.8065122 64.6604745,25.2791399 62.8422879,25.2791399 L55.6075927,25.2791399 L55.6075927,25.2791399 C55.6365648,21.6528753 58.5755776,18.7223706 62.2051037,18.7007278 L62.2051037,18.7007278 Z" id="Shape" stroke="none" fill="#F3E3FF" fill-rule="nonzero" opacity="0.3"></path>
                            <path d="M60.9174607,19.9872318 L62.3909491,19.9872318 C63.7179321,19.9872318 64.7936644,21.0620125 64.7936644,22.3878217 L64.7936644,22.3878217 C64.8042935,23.1252823 64.5203301,23.8365697 64.0046165,24.3642729 C63.4889029,24.8919762 62.7839646,25.192581 62.0458077,25.1995623 L55.7536141,25.1995623 L55.7536141,25.1995623 C55.7536141,22.3428464 58.0714902,20.0270206 60.9307354,20.0270206 L60.9174607,19.9872318 Z" id="Shape" stroke="#52267D" stroke-width="1" fill="#FFFFFF" fill-rule="nonzero"></path>
                            <ellipse id="Oval" stroke="none" fill="#52267D" fill-rule="nonzero" transform="translate(58.085638, 23.325506) rotate(-64.070000) translate(-58.085638, -23.325506) " cx="58.0856384" cy="23.3255057" rx="1.44693903" ry="1.4456591"></ellipse>
                            <path d="M84.5861974,12.5202036 L91.8208925,12.5202036 C93.6390792,12.5202036 95.1130107,13.9928313 95.1130107,15.8094096 L95.1130107,15.8094096 C95.1130107,17.625988 93.6390792,19.0986157 91.8208925,19.0986157 L91.1837084,19.0986157 C87.5180095,19.0986157 84.5463734,16.1296082 84.5463734,12.4671519 L84.5463734,12.4671519 L84.5861974,12.5202036 Z" id="Shape" stroke="none" fill="#F3E3FF" fill-rule="nonzero" opacity="0.3" transform="translate(89.829692, 15.782884) rotate(180.000000) translate(-89.829692, -15.782884) "></path>
                            <path d="M85.8207417,13.6210266 L92.3120553,13.6210266 C93.7783349,13.6210266 94.9669893,14.8086296 94.9669893,16.2736121 L94.9669893,16.2736121 C94.9669893,17.7385946 93.7783349,18.9261976 92.3120553,18.9261976 L90.9845883,18.9261976 C89.6115304,18.9261976 88.2947093,18.381235 87.3238107,17.4111952 C86.3529121,16.4411555 85.807467,15.1254992 85.807467,13.7536559 L85.807467,13.7536559 L85.8207417,13.6210266 Z" id="Shape" stroke="#52267D" stroke-width="1" fill="#FFFFFF" fill-rule="nonzero" transform="translate(90.387228, 16.273612) rotate(-180.000000) translate(-90.387228, -16.273612) "></path>
                            <ellipse id="Oval" stroke="none" fill="#52267D" fill-rule="nonzero" transform="translate(92.208945, 16.320008) rotate(-39.790000) translate(-92.208945, -16.320008) " cx="92.2089451" cy="16.3200082" rx="1.44693903" ry="1.4456591"></ellipse>
                            <path d="M46.8994092,26.7911136 L46.8994092,26.7911136 C47.3092812,26.7003818 47.6751131,26.4707676 47.9348334,26.1412302 L48.4259962,25.5311355 L47.350748,25.7566053 L46.7135638,25.8892346 C46.5950147,25.914544 46.4916395,25.9864364 46.4267182,26.0887217 C46.361797,26.191007 46.3407879,26.3150854 46.3684224,26.4330146 L46.3684224,26.4330146 C46.3908983,26.551069 46.4596072,26.655277 46.5592991,26.7225095 C46.6589911,26.789742 46.7814187,26.8144371 46.8994092,26.7911136 L46.8994092,26.7911136 Z" id="Shape" stroke="none" fill="#52267D" fill-rule="nonzero"></path>
                            <path d="M102.666298,20.0270206 L102.666298,20.0270206 C102.256426,19.9362887 101.890594,19.7066745 101.630874,19.3771371 L101.139711,18.7670425 L102.214959,18.9925122 L102.852143,19.1251415 C102.970692,19.150451 103.074068,19.2223434 103.138989,19.3246287 C103.20391,19.426914 103.224919,19.5509924 103.197285,19.6689216 L103.197285,19.6689216 C103.174809,19.786976 103.1061,19.891184 103.006408,19.9584165 C102.906716,20.025649 102.784288,20.0503441 102.666298,20.0270206 L102.666298,20.0270206 Z" id="Shape" stroke="none" fill="#52267D" fill-rule="nonzero"></path>
                            <path d="M88.1172596,26.2605965 C84.6462072,27.5939725 80.8162132,27.6644009 77.2984035,26.4595405 C77.5661403,28.0832371 77.925124,29.6905927 78.3736518,31.2739832 C80.1868638,31.3767723 82.0058281,31.2967909 83.8029918,31.0352505 C86.8959899,30.4251558 88.1172596,29.0192855 88.1172596,26.2605965 Z" id="Shape" stroke="none" fill="#EAF3FB" fill-rule="nonzero"></path>
                            <path d="M80.617071,30.3323153 C83.59855,30.5291869 86.5830978,29.9965408 89.3119799,28.7805528" id="Shape" stroke="#52267D" stroke-width="1" fill="#FFFFFF" fill-rule="nonzero"></path>
                            <path d="M63.280352,32.401332 C66.2136631,33.1855892 69.2766083,33.3616204 72.2805783,32.9185862 C71.9625212,34.3182742 71.5545874,35.696048 71.0593086,37.0433566 C71.0593086,37.0433566 64.727291,36.1945293 63.280352,32.401332 Z" id="Shape" stroke="none" fill="#EAF3FB" fill-rule="nonzero"></path>
                            <path d="M65.8423633,76.9249798 C65.8423633,76.9249798 66.134406,77.1371866 66.5459208,77.3759193" id="Shape" stroke="#52267D" stroke-width="0.5" fill="#F3E3FF" fill-rule="nonzero"></path>
                            <path d="M62.8157385,34.2050901 C66.0921464,34.7540219 69.4279146,34.8566387 72.731917,34.5101375" id="Shape" stroke="#52267D" stroke-width="1" fill="#FFFFFF" fill-rule="nonzero"></path>
                            <path d="M70.7008925,133.080215 C71.645726,132.45437 72.9054912,132.606082 73.6744186,133.438314 C75.227555,134.764607 76.3293526,136.674468 75.6921684,136.873412 C74.6502889,137.159811 73.5581747,137.214142 72.492973,137.032567 C71.3779007,136.833624 70.3955751,137.032567 69.9442363,134.711555 C69.8274561,134.062834 70.1300051,133.410543 70.7008925,133.080215 Z" id="Shape" stroke="#52267D" stroke-width="0.5" fill="#FFFFFF" fill-rule="nonzero"></path>
                            <path d="M70.9929353,133.451577 C71.5800434,133.064179 72.3617566,133.159699 72.8381144,133.677047 C73.8071653,134.472822 74.5239975,135.693012 74.099208,135.812378 C73.4502801,135.988589 72.7705403,136.020282 72.1080075,135.905219 C71.4177247,135.772589 70.7805405,135.905219 70.5150471,134.459559 C70.4451857,134.056433 70.6364813,133.652944 70.9929353,133.451577 L70.9929353,133.451577 Z" id="Shape" stroke="none" fill="#EAF3FB" fill-rule="nonzero"></path>
                            <path d="M68.8955374,133.053689 C68.2185292,132.960849 67.2494783,134.379982 67.3556757,134.87071 C67.461873,135.361439 67.5415211,136.793835 68.6831427,136.95299 C69.4928975,137.072356 72.3602263,137.364141 72.9841358,136.740783 C73.6080453,136.117425 72.3735009,133.517892 68.8955374,133.053689 Z" id="Shape" stroke="#52267D" stroke-width="0.5" fill="#FFFFFF" fill-rule="nonzero"></path>
                            <path d="M68.6964173,133.46484 C68.2981772,133.46484 67.7273664,134.273879 67.7937398,134.539137 C67.8601131,134.804396 67.8999371,135.666486 68.550396,135.759326 C69.2008548,135.852167 70.7141672,136.011322 71.085858,135.63996 C71.4575487,135.268598 70.7539912,133.730098 68.6964173,133.46484 Z" id="Shape" stroke="none" fill="#EAF3FB" fill-rule="nonzero"></path>
                            <path d="M66.0414833,133.332211 C66.0414833,133.332211 66.6255688,133.027163 67.7804651,133.69031 C68.9353614,134.353456 70.3159271,135.202283 69.917687,136.342895 C69.5194469,137.483507 66.2937021,137.072356 65.5901446,136.820361 C64.8813621,136.569038 64.4482062,135.853299 64.5547203,135.109443 C64.6789654,134.285994 65.25243,133.600491 66.0414833,133.332211 L66.0414833,133.332211 Z" id="Shape" stroke="#52267D" stroke-width="0.5" fill="#FFFFFF" fill-rule="nonzero"></path>
                            <path d="M65.815814,133.743361 C65.815814,133.743361 66.1609554,133.55768 66.8379635,133.955568 C67.5149717,134.353456 68.3380013,134.857447 68.1654305,135.533857 C67.9928598,136.210266 66.0282087,135.95827 65.6034192,135.825641 C65.1886409,135.674087 64.934816,135.255095 64.9927844,134.817659 C65.0499601,134.336173 65.3655516,133.924232 65.815814,133.743361 Z" id="Shape" stroke="none" fill="#EAF3FB" fill-rule="nonzero"></path>
                            <path d="M79.5019987,96.4480091 C79.1926796,102.862362 79.6068,109.291122 80.7365431,115.612939 C82.5020742,126.515066 85.6348963,129.936901 85.3959522,132.761905 C85.2233815,134.950288 84.2941546,136.95299 82.0905594,136.95299 L75.5328724,136.95299 C72.4757692,136.947037 69.762827,134.994166 68.78934,132.098758 C67.7617364,129.004953 67.0544774,125.813993 66.6786675,122.575976 C66.3001275,117.868813 66.1981801,113.143521 66.3733501,108.424433" id="Shape" stroke="#52267D" stroke-width="2" fill="#9452BA" fill-rule="nonzero"></path>
                            <path d="M45.8639849,101.381818 C47.9935157,103.383907 49.1751314,106.193183 49.1162791,109.114105 C49.1162791,112.867513 46.9126838,117.642167 48.2932495,123.875743 C49.5277938,129.43291 51.9703331,130.414367 51.2402263,135.401227 C51.0894667,136.306146 50.2998695,136.96544 49.3817725,136.95299 L42.1072533,136.95299 C38.7376864,136.953041 35.8624781,134.518008 35.3106223,131.196879 C34.2136536,123.334378 34.4966563,115.341014 36.1469265,107.575605" id="Shape" stroke="#52267D" stroke-width="2" fill="#9452BA" fill-rule="nonzero"></path>
                            <polyline id="Shape" stroke="#52267D" stroke-width="0.5" fill="none" points="44.4303206 109.644622 44.0055311 109.339575 42.6116908 109.657885 44.1515525 110.639342 46.0100063 109.7242 44.0851791 108.1857 43.2090509 108.477484"></polyline>
                            <path d="M83.9622879,133.080215 C84.9071214,132.45437 86.1668865,132.606082 86.935814,133.438314 C88.4889503,134.764607 89.590748,136.674468 88.9535638,136.873412 C87.9116843,137.159811 86.81957,137.214142 85.7543683,137.032567 C84.639296,136.833624 83.6569705,137.032567 83.2056317,134.711555 C83.0888515,134.062834 83.3914005,133.410543 83.9622879,133.080215 Z" id="Shape" stroke="#52267D" stroke-width="1" fill="#FFFFFF" fill-rule="nonzero"></path>
                            <path d="M84.2543306,133.451577 C84.8414387,133.064179 85.6231519,133.159699 86.0995097,133.677047 C87.0685607,134.472822 87.7853928,135.693012 87.3606034,135.812378 C86.7116754,135.988589 86.0319357,136.020282 85.3694029,135.905219 C84.6791201,135.772589 84.0419359,135.905219 83.7764425,134.459559 C83.706581,134.056433 83.8978767,133.652944 84.2543306,133.451577 L84.2543306,133.451577 Z" id="Shape" stroke="none" fill="#EAF3FB" fill-rule="nonzero"></path>
                            <polyline id="Shape" stroke="#52267D" stroke-width="0.5" fill="none" points="73.939912 113.769393 76.555022 114.578431 76.2098806 117.005547 73.5283972 117.191228 72.2805783 115.758832 73.8868133 114.870215 75.2142803 115.25484 74.3647014 116.183245"></polyline>
                            <g id="Group" opacity="0.3" stroke="none" stroke-width="1" fill="none" fill-rule="evenodd" transform="translate(19.912005, 13.262928)">
                                <path d="M110.00719,20.8891109 C109.958547,21.2437662 109.655282,21.5080726 109.296996,21.5080726 C108.938709,21.5080726 108.635444,21.2437662 108.586801,20.8891109" id="Shape" stroke="#F3E3FF" stroke-width="0.25"></path>
                                <path d="M111.42758,20.8891109 C111.465527,21.1657756 111.339065,21.4392473 111.103604,21.5897033 C110.868143,21.7401593 110.566627,21.7401593 110.331167,21.5897033 C110.095706,21.4392473 109.969244,21.1657756 110.00719,20.8891109" id="Shape" stroke="#F3E3FF" stroke-width="0.25"></path>
                                <path d="M110.710748,21.592046 C110.748695,21.8687107 110.622233,22.1421824 110.386772,22.2926385 C110.151311,22.4430945 109.849795,22.4430945 109.614334,22.2926385 C109.378874,22.1421824 109.252412,21.8687107 109.290358,21.592046" id="Shape" stroke="#F3E3FF" stroke-width="0.25"></path>
                                <path d="M82.7542929,20.2259645 C82.2668859,20.4828829 81.6636013,20.3190592 81.3734172,19.8509838 C81.0832332,19.3829083 81.2051584,18.7702848 81.6524953,18.4487322" id="Shape" stroke="#F3E3FF" stroke-width="0.25"></path>
                                <path d="M82.4091515,21.6583607 C82.0909659,21.8870773 81.6716764,21.9194109 81.3221312,21.7421863 C80.972586,21.5649617 80.7511428,21.2077673 80.7480333,20.8161492 C80.7449237,20.4245311 80.9606669,20.0638715 81.3073539,19.8811284" id="Shape" stroke="#F3E3FF" stroke-width="0.25"></path>
                                <path d="M48.996807,44.0992341 C48.996807,44.6266278 48.5688914,45.0541649 48.0410308,45.0541649 C47.5131702,45.0541649 47.0852546,44.6266278 47.0852546,44.0992341" id="Shape" stroke="#F3E3FF" stroke-width="0.25"></path>
                                <path d="M50.9083595,44.0992341 C50.9083595,44.6266278 50.4804439,45.0541649 49.9525833,45.0541649 C49.4247226,45.0541649 48.996807,44.6266278 48.996807,44.0992341" id="Shape" stroke="#F3E3FF" stroke-width="0.25"></path>
                                <path d="M49.9525833,45.0939537 C49.9525833,45.6213474 49.5246677,46.0488844 48.996807,46.0488844 C48.4689464,46.0488844 48.0410308,45.6213474 48.0410308,45.0939537" id="Shape" stroke="#F3E3FF" stroke-width="0.25"></path>
                                <path d="M77.4842489,104.485343 C77.4842489,105.012737 77.0563333,105.440274 76.5284727,105.440274 C76.000612,105.440274 75.5726964,105.012737 75.5726964,104.485343" id="Shape" stroke="#F3E3FF" stroke-width="0.25"></path>
                                <path d="M79.3958014,104.485343 C79.3958014,105.012737 78.9678858,105.440274 78.4400251,105.440274 C77.9121645,105.440274 77.4842489,105.012737 77.4842489,104.485343" id="Shape" stroke="#F3E3FF" stroke-width="0.25"></path>
                                <path d="M78.4400251,105.440274 C78.4400251,105.967668 78.0121095,106.395205 77.4842489,106.395205 C76.9563883,106.395205 76.5284727,105.967668 76.5284727,105.440274" id="Shape" stroke="#F3E3FF" stroke-width="0.25"></path>
                                <path d="M50.4437461,13.7138671 C50.4437461,14.2925352 49.9742276,14.7616384 49.3950471,14.7616384 C48.8158667,14.7616384 48.3463482,14.2925352 48.3463482,13.7138671" id="Shape" stroke="#F3E3FF" stroke-width="0.25"></path>
                                <path d="M51.5189943,14.7616384 C51.5189943,15.3403065 51.0494758,15.8094096 50.4702954,15.8094096 C49.891115,15.8094096 49.4215965,15.3403065 49.4215965,14.7616384" id="Shape" stroke="#F3E3FF" stroke-width="0.25"></path>
                                <path d="M63.8777121,32.215651 C63.7125162,32.7815359 63.1933291,33.1705818 62.6033438,33.1705818 C62.0133585,33.1705818 61.4941714,32.7815359 61.3289755,32.215651" id="Shape" stroke="#F3E3FF" stroke-width="0.25"></path>
                                <path d="M65.1520805,33.4888921 C65.3103383,34.0310104 65.1076686,34.6137978 64.6470677,34.941083 C64.1864668,35.2683681 63.5689574,35.2683681 63.1083565,34.941083 C62.6477557,34.6137978 62.445086,34.0310104 62.6033438,33.4888921" id="Shape" stroke="#F3E3FF" stroke-width="0.25"></path>
                                <path d="M82.3693275,0.570305885 C82.3693275,1.03910029 81.988958,1.41913325 81.5197486,1.41913325 C81.0505391,1.41913325 80.6701697,1.03910029 80.6701697,0.570305885" id="Shape" stroke="#F3E3FF" stroke-width="0.25"></path>
                                <path d="M83.232181,1.41913325 C83.232181,1.88792766 82.8518116,2.26796061 82.3826021,2.26796061 C81.9133927,2.26796061 81.5330233,1.88792766 81.5330233,1.41913325" id="Shape" stroke="#F3E3FF" stroke-width="0.25"></path>
                                <path d="M2.19032055,86.3947101 C1.82375065,86.8085676 1.19079219,86.8471647 0.776568234,86.480919 C0.362344275,86.1146734 0.323712989,85.4822749 0.690282841,85.0684173" id="Shape" stroke="#F3E3FF" stroke-width="0.25"></path>
                                <path d="M2.30979258,87.7740545 C1.94322267,88.187912 1.31026425,88.2265091 0.896040304,87.8602635 C0.481816362,87.4940179 0.44318506,86.8616193 0.809754871,86.4477618" id="Shape" stroke="#F3E3FF" stroke-width="0.25"></path>
                                <path d="M41.1514771,72.853261 C40.998791,73.255478 40.6348415,73.5394403 40.2072651,73.5899581 C39.7796887,73.6404758 39.359486,73.4491604 39.117113,73.0936193 C38.8747399,72.7380782 38.8504433,72.2773501 39.0540792,71.8983302" id="Shape" stroke="#F3E3FF" stroke-width="0.25"></path>
                                <path d="M43.2754243,73.8081918 C42.987543,74.3440146 42.3328434,74.5646258 41.7789626,74.3124477 C41.2250818,74.0602696 40.9621732,73.4218777 41.1780264,72.853261" id="Shape" stroke="#F3E3FF" stroke-width="0.25"></path>
                                <path d="M41.7488372,74.3784977 C41.5961512,74.7807147 41.2322016,75.064677 40.8046252,75.1151947 C40.3770489,75.1657125 39.9568462,74.9743971 39.7144731,74.618856 C39.4721001,74.2633149 39.4478035,73.8025868 39.6514393,73.4235669" id="Shape" stroke="#F3E3FF" stroke-width="0.25"></path>
                                <path d="M43.8064111,75.3334285 C43.653725,75.7356455 43.2897755,76.0196077 42.8621991,76.0701255 C42.4346227,76.1206433 42.01442,75.9293279 41.772047,75.5737868 C41.5296739,75.2182456 41.5053773,74.7575176 41.7090132,74.3784977" id="Shape" stroke="#F3E3FF" stroke-width="0.25"></path>
                                <path d="M40.2222502,74.9488036 C40.0695641,75.3510206 39.7056146,75.6349828 39.2780382,75.6855006 C38.8504618,75.7360184 38.4302591,75.544703 38.1878861,75.1891619 C37.945513,74.8336207 37.9212164,74.3728927 38.1248523,73.9938728" id="Shape" stroke="#F3E3FF" stroke-width="0.25"></path>
                                <path d="M61.2095035,9.17794586 C61.2095035,9.81887572 60.6894671,10.338452 60.0479698,10.338452 C59.4064725,10.338452 58.8864362,9.81887572 58.8864362,9.17794586" id="Shape" stroke="#F3E3FF" stroke-width="0.25"></path>
                                <path d="M61.6210182,53.0517102 C61.6210182,53.69264 61.1009819,54.2122164 60.4594846,54.2122164 C59.8179873,54.2122164 59.297951,53.69264 59.297951,53.0517102" id="Shape" stroke="#F3E3FF" stroke-width="0.25"></path>
                                <path d="M48.4525456,28.8468674 C48.4525456,29.3339741 48.057318,29.7288521 47.56978,29.7288521 C47.0822421,29.7288521 46.6870145,29.3339741 46.6870145,28.8468674" id="Shape" stroke="#F3E3FF" stroke-width="0.25"></path>
                                <path d="M27.5051163,8.87289853 C27.5051163,9.23914416 27.2079527,9.53604491 26.8413828,9.53604491 C26.4748129,9.53604491 26.1776493,9.23914416 26.1776493,8.87289853" id="Shape" stroke="#F3E3FF" stroke-width="0.25"></path>
                                <path d="M22.0226776,105.824899 C21.9127066,106.454841 21.3124361,106.87644 20.6819359,106.766567 C20.0514357,106.656693 19.6294634,106.056954 19.7394343,105.427011" id="Shape" stroke="#F3E3FF" stroke-width="0.25"></path>
                                <path d="M54.0942803,114.379487 C54.2525382,114.921606 54.0498685,115.504393 53.5892676,115.831678 C53.1286667,116.158963 52.5111573,116.158963 52.0505564,115.831678 C51.5899555,115.504393 51.3872858,114.921606 51.5455437,114.379487" id="Shape" stroke="#F3E3FF" stroke-width="0.25"></path>
                                <path d="M55.3686486,115.652728 C55.2034528,116.218613 54.6842657,116.607659 54.0942803,116.607659 C53.504295,116.607659 52.9851079,116.218613 52.819912,115.652728" id="Shape" stroke="#F3E3FF" stroke-width="0.25"></path>
                            </g>
                            <path d="M82.1569327,133.053689 C81.4799246,132.960849 80.5108737,134.379982 80.617071,134.87071 C80.7232684,135.361439 80.8029164,136.793835 81.944538,136.95299 C82.7542929,137.072356 85.6216216,137.364141 86.2455311,136.740783 C86.8694406,136.117425 85.648171,133.517892 82.1569327,133.053689 Z" id="Shape" stroke="#52267D" stroke-width="1" fill="#FFFFFF" fill-rule="nonzero"></path>
                            <path d="M81.9710874,133.46484 C81.5728473,133.46484 81.0020365,134.273879 81.0684098,134.539137 C81.1347832,134.804396 81.1746072,135.666486 81.825066,135.759326 C82.4755248,135.852167 83.9888372,136.011322 84.360528,135.63996 C84.7322187,135.268598 84.0286612,133.730098 81.9710874,133.46484 Z" id="Shape" stroke="none" fill="#EAF3FB" fill-rule="nonzero"></path>
                            <path d="M79.7674921,133.769887 C79.7674921,133.769887 80.2852043,133.504629 81.3073539,134.088198 C82.3295035,134.671766 83.5507731,135.41449 83.192357,136.448999 C82.8339409,137.483507 79.9931615,137.085619 79.3559774,136.873412 C78.7286769,136.652351 78.3451332,136.01923 78.4400251,135.361439 C78.5464148,134.623128 79.0598275,134.007578 79.7674921,133.769887 Z" id="Shape" stroke="#52267D" stroke-width="1" fill="#FFFFFF" fill-rule="nonzero"></path>
                            <path d="M79.5683721,134.141249 C79.5683721,134.141249 79.8736895,133.982094 80.4710497,134.32693 C81.0684098,134.671766 81.7985167,135.122706 81.5861219,135.719538 C81.3737272,136.316369 79.6878441,136.104163 79.3161534,135.971533 C78.946118,135.842572 78.7184208,135.47081 78.7718919,135.082917 C78.8362564,134.643106 79.1450692,134.278001 79.5683721,134.141249 L79.5683721,134.141249 Z" id="Shape" stroke="none" fill="#EAF3FB" fill-rule="nonzero"></path>
                            <path d="M106.675248,134.061672 C106.675248,134.061672 107.19296,133.796413 108.21511,134.379982 C109.23726,134.963551 110.458529,135.706275 110.100113,136.740783 C109.741697,137.775291 106.900918,137.377404 106.263734,137.165197 C105.636433,136.944135 105.252889,136.311015 105.347781,135.653223 C105.454171,134.914913 105.967584,134.299363 106.675248,134.061672 Z" id="Shape" stroke="#52267D" stroke-width="1" fill="#FFFFFF" fill-rule="nonzero"></path>
                            <path d="M106.489403,134.419771 C106.489403,134.419771 106.79472,134.260616 107.39208,134.605452 C107.989441,134.950288 108.719547,135.401227 108.507153,135.998059 C108.294758,136.594891 106.608875,136.382684 106.237184,136.250055 C105.867149,136.121093 105.639452,135.749332 105.692923,135.361439 C105.757287,134.921627 106.0661,134.556522 106.489403,134.419771 L106.489403,134.419771 Z" id="Shape" stroke="none" fill="#EAF3FB" fill-rule="nonzero"></path>
                            <path d="M103.542426,133.332211 C102.865418,133.23937 101.896367,134.658503 102.002564,135.149232 C102.108762,135.63996 102.18841,137.072356 103.330031,137.231511 C104.139786,137.350878 107.007115,137.642662 107.631025,137.019305 C108.254934,136.395947 107.060214,133.809676 103.542426,133.332211 Z" id="Shape" stroke="#52267D" stroke-width="1" fill="#FFFFFF" fill-rule="nonzero"></path>
                            <path d="M103.38313,133.743361 C102.98489,133.743361 102.414079,134.5524 102.480453,134.817659 C102.546826,135.082917 102.58665,135.945007 103.237109,136.037848 C103.887568,136.130688 105.40088,136.289843 105.772571,135.918482 C106.144261,135.54712 105.440704,133.955568 103.38313,133.743361 Z" id="Shape" stroke="none" fill="#EAF3FB" fill-rule="nonzero"></path>
                            <path d="M48.4790949,133.080215 C49.4239284,132.45437 50.6836935,132.606082 51.452621,133.438314 C53.0057574,134.764607 54.107555,136.674468 53.4703708,136.873412 C52.4284913,137.159811 51.336377,137.214142 50.2711754,137.032567 C49.1561031,136.833624 48.1737775,137.032567 47.7224387,134.711555 C47.6056585,134.062834 47.9082075,133.410543 48.4790949,133.080215 Z" id="Shape" stroke="#52267D" stroke-width="0.5" fill="#FFFFFF" fill-rule="nonzero"></path>
                            <path d="M48.7711376,133.451577 C49.3582458,133.064179 50.139959,133.159699 50.6163168,133.677047 C51.5853677,134.472822 52.3021999,135.693012 51.8774104,135.812378 C51.2284825,135.988589 50.5487427,136.020282 49.8862099,135.905219 C49.1959271,135.772589 48.5587429,135.905219 48.2932495,134.459559 C48.2233881,134.056433 48.4146837,133.652944 48.7711376,133.451577 L48.7711376,133.451577 Z" id="Shape" stroke="none" fill="#EAF3FB" fill-rule="nonzero"></path>
                            <path d="M46.6737398,133.053689 C45.9967316,132.960849 45.0276807,134.379982 45.1338781,134.87071 C45.2400754,135.361439 45.3197234,136.793835 46.4613451,136.95299 C47.2710999,137.072356 50.1384287,137.364141 50.7623382,136.740783 C51.3862476,136.117425 50.164978,133.517892 46.6737398,133.053689 Z" id="Shape" stroke="#52267D" stroke-width="0.5" fill="#FFFFFF" fill-rule="nonzero"></path>
                            <path d="M46.4613451,133.46484 C46.063105,133.46484 45.4922942,134.273879 45.5586675,134.539137 C45.6250409,134.804396 45.6648649,135.666486 46.3153237,135.759326 C46.9657825,135.852167 48.4790949,136.011322 48.8507857,135.63996 C49.2224764,135.268598 48.5454683,133.730098 46.4613451,133.46484 Z" id="Shape" stroke="none" fill="#EAF3FB" fill-rule="nonzero"></path>
                            <path d="M44.2842992,133.769887 C44.2842992,133.769887 44.8020113,133.504629 45.8241609,134.088198 C46.8463105,134.671766 48.0675801,135.41449 47.709164,136.448999 C47.350748,137.483507 44.5099686,137.085619 43.8727844,136.873412 C43.2454839,136.652351 42.8619402,136.01923 42.9568322,135.361439 C43.0632219,134.623128 43.5766345,134.007578 44.2842992,133.769887 Z" id="Shape" stroke="#52267D" stroke-width="0.5" fill="#FFFFFF" fill-rule="nonzero"></path>
                            <path d="M44.0851791,134.141249 C44.0851791,134.141249 44.3904965,133.982094 44.9878567,134.32693 C45.5852168,134.671766 46.3153237,135.122706 46.102929,135.719538 C45.8905343,136.316369 44.2046512,136.104163 43.8329604,135.971533 C43.462925,135.842572 43.2352279,135.47081 43.2886989,135.082917 C43.3530635,134.643106 43.6618762,134.278001 44.0851791,134.141249 L44.0851791,134.141249 Z" id="Shape" stroke="none" fill="#EAF3FB" fill-rule="nonzero"></path>
                            <path d="M94.7147706,133.955568 C94.5363164,133.779383 94.269596,133.727131 94.0377624,133.822939 C93.2678316,134.194301 91.3031804,135.228809 91.7146952,136.63468 C92.0332872,137.72224 92.6970207,137.403929 93.9713891,137.417192 L94.94044,137.417192 C95.1433347,137.423124 95.3326742,137.315756 95.4316028,137.138671 L95.4316028,137.138671 C95.9458692,136.063843 95.6798486,134.77831 94.7811439,133.995357 L94.7147706,133.955568 Z" id="Shape" stroke="#52267D" stroke-width="1" fill="#FFFFFF" fill-rule="nonzero"></path>
                            <path d="M94.6085732,134.287141 C94.4785194,134.160166 94.2849017,134.123568 94.1174104,134.194301 C93.5598743,134.459559 92.1394846,135.215546 92.4315273,136.236792 C92.6571967,137.032567 93.1483595,136.793835 94.0775864,136.807098 L94.7811439,136.807098 C94.9282307,136.812045 95.0660583,136.735542 95.13956,136.608154 L95.13956,136.608154 C95.5200402,135.830419 95.3293741,134.89426 94.6749466,134.32693 L94.6085732,134.287141 Z" id="Shape" stroke="none" fill="#EAF3FB" fill-rule="nonzero"></path>
                            <path d="M99.2414331,133.544417 C100.128877,132.844767 101.392765,132.889666 102.228234,133.650521 C103.874293,134.791133 105.20176,136.647943 104.538026,136.899938 C103.524285,137.271587 102.44127,137.416465 101.36538,137.324352 C100.237033,137.218248 99.2679824,137.510033 98.6307982,135.228809 C98.4607685,134.594965 98.7045724,133.922449 99.2414331,133.544417 Z" id="Shape" stroke="#52267D" stroke-width="1" fill="#FFFFFF" fill-rule="nonzero"></path>
                            <path d="M99.5600251,133.955568 C100.09564,133.500094 100.882864,133.500094 101.418479,133.955568 C102.440629,134.658503 103.276933,135.812378 102.852143,135.971533 C102.220262,136.203721 101.545016,136.294278 100.874217,136.236792 C100.17066,136.170477 99.5467505,136.356158 99.1750597,134.910499 C99.1093352,134.544754 99.258922,134.173694 99.5600251,133.955568 Z" id="Shape" stroke="none" fill="#EAF3FB" fill-rule="nonzero"></path>
                        </g>
                    </g>
                </g>
                <path d="M129.488372,141.687075 L113.860465,141.687075" id="Shape" stroke="#D9DDE2" stroke-width="2" fill="#FFFFFF" fill-rule="nonzero" stroke-linecap="round"></path>
                <path d="M129.488372,134.993197 L100.465116,134.993197" id="Shape" stroke="#D9DDE2" stroke-width="2" fill="#FFFFFF" fill-rule="nonzero" stroke-linecap="round"></path>
                <path d="M88.1860465,8.92517007 L126.139535,8.92517007" id="Shape" stroke="#D9DDE2" stroke-width="2" fill="#FFFFFF" fill-rule="nonzero" stroke-linecap="round"></path>
                <path d="M27.9069767,8.92517007 L52.4651163,8.92517007" id="Shape" stroke="#D9DDE2" stroke-width="2" fill="#FFFFFF" fill-rule="nonzero" stroke-linecap="round"></path>
            </g>
        </g>
    </g>
</svg>
