<?xml version="1.0" encoding="UTF-8"?>
<svg width="512px" height="512px" viewBox="0 0 512 512" version="1.1" xmlns="http://www.w3.org/2000/svg" xmlns:xlink="http://www.w3.org/1999/xlink">
    <!-- Generator: Sketch 46.2 (44496) - http://www.bohemiancoding.com/sketch -->
    <title>icon-view</title>
    <desc>Created with Sketch.</desc>
    <defs></defs>
    <g id="24x24" stroke="none" stroke-width="1" fill="none" fill-rule="evenodd">
        <g id="icon-view" fill="#67768A">
            <g id="Group" transform="translate(40.000000, 126.000000)">
                <path d="M216,194.4 C251.788052,194.4 280.8,165.388052 280.8,129.6 C280.8,93.8119482 251.788052,64.8 216,64.8 C180.211948,64.8 151.2,93.8119482 151.2,129.6 C151.2,165.388052 180.211948,194.4 216,194.4 Z M216,216 C168.282598,216 129.6,177.317402 129.6,129.6 C129.6,81.8825976 168.282598,43.2 216,43.2 C263.717402,43.2 302.4,81.8825976 302.4,129.6 C302.4,177.317402 263.717402,216 216,216 Z" id="Oval" fill-rule="nonzero"></path>
                <path d="M195.646382,167.714354 C182.049641,160.438299 172.8,146.099334 172.8,129.6 C172.8,105.741299 192.141299,86.4 216,86.4 C232.499334,86.4 246.838299,95.6496411 254.114354,109.246382 C250.580189,108.430936 246.898949,108 243.117059,108 C216.21137,108 194.4,129.81137 194.4,156.717059 C194.4,160.498949 194.830936,164.180189 195.646382,167.714354 Z" id="Combined-Shape"></path>
                <path d="M216,259.2 C136.470996,259.2 64.470996,216 0,129.6 C64.470996,43.2 136.470996,0 216,0 C295.529004,0 367.529004,43.2 432,129.6 C367.529004,216 295.529004,259.2 216,259.2 Z M216,21.6 C147.897239,21.6 85.2068067,56.9888561 27.2748037,129.6 C85.2068067,202.211144 147.897239,237.6 216,237.6 C284.102761,237.6 346.793193,202.211144 404.725196,129.6 C346.793193,56.9888561 284.102761,21.6 216,21.6 Z" id="Oval" fill-rule="nonzero"></path>
            </g>
        </g>
    </g>
</svg>