<?xml version="1.0" encoding="UTF-8"?>
<svg width="512px" height="512px" viewBox="0 0 512 512" version="1.1" xmlns="http://www.w3.org/2000/svg" xmlns:xlink="http://www.w3.org/1999/xlink">
    <!-- Generator: Sketch 46.2 (44496) - http://www.bohemiancoding.com/sketch -->
    <title>icon-help</title>
    <desc>Created with Sketch.</desc>
    <defs></defs>
    <g id="24x24" stroke="none" stroke-width="1" fill="none" fill-rule="evenodd">
        <g id="icon-help" fill-rule="nonzero" fill="#9452BA">
            <path d="M256,472 C136.706494,472 40,375.293506 40,256 C40,136.706494 136.706494,40 256,40 C375.293506,40 472,136.706494 472,256 C472,375.293506 375.293506,472 256,472 Z M256,452 C364.247811,452 452,364.247811 452,256 C452,147.752189 364.247811,60 256,60 C147.752189,60 60,147.752189 60,256 C60,364.247811 147.752189,452 256,452 Z M255.725,344 C263.857397,344 270.450001,350.5934 270.450001,358.727273 C270.450001,366.860655 263.857397,373.454545 255.725,373.454545 C247.592604,373.454545 241,366.860655 241,358.727273 C241,350.5934 247.592604,344 255.725,344 Z M256,138.181818 C293.788714,138.181818 324.642488,168.985922 324.727273,206.755682 C324.727749,206.810173 324.726919,206.854109 324.727273,206.909091 C324.917583,236.396233 307.311281,254.750145 292.357955,268.886364 C284.867394,275.967727 277.908134,282.337273 273.181818,288.829545 C268.455503,295.321818 265.818182,301.585818 265.818182,310 L265.818182,314.909091 C265.868257,318.44988 264.007952,321.743344 260.949612,323.528352 C257.891272,325.31336 254.108728,325.31336 251.050388,323.528352 C247.992048,321.743344 246.131743,318.44988 246.181818,314.909091 L246.181818,310 C246.181818,297.041473 250.991456,286.100336 257.380682,277.323864 C263.769908,268.5469 271.565176,261.513155 278.857955,254.619318 C293.443517,240.830713 305.282462,228.959353 305.090909,206.909091 C305.090909,179.680671 283.228464,157.818182 256,157.818182 C228.771536,157.818182 206.909091,179.680671 206.909091,206.909091 C206.959166,210.44988 205.098861,213.743344 202.040521,215.528352 C198.982181,217.31336 195.199637,217.31336 192.141297,215.528352 C189.082957,213.743344 187.222652,210.44988 187.272727,206.909091 C187.272727,169.068395 218.15925,138.181818 256,138.181818 Z" id="Combined-Shape"></path>
        </g>
    </g>
</svg>