<svg xmlns="http://www.w3.org/2000/svg" width="24" height="24" viewBox="0 0 24 24">
    <path fill="#9452BA" fill-rule="evenodd" d="M3,14.3369936 L7.48915437,10.8037388 L12.4131321,15.4301136 L15.5900989,12.9640752 L21,15.1388344 L21,3 L22,3 L22,21 L21,21 L21,16.2531626 L15.6012599,14.2213201 L12.3512166,16.7440823 L7.51084563,12.1962612 L3,15.8068903 L3,21 L2,21 L2,3 L3,3 L3,14.3369936 Z M2,2 L22,2 L22,3 L2,3 L2,2 Z M2,21 L22,21 L22,22 L2,22 L2,21 Z M15.5,11 C14.1192881,11 13,9.88071187 13,8.5 C13,7.11928813 14.1192881,6 15.5,6 C16.8807119,6 18,7.11928813 18,8.5 C18,9.88071187 16.8807119,11 15.5,11 Z M15.5,10 C16.3284271,10 17,9.32842712 17,8.5 C17,7.67157288 16.3284271,7 15.5,7 C14.6715729,7 14,7.67157288 14,8.5 C14,9.32842712 14.6715729,10 15.5,10 Z"/>
</svg>
