<?xml version="1.0" encoding="UTF-8"?>
<svg width="24px" height="24px" viewBox="0 0 24 24" version="1.1" xmlns="http://www.w3.org/2000/svg" xmlns:xlink="http://www.w3.org/1999/xlink">
    <g id="24x24" stroke="none" stroke-width="1" fill="none" fill-rule="evenodd">
        <g id="icon-card" fill="#9452BA">
            <path d="M22,13.5 L22,22 L21.5,22 L13,22 L13,21.5 L13,13 L13.5,13 L22,13 L22,13.5 Z M21,14 L14,14 L14,21 L21,21 L21,14 Z M11,13.5 L11,22 L10.5,22 L2,22 L2,21.5 L2,13 L2.5,13 L11,13 L11,13.5 Z M10,14 L3,14 L3,21 L10,21 L10,14 Z M22,2.5 L22,11 L21.5,11 L13.5,11 L13,11 L13,2 L13.5,2 L22,2 L22,2.5 Z M21,3 L14,3 L14,10 L21,10 L21,3 Z M2.5,11 L2,11 L2,2 L2.5,2 L11,2 L11,2.5 L11,10.5 L11,11 L2.5,11 Z M3,10 L10,10 L10,3 L3,3 L3,10 Z" id="Combined-Shape"></path>
        </g>
    </g>
</svg>
