<?xml version="1.0" encoding="UTF-8"?>
<svg width="512px" height="512px" viewBox="0 0 512 512" version="1.1" xmlns="http://www.w3.org/2000/svg" xmlns:xlink="http://www.w3.org/1999/xlink">
    <!-- Generator: Sketch 46.2 (44496) - http://www.bohemiancoding.com/sketch -->
    <title>Icon-trash</title>
    <desc>Created with Sketch.</desc>
    <defs></defs>
    <g id="24x24" stroke="none" stroke-width="1" fill="none" fill-rule="evenodd">
        <g id="Icon-trash" fill="#67768A">
            <path d="M170,40 L342,40 L342,60 L170,60 L170,40 Z M60,80 L452,80 L452,100 L60,100 L60,80 Z M60,150 L452,150 L452,170 L60,170 L60,150 Z M105,452 L407,452 L407,472 L105,472 L105,452 Z M105,170 L125,170 L125,452 L105,452 L105,170 Z M180,212 L200,212 L200,386 L180,386 L180,212 Z M60,100 L80,100 L80,150 L60,150 L60,100 Z M432,100 L452,100 L452,150 L432,150 L432,100 Z M312,212 L332,212 L332,386 L312,386 L312,212 Z M246,212 L266,212 L266,386 L246,386 L246,212 Z M387,170 L407,170 L407,452 L387,452 L387,170 Z" id="Combined-Shape"></path>
        </g>
    </g>
</svg>