<?xml version="1.0" encoding="UTF-8"?>
<svg width="120px" height="120px" viewBox="0 0 256 256" version="1.1" xmlns="http://www.w3.org/2000/svg" xmlns:xlink="http://www.w3.org/1999/xlink">
    <!-- Generator: Sketch 44.1 (41455) - http://www.bohemiancoding.com/sketch -->
    <title>illustration-export-xlsx</title>
    <desc>Created with Sketch.</desc>
    <defs></defs>
    <g id="128x128" stroke="none" stroke-width="1" fill="none" fill-rule="evenodd">
        <g id="illustration-export-xlsx">
            <g id="Group-2" transform="translate(11.000000, 33.000000)">
                <g id="Group">
                    <path d="M206.352727,142.907565 C212.538328,129.905388 216,115.356952 216,100 C216,44.771525 171.228475,0 116,0 C60.771525,0 16,44.771525 16,100 C16,115.997122 19.7562934,131.116915 26.4349781,144.525476 C28.517272,133.964719 37.8285061,126 49,126 C53.2605674,126 57.2505609,127.158465 60.6721726,129.177586 C67.6822466,118.813149 79.5454752,112 93,112 C113.013891,112 129.506689,127.075587 131.742092,146.490456 C132.771587,146.171674 133.865745,146 135,146 C141.075132,146 146,150.924868 146,157 C146,158.040024 145.855666,159.046336 145.585935,160 L160.044843,160 C160.550072,154.3935 165.261957,150 171,150 C173.030337,150 174.932198,150.550072 176.564684,151.509316 C178.559634,143.741067 185.609368,138 194,138 C198.782416,138 203.129218,139.865082 206.352727,142.907566 Z" id="Combined-Shape" fill="#FFFFFF"></path>
                    <path d="M206.352727,142.907565 C212.538328,129.905388 216,115.356952 216,100 C216,44.771525 171.228475,0 116,0 C60.771525,0 16,44.771525 16,100 C16,115.997122 19.7562934,131.116915 26.4349781,144.525476 C28.517272,133.964719 37.8285061,126 49,126 C53.2605674,126 57.2505609,127.158465 60.6721726,129.177586 C67.6822466,118.813149 79.5454752,112 93,112 C113.013891,112 129.506689,127.075587 131.742092,146.490456 C132.771587,146.171674 133.865745,146 135,146 C141.075132,146 146,150.924868 146,157 C146,158.040024 145.855666,159.046336 145.585935,160 L160.044843,160 C160.550072,154.3935 165.261957,150 171,150 C173.030337,150 174.932198,150.550072 176.564684,151.509316 C178.559634,143.741067 185.609368,138 194,138 C198.782416,138 203.129218,139.865082 206.352727,142.907566 Z" id="Combined-Shape" fill="#EFEFF6"></path>
                    <g transform="translate(74.000000, 30.000000)">
                        <path d="M53.0668224,102 L84,102 L84,0 L18.9657769,0 L-5.25968158e-14,18.9657769 L-4.97379915e-14,86.9331776 C5.62197161,83.7909267 12.1018391,82 19,82 C33.6409444,82 46.3975781,90.0676929 53.0668224,102 Z" id="Combined-Shape" stroke="#4A6286" stroke-width="2" fill="#FFFFFF"></path>
                        <rect id="Rectangle-4" fill="#4A6286" x="20.2222222" y="73.8181818" width="43.5555556" height="1.54545455"></rect>
                        <path d="M43.0018862,18.4615903 L43.0018862,29.2445876 C43.0018862,30.1759218 42.2561724,30.9309174 41.3218391,30.9309174 C40.3939747,30.9309174 39.641792,30.1835283 39.641792,29.2445876 L39.641792,18.1668321 L37.6106199,20.198501 C36.9517224,20.8575597 35.8902811,20.8644041 35.2296077,20.2035691 C34.5735086,19.5473094 34.5773813,18.4794286 35.2346746,17.8219745 L39.9764317,13.0790575 C40.4324954,12.6228822 41.0814129,12.479175 41.6568011,12.6530641 C41.9189069,12.7303771 42.1659961,12.8724427 42.3725604,13.0790575 L47.1143175,17.8219745 C47.773215,18.4810332 47.7800577,19.5427341 47.1193843,20.2035691 C46.4632851,20.8598288 45.3956654,20.8559551 44.7383721,20.198501 L43.0018862,18.4615903 Z M31.8015723,34.8519862 C31.8015723,33.9238948 32.5479838,33.1715281 33.4912926,33.1715281 L49.1523855,33.1715281 C50.0855923,33.1715281 50.8421059,33.9174243 50.8421059,34.8519862 C50.8421059,35.7800775 50.0956944,36.5324442 49.1523855,36.5324442 L33.4912926,36.5324442 C32.5580859,36.5324442 31.8015723,35.786548 31.8015723,34.8519862 Z" id="Combined-Shape" fill="#9452BA"></path>
                        <rect id="Rectangle-4-Copy" fill="#4A6286" x="28" y="82.1818182" width="28" height="1.54545455"></rect>
                        <path d="M29.4497778,60.8181818 L27.3591111,60.8181818 C27.1994066,60.8181818 27.0741856,60.7767125 26.9834444,60.6937727 C26.8927032,60.6108329 26.8182966,60.5188793 26.7602222,60.4179091 L22.5788889,53.9053636 C22.5208145,54.0784554 22.4554818,54.2263024 22.3828889,54.3489091 L18.3104444,60.4179091 C18.2378515,60.5188793 18.1598152,60.6108329 18.0763333,60.6937727 C17.9928514,60.7767125 17.8785192,60.8181818 17.7333333,60.8181818 L15.7733333,60.8181818 L21.1415556,52.856 L15.9911111,45.3157273 L18.0926667,45.3157273 C18.2451119,45.3157273 18.3576293,45.3409694 18.4302222,45.3914545 C18.5028152,45.4419396 18.5681479,45.5140601 18.6262222,45.6078182 L22.6986667,51.8174545 C22.7494817,51.6659992 22.8257032,51.5001221 22.9273333,51.3198182 L26.7711111,45.6510909 C26.8291855,45.5501207 26.8981477,45.4689852 26.978,45.4076818 C27.0578523,45.3463785 27.1522217,45.3157273 27.2611111,45.3157273 L29.2755556,45.3157273 L24.1033333,52.7586364 L29.4497778,60.8181818 Z M40.5346667,59.0548182 L40.5346667,60.8181818 L31.682,60.8181818 L31.682,45.3157273 L33.7835556,45.3157273 L33.7835556,59.0548182 L40.5346667,59.0548182 Z M50.8464444,47.739 C50.7811108,47.8471824 50.7103337,47.9283179 50.6341111,47.9824091 C50.5578885,48.0365003 50.4653339,48.0635455 50.3564444,48.0635455 C50.2330364,48.0635455 50.0878527,48.002243 49.9208889,47.8796364 C49.7539251,47.7570297 49.5452235,47.6218038 49.2947778,47.4739545 C49.0443321,47.3261053 48.7430758,47.1908794 48.391,47.0682727 C48.0389242,46.9456661 47.6124469,46.8843636 47.1115556,46.8843636 C46.6397013,46.8843636 46.2241129,46.9474691 45.8647778,47.0736818 C45.5054426,47.1998946 45.2041864,47.3711807 44.961,47.5875455 C44.7178136,47.8039102 44.5345191,48.0581349 44.4111111,48.3502273 C44.2877031,48.6423196 44.226,48.9578468 44.226,49.2968182 C44.226,49.7295476 44.333073,50.0883471 44.5472222,50.3732273 C44.7613714,50.6581075 45.0444797,50.9015141 45.3965556,51.1034545 C45.7486314,51.3053949 46.1478867,51.4802871 46.5943333,51.6281364 C47.04078,51.7759856 47.4981088,51.9292416 47.9663333,52.0879091 C48.4345579,52.2465766 48.8918867,52.4250748 49.3383333,52.6234091 C49.78478,52.8217434 50.1840353,53.0723621 50.5361111,53.3752727 C50.8881869,53.6781833 51.1712952,54.0496039 51.3854444,54.4895455 C51.5995937,54.929487 51.7066667,55.4703907 51.7066667,56.1122727 C51.7066667,56.7902155 51.5905197,57.4266788 51.3582222,58.0216818 C51.1259248,58.6166848 50.7865578,59.1341493 50.3401111,59.5740909 C49.8936644,60.0140325 49.3455958,60.3602109 48.6958889,60.6126364 C48.0461819,60.8650619 47.3075597,60.9912727 46.48,60.9912727 C45.4636986,60.9912727 44.5417819,60.8091685 43.7142222,60.4449545 C42.8866625,60.0807406 42.1788918,59.5885183 41.5908889,58.9682727 L42.2006667,57.973 C42.258741,57.8936663 42.3295181,57.8269548 42.413,57.7728636 C42.4964819,57.7187725 42.5890365,57.6917273 42.6906667,57.6917273 C42.7850375,57.6917273 42.8921105,57.7295905 43.0118889,57.8053182 C43.1316673,57.8810458 43.267777,57.9766055 43.4202222,58.092 C43.5726674,58.2073945 43.7468879,58.3336054 43.9428889,58.4706364 C44.1388899,58.6076674 44.3621099,58.7338782 44.6125556,58.8492727 C44.8630013,58.9646672 45.1479243,59.0602269 45.4673333,59.1359545 C45.7867423,59.2116822 46.1460721,59.2495455 46.5453333,59.2495455 C47.0462247,59.2495455 47.4926647,59.181031 47.8846667,59.044 C48.2766686,58.906969 48.6087764,58.7140467 48.881,58.4652273 C49.1532236,58.2164078 49.3619252,57.9189108 49.5071111,57.5727273 C49.652297,57.2265437 49.7248889,56.8406991 49.7248889,56.4151818 C49.7248889,55.9463916 49.6178159,55.56235 49.4036667,55.2630455 C49.1895174,54.9637409 48.908224,54.7131222 48.5597778,54.5111818 C48.2113316,54.3092414 47.8120763,54.1379552 47.362,53.9973182 C46.9119237,53.8566811 46.4545949,53.7124401 45.99,53.5645909 C45.5254051,53.4167417 45.0680763,53.2454555 44.618,53.0507273 C44.1679237,52.855999 43.7686684,52.6035773 43.4202222,52.2934545 C43.071776,51.9833318 42.7904826,51.5956841 42.5763333,51.1305 C42.3621841,50.6653159 42.2551111,50.0901549 42.2551111,49.405 C42.2551111,48.856876 42.3621841,48.3267904 42.5763333,47.8147273 C42.7904826,47.3026641 43.1026276,46.848305 43.5127778,46.4516364 C43.922928,46.0549677 44.4274414,45.7376376 45.0263333,45.4996364 C45.6252252,45.2616352 46.3130332,45.1426364 47.0897778,45.1426364 C47.9608932,45.1426364 48.7539594,45.2796653 49.469,45.5537273 C50.1840406,45.8277892 50.8137751,46.2244519 51.3582222,46.7437273 L50.8464444,47.739 Z M66.5155556,60.8181818 L64.4248889,60.8181818 C64.2651844,60.8181818 64.1399634,60.7767125 64.0492222,60.6937727 C63.958481,60.6108329 63.8840744,60.5188793 63.826,60.4179091 L59.6446667,53.9053636 C59.5865923,54.0784554 59.5212596,54.2263024 59.4486667,54.3489091 L55.3762222,60.4179091 C55.3036293,60.5188793 55.225593,60.6108329 55.1421111,60.6937727 C55.0586292,60.7767125 54.944297,60.8181818 54.7991111,60.8181818 L52.8391111,60.8181818 L58.2073333,52.856 L53.0568889,45.3157273 L55.1584444,45.3157273 C55.3108897,45.3157273 55.423407,45.3409694 55.496,45.3914545 C55.568593,45.4419396 55.6339256,45.5140601 55.692,45.6078182 L59.7644444,51.8174545 C59.8152595,51.6659992 59.891481,51.5001221 59.9931111,51.3198182 L63.8368889,45.6510909 C63.8949633,45.5501207 63.9639255,45.4689852 64.0437778,45.4076818 C64.12363,45.3463785 64.2179995,45.3157273 64.3268889,45.3157273 L66.3413333,45.3157273 L61.1691111,52.7586364 L66.5155556,60.8181818 Z" id="XLSX" fill="#9452BA"></path>
                        <path d="M18.3564891,2.40260024 L2.65217851,18 L18.3564891,18 L18.3564891,2.40260024 Z" id="Rectangle-3" stroke="#4A6286" stroke-width="2"></path>
                    </g>
                    <path d="M12,160 L30,160 L30,162 L12,162 L12,160 Z M145.00214,160 L160,160 L160,162 L145.00214,162 L145.00214,160 Z M226,160 L234,160 L234,162 L226,162 L226,160 Z M210.505159,160 L222,160 L222,162 L210.142733,162 L210.505159,160 Z M0,160 L8,160 L8,162 L0,162 L0,160 Z" id="Combined-Shape" fill="#4A6286"></path>
                    <path d="M36,174 L194,174 L194,176 L36,176 L36,174 Z M198,174 L206,174 L206,176 L198,176 L198,174 Z M26,174 L32,174 L32,176 L26,176 L26,174 Z" id="Combined-Shape" fill="#4A6286"></path>
                    <path d="M72,188 L150,188 L150,190 L72,190 L72,188 Z M154,188 L162,188 L162,190 L154,190 L154,188 Z" id="Combined-Shape-Copy" fill="#4A6286"></path>
                    <path d="M176.564684,151.509316 C174.932198,150.550072 173.030337,150 171,150 C164.924868,150 160,154.924868 160,161 M211.428924,160.515502 C211.801694,159.072547 212,157.559432 212,156 C212,146.058875 203.941125,138 194,138 C185.609368,138 178.559634,143.741067 176.564684,151.509316 M29.3703049,160.992766 C27.2323511,157.500841 26,153.394336 26,149 C26,136.297451 36.2974508,126 49,126 C53.2605683,126 57.2505625,127.158465 60.6721746,129.177588 C67.6822466,118.813149 79.5454752,112 93,112 C113.013891,112 129.506689,127.075587 131.742092,146.490456 C132.771587,146.171674 133.865745,146 135,146 C141.075132,146 146,150.924868 146,157 C146,158.345274 145.691932,159.80852 145.249932,161" id="Combined-Shape" stroke="#4A6286" stroke-width="2" stroke-linecap="round"></path>
                </g>
            </g>
        </g>
    </g>
</svg>
