<?xml version="1.0" encoding="UTF-8"?>
<svg width="120px" height="120px" viewBox="0 0 256 256" version="1.1" xmlns="http://www.w3.org/2000/svg" xmlns:xlink="http://www.w3.org/1999/xlink">
    <!-- Generator: Sketch 44.1 (41455) - http://www.bohemiancoding.com/sketch -->
    <title>illustration-export</title>
    <desc>Created with Sketch.</desc>
    <defs></defs>
    <g id="128x128" stroke="none" stroke-width="1" fill="none" fill-rule="evenodd">
        <g id="illustration-export">
            <g id="Group-2" transform="translate(11.000000, 33.000000)">
                <g id="Group">
                    <path d="M206.352727,142.907565 C212.538328,129.905388 216,115.356952 216,100 C216,44.771525 171.228475,0 116,0 C60.771525,0 16,44.771525 16,100 C16,115.997122 19.7562934,131.116915 26.4349781,144.525476 C28.517272,133.964719 37.8285061,126 49,126 C53.2605674,126 57.2505609,127.158465 60.6721726,129.177586 C67.6822466,118.813149 79.5454752,112 93,112 C113.013891,112 129.506689,127.075587 131.742092,146.490456 C132.771587,146.171674 133.865745,146 135,146 C141.075132,146 146,150.924868 146,157 C146,158.040024 145.855666,159.046336 145.585935,160 L160.044843,160 C160.550072,154.3935 165.261957,150 171,150 C173.030337,150 174.932198,150.550072 176.564684,151.509316 C178.559634,143.741067 185.609368,138 194,138 C198.782416,138 203.129218,139.865082 206.352727,142.907566 Z" id="Combined-Shape" fill="#FFFFFF"></path>
                    <path d="M206.352727,142.907565 C212.538328,129.905388 216,115.356952 216,100 C216,44.771525 171.228475,0 116,0 C60.771525,0 16,44.771525 16,100 C16,115.997122 19.7562934,131.116915 26.4349781,144.525476 C28.517272,133.964719 37.8285061,126 49,126 C53.2605674,126 57.2505609,127.158465 60.6721726,129.177586 C67.6822466,118.813149 79.5454752,112 93,112 C113.013891,112 129.506689,127.075587 131.742092,146.490456 C132.771587,146.171674 133.865745,146 135,146 C141.075132,146 146,150.924868 146,157 C146,158.040024 145.855666,159.046336 145.585935,160 L160.044843,160 C160.550072,154.3935 165.261957,150 171,150 C173.030337,150 174.932198,150.550072 176.564684,151.509316 C178.559634,143.741067 185.609368,138 194,138 C198.782416,138 203.129218,139.865082 206.352727,142.907566 Z" id="Combined-Shape" fill="#EFEFF6"></path>
                    <g transform="translate(74.000000, 30.000000)">
                        <path d="M53.0668224,102 L84,102 L84,0 L18.9657769,0 L8.6235713e-11,18.9657769 L8.62385718e-11,86.9331776 C5.62197162,83.7909267 12.1018391,82 19,82 C33.6409444,82 46.3975781,90.0676929 53.0668224,102 Z" id="Combined-Shape" stroke="#4A6286" stroke-width="2" fill="#FFFFFF"></path>
                        <rect id="Rectangle-4" fill="#4A6286" x="20.2222222" y="73.8181818" width="43.5555556" height="1.54545455"></rect>
                        <path d="M43.0018862,35.4615903 L43.0018862,46.2445876 C43.0018862,47.1759218 42.2561724,47.9309174 41.3218391,47.9309174 C40.3939747,47.9309174 39.641792,47.1835283 39.641792,46.2445876 L39.641792,35.1668321 L37.6106199,37.198501 C36.9517224,37.8575597 35.8902811,37.8644041 35.2296077,37.2035691 C34.5735086,36.5473094 34.5773813,35.4794286 35.2346746,34.8219745 L39.9764317,30.0790575 C40.4324954,29.6228822 41.0814129,29.479175 41.6568011,29.6530641 C41.9189069,29.7303771 42.1659961,29.8724427 42.3725604,30.0790575 L47.1143175,34.8219745 C47.773215,35.4810332 47.7800577,36.5427341 47.1193843,37.2035691 C46.4632851,37.8598288 45.3956654,37.8559551 44.7383721,37.198501 L43.0018862,35.4615903 Z M31.8015723,51.8519862 C31.8015723,50.9238948 32.5479838,50.1715281 33.4912926,50.1715281 L49.1523855,50.1715281 C50.0855923,50.1715281 50.8421059,50.9174243 50.8421059,51.8519862 C50.8421059,52.7800775 50.0956944,53.5324442 49.1523855,53.5324442 L33.4912926,53.5324442 C32.5580859,53.5324442 31.8015723,52.786548 31.8015723,51.8519862 Z" id="Combined-Shape" fill="#9452BA"></path>
                        <rect id="Rectangle-4-Copy" fill="#4A6286" x="28" y="82.1818182" width="28" height="1.54545455"></rect>
                        <path d="M18.3564891,2.40260024 L2.65217851,18 L18.3564891,18 L18.3564891,2.40260024 Z" id="Rectangle-3" stroke="#4A6286" stroke-width="2"></path>
                    </g>
                    <path d="M12,160 L30,160 L30,162 L12,162 L12,160 Z M145.00214,160 L160,160 L160,162 L145.00214,162 L145.00214,160 Z M226,160 L234,160 L234,162 L226,162 L226,160 Z M210.505159,160 L222,160 L222,162 L210.142733,162 L210.505159,160 Z M0,160 L8,160 L8,162 L0,162 L0,160 Z" id="Combined-Shape" fill="#4A6286"></path>
                    <path d="M36,174 L194,174 L194,176 L36,176 L36,174 Z M198,174 L206,174 L206,176 L198,176 L198,174 Z M26,174 L32,174 L32,176 L26,176 L26,174 Z" id="Combined-Shape" fill="#4A6286"></path>
                    <path d="M72,188 L150,188 L150,190 L72,190 L72,188 Z M154,188 L162,188 L162,190 L154,190 L154,188 Z" id="Combined-Shape-Copy" fill="#4A6286"></path>
                    <path d="M176.564684,151.509316 C174.932198,150.550072 173.030337,150 171,150 C164.924868,150 160,154.924868 160,161 M211.428924,160.515502 C211.801694,159.072547 212,157.559432 212,156 C212,146.058875 203.941125,138 194,138 C185.609368,138 178.559634,143.741067 176.564684,151.509316 M29.3703049,160.992766 C27.2323511,157.500841 26,153.394336 26,149 C26,136.297451 36.2974508,126 49,126 C53.2605683,126 57.2505625,127.158465 60.6721746,129.177588 C67.6822466,118.813149 79.5454752,112 93,112 C113.013891,112 129.506689,127.075587 131.742092,146.490456 C132.771587,146.171674 133.865745,146 135,146 C141.075132,146 146,150.924868 146,157 C146,158.345274 145.691932,159.80852 145.249932,161" id="Combined-Shape" stroke="#4A6286" stroke-width="2" stroke-linecap="round"></path>
                </g>
            </g>
        </g>
    </g>
</svg>
