<?xml version="1.0" encoding="UTF-8"?>
<svg width="120px" height="120px" viewBox="0 0 256 256" version="1.1" xmlns="http://www.w3.org/2000/svg" xmlns:xlink="http://www.w3.org/1999/xlink">
    <!-- Generator: Sketch 44.1 (41455) - http://www.bohemiancoding.com/sketch -->
    <title>illustration-export-yml</title>
    <desc>Created with Sketch.</desc>
    <defs></defs>
    <g id="128x128" stroke="none" stroke-width="1" fill="none" fill-rule="evenodd">
        <g id="illustration-export-yml">
            <g id="Group-2" transform="translate(11.000000, 33.000000)">
                <g id="Group">
                    <path d="M206.352727,142.907565 C212.538328,129.905388 216,115.356952 216,100 C216,44.771525 171.228475,0 116,0 C60.771525,0 16,44.771525 16,100 C16,115.997122 19.7562934,131.116915 26.4349781,144.525476 C28.517272,133.964719 37.8285061,126 49,126 C53.2605674,126 57.2505609,127.158465 60.6721726,129.177586 C67.6822466,118.813149 79.5454752,112 93,112 C113.013891,112 129.506689,127.075587 131.742092,146.490456 C132.771587,146.171674 133.865745,146 135,146 C141.075132,146 146,150.924868 146,157 C146,158.040024 145.855666,159.046336 145.585935,160 L160.044843,160 C160.550072,154.3935 165.261957,150 171,150 C173.030337,150 174.932198,150.550072 176.564684,151.509316 C178.559634,143.741067 185.609368,138 194,138 C198.782416,138 203.129218,139.865082 206.352727,142.907566 Z" id="Combined-Shape" fill="#FFFFFF"></path>
                    <path d="M206.352727,142.907565 C212.538328,129.905388 216,115.356952 216,100 C216,44.771525 171.228475,0 116,0 C60.771525,0 16,44.771525 16,100 C16,115.997122 19.7562934,131.116915 26.4349781,144.525476 C28.517272,133.964719 37.8285061,126 49,126 C53.2605674,126 57.2505609,127.158465 60.6721726,129.177586 C67.6822466,118.813149 79.5454752,112 93,112 C113.013891,112 129.506689,127.075587 131.742092,146.490456 C132.771587,146.171674 133.865745,146 135,146 C141.075132,146 146,150.924868 146,157 C146,158.040024 145.855666,159.046336 145.585935,160 L160.044843,160 C160.550072,154.3935 165.261957,150 171,150 C173.030337,150 174.932198,150.550072 176.564684,151.509316 C178.559634,143.741067 185.609368,138 194,138 C198.782416,138 203.129218,139.865082 206.352727,142.907566 Z" id="Combined-Shape" fill="#EFEFF6"></path>
                    <g transform="translate(74.000000, 30.000000)">
                        <path d="M53.0668224,102 L84,102 L84,0 L18.9657769,0 L8.6235713e-11,18.9657769 L8.62385718e-11,86.9331776 C5.62197162,83.7909267 12.1018391,82 19,82 C33.6409444,82 46.3975781,90.0676929 53.0668224,102 Z" id="Combined-Shape" stroke="#4A6286" stroke-width="2" fill="#FFFFFF"></path>
                        <path d="M25.86,56.148 L25.86,63 L23.532,63 L23.532,56.148 L17.232,45.804 L19.272,45.804 C19.480001,45.804 19.6439994,45.8539995 19.764,45.954 C19.8840006,46.0540005 19.9879996,46.1839992 20.076,46.344 L24.012,53.028 C24.1560007,53.3080014 24.2879994,53.5699988 24.408,53.814 C24.5280006,54.0580012 24.6319996,54.3039988 24.72,54.552 C24.8080004,54.3039988 24.9079994,54.0580012 25.02,53.814 C25.1320006,53.5699988 25.2559993,53.3080014 25.392,53.028 L29.316,46.344 C29.3880004,46.2079993 29.4879994,46.0840006 29.616,45.972 C29.7440006,45.8599994 29.907999,45.804 30.108,45.804 L32.16,45.804 L25.86,56.148 Z M52.272,45.804 L52.272,63 L50.232,63 L50.232,50.364 C50.232,50.1959992 50.2379999,50.016001 50.25,49.824 C50.2620001,49.631999 50.2759999,49.436001 50.292,49.236 L44.388,59.988 C44.2039991,60.3480018 43.9240019,60.528 43.548,60.528 L43.212,60.528 C42.8359981,60.528 42.5560009,60.3480018 42.372,59.988 L36.348,49.188 C36.3960002,49.6120021 36.42,50.0039982 36.42,50.364 L36.42,63 L34.38,63 L34.38,45.804 L36.096,45.804 C36.304001,45.804 36.4639994,45.8239998 36.576,45.864 C36.6880006,45.9040002 36.7959995,46.0159991 36.9,46.2 L42.84,56.784 C42.9360005,56.976001 43.0299995,57.175999 43.122,57.384 C43.2140005,57.592001 43.2999996,57.8039989 43.38,58.02 C43.4600004,57.8039989 43.5439996,57.5900011 43.632,57.378 C43.7200004,57.1659989 43.8159995,56.964001 43.92,56.772 L49.752,46.2 C49.8480005,46.0159991 49.9539994,45.9040002 50.07,45.864 C50.1860006,45.8239998 50.347999,45.804 50.556,45.804 L52.272,45.804 Z M66.42,61.044 L66.42,63 L56.664,63 L56.664,45.804 L58.98,45.804 L58.98,61.044 L66.42,61.044 Z" id="YML" fill="#9452BA"></path>
                        <rect id="Rectangle-4" fill="#4A6286" x="20.2222222" y="73.8181818" width="43.5555556" height="1.54545455"></rect>
                        <path d="M43.0018862,18.4615903 L43.0018862,29.2445876 C43.0018862,30.1759218 42.2561724,30.9309174 41.3218391,30.9309174 C40.3939747,30.9309174 39.641792,30.1835283 39.641792,29.2445876 L39.641792,18.1668321 L37.6106199,20.198501 C36.9517224,20.8575597 35.8902811,20.8644041 35.2296077,20.2035691 C34.5735086,19.5473094 34.5773813,18.4794286 35.2346746,17.8219745 L39.9764317,13.0790575 C40.4324954,12.6228822 41.0814129,12.479175 41.6568011,12.6530641 C41.9189069,12.7303771 42.1659961,12.8724427 42.3725604,13.0790575 L47.1143175,17.8219745 C47.773215,18.4810332 47.7800577,19.5427341 47.1193843,20.2035691 C46.4632851,20.8598288 45.3956654,20.8559551 44.7383721,20.198501 L43.0018862,18.4615903 Z M31.8015723,34.8519862 C31.8015723,33.9238948 32.5479838,33.1715281 33.4912926,33.1715281 L49.1523855,33.1715281 C50.0855923,33.1715281 50.8421059,33.9174243 50.8421059,34.8519862 C50.8421059,35.7800775 50.0956944,36.5324442 49.1523855,36.5324442 L33.4912926,36.5324442 C32.5580859,36.5324442 31.8015723,35.786548 31.8015723,34.8519862 Z" id="Combined-Shape" fill="#9452BA"></path>
                        <rect id="Rectangle-4-Copy" fill="#4A6286" x="28" y="82.1818182" width="28" height="1.54545455"></rect>
                        <path d="M18.3564891,2.40260024 L2.65217851,18 L18.3564891,18 L18.3564891,2.40260024 Z" id="Rectangle-3" stroke="#4A6286" stroke-width="2"></path>
                    </g>
                    <path d="M12,160 L30,160 L30,162 L12,162 L12,160 Z M145.00214,160 L160,160 L160,162 L145.00214,162 L145.00214,160 Z M226,160 L234,160 L234,162 L226,162 L226,160 Z M210.505159,160 L222,160 L222,162 L210.142733,162 L210.505159,160 Z M0,160 L8,160 L8,162 L0,162 L0,160 Z" id="Combined-Shape" fill="#4A6286"></path>
                    <path d="M36,174 L194,174 L194,176 L36,176 L36,174 Z M198,174 L206,174 L206,176 L198,176 L198,174 Z M26,174 L32,174 L32,176 L26,176 L26,174 Z" id="Combined-Shape" fill="#4A6286"></path>
                    <path d="M72,188 L150,188 L150,190 L72,190 L72,188 Z M154,188 L162,188 L162,190 L154,190 L154,188 Z" id="Combined-Shape-Copy" fill="#4A6286"></path>
                    <path d="M176.564684,151.509316 C174.932198,150.550072 173.030337,150 171,150 C164.924868,150 160,154.924868 160,161 M211.428924,160.515502 C211.801694,159.072547 212,157.559432 212,156 C212,146.058875 203.941125,138 194,138 C185.609368,138 178.559634,143.741067 176.564684,151.509316 M29.3703049,160.992766 C27.2323511,157.500841 26,153.394336 26,149 C26,136.297451 36.2974508,126 49,126 C53.2605683,126 57.2505625,127.158465 60.6721746,129.177588 C67.6822466,118.813149 79.5454752,112 93,112 C113.013891,112 129.506689,127.075587 131.742092,146.490456 C132.771587,146.171674 133.865745,146 135,146 C141.075132,146 146,150.924868 146,157 C146,158.345274 145.691932,159.80852 145.249932,161" id="Combined-Shape" stroke="#4A6286" stroke-width="2" stroke-linecap="round"></path>
                </g>
            </g>
        </g>
    </g>
</svg>
