<?xml version="1.0" encoding="UTF-8"?>
<svg width="256px" height="256px" viewBox="0 0 256 256" version="1.1" xmlns="http://www.w3.org/2000/svg" xmlns:xlink="http://www.w3.org/1999/xlink">
    <!-- Generator: Sketch 46.2 (44496) - http://www.bohemiancoding.com/sketch -->
    <title>illustration-attribute</title>
    <desc>Created with Sketch.</desc>
    <defs>
        <rect id="path-1" x="0" y="4" width="133" height="183" rx="3"></rect>
        <path d="M66.5,24.6172078 C51.604,24.6172078 39.484375,36.7451169 39.484375,51.6512987 C39.484375,66.5574805 51.604,78.6853896 66.5,78.6853896 C81.396,78.6853896 93.515625,66.5574805 93.515625,51.6512987 C93.515625,36.7451169 81.396,24.6172078 66.5,24.6172078 Z" id="path-2"></path>
    </defs>
    <g id="128x128" stroke="none" stroke-width="1" fill="none" fill-rule="evenodd">
        <g id="illustration-attribute">
            <rect id="Rectangle-9" fill="#FFFFFF" x="0" y="0" width="256" height="256"></rect>
            <g id="Group-5" transform="translate(30.000000, 28.000000)">
                <path d="M168,199 C217.705627,199 173,178 173,178 C173,178 147.705627,165 98,165 C48.2943725,165 8,181.611159 8,191 C8,200.388841 118.294373,199 168,199 Z" id="Oval" fill="#EFEFF6"></path>
                <g id="Group" transform="translate(31.000000, 0.000000)">
                    <g id="Rectangle-6">
                        <use fill="#FFFFFF" fill-rule="evenodd" xlink:href="#path-1"></use>
                        <rect stroke="#4A6286" stroke-width="2" x="1" y="5" width="131" height="181" rx="3"></rect>
                    </g>
                    <path d="M32.8844679,51.1746868 C32.9972059,50.6377841 33.4868882,49.9896232 33.9730775,49.7297194 L126.115521,0.472819115 C126.604005,0.211688328 126.997475,0.453161457 126.994376,1.00945777 L126.005624,178.486783 C126.002518,179.044291 125.554619,179.546934 125.009918,179.608933 L3.99008153,193.383548 C3.4432746,193.445787 3.09173159,193.059379 3.20413026,192.524092 L32.8844679,51.1746868 Z" id="Combined-Shape" fill="#EFEFF6" style="mix-blend-mode: darken;"></path>
                    <path d="M65.5,23.4599026 C48.8642996,23.4599026 35.3292264,37.0042274 35.3292264,53.6512987 C35.3292264,70.29837 48.8642996,83.8426948 65.5,83.8426948 C82.1357004,83.8426948 95.6707736,70.29837 95.6707736,53.6512987 C95.6707736,37.0042274 82.1357004,23.4599026 65.5,23.4599026 Z" id="Combined-Shape" fill="#FFFFFF" fill-rule="nonzero"></path>
                    <g id="Combined-Shape" fill-rule="nonzero">
                        <use fill="#FFFFFF" fill-rule="evenodd" xlink:href="#path-2"></use>
                        <path stroke="#4A6286" stroke-width="2" d="M66.5,25.6172078 C52.1564378,25.6172078 40.484375,37.2972487 40.484375,51.6512987 C40.484375,66.0053487 52.1564378,77.6853896 66.5,77.6853896 C80.8435622,77.6853896 92.515625,66.0053487 92.515625,51.6512987 C92.515625,37.2972487 80.8435622,25.6172078 66.5,25.6172078 Z"></path>
                    </g>
                    <g id="Group-3" transform="translate(24.000000, 112.000000)" stroke="#FFFFFF" stroke-width="4" stroke-linecap="round">
                        <path d="M35.3284314,2 L82.9215686,2" id="Line-Copy"></path>
                        <path d="M2.03638032,17.3333333 L82.9215686,17.3333333" id="Line-Copy-2"></path>
                        <path d="M2.03638032,34.3333333 L82.9215686,34.3333333" id="Line-Copy-3"></path>
                        <path d="M2.03638032,51.3333333 L52.9354126,51.3333333" id="Line-Copy-4"></path>
                    </g>
                    <g id="Group-3" transform="translate(24.000000, 112.000000)" stroke="#4A6286" stroke-width="2" stroke-linecap="round">
                        <path d="M35.3284314,1.8 L82.9215686,1.8" id="Line-Copy"></path>
                        <path d="M2.03638032,17.7071364 L82.9215686,17.7071364" id="Line-Copy-2"></path>
                        <path d="M2.03638032,34.9214156 L82.9215686,34.9214156" id="Line-Copy-3"></path>
                        <path d="M2.03638032,52.1356948 L52.9354126,52.1356948" id="Line-Copy-4"></path>
                    </g>
                    <g id="Group-4" transform="translate(23.000000, 105.000000)" stroke="#FFFFFF" fill-rule="nonzero">
                        <path d="M20.4760638,2.42232393 C19.6230079,2.9589205 18.7938134,3.69597582 17.9879007,4.63652135 C17.2145209,5.53909925 16.83225,6.55124474 16.83225,7.69044968 C16.83225,7.88943665 16.8393175,8.05092378 16.8512421,8.16920756 C17.0073294,8.11403206 17.1810832,8.08881331 17.3713125,8.08881331 C18.4126975,8.08881331 19.3383345,8.46087896 20.1212603,9.1925797 C20.9275006,9.94606953 21.3189219,11.0935358 21.3189219,12.6064951 C21.3189219,13.8918892 20.8743657,15.0693584 19.997419,16.1169709 C19.1000942,17.1917052 17.9286652,17.7376429 16.5213594,17.7376429 C14.9476717,17.7376429 13.664817,17.0948942 12.7236147,15.8344813 C11.8050139,14.6095923 11.3476562,13.0857012 11.3476562,11.2818247 C11.3476562,8.7865496 12.007084,6.58423226 13.3259936,4.68727617 C14.6287157,2.81145082 16.4314397,1.21073465 18.7087998,-0.103819722 C19.0473497,-0.322145418 19.3864735,-0.203426954 19.7621868,0.0909755094 C20.0208306,0.296078661 20.2029146,0.468665548 20.3225621,0.631011996 C20.4485794,0.798236063 20.5684167,1.02833487 20.6945976,1.33569342 C20.9003478,1.84646108 20.9284546,2.23790353 20.4760638,2.42232393 Z" id="Shape"></path>
                        <path d="M9.5679857,2.42232393 C8.71492974,2.9589205 7.88573532,3.69597582 7.07982261,4.63652135 C6.30644273,5.53909925 5.92417187,6.55124474 5.92417187,7.69044968 C5.92417187,7.88956223 5.93124827,8.05112761 5.94318652,8.16943146 C6.10010688,8.11416938 6.27293708,8.08881331 6.46323437,8.08881331 C7.50595913,8.08881331 8.42969656,8.46035574 9.21318219,9.1925797 C10.0194225,9.94606953 10.4108437,11.0935358 10.4108437,12.6064951 C10.4108437,13.8918892 9.96628755,15.0693584 9.08934088,16.1169709 C8.19201604,17.1917052 7.02058703,17.7376429 5.61328125,17.7376429 C4.0382008,17.7376429 2.7553225,17.0954712 1.81102819,15.8340113 C0.894329956,14.6086632 0.4375,13.0846695 0.4375,11.2818247 C0.4375,8.78770494 1.09741976,6.58556149 2.4179155,4.68727617 C3.72063762,2.81145082 5.52336159,1.21073465 7.80072169,-0.103819722 C8.13927153,-0.322145418 8.47839534,-0.203426954 8.85410865,0.0909755094 C9.10659368,0.291194744 9.28943644,0.465074687 9.41448402,0.631011996 C9.54296133,0.801500535 9.66607878,1.03670358 9.78651949,1.33569342 C9.99226969,1.84646108 10.0203765,2.23790353 9.5679857,2.42232393 Z" id="Shape"></path>
                        <path d="M68.133889,59.5846624 C67.9757971,59.6399525 67.8026788,59.6654383 67.6120625,59.6654383 C66.5697588,59.6654383 65.6462161,59.2942145 64.8611713,58.5627291 C64.0525263,57.8116774 63.6602969,56.6623881 63.6602969,55.1456769 C63.6602969,53.8593257 64.1040637,52.6839474 64.9818668,51.6330413 C65.8807563,50.5568906 67.0539395,50.0103701 68.4620156,50.0103701 C70.0376466,50.0103701 71.3185512,50.6512602 72.2683366,51.9138837 C73.1869983,53.1411015 73.6440313,54.6650278 73.6440313,56.4703474 C73.6440313,58.9672622 72.9669965,61.1887352 71.6146101,63.1186173 C70.2786115,65.0251137 68.4896328,66.611932 66.163883,67.918418 C65.8718429,68.0158312 65.6019182,67.9154781 65.2735777,67.6897972 C65.0275265,67.5206768 64.8247733,67.3375017 64.6695865,67.1407807 C64.5141935,66.9464067 64.3807008,66.7069637 64.266559,66.4263802 C64.0912264,65.9953775 64.0912264,65.6162912 64.4494495,65.3747158 C65.4966632,64.6659418 66.3943651,63.9443524 67.1458863,63.2084903 C67.8090696,62.5591639 68.1532031,61.518642 68.1532031,60.0658815 C68.1532031,59.8657858 68.1461737,59.7043186 68.133889,59.5846624 Z" id="Shape"></path>
                        <path d="M79.0526146,59.5848352 C78.8957056,59.6400868 78.7228895,59.6654383 78.5326094,59.6654383 C77.4903057,59.6654383 76.5667629,59.2942145 75.7817182,58.5627291 C74.9730732,57.8116774 74.5808438,56.6623881 74.5808438,55.1456769 C74.5808438,53.8593257 75.0246105,52.6839474 75.9024137,51.6330413 C76.801777,50.5563234 77.9731528,50.0103701 79.3825625,50.0103701 C80.9572516,50.0103701 82.2400349,50.6522002 83.1868053,51.9138837 C84.105467,53.1411015 84.5625,54.6650278 84.5625,56.4703474 C84.5625,58.9693888 83.8854387,61.1909489 82.5330789,63.1186173 C81.1970802,65.0251137 79.4081015,66.611932 77.0823518,67.918418 C76.7903117,68.0158312 76.5203869,67.9154781 76.1920465,67.6897972 C75.9497426,67.5232525 75.7486579,67.3410136 75.5880553,67.1407807 C75.4326623,66.9464067 75.2991696,66.7069637 75.1850277,66.4263802 C75.0096952,65.9953775 75.0096952,65.6162912 75.3679183,65.3747158 C76.415132,64.6659418 77.3128338,63.9443524 78.064355,63.2084903 C78.7275384,62.5591639 79.0716719,61.518642 79.0716719,60.0658815 C79.0716719,59.8651908 79.0646006,59.7033586 79.0526146,59.5848352 Z" id="Shape"></path>
                    </g>
                    <g id="Group-4" transform="translate(24.000000, 104.000000)" fill-rule="nonzero" fill="#9452BA">
                        <path d="M16.5213594,17.2376429 C17.7807031,17.2376429 18.8114531,16.7572679 19.6136094,15.7965179 C20.4178438,14.8357679 20.8189219,13.7710406 20.8189219,12.6064951 C20.8189219,11.2194383 20.471875,10.2046201 19.7798594,9.55788149 C19.0878438,8.91114286 18.2836094,8.58881331 17.3713125,8.58881331 C17.213375,8.58881331 17.0782969,8.61168831 16.9702344,8.65951786 C16.8600937,8.7073474 16.7582656,8.7302224 16.6626719,8.7302224 C16.5359062,8.7302224 16.4507031,8.65119968 16.4029062,8.49315422 C16.3551094,8.33718831 16.33225,8.0668474 16.33225,7.69044968 C16.33225,6.43024513 16.7582656,5.30313149 17.6082188,4.31118831 C18.4581719,3.31924513 19.3392969,2.53941558 20.2536719,1.97169968 C20.3471875,1.94050649 20.338875,1.79077922 20.2308125,1.52251786 C20.1206719,1.25425649 20.0188438,1.05877922 19.92325,0.931926948 C19.8297344,0.805074675 19.6717969,0.657426948 19.4515156,0.48274513 C19.2312344,0.310142857 19.0732969,0.256074675 18.9797813,0.316381494 C16.7437187,1.60777922 14.9960156,3.15912013 13.7366719,4.97248377 C12.4773281,6.78376786 11.8476562,8.88618831 11.8476562,11.2818247 C11.8476562,12.9828929 12.2736719,14.4011429 13.123625,15.5344951 C13.9715,16.6699269 15.1061563,17.2376429 16.5213594,17.2376429 Z" id="Shape"></path>
                        <path d="M5.61328125,17.2376429 C6.872625,17.2376429 7.903375,16.7572679 8.70553125,15.7965179 C9.50976563,14.8357679 9.91084375,13.7710406 9.91084375,12.6064951 C9.91084375,11.2194383 9.56379687,10.2046201 8.87178125,9.55788149 C8.17976563,8.91114286 7.37760937,8.58881331 6.46323437,8.58881331 C6.30529687,8.58881331 6.17229687,8.61168831 6.06215625,8.65951786 C5.95201562,8.7073474 5.8501875,8.7302224 5.75459375,8.7302224 C5.62782812,8.7302224 5.542625,8.65119968 5.49482812,8.49315422 C5.44703125,8.33718831 5.42417187,8.0668474 5.42417187,7.69044968 C5.42417187,6.43024513 5.8501875,5.30313149 6.70014062,4.31118831 C7.55009375,3.31924513 8.43121875,2.53941558 9.34559375,1.97169968 C9.43910938,1.94050649 9.43079688,1.79077922 9.32273438,1.52251786 C9.21467188,1.25425649 9.11076563,1.05877922 9.01517188,0.931926948 C8.91957813,0.805074675 8.76371875,0.657426948 8.5434375,0.48274513 C8.32315625,0.310142857 8.16521875,0.256074675 8.07170313,0.316381494 C5.83564062,1.60777922 4.0879375,3.15912013 2.82859375,4.97248377 C1.56717188,6.7858474 0.9375,8.88826786 0.9375,11.2818247 C0.9375,12.9828929 1.36351563,14.4011429 2.21139062,15.5344951 C3.06134375,16.6699269 4.196,17.2376429 5.61328125,17.2376429 Z" id="Shape"></path>
                        <path d="M68.4620156,50.5103701 C67.2026719,50.5103701 66.1698438,50.9907451 65.3656094,51.9535747 C64.561375,52.9164042 64.1602969,53.9790519 64.1602969,55.1456769 C64.1602969,56.5348133 64.5073438,57.551711 65.2014375,58.1963701 C65.8955313,58.8431088 66.6976875,59.1654383 67.6120625,59.1654383 C67.77,59.1654383 67.903,59.1425633 68.0152188,59.0947338 C68.1253594,59.0469042 68.2271875,59.0240292 68.3227813,59.0240292 C68.4495469,59.0240292 68.5368281,59.1030519 68.5825469,59.2610974 C68.6303438,59.4191429 68.6532031,59.6874042 68.6532031,60.0658815 C68.6532031,61.6421769 68.2666719,62.8108815 67.4956875,63.5657565 C66.722625,64.322711 65.8020156,65.0630292 64.7297031,65.7887906 C64.6341094,65.8532565 64.6341094,66.0029838 64.7297031,66.2379724 C64.8252969,66.472961 64.9354375,66.6725974 65.060125,66.8285633 C65.1848125,66.9866088 65.3510625,67.136336 65.5567969,67.2777451 C65.7625313,67.4191542 65.9121563,67.4753019 66.0056719,67.4441088 C68.1793906,66.2130179 69.9125469,64.6762338 71.2051406,62.8316769 C72.4977344,60.9871201 73.1440313,58.8659838 73.1440313,56.4703474 C73.1440313,54.7671997 72.7180156,53.3489497 71.8680625,52.2135179 C71.0139531,51.078086 69.881375,50.5103701 68.4620156,50.5103701 Z" id="Shape"></path>
                        <path d="M79.3825625,50.5103701 C78.1211406,50.5103701 77.0903906,50.9907451 76.2861563,51.9535747 C75.4819219,52.9164042 75.0808438,53.9790519 75.0808438,55.1456769 C75.0808438,56.5348133 75.4278906,57.551711 76.1219844,58.1963701 C76.8160781,58.8431088 77.6182344,59.1654383 78.5326094,59.1654383 C78.6905469,59.1654383 78.8235469,59.1425633 78.9336875,59.0947338 C79.0438281,59.0469042 79.1477344,59.0240292 79.24125,59.0240292 C79.3659375,59.0240292 79.4532188,59.1030519 79.5010156,59.2610974 C79.5488125,59.4191429 79.5716719,59.6874042 79.5716719,60.0658815 C79.5716719,61.6421769 79.1851406,62.8108815 78.4141563,63.5657565 C77.6410938,64.322711 76.7204844,65.0630292 75.6481719,65.7887906 C75.5525781,65.8532565 75.5525781,66.0029838 75.6481719,66.2379724 C75.7437656,66.472961 75.8539063,66.6725974 75.9785938,66.8285633 C76.1053594,66.9866088 76.2695313,67.136336 76.4752656,67.2777451 C76.681,67.4191542 76.830625,67.4753019 76.9241406,67.4441088 C79.0978594,66.2130179 80.8310156,64.6762338 82.1236094,62.8316769 C83.4162031,60.9891997 84.0625,58.8680633 84.0625,56.4703474 C84.0625,54.7671997 83.6364844,53.3489497 82.7865313,52.2135179 C81.9345,51.078086 80.7998438,50.5103701 79.3825625,50.5103701 Z" id="Shape"></path>
                    </g>
                    <path d="M77.9642381,54.8638808 C77.9944833,54.8069978 78.0538079,54.7412551 78.1131325,54.6755124 C78.1825389,54.5908087 78.2709429,54.5162062 78.3213515,54.4214013 C79.1352299,53.3948558 79.4431663,51.8074376 79.3444017,49.9308081 C79.3199855,49.747575 79.3044853,49.5934041 79.2990668,49.4202723 C79.2769822,49.1409928 79.2459818,48.8326511 79.1959836,48.5142081 C79.1870677,48.4851459 79.1781518,48.4560837 79.1793176,48.4080605 C79.1715675,48.330975 79.1448197,48.2437884 79.1370696,48.166703 C79.1293195,48.0896175 79.1126534,47.9834699 79.1049033,47.9063844 C79.0971532,47.829299 79.0704054,47.7421124 79.0626553,47.6650269 C79.0359075,47.5778403 79.0382391,47.4817938 79.0114914,47.3946072 C78.9936595,47.3364827 78.9859094,47.2593973 78.9680775,47.2012729 C78.5064363,44.8155184 77.6167648,42.2264977 76.5212059,39.7955417 C75.4420497,42.2376151 74.1438375,44.5875358 72.8708625,46.2941939 C71.3291782,48.368729 69.026011,50.5004858 66.5790232,52.2152702 C64.0996561,50.5078227 61.8130078,48.3920932 60.2374336,46.313947 C58.9421611,44.5794122 57.6317988,42.2774587 56.527324,39.8174404 C56.4455043,40.0171515 56.3536029,40.2358236 56.2717832,40.4355347 C56.241538,40.4924177 56.2302905,40.5594019 56.2000453,40.6162848 C56.1484708,40.759113 56.0678169,40.9108008 56.0162424,41.053629 C55.9859972,41.1105119 55.9646679,41.1964571 55.9344227,41.2533401 C55.8828482,41.3961682 55.821192,41.5579573 55.7696175,41.7007855 C55.7393723,41.7576684 55.7281248,41.8246526 55.6978796,41.8815356 C55.6261416,42.0622857 55.5443219,42.2619968 55.4915816,42.4528481 C55.3884327,42.7385044 55.306613,42.9382155 55.2337092,43.1669888 C55.1507237,43.4147231 55.0789858,43.5954732 55.0262455,43.7863246 C55.006082,43.8242465 55.0049162,43.8722697 54.9847527,43.9101917 C54.9320124,44.1010431 54.8703562,44.2628322 54.8176159,44.4536835 C54.7974524,44.4916055 54.8063684,44.5206677 54.7862049,44.5585897 C54.7233829,44.768402 54.6605608,44.9782143 54.6078206,45.1690657 C54.4282704,45.8275649 54.2777996,46.4772044 54.1564083,47.1179841 C53.9473682,48.1985909 53.8166503,49.2235563 53.8034159,50.1650594 C53.7999184,50.3091291 53.8065028,50.4342377 53.8030053,50.5783073 C53.7995079,50.7223769 53.7870945,50.8373843 53.7936788,50.962493 C53.7901814,51.1065626 53.7967657,51.2316712 53.80335,51.3567799 C53.8176845,51.5589739 53.8331847,51.7131448 53.8486849,51.8673156 C53.856435,51.9444011 53.8463533,51.9633621 53.865351,51.9734633 C53.8998489,52.1377354 53.924265,52.3209685 53.9587629,52.4852406 C53.9944266,52.6014894 54.0110927,52.7076371 54.0467564,52.823886 C54.0645882,52.8820104 54.0735041,52.9110726 54.091336,52.9691971 C54.1091678,53.0273215 54.1459974,53.0955472 54.1537475,53.1726326 C54.1715793,53.2307571 54.1804953,53.2598193 54.1983271,53.3179437 C54.216159,53.3760682 54.2339908,53.4341926 54.2708203,53.5024183 C54.2987339,53.5415818 54.3165658,53.5997062 54.3254817,53.6287684 C54.3433135,53.6868929 54.3801431,53.7551185 54.4080566,53.794282 C54.4359702,53.8334455 54.4638838,53.8726089 54.462718,53.9206321 C54.4805499,53.9787566 54.5274611,54.0280213 54.5642906,54.0962469 C54.5922042,54.1354104 54.6201178,54.1745738 54.6290337,54.2036361 C54.675945,54.2529008 54.7127745,54.3211264 54.7596857,54.3703911 C54.7686016,54.3994534 54.806597,54.4196558 54.8155129,54.448718 C54.8713401,54.527045 54.9461649,54.6154731 55.0120738,54.674839 C55.0589851,54.7241037 55.1058963,54.7733684 55.1338099,54.8125319 C58.6199872,58.2470653 63.6843338,58.8968165 66.6352922,65.3544984 C69.5354002,58.8460839 74.4846607,58.2915307 77.9642381,54.8638808 Z" id="Shape" fill="#9452BA" transform="translate(66.577000, 52.575020) rotate(-27.000000) translate(-66.577000, -52.575020) "></path>
                </g>
                <path d="M191,112 L191,110 C191,109.447715 190.552285,109 190,109 C189.447715,109 189,109.447715 189,110 L189,112 L187,112 C186.447715,112 186,112.447715 186,113 C186,113.552285 186.447715,114 187,114 L189,114 L189,116 C189,116.552285 189.447715,117 190,117 C190.552285,117 191,116.552285 191,116 L191,114 L193,114 C193.552285,114 194,113.552285 194,113 C194,112.447715 193.552285,112 193,112 L191,112 Z" id="Combined-Shape" fill="#4A6286" fill-rule="nonzero"></path>
                <path d="M175,28 L175,26 C175,25.4477153 174.552285,25 174,25 C173.447715,25 173,25.4477153 173,26 L173,28 L171,28 C170.447715,28 170,28.4477153 170,29 C170,29.5522847 170.447715,30 171,30 L173,30 L173,32 C173,32.5522847 173.447715,33 174,33 C174.552285,33 175,32.5522847 175,32 L175,30 L177,30 C177.552285,30 178,29.5522847 178,29 C178,28.4477153 177.552285,28 177,28 L175,28 Z" id="Combined-Shape-Copy-4" fill="#4A6286" fill-rule="nonzero"></path>
                <path d="M5,108 L5,106 C5,105.447715 4.55228475,105 4,105 C3.44771525,105 3,105.447715 3,106 L3,108 L1,108 C0.44771525,108 0,108.447715 0,109 C0,109.552285 0.44771525,110 1,110 L3,110 L3,112 C3,112.552285 3.44771525,113 4,113 C4.55228475,113 5,112.552285 5,112 L5,110 L7,110 C7.55228475,110 8,109.552285 8,109 C8,108.447715 7.55228475,108 7,108 L5,108 Z" id="Combined-Shape-Copy-2" fill="#4A6286" fill-rule="nonzero"></path>
                <path d="M6.5,46.5 L6.5,45.5 C6.5,45.2238576 6.27614237,45 6,45 C5.72385763,45 5.5,45.2238576 5.5,45.5 L5.5,46.5 L4.5,46.5 C4.22385763,46.5 4,46.7238576 4,47 C4,47.2761424 4.22385763,47.5 4.5,47.5 L5.5,47.5 L5.5,48.5 C5.5,48.7761424 5.72385763,49 6,49 C6.27614237,49 6.5,48.7761424 6.5,48.5 L6.5,47.5 L7.5,47.5 C7.77614237,47.5 8,47.2761424 8,47 C8,46.7238576 7.77614237,46.5 7.5,46.5 L6.5,46.5 Z" id="Combined-Shape-Copy" fill="#4A6286" fill-rule="nonzero"></path>
                <path d="M27.5,141.5 L27.5,140.5 C27.5,140.223858 27.2761424,140 27,140 C26.7238576,140 26.5,140.223858 26.5,140.5 L26.5,141.5 L25.5,141.5 C25.2238576,141.5 25,141.723858 25,142 C25,142.276142 25.2238576,142.5 25.5,142.5 L26.5,142.5 L26.5,143.5 C26.5,143.776142 26.7238576,144 27,144 C27.2761424,144 27.5,143.776142 27.5,143.5 L27.5,142.5 L28.5,142.5 C28.7761424,142.5 29,142.276142 29,142 C29,141.723858 28.7761424,141.5 28.5,141.5 L27.5,141.5 Z" id="Combined-Shape-Copy-5" fill="#4A6286" fill-rule="nonzero"></path>
                <path d="M180.5,126.5 L180.5,125.5 C180.5,125.223858 180.276142,125 180,125 C179.723858,125 179.5,125.223858 179.5,125.5 L179.5,126.5 L178.5,126.5 C178.223858,126.5 178,126.723858 178,127 C178,127.276142 178.223858,127.5 178.5,127.5 L179.5,127.5 L179.5,128.5 C179.5,128.776142 179.723858,129 180,129 C180.276142,129 180.5,128.776142 180.5,128.5 L180.5,127.5 L181.5,127.5 C181.776142,127.5 182,127.276142 182,127 C182,126.723858 181.776142,126.5 181.5,126.5 L180.5,126.5 Z" id="Combined-Shape-Copy-3" fill="#4A6286" fill-rule="nonzero"></path>
            </g>
        </g>
    </g>
</svg>