<?xml version="1.0" encoding="UTF-8"?>
<svg width="120px" height="120px" viewBox="0 0 256 256" version="1.1" xmlns="http://www.w3.org/2000/svg" xmlns:xlink="http://www.w3.org/1999/xlink">
    <!-- Generator: Sketch 44.1 (41455) - http://www.bohemiancoding.com/sketch -->
    <title>illustration-export-csv</title>
    <desc>Created with Sketch.</desc>
    <defs></defs>
    <g id="128x128" stroke="none" stroke-width="1" fill="none" fill-rule="evenodd">
        <g id="illustration-export-csv">
            <g id="Group-2" transform="translate(11.000000, 33.000000)">
                <g id="Group">
                    <path d="M206.352727,142.907565 C212.538328,129.905388 216,115.356952 216,100 C216,44.771525 171.228475,0 116,0 C60.771525,0 16,44.771525 16,100 C16,115.997122 19.7562934,131.116915 26.4349781,144.525476 C28.517272,133.964719 37.8285061,126 49,126 C53.2605674,126 57.2505609,127.158465 60.6721726,129.177586 C67.6822466,118.813149 79.5454752,112 93,112 C113.013891,112 129.506689,127.075587 131.742092,146.490456 C132.771587,146.171674 133.865745,146 135,146 C141.075132,146 146,150.924868 146,157 C146,158.040024 145.855666,159.046336 145.585935,160 L160.044843,160 C160.550072,154.3935 165.261957,150 171,150 C173.030337,150 174.932198,150.550072 176.564684,151.509316 C178.559634,143.741067 185.609368,138 194,138 C198.782416,138 203.129218,139.865082 206.352727,142.907566 Z" id="Combined-Shape" fill="#FFFFFF"></path>
                    <path d="M206.352727,142.907565 C212.538328,129.905388 216,115.356952 216,100 C216,44.771525 171.228475,0 116,0 C60.771525,0 16,44.771525 16,100 C16,115.997122 19.7562934,131.116915 26.4349781,144.525476 C28.517272,133.964719 37.8285061,126 49,126 C53.2605674,126 57.2505609,127.158465 60.6721726,129.177586 C67.6822466,118.813149 79.5454752,112 93,112 C113.013891,112 129.506689,127.075587 131.742092,146.490456 C132.771587,146.171674 133.865745,146 135,146 C141.075132,146 146,150.924868 146,157 C146,158.040024 145.855666,159.046336 145.585935,160 L160.044843,160 C160.550072,154.3935 165.261957,150 171,150 C173.030337,150 174.932198,150.550072 176.564684,151.509316 C178.559634,143.741067 185.609368,138 194,138 C198.782416,138 203.129218,139.865082 206.352727,142.907566 Z" id="Combined-Shape" fill="#EFEFF6"></path>
                    <g transform="translate(74.000000, 30.000000)">
                        <path d="M53.0668224,102 L84,102 L84,0 L18.9657769,0 L-5.25968158e-14,18.9657769 L-4.97379915e-14,86.9331776 C5.62197161,83.7909267 12.1018391,82 19,82 C33.6409444,82 46.3975781,90.0676929 53.0668224,102 Z" id="Combined-Shape" stroke="#4A6286" stroke-width="2" fill="#FFFFFF"></path>
                        <path d="M33.274,58.448 C33.4020006,58.448 33.5139995,58.4999995 33.61,58.604 L34.534,59.6 C33.8299965,60.4160041 32.976005,61.0519977 31.972,61.508 C30.967995,61.9640023 29.7540071,62.192 28.33,62.192 C27.0979938,62.192 25.978005,61.9780021 24.97,61.55 C23.961995,61.1219979 23.1020036,60.5220039 22.39,59.75 C21.6779964,58.9779961 21.126002,58.0520054 20.734,56.972 C20.341998,55.8919946 20.146,54.7040065 20.146,53.408 C20.146,52.1119935 20.349998,50.9240054 20.758,49.844 C21.166002,48.7639946 21.7399963,47.8360039 22.48,47.06 C23.2200037,46.2839961 24.1059948,45.6820021 25.138,45.254 C26.1700052,44.8259979 27.3099938,44.612 28.558,44.612 C29.7820061,44.612 30.8619953,44.807998 31.798,45.2 C32.7340047,45.592002 33.5579964,46.1239966 34.27,46.796 L33.502,47.864 C33.4539998,47.9440004 33.3920004,48.0099997 33.316,48.062 C33.2399996,48.1140003 33.1380006,48.14 33.01,48.14 C32.8659993,48.14 32.690001,48.0620008 32.482,47.906 C32.273999,47.7499992 32.0020017,47.576001 31.666,47.384 C31.3299983,47.191999 30.9100025,47.0180008 30.406,46.862 C29.9019975,46.7059992 29.2820037,46.628 28.546,46.628 C27.6579956,46.628 26.8460037,46.7819985 26.11,47.09 C25.3739963,47.3980015 24.7400027,47.8439971 24.208,48.428 C23.6759973,49.0120029 23.2620015,49.7239958 22.966,50.564 C22.6699985,51.4040042 22.522,52.3519947 22.522,53.408 C22.522,54.4800054 22.6759985,55.4359958 22.984,56.276 C23.2920015,57.1160042 23.7119973,57.8259971 24.244,58.406 C24.7760027,58.9860029 25.4039964,59.4279985 26.128,59.732 C26.8520036,60.0360015 27.6339958,60.188 28.474,60.188 C28.9860026,60.188 29.4479979,60.1580003 29.86,60.098 C30.2720021,60.0379997 30.6519983,59.9440006 31,59.816 C31.3480017,59.6879994 31.6719985,59.526001 31.972,59.33 C32.2720015,59.133999 32.5699985,58.9000014 32.866,58.628 C33.0020007,58.5079994 33.1379993,58.448 33.274,58.448 Z M46.03,47.492 C45.9579996,47.6120006 45.8800004,47.7019997 45.796,47.762 C45.7119996,47.8220003 45.6100006,47.852 45.49,47.852 C45.3539993,47.852 45.1940009,47.7840007 45.01,47.648 C44.8259991,47.5119993 44.5960014,47.3620008 44.32,47.198 C44.0439986,47.0339992 43.7120019,46.8840007 43.324,46.748 C42.9359981,46.6119993 42.4660028,46.544 41.914,46.544 C41.3939974,46.544 40.936002,46.6139993 40.54,46.754 C40.143998,46.8940007 39.8120013,47.0839988 39.544,47.324 C39.2759987,47.5640012 39.0740007,47.8459984 38.938,48.17 C38.8019993,48.4940016 38.734,48.8439981 38.734,49.22 C38.734,49.7000024 38.8519988,50.0979984 39.088,50.414 C39.3240012,50.7300016 39.6359981,50.9999989 40.024,51.224 C40.4120019,51.4480011 40.8519975,51.6419992 41.344,51.806 C41.8360025,51.9700008 42.3399974,52.1399991 42.856,52.316 C43.3720026,52.4920009 43.8759975,52.6899989 44.368,52.91 C44.8600025,53.1300011 45.2999981,53.4079983 45.688,53.744 C46.0760019,54.0800017 46.3879988,54.4919976 46.624,54.98 C46.8600012,55.4680024 46.978,56.0679964 46.978,56.78 C46.978,57.5320038 46.8500013,58.2379967 46.594,58.898 C46.3379987,59.5580033 45.9640025,60.1319976 45.472,60.62 C44.9799975,61.1080024 44.3760036,61.4919986 43.66,61.772 C42.9439964,62.0520014 42.1300046,62.192 41.218,62.192 C40.0979944,62.192 39.0820046,61.990002 38.17,61.586 C37.2579954,61.181998 36.4780032,60.6360034 35.83,59.948 L36.502,58.844 C36.5660003,58.7559996 36.6439995,58.6820003 36.736,58.622 C36.8280005,58.5619997 36.9299994,58.532 37.042,58.532 C37.1460005,58.532 37.2639993,58.5739996 37.396,58.658 C37.5280007,58.7420004 37.6779992,58.8479994 37.846,58.976 C38.0140008,59.1040006 38.2059989,59.2439992 38.422,59.396 C38.6380011,59.5480008 38.8839986,59.6879994 39.16,59.816 C39.4360014,59.9440006 39.7499982,60.0499996 40.102,60.134 C40.4540018,60.2180004 40.8499978,60.26 41.29,60.26 C41.8420028,60.26 42.3339978,60.1840008 42.766,60.032 C43.1980022,59.8799992 43.5639985,59.6660014 43.864,59.39 C44.1640015,59.1139986 44.3939992,58.7840019 44.554,58.4 C44.7140008,58.0159981 44.794,57.5880024 44.794,57.116 C44.794,56.5959974 44.6760012,56.1700017 44.44,55.838 C44.2039988,55.5059983 43.8940019,55.2280011 43.51,55.004 C43.1259981,54.7799989 42.6860025,54.5900008 42.19,54.434 C41.6939975,54.2779992 41.1900026,54.1180008 40.678,53.954 C40.1659974,53.7899992 39.6620025,53.6000011 39.166,53.384 C38.6699975,53.1679989 38.2300019,52.8880017 37.846,52.544 C37.4619981,52.1999983 37.1520012,51.7700026 36.916,51.254 C36.6799988,50.7379974 36.562,50.1000038 36.562,49.34 C36.562,48.731997 36.6799988,48.1440028 36.916,47.576 C37.1520012,47.0079972 37.4959977,46.5040022 37.948,46.064 C38.4000023,45.6239978 38.9559967,45.2720013 39.616,45.008 C40.2760033,44.7439987 41.0339957,44.612 41.89,44.612 C42.8500048,44.612 43.7239961,44.7639985 44.512,45.068 C45.3000039,45.3720015 45.993997,45.8119971 46.594,46.388 L46.03,47.492 Z M63.922,44.804 L56.914,62 L54.826,62 L47.818,44.804 L49.678,44.804 C49.886001,44.804 50.0539994,44.8559995 50.182,44.96 C50.3100006,45.0640005 50.4059997,45.1959992 50.47,45.356 L55.318,57.488 C55.4220005,57.7600014 55.5239995,58.0559984 55.624,58.376 C55.7240005,58.6960016 55.8139996,59.0319982 55.894,59.384 C55.9740004,59.0319982 56.0579996,58.6960016 56.146,58.376 C56.2340004,58.0559984 56.3299995,57.7600014 56.434,57.488 L61.27,45.356 C61.3180002,45.2199993 61.4119993,45.0940006 61.552,44.978 C61.6920007,44.8619994 61.861999,44.804 62.062,44.804 L63.922,44.804 Z" id="CSV" fill="#9452BA"></path>
                        <rect id="Rectangle-4" fill="#4A6286" x="20.2222222" y="73.8181818" width="43.5555556" height="1.54545455"></rect>
                        <path d="M43.0018862,18.4615903 L43.0018862,29.2445876 C43.0018862,30.1759218 42.2561724,30.9309174 41.3218391,30.9309174 C40.3939747,30.9309174 39.641792,30.1835283 39.641792,29.2445876 L39.641792,18.1668321 L37.6106199,20.198501 C36.9517224,20.8575597 35.8902811,20.8644041 35.2296077,20.2035691 C34.5735086,19.5473094 34.5773813,18.4794286 35.2346746,17.8219745 L39.9764317,13.0790575 C40.4324954,12.6228822 41.0814129,12.479175 41.6568011,12.6530641 C41.9189069,12.7303771 42.1659961,12.8724427 42.3725604,13.0790575 L47.1143175,17.8219745 C47.773215,18.4810332 47.7800577,19.5427341 47.1193843,20.2035691 C46.4632851,20.8598288 45.3956654,20.8559551 44.7383721,20.198501 L43.0018862,18.4615903 Z M31.8015723,34.8519862 C31.8015723,33.9238948 32.5479838,33.1715281 33.4912926,33.1715281 L49.1523855,33.1715281 C50.0855923,33.1715281 50.8421059,33.9174243 50.8421059,34.8519862 C50.8421059,35.7800775 50.0956944,36.5324442 49.1523855,36.5324442 L33.4912926,36.5324442 C32.5580859,36.5324442 31.8015723,35.786548 31.8015723,34.8519862 Z" id="Combined-Shape" fill="#9452BA"></path>
                        <rect id="Rectangle-4-Copy" fill="#4A6286" x="28" y="82.1818182" width="28" height="1.54545455"></rect>
                        <path d="M18.3564891,2.40260024 L2.65217851,18 L18.3564891,18 L18.3564891,2.40260024 Z" id="Rectangle-3" stroke="#4A6286" stroke-width="2"></path>
                    </g>
                    <path d="M12,160 L30,160 L30,162 L12,162 L12,160 Z M145.00214,160 L160,160 L160,162 L145.00214,162 L145.00214,160 Z M226,160 L234,160 L234,162 L226,162 L226,160 Z M210.505159,160 L222,160 L222,162 L210.142733,162 L210.505159,160 Z M0,160 L8,160 L8,162 L0,162 L0,160 Z" id="Combined-Shape" fill="#4A6286"></path>
                    <path d="M36,174 L194,174 L194,176 L36,176 L36,174 Z M198,174 L206,174 L206,176 L198,176 L198,174 Z M26,174 L32,174 L32,176 L26,176 L26,174 Z" id="Combined-Shape" fill="#4A6286"></path>
                    <path d="M72,188 L150,188 L150,190 L72,190 L72,188 Z M154,188 L162,188 L162,190 L154,190 L154,188 Z" id="Combined-Shape-Copy" fill="#4A6286"></path>
                    <path d="M176.564684,151.509316 C174.932198,150.550072 173.030337,150 171,150 C164.924868,150 160,154.924868 160,161 M211.428924,160.515502 C211.801694,159.072547 212,157.559432 212,156 C212,146.058875 203.941125,138 194,138 C185.609368,138 178.559634,143.741067 176.564684,151.509316 M29.3703049,160.992766 C27.2323511,157.500841 26,153.394336 26,149 C26,136.297451 36.2974508,126 49,126 C53.2605683,126 57.2505625,127.158465 60.6721746,129.177588 C67.6822466,118.813149 79.5454752,112 93,112 C113.013891,112 129.506689,127.075587 131.742092,146.490456 C132.771587,146.171674 133.865745,146 135,146 C141.075132,146 146,150.924868 146,157 C146,158.345274 145.691932,159.80852 145.249932,161" id="Combined-Shape" stroke="#4A6286" stroke-width="2" stroke-linecap="round"></path>
                </g>
            </g>
        </g>
    </g>
</svg>
