<svg xmlns="http://www.w3.org/2000/svg" width="80" height="80">
    <defs>
        <linearGradient id="a" x1="3.6459%" x2="100.4218%" y1="60.2126%" y2="61.6252%">
            <stop stop-color="#5F2385" offset="4.2945%"/>
            <stop stop-color="#9452BA" offset="96.93%"/>
        </linearGradient>
        <linearGradient id="b" x1="47.7382%" x2="22.4503%" y1="158.605%" y2="-9.0203%">
            <stop stop-color="#5F2385" offset="4.2945%"/>
            <stop stop-color="#FFF" offset="100%"/>
        </linearGradient>
        <linearGradient id="c" x1="51.1212%" x2="54.2008%" y1="155.1533%" y2="-18.0299%">
            <stop stop-color="#5F2385" offset="4.2945%"/>
            <stop stop-color="#FFF" offset="100%"/>
        </linearGradient>
        <linearGradient id="d" x1="45.9372%" x2="39.7214%" y1="5.062%" y2="108.6084%">
            <stop stop-color="#4F1374" offset="23.31%"/>
            <stop stop-color="#5F2385" offset="84.05%"/>
        </linearGradient>
        <linearGradient id="e" x1="8.1875%" x2="72.7684%" y1="-5.5544%" y2="98.722%">
            <stop stop-color="#4F1374" offset="23.31%"/>
            <stop stop-color="#5F2385" offset="84.05%"/>
        </linearGradient>
    </defs>
    <g fill="none" fill-rule="evenodd">
        <path fill="url(#a)" d="M35.6793 24.408c.0376-.0706.1112-.1522.1848-.2338.087-.105.196-.1977.259-.3153 1.01-1.274 1.392-3.244 1.27-5.573-.03-.228-.049-.419-.056-.634-.027-.347-.066-.73-.128-1.125-.011-.036-.022-.072-.02-.132-.009-.096-.042-.204-.052-.3-.009-.096-.03-.228-.04-.323-.009-.096-.042-.204-.052-.3-.033-.109-.03-.228-.063-.336-.022-.073-.032-.168-.054-.24-.573-2.961-1.677-6.173-3.036-9.19-1.339 3.03-2.95 5.946-4.529 8.064-1.913 2.574-4.771 5.219-7.807 7.347-3.0764-2.119-5.914-4.744-7.869-7.323-1.607-2.152-3.233-5.009-4.604-8.061-.101.248-.215.519-.317.767-.0372.07-.051.153-.089.224-.064.177-.164.365-.228.543-.0373.07-.064.177-.1013.248-.064.177-.1406.378-.2046.555-.037.07-.051.153-.089.224-.089.224-.19.472-.256.709-.128.354-.229.602-.32.886-.1025.307-.192.532-.257.768-.025.047-.0265.1062-.0515.1533-.0653.237-.142.4377-.2073.6745-.025.047-.014.083-.039.13-.078.26-.156.5207-.221.7575-.223.817-.41 1.623-.5605 2.418-.2595 1.341-.4217 2.613-.438 3.781-.0045.179.004.334-.0006.513s-.02.322-.012.477c-.004.179.004.334.012.49.018.251.037.442.0565.6332.009.096-.003.1195.02.132.043.204.0737.4314.116.635.0448.1445.065.276.1097.4204l.055.18c.022.072.0674.1567.077.2524l.055.1804c.022.072.0444.1442.09.229.0347.0484.057.1205.068.1566.022.072.068.1567.1025.205.0343.049.069.097.068.157.022.072.08.133.126.218.0343.0486.069.097.08.133.058.061.104.146.162.207.011.036.058.061.0693.097.069.0977.162.207.244.281.058.061.116.122.151.171 4.326 4.262 10.61 5.068 14.272 13.0815 3.599-8.076 9.74-8.764 14.058-13.0174z" transform="rotate(-27 72.702 -8.003)"/>
        <path fill="url(#b)" d="M25.833 10.8494c-1.9132 2.5743-4.7712 5.2196-7.8076 7.3475 5.4364 3.765 11.5224 5.854 14.278 3.004 3.0124-3.107 1.242-11.322-1.9408-18.416-1.3516 3.054-2.9376 5.923-4.5297 8.064z" opacity=".51" transform="rotate(-27 77.093 -16.914)"/>
        <path fill="url(#c)" d="M11.8975 18.0798c-1.6073-2.1523-3.2333-5.0088-4.604-8.0614C4.1717 17.141 2.468 25.3496 5.4965 28.469c2.7846 2.8385 8.8415.717 14.2702-3.0663-3.0766-2.1188-5.9377-4.7567-7.8692-7.323z" opacity=".51" transform="rotate(-27 62.992 -9.672)"/>
        <path fill="url(#d)" d="M9.979 9.3885c-1.9204 4.351-3.278 9.122-3.3815 12.9.0082.155.0038.334-.0116.4766.019.192.027.347.012.49.006.215.027.347.012.489.019.192.027.347.048.479.009.096.031.168.041.264-.003.119.019.192.03.228.02.132.065.276.085.408.236 1.092.679 2.021 1.343 2.706.058.062.116.123.151.171 4.326 4.262 10.527 4.995 14.189 13.008-.098-.897-1.553-8.793-6.736-14.628C8.905 18.688 9.978 9.39 9.978 9.39z" transform="rotate(-27 65.695 -4.374)"/>
        <path fill="url(#e)" d="M34.996 20.5432c3.0124-3.1064 1.242-11.3213-1.9408-18.416 0 0 1.1118 9.2832-5.6777 16.991-5.2546 5.9583-6.5252 14.035-6.6118 14.653 3.5987-8.0763 9.7402-8.7645 14.058-13.0178.025-.047.0987-.1287.1723-.2102z" transform="rotate(-27 79.81 -11.62)"/>
        <path d="M30.0655 38.2513c-2.4093-1.188-5.155-2.995-7.762-5.0927.452 7.7636 2.6608 15.851 6.7753 17.2554 3.7698 1.265 8.2034-3.375 11.3227-9.2105-3.7032-.491-7.45-1.5426-10.336-2.9522"/>
    </g>
</svg>
