<svg id="Calque_1" data-name="Calque 1" xmlns="http://www.w3.org/2000/svg" viewBox="0 0 2459.45 437.64"><defs><style>.cls-1{fill:#9452ba;}</style></defs><path class="cls-1" d="M467.74,552.15c-.95-7.95-.58-23.44,1.75-45.45,1.43-13.5,5.53-26.59,10.34-39.29,8.42-22.25,20.8-42.54,32.89-62.93,11.77-19.86,25.11-41.47,29-64.57,5.17-30.38-14.9-61.49-32.28-84.65-23.84-31.76-53.43-59.32-84.49-83.9,1.85,29.26,2.08,60-1.21,89.73-3.11,28.07-10.45,55.39-20.41,81.78a439.13,439.13,0,0,1-18.77,42.69c-2.22,4.39-2.42,4.5-7.3,3.85q-5.62-.75-11.24-1.66-11.85-1.89-23.58-4.44c-27.73-6-55.14-14.54-80.64-27.08-30-14.78-58-33.84-84.22-54.6a505,505,0,0,0,13.52,89.2c6.67,26.75,15.62,54.11,31.54,76.9,8,11.39,18.15,21.66,31.27,26.85,11.72,4.63,24.5,6.85,36.94,8.5,26.45,3.52,53.26,3.38,79.66,7.41a207.93,207.93,0,0,1,97.19,41.64" transform="translate(-177.62 -171.36)"/><path d="M746,370.87q0-24.31-12.36-33.79t-35.85-9.47a153,153,0,0,0-27,2.26,206.37,206.37,0,0,0-24.52,6q-7.83-13.61-7.82-32.55a189.64,189.64,0,0,1,30.9-7,225.83,225.83,0,0,1,32.54-2.47q41.21,0,62.63,18.75T786,372.51V504.77q-14.43,3.3-35,6.79a249.7,249.7,0,0,1-42,3.51,164.57,164.57,0,0,1-36.46-3.71q-16.29-3.71-27.61-11.95a55.27,55.27,0,0,1-17.51-21q-6.18-12.76-6.18-30.9,0-17.72,7.21-31.11a64.76,64.76,0,0,1,19.57-22.24A87.1,87.1,0,0,1,676.37,381a129.55,129.55,0,0,1,33.78-4.33q13.19,0,21.64.62T746,378.7Zm0,40c-4.12-.55-9.34-1.09-15.66-1.65s-11.68-.82-16.07-.82q-25.54,0-38.93,9.47T662,446.67Q662,459,666.48,466a31.22,31.22,0,0,0,11.33,10.71,39,39,0,0,0,15,4.53,154.47,154.47,0,0,0,15.66.83,192.15,192.15,0,0,0,19.57-1A119,119,0,0,0,746,478Z" transform="translate(-177.62 -171.36)"/><path d="M845.7,208.13a97.88,97.88,0,0,1,10.1-1.24q5.55-.4,10.09-.41t10.3.41a98.09,98.09,0,0,1,10.3,1.24v302a98.09,98.09,0,0,1-10.3,1.24q-5.78.4-10.3.41t-10.09-.41a97.88,97.88,0,0,1-10.1-1.24Zm41.77,193.08,77.3-102.44q5.36-.82,10.71-1.24t11.13-.41q6.18,0,11.74.41t11.33,1.24l-67.16,98.88,78.69,112.47q-5.78.83-11.12,1.24t-11.12.41q-5.78,0-11.54-.41t-11.54-1.24Z" transform="translate(-177.62 -171.36)"/><path d="M1081.37,414.54q.81,34.6,17.92,50.67t50.47,16.07a151.44,151.44,0,0,0,55.62-10.3,62.44,62.44,0,0,1,5.36,15,98.54,98.54,0,0,1,2.47,17.51,137.72,137.72,0,0,1-29.87,8.65,207.66,207.66,0,0,1-36,2.89q-28.85,0-49.44-8t-34-22.66a89.6,89.6,0,0,1-19.57-34.61,147.85,147.85,0,0,1-6.18-43.87,155.55,155.55,0,0,1,6-43.88,98.76,98.76,0,0,1,18.33-35.43,88.67,88.67,0,0,1,31.11-23.9q18.75-8.85,44.29-8.86,21.84,0,38.32,7.42a77.82,77.82,0,0,1,27.6,20.39,88.58,88.58,0,0,1,16.89,30.9,126.34,126.34,0,0,1,5.77,38.94q0,5.77-.41,12.15t-.82,10.92ZM1186,384.05a77.33,77.33,0,0,0-3.09-22,55.81,55.81,0,0,0-9.06-18.34,44.16,44.16,0,0,0-15.24-12.56q-9.27-4.73-22-4.74-25.14,0-38.53,15.25t-16.27,42.43Z" transform="translate(-177.62 -171.36)"/><path d="M1280,298.77q4.53-.82,8.86-1.24t8.86-.41a82.14,82.14,0,0,1,8.44.41c2.61.28,5.42.69,8.45,1.24q1.23,6.18,2.47,16.68a153.66,153.66,0,0,1,1.24,17.51,84.46,84.46,0,0,1,10.5-14,81,81,0,0,1,14.63-12.57,75.46,75.46,0,0,1,42.43-12.57q36.26,0,53.57,20.81t17.3,61.59v133.9a98.09,98.09,0,0,1-10.3,1.24q-5.78.4-10.3.41c-3,0-6.39-.14-10.1-.41a98,98,0,0,1-10.09-1.24V387.35q0-29.25-9.06-43.06T1378,330.49a58.34,58.34,0,0,0-21.84,4.12A48.69,48.69,0,0,0,1338,347.38q-7.83,8.65-12.56,22.46T1320.74,403V510.12a98.36,98.36,0,0,1-10.09,1.24q-5.57.4-10.1.41c-3,0-6.46-.14-10.3-.41a97.43,97.43,0,0,1-10.3-1.24Z" transform="translate(-177.62 -171.36)"/><path d="M1548.57,414.54q.83,34.6,17.92,50.67T1617,481.28a151.44,151.44,0,0,0,55.62-10.3,62,62,0,0,1,5.36,15,98.54,98.54,0,0,1,2.47,17.51,137.4,137.4,0,0,1-29.87,8.65,207.58,207.58,0,0,1-36,2.89q-28.85,0-49.44-8t-34-22.66a89.6,89.6,0,0,1-19.57-34.61,147.85,147.85,0,0,1-6.18-43.87,155.55,155.55,0,0,1,6-43.88,98.78,98.78,0,0,1,18.34-35.43,88.55,88.55,0,0,1,31.1-23.9q18.75-8.85,44.29-8.86,21.84,0,38.32,7.42a77.82,77.82,0,0,1,27.6,20.39,88.6,88.6,0,0,1,16.9,30.9,126.64,126.64,0,0,1,5.76,38.94q0,5.77-.41,12.15c-.27,4.26-.55,7.9-.82,10.92Zm104.65-30.49a77.69,77.69,0,0,0-3.09-22,56,56,0,0,0-9.07-18.34,44.16,44.16,0,0,0-15.24-12.56q-9.27-4.73-22-4.74-25.14,0-38.52,15.25T1549,384.05Z" transform="translate(-177.62 -171.36)"/><path d="M1832.85,515.07q-24.72,0-43.26-8.45a85.91,85.91,0,0,1-30.9-23.28,96.73,96.73,0,0,1-18.33-35,162.44,162.44,0,0,1,0-87.34,96.73,96.73,0,0,1,18.33-35,88.05,88.05,0,0,1,30.9-23.49q18.54-8.64,43.26-8.65t43.26,8.65A88.05,88.05,0,0,1,1907,326a96.89,96.89,0,0,1,18.33,35,162.44,162.44,0,0,1,0,87.34,96.89,96.89,0,0,1-18.33,35,85.91,85.91,0,0,1-30.9,23.28Q1857.57,515.07,1832.85,515.07Zm0-32.55q28.43,0,42-20.6t13.6-57.27q0-36.66-13.6-57.06t-42-20.39q-28.42,0-41.82,20.39t-13.39,57.06q0,36.68,13.39,57.27T1832.85,482.52Z" transform="translate(-177.62 -171.36)"/><path class="cls-1" d="M1984.46,298.77a85.06,85.06,0,0,1,8.45-1.24q4.32-.4,8.86-.41c2.74,0,5.63.14,8.65.41a83.32,83.32,0,0,1,8.65,1.24,25.52,25.52,0,0,1,1,5.15c.41,2.88.83,6,1.24,9.27s.82,6.45,1.24,9.47.61,4.95.61,5.77a84.18,84.18,0,0,1,9.89-12.77,65.94,65.94,0,0,1,13.8-11.12,72.11,72.11,0,0,1,18.13-7.83,81.69,81.69,0,0,1,22.45-2.89,94,94,0,0,1,34.41,6.18,68.85,68.85,0,0,1,27.19,19.16q11.33,13,17.72,33t6.38,47.17q0,54.39-29.46,85.08t-83.43,30.7a144.08,144.08,0,0,1-18.54-1.24,107.53,107.53,0,0,1-16.48-3.3v96.82q-4.93.82-10.5,1.24t-10.1.41q-4.53,0-10.09-.41a97.88,97.88,0,0,1-10.1-1.24Zm40.79,176.74a80.35,80.35,0,0,0,16.07,4.12,148.86,148.86,0,0,0,21.43,1.24,75.37,75.37,0,0,0,27.19-4.74,54.05,54.05,0,0,0,21.22-14.62q8.85-9.88,14-24.93t5.15-35.64q0-33-12.15-52.32t-39.76-19.37a53.85,53.85,0,0,0-19.78,3.71,48.81,48.81,0,0,0-16.89,11.13,54.8,54.8,0,0,0-11.94,18.74q-4.55,11.34-4.54,27Z" transform="translate(-177.62 -171.36)"/><path class="cls-1" d="M2240.32,330.9h-26.78a49.71,49.71,0,0,1-1.24-7.62c-.28-2.88-.41-5.7-.41-8.45s.13-5.56.41-8.44a49.92,49.92,0,0,1,1.24-7.62h66.74V510.12a98.36,98.36,0,0,1-10.09,1.24q-5.57.4-10.1.41c-2.75,0-6-.14-9.68-.41a97.32,97.32,0,0,1-10.09-1.24Zm-9.07-78.69a83.55,83.55,0,0,1-1-10.71c-.14-3.84-.21-7.28-.21-10.3s.07-6.45.21-10.3a72.82,72.82,0,0,1,1-10.3q5.36-.82,11.54-1.24c4.12-.27,7.68-.41,10.71-.41s6.59.14,10.71.41,7.83.69,11.12,1.24a74.23,74.23,0,0,1,1,10.3q.2,5.78.2,10.3c0,3-.07,6.46-.2,10.3a85.31,85.31,0,0,1-1,10.71q-4.93.82-10.91,1.24t-10.51.41q-4.93,0-11.12-.41T2231.25,252.21Z" transform="translate(-177.62 -171.36)"/><path class="cls-1" d="M2346.61,298.77q4.53-.82,8.86-1.24t8.85-.41a82.34,82.34,0,0,1,8.45.41c2.61.28,5.42.69,8.45,1.24q1.23,6.18,2.47,16.27a145.09,145.09,0,0,1,1.23,17.1,77.64,77.64,0,0,1,9.27-14.22,65.62,65.62,0,0,1,13.19-12.15,67.64,67.64,0,0,1,17.51-8.65,68.59,68.59,0,0,1,21.83-3.3q24.72,0,38.11,10.1t20.4,28.22a98.84,98.84,0,0,1,10.09-14,76.12,76.12,0,0,1,13.39-12.36,65.72,65.72,0,0,1,16.89-8.65,64.94,64.94,0,0,1,21.43-3.3q36.66,0,53.35,20.6t16.69,61V510.12a98.09,98.09,0,0,1-10.3,1.24q-5.78.4-10.3.41c-3,0-6.39-.14-10.1-.41a98,98,0,0,1-10.09-1.24V387.35q0-28.43-8.65-42.64t-28.43-14.22q-21,0-34,15.25t-13,44.9V510.12a97.66,97.66,0,0,1-10.09,1.24q-5.57.4-10.1.41t-10.09-.41a97.66,97.66,0,0,1-10.09-1.24V384.46q0-27.6-8.24-41.4t-26.37-13.81a42.74,42.74,0,0,0-19.37,4.54A45,45,0,0,0,2402,347.38q-6.8,9.08-10.71,22.87t-3.91,31.93V510.12a98.22,98.22,0,0,1-10.1,1.24q-5.57.4-10.09.41t-10.3-.41a97.43,97.43,0,0,1-10.3-1.24Z" transform="translate(-177.62 -171.36)"/></svg>