<svg width="165" height="34" viewBox="0 0 165 34" fill="none" xmlns="http://www.w3.org/2000/svg">
<path fill-rule="evenodd" clip-rule="evenodd" d="M32.2528 15.6689C32.2528 15.5889 32.2795 15.4824 32.3062 15.3758C32.3329 15.2425 32.3863 15.1093 32.3863 14.976C32.68 13.3772 32.0926 11.4585 30.8911 9.45996C30.7576 9.27342 30.6508 9.11354 30.544 8.927C30.3571 8.63388 30.1435 8.3141 29.9032 7.99433C29.8765 7.96768 29.8498 7.94104 29.8231 7.88774C29.7697 7.8078 29.6896 7.72785 29.6362 7.64791C29.5828 7.56797 29.5027 7.46138 29.4493 7.38143C29.3959 7.30149 29.3158 7.22155 29.2624 7.1416C29.1823 7.06166 29.1289 6.95507 29.0489 6.87513C28.9955 6.82183 28.9421 6.74189 28.8887 6.68859C26.993 4.34359 24.51 2.02523 21.8934 0C22.1337 3.30432 22.0803 6.6353 21.6798 9.24678C21.1993 12.4179 19.9177 16.0953 18.2356 19.3996C14.5244 18.9732 10.7865 17.9872 7.8496 16.6282C5.41996 15.4824 2.64323 13.7236 0 11.6717C0.0266993 11.9382 0.0533979 12.2313 0.0800972 12.4978C0.0800972 12.5777 0.106796 12.6577 0.106796 12.7376C0.133496 12.9242 0.133495 13.1374 0.160194 13.3239C0.160194 13.4038 0.186895 13.5104 0.186895 13.5904C0.213595 13.7769 0.240293 13.9901 0.266993 14.1766C0.266993 14.2566 0.293692 14.3365 0.293692 14.4164C0.320391 14.6563 0.347091 14.9228 0.40049 15.1626C0.453888 15.5357 0.480587 15.8021 0.533985 16.0953C0.587384 16.415 0.614084 16.6549 0.667482 16.8947C0.667482 16.948 0.694181 17.0013 0.694181 17.0546C0.74758 17.2944 0.77428 17.5076 0.827679 17.7474C0.827679 17.8007 0.854378 17.8274 0.854378 17.8807C0.907776 18.1471 0.961174 18.4136 1.01457 18.6534C1.20147 19.4795 1.41506 20.279 1.65536 21.0517C2.05585 22.3575 2.50973 23.5566 3.04372 24.5959C3.12382 24.7558 3.20392 24.889 3.28401 25.0489C3.36411 25.2088 3.41751 25.342 3.49761 25.4753C3.57771 25.6352 3.65781 25.7684 3.7379 25.9016C3.8714 26.1148 3.9782 26.2747 4.08499 26.4346C4.13839 26.5145 4.13839 26.5412 4.16509 26.5412C4.29859 26.7011 4.43209 26.8876 4.56558 27.0475C4.67238 27.1541 4.75248 27.2607 4.85927 27.3673C4.91267 27.4206 4.93937 27.4472 4.99277 27.5005C5.04617 27.5538 5.12627 27.6071 5.17967 27.687C5.23307 27.7403 5.25976 27.767 5.31316 27.8203C5.36656 27.8736 5.41996 27.9269 5.50006 27.9802C5.55346 28.0068 5.60686 28.0601 5.63355 28.0868C5.68695 28.14 5.76705 28.1933 5.82045 28.22C5.87385 28.2466 5.92725 28.2733 5.95395 28.3266C6.00734 28.3799 6.08744 28.4065 6.16754 28.4598C6.22094 28.4865 6.27434 28.5131 6.30104 28.5398C6.38113 28.5664 6.46123 28.6197 6.54133 28.6464C6.56803 28.673 6.62143 28.673 6.64813 28.6996C6.75493 28.7529 6.88842 28.8062 6.99522 28.8329C7.07532 28.8595 7.15541 28.8862 7.20881 28.9128C13.0293 30.6449 18.9565 28.4065 25.9517 33.7627C25.3376 24.9423 30.4372 21.4515 32.2528 15.6689Z" fill="#4CA8E0"/>
<path d="M61.2734 17.9313C61.2734 19.273 61.0609 20.5063 60.6359 21.6313C60.2109 22.748 59.6109 23.7105 58.8359 24.5188C58.0609 25.3272 57.1276 25.9563 56.0359 26.4063C54.9526 26.848 53.7526 27.0688 52.4359 27.0688C51.1193 27.0688 49.9193 26.848 48.8359 26.4063C47.7526 25.9563 46.8234 25.3272 46.0484 24.5188C45.2734 23.7105 44.6734 22.748 44.2484 21.6313C43.8234 20.5063 43.6109 19.273 43.6109 17.9313C43.6109 16.5897 43.8234 15.3605 44.2484 14.2438C44.6734 13.1188 45.2734 12.1522 46.0484 11.3438C46.8234 10.5272 47.7526 9.89385 48.8359 9.44385C49.9193 8.99385 51.1193 8.76885 52.4359 8.76885C53.7526 8.76885 54.9526 8.99385 56.0359 9.44385C57.1276 9.89385 58.0609 10.5272 58.8359 11.3438C59.6109 12.1522 60.2109 13.1188 60.6359 14.2438C61.0609 15.3605 61.2734 16.5897 61.2734 17.9313ZM58.7859 17.9313C58.7859 16.8313 58.6359 15.8438 58.3359 14.9688C58.0359 14.0938 57.6109 13.3563 57.0609 12.7563C56.5109 12.148 55.8443 11.6813 55.0609 11.3563C54.2776 11.0313 53.4026 10.8688 52.4359 10.8688C51.4776 10.8688 50.6068 11.0313 49.8234 11.3563C49.0401 11.6813 48.3693 12.148 47.8109 12.7563C47.2609 13.3563 46.8359 14.0938 46.5359 14.9688C46.2359 15.8438 46.0859 16.8313 46.0859 17.9313C46.0859 19.0313 46.2359 20.0188 46.5359 20.8938C46.8359 21.7605 47.2609 22.498 47.8109 23.1063C48.3693 23.7063 49.0401 24.1688 49.8234 24.4938C50.6068 24.8105 51.4776 24.9688 52.4359 24.9688C53.4026 24.9688 54.2776 24.8105 55.0609 24.4938C55.8443 24.1688 56.5109 23.7063 57.0609 23.1063C57.6109 22.498 58.0359 21.7605 58.3359 20.8938C58.6359 20.0188 58.7859 19.0313 58.7859 17.9313ZM64.2322 26.8813V14.2188H65.5572C65.8739 14.2188 66.0739 14.373 66.1572 14.6813L66.3322 16.0563C66.8822 15.448 67.4947 14.9563 68.1697 14.5813C68.8531 14.2063 69.6406 14.0188 70.5322 14.0188C71.2239 14.0188 71.8322 14.1355 72.3572 14.3688C72.8906 14.5938 73.3322 14.9188 73.6822 15.3438C74.0406 15.7605 74.3114 16.2647 74.4947 16.8563C74.6781 17.448 74.7697 18.1022 74.7697 18.8188V26.8813H72.5447V18.8188C72.5447 17.8605 72.3239 17.1188 71.8822 16.5938C71.4489 16.0605 70.7822 15.7938 69.8822 15.7938C69.2239 15.7938 68.6072 15.9522 68.0322 16.2688C67.4656 16.5855 66.9406 17.0147 66.4572 17.5563V26.8813H64.2322ZM78.1988 26.8813V8.46885H80.4363V16.0438C80.9613 15.4355 81.5613 14.948 82.2363 14.5813C82.9197 14.2063 83.6988 14.0188 84.5738 14.0188C85.3072 14.0188 85.9697 14.1563 86.5613 14.4313C87.153 14.7063 87.6572 15.1188 88.0738 15.6688C88.4905 16.2105 88.8113 16.8855 89.0363 17.6938C89.2613 18.4938 89.3738 19.4188 89.3738 20.4688C89.3738 21.4022 89.2488 22.273 88.9988 23.0813C88.7488 23.8813 88.3863 24.5772 87.9113 25.1688C87.4447 25.7522 86.8697 26.2147 86.1863 26.5563C85.5113 26.8897 84.7488 27.0563 83.8988 27.0563C83.0822 27.0563 82.3863 26.898 81.8113 26.5813C81.2447 26.2647 80.7488 25.823 80.3238 25.2563L80.2113 26.4063C80.1447 26.723 79.953 26.8813 79.6363 26.8813H78.1988ZM83.8488 15.7938C83.1238 15.7938 82.4863 15.9605 81.9363 16.2938C81.3947 16.6272 80.8947 17.098 80.4363 17.7063V23.8313C80.8363 24.3813 81.278 24.7688 81.7613 24.9938C82.253 25.2188 82.7988 25.3313 83.3988 25.3313C84.5822 25.3313 85.4905 24.9105 86.1238 24.0688C86.7572 23.2272 87.0738 22.0272 87.0738 20.4688C87.0738 19.6438 86.9988 18.9355 86.8488 18.3438C86.7072 17.7522 86.4988 17.2688 86.2238 16.8938C85.9488 16.5105 85.6113 16.2313 85.2113 16.0563C84.8113 15.8813 84.3572 15.7938 83.8488 15.7938ZM97.2137 14.0188C98.1387 14.0188 98.972 14.173 99.7137 14.4813C100.464 14.7897 101.097 15.2272 101.614 15.7938C102.139 16.3605 102.539 17.048 102.814 17.8563C103.097 18.6563 103.239 19.5522 103.239 20.5438C103.239 21.5438 103.097 22.4438 102.814 23.2438C102.539 24.0438 102.139 24.7272 101.614 25.2938C101.097 25.8605 100.464 26.298 99.7137 26.6063C98.972 26.9063 98.1387 27.0563 97.2137 27.0563C96.2887 27.0563 95.4512 26.9063 94.7012 26.6063C93.9595 26.298 93.3262 25.8605 92.8012 25.2938C92.2762 24.7272 91.872 24.0438 91.5887 23.2438C91.3053 22.4438 91.1637 21.5438 91.1637 20.5438C91.1637 19.5522 91.3053 18.6563 91.5887 17.8563C91.872 17.048 92.2762 16.3605 92.8012 15.7938C93.3262 15.2272 93.9595 14.7897 94.7012 14.4813C95.4512 14.173 96.2887 14.0188 97.2137 14.0188ZM97.2137 25.3188C98.4637 25.3188 99.397 24.9022 100.014 24.0688C100.63 23.2272 100.939 22.0563 100.939 20.5563C100.939 19.048 100.63 17.873 100.014 17.0313C99.397 16.1897 98.4637 15.7688 97.2137 15.7688C96.5803 15.7688 96.0303 15.8772 95.5637 16.0938C95.097 16.3105 94.7053 16.623 94.3887 17.0313C94.0803 17.4397 93.847 17.9438 93.6887 18.5438C93.5387 19.1355 93.4637 19.8063 93.4637 20.5563C93.4637 21.3063 93.5387 21.9772 93.6887 22.5688C93.847 23.1605 94.0803 23.6605 94.3887 24.0688C94.7053 24.4688 95.097 24.7772 95.5637 24.9938C96.0303 25.2105 96.5803 25.3188 97.2137 25.3188ZM115.28 26.8813H114.293C114.076 26.8813 113.901 26.848 113.768 26.7813C113.634 26.7147 113.547 26.573 113.505 26.3563L113.255 25.1813C112.922 25.4813 112.597 25.7522 112.28 25.9938C111.964 26.2272 111.63 26.4272 111.28 26.5938C110.93 26.7522 110.555 26.873 110.155 26.9563C109.764 27.0397 109.326 27.0813 108.843 27.0813C108.351 27.0813 107.889 27.0147 107.455 26.8813C107.03 26.7397 106.659 26.5313 106.343 26.2563C106.026 25.9813 105.772 25.6355 105.58 25.2188C105.397 24.7938 105.305 24.2938 105.305 23.7188C105.305 23.2188 105.443 22.7397 105.718 22.2813C105.993 21.8147 106.434 21.4022 107.043 21.0438C107.659 20.6855 108.464 20.3938 109.455 20.1688C110.447 19.9355 111.659 19.8022 113.093 19.7688V18.7813C113.093 17.798 112.88 17.0563 112.455 16.5563C112.039 16.048 111.418 15.7938 110.593 15.7938C110.051 15.7938 109.593 15.8647 109.218 16.0063C108.851 16.1397 108.53 16.2938 108.255 16.4688C107.989 16.6355 107.755 16.7897 107.555 16.9313C107.364 17.0647 107.172 17.1313 106.98 17.1313C106.83 17.1313 106.697 17.0938 106.58 17.0188C106.472 16.9355 106.384 16.8355 106.318 16.7188L105.918 16.0063C106.618 15.3313 107.372 14.8272 108.18 14.4938C108.989 14.1605 109.884 13.9938 110.868 13.9938C111.576 13.9938 112.205 14.1105 112.755 14.3438C113.305 14.5772 113.768 14.9022 114.143 15.3188C114.518 15.7355 114.801 16.2397 114.993 16.8313C115.184 17.423 115.28 18.073 115.28 18.7813V26.8813ZM109.505 25.5188C109.897 25.5188 110.255 25.4813 110.58 25.4063C110.905 25.323 111.209 25.2105 111.493 25.0688C111.784 24.9188 112.059 24.7397 112.318 24.5313C112.584 24.323 112.843 24.0855 113.093 23.8188V21.1813C112.068 21.2147 111.197 21.298 110.48 21.4313C109.764 21.5563 109.18 21.723 108.73 21.9313C108.28 22.1397 107.951 22.3855 107.743 22.6688C107.543 22.9522 107.443 23.2688 107.443 23.6188C107.443 23.9522 107.497 24.2397 107.605 24.4813C107.714 24.723 107.859 24.923 108.043 25.0813C108.226 25.2313 108.443 25.3438 108.693 25.4188C108.943 25.4855 109.214 25.5188 109.505 25.5188ZM118.651 26.8813V14.2188H119.926C120.168 14.2188 120.335 14.2647 120.426 14.3563C120.518 14.448 120.58 14.6063 120.614 14.8313L120.764 16.8063C121.197 15.923 121.73 15.2355 122.364 14.7438C123.005 14.2438 123.755 13.9938 124.614 13.9938C124.964 13.9938 125.28 14.0355 125.564 14.1188C125.847 14.1938 126.11 14.3022 126.351 14.4438L126.064 16.1063C126.005 16.3147 125.876 16.4188 125.676 16.4188C125.56 16.4188 125.38 16.3813 125.139 16.3063C124.897 16.223 124.56 16.1813 124.126 16.1813C123.351 16.1813 122.701 16.4063 122.176 16.8563C121.66 17.3063 121.226 17.9605 120.876 18.8188V26.8813H118.651ZM137.647 26.8813C137.33 26.8813 137.13 26.7272 137.047 26.4188L136.847 24.8813C136.305 25.5397 135.684 26.0688 134.984 26.4688C134.293 26.8605 133.497 27.0563 132.597 27.0563C131.872 27.0563 131.213 26.9188 130.622 26.6438C130.03 26.3605 129.526 25.948 129.109 25.4063C128.693 24.8647 128.372 24.1897 128.147 23.3813C127.922 22.573 127.809 21.6438 127.809 20.5938C127.809 19.6605 127.934 18.7938 128.184 17.9938C128.434 17.1855 128.793 16.4855 129.259 15.8938C129.734 15.3022 130.309 14.8397 130.984 14.5063C131.659 14.1647 132.426 13.9938 133.284 13.9938C134.059 13.9938 134.722 14.1272 135.272 14.3938C135.822 14.6522 136.313 15.0188 136.747 15.4938V8.46885H138.972V26.8813H137.647ZM133.334 25.2563C134.059 25.2563 134.693 25.0897 135.234 24.7563C135.784 24.423 136.288 23.9522 136.747 23.3438V17.2188C136.338 16.6688 135.888 16.2855 135.397 16.0688C134.913 15.8438 134.376 15.7313 133.784 15.7313C132.601 15.7313 131.693 16.1522 131.059 16.9938C130.426 17.8355 130.109 19.0355 130.109 20.5938C130.109 21.4188 130.18 22.1272 130.322 22.7188C130.463 23.3022 130.672 23.7855 130.947 24.1688C131.222 24.5438 131.559 24.8188 131.959 24.9938C132.359 25.1688 132.818 25.2563 133.334 25.2563ZM147.712 14.0188C148.47 14.0188 149.17 14.148 149.812 14.4063C150.453 14.6563 151.007 15.023 151.474 15.5063C151.941 15.9813 152.303 16.573 152.562 17.2813C152.828 17.9813 152.962 18.7813 152.962 19.6813C152.962 20.0313 152.924 20.2647 152.849 20.3813C152.774 20.498 152.632 20.5563 152.424 20.5563H143.999C144.016 21.3563 144.124 22.0522 144.324 22.6438C144.524 23.2355 144.799 23.7313 145.149 24.1313C145.499 24.523 145.916 24.8188 146.399 25.0188C146.882 25.2105 147.424 25.3063 148.024 25.3063C148.582 25.3063 149.062 25.2438 149.462 25.1188C149.87 24.9855 150.22 24.8438 150.512 24.6938C150.803 24.5438 151.045 24.4063 151.237 24.2813C151.437 24.148 151.607 24.0813 151.749 24.0813C151.932 24.0813 152.074 24.1522 152.174 24.2938L152.799 25.1063C152.524 25.4397 152.195 25.7313 151.812 25.9813C151.428 26.223 151.016 26.423 150.574 26.5813C150.141 26.7397 149.691 26.8563 149.224 26.9313C148.757 27.0147 148.295 27.0563 147.837 27.0563C146.962 27.0563 146.153 26.9105 145.412 26.6188C144.678 26.3188 144.041 25.8855 143.499 25.3188C142.966 24.7438 142.549 24.0355 142.249 23.1938C141.949 22.3522 141.799 21.3855 141.799 20.2938C141.799 19.4105 141.932 18.5855 142.199 17.8188C142.474 17.0522 142.866 16.3897 143.374 15.8313C143.882 15.2647 144.503 14.823 145.237 14.5063C145.97 14.1813 146.795 14.0188 147.712 14.0188ZM147.762 15.6563C146.687 15.6563 145.841 15.9688 145.224 16.5938C144.607 17.2105 144.224 18.0688 144.074 19.1688H150.962C150.962 18.6522 150.891 18.1813 150.749 17.7563C150.607 17.323 150.399 16.9522 150.124 16.6438C149.849 16.3272 149.512 16.0855 149.112 15.9188C148.72 15.7438 148.27 15.6563 147.762 15.6563ZM155.809 26.8813V14.2188H157.084C157.326 14.2188 157.493 14.2647 157.584 14.3563C157.676 14.448 157.739 14.6063 157.772 14.8313L157.922 16.8063C158.355 15.923 158.889 15.2355 159.522 14.7438C160.164 14.2438 160.914 13.9938 161.772 13.9938C162.122 13.9938 162.439 14.0355 162.722 14.1188C163.005 14.1938 163.268 14.3022 163.509 14.4438L163.222 16.1063C163.164 16.3147 163.034 16.4188 162.834 16.4188C162.718 16.4188 162.539 16.3813 162.297 16.3063C162.055 16.223 161.718 16.1813 161.284 16.1813C160.509 16.1813 159.859 16.4063 159.334 16.8563C158.818 17.3063 158.384 17.9605 158.034 18.8188V26.8813H155.809Z" fill="#11324D"/>
</svg>
