<svg xmlns="http://www.w3.org/2000/svg" width="24" height="24" viewBox="0 0 24 24">
  <path fill="#5992C7" fill-rule="evenodd" d="M10,3.01914273 L10.0151299,3.00401283 L12.0111171,5 L21,5 L21,6 L12.2630408,6 L12.2627563,6.00440469 L11.6013082,6.00440469 L9.59690351,4 L5,4 L5,5 L9,5 L9,5.01914273 L9.0151299,5.00401283 L11.0111171,7 L20,7 L20,7.5 L20,16.0040128 L21,16.0040128 L21,5.00401283 L22,5.00401283 L22,17.0040128 L21.5,17.0040128 L20,17.0040128 L20,18.5 L20,19 L18,19 L18,21 L17.5,21 L2,21 L2,20.5 L2,7 L2.5,7 L3,7 L3,5 L3.5,5 L4,5 L4,3.5 L4,3 L10,3 L10,3.01914273 Z M8.59690351,6 L4,6 L4,7 L8,7 L8,7.01914273 L8.0151299,7.00401283 L10.0111171,9 L17.5,9 L18,9 L18,18 L19,18 L19,8 L11.2630408,8 L11.2627563,8.00440469 L10.6013082,8.00440469 L8.59690351,6 Z M10.2630408,10 L10.2627563,10.0044047 L9.6013082,10.0044047 L7.59690351,8 L3,8 L3,20 L17,20 L17,10 L10.2630408,10 Z"/>
</svg>
