<svg xmlns="http://www.w3.org/2000/svg" width="24" height="24" viewBox="0 0 24 24">
  <path fill="#67768A" fill-rule="evenodd" d="M9.57884369,15 L19.2007291,5.37811456 L17.625929,3.80331445 L8,13.4292435 L8,15 L9.57884369,15 Z M10,15.9930573 L10,16 L7,16 L7,15.5 L7,13 L7.01502991,13 L17.6216316,2.39339828 L17.6257312,2.39749787 L17.6300286,2.39320047 L20.4584557,5.2216276 L20.4441333,5.23595002 L20.6006203,5.39243698 L10,15.9930573 Z M2.5,22 L2,22 L2,4 L2.5,4 L12,4 L12,5 L3,5 L3,21 L19,21 L19,12 L20,12 L20,22 L19.5,22 L2.5,22 Z M5,18 L17,18 L17,19 L5,19 L5,18 Z M5,15 L6,15 L6,16 L5,16 L5,15 Z M13,15 L17,15 L17,16 L13,16 L13,15 Z"/>
</svg>
