<svg xmlns="http://www.w3.org/2000/svg" width="24" height="24" viewBox="0 0 24 24">
  <path fill="#5992C7" fill-rule="evenodd" d="M19,21 L19,5 L5,5 L5,21 L4,21 L4,4 L4.5,4 L20,4 L20,4.5 L20,21.5 L20,22 L4,22 L4,21 L19,21 Z M8,18 L10,18 L10,16 L11,16 L11,19 L10.5,19 L7,19 L7,18.5 L7,16 L8,16 L8,18 Z M13.5,7 L17,7 L17,7.5 L17,10 L16,10 L16,8 L14,8 L14,10 L13,10 L13,7 L13.5,7 Z M10,13 L10,8 L8,8 L8,13 L10,13 Z M10.5,14 L7,14 L7,13.5 L7,7 L7.5,7 L11,7 L11,7.5 L11,14 L10.5,14 Z M13,18 L17,18 L17,19 L13,19 L13,18 Z M13,12 L17,12 L17,13 L13,13 L13,12 Z M13,13 L14,13 L14,18 L13,18 L13,13 Z M16,13 L17,13 L17,18 L16,18 L16,13 Z M7,15 L11,15 L11,16 L7,16 L7,15 Z M13,10 L17,10 L17,11 L13,11 L13,10 Z"/>
</svg>
