<?xml version="1.0" encoding="UTF-8"?>
<svg width="24px" height="24px" viewBox="0 0 24 24" version="1.1" xmlns="http://www.w3.org/2000/svg" xmlns:xlink="http://www.w3.org/1999/xlink">
    <!-- Generator: Sketch 46.2 (44496) - http://www.bohemiancoding.com/sketch -->
    <title>icon-folder_out</title>
    <desc>Created with Sketch.</desc>
    <defs></defs>
    <g id="24x24" stroke="none" stroke-width="1" fill="none" fill-rule="evenodd">
        <g id="icon-folder_out" fill="#67768A">
            <path d="M9.59690351,6 L5,6 L5,15 L4,15 L4,5 L4.5,5 L10,5 L10,5.01914273 L10.0151299,5.00401283 L12.0111171,7 L20,7 L20,8 L12.2630408,8 L12.2627563,8.00440469 L11.6013082,8.00440469 L9.59690351,6 Z M5,18 L20,18 L20,19 L4,19 L4,18.5 L4,15 L5,15 L5,18 Z M19,8 L20,8 L20,9 L19,9 L19,8 Z M19,17 L20,17 L20,18 L19,18 L19,17 Z M22,13 L18,17 L18,9 L22,13 Z M20.5857864,13 L19,11.4142136 L19,14.5857864 L20.5857864,13 Z M17,13.5 L10,13.5 L10,12.5 L17,12.5 L17,13.5 Z" id="Combined-Shape"></path>
        </g>
    </g>
</svg>