<svg xmlns="http://www.w3.org/2000/svg" width="24" height="24" viewBox="0 0 24 24">
  <path fill="#5992C7" d="M3,12 C3,14.7571588 5.24134786,17 8.00065947,17 L15.9993405,17 C18.7674731,17 21,14.7651329 21,12 C21,9.24284119 18.7586521,7 15.9993405,7 L8.00065947,7 C5.23252688,7 3,9.23486708 3,12 Z M2,12 C2,8.6862915 4.67653633,6 8.00065947,6 L15.9993405,6 C19.3134132,6 22,8.69303423 22,12 C22,15.3137085 19.3234637,18 15.9993405,18 L8.00065947,18 C4.68658675,18 2,15.3069658 2,12 Z M8,15.5 C9.93299662,15.5 11.5,13.9329966 11.5,12 C11.5,10.0670034 9.93299662,8.5 8,8.5 C6.06700338,8.5 4.5,10.0670034 4.5,12 C4.5,13.9329966 6.06700338,15.5 8,15.5 Z M8,14.5 C6.61928813,14.5 5.5,13.3807119 5.5,12 C5.5,10.6192881 6.61928813,9.5 8,9.5 C9.38071187,9.5 10.5,10.6192881 10.5,12 C10.5,13.3807119 9.38071187,14.5 8,14.5 Z"/>
</svg>
