<?xml version="1.0" encoding="UTF-8" standalone="no"?>
<svg width="128px" height="128px" viewBox="0 0 128 128" version="1.1" xmlns="http://www.w3.org/2000/svg" xmlns:xlink="http://www.w3.org/1999/xlink" xmlns:sketch="http://www.bohemiancoding.com/sketch/ns">
    <!-- Generator: Sketch 3.3 (11970) - http://www.bohemiancoding.com/sketch -->
    <title>icon-proposal</title>
    <desc>Created with Sketch.</desc>
    <defs></defs>
    <g id="Page-1" stroke="none" stroke-width="1" fill="none" fill-rule="evenodd" sketch:type="MSPage">
        <g id="icon-proposal" sketch:type="MSArtboardGroup" fill="#A1A9B7">
            <path d="M82.0045661,0 L116.525051,35.3664 L116.525051,128 L11.4749489,128 L11.4749489,1.13686838e-14 L82.0045661,1.13686838e-14 L82.0045661,0 Z M26.6340614,112.84096 L101.372339,112.84096 L101.372339,40.41728 L74.2131688,40.41728 L74.2131688,15.1552 L26.6340614,15.1552 L26.6340614,112.84096 L26.6340614,112.84096 Z M36.9496307,63.36384 L90.4231663,63.36384 L90.4231663,57.46944 L36.9496307,57.46944 L36.9496307,63.36384 L36.9496307,63.36384 Z M36.9496307,80.20992 L90.4231663,80.20992 L90.4231663,74.31552 L36.9496307,74.31552 L36.9496307,80.20992 L36.9496307,80.20992 Z M36.9496307,97.0496 L90.4231663,97.0496 L90.4231663,91.15648 L36.9496307,91.15648 L36.9496307,97.0496 L36.9496307,97.0496 Z" id="Shape" sketch:type="MSShapeGroup"></path>
        </g>
    </g>
</svg>