<?xml version="1.0" encoding="UTF-8"?>
<svg width="512px" height="512px" viewBox="0 0 512 512" version="1.1" xmlns="http://www.w3.org/2000/svg" xmlns:xlink="http://www.w3.org/1999/xlink">
    <!-- Generator: Sketch 46.2 (44496) - http://www.bohemiancoding.com/sketch -->
    <title>icon-textarea</title>
    <desc>Created with Sketch.</desc>
    <defs></defs>
    <g id="24x24" stroke="none" stroke-width="1" fill="none" fill-rule="evenodd">
        <g id="icon-textarea" fill="#67768A">
            <path d="M472,50 L472,112 L452,112 L452,60 L400,60 L400,40 L472,40 L472,50 Z M60,452 L60,400 L40,400 L40,462 L40,472 L112,472 L112,452 L60,452 Z M158.025,142 L353.26875,142 L355.125,200.725 L346.85625,200.725 C342.80623,182.274908 337.659406,170.265653 331.415625,164.696875 C325.171844,159.128097 312.0376,156.34375 292.0125,156.34375 L272.775,156.34375 L272.775,333.19375 C272.775,346.581317 274.856229,354.878109 279.01875,358.084375 C283.181271,361.290641 292.29368,363.399995 306.35625,364.4125 L306.35625,370.65625 L205.6125,370.65625 L205.6125,364.4125 C220.237573,363.287494 229.349982,360.868769 232.95,357.15625 C236.550018,353.443731 238.35,344.106325 238.35,329.14375 L238.35,156.34375 L219.1125,156.34375 C199.987404,156.34375 186.96566,159.099972 180.046875,164.6125 C173.12809,170.125028 167.925017,182.162407 164.4375,200.725 L156,200.725 L158.025,142 Z M40,40 L60,40 L60,60 L40,60 L40,40 Z M40,80 L60,80 L60,100 L40,100 L40,80 Z M40,120 L60,120 L60,140 L40,140 L40,120 Z M40,160 L60,160 L60,180 L40,180 L40,160 Z M40,200 L60,200 L60,220 L40,220 L40,200 Z M40,240 L60,240 L60,260 L40,260 L40,240 Z M40,280 L60,280 L60,300 L40,300 L40,280 Z M40,320 L60,320 L60,340 L40,340 L40,320 Z M40,360 L60,360 L60,380 L40,380 L40,360 Z M452,452 L472,452 L472,472 L452,472 L452,452 Z M412,452 L432,452 L432,472 L412,472 L412,452 Z M372,452 L392,452 L392,472 L372,472 L372,452 Z M332,452 L352,452 L352,472 L332,472 L332,452 Z M292,452 L312,452 L312,472 L292,472 L292,452 Z M252,452 L272,452 L272,472 L252,472 L252,452 Z M212,452 L232,452 L232,472 L212,472 L212,452 Z M172,452 L192,452 L192,472 L172,472 L172,452 Z M132,452 L152,452 L152,472 L132,472 L132,452 Z M452,412 L472,412 L472,432 L452,432 L452,412 Z M452,372 L472,372 L472,392 L452,392 L452,372 Z M452,332 L472,332 L472,352 L452,352 L452,332 Z M452,292 L472,292 L472,312 L452,312 L452,292 Z M452,252 L472,252 L472,272 L452,272 L452,252 Z M452,212 L472,212 L472,232 L452,232 L452,212 Z M452,172 L472,172 L472,192 L452,192 L452,172 Z M452,132 L472,132 L472,152 L452,152 L452,132 Z M80,40 L100,40 L100,60 L80,60 L80,40 Z M120,40 L140,40 L140,60 L120,60 L120,40 Z M160,40 L180,40 L180,60 L160,60 L160,40 Z M200,40 L220,40 L220,60 L200,60 L200,40 Z M240,40 L260,40 L260,60 L240,60 L240,40 Z M280,40 L300,40 L300,60 L280,60 L280,40 Z M320,40 L340,40 L340,60 L320,60 L320,40 Z M360,40 L380,40 L380,60 L360,60 L360,40 Z" id="Combined-Shape"></path>
        </g>
    </g>
</svg>