<?xml version="1.0" encoding="UTF-8"?>
<svg width="512px" height="512px" viewBox="0 0 512 512" version="1.1" xmlns="http://www.w3.org/2000/svg" xmlns:xlink="http://www.w3.org/1999/xlink">
    <!-- Generator: Sketch 46.2 (44496) - http://www.bohemiancoding.com/sketch -->
    <title>icon-id</title>
    <desc>Created with Sketch.</desc>
    <defs></defs>
    <g id="24x24" stroke="none" stroke-width="1" fill="none" fill-rule="evenodd">
        <g id="icon-id" fill="#67768A">
            <path d="M452,412 L452,152 L322,152 L322,132 L472,132 L472,142 L472,432 L462,432 L40,432 L40,422 L40,132 L50,132 L190,132 L190,152 L60,152 L60,412 L452,412 Z M300,82 L300,178 L290,178 L212,178 L212,168 L212,72 L222,72 L300,72 L300,82 Z M280,92 L232,92 L232,158 L280,158 L280,92 Z M256,244 L406,244 L406,264 L256,264 L256,244 Z M256,288 L364,288 L364,308 L256,308 L256,288 Z M256,332 L406,332 L406,352 L256,352 L256,332 Z M223.6,363.8 L202,363.8 C202,339.941299 182.658701,320.6 158.8,320.6 C134.941299,320.6 115.6,339.941299 115.6,363.8 L94,363.8 C94,328.011948 123.011948,299 158.8,299 C194.588052,299 223.6,328.011948 223.6,363.8 Z M159,298 C135.251756,298 116,278.748244 116,255 C116,231.251756 135.251756,212 159,212 C182.748244,212 202,231.251756 202,255 C202,278.748244 182.748244,298 159,298 Z M159,278 C171.702549,278 182,267.702549 182,255 C182,242.297451 171.702549,232 159,232 C146.297451,232 136,242.297451 136,255 C136,267.702549 146.297451,278 159,278 Z" id="Combined-Shape"></path>
        </g>
    </g>
</svg>