<?xml version="1.0" encoding="UTF-8"?>
<svg width="512px" height="512px" viewBox="0 0 512 512" version="1.1" xmlns="http://www.w3.org/2000/svg" xmlns:xlink="http://www.w3.org/1999/xlink">
    <!-- Generator: Sketch 46.2 (44496) - http://www.bohemiancoding.com/sketch -->
    <title>icon-asset</title>
    <desc>Created with Sketch.</desc>
    <defs></defs>
    <g id="24x24" stroke="none" stroke-width="1" fill="none" fill-rule="evenodd">
        <g id="icon-asset" fill="#67768A">
            <path d="M60,339.509524 L60,452 L452,452 L452,348.47048 L333.787215,303.980515 L263.586278,358.472177 L159.034266,260.239241 L60,339.509524 Z M60,307.738365 L158.565734,230.160759 L264.923654,330.090454 L333.546137,276.824025 L452,324.442017 L452,60 L60,60 L60,307.738365 Z M50,472 L40,472 L40,40 L50,40 L472,40 L472,50 L472,462 L472,472 L50,472 Z M332,236 C301.624339,236 277,211.375661 277,181 C277,150.624339 301.624339,126 332,126 C362.375661,126 387,150.624339 387,181 C387,211.375661 362.375661,236 332,236 Z M332,216 C351.329966,216 367,200.329966 367,181 C367,161.670034 351.329966,146 332,146 C312.670034,146 297,161.670034 297,181 C297,200.329966 312.670034,216 332,216 Z" id="Combined-Shape"></path>
        </g>
    </g>
</svg>