<?xml version="1.0" encoding="UTF-8"?>
<svg width="512px" height="512px" viewBox="0 0 512 512" version="1.1" xmlns="http://www.w3.org/2000/svg" xmlns:xlink="http://www.w3.org/1999/xlink">
    <!-- Generator: Sketch 46.2 (44496) - http://www.bohemiancoding.com/sketch -->
    <title>icon-metric</title>
    <desc>Created with Sketch.</desc>
    <defs></defs>
    <g id="24x24" stroke="none" stroke-width="1" fill="none" fill-rule="evenodd">
        <g id="icon-metric" fill-rule="nonzero" fill="#67768A">
            <path d="M246,225.593514 L246,126 L266,126 L266,225.593514 C278.775726,229.792684 288,241.81912 288,256 C288,273.673112 273.673112,288 256,288 C238.326888,288 224,273.673112 224,256 C224,241.81912 233.224274,229.792684 246,225.593514 Z M256,472 C136.706494,472 40,375.293506 40,256 C40,136.706494 136.706494,40 256,40 C375.293506,40 472,136.706494 472,256 C472,375.293506 375.293506,472 256,472 Z M256,452 C364.247811,452 452,364.247811 452,256 C452,147.752189 364.247811,60 256,60 C147.752189,60 60,147.752189 60,256 C60,364.247811 147.752189,452 256,452 Z M245.2,83.2 L265.2,83.2 L265.2,103.2 L245.2,103.2 L245.2,83.2 Z M395.869325,158.702104 L405.869325,176.022613 L388.548817,186.022613 L378.548817,168.702104 L395.869325,158.702104 Z M103,246 L103,266 L83,266 L83,246 L103,246 Z M427,246 L427,266 L407,266 L407,246 L427,246 Z M128.564139,170.539746 L118.564139,187.860254 L101.243631,177.860254 L111.243631,160.539746 L128.564139,170.539746 Z M189.417091,118.146985 L172.096583,128.146985 L162.096583,110.826477 L179.417091,100.826477 L189.417091,118.146985 Z M330.898969,100.803986 L348.219477,110.803986 L338.219477,128.124494 L320.898969,118.124494 L330.898969,100.803986 Z M246,364 L266,364 L266,384 L246,384 L246,364 Z M202,364 L222,364 L222,384 L202,384 L202,364 Z M290,364 L310,364 L310,384 L290,384 L290,364 Z" id="Combined-Shape"></path>
        </g>
    </g>
</svg>