<?xml version="1.0" encoding="UTF-8"?>
<svg width="512px" height="512px" viewBox="0 0 512 512" version="1.1" xmlns="http://www.w3.org/2000/svg" xmlns:xlink="http://www.w3.org/1999/xlink">
    <!-- Generator: Sketch 46.2 (44496) - http://www.bohemiancoding.com/sketch -->
    <title>icon-date</title>
    <desc>Created with Sketch.</desc>
    <defs></defs>
    <g id="24x24" stroke="none" stroke-width="1" fill="none" fill-rule="evenodd">
        <g id="icon-date" fill="#67768A">
            <path d="M452,100 L386,100 L386,126 L366,126 L366,100 L266,100 L266,126 L246,126 L246,100 L146,100 L146,126 L126,126 L126,100 L60,100 L60,170 L452,170 L452,100 Z M462,80 L472,80 L472,462 L472,472 L50,472 L40,472 L40,80 L50,80 L126,80 L126,40 L146,40 L146,80 L246,80 L246,40 L266,40 L266,80 L366,80 L366,40 L386,40 L386,80 L462,80 Z M452,452 L452,190 L60,190 L60,452 L452,452 Z M126,256 L146,256 L146,276 L126,276 L126,256 Z M366,256 L386,256 L386,276 L366,276 L366,256 Z M245,256 L265,256 L265,276 L245,276 L245,256 Z M126,366 L146,366 L146,386 L126,386 L126,366 Z M366,366 L386,366 L386,386 L366,386 L366,366 Z M245,366 L265,366 L265,386 L245,386 L245,366 Z" id="Combined-Shape"></path>
        </g>
    </g>
</svg>