<?xml version="1.0" encoding="UTF-8"?>
<svg width="512px" height="512px" viewBox="0 0 512 512" version="1.1" xmlns="http://www.w3.org/2000/svg" xmlns:xlink="http://www.w3.org/1999/xlink">
    <!-- Generator: Sketch 46.2 (44496) - http://www.bohemiancoding.com/sketch -->
    <title>icon-number</title>
    <desc>Created with Sketch.</desc>
    <defs>
        <path d="M210.576419,42.3580786 C210.681223,42.8820987 210.733624,44.0873268 210.733624,45.9737991 L210.733624,424.524017 C210.733624,440.663836 215.030525,450.934476 223.624454,455.336245 C232.218384,459.738013 248.253158,462.358074 271.729258,463.196507 L271.729258,472 L94.4017467,472 L94.4017467,462.567686 C119.764319,461.310037 136.323105,457.851557 144.078603,452.19214 C151.8341,446.532723 155.71179,434.270837 155.71179,415.406114 L155.71179,124.262009 C155.71179,114.200823 154.454161,106.550245 151.938865,101.310044 C149.423568,96.0698428 143.973841,93.4497817 135.58952,93.4497817 C130.139711,93.4497817 123.065546,94.9694171 114.366812,98.0087336 C105.668079,101.04805 97.5458893,104.244525 90,107.598253 L90,98.7947598 L205.388646,40 L209.161572,40 C210.000004,41.0480402 210.471615,41.8340585 210.576419,42.3580786 Z M401.68125,160.909375 C415.181317,180.653224 421.93125,202.674879 421.93125,226.975 C421.93125,244.075086 418.725032,261.456162 412.3125,279.11875 C405.899968,296.781338 396.562561,312.531181 384.3,326.36875 C370.012429,342.34383 351.90011,354.212461 329.9625,361.975 C317.699939,366.362522 302.231343,369.737488 283.55625,372.1 L281.86875,365.35 C293.568808,362.649987 303.299961,359.781265 311.0625,356.74375 C325.01257,351.231222 336.206208,344.48129 344.64375,336.49375 C356.56881,325.131193 366.103089,312.446945 373.246875,298.440625 C380.390661,284.434305 384.862491,272.706297 386.6625,263.25625 L380.75625,267.64375 C372.431208,273.943782 362.643806,278.274988 351.39375,280.6375 C345.543721,281.987507 340.200024,282.6625 335.3625,282.6625 C316.237404,282.6625 301.078181,275.884443 289.884375,262.328125 C278.690569,248.771807 273.09375,232.600094 273.09375,213.8125 C273.09375,189.84988 279.759308,170.106328 293.090625,154.58125 C306.421942,139.056172 323.493646,131.29375 344.30625,131.29375 C369.056374,131.29375 388.181182,141.165526 401.68125,160.909375 Z M372.740625,260.89375 C380.896916,256.618729 385.537494,253.018765 386.6625,250.09375 C387.112502,248.968744 387.506248,244.778161 387.84375,237.521875 C388.181252,230.265589 388.35,224.387522 388.35,219.8875 C388.35,196.487383 384.412539,177.475073 376.5375,162.85 C368.662461,148.224927 357.131326,140.9125 341.94375,140.9125 C330.918695,140.9125 322.003159,145.9187 315.196875,155.93125 C308.390591,165.9438 304.9875,180.90615 304.9875,200.81875 C304.9875,217.243832 308.165593,232.43118 314.521875,246.38125 C320.878157,260.33132 332.381167,267.30625 349.03125,267.30625 C356.681288,267.30625 364.584334,265.168771 372.740625,260.89375 Z" id="path-1"></path>
    </defs>
    <g id="24x24" stroke="none" stroke-width="1" fill="none" fill-rule="evenodd">
        <g id="icon-number">
            <mask id="mask-2" fill="white">
                <use xlink:href="#path-1"></use>
            </mask>
            <use id="Combined-Shape" fill="#67768A" xlink:href="#path-1"></use>
        </g>
    </g>
</svg>