<?xml version="1.0" encoding="utf-8"?>
<!-- Generator: Adobe Illustrator 25.0.1, SVG Export Plug-In . SVG Version: 6.00 Build 0)  -->
<svg version="1.1" id="Calque_1" xmlns="http://www.w3.org/2000/svg" xmlns:xlink="http://www.w3.org/1999/xlink" x="0px" y="0px"
	 viewBox="0 0 2450 436" style="enable-background:new 0 0 2450 436;" xml:space="preserve">
<style type="text/css">
	.st0{fill:#9452BA;}
</style>
<g>
	<g>
		<path class="st0" d="M289,379.3c-0.9-7.9-0.6-23.3,1.7-45.3c1.4-13.5,5.5-26.5,10.3-39.1c8.4-22.2,20.7-42.4,32.8-62.7
			c11.7-19.8,25-41.3,28.9-64.3c5.1-30.3-14.8-61.3-32.2-84.3C306.8,51.9,277.4,24.5,246.4,0c1.8,29.2,2.1,59.8-1.2,89.4
			c-3.1,28-10.4,55.2-20.3,81.5c-5.5,14.5-11.7,28.7-18.7,42.5c-2.2,4.4-2.4,4.5-7.3,3.8c-3.7-0.5-7.5-1.1-11.2-1.6
			c-7.9-1.3-15.7-2.7-23.5-4.4c-27.6-6-54.9-14.5-80.3-27C54,169.4,26.1,150.5,0,129.8c2,29.9,6.2,59.8,13.5,88.9
			c6.6,26.6,15.6,53.9,31.4,76.6C52.8,306.6,63,316.8,76,322c11.7,4.6,24.4,6.8,36.8,8.5c26.4,3.5,53.1,3.4,79.4,7.4
			C227.8,343.3,260.5,357.2,289,379.3"/>
	</g>
	<g>
		<path d="M566.2,198.7c0-16.1-4.1-27.4-12.3-33.7c-8.2-6.3-20.1-9.4-35.7-9.4c-9.6,0-18.5,0.8-26.9,2.3c-8.3,1.5-16.5,3.5-24.4,6
			c-5.2-9-7.8-19.8-7.8-32.4c9.3-3,19.6-5.3,30.8-7c11.2-1.6,22-2.5,32.4-2.5c27.4,0,48.2,6.2,62.4,18.7
			c14.2,12.5,21.3,32.4,21.3,59.7v131.7c-9.6,2.2-21.2,4.5-34.9,6.8c-13.7,2.3-27.6,3.5-41.9,3.5c-13.4,0-25.5-1.2-36.3-3.7
			c-10.8-2.5-20-6.4-27.5-11.9c-7.5-5.5-13.3-12.4-17.4-20.9c-4.1-8.5-6.2-18.7-6.2-30.8c0-11.8,2.4-22.1,7.2-31
			c4.8-8.9,11.3-16.3,19.5-22.2c8.2-5.9,17.6-10.3,28.3-13.1c10.7-2.9,21.9-4.3,33.7-4.3c8.8,0,15.9,0.2,21.5,0.6
			c5.6,0.4,10.3,0.9,14.2,1.4V198.7z M566.2,238.6c-4.1-0.5-9.3-1.1-15.6-1.6c-6.3-0.5-11.6-0.8-16-0.8c-17,0-29.9,3.1-38.8,9.4
			c-8.9,6.3-13.3,15.9-13.3,28.7c0,8.2,1.5,14.6,4.5,19.3c3,4.7,6.8,8.2,11.3,10.7c4.5,2.5,9.5,4,15,4.5c5.5,0.6,10.7,0.8,15.6,0.8
			c6.3,0,12.8-0.3,19.5-1c6.7-0.7,12.7-1.7,17.9-3.1V238.6z"/>
		<path d="M665.5,36.6c3-0.5,6.4-1,10.1-1.2c3.7-0.3,7-0.4,10.1-0.4c3,0,6.4,0.1,10.3,0.4c3.8,0.3,7.2,0.7,10.3,1.2v300.8
			c-3,0.5-6.4,1-10.3,1.2c-3.8,0.3-7.3,0.4-10.3,0.4c-3,0-6.4-0.1-10.1-0.4c-3.7-0.3-7-0.7-10.1-1.2V36.6z M707.1,229l77-102
			c3.6-0.5,7.1-1,10.7-1.2c3.6-0.3,7.2-0.4,11.1-0.4c4.1,0,8,0.1,11.7,0.4c3.7,0.3,7.5,0.7,11.3,1.2L762,225.4l78.4,112
			c-3.8,0.5-7.5,1-11.1,1.2c-3.6,0.3-7.3,0.4-11.1,0.4c-3.8,0-7.7-0.1-11.5-0.4c-3.8-0.3-7.7-0.7-11.5-1.2L707.1,229z"/>
		<path d="M900.3,242.2c0.5,23,6.5,39.8,17.9,50.5c11.4,10.7,28.1,16,50.3,16c19.4,0,37.9-3.4,55.4-10.3c2.2,4.1,4,9.1,5.3,15
			c1.4,5.9,2.2,11.7,2.5,17.4c-9,3.8-18.9,6.7-29.8,8.6c-10.8,1.9-22.8,2.9-35.9,2.9c-19.2,0-35.6-2.7-49.3-8
			c-13.7-5.3-25-12.9-33.9-22.6c-8.9-9.7-15.4-21.2-19.5-34.5c-4.1-13.3-6.2-27.8-6.2-43.7c0-15.6,2-30.2,6-43.7
			c4-13.5,10.1-25.3,18.3-35.3c8.2-10,18.5-17.9,31-23.8c12.4-5.9,27.2-8.8,44.1-8.8c14.5,0,27.2,2.5,38.2,7.4
			c10.9,4.9,20.1,11.7,27.5,20.3c7.4,8.6,13,18.9,16.8,30.8c3.8,11.9,5.7,24.8,5.7,38.8c0,3.8-0.1,7.9-0.4,12.1
			c-0.3,4.2-0.6,7.9-0.8,10.9H900.3z M1004.5,211.9c0-7.7-1-15-3.1-22c-2.1-7-5.1-13.1-9-18.3c-4-5.2-9-9.4-15.2-12.5
			c-6.2-3.1-13.5-4.7-22-4.7c-16.7,0-29.5,5.1-38.4,15.2c-8.9,10.1-14.3,24.2-16.2,42.3H1004.5z"/>
		<path d="M1098.1,126.9c3-0.5,6-1,8.8-1.2c2.9-0.3,5.8-0.4,8.8-0.4c3,0,5.8,0.1,8.4,0.4c2.6,0.3,5.4,0.7,8.4,1.2
			c0.8,4.1,1.6,9.6,2.5,16.6c0.8,7,1.2,12.8,1.2,17.4c2.7-4.6,6.2-9.3,10.5-14c4.2-4.6,9.1-8.8,14.6-12.5c5.5-3.7,11.8-6.7,18.9-9
			c7.1-2.3,14.9-3.5,23.4-3.5c24.1,0,41.9,6.9,53.4,20.7c11.5,13.8,17.2,34.3,17.2,61.4v133.4c-3,0.5-6.4,1-10.3,1.2
			c-3.8,0.3-7.3,0.4-10.3,0.4c-3,0-6.4-0.1-10.1-0.4c-3.7-0.3-7-0.7-10.1-1.2V215.2c0-19.4-3-33.7-9-42.9
			c-6-9.2-15.6-13.7-28.7-13.7c-7.7,0-14.9,1.4-21.8,4.1c-6.8,2.7-12.9,7-18.1,12.7c-5.2,5.7-9.4,13.2-12.5,22.4
			c-3.1,9.2-4.7,20.2-4.7,33v106.7c-3,0.5-6.4,1-10.1,1.2c-3.7,0.3-7,0.4-10.1,0.4c-3,0-6.4-0.1-10.3-0.4c-3.8-0.3-7.3-0.7-10.3-1.2
			V126.9z"/>
		<path d="M1365.7,242.2c0.5,23,6.5,39.8,17.9,50.5c11.4,10.7,28.1,16,50.3,16c19.4,0,37.9-3.4,55.4-10.3c2.2,4.1,4,9.1,5.3,15
			c1.4,5.9,2.2,11.7,2.5,17.4c-9,3.8-18.9,6.7-29.8,8.6c-10.8,1.9-22.8,2.9-35.9,2.9c-19.2,0-35.6-2.7-49.3-8
			c-13.7-5.3-25-12.9-33.9-22.6c-8.9-9.7-15.4-21.2-19.5-34.5c-4.1-13.3-6.2-27.8-6.2-43.7c0-15.6,2-30.2,6-43.7
			c4-13.5,10.1-25.3,18.3-35.3c8.2-10,18.5-17.9,31-23.8c12.4-5.9,27.2-8.8,44.1-8.8c14.5,0,27.2,2.5,38.2,7.4
			c10.9,4.9,20.1,11.7,27.5,20.3c7.4,8.6,13,18.9,16.8,30.8c3.8,11.9,5.7,24.8,5.7,38.8c0,3.8-0.1,7.9-0.4,12.1
			c-0.3,4.2-0.6,7.9-0.8,10.9H1365.7z M1469.9,211.9c0-7.7-1-15-3.1-22c-2.1-7-5.1-13.1-9-18.3c-4-5.2-9-9.4-15.2-12.5
			c-6.2-3.1-13.5-4.7-22-4.7c-16.7,0-29.5,5.1-38.4,15.2c-8.9,10.1-14.3,24.2-16.2,42.3H1469.9z"/>
		<path d="M1648.9,342.4c-16.4,0-30.8-2.8-43.1-8.4c-12.3-5.6-22.6-13.3-30.8-23.2c-8.2-9.8-14.3-21.5-18.3-34.9
			c-4-13.4-6-27.9-6-43.5c0-15.6,2-30.1,6-43.5c4-13.4,10.1-25,18.3-34.9c8.2-9.8,18.5-17.6,30.8-23.4c12.3-5.7,26.7-8.6,43.1-8.6
			c16.4,0,30.8,2.9,43.1,8.6c12.3,5.7,22.6,13.5,30.8,23.4c8.2,9.8,14.3,21.5,18.3,34.9c4,13.4,6,27.9,6,43.5c0,15.6-2,30.1-6,43.5
			c-4,13.4-10.1,25-18.3,34.9c-8.2,9.9-18.5,17.6-30.8,23.2C1679.7,339.6,1665.3,342.4,1648.9,342.4z M1648.9,310
			c18.9,0,32.8-6.8,41.9-20.5c9-13.7,13.5-32.7,13.5-57c0-24.3-4.5-43.3-13.5-56.8c-9-13.5-23-20.3-41.9-20.3
			c-18.9,0-32.8,6.8-41.7,20.3c-8.9,13.5-13.3,32.5-13.3,56.8c0,24.4,4.4,43.4,13.3,57C1616.1,303.1,1630,310,1648.9,310z"/>
		<path class="st0" d="M1799.9,126.9c2.7-0.5,5.5-1,8.4-1.2c2.9-0.3,5.8-0.4,8.8-0.4c2.7,0,5.6,0.1,8.6,0.4c3,0.3,5.9,0.7,8.6,1.2
			c0.3,0.6,0.6,2.3,1,5.1c0.4,2.9,0.8,6,1.2,9.2c0.4,3.3,0.8,6.4,1.2,9.4c0.4,3,0.6,4.9,0.6,5.7c2.7-4.4,6-8.6,9.8-12.7
			c3.8-4.1,8.4-7.8,13.7-11.1c5.3-3.3,11.4-5.9,18.1-7.8c6.7-1.9,14.2-2.9,22.4-2.9c12.3,0,23.7,2.1,34.3,6.2
			c10.5,4.1,19.6,10.5,27.1,19.1c7.5,8.6,13.4,19.6,17.6,32.8c4.2,13.3,6.4,28.9,6.4,47c0,36.1-9.8,64.4-29.3,84.8
			c-19.6,20.4-47.3,30.6-83.1,30.6c-6,0-12.2-0.4-18.5-1.2c-6.3-0.8-11.8-1.9-16.4-3.3v96.4c-3.3,0.5-6.8,1-10.5,1.2
			c-3.7,0.3-7,0.4-10.1,0.4c-3,0-6.4-0.1-10.1-0.4c-3.7-0.3-7-0.7-10.1-1.2V126.9z M1840.5,303c5.2,1.9,10.5,3.3,16,4.1
			c5.5,0.8,12.6,1.2,21.3,1.2c9.8,0,18.9-1.6,27.1-4.7c8.2-3.1,15.2-8,21.1-14.6c5.9-6.6,10.5-14.8,14-24.8
			c3.4-10,5.1-21.8,5.1-35.5c0-21.9-4-39.3-12.1-52.1c-8.1-12.9-21.3-19.3-39.6-19.3c-6.8,0-13.4,1.2-19.7,3.7
			c-6.3,2.5-11.9,6.2-16.8,11.1c-4.9,4.9-8.9,11.2-11.9,18.7c-3,7.5-4.5,16.5-4.5,26.9V303z"/>
		<path class="st0" d="M2054.8,158.9h-26.7c-0.6-2.2-1-4.7-1.2-7.6c-0.3-2.9-0.4-5.7-0.4-8.4c0-2.7,0.1-5.5,0.4-8.4
			c0.3-2.9,0.7-5.4,1.2-7.6h66.5v210.5c-3,0.5-6.4,1-10.1,1.2c-3.7,0.3-7,0.4-10.1,0.4c-2.7,0-6-0.1-9.6-0.4
			c-3.7-0.3-7-0.7-10.1-1.2V158.9z M2045.7,80.5c-0.6-3.3-0.9-6.8-1-10.7c-0.1-3.8-0.2-7.2-0.2-10.3c0-3,0.1-6.4,0.2-10.3
			c0.1-3.8,0.5-7.2,1-10.3c3.6-0.5,7.4-1,11.5-1.2c4.1-0.3,7.7-0.4,10.7-0.4c3,0,6.6,0.1,10.7,0.4c4.1,0.3,7.8,0.7,11.1,1.2
			c0.5,3,0.9,6.4,1,10.3c0.1,3.8,0.2,7.3,0.2,10.3c0,3-0.1,6.4-0.2,10.3c-0.1,3.8-0.5,7.4-1,10.7c-3.3,0.6-6.9,1-10.9,1.2
			c-4,0.3-7.5,0.4-10.5,0.4c-3.3,0-7-0.1-11.1-0.4C2053.1,81.5,2049.3,81.1,2045.7,80.5z"/>
		<path class="st0" d="M2160.7,126.9c3-0.5,6-1,8.8-1.2c2.9-0.3,5.8-0.4,8.8-0.4c3,0,5.8,0.1,8.4,0.4c2.6,0.3,5.4,0.7,8.4,1.2
			c0.8,4.1,1.6,9.5,2.5,16.2c0.8,6.7,1.2,12.4,1.2,17c2.5-4.9,5.5-9.6,9.2-14.2c3.7-4.5,8.1-8.5,13.1-12.1
			c5.1-3.6,10.9-6.4,17.4-8.6c6.6-2.2,13.8-3.3,21.8-3.3c16.4,0,29.1,3.4,38,10.1c8.9,6.7,15.7,16.1,20.3,28.1
			c2.7-4.6,6.1-9.3,10.1-14c4-4.6,8.4-8.8,13.3-12.3c4.9-3.6,10.5-6.4,16.8-8.6c6.3-2.2,13.4-3.3,21.3-3.3
			c24.3,0,42.1,6.8,53.1,20.5c11.1,13.7,16.6,33.9,16.6,60.7v134.2c-3,0.5-6.4,1-10.3,1.2c-3.8,0.3-7.3,0.4-10.3,0.4
			c-3,0-6.4-0.1-10.1-0.4c-3.7-0.3-7-0.7-10.1-1.2V215.2c0-18.9-2.9-33-8.6-42.5c-5.7-9.4-15.2-14.2-28.3-14.2
			c-14,0-25.2,5.1-33.9,15.2c-8.6,10.1-12.9,25-12.9,44.7v119c-3,0.5-6.4,1-10.1,1.2c-3.7,0.3-7,0.4-10.1,0.4c-3,0-6.4-0.1-10.1-0.4
			c-3.7-0.3-7-0.7-10.1-1.2V212.3c0-18.3-2.7-32.1-8.2-41.2c-5.5-9.2-14.2-13.7-26.3-13.7c-6.8,0-13.3,1.5-19.3,4.5
			c-6,3-11.3,7.5-15.8,13.5c-4.5,6-8.1,13.6-10.7,22.8c-2.6,9.2-3.9,19.8-3.9,31.8v107.5c-3,0.5-6.4,1-10.1,1.2
			c-3.7,0.3-7,0.4-10.1,0.4c-3,0-6.4-0.1-10.3-0.4c-3.8-0.3-7.3-0.7-10.3-1.2V126.9z"/>
	</g>
</g>
</svg>
