<?xml version="1.0" encoding="UTF-8"?>
<svg xmlns="http://www.w3.org/2000/svg" viewBox="0 0 45.15 45.15">
    <defs>
        <style>
            .cls-1{fill:#9452ba;opacity:0.39;}.cls-2{fill:#52267e;}.cls-3,.cls-4{fill:none;stroke:#9452ba;stroke-linecap:round;}.cls-4{stroke-width:2px;}
        </style>
    </defs>
    <g id="Layer_2" data-name="Layer 2">
        <path class="cls-1"
              d="M31.69,33.72c.09.28.18.48.2.54s0,0,0,0h0c-.64-6.18,2.87-8.76,4-12.87,0-.06,0-.12,0-.2a2.74,2.74,0,0,0,0-.28,5.83,5.83,0,0,0-1.18-3.84v0l-.23-.34h0l-.46-.63L34,16l-.14-.18-.14-.18a1.15,1.15,0,0,1-.14-.17l-.15-.18-.11-.12a31.58,31.58,0,0,0-5.07-4.55h0a30.43,30.43,0,0,1,.06,6.52,24.58,24.58,0,0,1-2.19,7.22,24.31,24.31,0,0,1-7.34-1.71,29.59,29.59,0,0,1-5.63-3.3l.06.58,0,.17c0,.14,0,.28.05.41l0,.19.06.42,0,.16.09.52a.07.07,0,0,0,0,.05c0,.2.07.4.11.6,0,0,0,0,0,0,0,.18.07.36.11.53a.43.43,0,0,1,0,.11c0,.16.08.32.11.48l0,.09c0,.19.09.37.13.55h0c.15.58.32,1.15.5,1.68v0a16.4,16.4,0,0,0,1.05,2.45l.18.31h0c.05.09.1.18.16.27h0l.18.28h0l0,0h0l.25.33,0,.05a0,0,0,0,1,0,0l.29.34.21.22.09.08.13.12.11.09.13.1.1.07.13.1.11.06.14.08L18,31l.17.08.08,0a1.34,1.34,0,0,0,.26.09l.15.05c4.13,1.09,8.15-.63,13.19,3"
              transform="translate(-2.87 -0.35)"/>
        <path class="cls-2"
              d="M10.31,31.92a.28.28,0,0,1,.25,0l.86.39a3.52,3.52,0,0,1-.81,1.43,4.48,4.48,0,0,1-1.56,1,4.48,4.48,0,0,1-1.73.38,4.08,4.08,0,0,1-1.57-.33,4,4,0,0,1-1.32-1,5.34,5.34,0,0,1-1-1.53,5,5,0,0,1-.4-1.77,4.35,4.35,0,0,1,.29-1.65,4.27,4.27,0,0,1,.94-1.39,5,5,0,0,1,1.54-1,4.3,4.3,0,0,1,1.68-.37A3.91,3.91,0,0,1,9,26.41l-.21.9a.44.44,0,0,1-.06.16.33.33,0,0,1-.17.13.44.44,0,0,1-.3,0l-.43-.07a2.53,2.53,0,0,0-.61,0,2.91,2.91,0,0,0-.83.23,2.83,2.83,0,0,0-1,.64,2.38,2.38,0,0,0-.57.9,2.7,2.7,0,0,0-.15,1.11A3.73,3.73,0,0,0,5,31.69a4,4,0,0,0,.7,1.12,3,3,0,0,0,.89.66,2.52,2.52,0,0,0,1,.23,2.56,2.56,0,0,0,1-.22,3.74,3.74,0,0,0,.53-.26,2.72,2.72,0,0,0,.41-.3,2,2,0,0,0,.31-.35,2.65,2.65,0,0,0,.25-.44.57.57,0,0,1,.08-.13Z"
              transform="translate(-2.87 -0.35)"/>
        <path class="cls-2"
              d="M12.85,26.27A3.2,3.2,0,0,1,13.91,26a2.52,2.52,0,0,1,1,.17,2.66,2.66,0,0,1,.85.59,3.42,3.42,0,0,1,.64,1,1.49,1.49,0,0,1,.1.26.62.62,0,0,1,0,.18.24.24,0,0,1-.07.13.56.56,0,0,1-.14.09l-3.5,1.48a2.1,2.1,0,0,0,1,1.08A1.55,1.55,0,0,0,15.07,31a2,2,0,0,0,.54-.32A2.89,2.89,0,0,0,16,30.3l.24-.3a.53.53,0,0,1,.23-.19.4.4,0,0,1,.15,0,.44.44,0,0,1,.15,0l.61.33a2.88,2.88,0,0,1-.32.66,3,3,0,0,1-.47.54,3.28,3.28,0,0,1-.56.42,5.59,5.59,0,0,1-.6.3,3.12,3.12,0,0,1-1.18.27,2.73,2.73,0,0,1-1.13-.2,3,3,0,0,1-1-.7,4,4,0,0,1-.77-1.22A3.33,3.33,0,0,1,11,29.06a3,3,0,0,1,.16-1.12,2.87,2.87,0,0,1,.6-1A3.19,3.19,0,0,1,12.85,26.27Zm.44,1a1.39,1.39,0,0,0-.79.73,1.83,1.83,0,0,0,0,1.14L15,28a1.83,1.83,0,0,0-.28-.47,1.35,1.35,0,0,0-.4-.32,1.31,1.31,0,0,0-.49-.12A1.46,1.46,0,0,0,13.29,27.24Z"
              transform="translate(-2.87 -0.35)"/>
        <path class="cls-2"
              d="M18.86,30.51l-2.41-5.66.8-.34a.47.47,0,0,1,.33-.05.51.51,0,0,1,.22.22l.37.65a3.13,3.13,0,0,1,.36-1.13,1.68,1.68,0,0,1,.79-.7,1.37,1.37,0,0,1,.78-.1l.26,1.1a.31.31,0,0,1,0,.17.26.26,0,0,1-.14.1.59.59,0,0,1-.24.06,1.82,1.82,0,0,0-.4.13,1.29,1.29,0,0,0-.63.54,2,2,0,0,0-.22.91l1.5,3.52Z"
              transform="translate(-2.87 -0.35)"/>
        <path class="cls-2"
              d="M25.27,27.9A1.63,1.63,0,0,1,24,28a1.74,1.74,0,0,1-.89-1l-1.34-3.17-.58.25a.33.33,0,0,1-.22,0,.32.32,0,0,1-.17-.19l-.23-.54.85-.53L21,21.14a.28.28,0,0,1,0-.22.33.33,0,0,1,.18-.14l.7-.3.76,1.78,1.49-.63.41,1-1.49.63,1.3,3.07a.66.66,0,0,0,.31.36.48.48,0,0,0,.42,0,1.24,1.24,0,0,0,.41-.36.16.16,0,0,1,.09-.07.14.14,0,0,1,.11,0l.12.05.69.49a2.12,2.12,0,0,1-.53.67A3,3,0,0,1,25.27,27.9Z"
              transform="translate(-2.87 -0.35)"/>
        <path class="cls-2"
              d="M26.19,18.76a.77.77,0,0,1,.07.36,1,1,0,0,1-.07.36,1.21,1.21,0,0,1-.2.3,1,1,0,0,1-.32.21.9.9,0,0,1-.36.08A1,1,0,0,1,25,20a1.17,1.17,0,0,1-.3-.19,1,1,0,0,1-.29-.68,1,1,0,0,1,.07-.35.89.89,0,0,1,.5-.51.83.83,0,0,1,.37-.08.86.86,0,0,1,.36.07.93.93,0,0,1,.31.19A1,1,0,0,1,26.19,18.76Zm.5,1.74,2.41,5.67-1.37.58-2.4-5.67Z"
              transform="translate(-2.87 -0.35)"/>
        <path class="cls-2"
              d="M30.88,25.41l-2-4.64-.52.13a.54.54,0,0,1-.31,0,.32.32,0,0,1-.19-.19l-.24-.56.85-.36-.08-.18a2.76,2.76,0,0,1-.24-1,2.29,2.29,0,0,1,.19-1A2.68,2.68,0,0,1,29,16.7,4.4,4.4,0,0,1,30.21,16l.48-.17a1.74,1.74,0,0,1,.46-.1l.25.72a.16.16,0,0,1-.07.21,1.39,1.39,0,0,1-.3.16,3.56,3.56,0,0,0-.86.48,1.54,1.54,0,0,0-.47.53,1.1,1.1,0,0,0-.12.6,2,2,0,0,0,.18.69l.06.13,3.51-1.49,2.38,5.62-1.36.58-2-4.65-2.11.9,2,4.64Z"
              transform="translate(-2.87 -0.35)"/>
        <path class="cls-2"
              d="M37.17,16a3,3,0,0,1,1.06-.25,2.35,2.35,0,0,1,1,.17,2.42,2.42,0,0,1,.85.59,3.51,3.51,0,0,1,.65,1l.09.27a.4.4,0,0,1,0,.18.23.23,0,0,1-.06.12.27.27,0,0,1-.15.09l-3.5,1.49a2.16,2.16,0,0,0,1,1.08,1.56,1.56,0,0,0,1.25-.05,2,2,0,0,0,.54-.32,2.88,2.88,0,0,0,.35-.35l.24-.3a.57.57,0,0,1,.23-.19.24.24,0,0,1,.16,0,.24.24,0,0,1,.14.05l.61.33a2.24,2.24,0,0,1-.32.66,2.62,2.62,0,0,1-.46.53,3.72,3.72,0,0,1-.56.42,5.71,5.71,0,0,1-.6.31,3.66,3.66,0,0,1-1.18.27,2.71,2.71,0,0,1-1.13-.21,3,3,0,0,1-1-.7,3.93,3.93,0,0,1-.77-1.22,3.22,3.22,0,0,1-.27-1.17,2.82,2.82,0,0,1,.16-1.12,2.58,2.58,0,0,1,.6-1A3,3,0,0,1,37.17,16Zm.45,1a1.38,1.38,0,0,0-.79.74,1.79,1.79,0,0,0,0,1.13l2.56-1.08a1.67,1.67,0,0,0-.28-.47,1.23,1.23,0,0,0-.4-.32,1,1,0,0,0-.49-.12A1.54,1.54,0,0,0,37.62,16.91Z"
              transform="translate(-2.87 -0.35)"/>
        <path class="cls-2"
              d="M47.17,18.5a.38.38,0,0,1-.46-.1l-.34-.5a2.91,2.91,0,0,1-.22.51,2.27,2.27,0,0,1-.3.46,2.07,2.07,0,0,1-.4.38,2.94,2.94,0,0,1-.53.3,2,2,0,0,1-.93.17,2.23,2.23,0,0,1-.91-.28,2.89,2.89,0,0,1-.81-.73,4.81,4.81,0,0,1-.68-1.17,3.85,3.85,0,0,1-.32-1.24,3.1,3.1,0,0,1,.09-1.15,2.37,2.37,0,0,1,1.41-1.6,2.15,2.15,0,0,1,.88-.19,2,2,0,0,1,.77.15l-1.27-3,1.37-.58L48,18.14Zm-2.24-.23a1.52,1.52,0,0,0,.64-.48,2.26,2.26,0,0,0,.35-.75L44.85,14.5a1.5,1.5,0,0,0-.68-.18,1.83,1.83,0,0,0-.64.13,1.57,1.57,0,0,0-.51.36,1.21,1.21,0,0,0-.27.53,1.85,1.85,0,0,0,0,.71,3.68,3.68,0,0,0,.27.89,4.27,4.27,0,0,0,.44.81,1.74,1.74,0,0,0,.47.47,1,1,0,0,0,.49.16A1.48,1.48,0,0,0,44.93,18.27Z"
              transform="translate(-2.87 -0.35)"/>
        <path class="cls-3" d="M41.77,23.14A16.34,16.34,0,0,1,14.2,34.78" transform="translate(-2.87 -0.35)"/>
        <path class="cls-3" d="M9.11,22.75A16.33,16.33,0,0,1,36.69,11.09" transform="translate(-2.87 -0.35)"/>
        <path class="cls-4" d="M47,21.51A21.57,21.57,0,0,1,9.35,37.3" transform="translate(-2.87 -0.35)"/>
        <path class="cls-4" d="M3.92,24.44A21.57,21.57,0,0,1,41.53,8.56" transform="translate(-2.87 -0.35)"/>
    </g>
</svg>
