<?xml version="1.0" encoding="UTF-8"?>
<svg width="24px" height="24px" viewBox="0 0 24 24" version="1.1" xmlns="http://www.w3.org/2000/svg" xmlns:xlink="http://www.w3.org/1999/xlink">
    <!-- Generator: Sketch 52.5 (67469) - http://www.bohemiancoding.com/sketch -->
    <title>Icons / plain / danger</title>
    <desc>Created with Sketch.</desc>
    <g id="Icons-/-plain-/-danger" stroke="none" stroke-width="1" fill="none" fill-rule="evenodd">
        <g id="icon" transform="translate(3.000000, 2.000000)" fill="#F9B53F">
            <path d="M10.7888544,1.57770876 L17.5527864,15.1055728 C18.0467649,16.0935298 17.6463162,17.2948759 16.6583592,17.7888544 C16.3806483,17.9277098 16.0744222,18 15.763932,18 L2.23606798,18 C1.13149848,18 0.236067977,17.1045695 0.236067977,16 C0.236067977,15.6895098 0.308358161,15.3832837 0.447213595,15.1055728 L7.21114562,1.57770876 C7.70512412,0.589751769 8.9064702,0.189303076 9.89442719,0.683281573 C10.281482,0.876808975 10.595327,1.19065396 10.7888544,1.57770876 Z M8.50021906,4.49998435 L8.5,11.4999844 C8.49999136,11.7761267 8.72384198,11.9999914 8.99998435,12 C9.27612673,12.0000086 9.49999136,11.776158 9.5,11.5000156 L9.50021906,4.50001565 C9.5002277,4.22387327 9.27637708,4.00000864 9.0002347,4 C8.72409233,3.99999136 8.5002277,4.22384198 8.50021906,4.49998435 Z M9,14 C8.44771525,14 8,14.4477153 8,15 C8,15.5522847 8.44771525,16 9,16 C9.55228475,16 10,15.5522847 10,15 C10,14.4477153 9.55228475,14 9,14 Z" id="Combined-Shape"></path>
        </g>
    </g>
</svg>