<svg width="256" height="256" viewBox="0 0 256 256" fill="none" xmlns="http://www.w3.org/2000/svg">
<path fill-rule="evenodd" clip-rule="evenodd" d="M33.134 221.729C33.134 164.536 79.4985 118.171 136.692 118.171C193.886 118.171 240.25 164.536 240.25 221.729H33.134Z" fill="#E1F2FF"/>
<path d="M64.7848 211.476L69.669 211.415C71.3474 211.394 72.8581 210.348 73.4476 208.773C75.125 204.287 74.6414 200.191 74.8043 196.68C75.1054 190.176 74.0489 186.858 73.013 181.435L65.6834 181.696C65.6834 181.696 66.3406 184.39 66.8576 192.486C67.0175 194.991 63.0024 205.112 63.2585 210.05C63.3006 210.859 63.9745 211.487 64.7848 211.476" fill="#9452BA"/>
<path fill-rule="evenodd" clip-rule="evenodd" d="M62.2786 210.1C62.3483 211.428 63.4371 212.458 64.7634 212.458H64.7967L69.6809 212.396C71.7586 212.37 73.642 211.053 74.3659 209.117C75.7177 205.503 75.7304 202.158 75.7412 199.208C75.7442 198.352 75.7471 197.523 75.7844 196.724C76.0354 191.297 75.3425 187.94 74.5404 184.054L74.5396 184.05C74.5299 184.003 74.5201 183.956 74.5104 183.909C74.3368 183.068 74.1558 182.191 73.9765 181.251L73.8186 180.424L64.4446 180.758L64.73 181.929C64.7369 181.955 65.3726 184.63 65.8787 192.549C65.9355 193.434 65.2229 195.984 64.5324 198.454L64.5289 198.467L64.5282 198.469C63.4003 202.504 62.1217 207.078 62.2786 210.1ZM67.8367 192.424C67.4983 187.125 67.1 184.115 66.8577 182.636L72.2098 182.446C72.3481 183.14 72.4845 183.804 72.6179 184.447L72.6181 184.449C73.4263 188.361 74.0648 191.451 73.8244 196.635C73.787 197.42 73.7835 198.235 73.7799 199.077C73.7797 199.118 73.7795 199.159 73.7793 199.201C73.7685 202.122 73.7568 205.144 72.5286 208.429C72.0862 209.612 70.9316 210.417 69.6564 210.434L64.7722 210.495C64.5182 210.484 64.2533 210.282 64.2386 209.999C64.0983 207.297 65.3843 202.692 66.4192 198.995C67.3462 195.676 67.9103 193.584 67.8367 192.424Z" fill="#52267D"/>
<path d="M50.2755 188.434L44.2946 181.82L40.6553 182.01C40.6553 182.01 40.2148 187.581 40.0353 189.913C39.7175 194.024 38.1165 202.092 37.116 205.636C36.7903 206.79 36.6059 207.866 36.5637 208.839C36.4921 210.479 37.8743 211.814 39.5154 211.794L43.8414 211.74C46.3624 211.708 48.5804 209.998 49.1699 207.546C51.0023 199.915 50.2755 188.434 50.2755 188.434" fill="#9452BA"/>
<path fill-rule="evenodd" clip-rule="evenodd" d="M36.6501 211.579C37.3888 212.34 38.4168 212.774 39.4782 212.774H39.5282L43.8542 212.721C46.855 212.684 49.4339 210.65 50.1245 207.776C51.9696 200.089 51.284 188.847 51.2545 188.371L51.232 188.03L44.7096 180.816L39.746 181.076L39.6773 181.933C39.6773 181.933 39.2369 187.505 39.0564 189.837C38.7582 193.71 37.1945 201.748 36.1724 205.369C35.8271 206.59 35.6299 207.742 35.5838 208.797C35.5387 209.834 35.9173 210.823 36.6501 211.579ZM41.515 183.588C41.5336 183.352 41.5507 183.136 41.5657 182.946L43.8797 182.824L49.3152 188.834C49.4152 190.777 49.8204 200.637 48.2155 207.318C47.7359 209.318 45.9319 210.732 43.8297 210.759L39.5027 210.812H39.4782C38.9455 210.812 38.4296 210.595 38.0597 210.213C37.7046 209.848 37.5222 209.375 37.5438 208.882C37.583 207.979 37.7566 206.977 38.0597 205.902C39.129 202.12 40.7005 194.033 41.0134 189.989C41.1332 188.426 41.3713 185.408 41.515 183.588Z" fill="#52267D"/>
<path fill-rule="evenodd" clip-rule="evenodd" d="M40.7112 194.018L41.9717 195.128L43.863 194.373L43.3529 193.295L41.8226 193.678L42.2052 193.332L41.8775 192.968L40.7112 194.018ZM41.4489 194.014L41.7402 194.27L41.7108 193.779L41.4489 194.014ZM41.8579 194.373L42.0698 194.561L43.1959 194.111L43.0812 193.868L42.3013 194.064L42.319 194.346L41.8579 194.373Z" fill="#52267D"/>
<path d="M41.7056 163.633C46.0012 163.49 49.9887 160.481 58.7496 159.967C58.8693 159.393 59.0164 158.872 59.2077 158.446C60.7508 154.99 62.8647 145.062 61.3452 138.577L60.1435 133.445C59.7492 131.762 59.5393 130.04 59.5167 128.311C59.5079 127.591 59.5726 126.886 59.7031 126.205C59.7355 126.035 59.7718 125.866 59.813 125.699C59.9356 125.197 60.0935 124.709 60.2858 124.239C60.3505 124.081 60.4172 123.926 60.4888 123.773C60.6321 123.467 60.789 123.17 60.9597 122.88C61.1304 122.592 61.3138 122.311 61.511 122.04C62.1025 121.23 62.8078 120.507 63.6024 119.896C63.8682 119.693 64.1439 119.501 64.4283 119.323C65.9939 118.345 67.8391 117.77 69.8187 117.744L71.5295 117.722C74.4115 117.687 77.0346 118.821 78.9455 120.687C79.1848 120.92 79.4124 121.164 79.6282 121.419C80.0216 121.882 80.3708 122.383 80.6788 122.91C80.7946 123.108 80.9064 123.309 81.0084 123.515C81.0839 123.667 81.1555 123.82 81.2232 123.975C81.4273 124.441 81.598 124.925 81.7333 125.423C81.8677 125.921 81.9668 126.435 82.0266 126.961C82.0678 127.31 82.0894 127.667 82.0943 128.027C82.1041 128.745 81.8206 129.399 81.3557 129.876C80.8907 130.353 80.2442 130.652 79.5262 130.662L68.8446 130.795L70.5779 140.048C72.5948 149.549 72.1043 155.928 70.6878 160.193C70.3719 161.144 68.5483 164.522 68.5483 164.522C73.9956 172.886 82.2326 176.468 91.0043 177.427C98.4615 178.243 114.45 171.25 106.064 163.497C97.6787 155.745 107.754 160.505 109.241 161.481C110.727 162.456 119.344 169.716 110.229 180.64C106.375 185.259 101.996 189.47 91.3741 192.789C89.6702 193.321 80.3492 194.116 75.3444 195.621C60.4447 200.103 48.2279 195.587 41.2916 185.8C34.3837 176.052 40.0095 163.689 41.7056 163.633" fill="#9452BA"/>
<path fill-rule="evenodd" clip-rule="evenodd" d="M40.4918 186.367C46.0234 194.173 54.493 198.314 64.2544 198.314C67.8947 198.314 71.7136 197.739 75.6266 196.561C78.6718 195.646 83.466 194.983 86.9708 194.499L86.9831 194.497L86.9955 194.495C89.2904 194.178 90.9494 193.949 91.6662 193.725C102.802 190.246 107.314 185.663 110.981 181.267C114.367 177.211 115.791 173.173 115.211 169.27C114.555 164.847 111.371 161.705 109.779 160.661C109.719 160.621 103.497 156.869 102.061 158.702C101.237 159.758 102.079 161.149 105.399 164.218C107.347 166.019 107.904 167.753 107.099 169.519C105.231 173.622 96.2237 177.025 91.1109 176.451C81.5977 175.411 74.3945 171.38 69.6909 164.468C70.2323 163.447 71.3536 161.301 71.6184 160.502C73.3616 155.257 73.3331 148.306 71.5409 139.867L70.0234 131.762L79.5396 131.642C80.4961 131.63 81.3907 131.244 82.0577 130.561C82.7267 129.876 83.0877 128.971 83.075 128.014C83.0691 127.62 83.0455 127.231 83.0014 126.849C82.9367 126.279 82.8278 125.713 82.6797 125.166C82.5325 124.624 82.3451 124.091 82.1215 123.582C82.0479 123.413 81.9694 123.246 81.887 123.079C81.7752 122.853 81.6536 122.634 81.5261 122.414C81.1827 121.828 80.7962 121.28 80.3774 120.786C80.1409 120.506 79.8918 120.238 79.6299 119.985C77.4492 117.857 74.578 116.676 71.5174 116.741L69.8066 116.763C67.7142 116.79 65.6748 117.387 63.9072 118.491C63.5972 118.685 63.296 118.894 63.0047 119.118C62.1346 119.786 61.3655 120.576 60.7191 121.462C60.5033 121.758 60.3012 122.065 60.1148 122.382C59.9274 122.698 59.7568 123.024 59.6008 123.356C59.5213 123.525 59.4487 123.696 59.3781 123.867C59.1682 124.38 58.9936 124.919 58.8611 125.464C58.816 125.647 58.7758 125.833 58.7395 126.021C58.5953 126.773 58.5266 127.55 58.5355 128.324C58.559 130.122 58.7787 131.92 59.1888 133.67L60.3905 138.801C61.8413 144.993 59.7783 154.762 58.3118 158.046C58.1833 158.334 58.0685 158.661 57.9636 159.036C53.1816 159.4 49.8148 160.495 47.085 161.382L47.073 161.386L47.0684 161.387C44.992 162.063 43.3501 162.597 41.6729 162.652L41.6727 162.652C41.3517 162.663 40.3739 162.696 39.0636 165.336C37.0016 169.49 34.9838 178.594 40.4918 186.367ZM39.4059 170.398C40.1328 167.04 41.411 164.983 41.8799 164.608C43.7828 164.52 45.5926 163.931 47.68 163.252L47.6802 163.252L47.681 163.252C50.4422 162.353 53.8783 161.235 58.8072 160.946L59.5566 160.902L59.7097 160.167C59.8244 159.618 59.9569 159.174 60.103 158.847C61.7049 155.259 63.8718 145.059 62.3004 138.353L61.0987 133.221C60.721 131.61 60.519 129.954 60.4974 128.299C60.4905 127.656 60.5464 127.014 60.6661 126.389C60.6955 126.236 60.7279 126.084 60.7662 125.932C60.876 125.478 61.0212 125.034 61.1938 124.609C61.2517 124.468 61.3135 124.327 61.3783 124.188C61.5078 123.911 61.65 123.641 61.804 123.38C61.959 123.119 62.1248 122.864 62.3033 122.618C62.8409 121.883 63.4795 121.228 64.1985 120.675C64.4398 120.49 64.6909 120.316 64.9489 120.154C66.4096 119.241 68.0978 118.748 69.8311 118.725L71.5419 118.704C71.5812 118.703 71.6214 118.703 71.6616 118.703C74.1434 118.703 76.482 119.654 78.2614 121.39C78.4782 121.601 78.6852 121.823 78.8804 122.053C79.2257 122.462 79.5465 122.918 79.831 123.402C79.9349 123.583 80.037 123.765 80.1292 123.95C80.1978 124.087 80.2626 124.227 80.3244 124.369C80.5098 124.79 80.6648 125.231 80.7864 125.679C80.909 126.132 80.9983 126.601 81.0532 127.073C81.0895 127.39 81.1091 127.713 81.1131 128.04C81.119 128.472 80.9561 128.88 80.652 129.191C80.3518 129.501 79.9467 129.675 79.5131 129.68L67.6652 129.829L69.6173 140.252C71.3408 148.368 71.3879 154.974 69.7566 159.884C69.5457 160.517 68.3744 162.78 67.6858 164.056L67.4082 164.57L67.727 165.058C72.7573 172.782 80.5529 177.27 90.8981 178.403C96.2766 178.988 106.48 175.609 108.885 170.333C109.698 168.547 109.984 165.785 106.73 162.777C105.472 161.613 104.742 160.831 104.319 160.319C105.705 160.754 107.92 161.786 108.702 162.3C109.778 163.007 112.695 165.686 113.27 169.559C113.764 172.885 112.488 176.402 109.475 180.011C105.852 184.354 101.718 188.529 91.0815 191.853C90.5184 192.028 88.6703 192.283 86.7153 192.552C83.1446 193.046 78.2556 193.722 75.0616 194.682C61.2998 198.825 49.2831 195.377 42.0918 185.232C38.1601 179.685 38.7212 173.557 39.4059 170.398Z" fill="#52267D"/>
<path d="M50.8063 149.32C51.0103 138.268 42.1356 129.697 32.1495 127.988C30.0768 127.633 29.396 126.992 27.133 127.02L25.4006 127.042C19.562 127.116 14.8897 131.909 14.9633 137.747C14.9809 139.202 16.1757 140.368 17.6314 140.349C17.6314 140.349 35.4043 140.121 35.4877 140.112C35.4887 140.113 36.9346 140.095 36.9356 140.096C36.9337 140.098 35.4858 140.117 35.4838 140.119C39.4351 141.738 41.9444 146.731 42.4083 149.425C43.0715 153.262 42.6614 156.438 41.3833 159.019C40.5298 160.738 40.4572 162.798 40.6122 164.463C40.6122 164.463 40.6544 164.476 40.7152 164.496C40.7878 165.386 40.9448 166.398 41.2243 167.55C42.8831 166.363 45.465 164.576 45.9368 164.318C46.956 163.764 49.2593 162.5 50.2893 161.892C56.8715 158.007 50.6905 155.605 50.8063 149.32" fill="#9452BA"/>
<path fill-rule="evenodd" clip-rule="evenodd" d="M40.2714 167.782L40.6147 169.193L41.7958 168.348C43.6616 167.012 46.0316 165.384 46.4053 165.18C47.5609 164.551 49.7827 163.33 50.7872 162.737C55.6616 159.861 54.4216 157.204 53.2219 154.633C52.5304 153.153 51.7476 151.475 51.7868 149.338C52.0144 137.046 41.9243 128.666 32.3159 127.021C31.5861 126.896 31.0367 126.731 30.5051 126.571L30.483 126.564C29.5496 126.283 28.6712 126.019 27.1208 126.039L25.3874 126.061C19.0181 126.141 13.9015 131.389 13.9819 137.76C13.9946 138.726 14.3821 139.63 15.0737 140.304C15.7653 140.978 16.6736 141.318 17.6438 141.331C31.0583 141.158 34.4112 141.111 35.2744 141.097C38.8677 142.681 41.0621 147.385 41.4417 149.592C42.046 153.084 41.7291 156.109 40.5039 158.583C39.7083 160.188 39.416 162.197 39.6358 164.553L39.6956 165.185L39.8025 165.222C39.8996 166.039 40.0566 166.897 40.2714 167.782ZM41.5565 163.732L41.5437 163.729C41.4829 162.432 41.5918 160.806 42.2618 159.455C43.6763 156.599 44.051 153.168 43.3752 149.259C42.9475 146.773 41.0111 142.76 37.976 140.444L38.3232 140.096L37.6297 139.402C37.4217 139.194 37.3178 139.135 36.9018 139.121L36.9009 139.116L36.6743 139.119C36.5779 139.109 36.482 139.113 36.3734 139.118C36.3194 139.12 36.2623 139.122 36.2005 139.123L35.8817 139.126L35.8738 139.12L35.45 139.132C35.1116 139.141 23.6374 139.291 17.6183 139.369C17.1827 139.414 16.7599 139.208 16.4431 138.899C16.1272 138.591 15.9497 138.177 15.9438 137.735C15.8771 132.447 20.1246 128.091 25.4129 128.023L27.1453 128.001C28.3901 127.989 29.0778 128.191 29.941 128.451L29.9447 128.452C30.5039 128.619 31.1376 128.809 31.9843 128.955C40.7874 130.462 50.0319 138.105 49.8249 149.302C49.7778 151.893 50.7019 153.873 51.4445 155.463C52.6373 158.019 53.1307 159.077 49.7906 161.048C48.8096 161.626 46.6123 162.834 45.4685 163.457C45.0271 163.697 43.3045 164.882 41.8802 165.883C41.7939 165.378 41.7311 164.887 41.6928 164.416L41.5565 163.732Z" fill="#52267D"/>
<path d="M45.3065 162.154C45.1986 160.45 44.9259 159.577 45.1084 158.88C46.159 154.87 46.5023 153.604 46.4484 149.375C46.3954 145.17 43.9087 141.045 40.286 138.881C40.0869 138.762 37.4962 138.612 35.4833 140.119C39.4355 141.738 41.9438 146.731 42.4088 149.425C43.0719 153.262 42.6619 156.438 41.3827 159.019C40.5303 160.738 40.4577 162.798 40.6127 164.463C40.6127 164.463 45.4576 166.213 45.3065 162.154" fill="#F3E3FF"/>
<path fill-rule="evenodd" clip-rule="evenodd" d="M40.4492 164.926C40.5465 164.96 41.5971 165.326 42.7459 165.326C43.4404 165.326 44.1712 165.192 44.749 164.77C45.4896 164.23 45.8418 163.343 45.7967 162.136L45.7957 162.123C45.7547 161.466 45.6885 160.931 45.6328 160.48L45.6319 160.472L45.6309 160.464C45.549 159.789 45.4949 159.343 45.5828 159.005L45.6122 158.89C46.6452 154.952 46.9924 153.625 46.9395 149.369C46.8845 145.032 44.3713 140.75 40.5368 138.459C40.0993 138.197 37.2957 138.149 35.1896 139.726L34.4971 140.244L35.2975 140.573C38.8692 142.037 41.4412 146.702 41.9248 149.509C42.5468 153.106 42.2162 156.232 40.9429 158.8C40.0032 160.697 39.9796 162.95 40.1238 164.508L40.1532 164.817L40.4456 164.924L40.4492 164.926ZM44.1712 163.978C43.358 164.573 41.8621 164.32 41.0744 164.094C40.9743 162.687 41.0459 160.804 41.8228 159.237C43.1893 156.477 43.5493 153.148 42.893 149.342C42.4241 146.628 40.1013 142.029 36.4933 140.059C38.1413 139.182 39.8913 139.274 40.0336 139.302C43.5827 141.422 45.9085 145.378 45.9585 149.38C46.0105 153.504 45.6986 154.695 44.6637 158.641L44.6342 158.757C44.4979 159.274 44.5646 159.82 44.6567 160.575L44.6588 160.592C44.7127 161.026 44.7755 161.543 44.8167 162.179C44.8481 163.036 44.6303 163.641 44.1712 163.978Z" fill="#52267D"/>
<path d="M19.8765 128.909C19.8765 128.909 19.85 127.062 21.6746 126.306C22.2308 126.074 23.248 125.646 23.248 125.646C23.248 125.646 24.3693 127.943 23.1392 128.541C21.3685 129.402 19.8765 128.909 19.8765 128.909" fill="white"/>
<path fill-rule="evenodd" clip-rule="evenodd" d="M19.7224 129.374C19.7587 129.387 20.2384 129.54 20.9692 129.54C21.6127 129.54 22.4504 129.421 23.3539 128.983C23.71 128.809 23.9679 128.515 24.1004 128.132C24.4653 127.074 23.7688 125.596 23.6884 125.43L23.4843 125.013L23.0566 125.193C23.0566 125.193 22.0423 125.622 21.4871 125.852C19.3781 126.727 19.3849 128.827 19.3859 128.915L19.3908 129.265L19.7224 129.374ZM22.9252 128.1C21.8716 128.613 20.9221 128.588 20.412 128.52C20.513 128.027 20.8338 127.185 21.8628 126.759C22.0551 126.678 22.3025 126.575 22.544 126.473C22.6981 126.409 22.8497 126.345 22.9831 126.29C23.1479 126.747 23.3146 127.401 23.1724 127.812C23.1253 127.951 23.0488 128.04 22.9252 128.1Z" fill="#52267D"/>
<path d="M24.4517 127.552C24.4517 127.552 24.4723 125.036 27.2974 124.633C27.8242 124.559 29.2024 124.574 29.2024 124.574C29.2024 124.574 29.8704 127.228 28.3823 127.503C26.5519 127.84 24.4517 127.552 24.4517 127.552" fill="white"/>
<path fill-rule="evenodd" clip-rule="evenodd" d="M24.3845 128.037C24.4404 128.045 25.2791 128.159 26.3601 128.159C27.0154 128.159 27.7599 128.117 28.4711 127.985C28.9018 127.907 29.2529 127.67 29.4874 127.305C30.1221 126.317 29.7258 124.643 29.6777 124.454L29.5855 124.087L29.2078 124.083C29.2033 124.083 29.1977 124.083 29.1911 124.083C28.9818 124.082 27.7599 124.073 27.2292 124.148C24.6631 124.513 23.9695 126.531 23.9617 127.548L23.9578 127.979L24.3845 128.037ZM28.2936 127.02C27.0792 127.245 25.7176 127.178 25.0064 127.117C25.1575 126.481 25.6656 125.362 27.3666 125.119C27.6658 125.077 28.3259 125.064 28.7978 125.064C28.8763 125.576 28.9253 126.365 28.6624 126.776C28.5731 126.915 28.4594 126.99 28.2936 127.02Z" fill="#52267D"/>
<path d="M30.0817 127.722C30.0817 127.722 30.4191 124.927 32.9343 125.663C34.0094 125.977 34.6137 126.784 34.6137 126.784C34.6137 126.784 34.1418 128.915 33.1422 128.688C31.3961 128.293 30.0817 127.722 30.0817 127.722" fill="white"/>
<path fill-rule="evenodd" clip-rule="evenodd" d="M33.0344 129.166C33.1197 129.186 33.2041 129.196 33.2885 129.196C33.5072 129.196 33.7211 129.132 33.9182 129.006C34.7157 128.502 35.0561 127.053 35.0924 126.89L35.1415 126.669L35.0061 126.49C34.9777 126.451 34.29 125.548 33.0726 125.193C32.2153 124.941 31.4747 125.019 30.8675 125.419C29.7914 126.129 29.603 127.602 29.5952 127.664L29.551 128.027L29.8865 128.173L29.8877 128.174C29.9583 128.204 31.2741 128.768 33.0344 129.166ZM33.2502 128.21C32.1093 127.951 31.15 127.612 30.6487 127.422C30.7507 127.064 30.9705 126.526 31.407 126.237C31.768 126 32.2202 125.967 32.797 126.134C33.416 126.315 33.8584 126.696 34.0732 126.913C33.9339 127.398 33.671 128.002 33.3924 128.178C33.3229 128.221 33.2837 128.215 33.2504 128.211L33.2502 128.21Z" fill="#52267D"/>
<path d="M37.5288 141.175C37.5288 141.175 43.3302 137.924 42.152 132.594C42.9358 133.224 45.0331 135.146 45.7982 136.134C45.811 137.181 46.0552 141.334 40.354 144.188C39.3318 143.155 38.4656 141.86 37.5288 141.175" fill="white"/>
<path fill-rule="evenodd" clip-rule="evenodd" d="M40.0057 144.533L40.2549 144.786L40.5737 144.627C44.4308 142.695 46.3545 139.869 46.2887 136.128L46.2868 135.964L46.1857 135.834C45.401 134.82 43.2968 132.884 42.4591 132.212L41.3722 131.338L41.6734 132.7C42.7573 137.606 37.3444 140.716 37.2885 140.748L36.6244 141.121L37.2394 141.571C37.7623 141.953 38.2861 142.571 38.8384 143.224L38.8486 143.236C39.2162 143.67 39.5965 144.119 40.0057 144.533ZM39.5747 142.576C39.1615 142.088 38.7644 141.619 38.3509 141.227C39.6997 140.291 42.9123 137.65 42.7956 133.798C43.6716 134.587 44.7594 135.64 45.3107 136.309C45.3303 137.553 45.3009 141.014 40.455 143.584C40.1568 143.264 39.8684 142.924 39.5878 142.591L39.5747 142.576Z" fill="#52267D"/>
<path d="M20.6649 128.39C20.6649 128.39 20.6512 127.435 21.5959 127.043C21.8843 126.924 22.4101 126.701 22.4101 126.701C22.4101 126.701 22.9908 127.89 22.3541 128.2C21.4369 128.646 20.6649 128.39 20.6649 128.39" fill="#F3E3FF"/>
<path d="M25.6531 126.968C25.6531 126.968 25.6639 125.684 27.1039 125.479C27.3727 125.441 28.075 125.45 28.075 125.45C28.075 125.45 28.4154 126.803 27.6562 126.943C26.7233 127.115 25.6531 126.968 25.6531 126.968" fill="#F3E3FF"/>
<path d="M30.9802 127.51C30.9802 127.51 31.1597 126.027 32.4938 126.418C33.0647 126.585 33.3845 127.011 33.3845 127.011C33.3845 127.011 33.1344 128.143 32.6037 128.022C31.6777 127.813 30.9802 127.51 30.9802 127.51" fill="#F3E3FF"/>
<path d="M29.6151 138.429L24.2738 138.495C24.2405 135.805 26.3937 133.597 29.0834 133.562L29.5543 133.556C30.8992 133.541 32.0037 134.617 32.0194 135.962C32.0371 137.307 30.96 138.411 29.6151 138.429" fill="#F3E3FF"/>
<path d="M29.164 138.343L24.3642 138.403C24.3377 136.289 26.0299 134.554 28.1438 134.527L29.1159 134.516C30.1724 134.502 31.0396 135.348 31.0533 136.405C31.0661 137.462 30.2205 138.33 29.164 138.343" fill="white"/>
<path fill-rule="evenodd" clip-rule="evenodd" d="M23.8743 138.41L23.8811 138.899L29.1694 138.834C30.4957 138.817 31.561 137.725 31.5433 136.399C31.5277 135.084 30.4525 134.025 29.141 134.025H29.1106L28.1385 134.037C26.9839 134.051 25.9048 134.514 25.1005 135.34C24.2951 136.166 23.8595 137.256 23.8743 138.41ZM29.1214 135.006H29.141C29.5138 135.006 29.8659 135.15 30.1337 135.411C30.4054 135.676 30.5575 136.032 30.5624 136.411C30.5722 137.196 29.9424 137.844 29.1587 137.853L24.8846 137.906C24.9788 137.199 25.2957 136.544 25.8028 136.025C26.4247 135.387 27.2585 135.029 28.1493 135.018L29.1214 135.006Z" fill="#52267D"/>
<path d="M25.2085 136.366C25.2153 136.957 25.6999 137.429 26.2905 137.422C26.881 137.414 27.3538 136.929 27.346 136.339C27.3381 135.749 26.8545 135.277 26.263 135.283C25.6734 135.291 25.2006 135.775 25.2085 136.366" fill="#52267D"/>
<path d="M17.3772 139.55V139.55C17.6803 139.481 17.9491 139.308 18.1394 139.063L18.4926 138.608L17.696 138.789L17.2281 138.895C17.0476 138.937 16.9348 139.117 16.976 139.297C17.0172 139.478 17.1957 139.591 17.3772 139.55" fill="#52267D"/>
<path d="M38.5165 141.268C38.5165 141.268 42.9867 138.788 42.8562 133.907C44.8073 135.292 45.3429 136.196 45.3429 136.196C45.3429 136.196 45.0359 138.524 43.9676 139.711C42.3285 141.533 40.6049 142.108 38.5165 141.268" fill="#EAF3FB"/>
<path d="M42.766 140.357C42.766 140.357 41.015 142.184 39.2944 143.073Z" fill="white"/>
<path d="M39.5195 143.509L39.0692 142.637C40.6986 141.796 42.3956 140.036 42.4113 140.018L43.1205 140.697C43.047 140.774 41.2921 142.593 39.5195 143.509" fill="#52267D"/>
<path d="M60.6522 159.117L59.6241 157.151C55.7651 147.994 55.1186 142.596 56.952 133.789L58.0242 128.628C58.3764 126.935 58.5431 125.208 58.5206 123.479C58.4489 117.716 53.7188 113.103 47.9567 113.175L46.2724 113.196C40.5887 113.268 36.0391 117.933 36.1107 123.617L36.1146 123.914C36.1313 125.266 37.2417 126.349 38.5945 126.331L49.2594 126.197L47.7585 135.491C43.1216 160.404 43.7445 170.472 53.4588 168.28" fill="#9452BA"/>
<path d="M51.0706 169.556C49.2813 169.556 47.8452 169.018 46.72 167.935C43.0601 164.41 43.0797 155.264 46.7946 135.312L48.1051 127.192L38.6066 127.312C37.7012 127.305 36.8262 126.979 36.1689 126.339C35.5127 125.699 35.1458 124.843 35.134 123.925L35.1301 123.63C35.0918 120.619 36.2288 117.774 38.3309 115.617C40.4331 113.461 43.2484 112.254 46.26 112.215L47.9433 112.194C50.9842 112.121 53.8722 113.305 56.0567 115.436C58.2403 117.566 59.4636 120.418 59.5018 123.466C59.5244 125.263 59.3498 127.066 58.9849 128.827L57.9127 133.988C56.1205 142.595 56.7081 147.706 60.5289 156.77L61.5206 158.662L59.7834 159.571L58.7553 157.606C54.7648 148.145 54.1262 142.552 55.991 133.588L57.0632 128.429C57.4006 126.807 57.5605 125.145 57.5399 123.492C57.5076 120.966 56.4952 118.604 54.6883 116.84C52.8794 115.078 50.4898 114.1 47.9688 114.156L46.2845 114.178C41.1512 114.242 37.0272 118.472 37.092 123.605L37.0959 123.902C37.1008 124.293 37.2578 124.66 37.5383 124.934C37.8189 125.208 38.2211 125.343 38.5821 125.35L50.4133 125.202L48.7271 135.647C46.2678 148.867 44.2696 162.851 48.0816 166.521C49.195 167.594 50.8822 167.856 53.2434 167.323L53.674 169.237C52.7333 169.45 51.8671 169.556 51.0706 169.556" fill="#52267D"/>
<path d="M41.1394 114.495C41.1394 114.495 41.2875 112.684 43.0758 111.944C43.6212 111.717 44.4825 111.941 44.4825 111.941C44.4825 111.941 45.5409 113.55 44.3353 114.136C42.6 114.979 41.1394 114.495 41.1394 114.495" fill="white"/>
<path fill-rule="evenodd" clip-rule="evenodd" d="M40.9853 114.961C41.0206 114.973 41.4934 115.124 42.2115 115.124C42.8432 115.124 43.6643 115.007 44.5501 114.577C44.9601 114.378 45.2348 114.058 45.3466 113.652C45.5899 112.767 44.965 111.78 44.8924 111.671L44.7884 111.513L44.605 111.465C44.501 111.438 43.5662 111.207 42.8873 111.491C40.847 112.336 40.6576 114.369 40.6508 114.455L40.6194 114.839L40.9853 114.961ZM44.1204 113.694C43.113 114.185 42.2232 114.178 41.719 114.115C41.8701 113.618 42.2635 112.811 43.264 112.397C43.4897 112.301 43.8811 112.325 44.1675 112.375C44.3068 112.639 44.4853 113.086 44.4 113.394C44.3755 113.482 44.3215 113.598 44.1204 113.694Z" fill="#52267D"/>
<path d="M45.41 113.846C45.41 113.846 45.4326 110.996 48.6325 110.54C49.2299 110.455 49.9979 110.504 49.9979 110.504C49.9979 110.504 51.5469 113.479 49.8606 113.789C47.7888 114.171 45.41 113.846 45.41 113.846" fill="white"/>
<path fill-rule="evenodd" clip-rule="evenodd" d="M45.344 114.331C45.4058 114.34 46.3494 114.467 47.5668 114.467C48.3055 114.467 49.1461 114.419 49.9495 114.272C50.5479 114.162 50.8343 113.808 50.9687 113.532C51.5141 112.416 50.545 110.493 50.4322 110.278L50.3056 110.032L50.028 110.014C50.0259 110.014 50.0205 110.014 50.012 110.013C49.8924 110.007 49.1616 109.97 48.5634 110.054C45.702 110.462 44.929 112.709 44.9192 113.842L44.9153 114.273L45.344 114.331ZM49.772 113.307C48.3417 113.571 46.7349 113.481 45.9541 113.411C46.1003 112.692 46.6496 111.318 48.7018 111.026C49.0304 110.979 49.4247 110.974 49.6857 110.983C50.0054 111.683 50.2978 112.671 50.0878 113.101C50.0486 113.181 49.9799 113.268 49.772 113.307Z" fill="#52267D"/>
<path d="M51.151 114.422C51.151 114.422 51.5512 111.693 53.9967 112.476C55.0424 112.81 55.6143 113.615 55.6143 113.615C55.6143 113.615 55.0974 115.69 54.1243 115.444C52.4253 115.013 51.151 114.422 51.151 114.422" fill="white"/>
<path fill-rule="evenodd" clip-rule="evenodd" d="M54.0036 115.919C54.0968 115.943 54.1909 115.954 54.2832 115.954C54.4892 115.954 54.6922 115.897 54.8815 115.784C55.6634 115.315 56.0253 113.993 56.0901 113.734L56.145 113.514L56.0136 113.331C55.9871 113.292 55.3338 112.389 54.1468 112.008C53.31 111.741 52.5792 111.798 51.973 112.177C50.9037 112.844 50.678 114.271 50.6656 114.35L50.6654 114.351L50.6124 114.713L50.945 114.866C50.9989 114.892 52.28 115.482 54.0036 115.919ZM54.2449 114.969C53.1403 114.687 52.2143 114.335 51.7268 114.135C51.8367 113.788 52.0642 113.277 52.4919 113.01C52.85 112.788 53.2924 112.765 53.8476 112.943C54.444 113.133 54.8649 113.512 55.0709 113.732C54.9227 114.193 54.649 114.779 54.3773 114.942C54.3155 114.98 54.2792 114.977 54.2449 114.969Z" fill="#52267D"/>
<path d="M41.9259 163.3C42.5282 162.837 43.1403 162.566 43.6681 162.433Z" fill="#F3E3FF"/>
<path d="M42.2248 163.689L41.6274 162.911C42.2219 162.454 42.887 162.124 43.5491 161.957L43.7885 162.908C43.4167 163.002 42.8438 163.214 42.2248 163.689" fill="#52267D"/>
<path d="M45.457 163.199C43.6255 156.137 46.5998 142.551 47.1354 139.21L49.2572 125.823L50.2607 125.811C51.533 125.795 52.5129 127.164 52.3481 128.429L50.8335 140.035C50.3225 143.965 49.9664 162.137 56.8301 165.953C58.2947 166.768 60.6509 166.192 61.5367 165.755C64.7562 164.167 65.6371 160.115 66.3061 156.85C67.6902 150.093 66.4797 144.816 66.0874 139.537L65.6636 132.932C65.5871 131.738 66.5209 130.458 67.7148 130.443L68.9331 130.429L71.2943 143.758C72.0015 147.554 73.8643 160.723 66.1707 167.004C66.0324 167.118 68.0679 167.547 67.4921 168.594C65.2074 172.756 58.4428 173.494 57.1901 175.28C52.3638 182.154 57.146 196.613 57.146 196.613C57.146 196.613 51.6674 194.504 48.2536 191.521C40.2726 184.545 39.1416 174.309 39.067 171.293C38.9787 167.684 39.8979 165.433 41.0486 164.082" fill="#F3E3FF"/>
<path d="M57.9373 197.442L56.9701 197.07C56.7425 196.983 51.3708 194.896 47.9306 191.891C39.3227 184.367 38.6282 173.423 38.5772 171.305C38.4968 168.031 39.2021 165.494 40.6745 163.765L41.422 164.401C40.1291 165.919 39.4836 168.299 39.5582 171.28C39.5886 172.534 40.1016 183.744 48.5761 191.151C51.0441 193.308 54.6688 195.021 56.3717 195.76C55.3721 192.308 52.5705 181.006 56.7886 174.998C57.3546 174.191 58.672 173.653 60.3406 172.971C62.7469 171.987 65.7418 170.762 67.0621 168.358C67.118 168.256 67.1043 168.212 67.0984 168.196C67.0219 167.967 66.452 167.713 66.2371 167.619C65.9595 167.494 65.7192 167.387 65.679 167.084L65.6417 166.812L65.8595 166.625C73.2647 160.579 71.5225 147.663 70.8123 143.848L68.5228 130.923L67.7213 130.934C67.3554 130.939 66.9905 131.116 66.6962 131.435C66.3284 131.831 66.1204 132.393 66.1528 132.9L66.5775 139.505C66.6658 140.704 66.7982 141.907 66.9326 143.129C67.3937 147.324 67.8694 151.663 66.7865 156.949C66.1361 160.124 65.2454 164.472 61.7542 166.195C60.8399 166.644 58.2728 167.319 56.5914 166.382C49.2284 162.288 49.9151 143.296 50.3477 139.971L51.8623 128.366C51.9309 127.841 51.7416 127.253 51.3669 126.832C51.0618 126.49 50.6783 126.301 50.2829 126.301H50.2682L49.6767 126.309L47.6196 139.287C47.5471 139.74 47.4293 140.383 47.2861 141.17C46.4141 145.928 44.3747 157.073 45.9324 163.076L44.9819 163.323C43.3702 157.109 45.3635 146.224 46.3199 140.993C46.4631 140.215 46.5789 139.58 46.6505 139.132L48.838 125.338L50.2555 125.32H50.2839C50.9627 125.32 51.6062 125.625 52.0997 126.18C52.6657 126.817 52.9403 127.681 52.8354 128.492L51.3208 140.098C50.7253 144.669 50.6449 161.953 57.0682 165.524C58.3209 166.222 60.4907 165.723 61.3196 165.316C64.3812 163.805 65.216 159.728 65.8251 156.751C66.8767 151.616 66.4098 147.355 65.9576 143.235C65.8222 142.002 65.6888 140.789 65.5985 139.574L65.1738 132.963C65.1238 132.184 65.4239 131.364 65.9762 130.767C66.4559 130.25 67.0719 129.961 67.7095 129.953L69.3428 129.932L71.7766 143.672C72.4937 147.521 74.2172 160.354 67.0317 166.908C67.43 167.113 67.8704 167.416 68.0284 167.884C68.1 168.097 68.1392 168.434 67.9224 168.83C66.4343 171.539 63.2619 172.836 60.7124 173.878C59.3126 174.45 57.9922 174.991 57.591 175.561C52.9609 182.158 57.5645 196.317 57.6116 196.458L57.9373 197.442Z" fill="#52267D"/>
<path d="M109.596 168.304C109.596 168.304 110.702 167.049 110.052 165.389C109.852 164.882 109.154 164.453 109.154 164.453C109.154 164.453 107.41 164.78 107.791 165.954C108.342 167.644 109.596 168.304 109.596 168.304" fill="white"/>
<path fill-rule="evenodd" clip-rule="evenodd" d="M109.368 168.738L109.709 168.919L109.964 168.628C110.018 168.568 111.259 167.126 110.508 165.209C110.256 164.568 109.496 164.088 109.41 164.035L109.249 163.936L109.063 163.971C108.943 163.993 107.872 164.213 107.433 164.956C107.228 165.298 107.192 165.697 107.325 166.106C107.93 167.964 109.31 168.708 109.368 168.738ZM108.275 165.456C108.408 165.232 108.785 165.065 109.058 164.983C109.257 165.133 109.516 165.367 109.595 165.568C109.941 166.452 109.691 167.198 109.466 167.618C109.107 167.32 108.564 166.743 108.258 165.802C108.2 165.621 108.236 165.523 108.275 165.456Z" fill="#52267D"/>
<path d="M109.204 166.584C109.204 166.584 109.592 166.143 109.363 165.56C109.294 165.383 109.049 165.233 109.049 165.233C109.049 165.233 108.437 165.347 108.571 165.758C108.764 166.352 109.204 166.584 109.204 166.584" fill="#F3E3FF"/>
<path d="M100.527 177.317C100.527 177.317 99.4316 174.9 101.956 173.263C102.426 172.957 103.094 172.697 103.094 172.697C103.094 172.697 105.567 174.604 104.265 175.527C102.664 176.66 100.527 177.317 100.527 177.317" fill="white"/>
<path fill-rule="evenodd" clip-rule="evenodd" d="M100.081 177.52L100.259 177.912L100.671 177.785C100.762 177.757 102.902 177.092 104.547 175.928C105.021 175.592 105.127 175.17 105.134 174.876C105.158 173.728 103.688 172.537 103.395 172.309L103.175 172.139L102.917 172.24C102.916 172.241 102.915 172.241 102.912 172.242C102.845 172.269 102.179 172.532 101.688 172.851C99.4122 174.328 99.6408 176.551 100.081 177.52ZM102.223 173.674C102.472 173.512 102.791 173.362 103.012 173.264C103.538 173.721 104.162 174.43 104.153 174.855C104.151 174.934 104.13 175.021 103.98 175.126C102.899 175.893 101.538 176.439 100.84 176.691C100.692 176.023 100.651 174.694 102.223 173.674Z" fill="#52267D"/>
<path d="M101.402 176.391C101.402 176.391 100.795 175.051 102.195 174.143C102.455 173.974 102.825 173.83 102.825 173.83C102.825 173.83 104.198 174.887 103.475 175.398C102.587 176.027 101.402 176.391 101.402 176.391" fill="#F3E3FF"/>
<path d="M108.194 169.261C108.194 169.261 110.058 170.858 108.308 172.328C107.56 172.957 106.682 173.005 106.682 173.005C106.682 173.005 105.364 171.631 106.012 171.015C107.144 169.939 108.194 169.261 108.194 169.261" fill="white"/>
<path fill-rule="evenodd" clip-rule="evenodd" d="M106.329 173.344L106.484 173.507L106.709 173.494C106.752 173.493 107.76 173.429 108.623 172.703C109.233 172.191 109.544 171.599 109.547 170.946C109.553 169.793 108.555 168.924 108.513 168.888L108.235 168.651L107.928 168.849C107.884 168.877 106.826 169.564 105.674 170.659C105.464 170.859 105.35 171.123 105.343 171.423C105.324 172.254 106.16 173.17 106.329 173.344ZM106.35 171.37C107.058 170.698 107.738 170.181 108.127 169.903C108.326 170.146 108.568 170.53 108.566 170.942C108.564 171.299 108.377 171.629 107.992 171.952C107.591 172.29 107.136 172.426 106.874 172.481C106.608 172.157 106.322 171.692 106.35 171.37Z" fill="#52267D"/>
<path d="M107.94 170.412C107.94 170.412 108.766 171.12 107.99 171.771C107.658 172.049 107.27 172.07 107.27 172.07C107.27 172.07 106.686 171.462 106.974 171.189C107.474 170.712 107.94 170.412 107.94 170.412" fill="#F3E3FF"/>
<path d="M91.694 178.705C91.694 178.705 91.0593 176.55 93.4283 175.662C95.7973 174.773 96.4457 175.479 96.4457 175.479C96.4457 175.479 97.7896 177.679 96.6223 178.407C95.4549 179.135 91.694 178.705 91.694 178.705" fill="white"/>
<path fill-rule="evenodd" clip-rule="evenodd" d="M91.6388 179.193C91.8409 179.215 92.8444 179.324 93.9548 179.324C95.0495 179.324 96.2483 179.218 96.882 178.823C98.1288 178.045 97.4568 176.194 96.8064 175.147C96.6613 174.988 95.8078 174.244 93.2554 175.203C91.0433 176.031 90.959 177.948 91.2238 178.844L91.3151 179.155L91.6388 179.193ZM96.363 177.991C95.6803 178.417 93.532 178.386 92.1096 178.255C92.0606 177.725 92.1616 176.66 93.6007 176.121C95.2644 175.497 95.9206 175.735 96.0737 175.815C96.3395 176.287 96.9526 177.623 96.363 177.991Z" fill="#52267D"/>
<path d="M92.8042 178.2C92.8042 178.2 92.4746 177.079 93.7067 176.617C94.9388 176.155 95.2762 176.522 95.2762 176.522C95.2762 176.522 95.9746 177.666 95.3674 178.045C94.7602 178.424 92.8042 178.2 92.8042 178.2" fill="#F3E3FF"/>
<path d="M48.7791 129.087C48.7791 129.087 52.6048 131.188 57.9215 129.182C57.5762 130.843 56.8709 134.183 56.8709 134.183C56.8709 134.183 51.9426 135.763 48.0953 133.409C48.4593 131.205 48.7791 129.087 48.7791 129.087" fill="white"/>
<path fill-rule="evenodd" clip-rule="evenodd" d="M47.839 133.828C49.5812 134.893 51.5107 135.198 53.1499 135.198C55.2688 135.198 56.903 134.688 57.0207 134.65L57.2925 134.564L57.3513 134.284C57.3513 134.284 58.0556 130.944 58.4019 129.282L58.5844 128.408L57.7486 128.722C52.7281 130.619 49.0515 128.677 49.0142 128.657L48.3992 128.322L48.2942 129.014C48.2942 129.015 47.9744 131.13 47.6114 133.33L47.5575 133.656L47.839 133.828ZM56.4528 133.791C55.4296 134.055 51.6961 134.843 48.6346 133.155C48.8553 131.808 49.0534 130.533 49.1663 129.799C50.4091 130.289 53.3942 131.132 57.266 129.926C57.0306 131.051 56.735 132.453 56.5548 133.307C56.5143 133.499 56.4796 133.664 56.4528 133.791Z" fill="#52267D"/>
<path d="M77.0831 119.075C77.0831 119.075 76.8879 117.255 75.0682 116.554C74.513 116.34 73.02 116.299 73.02 116.299C73.02 116.299 72.6256 118.234 73.8548 118.794C75.6234 119.599 77.0831 119.075 77.0831 119.075" fill="white"/>
<path fill-rule="evenodd" clip-rule="evenodd" d="M73.6514 119.241C74.4931 119.623 75.2729 119.733 75.889 119.733C76.6855 119.733 77.2103 119.551 77.2486 119.537L77.6115 119.406L77.5703 119.023C77.5615 118.936 77.3202 116.896 75.2445 116.095C74.6275 115.859 73.1953 115.812 73.0334 115.808L72.6214 115.797L72.539 116.201C72.5204 116.295 72.0858 118.527 73.6514 119.241ZM74.0575 118.347C73.4905 118.09 73.4336 117.302 73.4572 116.809C73.9879 116.843 74.6275 116.91 74.8923 117.011C75.9145 117.405 76.3304 118.212 76.4942 118.71C75.99 118.787 75.0856 118.816 74.0575 118.347Z" fill="#52267D"/>
<path d="M72.4781 118.203C72.4781 118.203 72.3948 115.72 69.5971 115.394C69.0752 115.332 68.4082 115.392 68.4082 115.392C68.4082 115.392 67.1231 118.018 68.5995 118.252C70.4132 118.539 72.4781 118.203 72.4781 118.203" fill="white"/>
<path fill-rule="evenodd" clip-rule="evenodd" d="M68.5226 118.736C69.0964 118.827 69.6909 118.859 70.2392 118.859C71.4801 118.859 72.4964 118.697 72.5562 118.686L72.9829 118.618L72.9682 118.186C72.9349 117.181 72.1982 115.203 69.6546 114.905C69.1073 114.843 68.4417 114.896 68.3701 114.902C68.3674 114.902 68.3656 114.902 68.3646 114.902L68.089 114.928L67.9673 115.176C67.8133 115.491 67.0698 117.113 67.571 118.08C67.7025 118.331 67.9742 118.649 68.5226 118.736ZM68.4421 117.628C68.2655 117.288 68.4863 116.458 68.7335 115.863C68.9551 115.853 69.273 115.848 69.5408 115.881C71.2153 116.077 71.745 117.158 71.9117 117.782C71.2143 117.859 69.8792 117.957 68.6756 117.766C68.5019 117.739 68.4631 117.667 68.4424 117.628L68.4421 117.628Z" fill="#52267D"/>
<path d="M67.1903 118.449C67.1903 118.449 66.7184 115.71 64.2739 116.561C63.2311 116.924 62.674 117.749 62.674 117.749C62.674 117.749 63.2458 119.826 64.2209 119.553C65.9219 119.078 67.1903 118.449 67.1903 118.449" fill="white"/>
<path fill-rule="evenodd" clip-rule="evenodd" d="M63.4686 119.912C63.652 120.016 63.8482 120.069 64.0454 120.069C64.1474 120.069 64.2504 120.054 64.3524 120.026C66.0146 119.561 67.2585 118.961 67.397 118.894C67.4024 118.892 67.4061 118.89 67.4081 118.889L67.7357 118.726L67.6739 118.365C67.6631 118.304 67.4032 116.859 66.3035 116.211C65.6836 115.845 64.9449 115.81 64.1131 116.097C62.9291 116.51 62.2944 117.436 62.2679 117.475L62.1414 117.662L62.2012 117.879C62.2728 118.14 62.6711 119.462 63.4686 119.912ZM63.9512 119.059C63.6697 118.899 63.3832 118.321 63.2204 117.853C63.4235 117.626 63.8384 117.232 64.4348 117.025C64.9871 116.831 65.4354 116.84 65.8023 117.055C66.2466 117.315 66.4889 117.829 66.6086 118.176C66.123 118.39 65.197 118.771 64.0885 119.081C64.0552 119.091 64.0179 119.097 63.9512 119.059Z" fill="#52267D"/>
<path d="M42.0745 114.027C42.0745 114.027 42.1539 113.06 43.1094 112.663C43.4007 112.542 43.8608 112.661 43.8608 112.661C43.8608 112.661 44.4258 113.521 43.7813 113.835C42.8553 114.285 42.0745 114.027 42.0745 114.027" fill="#F3E3FF"/>
<path d="M46.459 113.353C46.459 113.353 46.4737 111.567 48.4797 111.281C48.8525 111.227 49.3351 111.259 49.3351 111.259C49.3351 111.259 50.3063 113.124 49.2488 113.318C47.95 113.557 46.459 113.353 46.459 113.353" fill="#F3E3FF"/>
<path d="M52.2058 114.134C52.2058 114.134 52.4363 112.56 53.8479 113.011C54.4512 113.205 54.7808 113.668 54.7808 113.668C54.7808 113.668 54.4836 114.866 53.9215 114.725C52.9405 114.476 52.2058 114.134 52.2058 114.134" fill="#F3E3FF"/>
<path d="M76.1778 118.621C76.1778 118.621 76.0748 117.66 75.1125 117.288C74.8192 117.174 74.0305 117.153 74.0305 117.153C74.0305 117.153 73.8216 118.177 74.4719 118.472C75.4068 118.898 76.1778 118.621 76.1778 118.621" fill="#F3E3FF"/>
<path d="M71.389 117.778C71.389 117.778 71.3429 116.406 69.7969 116.225C69.5075 116.191 69.1387 116.224 69.1387 116.224C69.1387 116.224 68.4275 117.676 69.2437 117.804C70.2472 117.963 71.389 117.778 71.389 117.778" fill="#F3E3FF"/>
<path d="M66.2113 118.274C66.2113 118.274 65.9523 116.777 64.6162 117.242C64.0453 117.44 63.7402 117.892 63.7402 117.892C63.7402 117.892 64.0541 119.029 64.5868 118.879C65.5177 118.619 66.2113 118.274 66.2113 118.274" fill="#F3E3FF"/>
<path d="M60.1913 133.65C60.1913 133.65 64.9057 134.324 69.3661 133.17C69.8321 135.596 70.1352 137.429 70.1352 137.429C70.1352 137.429 67.0579 139.576 61.3106 138.425C60.5945 135.31 60.1913 133.65 60.1913 133.65" fill="white"/>
<path fill-rule="evenodd" clip-rule="evenodd" d="M61.2141 138.906C62.4698 139.157 63.6008 139.256 64.6073 139.256C68.3172 139.256 70.3115 137.903 70.4155 137.831L70.6695 137.654L70.6185 137.349C70.6185 137.349 70.3154 135.511 69.8475 133.077L69.7484 132.564L69.2432 132.694C64.9319 133.811 60.3068 133.171 60.2607 133.163L59.5436 133.062L59.7143 133.766C59.7152 133.768 60.1174 135.426 60.8326 138.535L60.9032 138.843L61.2141 138.906ZM69.5954 137.177C68.7792 137.615 66.0689 138.796 61.7164 138.003C61.3034 136.211 61.0023 134.934 60.8316 134.216C62.2618 134.352 65.6167 134.538 68.9803 133.769C69.2786 135.343 69.4983 136.605 69.5954 137.177Z" fill="#52267D"/>
<path d="M67.9134 128.826L73.2537 128.759C73.2204 126.067 71.0123 123.914 68.3215 123.947L67.8526 123.954C66.5067 123.971 65.4306 125.075 65.4463 126.421C65.464 127.766 66.5676 128.843 67.9134 128.826" fill="#F3E3FF"/>
<path d="M68.4969 128.727L73.1613 128.668C73.1348 126.554 71.3995 124.863 69.2865 124.888L68.179 124.903C67.1961 124.915 66.4104 125.721 66.4231 126.704C66.4359 127.836 67.3658 128.741 68.4969 128.727" fill="white"/>
<path fill-rule="evenodd" clip-rule="evenodd" d="M66.6973 128.497C67.176 128.962 67.8039 129.217 68.4699 129.217H68.5023L73.6572 129.153L73.6513 128.663C73.6219 126.299 71.6894 124.398 69.3332 124.398H69.2792L68.1727 124.413C67.5665 124.419 66.9995 124.664 66.5757 125.097C66.1539 125.531 65.9244 126.104 65.9322 126.709C65.94 127.388 66.2118 128.022 66.6973 128.497ZM69.292 125.379H69.3341C70.989 125.379 72.3731 126.593 72.6282 128.184L68.4837 128.236H68.4699C68.0618 128.236 67.6763 128.08 67.383 127.794C67.0848 127.503 66.9181 127.115 66.9132 126.699C66.9082 126.353 67.0387 126.028 67.2781 125.782C67.5184 125.536 67.8411 125.399 68.1854 125.394L69.292 125.379Z" fill="#52267D"/>
<path d="M70.4501 127.806C70.1843 127.279 70.3982 126.636 70.9249 126.371C71.4527 126.106 72.0962 126.319 72.3601 126.846C72.6259 127.375 72.412 128.018 71.8843 128.282C71.3565 128.548 70.715 128.334 70.4501 127.806" fill="#52267D"/>
<path d="M49.3721 124.439L44.0318 124.506C43.9974 121.815 46.1516 119.606 48.8414 119.573L49.3113 119.567C50.6571 119.55 51.7607 120.626 51.7774 121.972C51.795 123.318 50.7179 124.421 49.3721 124.439" fill="#F3E3FF"/>
<path d="M48.9219 124.353L44.1211 124.414C44.0956 122.299 45.7878 120.565 47.9007 120.537L48.8738 120.525C49.9303 120.513 50.7975 121.358 50.8112 122.415C50.824 123.473 49.9784 124.34 48.9219 124.353" fill="white"/>
<path fill-rule="evenodd" clip-rule="evenodd" d="M43.6313 124.419L43.6372 124.91L48.9275 124.843C49.57 124.836 50.1703 124.578 50.6186 124.118C51.0669 123.658 51.3092 123.051 51.3014 122.41C51.2857 121.094 50.2086 120.034 48.8961 120.034H48.8676L47.8945 120.047C45.5147 120.078 43.6028 122.039 43.6313 124.419ZM48.8794 121.016H48.897C49.674 121.016 50.3106 121.643 50.3204 122.422C50.3253 122.801 50.1821 123.161 49.9163 123.433C49.6514 123.705 49.2953 123.857 48.9167 123.862L44.6417 123.916C44.8604 122.305 46.2338 121.049 47.9073 121.028L48.8794 121.016Z" fill="#52267D"/>
<path d="M45.4599 123.304C45.919 123.676 46.5909 123.607 46.9637 123.148C47.3355 122.689 47.2658 122.016 46.8077 121.645C46.3486 121.272 45.6767 121.341 45.3039 121.801C44.9321 122.259 45.0018 122.932 45.4599 123.304" fill="#52267D"/>
<path d="M79.7032 129.789V129.789C79.3981 129.728 79.1245 129.564 78.9283 129.321L78.5653 128.876L79.3648 129.037L79.8356 129.132C80.0171 129.168 80.1348 129.346 80.0976 129.526C80.0613 129.709 79.8857 129.825 79.7032 129.789" fill="#52267D"/>
<path d="M38.438 125.308V125.308C38.7411 125.239 39.0109 125.067 39.2002 124.821L39.5534 124.366L38.7578 124.548L38.2899 124.654C38.1084 124.695 37.9956 124.875 38.0368 125.055C38.078 125.236 38.2575 125.349 38.438 125.308" fill="#52267D"/>
<path d="M49.2438 129.775C49.2438 129.775 53.2461 131.422 57.2415 129.821C56.8511 132.182 56.491 133.389 56.491 133.389C56.491 133.389 54.0759 133.561 52.4731 133.267C50.1825 132.846 49.2693 131.818 49.2438 129.775" fill="#EAF3FB"/>
<path d="M54.8201 132.726C54.8201 132.726 51.2023 133.073 48.3801 131.655Z" fill="white"/>
<path d="M53.7846 133.256C52.4564 133.256 50.1403 133.089 48.1598 132.092L48.6002 131.217C51.2645 132.555 54.739 132.24 54.7734 132.237L54.8675 133.215C54.8185 133.219 54.4114 133.256 53.7846 133.256" fill="#52267D"/>
<path d="M67.6529 134.087C67.6529 134.087 64.1342 135.135 61.0109 134.551C61.6289 136.864 61.9506 137.586 61.9506 137.586C61.9506 137.586 66.615 136.905 67.6529 134.087" fill="#EAF3FB"/>
<path d="M66.1719 167.054C66.1719 167.054 65.96 167.21 65.6599 167.397Z" fill="#F3E3FF"/>
<path d="M65.7887 167.605L65.5297 167.189C65.8181 167.009 66.0231 166.859 66.0261 166.856L66.3174 167.252C66.3174 167.252 66.0987 167.413 65.7887 167.605" fill="#52267D"/>
<path d="M68.0102 135.418C68.0102 135.418 64.465 136.136 60.6854 135.733Z" fill="white"/>
<path d="M63.1189 136.348C62.3283 136.348 61.4886 136.312 60.6342 136.221L60.7372 135.246C64.3941 135.633 67.8785 134.945 67.9128 134.938L68.108 135.899C67.9933 135.922 65.8518 136.348 63.1189 136.348" fill="#52267D"/>
<path d="M63.1046 208.63C63.1046 208.63 62.1511 207.873 60.9121 208.918C59.7782 209.874 58.9355 211.337 59.4505 211.477C59.9655 211.617 60.8709 211.748 61.8176 211.561C62.6406 211.399 63.3714 211.55 63.6814 209.818C63.8256 209.011 63.1046 208.63 63.1046 208.63" fill="white"/>
<path fill-rule="evenodd" clip-rule="evenodd" d="M59.3867 211.714C59.5858 211.769 60.1401 211.899 60.8454 211.899C61.1612 211.899 61.5065 211.873 61.8636 211.802C61.966 211.781 62.0657 211.767 62.1636 211.753L62.1765 211.751C62.8877 211.646 63.6234 211.536 63.9226 209.86C64.0599 209.095 63.54 208.59 63.234 208.421C63.0662 208.304 62.0215 207.661 60.7541 208.73C59.8477 209.494 58.9305 210.767 59.0649 211.371C59.1032 211.544 59.2199 211.668 59.3867 211.714ZM61.07 209.106C61.5252 208.721 61.9303 208.61 62.2462 208.61C62.669 208.61 62.9348 208.808 62.9534 208.823L62.9887 208.846L62.9891 208.846C63.0159 208.861 63.5494 209.162 63.44 209.775C63.2026 211.102 62.7652 211.167 62.1042 211.265L62.1039 211.265C62.096 211.266 62.0881 211.268 62.0801 211.269C61.9788 211.284 61.875 211.3 61.7704 211.321C60.801 211.511 59.9331 211.344 59.6168 211.283C59.5881 211.277 59.5639 211.273 59.5446 211.269C59.4652 211.042 60.0684 209.95 61.07 209.106Z" fill="#52267D"/>
<path d="M62.8927 208.912C62.8927 208.912 62.3002 208.441 61.5282 209.092C60.8239 209.686 60.2981 210.598 60.6199 210.684C60.9397 210.771 61.5027 210.853 62.0923 210.736C62.6043 210.636 63.0595 210.73 63.2518 209.652C63.342 209.15 62.8927 208.912 62.8927 208.912" fill="#EAF3FB"/>
<path d="M64.4417 208.595C64.9401 208.522 65.6699 209.596 65.5924 209.925C65.5149 210.257 65.4717 211.348 64.6664 211.477C64.0739 211.571 61.959 211.818 61.4901 211.363C61.0594 210.945 61.8687 208.974 64.4417 208.595" fill="white"/>
<path fill-rule="evenodd" clip-rule="evenodd" d="M61.3197 211.539C61.5875 211.799 62.2055 211.877 62.8421 211.877C63.6769 211.877 64.546 211.744 64.7049 211.719C65.5647 211.581 65.7236 210.621 65.8003 210.158L65.8006 210.156C65.8105 210.085 65.8203 210.027 65.8311 209.982C65.9125 209.634 65.5544 209.086 65.2935 208.802C65.0796 208.57 64.7461 208.297 64.4067 208.353C62.6155 208.616 61.5109 209.67 61.2117 210.598C61.0803 211.002 61.1195 211.345 61.3197 211.539ZM61.6777 210.749C61.867 210.165 62.6685 209.103 64.4773 208.837C64.5519 208.843 64.6716 208.88 64.8481 209.047C65.162 209.347 65.3631 209.762 65.3543 209.871C65.3416 209.923 65.3288 209.994 65.3151 210.077C65.2307 210.597 65.1002 211.159 64.6284 211.233C63.5768 211.403 61.9632 211.48 61.661 211.187C61.6306 211.157 61.5943 211.011 61.6777 210.749Z" fill="#52267D"/>
<path d="M64.9446 208.491C65.4419 208.418 66.1727 209.492 66.0952 209.821C66.0177 210.153 65.9746 211.243 65.1692 211.372C64.5767 211.466 62.4618 211.713 61.9929 211.259C61.5622 210.84 62.3715 208.869 64.9446 208.491" fill="white"/>
<path fill-rule="evenodd" clip-rule="evenodd" d="M61.6524 211.612C61.9762 211.926 62.6667 212.019 63.3711 212.019C64.1264 212.019 64.8984 211.911 65.2476 211.856C66.2823 211.69 66.4659 210.57 66.5444 210.091L66.5444 210.091C66.5474 210.074 66.5502 210.057 66.5528 210.041C66.5596 209.999 66.5655 209.963 66.5719 209.934C66.6837 209.46 66.2502 208.83 65.9775 208.532C65.6135 208.136 65.2368 207.95 64.8739 208.005C62.8492 208.303 61.7809 209.49 61.4808 210.416C61.3199 210.913 61.3817 211.349 61.6524 211.612ZM62.6089 210.326C62.8266 209.996 63.4917 209.207 64.9896 208.981C65.1907 209.045 65.5831 209.573 65.6175 209.71C65.6047 209.767 65.591 209.844 65.5772 209.933C65.5046 210.368 65.4036 210.838 65.0917 210.886C63.9126 211.077 62.5716 211.084 62.3774 210.968C62.3597 210.905 62.394 210.652 62.6089 210.326Z" fill="#52267D"/>
<path d="M65.0883 208.789C65.3816 208.746 65.8123 209.38 65.7662 209.575C65.721 209.77 65.6955 210.413 65.2217 210.488C64.8706 210.544 63.6228 210.69 63.3471 210.423C63.0921 210.175 63.5698 209.013 65.0883 208.789" fill="#EAF3FB"/>
<path d="M66.7206 209.001C66.7206 209.001 66.3381 208.807 65.5906 209.248C64.9294 209.636 63.9436 210.258 64.2143 211.012C64.486 211.765 66.5843 211.457 67.0502 211.292C67.5162 211.126 67.8036 210.613 67.7153 210.167C67.5221 209.198 66.7206 209.001 66.7206 209.001" fill="white"/>
<path fill-rule="evenodd" clip-rule="evenodd" d="M63.7534 211.178C63.982 211.812 64.7657 211.986 65.5338 211.985C66.296 211.985 67.0445 211.815 67.2152 211.754C67.9038 211.509 68.3345 210.771 68.1961 210.072C68.0029 209.096 67.2927 208.653 66.8758 208.534C66.6796 208.461 66.1479 208.351 65.3416 208.825L65.3402 208.826C64.7381 209.181 63.3329 210.008 63.7534 211.178ZM65.8389 209.671C66.1656 209.479 66.3735 209.449 66.4726 209.449C66.503 209.449 66.5236 209.452 66.5334 209.454L66.5962 209.475C66.6482 209.49 67.1092 209.638 67.2338 210.264C67.2721 210.458 67.1318 210.741 66.8856 210.83C66.347 211.021 64.8619 211.098 64.6765 210.846C64.5313 210.441 65.5152 209.861 65.8389 209.671Z" fill="#52267D"/>
<path d="M66.8671 209.267C66.8671 209.267 66.6405 209.153 66.1971 209.413C65.8067 209.644 65.2221 210.012 65.3829 210.458C65.5428 210.904 66.7867 210.721 67.0623 210.624C67.337 210.525 67.5077 210.222 67.4557 209.958C67.3419 209.384 66.8671 209.267 66.8671 209.267" fill="#EAF3FB"/>
<path d="M64.5855 208.894C64.8788 208.851 65.3095 209.484 65.2634 209.679C65.2192 209.874 65.1927 210.517 64.7189 210.593C64.3678 210.649 63.12 210.794 62.8443 210.527C62.5893 210.279 63.067 209.117 64.5855 208.894" fill="#EAF3FB"/>
<path d="M66.5522 208.779C66.5522 208.779 66.1196 208.56 65.273 209.059C64.5265 209.498 63.4111 210.201 63.7172 211.052C64.0242 211.905 66.3981 211.557 66.9249 211.369C67.4507 211.181 67.7754 210.601 67.6763 210.099C67.4586 209.003 66.5522 208.779 66.5522 208.779" fill="white"/>
<path fill-rule="evenodd" clip-rule="evenodd" d="M63.4866 211.136C63.6857 211.69 64.4401 211.851 65.2072 211.851C65.9743 211.851 66.7551 211.69 67.0072 211.6C67.6341 211.376 68.0412 210.681 67.9166 210.051C67.688 208.903 66.7934 208.593 66.6335 208.548C66.503 208.496 65.9939 208.35 65.1483 208.847L65.1453 208.849C64.479 209.242 63.0987 210.056 63.4866 211.136ZM65.3975 209.271C65.8095 209.027 66.1018 208.977 66.2715 208.977C66.3814 208.977 66.4403 208.998 66.4481 209.001L66.4922 209.017C66.4926 209.017 66.493 209.017 66.4935 209.017C66.5382 209.03 67.2544 209.235 67.4359 210.146C67.5144 210.541 67.2417 210.996 66.8424 211.138C66.2264 211.356 64.1586 211.554 63.9486 210.969C63.7269 210.354 64.5568 209.765 65.3975 209.271Z" fill="#52267D"/>
<path d="M66.7179 209.081C66.7179 209.081 66.4609 208.95 65.9606 209.246C65.5173 209.507 64.8581 209.922 65.0395 210.427C65.221 210.931 66.6257 210.725 66.9387 210.613C67.2496 210.502 67.4419 210.16 67.383 209.862C67.2545 209.212 66.7179 209.081 66.7179 209.081" fill="#EAF3FB"/>
<path d="M56.2656 181.618C56.2656 181.618 56.8189 187.123 55.527 195.804C54.3243 203.883 52.0436 206.442 52.2398 208.531C52.3918 210.148 53.0942 211.623 54.7177 211.603L59.5636 211.541C61.8266 211.514 63.8042 210.044 64.5037 207.891C65.0687 206.159 65.6484 203.802 65.9741 200.829C66.2968 196.787 66.1664 192.737 66.0693 190.36" fill="#9452BA"/>
<path d="M54.684 212.584C52.7731 212.584 51.4959 211.107 51.2634 208.622C51.1594 207.514 51.5675 206.417 52.1335 204.898C52.8692 202.922 53.8786 200.216 54.5565 195.659C55.8121 187.221 55.2951 181.769 55.2892 181.715L57.2413 181.52C57.2649 181.749 57.7926 187.247 56.4978 195.949C55.7886 200.708 54.6958 203.643 53.9718 205.583C53.4794 206.906 53.1547 207.779 53.2165 208.438C53.3107 209.436 53.6422 210.621 54.6879 210.621H54.7046L59.5515 210.56C61.3849 210.538 63.0005 209.343 63.5714 207.588C64.2473 205.511 64.728 203.201 64.9997 200.722C65.3362 196.48 65.1576 192.062 65.089 190.4L67.0489 190.32C67.1578 192.982 67.2657 196.974 66.9528 200.907C66.6634 203.548 66.1543 205.99 65.4372 208.195C64.6054 210.751 62.2501 212.489 59.576 212.523L54.7301 212.584H54.684Z" fill="#52267D"/>
<path d="M81.1583 184.952C79.5711 186.354 78.7668 188.627 78.806 190.706C78.857 193.482 80.5119 196.996 79.5486 201.622C78.6912 205.743 76.8902 206.492 77.4817 210.172C77.5886 210.836 78.1929 211.307 78.8649 211.299L84.265 211.231C86.7507 211.2 88.8559 209.371 89.2306 206.914C90.2341 200.351 89.3277 194.18 88.3958 189.448" fill="#9452BA"/>
<path d="M78.8467 212.28C77.694 212.28 76.6945 211.446 76.513 210.329C76.1108 207.825 76.7033 206.487 77.3909 204.939C77.8029 204.011 78.2689 202.96 78.5877 201.423C79.1841 198.562 78.7054 196.134 78.2846 193.993C78.058 192.842 77.8441 191.754 77.8245 190.725C77.7774 188.215 78.8055 185.721 80.5084 184.216L81.8082 185.687C80.5241 186.822 79.7491 188.737 79.7864 190.688C79.8021 191.544 79.9914 192.503 80.2102 193.614C80.6448 195.823 81.1862 198.572 80.5094 201.823C80.1464 203.565 79.6128 204.767 79.1841 205.735C78.5553 207.152 78.1404 208.089 78.4504 210.017C78.4778 210.187 78.6966 210.336 78.8526 210.318L84.2527 210.25C86.2705 210.225 87.9568 208.76 88.2618 206.765C89.2477 200.316 88.3364 194.224 87.4329 189.637L89.3586 189.258C90.2924 194.001 91.2322 200.311 90.2002 207.062C89.75 210.01 87.2593 212.176 84.2772 212.212L78.8771 212.28H78.8467Z" fill="#52267D"/>
<path d="M82.5281 192.065L80.6741 191.18L82.4869 189.694L83.2657 189.943L83.1166 190.41L82.5918 190.242L81.5824 191.07L82.4898 191.504L83.0127 191.16L82.6683 191.087L82.4417 191.254L82.1504 190.859L82.5526 190.562L84.2673 190.924L82.5281 192.065Z" fill="#52267D"/>
<path d="M53.3017 208.752C53.3017 208.752 52.3482 207.996 51.1093 209.042C49.9753 209.996 49.1327 211.46 49.6477 211.599C50.1627 211.74 51.0681 211.871 52.0147 211.684C52.8377 211.523 53.5685 211.673 53.8785 209.941C54.0227 209.135 53.3017 208.752 53.3017 208.752" fill="white"/>
<path fill-rule="evenodd" clip-rule="evenodd" d="M49.5192 212.073C49.7811 212.144 50.3373 212.268 51.0348 212.268C51.3663 212.268 51.7293 212.241 52.1079 212.165C52.1805 212.151 52.2522 212.14 52.3228 212.129C52.3514 212.125 52.3798 212.121 52.4081 212.116C53.2959 211.985 54.0551 211.737 54.3612 210.027C54.5201 209.143 53.9561 208.562 53.5696 208.341C53.1075 208 51.9824 207.663 50.7925 208.666C49.9744 209.356 48.8463 210.748 49.0229 211.548C49.0797 211.808 49.2661 212.004 49.5192 212.073ZM51.9196 211.204C51.1368 211.356 50.4217 211.265 50.0273 211.185C50.1755 210.804 50.6895 210.036 51.4252 209.416C52.3032 208.676 52.9241 209.083 53.0006 209.14L53.0722 209.185C53.0724 209.185 53.073 209.186 53.074 209.186C53.1032 209.204 53.4736 209.422 53.3959 209.855C53.1899 211.009 52.88 211.055 52.2639 211.146C52.2434 211.149 52.2228 211.152 52.2021 211.155C52.1099 211.17 52.0157 211.184 51.9196 211.204Z" fill="#52267D"/>
<path d="M53.09 209.035C53.09 209.035 52.4975 208.565 51.7255 209.215C51.0212 209.809 50.4954 210.72 50.8171 210.808C51.1369 210.895 51.7 210.976 52.2895 210.86C52.8016 210.76 53.2568 210.853 53.449 209.775C53.5393 209.273 53.09 209.035 53.09 209.035" fill="#EAF3FB"/>
<path d="M60.9769 197.16L58.6775 197.021L58.3381 194.834L60.459 194.144L60.61 194.609L58.8855 195.172L59.1013 196.556L60.7601 196.655L61.3938 195.905L60.557 195.454L60.0538 195.607L60.4197 196.004L60.0587 196.337L59.1621 195.366L60.609 194.926L62.158 195.758L60.9769 197.16Z" fill="#52267D"/>
<path d="M18.9569 136.644C18.6037 136.644 18.3134 136.358 18.3085 136.004L18.5537 136C18.5547 136.108 18.5988 136.209 18.6753 136.284C18.7509 136.358 18.8509 136.399 18.9569 136.399H18.9618C19.1835 136.396 19.362 136.213 19.3591 135.99L19.6043 135.986C19.6063 136.16 19.5415 136.324 19.4209 136.448C19.3002 136.572 19.1384 136.642 18.9657 136.644H18.9569Z" fill="#F3E3FF"/>
<path d="M17.905 136.657C17.7343 136.657 17.5744 136.592 17.4528 136.474C17.3292 136.351 17.2595 136.189 17.2576 136.017L17.5028 136.014C17.5038 136.121 17.5479 136.222 17.6244 136.298C17.7 136.372 17.8 136.412 17.905 136.412H17.9079C18.0178 136.411 18.1188 136.367 18.1934 136.29C18.2689 136.213 18.3091 136.111 18.3082 136.004L18.5534 136C18.5554 136.173 18.4906 136.337 18.37 136.461C18.2483 136.586 18.0865 136.655 17.9138 136.657H17.905Z" fill="#F3E3FF"/>
<path d="M18.4366 137.175C18.2669 137.175 18.107 137.111 17.9854 136.992C17.8608 136.87 17.7911 136.708 17.7892 136.537L18.0344 136.533C18.0354 136.641 18.0795 136.742 18.1561 136.816C18.2316 136.89 18.3317 136.93 18.4376 136.93H18.4425C18.6642 136.928 18.8427 136.746 18.8408 136.522L19.086 136.52C19.0899 136.877 18.8025 137.172 18.4454 137.175H18.4366Z" fill="#F3E3FF"/>
<path d="M38.9611 135.49C38.8031 135.49 38.6442 135.449 38.499 135.362L38.6256 135.151C38.7757 135.241 38.9473 135.267 39.119 135.226C39.2877 135.184 39.4309 135.079 39.5202 134.931C39.6104 134.781 39.6369 134.607 39.5957 134.437C39.5535 134.269 39.4486 134.125 39.3005 134.036L39.427 133.825C39.632 133.95 39.7762 134.146 39.8341 134.379C39.891 134.611 39.8547 134.852 39.7311 135.057C39.5624 135.336 39.2661 135.49 38.9611 135.49" fill="#F3E3FF"/>
<path d="M39.2235 136.554C39.0656 136.554 38.9067 136.513 38.7615 136.425L38.888 136.214C39.0381 136.305 39.2088 136.332 39.3814 136.29C39.5502 136.248 39.6934 136.143 39.7826 135.995C39.8729 135.844 39.8994 135.671 39.8582 135.501C39.816 135.332 39.711 135.189 39.5629 135.1L39.6895 134.889C39.8945 135.013 40.0387 135.21 40.0966 135.442C40.1534 135.675 40.1172 135.916 39.9936 136.121C39.8248 136.4 39.5286 136.554 39.2235 136.554" fill="#F3E3FF"/>
<path d="M64.4303 153.421C64.2126 153.421 64.0075 153.337 63.8526 153.186C63.6936 153.032 63.6054 152.825 63.6024 152.604L63.8477 152.601C63.8496 152.756 63.9124 152.902 64.0232 153.01C64.1331 153.117 64.2773 153.175 64.4303 153.175H64.4352C64.759 153.172 65.0169 152.908 65.013 152.586L65.2583 152.583C65.2641 153.039 64.8973 153.415 64.4411 153.421H64.4303Z" fill="#F3E3FF"/>
<path d="M63.0212 153.439C62.5699 153.439 62.1991 153.075 62.1923 152.622L62.4375 152.618C62.4424 152.937 62.7033 153.194 63.0212 153.194H63.028C63.184 153.192 63.3282 153.13 63.4371 153.018C63.546 152.906 63.6048 152.76 63.6029 152.604L63.8481 152.601C63.8511 152.822 63.7677 153.031 63.6137 153.189C63.4587 153.348 63.2517 153.436 63.032 153.439H63.0212Z" fill="#F3E3FF"/>
<path d="M63.7348 154.134C63.2826 154.134 62.9127 153.77 62.9069 153.318L63.1521 153.314C63.156 153.633 63.417 153.889 63.7348 153.889H63.7397C64.0624 153.885 64.3204 153.621 64.3165 153.3L64.5617 153.297C64.5676 153.753 64.2007 154.129 63.7456 154.134H63.7348Z" fill="#F3E3FF"/>
<path d="M43.9377 198.354C43.7199 198.354 43.5149 198.271 43.3599 198.12C43.201 197.965 43.1127 197.759 43.1097 197.537L43.355 197.533C43.3569 197.689 43.4197 197.835 43.5306 197.943C43.6404 198.05 43.7846 198.109 43.9377 198.109H43.9445C44.1005 198.107 44.2457 198.045 44.3546 197.934C44.4635 197.822 44.5223 197.676 44.5203 197.52L44.7656 197.517C44.7685 197.737 44.6851 197.946 44.5302 198.104C44.3752 198.263 44.1692 198.352 43.9485 198.354H43.9377Z" fill="#F3E3FF"/>
<path d="M42.5285 198.372C42.0763 198.372 41.7055 198.008 41.6996 197.555L41.9448 197.551C41.9487 197.87 42.2097 198.126 42.5285 198.126H42.5354C42.8561 198.122 43.1141 197.859 43.1102 197.537L43.3554 197.534C43.3613 197.99 42.9944 198.366 42.5393 198.372H42.5285Z" fill="#F3E3FF"/>
<path d="M43.2421 199.068C43.0243 199.068 42.8193 198.985 42.6633 198.834C42.5054 198.68 42.4171 198.473 42.4142 198.251L42.6594 198.247C42.6614 198.403 42.7242 198.549 42.835 198.657C42.9449 198.765 43.0969 198.839 43.249 198.823C43.4049 198.821 43.5491 198.759 43.658 198.647C43.7669 198.536 43.8258 198.389 43.8238 198.233L44.0691 198.23C44.072 198.451 43.9886 198.66 43.8346 198.818C43.6796 198.977 43.4726 199.065 43.2529 199.068H43.2421Z" fill="#F3E3FF"/>
<path d="M63.1265 131.033C62.637 131.033 62.2348 130.637 62.2279 130.147L62.4731 130.143C62.478 130.5 62.7704 130.788 63.1265 130.788H63.1314C63.3079 130.786 63.4708 130.716 63.5924 130.591C63.714 130.466 63.7788 130.302 63.7768 130.127L64.0221 130.123C64.025 130.364 63.9348 130.59 63.768 130.762C63.6003 130.933 63.3766 131.03 63.1372 131.033H63.1265Z" fill="#F3E3FF"/>
<path d="M62.3602 131.817C61.8717 131.817 61.4705 131.422 61.4636 130.932L61.7089 130.928C61.7108 131.101 61.7805 131.265 61.9051 131.387C62.0277 131.507 62.1885 131.571 62.3602 131.571H62.3661C62.5437 131.569 62.7065 131.5 62.8281 131.375C62.9498 131.251 63.0145 131.086 63.0125 130.912L63.2578 130.908C63.2607 131.148 63.1705 131.375 63.0027 131.547C62.835 131.718 62.6113 131.814 62.372 131.817H62.3602Z" fill="#F3E3FF"/>
<path d="M53.5642 145.004C53.2846 145.004 53.0208 144.897 52.8206 144.701C52.6166 144.503 52.5028 144.238 52.4999 143.954L52.7451 143.952C52.75 144.399 53.1169 144.759 53.5642 144.759H53.574C54.0243 144.753 54.3872 144.381 54.3823 143.929L54.6276 143.927C54.6344 144.514 54.1616 144.997 53.577 145.004H53.5642Z" fill="#F3E3FF"/>
<path d="M52.6331 145.957C52.3545 145.957 52.0906 145.85 51.8905 145.654C51.6874 145.455 51.5736 145.191 51.5707 144.906L51.8159 144.904C51.8189 145.122 51.9062 145.326 52.0621 145.479C52.2161 145.629 52.4182 145.712 52.6331 145.712H52.6438C52.8626 145.709 53.0666 145.621 53.2197 145.465C53.3727 145.309 53.4551 145.102 53.4521 144.883L53.6974 144.88C53.7013 145.164 53.5934 145.434 53.3943 145.637C53.1961 145.84 52.9313 145.954 52.6468 145.957H52.6331Z" fill="#F3E3FF"/>
<path d="M39.2847 121.463C38.8757 121.463 38.5392 121.132 38.5333 120.72L38.7786 120.716C38.7805 120.853 38.8355 120.979 38.9326 121.075C39.0287 121.168 39.1533 121.221 39.2926 121.218C39.5722 121.215 39.7958 120.985 39.7939 120.705L40.0391 120.703C40.0411 120.903 39.9645 121.092 39.8252 121.236C39.684 121.381 39.4966 121.461 39.2955 121.463H39.2847Z" fill="#F3E3FF"/>
<path d="M38.666 122.101C38.254 122.101 37.9175 121.77 37.9126 121.358L38.1578 121.356C38.1598 121.491 38.2138 121.618 38.3109 121.712C38.406 121.805 38.5316 121.856 38.666 121.856H38.6719C38.8072 121.854 38.9328 121.799 39.0279 121.703C39.1231 121.606 39.1741 121.477 39.1721 121.343L39.4174 121.339C39.4223 121.754 39.0897 122.095 38.6748 122.101H38.666Z" fill="#F3E3FF"/>
<path d="M99.2513 183.825C99.2317 183.825 99.212 183.824 99.1914 183.823C98.9658 183.808 98.7598 183.706 98.6107 183.534L98.7961 183.373C98.9021 183.495 99.0482 183.567 99.2091 183.579C99.3533 183.59 99.523 183.538 99.6446 183.433C99.7663 183.326 99.8398 183.181 99.8506 183.02C99.8624 182.86 99.8104 182.704 99.7045 182.582L99.8899 182.421C100.039 182.592 100.112 182.811 100.095 183.036C100.08 183.263 99.9762 183.469 99.8055 183.617C99.6505 183.753 99.4553 183.825 99.2513 183.825" fill="#F3E3FF"/>
<path d="M99.1795 184.848C98.9421 184.848 98.7067 184.749 98.5389 184.556L98.7243 184.395C98.9421 184.646 99.3237 184.673 99.5738 184.455C99.824 184.237 99.8515 183.856 99.6327 183.605L99.8181 183.444C100.124 183.798 100.088 184.334 99.7347 184.641C99.5748 184.78 99.3767 184.848 99.1795 184.848" fill="#F3E3FF"/>
<path d="M70.5402 174.418C70.4293 174.418 70.3175 174.399 70.2106 174.36C69.9654 174.273 69.7701 174.094 69.6593 173.86L69.881 173.754C70.0527 174.117 70.4862 174.275 70.8492 174.103C71.2131 173.933 71.3691 173.498 71.1974 173.134L71.4191 173.029C71.6477 173.515 71.4397 174.096 70.9551 174.325C70.8227 174.388 70.6824 174.418 70.5402 174.418" fill="#F3E3FF"/>
<path d="M69.0027 175.143C68.6378 175.143 68.2876 174.936 68.1218 174.585L68.3435 174.479C68.4259 174.656 68.5731 174.789 68.7555 174.854C68.9399 174.92 69.1381 174.912 69.3107 174.828C69.6747 174.657 69.8306 174.222 69.659 173.859L69.8817 173.754C70.1092 174.24 69.9013 174.821 69.4167 175.049C69.2823 175.113 69.142 175.143 69.0027 175.143" fill="#F3E3FF"/>
<path d="M70.1341 175.55C70.0232 175.55 69.9114 175.53 69.8035 175.492C69.5592 175.405 69.364 175.226 69.2532 174.992L69.4749 174.886C69.5573 175.062 69.7044 175.196 69.8869 175.261C70.0713 175.327 70.2694 175.318 70.4421 175.235C70.6187 175.153 70.7521 175.005 70.8178 174.823C70.8845 174.639 70.8747 174.442 70.7913 174.267L71.013 174.162C71.1238 174.397 71.1366 174.661 71.0493 174.906C70.961 175.151 70.7825 175.346 70.548 175.457C70.4156 175.52 70.2753 175.55 70.1341 175.55" fill="#F3E3FF"/>
<path d="M68.5955 176.275C68.4846 176.275 68.3728 176.256 68.2659 176.217C68.0207 176.13 67.8254 175.951 67.7146 175.717L67.9363 175.611C68.107 175.974 68.5435 176.132 68.9045 175.96C69.2684 175.789 69.4244 175.355 69.2527 174.991L69.4744 174.886C69.703 175.372 69.495 175.953 69.0104 176.182C68.878 176.245 68.7377 176.275 68.5955 176.275" fill="#F3E3FF"/>
<path d="M71.2664 175.956C70.9005 175.956 70.5503 175.749 70.3845 175.399L70.6062 175.293C70.7769 175.658 71.2134 175.812 71.5744 175.641C71.751 175.559 71.8834 175.412 71.9491 175.229C72.0158 175.046 72.006 174.848 71.9227 174.673L72.1453 174.568C72.2552 174.803 72.268 175.067 72.1806 175.312C72.0924 175.557 71.9148 175.752 71.6804 175.863C71.546 175.926 71.4057 175.956 71.2664 175.956" fill="#F3E3FF"/>
<path d="M55.2321 127.857C54.6965 127.857 54.258 127.425 54.2511 126.889L54.4963 126.885C54.5012 127.288 54.8308 127.611 55.2321 127.611H55.2409C55.646 127.606 55.9717 127.273 55.9668 126.868L56.212 126.864C56.2189 127.405 55.7843 127.85 55.2448 127.857H55.2321Z" fill="#F3E3FF"/>
<path d="M55.3422 160.287C54.8066 160.287 54.3681 159.855 54.3612 159.319L54.6064 159.315C54.6113 159.718 54.9409 160.041 55.3422 160.041H55.351C55.7561 160.037 56.0818 159.702 56.0769 159.297L56.3221 159.293C56.329 159.834 55.8944 160.28 55.3549 160.287H55.3422Z" fill="#F3E3FF"/>
<path d="M64.6335 142.085C64.2107 142.085 63.8654 141.745 63.8595 141.323L64.1047 141.319C64.1087 141.607 64.3451 141.84 64.6335 141.84H64.6394C64.7786 141.838 64.9111 141.781 65.0102 141.681C65.1082 141.579 65.1612 141.446 65.1593 141.306L65.4045 141.302C65.4074 141.508 65.3299 141.703 65.1848 141.852C65.0415 142 64.8483 142.082 64.6423 142.085H64.6335Z" fill="#F3E3FF"/>
<path d="M79.7625 126.958C79.6016 126.958 79.4506 126.897 79.3348 126.784C79.2181 126.67 79.1533 126.517 79.1514 126.355L79.3966 126.353C79.3976 126.449 79.4368 126.54 79.5065 126.609C79.5761 126.676 79.6654 126.713 79.7615 126.713H79.7664C79.9665 126.71 80.1284 126.544 80.1264 126.343L80.3717 126.341C80.3756 126.676 80.1049 126.953 79.7694 126.958H79.7625Z" fill="#F3E3FF"/>
<path d="M85.0724 198.843C84.8772 198.843 84.6849 198.783 84.5211 198.671C84.3043 198.522 84.1591 198.299 84.1121 198.042L84.3534 197.997C84.3887 198.19 84.4976 198.358 84.6594 198.468C84.8213 198.578 85.0155 198.619 85.2097 198.584C85.403 198.548 85.5707 198.44 85.6816 198.277C85.7924 198.115 85.8336 197.92 85.7973 197.727L86.0386 197.681C86.0867 197.939 86.0328 198.2 85.8837 198.415C85.7365 198.632 85.5129 198.778 85.2558 198.826C85.194 198.837 85.1332 198.843 85.0724 198.843" fill="#F3E3FF"/>
<path d="M61.5526 205.689C61.274 205.689 61.0101 205.583 60.811 205.387C60.607 205.189 60.4932 204.923 60.4893 204.639L60.7345 204.635C60.7374 204.854 60.8257 205.058 60.9817 205.212C61.1357 205.361 61.3378 205.444 61.5526 205.444H61.5634C61.7822 205.441 61.9862 205.352 62.1402 205.196C62.2922 205.04 62.3746 204.833 62.3717 204.615L62.6169 204.611C62.6209 204.895 62.513 205.165 62.3148 205.368C62.1167 205.571 61.8508 205.685 61.5673 205.689H61.5526Z" fill="#F3E3FF"/>
<path d="M60.6234 206.642C60.0427 206.642 59.5679 206.173 59.5601 205.593L59.8053 205.589C59.8112 206.037 60.1771 206.397 60.6234 206.397H60.6313C60.853 206.394 61.057 206.306 61.211 206.15C61.363 205.994 61.4454 205.787 61.4425 205.568L61.6877 205.564C61.6917 205.849 61.5838 206.118 61.3856 206.322C61.1875 206.525 60.9216 206.638 60.6381 206.642H60.6234Z" fill="#F3E3FF"/>
<path d="M54.639 208.719C55.1364 208.646 55.8672 209.719 55.7897 210.049C55.7122 210.381 55.669 211.471 54.8637 211.599C54.2712 211.693 52.1562 211.941 51.6873 211.486C51.2567 211.067 52.066 209.096 54.639 208.719" fill="white"/>
<path fill-rule="evenodd" clip-rule="evenodd" d="M51.3469 211.84C51.6706 212.154 52.3612 212.247 53.0655 212.247C53.8209 212.247 54.5929 212.139 54.9421 212.084C55.9768 211.918 56.1604 210.798 56.2389 210.319L56.2389 210.319C56.2419 210.301 56.2446 210.285 56.2472 210.269C56.2541 210.227 56.26 210.191 56.2664 210.162C56.3782 209.688 55.9446 209.058 55.6719 208.76C55.308 208.363 54.9313 208.178 54.5683 208.233C52.5437 208.53 51.4754 209.717 51.1752 210.644C51.0144 211.141 51.0762 211.577 51.3469 211.84ZM52.3033 210.553C52.5211 210.224 53.1862 209.435 54.6841 209.208C54.8852 209.273 55.2776 209.801 55.3119 209.937C55.2992 209.995 55.2854 210.072 55.2717 210.161C55.1991 210.596 55.0981 211.066 54.7861 211.114C53.607 211.305 52.266 211.312 52.0718 211.196C52.0542 211.132 52.0885 210.88 52.3033 210.553Z" fill="#52267D"/>
<path d="M54.7828 209.017C55.0761 208.973 55.5067 209.607 55.4606 209.803C55.4155 209.998 55.39 210.64 54.9162 210.716C54.565 210.772 53.3172 210.918 53.0416 210.65C52.7866 210.403 53.2643 209.24 54.7828 209.017" fill="#EAF3FB"/>
<path d="M56.4151 209.228C56.4151 209.228 56.0325 209.035 55.285 209.476C54.6239 209.864 53.638 210.485 53.9088 211.24C54.1805 211.992 56.2787 211.685 56.7447 211.519C57.2106 211.353 57.4981 210.84 57.4098 210.395C57.2165 209.425 56.4151 209.228 56.4151 209.228" fill="white"/>
<path d="M68.2403 209.285C68.2403 209.285 67.8577 209.092 67.1102 209.532C66.4491 209.921 65.4632 210.542 65.7339 211.296C66.0057 212.049 68.1039 211.742 68.5699 211.576C69.0358 211.41 69.3233 210.897 69.235 210.452C69.0417 209.482 68.2403 209.285 68.2403 209.285" fill="white"/>
<path fill-rule="evenodd" clip-rule="evenodd" d="M53.4477 211.406C53.6763 212.039 54.4601 212.214 55.2282 212.213C55.9904 212.213 56.7388 212.042 56.9095 211.981C57.5982 211.736 58.0288 210.998 57.8905 210.3C57.6972 209.324 56.987 208.88 56.5701 208.761C56.3739 208.689 55.8422 208.579 55.0359 209.053L55.0346 209.054C54.4325 209.408 53.0272 210.236 53.4477 211.406ZM55.5332 209.898C55.8599 209.706 56.0679 209.677 56.1669 209.677C56.1974 209.677 56.218 209.68 56.2278 209.682L56.2905 209.702C56.3425 209.718 56.8036 209.865 56.9282 210.491C56.9664 210.685 56.8261 210.969 56.5799 211.057C56.0414 211.249 54.5562 211.326 54.3708 211.074C54.2256 210.669 55.2095 210.089 55.5332 209.898Z" fill="#52267D"/>
<path fill-rule="evenodd" clip-rule="evenodd" d="M65.2731 211.462C65.5016 212.096 66.2854 212.271 67.0535 212.27C67.8157 212.27 68.5642 212.099 68.7348 212.038C69.4235 211.793 69.8541 211.055 69.7158 210.357C69.5225 209.38 68.8123 208.937 68.3954 208.818C68.1992 208.746 67.6676 208.636 66.8612 209.11L66.8599 209.11C66.2578 209.465 64.8525 210.293 65.2731 211.462ZM67.3586 209.955C67.6852 209.763 67.8932 209.734 67.9923 209.734C68.0227 209.734 68.0433 209.736 68.0531 209.738L68.1159 209.759C68.1678 209.775 68.6289 209.922 68.7535 210.548C68.7917 210.742 68.6515 211.026 68.4052 211.114C67.8667 211.305 66.3815 211.383 66.1961 211.131C66.051 210.725 67.0348 210.146 67.3586 209.955Z" fill="#52267D"/>
<path d="M56.5616 209.495C56.5616 209.495 56.335 209.381 55.8916 209.641C55.5012 209.871 54.9165 210.239 55.0774 210.686C55.2373 211.132 56.4811 210.949 56.7568 210.852C57.0315 210.752 57.2021 210.449 57.1502 210.185C57.0364 209.611 56.5616 209.495 56.5616 209.495" fill="#EAF3FB"/>
<path d="M68.3868 209.551C68.3868 209.551 68.1602 209.438 67.7168 209.698C67.3264 209.928 66.7417 210.296 66.9026 210.743C67.0625 211.189 68.3063 211.005 68.582 210.908C68.8567 210.809 69.0273 210.506 68.9754 210.242C68.8616 209.668 68.3868 209.551 68.3868 209.551" fill="#EAF3FB"/>
<path d="M79.7874 208.752C79.7874 208.752 78.834 207.996 77.595 209.042C76.461 209.996 75.6184 211.46 76.1334 211.599C76.6484 211.74 77.5538 211.871 78.5004 211.684C79.3234 211.523 80.0543 211.673 80.3642 209.941C80.5084 209.135 79.7874 208.752 79.7874 208.752" fill="white"/>
<path fill-rule="evenodd" clip-rule="evenodd" d="M76.0049 212.073C76.2668 212.144 76.823 212.268 77.5205 212.268C77.8521 212.268 78.215 212.241 78.5937 212.165C78.6663 212.151 78.7379 212.14 78.8085 212.129C78.8371 212.125 78.8656 212.121 78.8938 212.116C79.7816 211.985 80.5409 211.737 80.8469 210.027C81.0058 209.143 80.4418 208.562 80.0553 208.341C79.5933 208 78.4681 207.663 77.2782 208.666C76.4601 209.356 75.332 210.748 75.5086 211.548C75.5655 211.808 75.7518 212.004 76.0049 212.073ZM78.4053 211.204C77.6225 211.356 76.9074 211.265 76.5131 211.185C76.6612 210.804 77.1752 210.036 77.9109 209.416C78.7889 208.676 79.4098 209.083 79.4863 209.14L79.5579 209.185C79.5581 209.185 79.5587 209.186 79.5597 209.186C79.5889 209.204 79.9593 209.422 79.8817 209.855C79.6757 211.009 79.3657 211.055 78.7496 211.146C78.7291 211.149 78.7085 211.152 78.6878 211.155C78.5956 211.17 78.5015 211.184 78.4053 211.204Z" fill="#52267D"/>
<path d="M79.5757 209.035C79.5757 209.035 78.9832 208.565 78.2112 209.215C77.5069 209.809 76.9811 210.72 77.3028 210.808C77.6226 210.895 78.1857 210.976 78.7753 210.86C79.2873 210.76 79.7425 210.853 79.9347 209.775C80.025 209.273 79.5757 209.035 79.5757 209.035" fill="#EAF3FB"/>
<path d="M81.1247 208.719C81.6221 208.646 82.3529 209.719 82.2754 210.049C82.1979 210.381 82.1547 211.471 81.3494 211.599C80.7569 211.693 78.6419 211.941 78.173 211.486C77.7424 211.067 78.5517 209.096 81.1247 208.719" fill="white"/>
<path fill-rule="evenodd" clip-rule="evenodd" d="M77.8326 211.84C78.1563 212.154 78.8469 212.247 79.5512 212.247C80.3066 212.247 81.0786 212.139 81.4278 212.084C82.4625 211.918 82.6461 210.798 82.7246 210.319L82.7246 210.319C82.7276 210.301 82.7304 210.284 82.733 210.269C82.7398 210.227 82.7457 210.191 82.7521 210.162C82.8639 209.688 82.4303 209.058 82.1576 208.76C81.7937 208.363 81.417 208.178 81.0541 208.233C79.0294 208.53 77.9611 209.717 77.6609 210.644C77.5001 211.141 77.5619 211.577 77.8326 211.84ZM78.789 210.553C79.0068 210.224 79.6719 209.435 81.1698 209.208C81.3709 209.273 81.7633 209.801 81.7976 209.937C81.7849 209.995 81.7711 210.072 81.7574 210.161C81.6848 210.596 81.5838 211.066 81.2718 211.114C80.0927 211.305 78.7518 211.312 78.5575 211.196C78.5399 211.132 78.5742 210.88 78.789 210.553Z" fill="#52267D"/>
<path d="M81.2685 209.017C81.5618 208.973 81.9924 209.607 81.9463 209.803C81.9012 209.998 81.8757 210.64 81.4019 210.716C81.0507 210.772 79.803 210.918 79.5273 210.65C79.2723 210.403 79.75 209.24 81.2685 209.017" fill="#EAF3FB"/>
<path d="M82.9008 209.228C82.9008 209.228 82.5182 209.035 81.7707 209.476C81.1096 209.864 80.1237 210.485 80.3945 211.24C80.6662 211.992 82.7645 211.685 83.2304 211.519C83.6964 211.353 83.9838 210.84 83.8955 210.395C83.7022 209.425 82.9008 209.228 82.9008 209.228" fill="white"/>
<path fill-rule="evenodd" clip-rule="evenodd" d="M79.9335 211.406C80.162 212.039 80.9458 212.214 81.7139 212.213C82.4761 212.213 83.2246 212.042 83.3952 211.981C84.0839 211.736 84.5145 210.998 84.3762 210.3C84.1829 209.324 83.4727 208.88 83.0558 208.761C82.8596 208.689 82.328 208.579 81.5216 209.053L81.5203 209.054C80.9182 209.408 79.5129 210.236 79.9335 211.406ZM82.019 209.898C82.3456 209.706 82.5536 209.677 82.6527 209.677C82.6831 209.677 82.7037 209.68 82.7135 209.682L82.7763 209.702C82.8283 209.718 83.2893 209.865 83.4139 210.491C83.4521 210.685 83.3119 210.969 83.0656 211.057C82.5271 211.249 81.0419 211.326 80.8565 211.074C80.7114 210.669 81.6952 210.089 82.019 209.898Z" fill="#52267D"/>
<path d="M83.0473 209.495C83.0473 209.495 82.8207 209.381 82.3773 209.641C81.9869 209.871 81.4022 210.239 81.5631 210.686C81.723 211.132 82.9669 210.949 83.2425 210.852C83.5172 210.752 83.6879 210.449 83.6359 210.185C83.5221 209.611 83.0473 209.495 83.0473 209.495" fill="#EAF3FB"/>
<path d="M36.5278 209.688C36.5278 209.688 36.1442 209.495 35.3967 209.935C34.7356 210.324 33.7497 210.945 34.0204 211.7C34.2922 212.452 36.3904 212.145 36.8564 211.979C37.3223 211.812 37.6098 211.3 37.5215 210.855C37.3282 209.885 36.5278 209.688 36.5278 209.688" fill="white"/>
<path fill-rule="evenodd" clip-rule="evenodd" d="M33.5596 211.865C33.7881 212.499 34.5719 212.673 35.34 212.673C36.1022 212.673 36.8507 212.502 37.0223 212.441C37.71 212.195 38.1396 211.456 38.0023 210.76C37.809 209.783 37.0988 209.34 36.6829 209.221C36.4867 209.15 35.956 209.037 35.1477 209.513L35.1464 209.513C34.5443 209.868 33.139 210.696 33.5596 211.865ZM35.6451 210.358C35.9707 210.166 36.1797 210.137 36.2788 210.137C36.3111 210.137 36.3317 210.14 36.3396 210.142L36.4024 210.162C36.4553 210.177 36.9154 210.325 37.04 210.951C37.0782 211.145 36.938 211.429 36.6917 211.517C36.1532 211.709 34.668 211.787 34.4826 211.534C34.3375 211.129 35.3213 210.549 35.6451 210.358Z" fill="#52267D"/>
<path d="M36.6734 209.955C36.6734 209.955 36.4478 209.84 36.0034 210.101C35.613 210.331 35.0283 210.699 35.1892 211.146C35.3491 211.591 36.593 211.409 36.8686 211.311C37.1443 211.212 37.314 210.909 37.263 210.645C37.1482 210.071 36.6734 209.955 36.6734 209.955" fill="#EAF3FB"/>
<path d="M38.8211 209.127C39.3195 209.054 40.0493 210.128 39.9718 210.458C39.8943 210.789 39.8511 211.88 39.0458 212.008C38.4533 212.103 36.3384 212.35 35.8695 211.895C35.4388 211.477 36.2481 209.506 38.8211 209.127" fill="white"/>
<path fill-rule="evenodd" clip-rule="evenodd" d="M35.528 212.247C35.8527 212.563 36.5442 212.656 37.2486 212.656C38.0039 212.656 38.7749 212.548 39.1241 212.493C40.1588 212.327 40.3424 211.207 40.4209 210.728L40.421 210.728C40.4227 210.718 40.4244 210.708 40.4261 210.698C40.4346 210.648 40.442 210.605 40.4494 210.571C40.5603 210.095 40.1267 209.465 39.853 209.167C39.49 208.771 39.1065 208.592 38.7504 208.641C36.7237 208.939 35.6565 210.128 35.3573 211.055C35.1964 211.551 35.2592 211.986 35.528 212.247ZM36.4864 210.961C36.7031 210.632 37.3692 209.844 38.8671 209.616C39.0672 209.681 39.4596 210.209 39.4949 210.346C39.4812 210.404 39.4675 210.48 39.4537 210.57C39.3811 211.005 39.2791 211.475 38.9691 211.523C37.79 211.711 36.4471 211.719 36.2539 211.604C36.2362 211.54 36.2715 211.288 36.4864 210.961Z" fill="#52267D"/>
<path d="M38.9649 209.426C39.2582 209.383 39.6889 210.015 39.6428 210.211C39.5986 210.406 39.5721 211.048 39.0983 211.125C38.7471 211.181 37.4994 211.326 37.2237 211.058C36.9687 210.811 37.4464 209.648 38.9649 209.426" fill="#EAF3FB"/>
<path d="M45.3688 209.511C45.5228 209.378 45.7092 209.338 45.8632 209.409C46.439 209.672 47.8938 210.422 47.6083 211.463C47.3866 212.275 46.8893 212.038 45.9446 212.067L45.2325 212.089C45.0853 212.094 44.9529 212.021 44.8705 211.885C44.4516 211.205 44.6596 210.125 45.3198 209.553L45.3688 209.511Z" fill="white"/>
<path fill-rule="evenodd" clip-rule="evenodd" d="M44.4525 212.141C44.6202 212.417 44.9057 212.58 45.2186 212.58H45.248L45.9602 212.558C46.1486 212.553 46.3202 212.558 46.4713 212.563C47.0589 212.583 47.8044 212.606 48.082 211.593C48.237 211.025 48.1811 209.93 46.0652 208.962C45.7375 208.813 45.3471 208.882 45.0479 209.14L44.9989 209.182C44.1621 209.908 43.912 211.264 44.4525 212.141ZM45.6885 209.882L45.6591 209.855C46.0505 210.035 47.3169 210.671 47.1354 211.335C47.064 211.6 47.0589 211.599 46.5078 211.582L46.5027 211.582C46.332 211.576 46.1407 211.571 45.9288 211.577L45.2883 211.629C44.994 211.15 45.1627 210.339 45.6394 209.925L45.6885 209.882Z" fill="#52267D"/>
<path d="M45.4454 209.743C45.5572 209.645 45.6926 209.617 45.8044 209.668C46.2233 209.86 47.2798 210.404 47.0728 211.161C46.9109 211.751 46.55 211.578 45.8643 211.601L45.3453 211.616C45.2394 211.62 45.1433 211.566 45.0834 211.469C44.7784 210.974 44.9304 210.189 45.4101 209.773L45.4454 209.743Z" fill="#EAF3FB"/>
<path d="M42.0208 209.243C42.0208 209.243 41.136 208.408 39.8117 209.345C38.6022 210.199 37.6369 211.587 38.1382 211.769C38.6404 211.953 39.5301 212.16 40.4885 212.055C41.3233 211.963 42.0394 212.175 42.4946 210.476C42.7065 209.684 42.0208 209.243 42.0208 209.243" fill="white"/>
<path fill-rule="evenodd" clip-rule="evenodd" d="M37.9703 212.23C38.2832 212.345 39.0277 212.574 39.9557 212.574C40.1441 212.574 40.3402 212.564 40.5423 212.543C40.6286 212.533 40.7135 212.527 40.7971 212.522C40.8133 212.52 40.8294 212.519 40.8454 212.518C41.7411 212.463 42.5189 212.281 42.9692 210.602C43.2007 209.735 42.6887 209.109 42.3237 208.855C41.8911 208.477 40.8003 208.046 39.529 208.944C38.654 209.561 37.4111 210.853 37.519 211.665C37.5543 211.929 37.7231 212.141 37.9703 212.23ZM40.4364 211.568C39.6448 211.654 38.9394 211.501 38.552 211.388C38.7325 211.021 39.3093 210.3 40.095 209.745C41.0406 209.078 41.6273 209.549 41.69 209.605L41.7499 209.651C41.8146 209.696 42.1305 209.937 42.0206 210.348C41.7177 211.482 41.4059 211.501 40.7856 211.539L40.7846 211.539L40.7709 211.54C40.6614 211.548 40.5494 211.555 40.4364 211.568Z" fill="#52267D"/>
<path d="M41.786 209.506C41.786 209.506 41.2347 208.987 40.4117 209.569C39.6583 210.102 39.059 210.965 39.3699 211.08C39.6819 211.193 40.2361 211.322 40.8325 211.256C41.3524 211.2 41.7978 211.331 42.0813 210.273C42.2137 209.781 41.786 209.506 41.786 209.506" fill="#EAF3FB"/>
<path d="M19.908 213.729C19.3557 213.729 18.908 213.281 18.908 212.729C18.908 212.177 19.3557 211.729 19.908 211.729H55.908C56.4602 211.729 56.908 212.177 56.908 212.729C56.908 213.281 56.4602 213.729 55.908 213.729H19.908Z" fill="#5E63B6"/>
<path d="M195.25 213.729C194.698 213.729 194.25 213.281 194.25 212.729C194.25 212.177 194.698 211.729 195.25 211.729H239.25C239.802 211.729 240.25 212.177 240.25 212.729C240.25 213.281 239.802 213.729 239.25 213.729H195.25Z" fill="#5E63B6"/>
<path fill-rule="evenodd" clip-rule="evenodd" d="M52.144 73.97H75.067C76.1364 73.9689 77.1624 74.3931 77.9188 75.149C78.6753 75.9049 79.1002 76.9305 79.1 78V208.7C79.1 210.925 77.2961 212.729 75.071 212.729H52.144C50.8947 212.729 49.882 211.716 49.882 210.467V76.232C49.882 74.9827 50.8947 73.97 52.144 73.97Z" fill="#EFEFF8"/>
<path fill-rule="evenodd" clip-rule="evenodd" d="M75.066 72.97L52.144 72.97C50.3424 72.97 48.882 74.4304 48.882 76.232V210.467C48.882 212.269 50.3424 213.729 52.144 213.729H75.071C77.8484 213.729 80.1 211.477 80.1 208.7V78C80.1003 76.6654 79.5699 75.3851 78.6257 74.4416C77.6814 73.4981 76.4008 72.9686 75.066 72.97ZM50.882 76.232C50.882 75.535 51.447 74.97 52.144 74.97H75.067C75.8719 74.9692 76.6433 75.2881 77.212 75.8563C77.7807 76.4246 78.1002 77.1957 78.1 77.9997V208.7C78.1 210.373 76.7438 211.729 75.071 211.729H52.144C51.447 211.729 50.882 211.164 50.882 210.467V76.232Z" fill="#5E63B6"/>
<path fill-rule="evenodd" clip-rule="evenodd" d="M74.612 73.97H100.2C101.322 73.97 102.398 74.4156 103.191 75.2089C103.984 76.0022 104.43 77.0781 104.43 78.2V208.5C104.43 210.836 102.536 212.73 100.2 212.73H74.612C73.3009 212.73 72.238 211.667 72.238 210.356V76.344C72.238 75.0328 73.3009 73.97 74.612 73.97Z" fill="white"/>
<path fill-rule="evenodd" clip-rule="evenodd" d="M100.2 72.97H74.612C72.7486 72.97 71.238 74.4806 71.238 76.344V210.356C71.238 212.219 72.7486 213.73 74.612 213.73H100.2C103.088 213.73 105.43 211.388 105.43 208.5V78.2C105.43 76.8129 104.879 75.4826 103.898 74.5018C102.917 73.521 101.587 72.97 100.2 72.97ZM73.238 76.344C73.238 75.5851 73.8532 74.97 74.612 74.97H100.2C101.057 74.97 101.878 75.3103 102.484 75.916C103.09 76.5218 103.43 77.3433 103.43 78.2V208.5C103.43 210.284 101.984 211.73 100.2 211.73H74.612C73.8532 211.73 73.238 211.115 73.238 210.356V76.344Z" fill="#5E63B6"/>
<path fill-rule="evenodd" clip-rule="evenodd" d="M82.106 75.027H141.092C142.206 75.027 143.274 75.4695 144.062 76.2571C144.849 77.0448 145.292 78.1131 145.292 79.227V207.6C145.292 209.92 143.412 211.8 141.092 211.8H82.106C81.3466 211.8 80.731 211.184 80.731 210.425V76.4C80.7321 75.6414 81.3473 75.027 82.106 75.027Z" fill="#E1F2FF"/>
<path fill-rule="evenodd" clip-rule="evenodd" d="M91.7141 44.6479H120.5C123.239 44.6479 125.459 46.8682 125.459 49.6069V207.77C125.459 210.509 123.239 212.729 120.5 212.729H91.7141C90.1765 212.729 88.9301 211.483 88.9301 209.945V47.4319C88.9301 45.8944 90.1765 44.6479 91.7141 44.6479Z" fill="#EFEFF8"/>
<path fill-rule="evenodd" clip-rule="evenodd" d="M120.5 43.6479H91.7141C89.6242 43.6479 87.9301 45.3421 87.9301 47.4319V209.945C87.9301 212.035 89.6242 213.729 91.7141 213.729H120.5C123.791 213.729 126.459 211.061 126.459 207.77V49.6069C126.459 46.3159 123.791 43.6479 120.5 43.6479ZM89.9301 47.4319C89.9301 46.4467 90.7288 45.6479 91.7141 45.6479H120.5C122.687 45.6479 124.459 47.4205 124.459 49.6069V207.77C124.459 209.956 122.687 211.729 120.5 211.729H91.7141C90.7288 211.729 89.9301 210.93 89.9301 209.945V47.4319Z" fill="#5E63B6"/>
<path fill-rule="evenodd" clip-rule="evenodd" d="M118.218 44.6479H203.58C206.662 44.6479 209.16 47.1462 209.16 50.2279V207.149C209.16 208.629 208.572 210.048 207.526 211.095C206.479 212.141 205.06 212.729 203.58 212.729H118.218C117.209 212.729 116.391 211.911 116.391 210.902V46.4739C116.392 45.4653 117.209 44.6479 118.218 44.6479Z" fill="white"/>
<path fill-rule="evenodd" clip-rule="evenodd" d="M210.16 50.2279C210.16 46.5939 207.214 43.6479 203.58 43.6479H118.218C116.657 43.6479 115.392 44.9127 115.391 46.4734V210.902C115.391 212.463 116.657 213.729 118.218 213.729H203.58C205.325 213.729 206.999 213.036 208.233 211.802C209.467 210.568 210.16 208.894 210.16 207.149V50.2279ZM117.391 210.902V46.4739C117.391 46.0179 117.761 45.6479 118.218 45.6479H203.58C206.109 45.6479 208.16 47.6985 208.16 50.2279V207.149C208.16 208.364 207.677 209.529 206.819 210.387C205.96 211.246 204.795 211.729 203.58 211.729H118.218C117.761 211.729 117.391 211.359 117.391 210.902Z" fill="#5E63B6"/>
<path d="M223.658 26.746H226.158C226.71 26.746 227.158 27.1937 227.158 27.746C227.158 28.2983 226.71 28.746 226.158 28.746H223.658V31.246C223.658 31.7983 223.21 32.246 222.658 32.246C222.106 32.246 221.658 31.7983 221.658 31.246V28.746H219.158C218.606 28.746 218.158 28.2983 218.158 27.746C218.158 27.1937 218.606 26.746 219.158 26.746H221.658V24.246C221.658 23.6937 222.106 23.246 222.658 23.246C223.21 23.246 223.658 23.6937 223.658 24.246V26.746Z" fill="#5E63B6"/>
<path d="M12.4031 239.47H13.8721C14.1482 239.47 14.3721 239.694 14.3721 239.97C14.3721 240.246 14.1482 240.47 13.8721 240.47H12.4031V241.939C12.4031 242.215 12.1792 242.439 11.9031 242.439C11.6269 242.439 11.4031 242.215 11.4031 241.939V240.47H9.93506C9.65892 240.47 9.43506 240.246 9.43506 239.97C9.43506 239.694 9.65892 239.47 9.93506 239.47H11.4031V238.001C11.4031 237.725 11.6269 237.501 11.9031 237.501C12.1792 237.501 12.4031 237.725 12.4031 238.001V239.47Z" fill="#5E63B6"/>
<path d="M228.158 121.487H229.627C229.903 121.487 230.127 121.711 230.127 121.987C230.127 122.263 229.903 122.487 229.627 122.487H228.158V123.956C228.158 124.232 227.934 124.456 227.658 124.456C227.382 124.456 227.158 124.232 227.158 123.956V122.487H225.689C225.413 122.487 225.189 122.263 225.189 121.987C225.189 121.711 225.413 121.487 225.689 121.487H227.158V120.019C227.158 119.743 227.382 119.519 227.658 119.519C227.934 119.519 228.158 119.743 228.158 120.019V121.487Z" fill="#5E63B6"/>
<path d="M82.968 4.968H84.437C84.7131 4.968 84.937 5.19186 84.937 5.468C84.937 5.74414 84.7131 5.968 84.437 5.968H82.968V7.437C82.968 7.71314 82.7441 7.937 82.468 7.937C82.1919 7.937 81.968 7.71314 81.968 7.437V5.968H80.5C80.2239 5.968 80 5.74414 80 5.468C80 5.19186 80.2239 4.968 80.5 4.968H81.968V3.5C81.968 3.22386 82.1919 3 82.468 3C82.7441 3 82.968 3.22386 82.968 3.5V4.968Z" fill="#5E63B6"/>
<path d="M32.346 17.688H35.408C35.9602 17.688 36.408 18.1357 36.408 18.688C36.408 19.2403 35.9602 19.688 35.408 19.688H32.346V22.751C32.346 23.3033 31.8982 23.751 31.346 23.751C30.7937 23.751 30.346 23.3033 30.346 22.751V19.688H27.283C26.7307 19.688 26.283 19.2403 26.283 18.688C26.283 18.1357 26.7307 17.688 27.283 17.688H30.346V14.626C30.346 14.0737 30.7937 13.626 31.346 13.626C31.8982 13.626 32.346 14.0737 32.346 14.626V17.688Z" fill="#5E63B6"/>
<path d="M246.097 213.487C245.545 213.487 245.097 213.039 245.097 212.487C245.097 211.935 245.545 211.487 246.097 211.487H253.07C253.622 211.487 254.07 211.935 254.07 212.487C254.07 213.039 253.622 213.487 253.07 213.487H246.097Z" fill="#5E63B6"/>
<path d="M2.93005 213.487C2.37777 213.487 1.93005 213.039 1.93005 212.487C1.93005 211.935 2.37777 211.487 2.93005 211.487H11.9031C12.4553 211.487 12.9031 211.935 12.9031 212.487C12.9031 213.039 12.4553 213.487 11.9031 213.487H2.93005Z" fill="#5E63B6"/>
<path d="M95.313 222.804C94.7607 222.804 94.313 222.356 94.313 221.804C94.313 221.252 94.7607 220.804 95.313 220.804H162.499C163.051 220.804 163.499 221.252 163.499 221.804C163.499 222.356 163.051 222.804 162.499 222.804H95.313Z" fill="#5E63B6"/>
<path d="M171.118 222.804C170.566 222.804 170.118 222.356 170.118 221.804C170.118 221.252 170.566 220.804 171.118 220.804H180.258C180.81 220.804 181.258 221.252 181.258 221.804C181.258 222.356 180.81 222.804 180.258 222.804H171.118Z" fill="#5E63B6"/>
<path d="M87.4151 220.729C87.9673 220.721 88.4217 221.162 88.4299 221.714C88.4382 222.266 87.9973 222.721 87.4451 222.729L82.4451 222.804C81.8928 222.812 81.4385 222.371 81.4302 221.819C81.4219 221.267 81.8628 220.812 82.4151 220.804L87.4151 220.729Z" fill="#5E63B6"/>
<rect x="144.517" y="72.095" width="35.032" height="35.032" rx="17.516" fill="#E1F2FF"/>
<rect x="148.517" y="68.095" width="35.032" height="35.032" rx="17.516" fill="#EFEFF8"/>
<path fill-rule="evenodd" clip-rule="evenodd" d="M184.549 85.611C184.549 75.3849 176.259 67.095 166.033 67.095C155.807 67.095 147.517 75.3849 147.517 85.611C147.517 95.8371 155.807 104.127 166.033 104.127C176.259 104.127 184.549 95.8371 184.549 85.611ZM149.517 85.611C149.517 76.4894 156.911 69.095 166.033 69.095C175.155 69.095 182.549 76.4894 182.549 85.611C182.549 94.7325 175.155 102.127 166.033 102.127C156.911 102.127 149.517 94.7325 149.517 85.611Z" fill="#5E63B6"/>
<rect x="89.902" y="135.674" width="25.517" height="36.315" fill="white"/>
<rect x="89.912" y="55.802" width="25.498" height="7.654" fill="white"/>
<rect x="50.863" y="85.392" width="20.352" height="10.423" fill="white"/>
<rect x="50.863" y="175.618" width="20.352" height="11.126" fill="white"/>
<path fill-rule="evenodd" clip-rule="evenodd" d="M135.929 107.859H195.629C197.65 107.859 199.288 109.497 199.288 111.518V208.081C199.288 210.102 197.65 211.74 195.629 211.74H135.929C135.266 211.74 134.729 211.203 134.729 210.54V109.057C134.73 108.395 135.267 107.859 135.929 107.859Z" fill="#E1F2FF"/>
<path fill-rule="evenodd" clip-rule="evenodd" d="M148.884 112.154H166.11C167.749 112.154 169.077 113.482 169.077 115.121V209.761C169.077 211.4 167.749 212.728 166.11 212.728H148.884C147.964 212.728 147.218 211.982 147.218 211.062V113.82C147.218 112.9 147.964 112.154 148.884 112.154Z" fill="#EFEFF8"/>
<path fill-rule="evenodd" clip-rule="evenodd" d="M170.077 115.121C170.077 112.93 168.301 111.154 166.11 111.154H148.884C147.412 111.154 146.218 112.348 146.218 113.82V211.062C146.218 212.534 147.412 213.728 148.884 213.728H166.11C168.301 213.728 170.077 211.952 170.077 209.761V115.121ZM148.218 211.062V113.82C148.218 113.452 148.516 113.154 148.884 113.154H166.11C167.196 113.154 168.077 114.035 168.077 115.121V209.761C168.077 210.847 167.196 211.728 166.11 211.728H148.884C148.516 211.728 148.218 211.43 148.218 211.062Z" fill="#5E63B6"/>
<path fill-rule="evenodd" clip-rule="evenodd" d="M164.759 112.154H217.45C218.349 112.154 219.211 112.511 219.846 113.147C220.482 113.782 220.839 114.644 220.839 115.543V209.343C220.839 210.242 220.482 211.104 219.846 211.739C219.211 212.375 218.349 212.732 217.45 212.732H164.759C164.147 212.732 163.65 212.236 163.65 211.623V113.264C163.65 112.97 163.766 112.687 163.974 112.479C164.182 112.271 164.465 112.154 164.759 112.154V112.154Z" fill="white"/>
<path fill-rule="evenodd" clip-rule="evenodd" d="M220.554 112.44C219.73 111.616 218.614 111.154 217.45 111.154H164.759C164.199 111.154 163.663 111.377 163.267 111.772C162.871 112.168 162.65 112.705 162.65 113.265V211.623C162.65 212.788 163.594 213.732 164.759 213.732H217.45C218.614 213.732 219.73 213.27 220.554 212.447C221.377 211.623 221.839 210.507 221.839 209.343V115.543C221.839 114.379 221.377 113.263 220.554 112.44ZM164.65 113.264C164.65 113.234 164.661 113.206 164.682 113.186C164.702 113.166 164.73 113.154 164.759 113.154H217.45C218.084 113.154 218.691 113.406 219.139 113.854C219.587 114.302 219.839 114.909 219.839 115.543V209.343C219.839 209.977 219.587 210.584 219.139 211.032C218.691 211.48 218.084 211.732 217.45 211.732H164.759C164.699 211.732 164.65 211.683 164.65 211.623V113.264Z" fill="#5E63B6"/>
<rect x="148.226" y="183.944" width="14.415" height="6.528" fill="white"/>
<rect x="148.213" y="121.559" width="14.442" height="6.612" fill="white"/>
<rect x="175.861" y="133.033" width="26.389" height="26.389" rx="13.194" fill="#E1F2FF"/>
<rect x="178.861" y="130.033" width="26.389" height="26.389" rx="13.194" fill="#EFEFF8"/>
<path fill-rule="evenodd" clip-rule="evenodd" d="M206.25 143.228V143.227C206.25 135.388 199.895 129.033 192.055 129.033C184.216 129.033 177.861 135.388 177.861 143.227V143.228C177.861 151.067 184.216 157.422 192.055 157.422H192.056C199.895 157.422 206.25 151.067 206.25 143.228ZM179.861 143.228V143.227C179.861 136.492 185.32 131.033 192.055 131.033H192.056C198.791 131.033 204.25 136.492 204.25 143.227V143.228C204.25 149.963 198.791 155.422 192.056 155.422H192.055C185.32 155.422 179.861 149.963 179.861 143.228Z" fill="#5E63B6"/>
<path d="M111.029 97.0439C111.581 97.0439 112.029 97.4917 112.029 98.0439C112.029 98.5962 111.581 99.0439 111.029 99.0439H94.292C93.7397 99.0439 93.292 98.5962 93.292 98.0439C93.292 97.4917 93.7397 97.0439 94.292 97.0439H111.029Z" fill="#5E63B6"/>
<path d="M107.196 104.694C107.748 104.694 108.196 105.142 108.196 105.694C108.196 106.246 107.748 106.694 107.196 106.694H98.125C97.5727 106.694 97.125 106.246 97.125 105.694C97.125 105.142 97.5727 104.694 98.125 104.694H107.196Z" fill="#5E63B6"/>
<path d="M154.003 142.04C154.003 141.488 154.451 141.04 155.003 141.04C155.555 141.04 156.003 141.488 156.003 142.04V173.862C156.003 174.414 155.555 174.862 155.003 174.862C154.451 174.862 154.003 174.414 154.003 173.862V142.04Z" fill="#B0B0DB"/>
<path d="M59.521 105.695C59.521 105.143 59.9687 104.695 60.521 104.695C61.0733 104.695 61.521 105.143 61.521 105.695V167.137C61.521 167.689 61.0733 168.137 60.521 168.137C59.9687 168.137 59.521 167.689 59.521 167.137V105.695Z" fill="#5E63B6"/>
<path d="M177.363 174.47C176.811 174.47 176.363 174.022 176.363 173.47C176.363 172.918 176.811 172.47 177.363 172.47H208.363C208.915 172.47 209.363 172.918 209.363 173.47C209.363 174.022 208.915 174.47 208.363 174.47H177.363Z" fill="#5E63B6"/>
<path d="M177.363 192.137C176.811 192.137 176.363 191.689 176.363 191.137C176.363 190.585 176.811 190.137 177.363 190.137H208.363C208.915 190.137 209.363 190.585 209.363 191.137C209.363 191.689 208.915 192.137 208.363 192.137H177.363Z" fill="#5E63B6"/>
<path d="M177.363 183.303C176.811 183.303 176.363 182.855 176.363 182.303C176.363 181.751 176.811 181.303 177.363 181.303H208.363C208.915 181.303 209.363 181.751 209.363 182.303C209.363 182.855 208.915 183.303 208.363 183.303H177.363Z" fill="#5E63B6"/>
</svg>
