<svg width="256" height="256" viewBox="0 0 256 256" fill="none" xmlns="http://www.w3.org/2000/svg">
<path fill-rule="evenodd" clip-rule="evenodd" d="M23.2041 230.509C23.2041 173.316 69.5681 126.951 126.762 126.951C183.955 126.951 230.319 173.316 230.319 230.509H23.2041Z" fill="#E1F2FF"/>
<path d="M75.6097 221.344L80.5887 221.282C82.2997 221.26 83.8397 220.194 84.4407 218.589C86.1507 214.017 85.6577 209.842 85.8237 206.263C86.1307 199.634 85.0537 196.252 83.9977 190.725L76.5257 190.991C76.5257 190.991 77.1957 193.737 77.7227 201.989C77.8857 204.542 73.7927 214.858 74.0537 219.89C74.0967 220.715 74.7837 221.355 75.6097 221.344Z" fill="#9452BA"/>
<path fill-rule="evenodd" clip-rule="evenodd" d="M73.0549 219.942C73.1259 221.296 74.2359 222.345 75.5879 222.345H75.6219L80.6009 222.282C82.7189 222.256 84.6389 220.913 85.3769 218.94C86.7549 215.257 86.7679 211.847 86.7789 208.841C86.7819 207.968 86.7849 207.123 86.8229 206.309C87.0788 200.777 86.3724 197.355 85.5548 193.395L85.5539 193.391L85.5242 193.247C85.3472 192.389 85.1626 191.496 84.9799 190.538L84.8189 189.695L75.2629 190.036L75.5539 191.229C75.5609 191.256 76.2089 193.982 76.7249 202.053C76.7828 202.955 76.0563 205.554 75.3524 208.072L75.3489 208.085L75.3482 208.087C74.1983 212.2 72.8949 216.861 73.0549 219.942ZM78.7209 201.926C78.3759 196.525 77.9699 193.457 77.7229 191.95L83.1789 191.756C83.3199 192.464 83.4589 193.14 83.5949 193.796L83.5952 193.797C84.419 197.784 85.0699 200.934 84.8249 206.218C84.7868 207.017 84.7832 207.848 84.7794 208.706C84.7793 208.748 84.7791 208.79 84.7789 208.833C84.7679 211.811 84.7559 214.891 83.5039 218.239C83.0529 219.445 81.8759 220.265 80.5759 220.282L75.5969 220.345C75.3379 220.333 75.0679 220.127 75.0529 219.839C74.9099 217.085 76.2209 212.392 77.2759 208.623C78.2209 205.241 78.7959 203.108 78.7209 201.926Z" fill="#52267D"/>
<path d="M60.8186 197.859L54.7216 191.118L51.0116 191.312C51.0116 191.312 50.5626 196.99 50.3796 199.367C50.0556 203.557 48.4236 211.78 47.4036 215.392C47.0716 216.568 46.8836 217.665 46.8406 218.657C46.7676 220.328 48.1766 221.689 49.8496 221.668L54.2596 221.613C56.8296 221.581 59.0906 219.838 59.6916 217.339C61.5596 209.561 60.8186 197.859 60.8186 197.859Z" fill="#9452BA"/>
<path fill-rule="evenodd" clip-rule="evenodd" d="M46.9287 221.449C47.6817 222.225 48.7297 222.667 49.8117 222.667H49.8627L54.2727 222.613C57.3317 222.575 59.9607 220.502 60.6647 217.573C62.5457 209.738 61.8467 198.28 61.8167 197.795L61.7937 197.447L55.1447 190.094L50.0847 190.359L50.0147 191.233C50.0147 191.233 49.5657 196.912 49.3817 199.289C49.0777 203.236 47.4837 211.429 46.4417 215.12C46.0897 216.364 45.8887 217.538 45.8417 218.613C45.7957 219.67 46.1817 220.678 46.9287 221.449ZM51.8881 192.919C51.9071 192.678 51.9244 192.458 51.9397 192.265L54.2987 192.141L59.8397 198.267C59.9417 200.247 60.3547 210.297 58.7187 217.106C58.2297 219.144 56.3907 220.586 54.2477 220.613L49.8367 220.667H49.8117C49.2687 220.667 48.7427 220.446 48.3657 220.057C48.0037 219.685 47.8177 219.203 47.8397 218.7C47.8797 217.78 48.0567 216.758 48.3657 215.663C49.4557 211.808 51.0577 203.566 51.3767 199.444C51.4989 197.851 51.7417 194.774 51.8881 192.919Z" fill="#52267D"/>
<path fill-rule="evenodd" clip-rule="evenodd" d="M51.0686 203.55L52.3536 204.681L54.2816 203.912L53.7616 202.813L52.2016 203.203L52.5916 202.851L52.2576 202.48L51.0686 203.55ZM51.8206 203.546L52.1176 203.807L52.0876 203.306L51.8206 203.546ZM52.2376 203.912L52.4536 204.103L53.6016 203.645L53.4846 203.397L52.6896 203.597L52.7076 203.884L52.2376 203.912Z" fill="#52267D"/>
<path d="M52.0823 172.58C56.4613 172.435 60.5263 169.368 69.4573 168.844C69.5793 168.259 69.7293 167.728 69.9243 167.294C71.4973 163.771 73.6523 153.652 72.1033 147.043L70.8783 141.812C70.4763 140.096 70.2623 138.341 70.2393 136.579C70.2303 135.845 70.2963 135.127 70.4293 134.433C70.4623 134.259 70.4993 134.087 70.5413 133.917C70.6663 133.405 70.8273 132.908 71.0233 132.429C71.0893 132.268 71.1573 132.11 71.2303 131.954C71.3763 131.642 71.5363 131.339 71.7103 131.044C71.8843 130.75 72.0713 130.464 72.2723 130.188C72.8753 129.362 73.5943 128.625 74.4043 128.002C74.6753 127.795 74.9563 127.6 75.2463 127.418C76.8423 126.421 78.7233 125.835 80.7413 125.809L82.4853 125.787C85.4233 125.751 88.0973 126.907 90.0453 128.809C90.2893 129.046 90.5213 129.295 90.7413 129.555C91.1423 130.027 91.4983 130.537 91.8123 131.074C91.9303 131.276 92.0443 131.481 92.1483 131.691C92.2253 131.846 92.2983 132.002 92.3673 132.16C92.5753 132.635 92.7493 133.128 92.8873 133.636C93.0243 134.143 93.1253 134.667 93.1863 135.203C93.2283 135.559 93.2503 135.923 93.2553 136.29C93.2653 137.021 92.9763 137.688 92.5023 138.174C92.0283 138.66 91.3693 138.965 90.6373 138.975L79.7483 139.111L81.5153 148.542C83.5713 158.226 83.0713 164.727 81.6273 169.074C81.3053 170.044 79.4463 173.487 79.4463 173.487C84.9993 182.011 93.3963 185.662 102.338 186.64C109.94 187.471 126.239 180.344 117.69 172.442C109.142 164.541 119.413 169.392 120.929 170.387C122.444 171.381 131.228 178.78 121.936 189.914C118.007 194.622 113.543 198.914 102.715 202.297C100.978 202.839 91.4763 203.65 86.3743 205.184C71.1853 209.752 58.7313 205.149 51.6603 195.174C44.6183 185.238 50.3533 172.637 52.0823 172.58Z" fill="#9452BA"/>
<path fill-rule="evenodd" clip-rule="evenodd" d="M50.845 195.753C56.484 203.709 65.118 207.929 75.069 207.929C78.78 207.929 82.673 207.343 86.662 206.143C89.7663 205.21 94.6534 204.534 98.2263 204.04L98.239 204.039L98.251 204.037C100.591 203.714 102.282 203.48 103.013 203.252C114.365 199.706 118.965 195.035 122.703 190.555C126.155 186.42 127.606 182.305 127.015 178.327C126.346 173.819 123.1 170.616 121.478 169.552C121.416 169.511 115.074 165.687 113.61 167.556C112.77 168.632 113.628 170.05 117.012 173.178C118.998 175.013 119.566 176.781 118.745 178.581C116.841 182.762 107.659 186.231 102.447 185.646C92.749 184.586 85.406 180.477 80.611 173.432C81.163 172.392 82.306 170.205 82.576 169.39C84.353 164.044 84.324 156.96 82.497 148.358L80.95 140.097L90.651 139.975C91.626 139.963 92.538 139.57 93.218 138.873C93.9 138.175 94.268 137.253 94.255 136.277C94.249 135.876 94.225 135.479 94.18 135.09C94.114 134.509 94.003 133.932 93.852 133.375C93.702 132.822 93.511 132.279 93.283 131.76C93.208 131.588 93.128 131.418 93.044 131.247C92.93 131.017 92.806 130.794 92.676 130.57C92.326 129.972 91.932 129.414 91.505 128.91C91.264 128.625 91.01 128.352 90.743 128.094C88.52 125.925 85.593 124.721 82.473 124.788L80.729 124.81C78.596 124.838 76.517 125.446 74.715 126.571C74.399 126.769 74.092 126.982 73.795 127.21C72.908 127.891 72.124 128.696 71.465 129.599C71.245 129.901 71.039 130.214 70.849 130.537C70.658 130.859 70.484 131.191 70.325 131.53C70.244 131.702 70.17 131.876 70.098 132.051C69.884 132.574 69.706 133.123 69.571 133.678C69.525 133.865 69.484 134.054 69.447 134.246C69.3 135.013 69.23 135.804 69.239 136.593C69.263 138.426 69.487 140.259 69.905 142.042L71.13 147.272C72.609 153.583 70.506 163.54 69.011 166.887C68.88 167.18 68.763 167.514 68.656 167.896C63.7811 168.267 60.349 169.382 57.5662 170.287L57.554 170.291L57.5493 170.292C55.4325 170.98 53.7587 171.525 52.049 171.582L52.0488 171.582C51.7216 171.593 50.7247 171.626 49.389 174.317C47.287 178.551 45.23 187.83 50.845 195.753ZM49.738 179.476C50.479 176.054 51.782 173.957 52.26 173.575C54.1999 173.485 56.0448 172.885 58.1726 172.193L58.173 172.193L58.1738 172.192C60.9886 171.276 64.4915 170.137 69.516 169.843L70.28 169.798L70.436 169.049C70.553 168.489 70.688 168.037 70.837 167.703C72.47 164.046 74.679 153.65 73.077 146.815L71.852 141.585C71.467 139.943 71.261 138.255 71.239 136.568C71.232 135.913 71.289 135.258 71.411 134.621C71.441 134.465 71.474 134.31 71.513 134.155C71.625 133.693 71.773 133.24 71.949 132.807C72.008 132.663 72.071 132.52 72.137 132.378C72.269 132.096 72.414 131.82 72.571 131.554C72.729 131.288 72.898 131.028 73.08 130.778C73.628 130.028 74.279 129.361 75.012 128.797C75.258 128.609 75.514 128.431 75.777 128.266C77.266 127.336 78.987 126.833 80.754 126.81L82.498 126.788C82.538 126.787 82.579 126.787 82.62 126.787C85.15 126.787 87.534 127.757 89.348 129.526C89.569 129.741 89.78 129.967 89.979 130.202C90.331 130.619 90.658 131.083 90.948 131.577C91.054 131.761 91.158 131.947 91.252 132.135C91.322 132.275 91.388 132.418 91.451 132.562C91.64 132.991 91.798 133.441 91.922 133.898C92.047 134.359 92.138 134.837 92.194 135.318C92.231 135.641 92.251 135.971 92.255 136.304C92.261 136.744 92.095 137.16 91.785 137.477C91.479 137.793 91.066 137.97 90.624 137.975L78.546 138.127L80.536 148.751C82.293 157.023 82.341 163.756 80.678 168.76C80.463 169.405 79.269 171.712 78.567 173.013L78.284 173.536L78.609 174.034C83.737 181.906 91.684 186.481 102.23 187.635C107.713 188.232 118.114 184.788 120.566 179.41C121.395 177.59 121.687 174.775 118.369 171.709C117.087 170.523 116.343 169.726 115.912 169.204C117.324 169.647 119.582 170.699 120.38 171.223C121.477 171.943 124.45 174.674 125.036 178.621C125.54 182.011 124.239 185.596 121.168 189.274C117.474 193.701 113.26 197.956 102.417 201.344C101.843 201.522 99.959 201.782 97.966 202.057C94.326 202.56 89.342 203.249 86.086 204.227C72.057 208.45 59.807 204.936 52.476 194.596C48.468 188.942 49.04 182.696 49.738 179.476Z" fill="#52267D"/>
<path d="M61.3597 157.993C61.5677 146.729 52.5207 137.993 42.3407 136.251C40.2277 135.889 39.5337 135.236 37.2267 135.264L35.4607 135.287C29.5087 135.362 24.7457 140.247 24.8207 146.198C24.8387 147.681 26.0567 148.869 27.5407 148.85C27.5407 148.85 45.6587 148.617 45.7437 148.608C45.7447 148.609 47.2187 148.591 47.2197 148.592C47.2177 148.594 45.7417 148.613 45.7397 148.615C49.7677 150.265 52.3257 155.354 52.7987 158.1C53.4747 162.011 53.0567 165.248 51.7537 167.879C50.8837 169.631 50.8097 171.73 50.9677 173.427C50.9677 173.427 51.0107 173.441 51.0727 173.461C51.1467 174.368 51.3067 175.399 51.5917 176.574C53.2827 175.364 55.9147 173.542 56.3957 173.28C57.4347 172.715 59.7827 171.427 60.8327 170.807C67.5427 166.847 61.2417 164.399 61.3597 157.993Z" fill="#9452BA"/>
<path fill-rule="evenodd" clip-rule="evenodd" d="M50.6203 176.81L50.9703 178.248L52.1743 177.387C54.0763 176.025 56.4923 174.366 56.8733 174.158C58.0513 173.517 60.3163 172.272 61.3403 171.668C66.3093 168.736 65.0453 166.028 63.8223 163.408C63.1173 161.899 62.3193 160.189 62.3593 158.011C62.5913 145.483 52.3053 136.941 42.5103 135.265C41.7663 135.137 41.2063 134.969 40.6643 134.806L40.6418 134.799C39.6902 134.513 38.7949 134.243 37.2143 134.264L35.4473 134.286C28.9543 134.368 23.7383 139.717 23.8203 146.21C23.8333 147.195 24.2283 148.116 24.9333 148.803C25.6383 149.49 26.5643 149.837 27.5533 149.85C41.2283 149.674 44.6463 149.626 45.5263 149.611C49.1893 151.226 51.4263 156.02 51.8133 158.27C52.4293 161.829 52.1063 164.912 50.8573 167.434C50.0463 169.07 49.7483 171.117 49.9723 173.519L50.0333 174.163L50.1423 174.2C50.2413 175.033 50.4013 175.908 50.6203 176.81ZM51.9303 172.682L51.9173 172.679C51.8553 171.357 51.9663 169.7 52.6493 168.323C54.0913 165.412 54.4733 161.915 53.7843 157.93C53.3483 155.397 51.3743 151.306 48.2803 148.946L48.6343 148.591L47.9273 147.884C47.7153 147.672 47.6093 147.612 47.1853 147.598L47.1843 147.592L46.9533 147.595C46.8551 147.585 46.7573 147.589 46.6466 147.594C46.5916 147.597 46.5333 147.599 46.4703 147.6L46.1453 147.603L46.1373 147.596L45.7053 147.609C45.3603 147.618 33.6633 147.771 27.5273 147.85C27.0833 147.896 26.6523 147.686 26.3293 147.371C26.0073 147.057 25.8263 146.635 25.8203 146.185C25.7523 140.795 30.0823 136.355 35.4733 136.286L37.2393 136.264C38.5083 136.251 39.2093 136.457 40.0893 136.722L40.093 136.723C40.6631 136.894 41.3092 137.087 42.1723 137.236C51.1463 138.772 60.5703 146.562 60.3593 157.974C60.3113 160.615 61.2533 162.633 62.0103 164.254C63.2263 166.859 63.7293 167.937 60.3243 169.946C59.3243 170.535 57.0843 171.767 55.9183 172.401C55.4683 172.646 53.7123 173.854 52.2603 174.874C52.1723 174.359 52.1083 173.859 52.0693 173.379L51.9303 172.682Z" fill="#52267D"/>
<path d="M55.7532 171.074C55.6432 169.337 55.3652 168.447 55.5512 167.737C56.6222 163.65 56.9722 162.36 56.9172 158.049C56.8632 153.763 54.3282 149.559 50.6352 147.353C50.4322 147.232 47.7912 147.079 45.7392 148.615C49.7682 150.265 52.3252 155.354 52.7992 158.1C53.4752 162.011 53.0572 165.248 51.7532 167.879C50.8842 169.631 50.8102 171.73 50.9682 173.427C50.9682 173.427 55.9072 175.211 55.7532 171.074Z" fill="#F3E3FF"/>
<path fill-rule="evenodd" clip-rule="evenodd" d="M50.8015 173.898C50.9007 173.933 51.9717 174.306 53.1428 174.306C53.8508 174.306 54.5958 174.17 55.1848 173.74C55.9398 173.189 56.2988 172.285 56.2528 171.055L56.2518 171.042C56.21 170.372 56.1426 169.827 56.0858 169.367L56.0848 169.359L56.0838 169.351C56.0004 168.664 55.9452 168.209 56.0348 167.864L56.0648 167.747C57.1178 163.733 57.4718 162.38 57.4178 158.042C57.3618 153.622 54.7998 149.258 50.8908 146.923C50.4448 146.656 47.5868 146.607 45.4398 148.214L44.7338 148.742L45.5498 149.077C49.1908 150.569 51.8128 155.324 52.3058 158.185C52.9398 161.851 52.6028 165.037 51.3048 167.655C50.3468 169.588 50.3228 171.885 50.4698 173.473L50.4998 173.788L50.7978 173.897L50.8015 173.898ZM54.5958 172.932C53.7668 173.539 52.2418 173.281 51.4388 173.051C51.3368 171.617 51.4098 169.697 52.2018 168.1C53.5948 165.287 53.9618 161.894 53.2928 158.015C52.8148 155.249 50.4468 150.561 46.7688 148.553C48.4488 147.66 50.2328 147.753 50.3778 147.782C53.9958 149.943 56.3668 153.975 56.4178 158.054C56.4708 162.257 56.1528 163.471 55.0978 167.493L55.0678 167.611C54.9288 168.138 54.9968 168.695 55.0907 169.464L55.0928 169.481C55.1478 169.924 55.2118 170.451 55.2538 171.099C55.2858 171.972 55.0638 172.589 54.5958 172.932Z" fill="#52267D"/>
<path d="M29.8294 137.189C29.8294 137.189 29.8024 135.307 31.6624 134.536C32.2294 134.3 33.2664 133.863 33.2664 133.863C33.2664 133.863 34.4094 136.205 33.1554 136.814C31.3504 137.692 29.8294 137.189 29.8294 137.189Z" fill="white"/>
<path fill-rule="evenodd" clip-rule="evenodd" d="M29.6723 137.663C29.7093 137.676 30.1983 137.832 30.9433 137.832C31.5993 137.832 32.4533 137.711 33.3743 137.264C33.7373 137.087 34.0003 136.787 34.1353 136.397C34.5073 135.318 33.7973 133.812 33.7153 133.643L33.5073 133.218L33.0713 133.401C33.0713 133.401 32.0373 133.839 31.4713 134.073C29.3213 134.965 29.3283 137.105 29.3293 137.195L29.3343 137.552L29.6723 137.663ZM32.9373 136.364C31.8633 136.887 30.8953 136.862 30.3753 136.792C30.4783 136.29 30.8053 135.432 31.8543 134.997C32.0502 134.916 32.3025 134.81 32.5487 134.707C32.7057 134.641 32.8603 134.576 32.9963 134.519C33.1643 134.985 33.3343 135.652 33.1893 136.071C33.1413 136.212 33.0633 136.303 32.9373 136.364Z" fill="#52267D"/>
<path d="M34.4934 135.806C34.4934 135.806 34.5144 133.242 37.3944 132.831C37.9314 132.755 39.3364 132.771 39.3364 132.771C39.3364 132.771 40.0174 135.476 38.5004 135.756C36.6344 136.1 34.4934 135.806 34.4934 135.806Z" fill="white"/>
<path fill-rule="evenodd" clip-rule="evenodd" d="M34.4249 136.301C34.4819 136.309 35.3369 136.425 36.4389 136.425C37.1069 136.425 37.8659 136.382 38.5909 136.248C39.0299 136.168 39.3879 135.927 39.6269 135.555C40.2739 134.548 39.8699 132.841 39.8209 132.649L39.7269 132.275L39.3419 132.271C39.3373 132.271 39.3316 132.271 39.3248 132.271C39.1115 132.269 37.8658 132.26 37.3249 132.337C34.7089 132.709 34.0019 134.766 33.9939 135.802L33.9899 136.242L34.4249 136.301ZM38.4099 135.264C37.1719 135.493 35.7839 135.425 35.0589 135.363C35.2129 134.715 35.7309 133.574 37.4649 133.327C37.7699 133.284 38.4429 133.271 38.9239 133.27C39.0039 133.792 39.0539 134.597 38.7859 135.015C38.6949 135.157 38.5789 135.234 38.4099 135.264Z" fill="#52267D"/>
<path d="M40.2327 135.98C40.2327 135.98 40.5767 133.131 43.1407 133.881C44.2367 134.201 44.8527 135.023 44.8527 135.023C44.8527 135.023 44.3717 137.195 43.3527 136.964C41.5727 136.561 40.2327 135.98 40.2327 135.98Z" fill="white"/>
<path fill-rule="evenodd" clip-rule="evenodd" d="M43.2428 137.451C43.3298 137.471 43.4158 137.481 43.5018 137.481C43.7248 137.481 43.9428 137.416 44.1438 137.288C44.9568 136.774 45.3038 135.297 45.3408 135.131L45.3908 134.906L45.2528 134.723C45.2238 134.684 44.5228 133.763 43.2818 133.402C42.4078 133.145 41.6528 133.224 41.0338 133.632C39.9368 134.356 39.7448 135.857 39.7368 135.92L39.6918 136.29L40.0338 136.439L40.035 136.44C40.107 136.471 41.4483 137.046 43.2428 137.451ZM43.4628 136.477C42.2998 136.213 41.3218 135.867 40.8108 135.673C40.9148 135.308 41.1388 134.76 41.5838 134.466C41.9518 134.224 42.4128 134.19 43.0008 134.361C43.6318 134.545 44.0828 134.933 44.3018 135.155C44.1598 135.649 43.8918 136.265 43.6078 136.444C43.537 136.488 43.497 136.482 43.463 136.477L43.4628 136.477Z" fill="#52267D"/>
<path d="M47.8245 149.691C47.8245 149.691 53.7385 146.378 52.5375 140.945C53.3365 141.587 55.4745 143.546 56.2545 144.553C56.2675 145.62 56.5165 149.853 50.7045 152.762C49.6625 151.709 48.7795 150.389 47.8245 149.691Z" fill="white"/>
<path fill-rule="evenodd" clip-rule="evenodd" d="M50.3494 153.114L50.6034 153.372L50.9284 153.21C54.8604 151.241 56.8214 148.36 56.7544 144.547L56.7524 144.38L56.6494 144.248C55.8494 143.214 53.7044 141.241 52.8504 140.556L51.7424 139.665L52.0494 141.054C53.1544 146.054 47.6364 149.224 47.5794 149.256L46.9024 149.637L47.5294 150.095C48.0624 150.485 48.5964 151.114 49.1594 151.78L49.1698 151.792C49.5446 152.234 49.9323 152.691 50.3494 153.114ZM49.91 151.119C49.4888 150.621 49.0839 150.143 48.6624 149.745C50.0374 148.791 53.3124 146.099 53.1934 142.173C54.0864 142.977 55.1954 144.05 55.7574 144.732C55.7774 146 55.7474 149.527 50.8074 152.147C50.5034 151.821 50.2094 151.474 49.9234 151.135L49.91 151.119Z" fill="#52267D"/>
<path d="M30.6331 136.66C30.6331 136.66 30.6191 135.686 31.5821 135.287C31.8761 135.165 32.4121 134.938 32.4121 134.938C32.4121 134.938 33.0041 136.15 32.3551 136.466C31.4201 136.921 30.6331 136.66 30.6331 136.66Z" fill="#F3E3FF"/>
<path d="M35.7181 135.211C35.7181 135.211 35.7291 133.902 37.1971 133.693C37.4711 133.654 38.1871 133.663 38.1871 133.663C38.1871 133.663 38.5341 135.042 37.7601 135.185C36.8091 135.36 35.7181 135.211 35.7181 135.211Z" fill="#F3E3FF"/>
<path d="M41.1487 135.763C41.1487 135.763 41.3317 134.252 42.6917 134.65C43.2737 134.82 43.5997 135.255 43.5997 135.255C43.5997 135.255 43.3447 136.408 42.8037 136.285C41.8597 136.072 41.1487 135.763 41.1487 135.763Z" fill="#F3E3FF"/>
<path d="M39.7571 146.892L34.3121 146.96C34.2781 144.218 36.4731 141.967 39.2151 141.932L39.6951 141.926C41.0661 141.91 42.1921 143.007 42.2081 144.378C42.2261 145.749 41.1281 146.874 39.7571 146.892Z" fill="#F3E3FF"/>
<path d="M39.2972 146.805L34.4042 146.866C34.3772 144.711 36.1022 142.943 38.2572 142.915L39.2482 142.904C40.3252 142.89 41.2092 143.752 41.2232 144.829C41.2362 145.907 40.3742 146.791 39.2972 146.805Z" fill="white"/>
<path fill-rule="evenodd" clip-rule="evenodd" d="M33.9047 146.873L33.9117 147.372L39.3027 147.305C40.6547 147.288 41.7407 146.175 41.7227 144.823C41.7067 143.483 40.6107 142.404 39.2737 142.404H39.2427L38.2517 142.416C37.0747 142.43 35.9747 142.902 35.1547 143.744C34.3337 144.586 33.8897 145.697 33.9047 146.873ZM39.2537 143.404H39.2737C39.6537 143.404 40.0127 143.55 40.2857 143.816C40.5627 144.087 40.7177 144.449 40.7227 144.836C40.7327 145.636 40.0907 146.296 39.2917 146.305L34.9347 146.359C35.0307 145.639 35.3537 144.971 35.8707 144.442C36.5047 143.792 37.3547 143.427 38.2627 143.416L39.2537 143.404Z" fill="#52267D"/>
<path d="M35.2649 144.789C35.2719 145.391 35.7659 145.872 36.3679 145.865C36.9699 145.857 37.4519 145.363 37.4439 144.762C37.4359 144.16 36.9429 143.679 36.3399 143.685C35.7389 143.693 35.2569 144.187 35.2649 144.789Z" fill="#52267D"/>
<path d="M27.2815 148.035C27.5905 147.965 27.8645 147.789 28.0585 147.539L28.4185 147.075L27.6065 147.26L27.1295 147.368C26.9455 147.41 26.8305 147.594 26.8725 147.777C26.9145 147.962 27.0965 148.077 27.2815 148.035Z" fill="#52267D"/>
<path d="M48.8313 149.785C48.8313 149.785 53.3883 147.258 53.2553 142.283C55.2443 143.694 55.7903 144.616 55.7903 144.616C55.7903 144.616 55.4773 146.989 54.3883 148.198C52.7173 150.055 50.9603 150.641 48.8313 149.785Z" fill="#EAF3FB"/>
<path d="M53.1634 148.858C53.1634 148.858 51.3784 150.72 49.6244 151.626L53.1634 148.858Z" fill="white"/>
<path d="M49.8538 152.07L49.3948 151.181C51.0558 150.324 52.7858 148.53 52.8018 148.512L53.5248 149.204C53.4498 149.283 51.6608 151.137 49.8538 152.07Z" fill="#52267D"/>
<path d="M71.3968 167.978L70.3488 165.974C66.4148 156.641 65.7558 151.14 67.6248 142.163L68.7178 136.903C69.0768 135.177 69.2468 133.417 69.2238 131.655C69.1508 125.781 64.3288 121.079 58.4548 121.153L56.7378 121.174C50.9438 121.248 46.3058 126.002 46.3788 131.796L46.3828 132.098C46.3998 133.476 47.5318 134.58 48.9108 134.562L59.7828 134.425L58.2528 143.898C53.5258 169.29 54.1608 179.552 64.0638 177.317" fill="#9452BA"/>
<path d="M61.6292 178.618C59.8052 178.618 58.3412 178.07 57.1942 176.966C53.4632 173.373 53.4832 164.051 57.2702 143.716L58.6062 135.44L48.9232 135.562C48.0002 135.555 47.1082 135.222 46.4382 134.57C45.7692 133.918 45.3952 133.045 45.3832 132.11L45.3792 131.809C45.3402 128.74 46.4992 125.84 48.6422 123.642C50.7852 121.445 53.6552 120.214 56.7252 120.175L58.4412 120.153C61.5412 120.079 64.4852 121.286 66.7122 123.458C68.9382 125.628 70.1852 128.535 70.2242 131.642C70.2472 133.473 70.0692 135.311 69.6972 137.106L68.6042 142.366C66.7772 151.139 67.3762 156.348 71.2712 165.586L72.2822 167.515L70.5112 168.441L69.4632 166.438C65.3952 156.796 64.7442 151.095 66.6452 141.959L67.7382 136.7C68.0822 135.047 68.2452 133.353 68.2242 131.668C68.1912 129.094 67.1592 126.686 65.3172 124.889C63.4732 123.093 61.0372 122.096 58.4672 122.153L56.7502 122.175C51.5172 122.241 47.3132 126.552 47.3792 131.784L47.3832 132.086C47.3882 132.485 47.5482 132.859 47.8342 133.138C48.1202 133.417 48.5302 133.555 48.8982 133.562L60.9592 133.411L59.2402 144.057C56.7332 157.531 54.6962 171.784 58.5822 175.525C59.7172 176.619 61.4372 176.886 63.8442 176.342L64.2832 178.293C63.3242 178.51 62.4412 178.618 61.6292 178.618Z" fill="#52267D"/>
<path d="M51.5052 122.498C51.5052 122.498 51.6562 120.652 53.4792 119.897C54.0352 119.666 54.9132 119.894 54.9132 119.894C54.9132 119.894 55.9922 121.534 54.7632 122.132C52.9942 122.991 51.5052 122.498 51.5052 122.498Z" fill="white"/>
<path fill-rule="evenodd" clip-rule="evenodd" d="M51.348 122.973C51.384 122.985 51.866 123.139 52.598 123.139C53.242 123.139 54.079 123.02 54.982 122.582C55.4 122.379 55.68 122.053 55.794 121.639C56.042 120.737 55.405 119.731 55.331 119.62L55.225 119.459L55.038 119.41C54.932 119.382 53.979 119.147 53.287 119.436C51.207 120.298 51.014 122.37 51.007 122.458L50.975 122.849L51.348 122.973ZM54.544 121.682C53.517 122.182 52.61 122.175 52.096 122.111C52.25 121.604 52.651 120.782 53.671 120.36C53.901 120.262 54.3 120.287 54.592 120.338C54.734 120.607 54.916 121.062 54.829 121.376C54.804 121.466 54.749 121.584 54.544 121.682Z" fill="#52267D"/>
<path d="M55.8587 121.836C55.8587 121.836 55.8817 118.931 59.1437 118.467C59.7527 118.38 60.5357 118.43 60.5357 118.43C60.5357 118.43 62.1147 121.462 60.3957 121.778C58.2837 122.168 55.8587 121.836 55.8587 121.836Z" fill="white"/>
<path fill-rule="evenodd" clip-rule="evenodd" d="M55.7914 122.331C55.8544 122.34 56.8164 122.469 58.0574 122.469C58.8104 122.469 59.6674 122.421 60.4864 122.271C61.0964 122.159 61.3884 121.798 61.5254 121.516C62.0814 120.379 61.0934 118.419 60.9784 118.2L60.8494 117.949L60.5664 117.931C60.5643 117.931 60.5588 117.931 60.5501 117.93C60.4282 117.924 59.6832 117.886 59.0734 117.972C56.1564 118.387 55.3684 120.678 55.3584 121.832L55.3544 122.272L55.7914 122.331ZM60.3054 121.287C58.8474 121.556 57.2094 121.464 56.4134 121.393C56.5624 120.66 57.1224 119.26 59.2144 118.962C59.5494 118.914 59.9514 118.909 60.2174 118.918C60.5434 119.632 60.8414 120.639 60.6274 121.077C60.5874 121.159 60.5174 121.247 60.3054 121.287Z" fill="#52267D"/>
<path d="M61.7112 122.423C61.7112 122.423 62.1192 119.642 64.6122 120.44C65.6782 120.78 66.2612 121.601 66.2612 121.601C66.2612 121.601 65.7342 123.716 64.7422 123.465C63.0102 123.026 61.7112 122.423 61.7112 122.423Z" fill="white"/>
<path fill-rule="evenodd" clip-rule="evenodd" d="M64.6191 123.949C64.7141 123.974 64.8101 123.985 64.9041 123.985C65.1141 123.985 65.3211 123.927 65.5141 123.812C66.3111 123.334 66.6801 121.986 66.7461 121.722L66.8021 121.498L66.6681 121.311C66.6411 121.272 65.9751 120.351 64.7651 119.963C63.9121 119.691 63.1671 119.749 62.5491 120.135C61.459 120.815 61.229 122.27 61.2163 122.35L61.2161 122.351L61.1621 122.72L61.5011 122.876C61.5561 122.902 62.8621 123.504 64.6191 123.949ZM64.8651 122.981C63.7391 122.694 62.7951 122.335 62.2981 122.131C62.4101 121.777 62.6421 121.256 63.0781 120.984C63.4431 120.758 63.8941 120.735 64.4601 120.916C65.0681 121.11 65.4971 121.496 65.7071 121.72C65.5561 122.19 65.2771 122.787 65.0001 122.953C64.9371 122.992 64.9001 122.989 64.8651 122.981Z" fill="#52267D"/>
<path d="M52.3069 172.242C52.9209 171.77 53.5449 171.494 54.0829 171.358L52.3069 172.242Z" fill="#F3E3FF"/>
<path d="M52.6116 172.638L52.0026 171.845C52.6086 171.379 53.2866 171.043 53.9616 170.873L54.2056 171.842C53.8266 171.938 53.2426 172.154 52.6116 172.638Z" fill="#52267D"/>
<path d="M55.9065 172.139C54.0395 164.941 57.0715 151.093 57.6175 147.688L59.7805 134.044L60.8035 134.032C62.1005 134.015 63.0995 135.411 62.9315 136.7L61.3875 148.529C60.8665 152.535 60.5035 171.056 67.5005 174.946C68.9935 175.776 71.3955 175.189 72.2985 174.744C75.5805 173.125 76.4785 168.995 77.1605 165.667C78.5715 158.78 77.3375 153.402 76.9375 148.022L76.5055 141.289C76.4275 140.073 77.3795 138.768 78.5965 138.753L79.8385 138.738L82.2455 152.324C82.9665 156.193 84.8655 169.615 77.0225 176.017C76.8815 176.133 78.9565 176.57 78.3695 177.637C76.0405 181.879 69.1445 182.632 67.8675 184.452C62.9475 191.458 67.8225 206.195 67.8225 206.195C67.8225 206.195 62.2375 204.046 58.7575 201.005C50.6215 193.895 49.4685 183.462 49.3925 180.388C49.3025 176.71 50.2395 174.416 51.4125 173.039" fill="#F3E3FF"/>
<path d="M68.6292 207.04L67.6432 206.661C67.4112 206.572 61.9352 204.445 58.4282 201.382C49.6532 193.713 48.9452 182.559 48.8932 180.4C48.8112 177.063 49.5302 174.477 51.0312 172.715L51.7932 173.363C50.4752 174.911 49.8172 177.336 49.8932 180.375C49.9242 181.653 50.4472 193.078 59.0862 200.628C61.6022 202.826 65.2972 204.572 67.0332 205.325C66.0142 201.807 63.1582 190.288 67.4582 184.164C68.0352 183.342 69.3782 182.793 71.0792 182.098C73.5322 181.095 76.5852 179.847 77.9312 177.396C77.9882 177.292 77.9742 177.248 77.9682 177.231C77.8902 176.998 77.3092 176.739 77.0902 176.643C76.8072 176.516 76.5622 176.407 76.5212 176.098L76.4832 175.821L76.7052 175.63C84.2542 169.468 82.4782 156.303 81.7542 152.415L79.4202 139.242L78.6032 139.253C78.2302 139.258 77.8582 139.438 77.5582 139.763C77.1832 140.167 76.9712 140.74 77.0042 141.257L77.4372 147.989C77.5272 149.211 77.6622 150.437 77.7992 151.682C78.2692 155.958 78.7542 160.38 77.6502 165.768C76.9872 169.004 76.0792 173.436 72.5202 175.192C71.5882 175.65 68.9712 176.337 67.2572 175.382C59.7512 171.21 60.4512 151.852 60.8922 148.464L62.4362 136.635C62.5062 136.1 62.3132 135.501 61.9312 135.072C61.6202 134.723 61.2292 134.531 60.8262 134.531H60.8112L60.2082 134.539L58.1112 147.766C58.0372 148.228 57.9172 148.883 57.7712 149.686C56.8822 154.535 54.8032 165.894 56.3912 172.013L55.4222 172.265C53.7792 165.931 55.8112 154.837 56.7862 149.505C56.9322 148.712 57.0502 148.065 57.1232 147.608L59.3532 133.549L60.7982 133.531H60.8272C61.5192 133.531 62.1752 133.842 62.6782 134.407C63.2552 135.057 63.5352 135.937 63.4282 136.764L61.8842 148.593C61.2772 153.252 61.1952 170.868 67.7432 174.508C69.0202 175.219 71.2322 174.711 72.0772 174.296C75.1982 172.756 76.0492 168.601 76.6702 165.566C77.7422 160.333 77.2662 155.99 76.8052 151.79C76.6672 150.534 76.5312 149.297 76.4392 148.059L76.0062 141.321C75.9552 140.527 76.2612 139.691 76.8242 139.083C77.3132 138.556 77.9412 138.261 78.5912 138.253L80.2562 138.232L82.7372 152.236C83.4682 156.159 85.2252 169.239 77.9002 175.919C78.3062 176.128 78.7552 176.436 78.9162 176.913C78.9892 177.13 79.0292 177.474 78.8082 177.878C77.2912 180.639 74.0572 181.961 71.4582 183.023C70.0312 183.606 68.6852 184.157 68.2762 184.738C63.5562 191.462 68.2492 205.893 68.2972 206.037L68.6292 207.04Z" fill="#52267D"/>
<path d="M121.291 177.342C121.291 177.342 122.418 176.062 121.755 174.37C121.552 173.854 120.84 173.416 120.84 173.416C120.84 173.416 119.062 173.75 119.451 174.946C120.012 176.669 121.291 177.342 121.291 177.342Z" fill="white"/>
<path fill-rule="evenodd" clip-rule="evenodd" d="M121.058 177.784L121.406 177.968L121.666 177.672C121.721 177.61 122.986 176.141 122.22 174.187C121.963 173.534 121.189 173.044 121.101 172.99L120.937 172.889L120.747 172.925C120.625 172.947 119.533 173.172 119.085 173.929C118.877 174.278 118.84 174.684 118.975 175.101C119.592 176.995 120.999 177.753 121.058 177.784ZM119.944 174.439C120.079 174.21 120.464 174.04 120.742 173.956C120.945 174.109 121.209 174.348 121.289 174.553C121.642 175.454 121.387 176.214 121.158 176.642C120.792 176.338 120.238 175.75 119.927 174.791C119.867 174.607 119.904 174.507 119.944 174.439Z" fill="#52267D"/>
<path d="M120.891 175.588C120.891 175.588 121.287 175.139 121.054 174.545C120.983 174.364 120.733 174.211 120.733 174.211C120.733 174.211 120.11 174.328 120.246 174.747C120.443 175.352 120.891 175.588 120.891 175.588Z" fill="#F3E3FF"/>
<path d="M112.046 186.528C112.046 186.528 110.929 184.065 113.502 182.396C113.982 182.085 114.663 181.82 114.663 181.82C114.663 181.82 117.184 183.763 115.856 184.704C114.224 185.859 112.046 186.528 112.046 186.528Z" fill="white"/>
<path fill-rule="evenodd" clip-rule="evenodd" d="M111.591 186.735L111.772 187.135L112.192 187.005C112.285 186.977 114.467 186.299 116.144 185.112C116.627 184.77 116.735 184.34 116.742 184.04C116.766 182.87 115.268 181.656 114.969 181.424L114.745 181.251L114.482 181.354C114.481 181.354 114.48 181.355 114.478 181.356C114.408 181.383 113.73 181.651 113.229 181.976C110.909 183.482 111.142 185.747 111.591 186.735ZM113.774 182.815C114.028 182.65 114.353 182.497 114.579 182.397C115.115 182.863 115.751 183.586 115.742 184.019C115.74 184.099 115.718 184.188 115.566 184.295C114.464 185.077 113.076 185.633 112.365 185.89C112.214 185.209 112.172 183.855 113.774 182.815Z" fill="#52267D"/>
<path d="M112.938 185.584C112.938 185.584 112.319 184.218 113.746 183.293C114.012 183.12 114.389 182.974 114.389 182.974C114.389 182.974 115.788 184.051 115.051 184.572C114.146 185.213 112.938 185.584 112.938 185.584Z" fill="#F3E3FF"/>
<path d="M119.862 178.317C119.862 178.317 121.762 179.945 119.978 181.443C119.216 182.084 118.321 182.133 118.321 182.133C118.321 182.133 116.977 180.733 117.638 180.105C118.792 179.008 119.862 178.317 119.862 178.317Z" fill="white"/>
<path fill-rule="evenodd" clip-rule="evenodd" d="M117.96 182.479L118.118 182.645L118.348 182.632C118.392 182.63 119.419 182.565 120.299 181.825C120.921 181.303 121.238 180.7 121.241 180.034C121.247 178.859 120.23 177.974 120.187 177.937L119.903 177.695L119.59 177.897C119.545 177.926 118.467 178.626 117.293 179.742C117.079 179.946 116.962 180.215 116.955 180.521C116.936 181.368 117.788 182.301 117.96 182.479ZM117.982 180.467C118.703 179.782 119.397 179.255 119.793 178.971C119.996 179.219 120.243 179.61 120.241 180.03C120.239 180.394 120.048 180.731 119.656 181.06C119.247 181.404 118.783 181.543 118.516 181.599C118.245 181.269 117.953 180.795 117.982 180.467Z" fill="#52267D"/>
<path d="M119.603 179.49C119.603 179.49 120.445 180.211 119.654 180.875C119.316 181.158 118.92 181.18 118.92 181.18C118.92 181.18 118.325 180.56 118.618 180.282C119.128 179.796 119.603 179.49 119.603 179.49Z" fill="#F3E3FF"/>
<path d="M103.041 187.943C103.041 187.943 102.394 185.747 104.809 184.841C107.224 183.935 107.885 184.655 107.885 184.655C107.885 184.655 109.255 186.897 108.065 187.639C106.875 188.381 103.041 187.943 103.041 187.943Z" fill="white"/>
<path fill-rule="evenodd" clip-rule="evenodd" d="M102.985 188.44C103.191 188.463 104.214 188.574 105.346 188.574C106.462 188.574 107.684 188.466 108.33 188.063C109.601 187.27 108.916 185.384 108.253 184.317C108.105 184.154 107.235 183.396 104.633 184.374C102.378 185.218 102.292 187.171 102.562 188.085L102.655 188.402L102.985 188.44ZM107.801 187.215C107.105 187.649 104.915 187.618 103.465 187.484C103.415 186.944 103.518 185.859 104.985 185.309C106.681 184.673 107.35 184.916 107.506 184.997C107.777 185.478 108.402 186.84 107.801 187.215Z" fill="#52267D"/>
<path d="M104.173 187.428C104.173 187.428 103.837 186.285 105.093 185.815C106.349 185.344 106.693 185.718 106.693 185.718C106.693 185.718 107.405 186.884 106.786 187.27C106.167 187.656 104.173 187.428 104.173 187.428Z" fill="#F3E3FF"/>
<path d="M59.2932 137.37C59.2932 137.37 63.1932 139.512 68.6132 137.467C68.2612 139.16 67.5422 142.564 67.5422 142.564C67.5422 142.564 62.5182 144.174 58.5962 141.775C58.9672 139.529 59.2932 137.37 59.2932 137.37Z" fill="white"/>
<path fill-rule="evenodd" clip-rule="evenodd" d="M58.3348 142.203C60.1108 143.288 62.0778 143.599 63.7488 143.599C65.9088 143.599 67.5748 143.079 67.6948 143.041L67.9718 142.953L68.0318 142.668C68.0318 142.668 68.7498 139.263 69.1028 137.569L69.2888 136.678L68.4368 136.999C63.3188 138.932 59.5708 136.953 59.5328 136.932L58.9058 136.591L58.7988 137.296C58.7988 137.297 58.4728 139.453 58.1028 141.695L58.0478 142.027L58.3348 142.203ZM67.1158 142.165C66.0728 142.434 62.2668 143.237 59.1458 141.517C59.3708 140.144 59.5728 138.844 59.6878 138.096C60.9548 138.596 63.9978 139.455 67.9448 138.226C67.7048 139.372 67.4035 140.801 67.2198 141.671C67.1785 141.867 67.1432 142.035 67.1158 142.165Z" fill="#52267D"/>
<path d="M88.1468 127.166C88.1468 127.166 87.9478 125.311 86.0928 124.596C85.5268 124.378 84.0048 124.336 84.0048 124.336C84.0048 124.336 83.6028 126.309 84.8558 126.879C86.6588 127.7 88.1468 127.166 88.1468 127.166Z" fill="white"/>
<path fill-rule="evenodd" clip-rule="evenodd" d="M84.6485 127.335C85.5065 127.725 86.3015 127.837 86.9295 127.837C87.7415 127.837 88.2765 127.651 88.3155 127.637L88.6855 127.504L88.6435 127.113C88.6345 127.025 88.3885 124.945 86.2725 124.129C85.6435 123.888 84.1835 123.841 84.0185 123.836L83.5985 123.825L83.5145 124.237C83.4955 124.333 83.0525 126.608 84.6485 127.335ZM85.0625 126.424C84.4845 126.162 84.4265 125.359 84.4505 124.857C84.9915 124.891 85.6435 124.96 85.9135 125.063C86.9555 125.464 87.3795 126.287 87.5465 126.794C87.0325 126.873 86.1105 126.902 85.0625 126.424Z" fill="#52267D"/>
<path d="M83.4524 126.277C83.4524 126.277 83.3674 123.747 80.5154 123.414C79.9834 123.351 79.3034 123.412 79.3034 123.412C79.3034 123.412 77.9934 126.089 79.4984 126.327C81.3474 126.62 83.4524 126.277 83.4524 126.277Z" fill="white"/>
<path fill-rule="evenodd" clip-rule="evenodd" d="M79.42 126.821C80.005 126.913 80.611 126.946 81.17 126.946C82.435 126.946 83.471 126.781 83.532 126.77L83.967 126.7L83.952 126.26C83.918 125.236 83.167 123.22 80.574 122.916C80.0161 122.852 79.3375 122.907 79.2646 122.913C79.2619 122.913 79.26 122.913 79.259 122.913L78.978 122.939L78.854 123.192C78.697 123.513 77.939 125.166 78.45 126.152C78.584 126.408 78.861 126.732 79.42 126.821ZM79.338 125.691C79.158 125.345 79.383 124.499 79.635 123.892C79.861 123.882 80.185 123.877 80.458 123.911C82.165 124.11 82.705 125.212 82.875 125.848C82.164 125.927 80.803 126.027 79.576 125.832C79.3989 125.804 79.3594 125.731 79.3383 125.692L79.338 125.691Z" fill="#52267D"/>
<path d="M78.0618 126.528C78.0618 126.528 77.5808 123.737 75.0888 124.604C74.0258 124.974 73.4578 125.815 73.4578 125.815C73.4578 125.815 74.0408 127.932 75.0348 127.654C76.7688 127.169 78.0618 126.528 78.0618 126.528Z" fill="white"/>
<path fill-rule="evenodd" clip-rule="evenodd" d="M74.2679 128.019C74.4549 128.125 74.6549 128.179 74.8559 128.179C74.9599 128.179 75.0649 128.164 75.1689 128.135C76.8633 127.662 78.1314 127.05 78.2726 126.982C78.2781 126.979 78.2818 126.977 78.2839 126.976L78.6179 126.81L78.5549 126.442C78.5439 126.38 78.2789 124.907 77.1579 124.247C76.5259 123.874 75.7729 123.838 74.9249 124.131C73.7179 124.551 73.0709 125.495 73.0439 125.535L72.9149 125.726L72.9759 125.947C73.0489 126.213 73.4549 127.56 74.2679 128.019ZM74.7599 127.149C74.4729 126.986 74.1809 126.397 74.0149 125.92C74.2219 125.689 74.6449 125.287 75.2529 125.076C75.8159 124.879 76.2729 124.888 76.6469 125.107C77.0999 125.372 77.3469 125.896 77.4689 126.25C76.9739 126.468 76.0299 126.856 74.8999 127.172C74.8659 127.182 74.8279 127.188 74.7599 127.149Z" fill="#52267D"/>
<path d="M52.4583 122.021C52.4583 122.021 52.5393 121.035 53.5133 120.631C53.8103 120.508 54.2793 120.629 54.2793 120.629C54.2793 120.629 54.8553 121.505 54.1983 121.825C53.2543 122.284 52.4583 122.021 52.4583 122.021Z" fill="#F3E3FF"/>
<path d="M56.928 121.334C56.928 121.334 56.943 119.513 58.988 119.222C59.368 119.167 59.86 119.199 59.86 119.199C59.86 119.199 60.85 121.1 59.772 121.298C58.448 121.542 56.928 121.334 56.928 121.334Z" fill="#F3E3FF"/>
<path d="M62.7864 122.13C62.7864 122.13 63.0214 120.526 64.4604 120.985C65.0754 121.183 65.4114 121.655 65.4114 121.655C65.4114 121.655 65.1084 122.876 64.5354 122.732C63.5354 122.478 62.7864 122.13 62.7864 122.13Z" fill="#F3E3FF"/>
<path d="M87.2239 126.703C87.2239 126.703 87.1189 125.723 86.1379 125.344C85.8389 125.228 85.0349 125.207 85.0349 125.207C85.0349 125.207 84.8219 126.25 85.4849 126.551C86.4379 126.985 87.2239 126.703 87.2239 126.703Z" fill="#F3E3FF"/>
<path d="M82.3421 125.844C82.3421 125.844 82.2951 124.446 80.7191 124.261C80.4241 124.227 80.0481 124.26 80.0481 124.26C80.0481 124.26 79.3231 125.74 80.1551 125.871C81.1781 126.033 82.3421 125.844 82.3421 125.844Z" fill="#F3E3FF"/>
<path d="M77.0638 126.35C77.0638 126.35 76.7998 124.824 75.4378 125.298C74.8558 125.5 74.5448 125.96 74.5448 125.96C74.5448 125.96 74.8648 127.119 75.4078 126.966C76.3568 126.701 77.0638 126.35 77.0638 126.35Z" fill="#F3E3FF"/>
<path d="M70.927 142.021C70.927 142.021 75.733 142.708 80.28 141.532C80.755 144.005 81.064 145.873 81.064 145.873C81.064 145.873 77.927 148.061 72.068 146.888C71.338 143.713 70.927 142.021 70.927 142.021Z" fill="white"/>
<path fill-rule="evenodd" clip-rule="evenodd" d="M71.9697 147.378C73.2497 147.634 74.4027 147.735 75.4287 147.735C79.2107 147.735 81.2437 146.356 81.3497 146.282L81.6087 146.102L81.5567 145.791C81.5567 145.791 81.2477 143.918 80.7707 141.437L80.6697 140.914L80.1547 141.047C75.7597 142.185 71.0447 141.533 70.9977 141.525L70.2667 141.422L70.4407 142.139C70.4417 142.141 70.8517 143.831 71.5807 147L71.6527 147.314L71.9697 147.378ZM80.5137 145.616C79.6817 146.062 76.9187 147.266 72.4817 146.458C72.0607 144.631 71.7537 143.33 71.5797 142.598C73.0377 142.736 76.4577 142.926 79.8867 142.142C80.1907 143.746 80.4147 145.033 80.5137 145.616Z" fill="#52267D"/>
<path d="M78.7991 137.105L84.2431 137.036C84.2091 134.293 81.9581 132.098 79.2151 132.132L78.7371 132.139C77.3651 132.156 76.2681 133.282 76.2841 134.653C76.3021 136.024 77.4271 137.122 78.7991 137.105Z" fill="#F3E3FF"/>
<path d="M79.3938 137.003L84.1488 136.943C84.1218 134.789 82.3528 133.065 80.1988 133.091L79.0698 133.106C78.0678 133.118 77.2668 133.94 77.2798 134.941C77.2928 136.095 78.2408 137.018 79.3938 137.003Z" fill="white"/>
<path fill-rule="evenodd" clip-rule="evenodd" d="M77.5594 136.769C78.0474 137.243 78.6874 137.503 79.3664 137.503H79.3994L84.6544 137.438L84.6484 136.938C84.6184 134.529 82.6484 132.591 80.2464 132.591H80.1914L79.0634 132.606C78.4454 132.613 77.8674 132.862 77.4354 133.304C77.0054 133.746 76.7714 134.33 76.7794 134.947C76.7874 135.639 77.0644 136.285 77.5594 136.769ZM80.2044 133.591H80.2474C81.9344 133.591 83.3454 134.828 83.6054 136.45L79.3804 136.503H79.3664C78.9504 136.503 78.5574 136.344 78.2584 136.052C77.9544 135.756 77.7844 135.36 77.7794 134.936C77.7744 134.584 77.9074 134.253 78.1514 134.002C78.3964 133.751 78.7254 133.611 79.0764 133.606L80.2044 133.591Z" fill="#52267D"/>
<path d="M81.385 136.065C81.114 135.528 81.332 134.873 81.869 134.603C82.407 134.333 83.063 134.55 83.332 135.087C83.603 135.626 83.385 136.281 82.847 136.55C82.309 136.821 81.655 136.603 81.385 136.065Z" fill="#52267D"/>
<path d="M59.8977 132.633L54.4537 132.701C54.4187 129.959 56.6147 127.707 59.3567 127.673L59.8357 127.667C61.2077 127.65 62.3327 128.747 62.3497 130.119C62.3677 131.49 61.2697 132.615 59.8977 132.633Z" fill="#F3E3FF"/>
<path d="M59.4388 132.545L54.5448 132.607C54.5188 130.452 56.2438 128.684 58.3978 128.656L59.3898 128.644C60.4668 128.631 61.3508 129.493 61.3648 130.57C61.3778 131.648 60.5158 132.532 59.4388 132.545Z" fill="white"/>
<path fill-rule="evenodd" clip-rule="evenodd" d="M54.0454 132.613L54.0514 133.113L59.4444 133.045C60.0994 133.038 60.7114 132.775 61.1684 132.306C61.6254 131.837 61.8724 131.219 61.8644 130.565C61.8484 129.224 60.7504 128.144 59.4124 128.144H59.3834L58.3914 128.157C55.9654 128.188 54.0164 130.187 54.0454 132.613ZM59.3954 129.144H59.4134C60.2054 129.144 60.8544 129.784 60.8644 130.578C60.8694 130.964 60.7234 131.331 60.4524 131.608C60.1824 131.885 59.8194 132.04 59.4334 132.045L55.0754 132.1C55.2984 130.458 56.6984 129.178 58.4044 129.157L59.3954 129.144Z" fill="#52267D"/>
<path d="M55.9095 131.476C56.3775 131.856 57.0625 131.785 57.4425 131.317C57.8215 130.85 57.7505 130.164 57.2835 129.785C56.8155 129.405 56.1305 129.476 55.7505 129.944C55.3715 130.411 55.4425 131.097 55.9095 131.476Z" fill="#52267D"/>
<path d="M90.8177 138.086C90.5067 138.024 90.2277 137.856 90.0277 137.609L89.6577 137.155L90.4727 137.319L90.9527 137.416C91.1377 137.453 91.2577 137.634 91.2197 137.818C91.1827 138.004 91.0037 138.123 90.8177 138.086Z" fill="#52267D"/>
<path d="M48.7513 133.519C49.0603 133.449 49.3353 133.273 49.5283 133.023L49.8883 132.559L49.0773 132.744L48.6003 132.852C48.4153 132.894 48.3003 133.078 48.3423 133.261C48.3843 133.446 48.5673 133.561 48.7513 133.519Z" fill="#52267D"/>
<path d="M59.7669 138.072C59.7669 138.072 63.8469 139.751 67.9199 138.119C67.5219 140.525 67.1549 141.756 67.1549 141.756C67.1549 141.756 64.6929 141.931 63.0589 141.631C60.7239 141.202 59.7929 140.154 59.7669 138.072Z" fill="#EAF3FB"/>
<path d="M65.4515 141.08C65.4515 141.08 61.7635 141.434 58.8865 139.988L65.4515 141.08Z" fill="white"/>
<path d="M64.3958 141.62C63.0418 141.62 60.6808 141.45 58.6618 140.434L59.1108 139.542C61.8268 140.906 65.3688 140.585 65.4038 140.582L65.4998 141.578C65.4498 141.583 65.0348 141.62 64.3958 141.62Z" fill="#52267D"/>
<path d="M78.5335 142.467C78.5335 142.467 74.9465 143.535 71.7625 142.94C72.3925 145.297 72.7205 146.033 72.7205 146.033C72.7205 146.033 77.4755 145.339 78.5335 142.467Z" fill="#EAF3FB"/>
<path d="M77.0237 176.068C77.0237 176.068 76.8077 176.227 76.5017 176.418L77.0237 176.068Z" fill="#F3E3FF"/>
<path d="M76.6331 176.629L76.3691 176.205C76.6631 176.022 76.8721 175.869 76.8751 175.866L77.1721 176.269C77.1721 176.269 76.9491 176.433 76.6331 176.629Z" fill="#52267D"/>
<path d="M78.8977 143.823C78.8977 143.823 75.2837 144.555 71.4307 144.144L78.8977 143.823Z" fill="white"/>
<path d="M73.9114 144.771C73.1054 144.771 72.2494 144.735 71.3784 144.642L71.4834 143.648C75.2114 144.043 78.7634 143.341 78.7984 143.334L78.9974 144.314C78.8804 144.337 76.6974 144.771 73.9114 144.771Z" fill="#52267D"/>
<path d="M73.8968 218.443C73.8968 218.443 72.9248 217.672 71.6618 218.737C70.5058 219.711 69.6468 221.203 70.1718 221.345C70.6968 221.488 71.6198 221.621 72.5848 221.431C73.4238 221.266 74.1688 221.42 74.4848 219.654C74.6318 218.832 73.8968 218.443 73.8968 218.443Z" fill="white"/>
<path fill-rule="evenodd" clip-rule="evenodd" d="M70.1068 221.586C70.3098 221.642 70.8748 221.775 71.5938 221.775C71.9158 221.775 72.2678 221.748 72.6318 221.676C72.7362 221.655 72.8379 221.641 72.9376 221.626L72.9508 221.624C73.6758 221.517 74.4258 221.405 74.7308 219.697C74.8708 218.917 74.3408 218.402 74.0288 218.23C73.8578 218.111 72.7928 217.455 71.5008 218.545C70.5768 219.324 69.6418 220.621 69.7788 221.237C69.8178 221.413 69.9368 221.54 70.1068 221.586ZM71.8228 218.928C72.2868 218.536 72.6998 218.423 73.0218 218.423C73.4528 218.423 73.7238 218.625 73.7428 218.64L73.7788 218.663L73.7791 218.663C73.8065 218.679 74.3503 218.986 74.2388 219.61C73.9968 220.963 73.5509 221.029 72.877 221.129L72.8768 221.129C72.8687 221.13 72.8606 221.132 72.8525 221.133C72.7492 221.149 72.6434 221.165 72.5368 221.186C71.5486 221.38 70.6638 221.209 70.3414 221.147C70.3121 221.141 70.2874 221.137 70.2678 221.133C70.1868 220.902 70.8018 219.788 71.8228 218.928Z" fill="#52267D"/>
<path d="M73.6809 218.731C73.6809 218.731 73.0769 218.251 72.2899 218.914C71.5719 219.52 71.0359 220.449 71.3639 220.537C71.6899 220.626 72.2639 220.709 72.8649 220.59C73.3869 220.488 73.8509 220.584 74.0469 219.485C74.1389 218.973 73.6809 218.731 73.6809 218.731Z" fill="#EAF3FB"/>
<path d="M75.26 218.408C75.768 218.334 76.512 219.428 76.433 219.764C76.354 220.102 76.31 221.214 75.489 221.345C74.885 221.441 72.729 221.693 72.251 221.229C71.812 220.803 72.637 218.794 75.26 218.408Z" fill="white"/>
<path fill-rule="evenodd" clip-rule="evenodd" d="M72.0772 221.409C72.3502 221.674 72.9802 221.753 73.6292 221.753C74.4802 221.753 75.3662 221.617 75.5282 221.592C76.4047 221.451 76.5666 220.473 76.6448 220.001L76.6452 219.999C76.6552 219.927 76.6652 219.867 76.6762 219.822C76.7592 219.467 76.3942 218.908 76.1282 218.619C75.9102 218.382 75.5702 218.104 75.2242 218.161C73.3982 218.429 72.2722 219.504 71.9672 220.449C71.8332 220.861 71.8732 221.211 72.0772 221.409ZM72.4422 220.603C72.6352 220.008 73.4522 218.926 75.2962 218.655C75.3722 218.661 75.4942 218.698 75.6742 218.869C75.9942 219.174 76.1992 219.597 76.1902 219.708C76.1772 219.761 76.1642 219.834 76.1502 219.918C76.0642 220.448 75.9312 221.021 75.4502 221.097C74.3782 221.27 72.7332 221.348 72.4252 221.05C72.3942 221.019 72.3572 220.87 72.4422 220.603Z" fill="#52267D"/>
<path d="M75.7726 218.301C76.2796 218.227 77.0246 219.321 76.9456 219.657C76.8666 219.995 76.8226 221.106 76.0016 221.237C75.3976 221.333 73.2416 221.585 72.7636 221.122C72.3246 220.695 73.1496 218.686 75.7726 218.301Z" fill="white"/>
<path fill-rule="evenodd" clip-rule="evenodd" d="M72.4165 221.483C72.7465 221.803 73.4505 221.898 74.1685 221.898C74.9385 221.898 75.7255 221.788 76.0815 221.732C77.1363 221.563 77.3234 220.421 77.4035 219.933L77.4035 219.933C77.4065 219.915 77.4094 219.897 77.412 219.881C77.419 219.839 77.425 219.802 77.4315 219.773C77.5455 219.29 77.1035 218.648 76.8255 218.344C76.4545 217.94 76.0705 217.751 75.7005 217.807C73.6365 218.11 72.5475 219.32 72.2415 220.264C72.0775 220.771 72.1405 221.215 72.4165 221.483ZM73.3915 220.172C73.6135 219.836 74.2915 219.032 75.8185 218.801C76.0235 218.867 76.4235 219.405 76.4585 219.544C76.4455 219.603 76.4315 219.681 76.4175 219.772C76.3435 220.215 76.2405 220.694 75.9225 220.743C74.7205 220.938 73.3535 220.945 73.1555 220.827C73.1375 220.762 73.1725 220.505 73.3915 220.172Z" fill="#52267D"/>
<path d="M75.9191 218.605C76.2181 218.561 76.6571 219.207 76.6101 219.406C76.5641 219.605 76.5381 220.26 76.0551 220.337C75.6971 220.394 74.4251 220.543 74.1441 220.27C73.8841 220.018 74.3711 218.833 75.9191 218.605Z" fill="#EAF3FB"/>
<path d="M77.5831 218.821C77.5831 218.821 77.1931 218.624 76.4311 219.073C75.7571 219.469 74.7521 220.102 75.0281 220.871C75.3051 221.638 77.4441 221.325 77.9191 221.156C78.3941 220.987 78.6871 220.464 78.5971 220.01C78.4001 219.022 77.5831 218.821 77.5831 218.821Z" fill="white"/>
<path fill-rule="evenodd" clip-rule="evenodd" d="M74.5582 221.04C74.7912 221.686 75.5902 221.864 76.3732 221.863C77.1502 221.863 77.9132 221.689 78.0872 221.627C78.7892 221.377 79.2282 220.625 79.0872 219.913C78.8902 218.918 78.1662 218.466 77.7412 218.345C77.5412 218.271 76.9992 218.159 76.1772 218.642L76.1758 218.643C75.5621 219.004 74.1295 219.848 74.5582 221.04ZM76.6842 219.504C77.0172 219.308 77.2292 219.278 77.3302 219.278C77.3612 219.278 77.3822 219.281 77.3922 219.283L77.4562 219.304C77.5092 219.32 77.9792 219.47 78.1062 220.108C78.1452 220.306 78.0022 220.595 77.7512 220.685C77.2022 220.88 75.6882 220.959 75.4992 220.702C75.3512 220.289 76.3542 219.698 76.6842 219.504Z" fill="#52267D"/>
<path d="M77.7325 219.092C77.7325 219.092 77.5015 218.976 77.0495 219.241C76.6515 219.476 76.0555 219.851 76.2195 220.306C76.3825 220.761 77.6505 220.574 77.9315 220.475C78.2115 220.374 78.3855 220.065 78.3325 219.796C78.2165 219.211 77.7325 219.092 77.7325 219.092Z" fill="#EAF3FB"/>
<path d="M75.4065 218.712C75.7055 218.668 76.1445 219.313 76.0975 219.512C76.0525 219.711 76.0255 220.366 75.5425 220.444C75.1845 220.501 73.9125 220.649 73.6315 220.376C73.3715 220.124 73.8585 218.939 75.4065 218.712Z" fill="#EAF3FB"/>
<path d="M77.4114 218.595C77.4114 218.595 76.9704 218.372 76.1074 218.88C75.3464 219.328 74.2094 220.044 74.5214 220.912C74.8344 221.781 77.2544 221.426 77.7914 221.235C78.3274 221.043 78.6584 220.452 78.5574 219.94C78.3354 218.823 77.4114 218.595 77.4114 218.595Z" fill="white"/>
<path fill-rule="evenodd" clip-rule="evenodd" d="M74.2863 220.997C74.4893 221.562 75.2583 221.726 76.0403 221.726C76.8223 221.726 77.6183 221.562 77.8753 221.47C78.5143 221.242 78.9293 220.533 78.8023 219.891C78.5693 218.721 77.6573 218.405 77.4943 218.359C77.3613 218.306 76.8423 218.158 75.9803 218.664L75.9772 218.666C75.298 219.067 73.8909 219.897 74.2863 220.997ZM76.2343 219.096C76.6543 218.848 76.9523 218.797 77.1253 218.797C77.2373 218.797 77.2973 218.818 77.3053 218.821L77.3503 218.837C77.3506 218.837 77.351 218.837 77.3515 218.838C77.3971 218.851 78.1273 219.06 78.3123 219.988C78.3923 220.391 78.1143 220.854 77.7073 220.999C77.0793 221.221 74.9713 221.423 74.7573 220.827C74.5313 220.2 75.3773 219.6 76.2343 219.096Z" fill="#52267D"/>
<path d="M77.5804 218.903C77.5804 218.903 77.3184 218.77 76.8084 219.071C76.3564 219.337 75.6844 219.76 75.8694 220.275C76.0544 220.789 77.4864 220.579 77.8054 220.465C78.1224 220.352 78.3184 220.003 78.2584 219.699C78.1274 219.037 77.5804 218.903 77.5804 218.903Z" fill="#EAF3FB"/>
<path d="M66.9251 190.911C66.9251 190.911 67.4891 196.522 66.1721 205.37C64.9461 213.605 62.6211 216.213 62.8211 218.342C62.9761 219.99 63.6921 221.493 65.3471 221.474L70.2871 221.41C72.5941 221.382 74.6101 219.884 75.3231 217.69C75.8991 215.924 76.4901 213.522 76.8221 210.492C77.1511 206.372 77.0181 202.244 76.9191 199.821" fill="#9452BA"/>
<path d="M65.3128 222.473C63.3648 222.473 62.0628 220.968 61.8258 218.435C61.7198 217.306 62.1358 216.188 62.7128 214.64C63.4628 212.626 64.4918 209.868 65.1828 205.223C66.4628 196.623 65.9358 191.066 65.9298 191.011L67.9198 190.812C67.9438 191.045 68.4818 196.649 67.1618 205.518C66.4388 210.369 65.3248 213.36 64.5868 215.338C64.0848 216.686 63.7538 217.576 63.8168 218.248C63.9128 219.265 64.2508 220.473 65.3168 220.473H65.3338L70.2748 220.41C72.1438 220.388 73.7908 219.17 74.3728 217.381C75.0618 215.264 75.5518 212.91 75.8288 210.383C76.1718 206.06 75.9898 201.557 75.9198 199.863L77.9178 199.781C78.0288 202.494 78.1388 206.563 77.8198 210.572C77.5248 213.264 77.0058 215.753 76.2748 218C75.4268 220.605 73.0258 222.377 70.2998 222.411L65.3598 222.473H65.3128Z" fill="#52267D"/>
<path d="M92.3011 194.31C90.6831 195.739 89.8631 198.056 89.9031 200.175C89.9551 203.004 91.6421 206.586 90.6601 211.301C89.7861 215.501 87.9501 216.264 88.5531 220.015C88.6621 220.692 89.2781 221.172 89.9631 221.164L95.4681 221.094C98.0021 221.063 100.148 219.199 100.53 216.694C101.553 210.005 100.629 203.715 99.6791 198.892" fill="#9452BA"/>
<path d="M89.9446 222.164C88.7696 222.164 87.7506 221.314 87.5656 220.175C87.1556 217.623 87.7596 216.26 88.4606 214.682C88.8806 213.736 89.3556 212.665 89.6806 211.098C90.2886 208.182 89.8006 205.708 89.3716 203.525C89.1406 202.352 88.9226 201.243 88.9026 200.194C88.8546 197.636 89.9026 195.094 91.6386 193.56L92.9636 195.06C91.6546 196.216 90.8646 198.168 90.9026 200.157C90.9186 201.029 91.1116 202.007 91.3346 203.139C91.7776 205.391 92.3296 208.192 91.6396 211.506C91.2696 213.281 90.7256 214.507 90.2886 215.493C89.6476 216.937 89.2246 217.892 89.5406 219.857C89.5686 220.031 89.7916 220.183 89.9506 220.164L95.4556 220.095C97.5126 220.069 99.2316 218.576 99.5426 216.543C100.548 209.97 99.6186 203.761 98.6976 199.086L100.661 198.699C101.613 203.533 102.571 209.965 101.519 216.846C101.06 219.85 98.5206 222.058 95.4806 222.095L89.9756 222.164H89.9446Z" fill="#52267D"/>
<path d="M93.6975 201.56L91.8075 200.658L93.6555 199.143L94.4495 199.397L94.2975 199.873L93.7625 199.702L92.7335 200.546L93.6585 200.988L94.1915 200.637L93.8405 200.563L93.6095 200.733L93.3125 200.331L93.7225 200.028L95.4705 200.397L93.6975 201.56Z" fill="#52267D"/>
<path d="M63.9036 218.568C63.9036 218.568 62.9316 217.797 61.6686 218.863C60.5126 219.836 59.6536 221.328 60.1786 221.47C60.7036 221.613 61.6266 221.747 62.5916 221.556C63.4306 221.392 64.1756 221.545 64.4916 219.78C64.6386 218.958 63.9036 218.568 63.9036 218.568Z" fill="white"/>
<path fill-rule="evenodd" clip-rule="evenodd" d="M60.0477 221.952C60.3147 222.025 60.8817 222.151 61.5927 222.151C61.9307 222.151 62.3007 222.123 62.6867 222.046C62.7607 222.032 62.8337 222.021 62.9057 222.01C62.9349 222.005 62.9639 222.001 62.9927 221.996C63.8977 221.863 64.6717 221.61 64.9837 219.867C65.1457 218.966 64.5707 218.374 64.1767 218.148C63.7057 217.801 62.5587 217.457 61.3457 218.48C60.5117 219.183 59.3617 220.602 59.5417 221.417C59.5997 221.682 59.7897 221.882 60.0477 221.952ZM62.4947 221.066C61.6967 221.221 60.9677 221.129 60.5657 221.047C60.7167 220.659 61.2407 219.876 61.9907 219.244C62.8857 218.49 63.5187 218.905 63.5967 218.963L63.6697 219.009C63.6698 219.009 63.6705 219.01 63.6715 219.01C63.7013 219.028 64.0789 219.25 63.9997 219.692C63.7897 220.868 63.4737 220.915 62.8457 221.007C62.8248 221.011 62.8038 221.014 62.7827 221.017C62.6887 221.032 62.5927 221.047 62.4947 221.066Z" fill="#52267D"/>
<path d="M63.6878 218.856C63.6878 218.856 63.0838 218.377 62.2968 219.04C61.5788 219.645 61.0428 220.574 61.3708 220.663C61.6968 220.752 62.2708 220.834 62.8718 220.716C63.3938 220.614 63.8578 220.709 64.0538 219.61C64.1458 219.099 63.6878 218.856 63.6878 218.856Z" fill="#EAF3FB"/>
<path d="M71.7278 206.752L69.3838 206.611L69.0378 204.382L71.1998 203.678L71.3538 204.152L69.5958 204.726L69.8158 206.137L71.5068 206.238L72.1528 205.473L71.2998 205.014L70.7868 205.17L71.1598 205.574L70.7918 205.914L69.8778 204.924L71.3528 204.475L72.9318 205.324L71.7278 206.752Z" fill="#52267D"/>
<path d="M28.8919 145.073C28.5319 145.073 28.2359 144.782 28.2309 144.421L28.4809 144.417C28.4819 144.527 28.5269 144.63 28.6049 144.706C28.6819 144.782 28.7839 144.823 28.8919 144.823H28.8969C29.1229 144.82 29.3049 144.634 29.3019 144.407L29.5519 144.403C29.5539 144.58 29.4879 144.747 29.3649 144.873C29.2419 145 29.0769 145.071 28.9009 145.073H28.8919Z" fill="#F3E3FF"/>
<path d="M27.8196 145.086C27.6456 145.086 27.4826 145.02 27.3586 144.899C27.2326 144.774 27.1616 144.609 27.1596 144.434L27.4096 144.43C27.4106 144.54 27.4556 144.643 27.5336 144.72C27.6106 144.795 27.7126 144.836 27.8196 144.836H27.8226C27.9346 144.835 28.0376 144.79 28.1136 144.712C28.1906 144.633 28.2316 144.529 28.2306 144.42L28.4806 144.416C28.4826 144.593 28.4166 144.76 28.2936 144.886C28.1696 145.013 28.0046 145.084 27.8286 145.086H27.8196Z" fill="#F3E3FF"/>
<path d="M28.3616 145.615C28.1886 145.615 28.0256 145.549 27.9016 145.428C27.7746 145.304 27.7036 145.139 27.7016 144.964L27.9516 144.96C27.9526 145.07 27.9976 145.173 28.0756 145.249C28.1526 145.324 28.2546 145.365 28.3626 145.365H28.3676C28.5936 145.363 28.7756 145.177 28.7736 144.949L29.0236 144.947C29.0276 145.311 28.7346 145.611 28.3706 145.615H28.3616Z" fill="#F3E3FF"/>
<path d="M49.2845 143.897C49.1235 143.897 48.9615 143.855 48.8135 143.766L48.9425 143.551C49.0955 143.643 49.2705 143.67 49.4455 143.628C49.6175 143.585 49.7635 143.478 49.8545 143.327C49.9465 143.174 49.9735 142.997 49.9315 142.824C49.8885 142.652 49.7815 142.506 49.6305 142.415L49.7595 142.2C49.9685 142.327 50.1155 142.527 50.1745 142.764C50.2325 143.001 50.1955 143.247 50.0695 143.456C49.8975 143.74 49.5955 143.897 49.2845 143.897Z" fill="#F3E3FF"/>
<path d="M49.552 144.981C49.391 144.981 49.229 144.939 49.081 144.85L49.21 144.635C49.363 144.727 49.537 144.755 49.713 144.712C49.885 144.669 50.031 144.562 50.122 144.411C50.214 144.258 50.241 144.081 50.199 143.908C50.156 143.736 50.049 143.59 49.898 143.499L50.027 143.284C50.236 143.411 50.383 143.611 50.442 143.848C50.5 144.085 50.463 144.331 50.337 144.54C50.165 144.824 49.863 144.981 49.552 144.981Z" fill="#F3E3FF"/>
<path d="M75.2483 162.172C75.0263 162.172 74.8173 162.087 74.6593 161.933C74.4973 161.776 74.4073 161.565 74.4043 161.34L74.6543 161.336C74.6563 161.494 74.7203 161.643 74.8333 161.753C74.9453 161.862 75.0923 161.922 75.2483 161.922H75.2533C75.5833 161.918 75.8463 161.649 75.8423 161.321L76.0923 161.318C76.0983 161.783 75.7243 162.166 75.2593 162.172H75.2483Z" fill="#F3E3FF"/>
<path d="M73.8118 162.191C73.3518 162.191 72.9738 161.82 72.9668 161.358L73.2168 161.354C73.2218 161.679 73.4878 161.941 73.8118 161.941H73.8188C73.9778 161.939 74.1248 161.876 74.2358 161.762C74.3468 161.648 74.4068 161.499 74.4048 161.34L74.6548 161.337C74.6578 161.562 74.5728 161.775 74.4158 161.936C74.2578 162.098 74.0468 162.188 73.8228 162.191H73.8118Z" fill="#F3E3FF"/>
<path d="M74.5393 162.9C74.0783 162.9 73.7013 162.529 73.6953 162.068L73.9453 162.064C73.9493 162.389 74.2153 162.65 74.5393 162.65H74.5443C74.8733 162.646 75.1363 162.377 75.1323 162.049L75.3823 162.046C75.3883 162.511 75.0143 162.894 74.5503 162.9H74.5393Z" fill="#F3E3FF"/>
<path d="M54.3577 207.97C54.1357 207.97 53.9267 207.885 53.7687 207.731C53.6067 207.573 53.5167 207.363 53.5137 207.137L53.7637 207.133C53.7657 207.292 53.8297 207.441 53.9427 207.551C54.0547 207.66 54.2017 207.72 54.3577 207.72H54.3647C54.5237 207.718 54.6717 207.655 54.7827 207.541C54.8937 207.427 54.9537 207.278 54.9517 207.119L55.2017 207.116C55.2047 207.341 55.1197 207.554 54.9617 207.715C54.8037 207.877 54.5937 207.967 54.3687 207.97H54.3577Z" fill="#F3E3FF"/>
<path d="M52.9212 207.988C52.4602 207.988 52.0822 207.617 52.0762 207.156L52.3262 207.152C52.3302 207.477 52.5962 207.738 52.9212 207.738H52.9282C53.2552 207.734 53.5182 207.465 53.5142 207.137L53.7642 207.134C53.7702 207.599 53.3962 207.982 52.9322 207.988H52.9212Z" fill="#F3E3FF"/>
<path d="M53.6487 208.698C53.4267 208.698 53.2177 208.613 53.0587 208.459C52.8977 208.302 52.8077 208.091 52.8047 207.865L53.0547 207.861C53.0567 208.02 53.1207 208.169 53.2337 208.279C53.3457 208.389 53.5007 208.464 53.6557 208.448C53.8147 208.446 53.9617 208.383 54.0727 208.269C54.1837 208.155 54.2437 208.006 54.2417 207.847L54.4917 207.844C54.4947 208.069 54.4097 208.282 54.2527 208.443C54.0947 208.605 53.8837 208.695 53.6597 208.698H53.6487Z" fill="#F3E3FF"/>
<path d="M73.9192 139.354C73.4202 139.354 73.0102 138.951 73.0032 138.451L73.2532 138.447C73.2582 138.811 73.5562 139.104 73.9192 139.104H73.9242C74.1042 139.102 74.2702 139.031 74.3942 138.904C74.5182 138.776 74.5842 138.609 74.5822 138.431L74.8322 138.427C74.8352 138.672 74.7432 138.903 74.5732 139.078C74.4022 139.252 74.1742 139.351 73.9302 139.354H73.9192Z" fill="#F3E3FF"/>
<path d="M73.138 140.153C72.64 140.153 72.231 139.751 72.224 139.251L72.474 139.247C72.476 139.424 72.547 139.591 72.674 139.715C72.799 139.837 72.963 139.903 73.138 139.903H73.144C73.325 139.901 73.491 139.83 73.615 139.703C73.739 139.576 73.805 139.408 73.803 139.231L74.053 139.227C74.056 139.471 73.964 139.703 73.793 139.878C73.622 140.052 73.394 140.15 73.15 140.153H73.138Z" fill="#F3E3FF"/>
<path d="M64.1712 153.594C63.8862 153.594 63.6172 153.485 63.4132 153.285C63.2052 153.083 63.0892 152.813 63.0862 152.523L63.3362 152.521C63.3412 152.977 63.7152 153.344 64.1712 153.344H64.1812C64.6402 153.338 65.0102 152.959 65.0052 152.498L65.2552 152.496C65.2622 153.094 64.7802 153.586 64.1842 153.594H64.1712Z" fill="#F3E3FF"/>
<path d="M63.222 154.565C62.938 154.565 62.669 154.456 62.465 154.256C62.258 154.054 62.142 153.784 62.139 153.494L62.389 153.492C62.392 153.714 62.481 153.922 62.64 154.078C62.797 154.231 63.003 154.315 63.222 154.315H63.233C63.456 154.312 63.664 154.223 63.82 154.064C63.976 153.905 64.06 153.694 64.057 153.471L64.307 153.467C64.311 153.757 64.201 154.032 63.998 154.239C63.796 154.446 63.526 154.562 63.236 154.565H63.222Z" fill="#F3E3FF"/>
<path d="M49.6145 129.6C49.1975 129.6 48.8545 129.263 48.8485 128.843L49.0985 128.839C49.1005 128.978 49.1565 129.107 49.2555 129.204C49.3535 129.299 49.4805 129.353 49.6225 129.35C49.9075 129.347 50.1355 129.113 50.1335 128.827L50.3835 128.825C50.3855 129.029 50.3075 129.222 50.1655 129.369C50.0215 129.516 49.8305 129.598 49.6255 129.6H49.6145Z" fill="#F3E3FF"/>
<path d="M48.9837 130.25C48.5637 130.25 48.2207 129.912 48.2157 129.492L48.4657 129.49C48.4677 129.628 48.5227 129.757 48.6217 129.853C48.7187 129.948 48.8467 130 48.9837 130H48.9897C49.1277 129.998 49.2557 129.942 49.3527 129.844C49.4497 129.745 49.5017 129.614 49.4997 129.477L49.7497 129.473C49.7547 129.896 49.4157 130.244 48.9927 130.25H48.9837Z" fill="#F3E3FF"/>
<path d="M110.745 193.161C110.725 193.161 110.705 193.16 110.684 193.159C110.454 193.143 110.244 193.039 110.092 192.864L110.281 192.7C110.389 192.824 110.538 192.898 110.702 192.91C110.849 192.921 111.022 192.868 111.146 192.761C111.27 192.652 111.345 192.504 111.356 192.34C111.368 192.177 111.315 192.018 111.207 191.894L111.396 191.73C111.548 191.904 111.622 192.127 111.605 192.357C111.59 192.588 111.484 192.798 111.31 192.949C111.152 193.087 110.953 193.161 110.745 193.161Z" fill="#F3E3FF"/>
<path d="M110.672 194.203C110.43 194.203 110.19 194.102 110.019 193.906L110.208 193.742C110.43 193.998 110.819 194.025 111.074 193.803C111.329 193.581 111.357 193.192 111.134 192.936L111.323 192.772C111.635 193.133 111.598 193.68 111.238 193.992C111.075 194.134 110.873 194.203 110.672 194.203Z" fill="#F3E3FF"/>
<path d="M81.4768 183.573C81.3638 183.573 81.2498 183.553 81.1408 183.514C80.8908 183.425 80.6918 183.243 80.5788 183.004L80.8048 182.896C80.9798 183.266 81.4218 183.427 81.7918 183.252C82.1628 183.078 82.3218 182.635 82.1468 182.264L82.3728 182.157C82.6058 182.652 82.3938 183.245 81.8998 183.478C81.7648 183.542 81.6218 183.573 81.4768 183.573Z" fill="#F3E3FF"/>
<path d="M79.9095 184.312C79.5375 184.312 79.1805 184.101 79.0115 183.744L79.2375 183.636C79.3215 183.816 79.4715 183.951 79.6575 184.018C79.8455 184.085 80.0475 184.077 80.2235 183.991C80.5945 183.817 80.7535 183.374 80.5785 183.004L80.8055 182.897C81.0375 183.392 80.8255 183.984 80.3315 184.217C80.1945 184.282 80.0515 184.312 79.9095 184.312Z" fill="#F3E3FF"/>
<path d="M81.0628 184.727C80.9498 184.727 80.8358 184.707 80.7258 184.668C80.4768 184.579 80.2778 184.397 80.1648 184.158L80.3908 184.05C80.4748 184.23 80.6248 184.366 80.8108 184.433C80.9988 184.5 81.2008 184.491 81.3768 184.406C81.5568 184.322 81.6928 184.172 81.7598 183.986C81.8278 183.799 81.8178 183.598 81.7328 183.419L81.9588 183.312C82.0718 183.552 82.0848 183.821 81.9958 184.071C81.9058 184.32 81.7238 184.519 81.4848 184.632C81.3498 184.696 81.2068 184.727 81.0628 184.727Z" fill="#F3E3FF"/>
<path d="M79.4944 185.466C79.3814 185.466 79.2674 185.446 79.1584 185.407C78.9084 185.318 78.7094 185.136 78.5964 184.897L78.8224 184.789C78.9964 185.159 79.4414 185.32 79.8094 185.145C80.1804 184.971 80.3394 184.528 80.1644 184.157L80.3904 184.05C80.6234 184.545 80.4114 185.138 79.9174 185.371C79.7824 185.435 79.6394 185.466 79.4944 185.466Z" fill="#F3E3FF"/>
<path d="M82.2171 185.141C81.8441 185.141 81.4871 184.93 81.3181 184.573L81.5441 184.465C81.7181 184.837 82.1631 184.994 82.5311 184.82C82.7111 184.736 82.8461 184.586 82.9131 184.4C82.9811 184.213 82.9711 184.012 82.8861 183.833L83.1131 183.726C83.2251 183.966 83.2381 184.235 83.1491 184.485C83.0591 184.734 82.8781 184.933 82.6391 185.046C82.5021 185.11 82.3591 185.141 82.2171 185.141Z" fill="#F3E3FF"/>
<path d="M65.8714 136.116C65.3254 136.116 64.8784 135.676 64.8714 135.13L65.1214 135.126C65.1264 135.536 65.4624 135.866 65.8714 135.866H65.8804C66.2934 135.861 66.6254 135.521 66.6204 135.108L66.8704 135.104C66.8774 135.656 66.4344 136.109 65.8844 136.116H65.8714Z" fill="#F3E3FF"/>
<path d="M65.9837 169.17C65.4377 169.17 64.9907 168.73 64.9837 168.184L65.2337 168.18C65.2387 168.59 65.5747 168.92 65.9837 168.92H65.9927C66.4057 168.915 66.7377 168.574 66.7327 168.161L66.9827 168.157C66.9897 168.709 66.5467 169.163 65.9967 169.17H65.9837Z" fill="#F3E3FF"/>
<path d="M75.4554 150.618C75.0244 150.618 74.6724 150.271 74.6664 149.841L74.9164 149.837C74.9204 150.131 75.1614 150.368 75.4554 150.368H75.4614C75.6034 150.366 75.7384 150.308 75.8394 150.206C75.9394 150.102 75.9934 149.967 75.9914 149.824L76.2414 149.82C76.2444 150.03 76.1654 150.229 76.0174 150.38C75.8714 150.531 75.6744 150.615 75.4644 150.618H75.4554Z" fill="#F3E3FF"/>
<path d="M90.8782 135.2C90.7142 135.2 90.5602 135.138 90.4422 135.023C90.3232 134.907 90.2572 134.751 90.2552 134.585L90.5052 134.583C90.5062 134.681 90.5462 134.774 90.6172 134.844C90.6882 134.913 90.7792 134.95 90.8772 134.95H90.8822C91.0862 134.947 91.2512 134.778 91.2492 134.573L91.4992 134.571C91.5032 134.913 91.2272 135.195 90.8852 135.2H90.8782Z" fill="#F3E3FF"/>
<path d="M96.2913 208.468C96.0923 208.468 95.8963 208.407 95.7293 208.292C95.5083 208.141 95.3603 207.913 95.3123 207.651L95.5583 207.606C95.5943 207.802 95.7053 207.973 95.8703 208.086C96.0353 208.198 96.2333 208.24 96.4313 208.204C96.6283 208.167 96.7993 208.057 96.9123 207.891C97.0253 207.726 97.0673 207.527 97.0303 207.33L97.2763 207.283C97.3253 207.546 97.2703 207.812 97.1183 208.032C96.9683 208.253 96.7403 208.402 96.4783 208.45C96.4153 208.462 96.3533 208.468 96.2913 208.468Z" fill="#F3E3FF"/>
<path d="M72.3147 215.446C72.0307 215.446 71.7617 215.338 71.5587 215.138C71.3507 214.936 71.2347 214.665 71.2307 214.376L71.4807 214.372C71.4837 214.595 71.5737 214.803 71.7327 214.96C71.8897 215.112 72.0957 215.196 72.3147 215.196H72.3257C72.5487 215.193 72.7567 215.103 72.9137 214.944C73.0687 214.785 73.1527 214.574 73.1497 214.351L73.3997 214.347C73.4037 214.637 73.2937 214.912 73.0917 215.119C72.8897 215.326 72.6187 215.442 72.3297 215.446H72.3147Z" fill="#F3E3FF"/>
<path d="M71.3675 216.417C70.7755 216.417 70.2915 215.939 70.2835 215.347L70.5335 215.343C70.5395 215.8 70.9125 216.167 71.3675 216.167H71.3755C71.6015 216.164 71.8095 216.074 71.9665 215.915C72.1215 215.756 72.2055 215.545 72.2025 215.322L72.4525 215.318C72.4565 215.608 72.3465 215.883 72.1445 216.09C71.9425 216.297 71.6715 216.413 71.3825 216.417H71.3675Z" fill="#F3E3FF"/>
<path d="M65.2669 218.534C65.7739 218.46 66.5189 219.554 66.4399 219.89C66.3609 220.228 66.3169 221.339 65.4959 221.47C64.8919 221.566 62.7359 221.818 62.2579 221.355C61.8189 220.928 62.6439 218.919 65.2669 218.534Z" fill="white"/>
<path fill-rule="evenodd" clip-rule="evenodd" d="M61.9108 221.714C62.2408 222.034 62.9448 222.129 63.6628 222.129C64.4328 222.129 65.2198 222.019 65.5758 221.963C66.6306 221.794 66.8177 220.653 66.8977 220.165L66.8978 220.164C66.9008 220.147 66.9036 220.129 66.9063 220.113C66.9133 220.071 66.9193 220.034 66.9258 220.004C67.0398 219.521 66.5978 218.879 66.3198 218.575C65.9488 218.171 65.5648 217.982 65.1948 218.038C63.1308 218.341 62.0418 219.551 61.7358 220.495C61.5718 221.002 61.6348 221.446 61.9108 221.714ZM62.8858 220.403C63.1078 220.067 63.7858 219.263 65.3128 219.032C65.5178 219.098 65.9178 219.636 65.9528 219.775C65.9398 219.834 65.9258 219.912 65.9118 220.003C65.8378 220.446 65.7348 220.925 65.4168 220.974C64.2148 221.169 62.8478 221.176 62.6498 221.058C62.6318 220.993 62.6668 220.736 62.8858 220.403Z" fill="#52267D"/>
<path d="M65.4134 218.837C65.7124 218.793 66.1514 219.439 66.1044 219.638C66.0584 219.837 66.0324 220.492 65.5494 220.569C65.1914 220.626 63.9194 220.775 63.6384 220.502C63.3784 220.25 63.8654 219.065 65.4134 218.837Z" fill="#EAF3FB"/>
<path d="M67.0774 219.053C67.0774 219.053 66.6874 218.856 65.9254 219.305C65.2514 219.701 64.2464 220.334 64.5224 221.103C64.7994 221.87 66.9384 221.557 67.4134 221.388C67.8884 221.219 68.1814 220.696 68.0914 220.242C67.8944 219.254 67.0774 219.053 67.0774 219.053Z" fill="white"/>
<path d="M79.1322 219.111C79.1322 219.111 78.7422 218.914 77.9802 219.363C77.3062 219.759 76.3012 220.392 76.5772 221.161C76.8542 221.928 78.9932 221.615 79.4682 221.446C79.9432 221.277 80.2362 220.754 80.1462 220.3C79.9492 219.312 79.1322 219.111 79.1322 219.111Z" fill="white"/>
<path fill-rule="evenodd" clip-rule="evenodd" d="M64.0525 221.272C64.2855 221.918 65.0845 222.096 65.8675 222.095C66.6445 222.095 67.4075 221.921 67.5815 221.859C68.2835 221.609 68.7225 220.857 68.5815 220.145C68.3845 219.15 67.6605 218.698 67.2355 218.577C67.0355 218.503 66.4935 218.391 65.6715 218.874L65.6701 218.875C65.0563 219.236 63.6238 220.08 64.0525 221.272ZM66.1785 219.736C66.5115 219.54 66.7235 219.51 66.8245 219.51C66.8555 219.51 66.8765 219.513 66.8865 219.515L66.9505 219.536C67.0035 219.552 67.4735 219.702 67.6005 220.34C67.6395 220.538 67.4965 220.827 67.2455 220.917C66.6965 221.112 65.1825 221.191 64.9935 220.934C64.8455 220.521 65.8485 219.93 66.1785 219.736Z" fill="#52267D"/>
<path fill-rule="evenodd" clip-rule="evenodd" d="M76.1074 221.33C76.3404 221.976 77.1394 222.154 77.9224 222.153C78.6994 222.153 79.4624 221.979 79.6364 221.917C80.3384 221.667 80.7774 220.915 80.6364 220.203C80.4394 219.208 79.7154 218.756 79.2904 218.635C79.0904 218.561 78.5484 218.449 77.7264 218.932L77.725 218.933C77.1112 219.294 75.6787 220.138 76.1074 221.33ZM78.2334 219.794C78.5664 219.598 78.7784 219.568 78.8794 219.568C78.9104 219.568 78.9314 219.571 78.9414 219.573L79.0054 219.594C79.0584 219.61 79.5284 219.76 79.6554 220.398C79.6944 220.596 79.5514 220.885 79.3004 220.975C78.7514 221.17 77.2374 221.249 77.0484 220.992C76.9004 220.579 77.9034 219.988 78.2334 219.794Z" fill="#52267D"/>
<path d="M67.2268 219.325C67.2268 219.325 66.9958 219.209 66.5438 219.474C66.1458 219.709 65.5498 220.084 65.7138 220.539C65.8768 220.994 67.1448 220.807 67.4258 220.708C67.7058 220.607 67.8798 220.298 67.8268 220.029C67.7108 219.444 67.2268 219.325 67.2268 219.325Z" fill="#EAF3FB"/>
<path d="M79.2816 219.382C79.2816 219.382 79.0506 219.266 78.5986 219.531C78.2006 219.766 77.6046 220.141 77.7686 220.596C77.9316 221.051 79.1996 220.864 79.4806 220.765C79.7606 220.664 79.9346 220.355 79.8816 220.086C79.7656 219.501 79.2816 219.382 79.2816 219.382Z" fill="#EAF3FB"/>
<path d="M90.9036 218.568C90.9036 218.568 89.9316 217.797 88.6686 218.863C87.5126 219.836 86.6536 221.328 87.1786 221.47C87.7036 221.613 88.6266 221.747 89.5916 221.556C90.4306 221.392 91.1756 221.545 91.4916 219.78C91.6386 218.958 90.9036 218.568 90.9036 218.568Z" fill="white"/>
<path fill-rule="evenodd" clip-rule="evenodd" d="M87.0477 221.952C87.3147 222.025 87.8817 222.151 88.5927 222.151C88.9307 222.151 89.3007 222.123 89.6867 222.046C89.7607 222.032 89.8337 222.021 89.9057 222.01C89.9349 222.005 89.9639 222.001 89.9927 221.996C90.8977 221.863 91.6717 221.61 91.9837 219.867C92.1457 218.966 91.5707 218.374 91.1767 218.148C90.7057 217.801 89.5587 217.457 88.3457 218.48C87.5117 219.183 86.3617 220.602 86.5417 221.417C86.5997 221.682 86.7897 221.882 87.0477 221.952ZM89.4947 221.066C88.6967 221.221 87.9677 221.129 87.5657 221.047C87.7167 220.659 88.2407 219.876 88.9907 219.244C89.8857 218.49 90.5187 218.905 90.5967 218.963L90.6697 219.009C90.6698 219.009 90.6705 219.01 90.6715 219.01C90.7013 219.028 91.0789 219.25 90.9997 219.692C90.7897 220.868 90.4737 220.915 89.8457 221.007C89.8248 221.011 89.8038 221.014 89.7827 221.017C89.6887 221.032 89.5927 221.047 89.4947 221.066Z" fill="#52267D"/>
<path d="M90.6878 218.856C90.6878 218.856 90.0838 218.377 89.2968 219.04C88.5788 219.645 88.0428 220.574 88.3708 220.663C88.6968 220.752 89.2708 220.834 89.8718 220.716C90.3938 220.614 90.8578 220.709 91.0538 219.61C91.1458 219.099 90.6878 218.856 90.6878 218.856Z" fill="#EAF3FB"/>
<path d="M92.2669 218.534C92.7739 218.46 93.5189 219.554 93.4399 219.89C93.3609 220.228 93.3169 221.339 92.4959 221.47C91.8919 221.566 89.7359 221.818 89.2579 221.355C88.8189 220.928 89.6439 218.919 92.2669 218.534Z" fill="white"/>
<path fill-rule="evenodd" clip-rule="evenodd" d="M88.9108 221.714C89.2408 222.034 89.9448 222.129 90.6628 222.129C91.4328 222.129 92.2198 222.019 92.5758 221.963C93.6306 221.794 93.8177 220.653 93.8977 220.165L93.8978 220.164C93.9008 220.147 93.9036 220.129 93.9063 220.113C93.9133 220.071 93.9193 220.034 93.9258 220.004C94.0398 219.521 93.5978 218.879 93.3198 218.575C92.9488 218.171 92.5648 217.982 92.1948 218.038C90.1308 218.341 89.0418 219.551 88.7358 220.495C88.5718 221.002 88.6348 221.446 88.9108 221.714ZM89.8858 220.403C90.1078 220.067 90.7858 219.263 92.3128 219.032C92.5178 219.098 92.9178 219.636 92.9528 219.775C92.9398 219.834 92.9258 219.912 92.9118 220.003C92.8378 220.446 92.7348 220.925 92.4168 220.974C91.2148 221.169 89.8478 221.176 89.6498 221.058C89.6318 220.993 89.6668 220.736 89.8858 220.403Z" fill="#52267D"/>
<path d="M92.4134 218.837C92.7124 218.793 93.1514 219.439 93.1044 219.638C93.0584 219.837 93.0324 220.492 92.5494 220.569C92.1914 220.626 90.9194 220.775 90.6384 220.502C90.3784 220.25 90.8654 219.065 92.4134 218.837Z" fill="#EAF3FB"/>
<path d="M94.0774 219.053C94.0774 219.053 93.6874 218.856 92.9254 219.305C92.2514 219.701 91.2464 220.334 91.5224 221.103C91.7994 221.87 93.9384 221.557 94.4134 221.388C94.8884 221.219 95.1814 220.696 95.0914 220.242C94.8944 219.254 94.0774 219.053 94.0774 219.053Z" fill="white"/>
<path fill-rule="evenodd" clip-rule="evenodd" d="M91.0525 221.272C91.2855 221.918 92.0845 222.096 92.8675 222.095C93.6445 222.095 94.4075 221.921 94.5815 221.859C95.2835 221.609 95.7225 220.857 95.5815 220.145C95.3845 219.15 94.6605 218.698 94.2355 218.577C94.0355 218.503 93.4935 218.391 92.6715 218.874L92.6701 218.875C92.0563 219.236 90.6238 220.08 91.0525 221.272ZM93.1785 219.736C93.5115 219.54 93.7235 219.51 93.8245 219.51C93.8555 219.51 93.8765 219.513 93.8865 219.515L93.9505 219.536C94.0035 219.552 94.4735 219.702 94.6005 220.34C94.6395 220.538 94.4965 220.827 94.2455 220.917C93.6965 221.112 92.1825 221.191 91.9935 220.934C91.8455 220.521 92.8485 219.93 93.1785 219.736Z" fill="#52267D"/>
<path d="M94.2268 219.325C94.2268 219.325 93.9958 219.209 93.5438 219.474C93.1458 219.709 92.5498 220.084 92.7138 220.539C92.8768 220.994 94.1448 220.807 94.4258 220.708C94.7058 220.607 94.8798 220.298 94.8268 220.029C94.7108 219.444 94.2268 219.325 94.2268 219.325Z" fill="#EAF3FB"/>
<path d="M46.804 219.522C46.804 219.522 46.413 219.325 45.651 219.774C44.977 220.17 43.972 220.803 44.248 221.572C44.525 222.339 46.664 222.026 47.139 221.857C47.614 221.687 47.907 221.165 47.817 220.711C47.62 219.723 46.804 219.522 46.804 219.522Z" fill="white"/>
<path fill-rule="evenodd" clip-rule="evenodd" d="M43.7781 221.741C44.0111 222.387 44.8101 222.564 45.5931 222.564C46.3701 222.564 47.1331 222.39 47.3081 222.328C48.0091 222.077 48.4471 221.324 48.3071 220.614C48.1101 219.619 47.3861 219.167 46.9621 219.046C46.7621 218.973 46.2211 218.858 45.3971 219.343L45.3957 219.344C44.782 219.705 43.3494 220.549 43.7781 221.741ZM45.9041 220.205C46.2361 220.009 46.4491 219.979 46.5501 219.979C46.5831 219.979 46.6041 219.982 46.6121 219.984L46.6761 220.005C46.7301 220.02 47.1991 220.171 47.3261 220.809C47.3651 221.007 47.2221 221.296 46.9711 221.386C46.4221 221.582 44.9081 221.661 44.7191 221.403C44.5711 220.99 45.5741 220.399 45.9041 220.205Z" fill="#52267D"/>
<path d="M46.9524 219.793C46.9524 219.793 46.7224 219.676 46.2694 219.942C45.8714 220.177 45.2754 220.552 45.4394 221.007C45.6024 221.461 46.8704 221.275 47.1514 221.175C47.4324 221.075 47.6054 220.766 47.5534 220.497C47.4364 219.912 46.9524 219.793 46.9524 219.793Z" fill="#EAF3FB"/>
<path d="M49.1419 218.95C49.6499 218.876 50.3939 219.97 50.3149 220.307C50.2359 220.644 50.1919 221.756 49.3709 221.887C48.7669 221.983 46.6109 222.235 46.1329 221.771C45.6939 221.345 46.5189 219.336 49.1419 218.95Z" fill="white"/>
<path fill-rule="evenodd" clip-rule="evenodd" d="M45.7848 222.13C46.1158 222.452 46.8208 222.547 47.5388 222.547C48.3088 222.547 49.0948 222.437 49.4508 222.381C50.5056 222.212 50.6927 221.07 50.7727 220.582L50.7728 220.582C50.7746 220.571 50.7763 220.561 50.778 220.551C50.7867 220.5 50.7942 220.456 50.8018 220.422C50.9148 219.937 50.4728 219.295 50.1938 218.991C49.8238 218.587 49.4328 218.405 49.0698 218.455C47.0038 218.759 45.9158 219.97 45.6108 220.915C45.4468 221.421 45.5108 221.864 45.7848 222.13ZM46.7618 220.82C46.9828 220.484 47.6618 219.681 49.1888 219.449C49.3928 219.515 49.7928 220.053 49.8288 220.193C49.8148 220.252 49.8008 220.329 49.7868 220.421C49.7128 220.864 49.6088 221.343 49.2928 221.392C48.0908 221.584 46.7218 221.592 46.5248 221.475C46.5068 221.41 46.5428 221.153 46.7618 220.82Z" fill="#52267D"/>
<path d="M49.2884 219.254C49.5874 219.21 50.0264 219.855 49.9794 220.054C49.9344 220.253 49.9074 220.908 49.4244 220.986C49.0664 221.043 47.7944 221.191 47.5134 220.918C47.2534 220.666 47.7404 219.481 49.2884 219.254Z" fill="#EAF3FB"/>
<path d="M55.8167 219.341C55.9737 219.205 56.1637 219.165 56.3207 219.237C56.9077 219.505 58.3907 220.269 58.0997 221.331C57.8737 222.158 57.3667 221.917 56.4037 221.946L55.6777 221.969C55.5277 221.974 55.3927 221.899 55.3087 221.761C54.8817 221.068 55.0937 219.967 55.7667 219.384L55.8167 219.341Z" fill="white"/>
<path fill-rule="evenodd" clip-rule="evenodd" d="M54.8826 222.022C55.0536 222.303 55.3446 222.469 55.6636 222.469H55.6936L56.4196 222.447C56.6116 222.442 56.7866 222.447 56.9406 222.452C57.5396 222.472 58.2996 222.496 58.5826 221.463C58.7406 220.885 58.6836 219.768 56.5266 218.782C56.1926 218.63 55.7946 218.7 55.4896 218.963L55.4396 219.006C54.5866 219.746 54.3316 221.128 54.8826 222.022ZM56.1426 219.72L56.1126 219.692C56.5116 219.875 57.8026 220.524 57.6176 221.2C57.5448 221.47 57.5396 221.47 56.9778 221.452L56.9726 221.452C56.7986 221.446 56.6036 221.441 56.3876 221.447L55.7346 221.5C55.4346 221.012 55.6066 220.185 56.0926 219.763L56.1426 219.72Z" fill="#52267D"/>
<path d="M55.8948 219.577C56.0088 219.477 56.1468 219.449 56.2608 219.501C56.6878 219.696 57.7648 220.251 57.5538 221.022C57.3888 221.624 57.0208 221.448 56.3218 221.471L55.7928 221.486C55.6848 221.49 55.5868 221.435 55.5258 221.336C55.2148 220.832 55.3698 220.032 55.8588 219.608L55.8948 219.577Z" fill="#EAF3FB"/>
<path d="M52.4036 219.068C52.4036 219.068 51.5016 218.217 50.1516 219.172C48.9186 220.043 47.9346 221.457 48.4456 221.643C48.9576 221.83 49.8646 222.041 50.8416 221.934C51.6926 221.841 52.4226 222.057 52.8866 220.325C53.1026 219.518 52.4036 219.068 52.4036 219.068Z" fill="white"/>
<path fill-rule="evenodd" clip-rule="evenodd" d="M48.2745 222.112C48.5935 222.229 49.3525 222.463 50.2985 222.463C50.4905 222.463 50.6905 222.453 50.8965 222.431C50.9845 222.421 51.071 222.415 51.1562 222.41C51.1727 222.409 51.1891 222.407 51.2055 222.406C52.1185 222.35 52.9115 222.164 53.3705 220.453C53.6065 219.569 53.0845 218.931 52.7125 218.672C52.2715 218.287 51.1595 217.848 49.8635 218.763C48.9715 219.392 47.7045 220.709 47.8145 221.536C47.8505 221.805 48.0225 222.021 48.2745 222.112ZM50.7885 221.437C49.9815 221.525 49.2625 221.369 48.8675 221.254C49.0515 220.88 49.6395 220.145 50.4405 219.579C51.4045 218.9 52.0025 219.38 52.0665 219.437L52.1275 219.484C52.1935 219.529 52.5155 219.775 52.4035 220.194C52.0946 221.35 51.7768 221.369 51.1445 221.408L51.1435 221.408L51.1294 221.409C51.0179 221.417 50.9036 221.425 50.7885 221.437Z" fill="#52267D"/>
<path d="M52.1643 219.336C52.1643 219.336 51.6023 218.807 50.7633 219.4C49.9953 219.943 49.3843 220.823 49.7013 220.94C50.0193 221.055 50.5843 221.187 51.1923 221.12C51.7223 221.062 52.1763 221.196 52.4653 220.118C52.6003 219.616 52.1643 219.336 52.1643 219.336Z" fill="#EAF3FB"/>
<path fill-rule="evenodd" clip-rule="evenodd" d="M55.9775 222.509H19.9775C19.4245 222.509 18.9775 222.062 18.9775 221.509C18.9775 220.956 19.4245 220.509 19.9775 220.509H55.9775C56.5305 220.509 56.9775 220.956 56.9775 221.509C56.9775 222.062 56.5305 222.509 55.9775 222.509Z" fill="#5E63B6"/>
<path fill-rule="evenodd" clip-rule="evenodd" d="M239.319 222.509H195.319C194.766 222.509 194.319 222.062 194.319 221.509C194.319 220.956 194.766 220.509 195.319 220.509H239.319C239.872 220.509 240.319 220.956 240.319 221.509C240.319 222.062 239.872 222.509 239.319 222.509Z" fill="#5E63B6"/>
<path fill-rule="evenodd" clip-rule="evenodd" d="M213.266 42.25C212.713 42.25 212.266 41.802 212.266 41.25V34.25C212.266 33.698 212.713 33.25 213.266 33.25C213.819 33.25 214.266 33.698 214.266 34.25V41.25C214.266 41.802 213.819 42.25 213.266 42.25Z" fill="#5E63B6"/>
<path fill-rule="evenodd" clip-rule="evenodd" d="M216.766 38.75H209.766C209.213 38.75 208.766 38.302 208.766 37.75C208.766 37.198 209.213 36.75 209.766 36.75H216.766C217.319 36.75 217.766 37.198 217.766 37.75C217.766 38.302 217.319 38.75 216.766 38.75Z" fill="#5E63B6"/>
<path fill-rule="evenodd" clip-rule="evenodd" d="M16.7969 176.886C16.5209 176.886 16.2969 176.662 16.2969 176.386V172.449C16.2969 172.172 16.5209 171.949 16.7969 171.949C17.0729 171.949 17.2969 172.172 17.2969 172.449V176.386C17.2969 176.662 17.0729 176.886 16.7969 176.886Z" fill="#5E63B6"/>
<path fill-rule="evenodd" clip-rule="evenodd" d="M18.7656 174.917H14.8276C14.5516 174.917 14.3286 174.693 14.3286 174.417C14.3286 174.141 14.5516 173.917 14.8276 173.917H18.7656C19.0416 173.917 19.2656 174.141 19.2656 174.417C19.2656 174.693 19.0416 174.917 18.7656 174.917Z" fill="#5E63B6"/>
<path fill-rule="evenodd" clip-rule="evenodd" d="M230.13 120.885C229.854 120.885 229.63 120.661 229.63 120.385V116.448C229.63 116.171 229.854 115.948 230.13 115.948C230.406 115.948 230.63 116.171 230.63 116.448V120.385C230.63 120.661 230.406 120.885 230.13 120.885Z" fill="#5E63B6"/>
<path fill-rule="evenodd" clip-rule="evenodd" d="M232.099 118.917H228.161C227.885 118.917 227.662 118.693 227.662 118.417C227.662 118.141 227.885 117.917 228.161 117.917H232.099C232.375 117.917 232.599 118.141 232.599 118.417C232.599 118.693 232.375 118.917 232.099 118.917Z" fill="#5E63B6"/>
<path fill-rule="evenodd" clip-rule="evenodd" d="M104.4 29.937C104.124 29.937 103.9 29.713 103.9 29.437V25.5C103.9 25.223 104.124 25 104.4 25C104.676 25 104.9 25.223 104.9 25.5V29.437C104.9 29.713 104.676 29.937 104.4 29.937Z" fill="#5E63B6"/>
<path fill-rule="evenodd" clip-rule="evenodd" d="M106.369 27.9683H102.431C102.155 27.9683 101.932 27.7443 101.932 27.4683C101.932 27.1923 102.155 26.9683 102.431 26.9683H106.369C106.645 26.9683 106.869 27.1923 106.869 27.4683C106.869 27.7443 106.645 27.9683 106.369 27.9683Z" fill="#5E63B6"/>
<path fill-rule="evenodd" clip-rule="evenodd" d="M25.748 55.8643C25.195 55.8643 24.748 55.4163 24.748 54.8643V46.7393C24.748 46.1873 25.195 45.7393 25.748 45.7393C26.301 45.7393 26.748 46.1873 26.748 46.7393V54.8643C26.748 55.4163 26.301 55.8643 25.748 55.8643Z" fill="#5E63B6"/>
<path fill-rule="evenodd" clip-rule="evenodd" d="M29.8105 51.8018H21.6855C21.1325 51.8018 20.6855 51.3538 20.6855 50.8018C20.6855 50.2498 21.1325 49.8018 21.6855 49.8018H29.8105C30.3635 49.8018 30.8105 50.2498 30.8105 50.8018C30.8105 51.3538 30.3635 51.8018 29.8105 51.8018Z" fill="#5E63B6"/>
<path fill-rule="evenodd" clip-rule="evenodd" d="M253.14 222.268H246.166C245.614 222.268 245.166 221.821 245.166 221.268C245.166 220.715 245.614 220.268 246.166 220.268H253.14C253.693 220.268 254.14 220.715 254.14 221.268C254.14 221.821 253.693 222.268 253.14 222.268Z" fill="#5E63B6"/>
<mask id="mask0_1304_15087" style="mask-type:luminance" maskUnits="userSpaceOnUse" x="2" y="220" width="11" height="3">
<path fill-rule="evenodd" clip-rule="evenodd" d="M2 220.268H12.9727V222.268H2V220.268Z" fill="white"/>
</mask>
<g mask="url(#mask0_1304_15087)">
<path fill-rule="evenodd" clip-rule="evenodd" d="M11.9727 222.268H2.99969C2.44769 222.268 1.99969 221.821 1.99969 221.268C1.99969 220.715 2.44769 220.268 2.99969 220.268H11.9727C12.5257 220.268 12.9727 220.715 12.9727 221.268C12.9727 221.821 12.5257 222.268 11.9727 222.268Z" fill="#5E63B6"/>
</g>
<path fill-rule="evenodd" clip-rule="evenodd" d="M162.568 231.584H95.3814C94.8294 231.584 94.3814 231.137 94.3814 230.584C94.3814 230.031 94.8294 229.584 95.3814 229.584H162.568C163.121 229.584 163.568 230.031 163.568 230.584C163.568 231.137 163.121 231.584 162.568 231.584Z" fill="#5E63B6"/>
<path fill-rule="evenodd" clip-rule="evenodd" d="M180.328 231.584H171.186C170.634 231.584 170.186 231.137 170.186 230.584C170.186 230.031 170.634 229.584 171.186 229.584H180.328C180.881 229.584 181.328 230.031 181.328 230.584C181.328 231.137 180.881 231.584 180.328 231.584Z" fill="#5E63B6"/>
<path fill-rule="evenodd" clip-rule="evenodd" d="M87.5 230.509L82.5 230.584L87.5 230.509Z" fill="white"/>
<path fill-rule="evenodd" clip-rule="evenodd" d="M82.5 231.584C81.954 231.584 81.509 231.147 81.5 230.599C81.492 230.047 81.933 229.593 82.485 229.584L87.485 229.509C88.039 229.476 88.491 229.941 88.5 230.494C88.508 231.046 88.067 231.5 87.515 231.509L82.515 231.584H82.5Z" fill="#5E63B6"/>
<path d="M128 48.36L228 221.508H28L128 48.36Z" fill="white"/>
<path fill-rule="evenodd" clip-rule="evenodd" d="M128 47.36C128.357 47.36 128.687 47.5505 128.866 47.8599L228.866 221.008C229.045 221.317 229.045 221.699 228.866 222.008C228.687 222.318 228.357 222.508 228 222.508H28C27.6427 222.508 27.3126 222.318 27.1339 222.008C26.9553 221.699 26.9554 221.317 27.134 221.008L127.134 47.8599C127.313 47.5505 127.643 47.36 128 47.36ZM29.7323 220.508H226.268L128 50.3595L29.7323 220.508Z" fill="#5E63B6"/>
<path d="M135.565 123.823L134.301 168.637H122.44L121.144 123.823H135.565ZM128.37 188.638C126.232 188.638 124.395 187.909 122.861 186.45C121.327 184.971 120.571 183.2 120.593 181.138C120.571 179.096 121.327 177.346 122.861 175.887C124.395 174.429 126.232 173.7 128.37 173.7C130.423 173.7 132.227 174.429 133.782 175.887C135.338 177.346 136.126 179.096 136.148 181.138C136.126 182.513 135.748 183.773 135.014 184.919C134.301 186.044 133.361 186.95 132.194 187.638C131.028 188.304 129.753 188.638 128.37 188.638Z" fill="#E1F2FF"/>
<path fill-rule="evenodd" clip-rule="evenodd" d="M120.427 123.126C120.615 122.932 120.874 122.823 121.144 122.823H135.565C135.835 122.823 136.093 122.932 136.282 123.126C136.47 123.32 136.572 123.581 136.564 123.851L135.3 168.665C135.285 169.206 134.842 169.637 134.301 169.637H122.44C121.899 169.637 121.456 169.207 121.441 168.666L120.144 123.852C120.136 123.582 120.238 123.32 120.427 123.126ZM122.173 124.823L123.412 167.637H133.329L134.536 124.823H122.173ZM128.37 174.7C126.485 174.7 124.896 175.332 123.55 176.612C122.209 177.887 121.574 179.374 121.593 181.127L121.593 181.148C121.574 182.924 122.211 184.433 123.553 185.728C124.898 187.006 126.486 187.638 128.37 187.638C129.582 187.638 130.683 187.348 131.693 186.773C132.722 186.165 133.544 185.371 134.169 184.384L134.172 184.379C134.803 183.395 135.127 182.321 135.148 181.135C135.126 179.385 134.461 177.895 133.098 176.617C131.72 175.325 130.158 174.7 128.37 174.7ZM122.172 175.163C123.894 173.525 125.978 172.7 128.37 172.7C130.688 172.7 132.733 173.533 134.466 175.158C136.211 176.793 137.123 178.799 137.148 181.127C137.148 181.136 137.148 181.145 137.148 181.153C137.123 182.711 136.692 184.153 135.857 185.456C135.058 186.716 134.002 187.733 132.702 188.499L132.691 188.506C131.368 189.262 129.922 189.638 128.37 189.638C125.978 189.638 123.894 188.812 122.172 187.175L122.167 187.17C120.445 185.509 119.571 183.481 119.593 181.138C119.571 178.811 120.448 176.802 122.172 175.163Z" fill="#5E63B6"/>
</svg>
