<svg width="500" height="500" viewBox="0 0 500 500" fill="none" xmlns="http://www.w3.org/2000/svg">
<mask id="mask0_67_35288" style="mask-type:alpha" maskUnits="userSpaceOnUse" x="44" y="231" width="414" height="207">
<path fill-rule="evenodd" clip-rule="evenodd" d="M44.9219 437.734H457.189C457.189 323.889 364.898 231.602 251.055 231.602C137.211 231.602 44.9219 323.889 44.9219 437.734Z" fill="white"/>
</mask>
<g mask="url(#mask0_67_35288)">
<path fill-rule="evenodd" clip-rule="evenodd" d="M35.1562 447.5H466.953V221.836H35.1562V447.5Z" fill="#E0F2FF"/>
</g>
<mask id="mask1_67_35288" style="mask-type:alpha" maskUnits="userSpaceOnUse" x="367" y="215" width="110" height="66">
<path fill-rule="evenodd" clip-rule="evenodd" d="M475.383 215.324C475.049 215.549 474.883 215.953 474.961 216.348V224.16C474.883 224.555 475.049 224.961 475.383 225.186C475.717 225.408 476.156 225.408 476.492 225.186C476.826 224.961 476.994 224.555 476.912 224.16V216.348C476.994 215.953 476.826 215.549 476.492 215.324C476.324 215.211 476.131 215.154 475.938 215.154C475.744 215.154 475.551 215.211 475.383 215.324ZM369.746 277.09C368.668 277.09 367.793 277.963 367.793 279.043C367.793 280.121 368.668 280.996 369.746 280.996H444.217C445.297 280.996 446.17 280.121 446.17 279.043C446.17 277.963 445.297 277.09 444.217 277.09H369.746Z" fill="white"/>
</mask>
<g mask="url(#mask1_67_35288)">
<path fill-rule="evenodd" clip-rule="evenodd" d="M358.027 290.762H486.699V205.391H358.027V290.762Z" fill="#5E63B5"/>
</g>
<mask id="mask2_67_35288" style="mask-type:alpha" maskUnits="userSpaceOnUse" x="0" y="113" width="500" height="328">
<path fill-rule="evenodd" clip-rule="evenodd" d="M412.539 115.215V129.16C412.539 130.238 413.414 131.113 414.49 131.113C415.572 131.113 416.443 130.238 416.443 129.16V115.215C416.443 114.135 415.572 113.262 414.49 113.262C413.414 113.262 412.539 114.135 412.539 115.215ZM479.863 219.277H472.051C471.656 219.197 471.252 219.365 471.025 219.701C470.803 220.035 470.803 220.473 471.025 220.809C471.252 221.145 471.656 221.311 472.051 221.23H479.863C480.26 221.311 480.664 221.145 480.887 220.809C481.111 220.473 481.111 220.035 480.887 219.701C480.701 219.42 480.389 219.258 480.059 219.258C479.994 219.258 479.928 219.264 479.863 219.277ZM492.188 418.77C491.109 418.77 490.234 419.643 490.234 420.723C490.234 421.801 491.109 422.676 492.188 422.676H498.047C499.125 422.676 500 421.801 500 420.723C500 419.643 499.125 418.77 498.047 418.77H492.188ZM1.95312 418.77C0.875 418.77 0 419.643 0 420.723C0 421.801 0.875 422.676 1.95312 422.676H19.8047C20.8828 422.676 21.7578 421.801 21.7578 420.723C21.7578 419.643 20.8828 418.77 19.8047 418.77H1.95312ZM158.008 436.914C156.93 436.914 156.055 437.789 156.055 438.867C156.055 439.945 156.93 440.82 158.008 440.82L167.969 440.662C169.047 440.662 169.922 439.789 169.922 438.711C169.922 437.633 169.047 436.758 167.969 436.758L158.008 436.914ZM334.473 436.914C333.393 436.914 332.52 437.789 332.52 438.867C332.52 439.945 333.393 440.82 334.473 440.82H352.676C353.754 440.82 354.629 439.945 354.629 438.867C354.629 437.789 353.754 436.914 352.676 436.914H334.473ZM183.594 436.914C182.514 436.914 181.641 437.789 181.641 438.867C181.641 439.945 182.514 440.82 183.594 440.82H317.324C318.404 440.82 319.277 439.945 319.277 438.867C319.277 437.789 318.404 436.914 317.324 436.914H183.594Z" fill="white"/>
</mask>
<g mask="url(#mask2_67_35288)">
<path fill-rule="evenodd" clip-rule="evenodd" d="M-9.76562 450.586H509.766V103.496H-9.76562V450.586Z" fill="#5E63B5"/>
</g>
<mask id="mask3_67_35288" style="mask-type:alpha" maskUnits="userSpaceOnUse" x="65" y="70" width="359" height="55">
<path fill-rule="evenodd" clip-rule="evenodd" d="M65.002 72.7148V86.7383C65.002 87.8164 65.875 88.6914 66.9551 88.6914C68.0312 88.6914 68.9062 87.8164 68.9062 86.7383V72.7148C68.9062 71.6367 68.0312 70.7617 66.9551 70.7617C65.875 70.7617 65.002 71.6367 65.002 72.7148ZM407.559 120.195C406.479 120.195 405.605 121.07 405.605 122.148C405.605 123.227 406.479 124.102 407.559 124.102H421.504C422.582 124.102 423.455 123.227 423.455 122.148C423.455 121.07 422.582 120.195 421.504 120.195H407.559Z" fill="white"/>
</mask>
<g mask="url(#mask3_67_35288)">
<path fill-rule="evenodd" clip-rule="evenodd" d="M55.2344 133.867H433.221V60.9961H55.2344V133.867Z" fill="#5E63B5"/>
</g>
<mask id="mask4_67_35288" style="mask-type:alpha" maskUnits="userSpaceOnUse" x="58" y="77" width="18" height="5">
<path fill-rule="evenodd" clip-rule="evenodd" d="M60.0195 77.6953C58.9414 77.6953 58.0645 78.5703 58.0645 79.6484C58.0645 80.7266 58.9414 81.6016 60.0195 81.6016H73.9473C75.0234 81.6016 75.9004 80.7266 75.9004 79.6484C75.9004 78.5703 75.0234 77.6953 73.9473 77.6953H60.0195Z" fill="white"/>
</mask>
<g mask="url(#mask4_67_35288)">
<path fill-rule="evenodd" clip-rule="evenodd" d="M48.3008 91.3672H85.666V67.9297H48.3008V91.3672Z" fill="#5E63B5"/>
</g>
<mask id="mask5_67_35288" style="mask-type:alpha" maskUnits="userSpaceOnUse" x="283" y="62" width="3" height="11">
<path fill-rule="evenodd" clip-rule="evenodd" d="M283.24 63.166V71.6406C283.311 71.8379 283.443 72.0137 283.625 72.1367C283.631 72.1406 283.637 72.1445 283.641 72.1484H284.717C284.723 72.1445 284.729 72.1406 284.732 72.1367C285.068 71.9121 285.236 71.5078 285.156 71.1133V63.3008C285.062 62.8359 284.656 62.502 284.18 62.502C283.752 62.502 283.379 62.7715 283.24 63.166Z" fill="white"/>
</mask>
<g mask="url(#mask5_67_35288)">
<path fill-rule="evenodd" clip-rule="evenodd" d="M273.418 82.0723H294.941V52.7363H273.418V82.0723Z" fill="#5E63B5"/>
</g>
<mask id="mask6_67_35288" style="mask-type:alpha" maskUnits="userSpaceOnUse" x="31" y="66" width="259" height="147">
<path fill-rule="evenodd" clip-rule="evenodd" d="M288.164 66.25H280.352C280.086 66.2324 279.822 66.3262 279.623 66.5078C279.424 66.6875 279.307 66.9395 279.299 67.207C279.299 67.4707 279.402 67.7227 279.59 67.9121C279.775 68.0977 280.029 68.2031 280.293 68.2031H288.103C288.369 68.2031 288.621 68.0977 288.809 67.9121C288.996 67.7227 289.102 67.4707 289.102 67.207C289.102 66.6563 288.656 66.2109 288.103 66.2109L288.164 66.25ZM31.9336 203.691V211.504C31.8535 211.9 32.0214 212.305 32.3574 212.529C32.6933 212.752 33.1289 212.752 33.4648 212.529C33.7988 212.305 33.9668 211.9 33.8867 211.504V203.691C33.7929 203.227 33.3847 202.893 32.9082 202.893C32.4355 202.893 32.0273 203.227 31.9336 203.691Z" fill="white"/>
</mask>
<g mask="url(#mask6_67_35288)">
<path fill-rule="evenodd" clip-rule="evenodd" d="M22.1484 222.461H298.867V56.4453H22.1484V222.461Z" fill="#5E63B5"/>
</g>
<mask id="mask7_67_35288" style="mask-type:alpha" maskUnits="userSpaceOnUse" x="27" y="206" width="12" height="3">
<path fill-rule="evenodd" clip-rule="evenodd" d="M36.8555 206.621H29.043C28.6465 206.541 28.2422 206.709 28.0195 207.045C27.793 207.379 27.793 207.817 28.0195 208.153C28.2422 208.488 28.6465 208.655 29.043 208.574H36.8555C37.25 208.655 37.6543 208.488 37.8809 208.153C38.1035 207.817 38.1035 207.379 37.8809 207.045C37.6914 206.764 37.3789 206.602 37.0508 206.602C36.9863 206.602 36.9199 206.608 36.8555 206.621Z" fill="white"/>
</mask>
<g mask="url(#mask7_67_35288)">
<path fill-rule="evenodd" clip-rule="evenodd" d="M18.0859 218.359H47.8144V196.836H18.0859V218.359Z" fill="#5E63B5"/>
</g>
<mask id="mask8_67_35288" style="mask-type:alpha" maskUnits="userSpaceOnUse" x="366" y="382" width="5" height="33">
<path fill-rule="evenodd" clip-rule="evenodd" d="M366.367 384.238V412.598C366.367 413.678 367.24 414.551 368.32 414.551C369.398 414.551 370.273 413.678 370.273 412.598V384.238C370.273 383.16 369.398 382.285 368.32 382.285C367.24 382.285 366.367 383.16 366.367 384.238Z" fill="white"/>
</mask>
<g mask="url(#mask8_67_35288)">
<path fill-rule="evenodd" clip-rule="evenodd" d="M356.602 424.316H380.039V372.52H356.602V424.316Z" fill="#E0F2FF"/>
</g>
<path fill-rule="evenodd" clip-rule="evenodd" d="M277.617 243.359H98.1838V420.644H398.477V243.359L340.742 171.699L277.617 243.359Z" fill="white"/>
<mask id="mask9_67_35288" style="mask-type:alpha" maskUnits="userSpaceOnUse" x="96" y="169" width="305" height="254">
<path fill-rule="evenodd" clip-rule="evenodd" d="M339.258 170.391L276.758 241.367H98.1836C97.1055 241.367 96.2305 242.24 96.2305 243.32V420.723C96.2285 421.252 96.4395 421.76 96.8184 422.129C97.1875 422.506 97.6953 422.719 98.2246 422.715H398.438C399.514 422.715 400.391 421.84 400.391 420.762L398.438 420.723H400.391V243.359C400.389 242.906 400.238 242.467 399.961 242.109L342.305 170.451C341.93 170 341.385 169.73 340.803 169.707C340.783 169.707 340.764 169.705 340.744 169.705C340.172 169.705 339.629 169.955 339.258 170.391ZM279.102 244.688L340.682 174.785L396.484 244.062V418.77H100.176V245.352H277.617C277.623 245.352 277.629 245.352 277.635 245.352C278.197 245.352 278.73 245.109 279.102 244.688Z" fill="white"/>
</mask>
<g mask="url(#mask9_67_35288)">
<path fill-rule="evenodd" clip-rule="evenodd" d="M86.4648 432.48H410.156V159.939H86.4648V432.48Z" fill="#5E63B5"/>
</g>
<path fill-rule="evenodd" clip-rule="evenodd" d="M130.371 372.871H253.244V280.84H130.371V372.871Z" fill="#E0F2FF"/>
<path fill-rule="evenodd" clip-rule="evenodd" d="M128.377 278.848V374.863H255.213V372.871H253.243V370.898V372.871H255.213V278.848H128.377ZM132.362 370.898H251.25V282.832H132.362V370.898Z" fill="#5E63B5"/>
<path fill-rule="evenodd" clip-rule="evenodd" d="M307.498 420.643H376.893V300.645H307.498V420.643Z" fill="#E0F2FF"/>
<path fill-rule="evenodd" clip-rule="evenodd" d="M305.509 298.653V422.637H378.887V420.643H376.893V418.651V420.643H378.887V298.653H305.509ZM309.491 418.651H374.903V302.635H309.491V418.651Z" fill="#5E63B5"/>
<mask id="mask10_67_35288" style="mask-type:alpha" maskUnits="userSpaceOnUse" x="42" y="368" width="129" height="53">
<path fill-rule="evenodd" clip-rule="evenodd" d="M81.2695 383.867C78.7792 383.236 76.2187 382.922 73.6523 382.93C64.2304 382.957 55.3242 387.232 49.4121 394.566C43.4999 401.9 41.2109 411.512 43.1855 420.723H170.369C169.711 409.461 161.035 400.307 149.824 399.043C146.758 384.199 135.26 372.537 120.459 369.262C117.689 368.648 114.9 368.352 112.139 368.352C100.139 368.352 88.623 373.979 81.2695 383.867Z" fill="white"/>
</mask>
<g mask="url(#mask10_67_35288)">
<path fill-rule="evenodd" clip-rule="evenodd" d="M32.7246 430.488H180.137V358.586H32.7246V430.488Z" fill="white"/>
</g>
<mask id="mask11_67_35288" style="mask-type:alpha" maskUnits="userSpaceOnUse" x="40" y="366" width="133" height="57">
<path fill-rule="evenodd" clip-rule="evenodd" d="M80.4805 381.641C78.2344 381.176 75.9473 380.939 73.6523 380.937C55.3164 380.937 40.4492 395.803 40.4492 414.141C40.4492 416.531 40.7109 418.916 41.2324 421.25C41.3828 421.947 41.8984 422.51 42.5801 422.727C43.2598 422.943 44.0039 422.779 44.5332 422.297C45.0586 421.816 45.291 421.088 45.1387 420.391C44.6797 418.338 44.4512 416.244 44.4531 414.141C44.4531 397.961 57.5684 384.844 73.75 384.844C76.1543 384.842 78.5508 385.145 80.8789 385.742L82.168 386.055L82.9688 384.98C91.5527 373.455 106.102 368.039 120.135 371.145C134.168 374.25 145.072 385.303 147.988 399.375L148.262 400.801L149.707 400.957C159.98 402.123 167.914 410.533 168.477 420.859C168.52 421.557 168.93 422.18 169.555 422.492C170.18 422.805 170.924 422.76 171.508 422.375C172.09 421.99 172.424 421.324 172.383 420.625L172.363 420.723C171.705 408.945 162.979 399.273 151.475 397.311C147.836 382.35 135.994 370.697 120.883 367.354C117.971 366.709 115.037 366.396 112.133 366.396C99.9473 366.396 88.2402 371.906 80.4805 381.641Z" fill="white"/>
</mask>
<g mask="url(#mask11_67_35288)">
<path fill-rule="evenodd" clip-rule="evenodd" d="M30.6836 432.586H182.152V356.631H30.6836V432.586Z" fill="#ABD4F0"/>
</g>
<mask id="mask12_67_35288" style="mask-type:alpha" maskUnits="userSpaceOnUse" x="198" y="380" width="58" height="5">
<path fill-rule="evenodd" clip-rule="evenodd" d="M200.703 380.898C199.625 380.898 198.75 381.773 198.75 382.852C198.75 383.932 199.625 384.805 200.703 384.805H253.244C254.32 384.805 255.197 383.932 255.197 382.852C255.197 381.773 254.32 380.898 253.244 380.898H200.703Z" fill="white"/>
</mask>
<g mask="url(#mask12_67_35288)">
<path fill-rule="evenodd" clip-rule="evenodd" d="M188.984 394.57H264.961V371.133H188.984V394.57Z" fill="#ABD4F0"/>
</g>
<mask id="mask13_67_35288" style="mask-type:alpha" maskUnits="userSpaceOnUse" x="217" y="388" width="34" height="27">
<path fill-rule="evenodd" clip-rule="evenodd" d="M217.617 390.078V390.037V403.145C217.617 404.223 218.492 405.098 219.57 405.098C220.65 405.098 221.523 404.223 221.523 403.145V390.078C221.523 388.998 220.65 388.125 219.57 388.125C218.492 388.125 217.617 388.998 217.617 390.078ZM246.484 398.164V405.41C246.484 406.488 247.357 407.363 248.438 407.363C249.516 407.363 250.391 406.488 250.391 405.41V398.164C250.391 397.086 249.516 396.211 248.438 396.211C247.357 396.211 246.484 397.086 246.484 398.164ZM235.195 405.41V412.637C235.195 413.715 236.07 414.59 237.148 414.59C238.229 414.59 239.102 413.715 239.102 412.637V405.41C239.102 404.33 238.229 403.457 237.148 403.457C236.07 403.457 235.195 404.33 235.195 405.41Z" fill="white"/>
</mask>
<g mask="url(#mask13_67_35288)">
<path fill-rule="evenodd" clip-rule="evenodd" d="M207.852 424.355H260.156V378.359H207.852V424.355Z" fill="#E0F2FF"/>
</g>
<mask id="mask14_67_35288" style="mask-type:alpha" maskUnits="userSpaceOnUse" x="201" y="255" width="55" height="153">
<path fill-rule="evenodd" clip-rule="evenodd" d="M212.891 257.246V264.473C212.891 265.551 213.766 266.426 214.844 266.426C215.922 266.426 216.797 265.551 216.797 264.473V257.246C216.797 256.168 215.922 255.293 214.844 255.293C213.766 255.293 212.891 256.168 212.891 257.246ZM201.621 264.473V271.699C201.621 272.777 202.496 273.652 203.572 273.652C204.652 273.652 205.525 272.777 205.525 271.699V264.473C205.525 263.393 204.652 262.52 203.572 262.52C202.496 262.52 201.621 263.393 201.621 264.473ZM253.184 403.377H253.244H253.184ZM203.125 403.377C202.045 403.377 201.172 404.254 201.172 405.332C201.172 406.41 202.045 407.285 203.125 407.285H253.184C254.264 407.285 255.137 406.41 255.137 405.332C255.137 404.254 254.264 403.377 253.184 403.377H203.125Z" fill="white"/>
</mask>
<g mask="url(#mask14_67_35288)">
<path fill-rule="evenodd" clip-rule="evenodd" d="M191.406 417.051H264.902V245.527H191.406V417.051Z" fill="#E0F2FF"/>
</g>
<mask id="mask15_67_35288" style="mask-type:alpha" maskUnits="userSpaceOnUse" x="118" y="262" width="105" height="5">
<path fill-rule="evenodd" clip-rule="evenodd" d="M120.076 262.09C119 262.09 118.125 262.963 118.125 264.043C118.125 265.123 119 265.996 120.076 265.996H133.029C134.105 265.996 134.982 265.123 134.982 264.043C134.982 262.963 134.105 262.09 133.029 262.09H120.076ZM198.711 262.52C197.631 262.52 196.758 263.393 196.758 264.473C196.758 265.551 197.631 266.426 198.711 266.426H220.898C221.977 266.426 222.852 265.551 222.852 264.473C222.852 263.393 221.977 262.52 220.898 262.52H198.711Z" fill="white"/>
</mask>
<g mask="url(#mask15_67_35288)">
<path fill-rule="evenodd" clip-rule="evenodd" d="M108.359 276.191H232.617V252.324H108.359V276.191Z" fill="#E0F2FF"/>
</g>
<mask id="mask16_67_35288" style="mask-type:alpha" maskUnits="userSpaceOnUse" x="407" y="253" width="56" height="55">
<path fill-rule="evenodd" clip-rule="evenodd" d="M407.775 280.352C407.775 295.377 419.955 307.559 434.98 307.559C450.006 307.559 462.188 295.377 462.188 280.352C462.188 265.326 450.006 253.145 434.98 253.145C419.955 253.145 407.775 265.326 407.775 280.352Z" fill="white"/>
</mask>
<g mask="url(#mask16_67_35288)">
<path fill-rule="evenodd" clip-rule="evenodd" d="M398.008 317.324H471.951V243.379H398.008V317.324Z" fill="white"/>
</g>
<mask id="mask17_67_35288" style="mask-type:alpha" maskUnits="userSpaceOnUse" x="405" y="251" width="60" height="59">
<path fill-rule="evenodd" clip-rule="evenodd" d="M414.094 259.67C405.721 268.07 403.242 280.686 407.805 291.631C412.371 302.576 423.084 309.688 434.939 309.65C442.703 309.65 450.142 306.559 455.623 301.063C461.101 295.564 464.168 288.111 464.141 280.352C464.141 268.492 456.992 257.805 446.031 253.275C442.414 251.779 438.615 251.055 434.85 251.053C427.209 251.053 419.701 254.043 414.094 259.67ZM411.619 290.08C406.994 278.941 410.887 266.086 420.912 259.381C430.937 252.678 444.305 253.992 452.83 262.52C457.576 267.24 460.242 273.658 460.234 280.352H464.141H462.187H460.234C460.252 292.412 451.746 302.807 439.922 305.172C438.26 305.506 436.594 305.666 434.951 305.666C424.902 305.666 415.592 299.654 411.619 290.08Z" fill="white"/>
</mask>
<g mask="url(#mask17_67_35288)">
<path fill-rule="evenodd" clip-rule="evenodd" d="M395.781 319.414H473.906V241.289H395.781V319.414Z" fill="#5E63B5"/>
</g>
<mask id="mask18_67_35288" style="mask-type:alpha" maskUnits="userSpaceOnUse" x="418" y="264" width="32" height="33">
<path fill-rule="evenodd" clip-rule="evenodd" d="M438.809 273.027C438.34 276.457 437.338 279.791 435.838 282.91C432.387 282.658 428.994 281.875 425.781 280.586C423.051 279.363 420.465 277.844 418.066 276.055V277.09C418.076 277.277 418.076 277.467 418.066 277.656V277.91C418.066 278.105 418.066 278.281 418.164 278.477V278.711C418.164 278.945 418.26 279.18 418.301 279.416L418.457 280.234C418.457 280.488 418.555 280.723 418.613 280.977V281.113C418.613 281.328 418.711 281.561 418.77 281.777V281.895L418.945 282.656C419.162 283.437 419.395 284.219 419.648 284.941C420.043 286.092 420.523 287.207 421.094 288.279L421.346 288.711L421.582 289.082L421.836 289.473L422.168 289.941L422.578 290.41L422.852 290.721L422.988 290.84L423.164 290.996L423.299 291.113L423.477 291.248L423.631 291.367L423.809 291.484H423.945L424.141 291.602H424.277L424.512 291.699H424.631L424.98 291.836H425.197C430.84 293.34 436.348 290.957 443.242 295.898L443.496 295.547C443.633 295.937 443.75 296.191 443.789 296.289C442.91 287.832 447.695 284.297 449.238 278.711V278.047C449.338 276.158 448.764 274.297 447.617 272.793L447.305 272.324C447.109 272.031 446.895 271.738 446.68 271.465L446.504 271.229L446.307 270.977L446.113 270.742L445.898 270.508L445.742 270.33C443.67 268.01 441.344 265.93 438.809 264.121C439.139 267.08 439.139 270.066 438.809 273.027Z" fill="white"/>
</mask>
<g mask="url(#mask18_67_35288)">
<path fill-rule="evenodd" clip-rule="evenodd" d="M408.301 306.055H459.016V254.355H408.301V306.055Z" fill="#4DA8E0"/>
</g>
<mask id="mask19_67_35288" style="mask-type:alpha" maskUnits="userSpaceOnUse" x="370" y="254" width="15" height="5">
<path fill-rule="evenodd" clip-rule="evenodd" d="M372.383 254.844C371.303 254.844 370.43 255.719 370.43 256.797C370.43 257.875 371.303 258.75 372.383 258.75H382.656C383.736 258.75 384.609 257.875 384.609 256.797C384.609 255.719 383.736 254.844 382.656 254.844H372.383Z" fill="white"/>
</mask>
<g mask="url(#mask19_67_35288)">
<path fill-rule="evenodd" clip-rule="evenodd" d="M360.664 268.516H394.375V245.078H360.664V268.516Z" fill="#E0F2FF"/>
</g>
<path fill-rule="evenodd" clip-rule="evenodd" d="M161.934 243.359H165.918V234.551H161.934V243.359Z" fill="#5E63B5"/>
<mask id="mask20_67_35288" style="mask-type:alpha" maskUnits="userSpaceOnUse" x="181" y="210" width="5" height="20">
<path fill-rule="evenodd" clip-rule="evenodd" d="M181.857 212.168V227.52C181.857 228.598 182.73 229.473 183.811 229.473C184.887 229.473 185.764 228.598 185.764 227.52V212.168C185.764 211.09 184.887 210.215 183.811 210.215C182.73 210.215 181.857 211.09 181.857 212.168Z" fill="white"/>
</mask>
<g mask="url(#mask20_67_35288)">
<path fill-rule="evenodd" clip-rule="evenodd" d="M172.09 239.238H195.527V200.449H172.09V239.238Z" fill="#ABD4F0"/>
</g>
<mask id="mask21_67_35288" style="mask-type:alpha" maskUnits="userSpaceOnUse" x="166" y="254" width="328" height="167">
<path fill-rule="evenodd" clip-rule="evenodd" d="M300.039 254.844C298.961 254.844 298.088 255.719 298.088 256.797C298.088 257.875 298.961 258.75 300.039 258.75H307.986C309.066 258.75 309.939 257.875 309.939 256.797C309.939 255.719 309.066 254.844 307.986 254.844H300.039ZM247.305 261.014C246.227 261.014 245.354 261.891 245.354 262.969C245.354 264.047 246.227 264.922 247.305 264.922H257.598C258.678 264.922 259.551 264.047 259.551 262.969C259.551 261.891 258.678 261.014 257.598 261.014H247.305ZM167.969 388.125C166.889 388.125 166.016 388.998 166.016 390.078C166.016 391.156 166.889 392.031 167.969 392.031H175.92C176.996 392.031 177.871 391.156 177.871 390.078C177.871 388.998 176.996 388.125 175.92 388.125H167.969ZM307.559 407.285L307.461 407.383V420.625L307.559 420.723H487.246C490.957 420.723 493.965 417.715 493.965 414.004C493.965 410.293 490.957 407.285 487.246 407.285H307.559Z" fill="white"/>
</mask>
<g mask="url(#mask21_67_35288)">
<path fill-rule="evenodd" clip-rule="evenodd" d="M156.25 430.488H503.73V245.078H156.25V430.488Z" fill="#E0F2FF"/>
</g>
<mask id="mask22_67_35288" style="mask-type:alpha" maskUnits="userSpaceOnUse" x="305" y="405" width="191" height="18">
<path fill-rule="evenodd" clip-rule="evenodd" d="M306.756 405.273L306.094 405.957L305.508 406.523V421.445L306.191 422.109L306.756 422.695H487.246C492.057 422.695 495.957 418.795 495.957 413.984C495.957 409.174 492.057 405.273 487.246 405.273H306.756ZM487.246 409.336C489.857 409.336 491.973 411.451 491.973 414.062C491.973 416.672 489.857 418.789 487.246 418.789V418.77H309.414V409.336H487.246Z" fill="white"/>
</mask>
<g mask="url(#mask22_67_35288)">
<path fill-rule="evenodd" clip-rule="evenodd" d="M295.742 432.461H505.723V395.508H295.742V432.461Z" fill="#5E63B5"/>
</g>
<mask id="mask23_67_35288" style="mask-type:alpha" maskUnits="userSpaceOnUse" x="329" y="412" width="4" height="4">
<path fill-rule="evenodd" clip-rule="evenodd" d="M329.766 414.043C329.766 414.787 330.367 415.391 331.115 415.391C331.857 415.391 332.461 414.787 332.461 414.043C332.461 413.299 331.857 412.693 331.115 412.693C330.367 412.693 329.766 413.299 329.766 414.043Z" fill="white"/>
</mask>
<g mask="url(#mask23_67_35288)">
<path fill-rule="evenodd" clip-rule="evenodd" d="M320 425.156H342.227V402.93H320V425.156Z" fill="#E0F2FF"/>
</g>
<mask id="mask24_67_35288" style="mask-type:alpha" maskUnits="userSpaceOnUse" x="327" y="410" width="8" height="8">
<path fill-rule="evenodd" clip-rule="evenodd" d="M327.775 414.043C327.775 415.887 329.27 417.383 331.115 417.383C332 417.387 332.854 417.037 333.48 416.41C334.107 415.783 334.457 414.93 334.455 414.043H332.461H331.777H334.455C334.455 412.199 332.959 410.703 331.115 410.703C329.27 410.703 327.775 412.199 327.775 414.043Z" fill="white"/>
</mask>
<g mask="url(#mask24_67_35288)">
<path fill-rule="evenodd" clip-rule="evenodd" d="M318.008 427.148H344.219V400.938H318.008V427.148Z" fill="#5E63B5"/>
</g>
<mask id="mask25_67_35288" style="mask-type:alpha" maskUnits="userSpaceOnUse" x="355" y="412" width="4" height="4">
<path fill-rule="evenodd" clip-rule="evenodd" d="M355.529 414.043C355.529 414.787 356.131 415.391 356.875 415.391C357.232 415.391 357.572 415.248 357.82 414.996C358.07 414.742 358.207 414.398 358.203 414.043C358.207 413.688 358.07 413.346 357.82 413.092C357.572 412.838 357.232 412.693 356.875 412.693C356.131 412.693 355.529 413.299 355.529 414.043Z" fill="white"/>
</mask>
<g mask="url(#mask25_67_35288)">
<path fill-rule="evenodd" clip-rule="evenodd" d="M345.762 425.156H367.969V402.93H345.762V425.156Z" fill="#E0F2FF"/>
</g>
<mask id="mask26_67_35288" style="mask-type:alpha" maskUnits="userSpaceOnUse" x="353" y="410" width="8" height="8">
<path fill-rule="evenodd" clip-rule="evenodd" d="M353.516 414.043C353.422 415.295 354.033 416.492 355.103 417.146C356.172 417.801 357.519 417.801 358.59 417.146C359.66 416.492 360.271 415.295 360.176 414.043C360.043 412.303 358.592 410.959 356.846 410.959C355.1 410.959 353.65 412.303 353.516 414.043ZM360.176 414.043H358.203H357.519H360.176Z" fill="white"/>
</mask>
<g mask="url(#mask26_67_35288)">
<path fill-rule="evenodd" clip-rule="evenodd" d="M343.74 427.404H369.951V401.193H343.74V427.404Z" fill="#5E63B5"/>
</g>
<mask id="mask27_67_35288" style="mask-type:alpha" maskUnits="userSpaceOnUse" x="381" y="412" width="3" height="4">
<path fill-rule="evenodd" clip-rule="evenodd" d="M381.27 414.043C381.27 414.787 381.873 415.391 382.617 415.391C382.975 415.391 383.314 415.248 383.563 414.996C383.813 414.742 383.951 414.398 383.945 414.043C383.951 413.688 383.813 413.346 383.563 413.092C383.314 412.838 382.975 412.693 382.617 412.693C381.873 412.693 381.27 413.299 381.27 414.043Z" fill="white"/>
</mask>
<g mask="url(#mask27_67_35288)">
<path fill-rule="evenodd" clip-rule="evenodd" d="M371.504 425.156H393.711V402.93H371.504V425.156Z" fill="#E0F2FF"/>
</g>
<mask id="mask28_67_35288" style="mask-type:alpha" maskUnits="userSpaceOnUse" x="379" y="410" width="7" height="8">
<path fill-rule="evenodd" clip-rule="evenodd" d="M379.277 414.043C379.18 415.295 379.793 416.492 380.865 417.146C381.933 417.801 383.279 417.801 384.35 417.146C385.42 416.492 386.033 415.295 385.937 414.043C385.803 412.303 384.351 410.959 382.605 410.959C380.861 410.959 379.41 412.303 379.277 414.043ZM385.937 414.043H383.945H383.26H385.937Z" fill="white"/>
</mask>
<g mask="url(#mask28_67_35288)">
<path fill-rule="evenodd" clip-rule="evenodd" d="M369.502 427.404H395.713V401.193H369.502V427.404Z" fill="#5E63B5"/>
</g>
<mask id="mask29_67_35288" style="mask-type:alpha" maskUnits="userSpaceOnUse" x="407" y="412" width="3" height="4">
<path fill-rule="evenodd" clip-rule="evenodd" d="M407.012 414.043C407.012 414.787 407.617 415.391 408.359 415.391C409.104 415.391 409.707 414.787 409.707 414.043C409.707 413.299 409.104 412.693 408.359 412.693C407.617 412.693 407.012 413.299 407.012 414.043Z" fill="white"/>
</mask>
<g mask="url(#mask29_67_35288)">
<path fill-rule="evenodd" clip-rule="evenodd" d="M397.246 425.156H419.473V402.93H397.246V425.156Z" fill="#E0F2FF"/>
</g>
<mask id="mask30_67_35288" style="mask-type:alpha" maskUnits="userSpaceOnUse" x="405" y="410" width="7" height="8">
<path fill-rule="evenodd" clip-rule="evenodd" d="M405.02 414.043C405.02 415.887 406.516 417.383 408.359 417.383C409.246 417.387 410.098 417.037 410.727 416.41C411.354 415.783 411.705 414.93 411.699 414.043H409.707H409.023H411.699C411.699 412.199 410.203 410.703 408.359 410.703C406.516 410.703 405.02 412.199 405.02 414.043Z" fill="white"/>
</mask>
<g mask="url(#mask30_67_35288)">
<path fill-rule="evenodd" clip-rule="evenodd" d="M395.254 427.148H421.465V400.938H395.254V427.148Z" fill="#5E63B5"/>
</g>
<mask id="mask31_67_35288" style="mask-type:alpha" maskUnits="userSpaceOnUse" x="432" y="412" width="4" height="4">
<path fill-rule="evenodd" clip-rule="evenodd" d="M432.871 414.043C432.871 414.787 433.475 415.391 434.219 415.391C434.574 415.391 434.916 415.248 435.164 414.996C435.414 414.742 435.553 414.398 435.547 414.043C435.553 413.688 435.414 413.346 435.164 413.092C434.916 412.838 434.574 412.693 434.219 412.693C433.475 412.693 432.871 413.299 432.871 414.043Z" fill="white"/>
</mask>
<g mask="url(#mask31_67_35288)">
<path fill-rule="evenodd" clip-rule="evenodd" d="M423.105 425.156H445.312V402.93H423.105V425.156Z" fill="#E0F2FF"/>
</g>
<mask id="mask32_67_35288" style="mask-type:alpha" maskUnits="userSpaceOnUse" x="430" y="410" width="8" height="8">
<path fill-rule="evenodd" clip-rule="evenodd" d="M430.84 414.043C430.744 415.295 431.357 416.492 432.426 417.146C433.496 417.801 434.844 417.801 435.914 417.146C436.984 416.492 437.596 415.295 437.502 414.043C437.367 412.303 435.916 410.959 434.17 410.959C432.424 410.959 430.973 412.303 430.84 414.043ZM437.502 414.043H435.547H434.863H437.502Z" fill="white"/>
</mask>
<g mask="url(#mask32_67_35288)">
<path fill-rule="evenodd" clip-rule="evenodd" d="M421.064 427.404H447.275V401.193H421.064V427.404Z" fill="#5E63B5"/>
</g>
<mask id="mask33_67_35288" style="mask-type:alpha" maskUnits="userSpaceOnUse" x="458" y="412" width="4" height="4">
<path fill-rule="evenodd" clip-rule="evenodd" d="M458.4 414.043C458.4 414.787 459.002 415.391 459.746 415.391C460.104 415.391 460.441 415.248 460.691 414.996C460.941 414.742 461.078 414.398 461.074 414.043C461.078 413.688 460.941 413.346 460.691 413.092C460.441 412.838 460.104 412.693 459.746 412.693C459.002 412.693 458.4 413.299 458.4 414.043Z" fill="white"/>
</mask>
<g mask="url(#mask33_67_35288)">
<path fill-rule="evenodd" clip-rule="evenodd" d="M448.633 425.156H470.84V402.93H448.633V425.156Z" fill="#E0F2FF"/>
</g>
<mask id="mask34_67_35288" style="mask-type:alpha" maskUnits="userSpaceOnUse" x="456" y="410" width="8" height="8">
<path fill-rule="evenodd" clip-rule="evenodd" d="M456.406 414.043C456.311 415.295 456.924 416.492 457.994 417.146C459.063 417.801 460.408 417.801 461.479 417.146C462.551 416.492 463.162 415.295 463.066 414.043C462.934 412.303 461.48 410.959 459.736 410.959C457.99 410.959 456.539 412.303 456.406 414.043ZM463.066 414.043H461.074H460.389H463.066Z" fill="white"/>
</mask>
<g mask="url(#mask34_67_35288)">
<path fill-rule="evenodd" clip-rule="evenodd" d="M446.631 427.404H472.842V401.193H446.631V427.404Z" fill="#5E63B5"/>
</g>
<mask id="mask35_67_35288" style="mask-type:alpha" maskUnits="userSpaceOnUse" x="483" y="412" width="4" height="4">
<path fill-rule="evenodd" clip-rule="evenodd" d="M483.906 414.043C483.906 414.787 484.508 415.391 485.254 415.391C485.998 415.391 486.602 414.787 486.602 414.043C486.602 413.299 485.998 412.693 485.254 412.693C484.508 412.693 483.906 413.299 483.906 414.043Z" fill="white"/>
</mask>
<g mask="url(#mask35_67_35288)">
<path fill-rule="evenodd" clip-rule="evenodd" d="M474.141 425.156H496.367V402.93H474.141V425.156Z" fill="#E0F2FF"/>
</g>
<mask id="mask36_67_35288" style="mask-type:alpha" maskUnits="userSpaceOnUse" x="481" y="410" width="8" height="8">
<path fill-rule="evenodd" clip-rule="evenodd" d="M481.916 414.043C481.916 415.887 483.41 417.383 485.254 417.383C486.141 417.387 486.994 417.037 487.621 416.41C488.25 415.783 488.6 414.93 488.594 414.043H486.602H485.898H488.594C488.594 412.199 487.1 410.703 485.254 410.703C483.41 410.703 481.916 412.199 481.916 414.043Z" fill="white"/>
</mask>
<g mask="url(#mask36_67_35288)">
<path fill-rule="evenodd" clip-rule="evenodd" d="M472.148 427.148H498.359V400.938H472.148V427.148Z" fill="#5E63B5"/>
</g>
<path fill-rule="evenodd" clip-rule="evenodd" d="M163.769 171.698L98.1831 243.358H277.617L340.742 171.698H163.769Z" fill="#E0F2FF"/>
<mask id="mask37_67_35288" style="mask-type:alpha" maskUnits="userSpaceOnUse" x="96" y="169" width="247" height="77">
<path fill-rule="evenodd" clip-rule="evenodd" d="M340.742 169.707V171.66V169.746H163.77C163.211 169.742 162.678 169.977 162.305 170.391L96.7169 242.01C96.1759 242.59 96.0372 243.437 96.3673 244.16C96.6778 244.889 97.3946 245.359 98.1837 245.352H277.617C278.186 245.355 278.727 245.113 279.102 244.687L342.244 173.027C342.775 172.439 342.899 171.594 342.559 170.879C342.246 170.166 341.543 169.707 340.768 169.707C340.76 169.707 340.752 169.707 340.742 169.707ZM164.649 173.691H336.318L276.758 241.326H102.695L164.649 173.691Z" fill="white"/>
</mask>
<g mask="url(#mask37_67_35288)">
<path fill-rule="evenodd" clip-rule="evenodd" d="M86.4238 255.117H352.514V159.941H86.4238V255.117Z" fill="#5E63B5"/>
</g>
<mask id="mask38_67_35288" style="mask-type:alpha" maskUnits="userSpaceOnUse" x="328" y="229" width="31" height="30">
<path fill-rule="evenodd" clip-rule="evenodd" d="M330.059 238.664C327.795 244.133 329.049 250.428 333.236 254.609C337.426 258.791 343.721 260.037 349.188 257.768C354.652 255.496 358.211 250.156 358.203 244.238C358.191 236.166 351.647 229.629 343.574 229.629C337.656 229.629 332.318 233.195 330.059 238.664Z" fill="white"/>
</mask>
<g mask="url(#mask38_67_35288)">
<path fill-rule="evenodd" clip-rule="evenodd" d="M319.18 268.652H367.967V219.863H319.18V268.652Z" fill="#E0F2FF"/>
</g>
<mask id="mask39_67_35288" style="mask-type:alpha" maskUnits="userSpaceOnUse" x="275" y="227" width="86" height="196">
<path fill-rule="evenodd" clip-rule="evenodd" d="M343.521 227.637C334.346 227.645 326.91 235.088 326.914 244.264C326.918 253.441 334.357 260.879 343.535 260.879C347.947 260.885 352.182 259.133 355.301 256.01C358.42 252.887 360.166 248.65 360.156 244.238H358.203H356.25C356.25 250.27 351.99 255.457 346.076 256.633C340.16 257.809 334.24 254.641 331.936 249.068C329.633 243.494 331.586 237.07 336.602 233.725C341.617 230.379 348.299 231.043 352.559 235.312C354.928 237.678 356.256 240.889 356.25 244.238H360.156C360.145 235.066 352.707 227.637 343.537 227.637C343.531 227.637 343.527 227.637 343.521 227.637ZM275.508 243.359V263.945C275.508 265.023 276.383 265.898 277.461 265.898C278.541 265.898 279.414 265.023 279.414 263.945V243.359C279.414 242.279 278.541 241.406 277.461 241.406C276.383 241.406 275.508 242.279 275.508 243.359ZM275.508 350.291V420.604C275.508 421.684 276.383 422.557 277.461 422.557C278.541 422.557 279.414 421.684 279.414 420.604V350.291C279.414 349.215 278.541 348.34 277.461 348.34C276.383 348.34 275.508 349.215 275.508 350.291Z" fill="white"/>
</mask>
<g mask="url(#mask39_67_35288)">
<path fill-rule="evenodd" clip-rule="evenodd" d="M265.742 432.324H369.922V217.871H265.742V432.324Z" fill="#5E63B5"/>
</g>
<mask id="mask40_67_35288" style="mask-type:alpha" maskUnits="userSpaceOnUse" x="130" y="108" width="247" height="52">
<path fill-rule="evenodd" clip-rule="evenodd" d="M372.168 108.223H134.766C132.396 108.039 130.305 109.768 130.041 112.127V155.449C130.305 157.812 132.396 159.537 134.766 159.355H372.168L372.227 159.297C374.6 159.49 376.697 157.76 376.953 155.389V112.127C376.701 109.875 374.793 108.203 372.57 108.203C372.438 108.203 372.303 108.209 372.168 108.223Z" fill="white"/>
</mask>
<g mask="url(#mask40_67_35288)">
<path fill-rule="evenodd" clip-rule="evenodd" d="M120.273 169.135H386.719V98.4395H120.273V169.135Z" fill="white"/>
</g>
<mask id="mask41_67_35288" style="mask-type:alpha" maskUnits="userSpaceOnUse" x="128" y="106" width="251" height="56">
<path fill-rule="evenodd" clip-rule="evenodd" d="M130.156 107.793C128.832 108.846 128.053 110.44 128.027 112.127V155.389C128.053 157.076 128.824 158.666 130.137 159.727C131.439 160.799 133.08 161.371 134.766 161.348H372.168V159.356V157.402H134.766C134.059 157.393 133.371 157.152 132.812 156.719C132.4 156.416 132.15 155.941 132.129 155.43V112.127C132.143 111.617 132.396 111.139 132.812 110.84C133.371 110.406 134.059 110.174 134.766 110.174H372.168C372.918 110.162 373.652 110.41 374.238 110.879C374.67 111.158 374.951 111.617 375 112.127V155.389C374.979 155.897 374.736 156.369 374.336 156.68C373.744 157.135 373.012 157.373 372.266 157.363V161.27C373.951 161.287 375.588 160.713 376.893 159.649C378.145 158.584 378.879 157.033 378.906 155.389V112.127C378.883 110.445 378.119 108.859 376.816 107.793C375.512 106.723 373.875 106.143 372.188 106.15H134.766C134.75 106.15 134.734 106.15 134.721 106.15C133.055 106.15 131.441 106.731 130.156 107.793Z" fill="white"/>
</mask>
<g mask="url(#mask41_67_35288)">
<path fill-rule="evenodd" clip-rule="evenodd" d="M118.262 171.113H388.672V96.3848H118.262V171.113Z" fill="#5E63B5"/>
</g>
<path fill-rule="evenodd" clip-rule="evenodd" d="M316.328 173.73H320.312V158.809H316.328V173.73ZM185.801 173.73H189.783V158.809H185.801V173.73Z" fill="#5E63B5"/>
<mask id="mask42_67_35288" style="mask-type:alpha" maskUnits="userSpaceOnUse" x="175" y="121" width="164" height="27">
<path fill-rule="evenodd" clip-rule="evenodd" d="M184.785 121.269C183.559 121.25 182.338 121.461 181.191 121.894C180.18 122.273 179.254 122.844 178.457 123.574C177.752 124.246 177.193 125.058 176.818 125.957C176.436 126.832 176.242 127.775 176.252 128.73C176.215 129.744 176.389 130.756 176.758 131.699C177.068 132.435 177.529 133.099 178.104 133.652C178.68 134.187 179.34 134.623 180.057 134.941C180.766 135.281 181.496 135.568 182.246 135.801C182.986 136.054 183.709 136.269 184.434 136.465C185.111 136.646 185.766 136.9 186.387 137.226C186.912 137.474 187.375 137.842 187.734 138.301C188.096 138.775 188.275 139.365 188.242 139.961C188.314 141.017 187.904 142.053 187.129 142.773C186.213 143.472 185.076 143.82 183.926 143.748C183.146 143.771 182.371 143.644 181.641 143.379C181.041 143.179 180.467 142.918 179.922 142.597L178.693 141.797C178.42 141.57 178.084 141.441 177.734 141.426C177.523 141.449 177.326 141.525 177.15 141.64C176.971 141.758 176.812 141.902 176.68 142.07L175.273 144.375C175.793 144.906 176.369 145.377 176.992 145.781C177.609 146.195 178.264 146.554 178.945 146.855C179.691 147.154 180.461 147.383 181.25 147.539C182.053 147.703 182.871 147.787 183.689 147.793C185.025 147.824 186.35 147.597 187.598 147.127C188.654 146.73 189.619 146.119 190.43 145.33C191.217 144.578 191.838 143.666 192.246 142.656C192.648 141.601 192.852 140.482 192.852 139.353C192.877 138.416 192.697 137.482 192.322 136.621C192.014 135.885 191.553 135.22 190.977 134.668C190.389 134.146 189.732 133.713 189.023 133.379C188.301 133.045 187.578 132.754 186.838 132.48L184.629 131.758C183.955 131.564 183.303 131.308 182.676 130.996C182.162 130.742 181.705 130.39 181.328 129.961C180.977 129.533 180.795 128.99 180.82 128.437C180.811 127.982 180.898 127.529 181.074 127.109C181.232 126.709 181.496 126.359 181.836 126.094C182.197 125.779 182.625 125.545 183.088 125.41C183.652 125.244 184.236 125.166 184.824 125.176C185.486 125.164 186.145 125.256 186.777 125.451C187.27 125.615 187.746 125.824 188.205 126.074C188.613 126.289 188.965 126.506 189.258 126.679C189.492 126.853 189.77 126.955 190.057 126.972C190.279 126.978 190.496 126.916 190.684 126.797C190.879 126.66 191.037 126.469 191.133 126.25L192.322 123.945C191.369 123.076 190.246 122.412 189.023 121.992C187.721 121.515 186.344 121.269 184.957 121.269C184.9 121.269 184.842 121.269 184.785 121.269ZM325.605 121.543H317.793V147.439H322.598V137.324L324.666 137.363C325.043 137.34 325.418 137.408 325.762 137.558C326.029 137.728 326.256 137.955 326.426 138.222L331.875 146.504C332.242 147.14 332.937 147.519 333.672 147.48H338.008L331.523 137.91C331.123 137.301 330.59 136.793 329.959 136.426C330.818 136.156 331.633 135.769 332.383 135.273C333.068 134.82 333.674 134.258 334.178 133.613C335.139 132.263 335.633 130.638 335.586 128.984C335.605 127.953 335.412 126.929 335.021 125.976C334.645 125.051 334.039 124.238 333.262 123.613C332.34 122.9 331.283 122.381 330.156 122.09C328.787 121.724 327.375 121.539 325.959 121.539C325.842 121.539 325.723 121.539 325.605 121.543ZM322.656 125.254H325.742C327.129 125.154 328.506 125.533 329.648 126.328C330.543 127.068 331.031 128.193 330.959 129.355C330.959 129.969 330.848 130.58 330.627 131.152C330.42 131.699 330.086 132.189 329.648 132.578C329.174 133.013 328.607 133.336 327.988 133.515C327.225 133.763 326.428 133.883 325.625 133.867H322.598L322.656 125.254ZM231.096 121.543H222.656V147.439H227.539V138.32H231.035C232.531 138.345 234.02 138.135 235.449 137.695C236.604 137.342 237.672 136.742 238.572 135.937C239.43 135.207 240.098 134.281 240.525 133.242C240.953 132.138 241.166 130.967 241.152 129.785C241.164 128.65 240.965 127.525 240.566 126.465C240.17 125.461 239.539 124.562 238.729 123.847C237.811 123.072 236.742 122.494 235.586 122.148C234.232 121.744 232.826 121.539 231.416 121.539C231.309 121.539 231.201 121.541 231.096 121.543ZM227.539 125.215H231.152C231.937 125.207 232.721 125.312 233.477 125.527C234.076 125.717 234.627 126.031 235.098 126.445C235.525 126.842 235.859 127.33 236.074 127.871C236.301 128.496 236.406 129.158 236.389 129.824C236.393 130.488 236.287 131.148 236.074 131.777C235.861 132.344 235.527 132.855 235.098 133.281C234.633 133.709 234.08 134.029 233.477 134.219C232.725 134.459 231.939 134.572 231.152 134.551H227.539V125.215ZM253.555 121.543H245.117V147.439H250V138.32L253.555 138.242C255.043 138.265 256.527 138.054 257.949 137.617C259.109 137.26 260.182 136.66 261.094 135.857C261.955 135.136 262.627 134.209 263.047 133.164C263.48 132.064 263.695 130.888 263.672 129.705C263.65 128.595 263.424 127.496 263.008 126.465C262.625 125.451 261.994 124.553 261.172 123.847C260.258 123.072 259.193 122.494 258.047 122.148C256.688 121.746 255.275 121.539 253.859 121.539C253.758 121.539 253.656 121.541 253.555 121.543ZM250 125.215H253.633C254.412 125.207 255.187 125.312 255.937 125.527C256.539 125.713 257.09 126.025 257.559 126.445C257.992 126.836 258.326 127.324 258.537 127.871C258.768 128.494 258.881 129.158 258.867 129.824C258.867 130.49 258.754 131.148 258.537 131.777C258.33 132.347 257.996 132.863 257.559 133.281C257.096 133.713 256.543 134.033 255.937 134.219C255.195 134.459 254.414 134.572 253.633 134.551H250V125.215ZM297.109 121.543V147.578H313.457V143.672H301.973V136.347H311.016V132.636H301.973V125.451H313.457V121.543H297.109ZM286.465 147.439H291.289V121.541H286.465V147.439ZM267.344 121.543V147.283H282.539V143.379H272.168V121.543H267.344ZM212.91 121.543V137.148C212.924 138.056 212.785 138.961 212.5 139.824C212.246 140.545 211.855 141.207 211.348 141.777C210.807 142.359 210.139 142.806 209.395 143.086C208.6 143.412 207.752 143.572 206.895 143.554C206.064 143.523 205.248 143.33 204.492 142.988C203.75 142.705 203.082 142.258 202.539 141.679C202.039 141.105 201.646 140.443 201.389 139.726C201.119 138.853 200.988 137.945 200.996 137.031V121.543H196.17V137.148C196.16 138.607 196.412 140.056 196.914 141.426C197.42 142.66 198.17 143.775 199.123 144.707C200.074 145.683 201.227 146.443 202.5 146.933C205.393 148.002 208.572 148.002 211.465 146.933C212.736 146.439 213.889 145.681 214.844 144.707C215.787 143.74 216.518 142.59 216.992 141.328C217.494 139.959 217.744 138.51 217.734 137.051V121.543H212.91Z" fill="white"/>
</mask>
<g mask="url(#mask42_67_35288)">
<path fill-rule="evenodd" clip-rule="evenodd" d="M165.508 157.561H347.771V111.502H165.508V157.561Z" fill="#5E63B5"/>
</g>
<mask id="mask43_67_35288" style="mask-type:alpha" maskUnits="userSpaceOnUse" x="234" y="388" width="69" height="32">
<path fill-rule="evenodd" clip-rule="evenodd" d="M254.492 404.805C253.324 404.547 252.133 404.414 250.938 404.414C242.4 404.41 235.301 410.98 234.648 419.492L301.094 419.473C301.754 417.248 302.09 414.939 302.09 412.617C302.051 400.672 293.387 390.502 281.598 388.566C280.264 388.348 278.934 388.242 277.619 388.242C267.312 388.24 257.91 394.775 254.492 404.805Z" fill="white"/>
</mask>
<g mask="url(#mask43_67_35288)">
<path fill-rule="evenodd" clip-rule="evenodd" d="M224.883 429.258H311.855V378.477H224.883V429.258Z" fill="white"/>
</g>
<mask id="mask44_67_35288" style="mask-type:alpha" maskUnits="userSpaceOnUse" x="138" y="118" width="230" height="304">
<path fill-rule="evenodd" clip-rule="evenodd" d="M364.023 120.859V146.875C364.023 147.953 364.896 148.828 365.977 148.828C367.057 148.828 367.93 147.953 367.93 146.875V120.859C367.93 119.781 367.057 118.906 365.977 118.906C364.896 118.906 364.023 119.781 364.023 120.859ZM138.184 128.828V146.875C138.184 147.953 139.059 148.828 140.137 148.828C141.215 148.828 142.09 147.953 142.09 146.875V128.828C142.09 127.75 141.215 126.875 140.137 126.875C139.059 126.875 138.184 127.75 138.184 128.828ZM253.242 402.522C248.609 401.945 243.904 403.16 240.115 405.963C235.838 409.125 233.15 413.994 232.754 419.297C232.668 420.375 233.473 421.32 234.551 421.406C235.631 421.492 236.574 420.688 236.66 419.609C237.23 412.145 243.451 406.377 250.938 406.367C251.996 406.365 253.051 406.482 254.082 406.717L255.84 407.109L256.408 405.41C260.129 393.588 272.729 387.02 284.551 390.742C296.373 394.465 302.939 407.064 299.219 418.887C299.057 419.395 299.107 419.945 299.363 420.414C299.617 420.885 300.053 421.229 300.566 421.367C301.064 421.52 301.605 421.463 302.064 421.213C302.521 420.963 302.863 420.541 303.008 420.041C306.951 406.27 299.209 391.863 285.545 387.559C282.904 386.727 280.23 386.33 277.598 386.33C267.17 386.33 257.424 392.547 253.242 402.522Z" fill="white"/>
</mask>
<g mask="url(#mask44_67_35288)">
<path fill-rule="evenodd" clip-rule="evenodd" d="M128.418 431.217H377.695V109.141H128.418V431.217Z" fill="#ABD4F0"/>
</g>
<mask id="mask45_67_35288" style="mask-type:alpha" maskUnits="userSpaceOnUse" x="309" y="342" width="39" height="65">
<path fill-rule="evenodd" clip-rule="evenodd" d="M309.707 342.676V406.174H345.197H345.213C345.826 406.174 346.414 405.93 346.852 405.498C347.291 405.063 347.537 404.469 347.537 403.848V345.02C347.543 344.4 347.303 343.805 346.865 343.363C346.428 342.924 345.834 342.676 345.217 342.676H309.707Z" fill="white"/>
</mask>
<g mask="url(#mask45_67_35288)">
<path fill-rule="evenodd" clip-rule="evenodd" d="M289.766 415.938H357.303V332.91H289.766V415.938Z" fill="white"/>
</g>
<mask id="mask46_67_35288" style="mask-type:alpha" maskUnits="userSpaceOnUse" x="309" y="340" width="41" height="69">
<path fill-rule="evenodd" clip-rule="evenodd" d="M309.707 340.643V344.707H345.197C345.389 344.707 345.547 344.863 345.547 345.059V403.867C345.547 404.062 345.389 404.219 345.197 404.219H309.707V408.125H345.197C346.344 408.129 347.447 407.678 348.26 406.867C349.074 406.057 349.531 404.957 349.531 403.809V344.98C349.521 342.598 347.598 340.666 345.217 340.643H309.707Z" fill="white"/>
</mask>
<g mask="url(#mask46_67_35288)">
<path fill-rule="evenodd" clip-rule="evenodd" d="M287.773 417.891H359.297V330.879H287.773V417.891Z" fill="#5E63B5"/>
</g>
<mask id="mask47_67_35288" style="mask-type:alpha" maskUnits="userSpaceOnUse" x="309" y="383" width="32" height="4">
<path fill-rule="evenodd" clip-rule="evenodd" d="M309.707 383.086V386.992H338.379C339.457 386.992 340.332 386.117 340.332 385.039C340.332 383.959 339.457 383.086 338.379 383.086H309.707Z" fill="white"/>
</mask>
<g mask="url(#mask47_67_35288)">
<path fill-rule="evenodd" clip-rule="evenodd" d="M297.656 396.758H350.1V373.32H297.656V396.758Z" fill="#ABD4F0"/>
</g>
<mask id="mask48_67_35288" style="mask-type:alpha" maskUnits="userSpaceOnUse" x="309" y="391" width="32" height="5">
<path fill-rule="evenodd" clip-rule="evenodd" d="M309.707 391.992V395.898H338.359C339.438 395.898 340.312 395.023 340.312 393.945C340.312 392.867 339.438 391.992 338.359 391.992H309.707Z" fill="white"/>
</mask>
<g mask="url(#mask48_67_35288)">
<path fill-rule="evenodd" clip-rule="evenodd" d="M297.617 405.664H350.078V382.227H297.617V405.664Z" fill="#ABD4F0"/>
</g>
<mask id="mask49_67_35288" style="mask-type:alpha" maskUnits="userSpaceOnUse" x="311" y="353" width="22" height="21">
<path fill-rule="evenodd" clip-rule="evenodd" d="M312.422 359.66C310.838 363.469 311.705 367.855 314.619 370.775C317.533 373.697 321.922 374.572 325.734 372.996C329.545 371.418 332.033 367.699 332.033 363.574C332.033 357.951 327.478 353.389 321.855 353.379C321.85 353.379 321.846 353.379 321.838 353.379C317.721 353.379 314.006 355.855 312.422 359.66Z" fill="white"/>
</mask>
<g mask="url(#mask49_67_35288)">
<path fill-rule="evenodd" clip-rule="evenodd" d="M301.875 383.535H341.797V343.613H301.875V383.535Z" fill="#E0F2FF"/>
</g>
<mask id="mask50_67_35288" style="mask-type:alpha" maskUnits="userSpaceOnUse" x="313" y="353" width="21" height="21">
<path fill-rule="evenodd" clip-rule="evenodd" d="M313.592 363.49C313.59 369.117 318.146 373.686 323.775 373.689C329.404 373.699 333.973 369.145 333.984 363.514C333.984 357.883 329.422 353.313 323.789 353.299C318.162 353.299 313.596 357.861 313.592 363.49Z" fill="white"/>
</mask>
<g mask="url(#mask50_67_35288)">
<path fill-rule="evenodd" clip-rule="evenodd" d="M303.828 383.457H343.75V343.535H303.828V383.457Z" fill="white"/>
</g>
<mask id="mask51_67_35288" style="mask-type:alpha" maskUnits="userSpaceOnUse" x="311" y="351" width="25" height="25">
<path fill-rule="evenodd" clip-rule="evenodd" d="M311.563 363.475C311.553 370.207 317 375.674 323.73 375.684C330.457 375.684 335.918 370.242 335.938 363.514H333.984H332.033C332.02 368.043 328.342 371.705 323.814 371.699C319.287 371.691 315.621 368.018 315.625 363.49C315.629 358.961 319.301 355.293 323.828 355.293C328.361 355.303 332.033 358.982 332.033 363.514H335.938C335.947 356.783 330.5 351.32 323.77 351.309C323.762 351.309 323.756 351.309 323.75 351.309C317.027 351.307 311.572 356.752 311.563 363.475Z" fill="white"/>
</mask>
<g mask="url(#mask51_67_35288)">
<path fill-rule="evenodd" clip-rule="evenodd" d="M301.797 385.449H345.703V341.543H301.797V385.449Z" fill="#ABD4F0"/>
</g>
<mask id="mask52_67_35288" style="mask-type:alpha" maskUnits="userSpaceOnUse" x="318" y="358" width="11" height="11">
<path fill-rule="evenodd" clip-rule="evenodd" d="M325.076 361.504C324.916 362.633 324.588 363.732 324.102 364.766C322.961 364.68 321.84 364.418 320.781 363.984C319.889 363.582 319.043 363.086 318.262 362.5V364.57L318.496 365.332C318.617 365.709 318.775 366.076 318.965 366.426V366.699L319.063 366.816L319.18 366.973L319.318 367.129H319.434C321.387 367.617 323.086 366.836 325.293 368.457L326.369 368.533C326.203 365.93 327.689 364.809 328.184 362.912V362.695C328.225 362.076 328.037 361.465 327.654 360.977L327.559 360.82L327.342 360.547C326.658 359.82 325.898 359.164 325.076 358.592C325.176 359.561 325.176 360.537 325.076 361.504ZM326.389 368.77V368.535L326.369 368.533C326.373 368.611 326.381 368.689 326.389 368.77Z" fill="white"/>
</mask>
<g mask="url(#mask52_67_35288)">
<path fill-rule="evenodd" clip-rule="evenodd" d="M308.496 378.535H337.955V348.828H308.496V378.535Z" fill="#4DA8E0"/>
</g>
<mask id="mask53_67_35288" style="mask-type:alpha" maskUnits="userSpaceOnUse" x="370" y="342" width="49" height="65">
<path fill-rule="evenodd" clip-rule="evenodd" d="M373.264 342.676C372.643 342.676 372.047 342.924 371.611 343.363C371.174 343.805 370.932 344.4 370.938 345.02V403.848C370.938 405.133 371.979 406.174 373.264 406.174H416.582C416.588 406.174 416.594 406.174 416.6 406.174C417.213 406.172 417.801 405.93 418.236 405.498C418.678 405.063 418.926 404.469 418.926 403.848V345.02C418.93 344.4 418.69 343.805 418.252 343.363C417.817 342.924 417.221 342.676 416.6 342.676H373.264Z" fill="white"/>
</mask>
<g mask="url(#mask53_67_35288)">
<path fill-rule="evenodd" clip-rule="evenodd" d="M361.172 415.938H428.691V332.91H361.172V415.938Z" fill="white"/>
</g>
<mask id="mask54_67_35288" style="mask-type:alpha" maskUnits="userSpaceOnUse" x="368" y="340" width="53" height="69">
<path fill-rule="evenodd" clip-rule="evenodd" d="M373.281 340.643C370.893 340.656 368.955 342.592 368.945 344.98V403.789C368.941 404.937 369.393 406.041 370.203 406.853C371.012 407.668 372.113 408.125 373.264 408.125H416.6C418.984 408.115 420.916 406.189 420.938 403.809V344.98C420.926 342.598 419.006 340.666 416.619 340.643H373.281ZM372.93 403.887V345.059C372.93 344.863 373.088 344.707 373.281 344.707H416.619C416.809 344.719 416.951 344.871 416.951 345.059V403.867C416.951 404.062 416.795 404.219 416.6 404.219H373.264C373.078 404.219 372.93 404.07 372.93 403.887Z" fill="white"/>
</mask>
<g mask="url(#mask54_67_35288)">
<path fill-rule="evenodd" clip-rule="evenodd" d="M359.18 417.891H430.703V330.879H359.18V417.891Z" fill="#5E63B5"/>
</g>
<mask id="mask55_67_35288" style="mask-type:alpha" maskUnits="userSpaceOnUse" x="378" y="383" width="34" height="13">
<path fill-rule="evenodd" clip-rule="evenodd" d="M380.879 383.086C379.801 383.086 378.926 383.959 378.926 385.039C378.926 386.117 379.801 386.992 380.879 386.992H409.885C410.961 386.992 411.838 386.117 411.838 385.039C411.838 383.959 410.961 383.086 409.885 383.086H380.879ZM380.859 386.992H380.879H380.859ZM380.879 391.992C379.801 391.992 378.926 392.867 378.926 393.945C378.926 395.023 379.801 395.898 380.879 395.898H409.885C410.961 395.898 411.838 395.023 411.838 393.945C411.838 392.867 410.961 391.992 409.885 391.992H380.879Z" fill="white"/>
</mask>
<g mask="url(#mask55_67_35288)">
<path fill-rule="evenodd" clip-rule="evenodd" d="M369.16 405.664H421.604V373.32H369.16V405.664Z" fill="#ABD4F0"/>
</g>
<mask id="mask56_67_35288" style="mask-type:alpha" maskUnits="userSpaceOnUse" x="382" y="353" width="22" height="21">
<path fill-rule="evenodd" clip-rule="evenodd" d="M382.969 363.574C382.969 369.205 387.533 373.77 393.164 373.77C398.793 373.77 403.359 369.205 403.359 363.574C403.348 357.947 398.791 353.389 393.164 353.379C387.533 353.379 382.969 357.943 382.969 363.574Z" fill="white"/>
</mask>
<g mask="url(#mask56_67_35288)">
<path fill-rule="evenodd" clip-rule="evenodd" d="M373.203 383.535H413.123V343.613H373.203V383.535Z" fill="#E0F2FF"/>
</g>
<mask id="mask57_67_35288" style="mask-type:alpha" maskUnits="userSpaceOnUse" x="385" y="353" width="21" height="21">
<path fill-rule="evenodd" clip-rule="evenodd" d="M385.059 363.475C385.049 369.107 389.602 373.68 395.236 373.689C400.867 373.703 405.439 369.146 405.449 363.514C405.455 360.811 404.385 358.217 402.479 356.301C400.568 354.385 397.979 353.307 395.273 353.299C395.266 353.299 395.26 353.299 395.254 353.299C389.633 353.299 385.068 357.852 385.059 363.475Z" fill="white"/>
</mask>
<g mask="url(#mask57_67_35288)">
<path fill-rule="evenodd" clip-rule="evenodd" d="M375.293 383.457H415.215V343.535H375.293V383.457Z" fill="white"/>
</g>
<mask id="mask58_67_35288" style="mask-type:alpha" maskUnits="userSpaceOnUse" x="383" y="351" width="25" height="25">
<path fill-rule="evenodd" clip-rule="evenodd" d="M383.027 363.613C383.027 370.346 388.482 375.799 395.215 375.799C401.902 375.789 407.328 370.402 407.4 363.73H405.605H407.4H405.605H407.4H407.402V363.613V363.498L407.422 363.496C407.418 363.436 407.41 363.377 407.402 363.316V363.008L407.387 362.984C407.059 356.545 401.734 351.426 395.215 351.426C388.482 351.426 383.027 356.883 383.027 363.613ZM389.453 369.324C387.104 366.967 386.404 363.428 387.684 360.355C388.963 357.283 391.967 355.283 395.293 355.293C399.822 355.314 403.484 358.986 403.496 363.514C403.482 363.637 403.479 363.756 403.488 363.877C403.348 367.061 401.379 369.889 398.414 371.113C397.398 371.533 396.33 371.738 395.273 371.738C393.131 371.738 391.025 370.9 389.453 369.324ZM407.107 362.52L407.096 362.529V362.527L407.107 362.52ZM407.4 363.73H407.402H407.4ZM407.4 363.73H407.402H407.4Z" fill="white"/>
</mask>
<g mask="url(#mask58_67_35288)">
<path fill-rule="evenodd" clip-rule="evenodd" d="M373.262 385.566H417.186V341.66H373.262V385.566Z" fill="#ABD4F0"/>
</g>
<mask id="mask59_67_35288" style="mask-type:alpha" maskUnits="userSpaceOnUse" x="389" y="358" width="11" height="11">
<path fill-rule="evenodd" clip-rule="evenodd" d="M396.68 361.504C396.527 362.635 396.197 363.736 395.701 364.766C394.568 364.682 393.453 364.418 392.402 363.984C391.504 363.584 390.654 363.086 389.865 362.5V364.354C389.865 364.609 390 364.863 390.076 365.117C390.215 365.494 390.377 365.857 390.566 366.211V366.758L390.703 366.914H390.82C392.676 367.402 394.49 366.621 396.68 368.242L397.793 368.535L397.891 368.77C397.598 365.996 399.18 364.863 399.687 362.912V362.695C399.721 362.078 399.533 361.471 399.162 360.977V360.82L398.965 360.547C398.273 359.818 397.508 359.164 396.68 358.592C396.797 359.561 396.797 360.537 396.68 361.504Z" fill="white"/>
</mask>
<g mask="url(#mask59_67_35288)">
<path fill-rule="evenodd" clip-rule="evenodd" d="M380.098 378.535H409.455V348.828H380.098V378.535Z" fill="#4DA8E0"/>
</g>
<mask id="mask60_67_35288" style="mask-type:alpha" maskUnits="userSpaceOnUse" x="438" y="342" width="49" height="65">
<path fill-rule="evenodd" clip-rule="evenodd" d="M440.449 342.676C439.154 342.676 438.105 343.725 438.105 345.02V403.848C438.115 405.135 439.162 406.174 440.449 406.174H483.789C485.072 406.174 486.113 405.133 486.113 403.848V345.02C486.119 344.4 485.875 343.805 485.439 343.363C485.002 342.924 484.41 342.676 483.789 342.676H440.449Z" fill="white"/>
</mask>
<g mask="url(#mask60_67_35288)">
<path fill-rule="evenodd" clip-rule="evenodd" d="M428.34 415.938H495.879V332.91H428.34V415.938Z" fill="white"/>
</g>
<mask id="mask61_67_35288" style="mask-type:alpha" maskUnits="userSpaceOnUse" x="436" y="340" width="53" height="69">
<path fill-rule="evenodd" clip-rule="evenodd" d="M440.449 340.643C438.055 340.643 436.113 342.586 436.113 344.98V403.789C436.107 404.941 436.565 406.047 437.377 406.859C438.191 407.676 439.297 408.129 440.449 408.125H483.789C486.172 408.125 488.107 406.191 488.107 403.809V344.98C488.094 342.598 486.172 340.666 483.789 340.643H440.449ZM440.098 403.887V345.059C440.098 344.863 440.254 344.707 440.449 344.707H483.789C483.975 344.719 484.121 344.871 484.121 345.059V403.867C484.121 404.055 483.975 404.207 483.789 404.219H440.449C440.262 404.219 440.107 404.072 440.098 403.887Z" fill="white"/>
</mask>
<g mask="url(#mask61_67_35288)">
<path fill-rule="evenodd" clip-rule="evenodd" d="M426.348 417.891H497.871V330.879H426.348V417.891Z" fill="#5E63B5"/>
</g>
<mask id="mask62_67_35288" style="mask-type:alpha" maskUnits="userSpaceOnUse" x="445" y="383" width="34" height="13">
<path fill-rule="evenodd" clip-rule="evenodd" d="M447.93 383.086C446.852 383.086 445.977 383.959 445.977 385.039C445.977 386.117 446.852 386.992 447.93 386.992H447.949H476.953C478.031 386.992 478.906 386.117 478.906 385.039C478.906 383.959 478.031 383.086 476.953 383.086H447.93ZM447.949 391.992C446.871 391.992 445.994 392.867 445.994 393.945C445.994 395.023 446.871 395.898 447.949 395.898H476.953C478.031 395.898 478.906 395.023 478.906 393.945C478.906 392.867 478.031 391.992 476.953 391.992H447.949ZM447.93 395.898H447.949H447.93Z" fill="white"/>
</mask>
<g mask="url(#mask62_67_35288)">
<path fill-rule="evenodd" clip-rule="evenodd" d="M436.211 405.664H488.672V373.32H436.211V405.664Z" fill="#ABD4F0"/>
</g>
<mask id="mask63_67_35288" style="mask-type:alpha" maskUnits="userSpaceOnUse" x="450" y="353" width="21" height="21">
<path fill-rule="evenodd" clip-rule="evenodd" d="M450.918 359.66C449.332 363.469 450.201 367.855 453.115 370.775C456.029 373.697 460.418 374.572 464.231 372.996C468.041 371.418 470.529 367.699 470.529 363.574C470.529 357.951 465.977 353.389 460.354 353.379C460.346 353.379 460.342 353.379 460.336 353.379C456.217 353.379 452.502 355.855 450.918 359.66Z" fill="white"/>
</mask>
<g mask="url(#mask63_67_35288)">
<path fill-rule="evenodd" clip-rule="evenodd" d="M440.371 383.535H480.293V343.613H440.371V383.535Z" fill="#E0F2FF"/>
</g>
<mask id="mask64_67_35288" style="mask-type:alpha" maskUnits="userSpaceOnUse" x="452" y="353" width="21" height="21">
<path fill-rule="evenodd" clip-rule="evenodd" d="M452.266 363.49C452.262 369.117 456.818 373.686 462.447 373.689C468.076 373.699 472.645 369.145 472.658 363.514C472.658 357.883 468.094 353.313 462.463 353.299C456.834 353.299 452.268 357.861 452.266 363.49Z" fill="white"/>
</mask>
<g mask="url(#mask64_67_35288)">
<path fill-rule="evenodd" clip-rule="evenodd" d="M442.5 383.457H482.422V343.535H442.5V383.457Z" fill="white"/>
</g>
<mask id="mask65_67_35288" style="mask-type:alpha" maskUnits="userSpaceOnUse" x="450" y="351" width="25" height="25">
<path fill-rule="evenodd" clip-rule="evenodd" d="M450.254 363.6C450.246 370.328 455.693 375.789 462.422 375.799C465.674 375.797 468.789 374.494 471.076 372.184C473.309 369.93 474.572 366.896 474.609 363.73H472.832H474.609H472.832H474.609C474.609 363.73 474.609 363.73 474.609 363.729L474.629 363.73V363.613V363.498L474.646 363.496C474.643 363.443 474.635 363.389 474.627 363.336C474.623 363.197 474.617 363.059 474.609 362.922V362.891L474.607 362.887C474.232 356.498 468.932 351.43 462.447 351.426C455.719 351.422 450.262 356.871 450.254 363.6ZM462.486 371.699C457.959 371.691 454.293 368.018 454.297 363.49C454.301 358.961 457.973 355.293 462.5 355.293C464.678 355.293 466.77 356.16 468.309 357.703C469.846 359.244 470.709 361.336 470.703 363.514C470.689 363.631 470.688 363.746 470.693 363.863C470.502 368.225 466.904 371.699 462.5 371.699C462.496 371.699 462.49 371.699 462.486 371.699ZM474.609 363.73H474.629H474.609ZM474.609 363.73H474.629H474.609Z" fill="white"/>
</mask>
<g mask="url(#mask65_67_35288)">
<path fill-rule="evenodd" clip-rule="evenodd" d="M440.488 385.566H484.412V341.66H440.488V385.566Z" fill="#ABD4F0"/>
</g>
<mask id="mask66_67_35288" style="mask-type:alpha" maskUnits="userSpaceOnUse" x="456" y="358" width="11" height="11">
<path fill-rule="evenodd" clip-rule="evenodd" d="M463.652 361.582C463.492 362.713 463.162 363.811 462.674 364.844C461.541 364.762 460.426 364.496 459.375 364.063C458.477 363.662 457.627 363.164 456.836 362.578V364.59L457.068 365.352C457.191 365.729 457.348 366.096 457.539 366.445V366.836L457.658 366.992L457.793 367.148H458.008C459.863 367.637 461.66 366.854 463.869 368.477L464.961 368.533C464.797 365.93 466.283 364.809 466.777 362.912V362.771C466.801 362.154 466.609 361.545 466.23 361.055L466.135 360.898L465.918 360.625C465.232 359.896 464.475 359.24 463.652 358.672C463.76 359.639 463.76 360.615 463.652 361.582ZM464.98 368.77V368.535L464.961 368.533C464.967 368.611 464.973 368.689 464.98 368.77Z" fill="white"/>
</mask>
<g mask="url(#mask66_67_35288)">
<path fill-rule="evenodd" clip-rule="evenodd" d="M447.07 378.535H476.547V348.906H447.07V378.535Z" fill="#4DA8E0"/>
</g>
<mask id="mask67_67_35288" style="mask-type:alpha" maskUnits="userSpaceOnUse" x="139" y="182" width="155" height="50">
<path fill-rule="evenodd" clip-rule="evenodd" d="M175.996 182.266C174.918 182.266 174.043 183.141 174.043 184.219C174.043 185.297 174.918 186.172 175.996 186.172H291.758C292.836 186.172 293.711 185.297 293.711 184.219C293.711 183.141 292.836 182.266 291.758 182.266H175.996ZM230.061 197.09C228.979 197.09 228.105 197.963 228.105 199.043C228.105 200.121 228.979 200.996 230.061 200.996H268.381C269.457 200.996 270.332 200.121 270.332 199.043C270.332 197.963 269.457 197.09 268.381 197.09H230.061ZM157.949 197.188C156.869 197.188 155.996 198.062 155.996 199.141C155.996 200.219 156.869 201.094 157.949 201.094H185.764C186.84 201.094 187.717 200.219 187.717 199.141C187.717 198.062 186.84 197.188 185.764 197.188H157.949ZM223.084 214.023C222.008 214.023 221.131 214.898 221.131 215.977C221.131 217.055 222.008 217.93 223.084 217.93H279.824C280.902 217.93 281.777 217.055 281.777 215.977C281.777 214.898 280.902 214.023 279.824 214.023H223.084ZM141.348 227.695C140.27 227.695 139.395 228.568 139.395 229.648C139.395 230.727 140.27 231.602 141.348 231.602H175.996C177.074 231.602 177.949 230.727 177.949 229.648C177.949 228.568 177.074 227.695 175.996 227.695H141.348Z" fill="white"/>
</mask>
<g mask="url(#mask67_67_35288)">
<path fill-rule="evenodd" clip-rule="evenodd" d="M129.629 241.367H303.477V172.5H129.629V241.367Z" fill="#ABD4F0"/>
</g>
<mask id="mask68_67_35288" style="mask-type:alpha" maskUnits="userSpaceOnUse" x="34" y="418" width="439" height="5">
<path fill-rule="evenodd" clip-rule="evenodd" d="M36.3672 418.926C35.2891 418.926 34.416 419.799 34.416 420.879C34.416 421.957 35.2891 422.832 36.3672 422.832H470.096C471.178 422.832 472.051 421.957 472.051 420.879C472.051 419.799 471.178 418.926 470.096 418.926H36.3672Z" fill="white"/>
</mask>
<g mask="url(#mask68_67_35288)">
<path fill-rule="evenodd" clip-rule="evenodd" d="M24.6484 432.598H481.814V409.16H24.6484V432.598Z" fill="#5E63B5"/>
</g>
</svg>
