<svg width="200" height="34" viewBox="0 0 200 34" fill="none" xmlns="http://www.w3.org/2000/svg">
<path fill-rule="evenodd" clip-rule="evenodd" d="M32.2528 15.6689C32.2528 15.5889 32.2795 15.4824 32.3062 15.3758C32.3329 15.2425 32.3863 15.1093 32.3863 14.976C32.68 13.3772 32.0926 11.4585 30.8911 9.45996C30.7576 9.27342 30.6508 9.11354 30.544 8.927C30.3571 8.63388 30.1435 8.3141 29.9032 7.99433C29.8765 7.96768 29.8498 7.94104 29.8231 7.88774C29.7697 7.8078 29.6896 7.72785 29.6362 7.64791C29.5828 7.56797 29.5027 7.46138 29.4493 7.38143C29.3959 7.30149 29.3158 7.22155 29.2624 7.1416C29.1823 7.06166 29.1289 6.95507 29.0489 6.87513C28.9955 6.82183 28.9421 6.74189 28.8887 6.68859C26.993 4.34359 24.51 2.02523 21.8934 0C22.1337 3.30432 22.0803 6.6353 21.6798 9.24678C21.1993 12.4179 19.9177 16.0953 18.2356 19.3996C14.5244 18.9732 10.7865 17.9872 7.8496 16.6282C5.41996 15.4824 2.64323 13.7236 0 11.6717C0.0266993 11.9382 0.0533979 12.2313 0.0800972 12.4978C0.0800972 12.5777 0.106796 12.6577 0.106796 12.7376C0.133496 12.9242 0.133495 13.1374 0.160194 13.3239C0.160194 13.4038 0.186895 13.5104 0.186895 13.5904C0.213595 13.7769 0.240293 13.9901 0.266993 14.1766C0.266993 14.2566 0.293692 14.3365 0.293692 14.4164C0.320391 14.6563 0.347091 14.9228 0.40049 15.1626C0.453888 15.5357 0.480587 15.8021 0.533985 16.0953C0.587384 16.415 0.614084 16.6549 0.667482 16.8947C0.667482 16.948 0.694181 17.0013 0.694181 17.0546C0.74758 17.2944 0.77428 17.5076 0.827679 17.7474C0.827679 17.8007 0.854378 17.8274 0.854378 17.8807C0.907776 18.1471 0.961174 18.4136 1.01457 18.6534C1.20147 19.4795 1.41506 20.279 1.65536 21.0517C2.05585 22.3575 2.50973 23.5566 3.04372 24.5959C3.12382 24.7558 3.20392 24.889 3.28401 25.0489C3.36411 25.2088 3.41751 25.342 3.49761 25.4753C3.57771 25.6352 3.65781 25.7684 3.7379 25.9016C3.8714 26.1148 3.9782 26.2747 4.08499 26.4346C4.13839 26.5145 4.13839 26.5412 4.16509 26.5412C4.29859 26.7011 4.43209 26.8876 4.56558 27.0475C4.67238 27.1541 4.75248 27.2607 4.85927 27.3673C4.91267 27.4206 4.93937 27.4472 4.99277 27.5005C5.04617 27.5538 5.12627 27.6071 5.17967 27.687C5.23307 27.7403 5.25976 27.767 5.31316 27.8203C5.36656 27.8736 5.41996 27.9269 5.50006 27.9802C5.55346 28.0068 5.60686 28.0601 5.63355 28.0868C5.68695 28.14 5.76705 28.1933 5.82045 28.22C5.87385 28.2466 5.92725 28.2733 5.95395 28.3266C6.00734 28.3799 6.08744 28.4065 6.16754 28.4598C6.22094 28.4865 6.27434 28.5131 6.30104 28.5398C6.38113 28.5664 6.46123 28.6197 6.54133 28.6464C6.56803 28.673 6.62143 28.673 6.64813 28.6996C6.75493 28.7529 6.88842 28.8062 6.99522 28.8329C7.07532 28.8595 7.15541 28.8862 7.20881 28.9128C13.0293 30.6449 18.9565 28.4065 25.9517 33.7627C25.3376 24.9423 30.4372 21.4515 32.2528 15.6689Z" fill="#4CA8E0"/>
<path d="M52.903 11.9778C52.834 12.0928 52.7612 12.181 52.6845 12.2423C52.6078 12.296 52.5082 12.3228 52.3855 12.3228C52.2552 12.3228 52.1018 12.2577 51.9255 12.1273C51.7568 11.997 51.5383 11.8552 51.27 11.7018C51.0093 11.5408 50.6912 11.3952 50.3155 11.2648C49.9475 11.1345 49.499 11.0693 48.97 11.0693C48.4717 11.0693 48.0308 11.1383 47.6475 11.2763C47.2642 11.4067 46.9422 11.5868 46.6815 11.8168C46.4285 12.0468 46.2368 12.319 46.1065 12.6333C45.9762 12.94 45.911 13.2735 45.911 13.6338C45.911 14.0938 46.0222 14.4772 46.2445 14.7838C46.4745 15.0828 46.7735 15.3397 47.1415 15.5543C47.5172 15.769 47.9388 15.9568 48.4065 16.1178C48.8818 16.2712 49.3648 16.4322 49.8555 16.6008C50.3538 16.7695 50.8368 16.9612 51.3045 17.1758C51.7798 17.3828 52.2015 17.6473 52.5695 17.9693C52.9452 18.2913 53.2442 18.6862 53.4665 19.1538C53.6965 19.6215 53.8115 20.1965 53.8115 20.8788C53.8115 21.5995 53.6888 22.278 53.4435 22.9143C53.1982 23.543 52.8378 24.0912 52.3625 24.5588C51.8948 25.0265 51.316 25.3945 50.626 25.6628C49.9437 25.9312 49.1655 26.0653 48.2915 26.0653C47.2258 26.0653 46.2522 25.8737 45.3705 25.4903C44.4965 25.0993 43.749 24.5742 43.128 23.9148L43.772 22.8568C43.8333 22.7725 43.9062 22.7035 43.9905 22.6498C44.0825 22.5885 44.1822 22.5578 44.2895 22.5578C44.4505 22.5578 44.6345 22.646 44.8415 22.8223C45.0485 22.991 45.3053 23.1788 45.612 23.3858C45.9263 23.5928 46.302 23.7845 46.739 23.9608C47.1837 24.1295 47.7242 24.2138 48.3605 24.2138C48.8895 24.2138 49.361 24.141 49.775 23.9953C50.189 23.8497 50.5378 23.6465 50.8215 23.3858C51.1128 23.1175 51.3352 22.7993 51.4885 22.4313C51.6418 22.0633 51.7185 21.6532 51.7185 21.2008C51.7185 20.7025 51.6035 20.2962 51.3735 19.9818C51.1512 19.6598 50.856 19.3915 50.488 19.1768C50.12 18.9622 49.6983 18.782 49.223 18.6363C48.7553 18.483 48.2723 18.3297 47.774 18.1763C47.2833 18.0153 46.8003 17.8313 46.325 17.6243C45.8573 17.4173 45.4395 17.149 45.0715 16.8193C44.7035 16.4897 44.4045 16.0795 44.1745 15.5888C43.9522 15.0905 43.841 14.4772 43.841 13.7488C43.841 13.1662 43.9522 12.6027 44.1745 12.0583C44.4045 11.514 44.7342 11.031 45.1635 10.6093C45.5928 10.1877 46.1218 9.85035 46.7505 9.59735C47.3868 9.34435 48.1152 9.21785 48.9355 9.21785C49.8555 9.21785 50.695 9.36351 51.454 9.65485C52.213 9.94618 52.8762 10.3678 53.4435 10.9198L52.903 11.9778ZM58.1073 14.2318V21.6608C58.1073 22.5425 58.3105 23.2248 58.7168 23.7078C59.1231 24.1908 59.7365 24.4323 60.5568 24.4323C61.1548 24.4323 61.7183 24.2905 62.2473 24.0068C62.7763 23.7232 63.2631 23.3283 63.7078 22.8223V14.2318H65.7548V25.8813H64.5358C64.2445 25.8813 64.0605 25.7395 63.9838 25.4558L63.8228 24.2023C63.3168 24.762 62.7495 25.2143 62.1208 25.5593C61.4921 25.8967 60.7715 26.0653 59.9588 26.0653C59.3225 26.0653 58.759 25.9618 58.2683 25.7548C57.7853 25.5402 57.379 25.2412 57.0493 24.8578C56.7196 24.4745 56.4705 24.0107 56.3018 23.4663C56.1408 22.922 56.0603 22.3202 56.0603 21.6608V14.2318H58.1073ZM69.1166 29.8258V14.2318H70.3356C70.6269 14.2318 70.8109 14.3737 70.8876 14.6573L71.0601 16.0373C71.5584 15.4317 72.1257 14.9448 72.7621 14.5768C73.4061 14.2088 74.1459 14.0248 74.9816 14.0248C75.6486 14.0248 76.2542 14.1552 76.7986 14.4158C77.3429 14.6688 77.8067 15.0483 78.1901 15.5543C78.5734 16.0527 78.8686 16.6737 79.0756 17.4173C79.2826 18.161 79.3861 19.0158 79.3861 19.9818C79.3861 20.8405 79.2711 21.6417 79.0411 22.3853C78.8111 23.1213 78.4814 23.7615 78.0521 24.3058C77.6227 24.8425 77.0937 25.268 76.4651 25.5823C75.8441 25.889 75.1426 26.0423 74.3606 26.0423C73.6399 26.0423 73.0227 25.9235 72.5091 25.6858C72.0031 25.4482 71.5546 25.1108 71.1636 24.6738V29.8258H69.1166ZM74.3031 15.6808C73.6361 15.6808 73.0496 15.8342 72.5436 16.1408C72.0452 16.4475 71.5852 16.8807 71.1636 17.4403V23.0753C71.5392 23.5813 71.9494 23.9378 72.3941 24.1448C72.8464 24.3518 73.3486 24.4553 73.9006 24.4553C74.9816 24.4553 75.8134 24.0682 76.3961 23.2938C76.9787 22.5195 77.2701 21.4155 77.2701 19.9818C77.2701 19.2228 77.2011 18.5712 77.0631 18.0268C76.9327 17.4825 76.7411 17.0378 76.4881 16.6928C76.2351 16.3402 75.9246 16.0833 75.5566 15.9223C75.1886 15.7613 74.7707 15.6808 74.3031 15.6808ZM81.807 29.8258V14.2318H83.026C83.3173 14.2318 83.5013 14.3737 83.578 14.6573L83.7505 16.0373C84.2488 15.4317 84.8162 14.9448 85.4525 14.5768C86.0965 14.2088 86.8363 14.0248 87.672 14.0248C88.339 14.0248 88.9447 14.1552 89.489 14.4158C90.0333 14.6688 90.4972 15.0483 90.8805 15.5543C91.2638 16.0527 91.559 16.6737 91.766 17.4173C91.973 18.161 92.0765 19.0158 92.0765 19.9818C92.0765 20.8405 91.9615 21.6417 91.7315 22.3853C91.5015 23.1213 91.1718 23.7615 90.7425 24.3058C90.3132 24.8425 89.7842 25.268 89.1555 25.5823C88.5345 25.889 87.833 26.0423 87.051 26.0423C86.3303 26.0423 85.7132 25.9235 85.1995 25.6858C84.6935 25.4482 84.245 25.1108 83.854 24.6738V29.8258H81.807ZM86.9935 15.6808C86.3265 15.6808 85.74 15.8342 85.234 16.1408C84.7357 16.4475 84.2757 16.8807 83.854 17.4403V23.0753C84.2297 23.5813 84.6398 23.9378 85.0845 24.1448C85.5368 24.3518 86.039 24.4553 86.591 24.4553C87.672 24.4553 88.5038 24.0682 89.0865 23.2938C89.6692 22.5195 89.9605 21.4155 89.9605 19.9818C89.9605 19.2228 89.8915 18.5712 89.7535 18.0268C89.6232 17.4825 89.4315 17.0378 89.1785 16.6928C88.9255 16.3402 88.615 16.0833 88.247 15.9223C87.879 15.7613 87.4612 15.6808 86.9935 15.6808ZM96.7744 8.94185V25.8813H94.7274V8.94185H96.7744ZM102.659 14.2318V25.8813H100.612V14.2318H102.659ZM103.119 10.5748C103.119 10.7742 103.077 10.962 102.993 11.1383C102.916 11.307 102.809 11.4603 102.671 11.5983C102.54 11.7287 102.387 11.8322 102.211 11.9088C102.034 11.9855 101.847 12.0238 101.647 12.0238C101.448 12.0238 101.26 11.9855 101.084 11.9088C100.915 11.8322 100.762 11.7287 100.624 11.5983C100.493 11.4603 100.39 11.307 100.313 11.1383C100.237 10.962 100.198 10.7742 100.198 10.5748C100.198 10.3755 100.237 10.1877 100.313 10.0113C100.39 9.82735 100.493 9.67018 100.624 9.53985C100.762 9.40185 100.915 9.29451 101.084 9.21785C101.26 9.14118 101.448 9.10285 101.647 9.10285C101.847 9.10285 102.034 9.14118 102.211 9.21785C102.387 9.29451 102.54 9.40185 102.671 9.53985C102.809 9.67018 102.916 9.82735 102.993 10.0113C103.077 10.1877 103.119 10.3755 103.119 10.5748ZM110.878 14.0478C111.576 14.0478 112.22 14.1667 112.81 14.4043C113.401 14.6343 113.911 14.9717 114.34 15.4163C114.769 15.8533 115.103 16.3977 115.34 17.0493C115.586 17.6933 115.708 18.4293 115.708 19.2573C115.708 19.5793 115.674 19.794 115.605 19.9013C115.536 20.0087 115.406 20.0623 115.214 20.0623H107.463C107.478 20.7983 107.578 21.4385 107.762 21.9828C107.946 22.5272 108.199 22.9833 108.521 23.3513C108.843 23.7117 109.226 23.9838 109.671 24.1678C110.116 24.3442 110.614 24.4323 111.166 24.4323C111.68 24.4323 112.12 24.3748 112.488 24.2598C112.864 24.1372 113.186 24.0068 113.454 23.8688C113.723 23.7308 113.945 23.6043 114.121 23.4893C114.305 23.3667 114.463 23.3053 114.593 23.3053C114.762 23.3053 114.892 23.3705 114.984 23.5008L115.559 24.2483C115.306 24.555 115.003 24.8233 114.65 25.0533C114.298 25.2757 113.918 25.4597 113.512 25.6053C113.113 25.751 112.699 25.8583 112.27 25.9273C111.841 26.004 111.415 26.0423 110.993 26.0423C110.188 26.0423 109.445 25.9082 108.762 25.6398C108.088 25.3638 107.501 24.9652 107.003 24.4438C106.512 23.9148 106.129 23.2632 105.853 22.4888C105.577 21.7145 105.439 20.8252 105.439 19.8208C105.439 19.0082 105.562 18.2492 105.807 17.5438C106.06 16.8385 106.42 16.229 106.888 15.7153C107.356 15.194 107.927 14.7877 108.601 14.4963C109.276 14.1973 110.035 14.0478 110.878 14.0478ZM110.924 15.5543C109.935 15.5543 109.157 15.8418 108.59 16.4168C108.023 16.9842 107.67 17.7738 107.532 18.7858H113.868C113.868 18.3105 113.803 17.8773 113.673 17.4863C113.543 17.0877 113.351 16.7465 113.098 16.4628C112.845 16.1715 112.534 15.9492 112.166 15.7958C111.806 15.6348 111.392 15.5543 110.924 15.5543ZM118.328 25.8813V14.2318H119.501C119.724 14.2318 119.877 14.274 119.961 14.3583C120.046 14.4427 120.103 14.5883 120.134 14.7953L120.272 16.6123C120.671 15.7997 121.161 15.1672 121.744 14.7148C122.334 14.2548 123.024 14.0248 123.814 14.0248C124.136 14.0248 124.427 14.0632 124.688 14.1398C124.949 14.2088 125.19 14.3085 125.412 14.4388L125.148 15.9683C125.094 16.16 124.975 16.2558 124.791 16.2558C124.684 16.2558 124.519 16.2213 124.297 16.1523C124.075 16.0757 123.764 16.0373 123.365 16.0373C122.652 16.0373 122.054 16.2443 121.571 16.6583C121.096 17.0723 120.697 17.6742 120.375 18.4638V25.8813H118.328ZM134.824 19.7173V25.8813H132.604V9.40185H137.469C138.511 9.40185 139.416 9.52451 140.183 9.76985C140.957 10.0075 141.597 10.3487 142.103 10.7933C142.609 11.238 142.985 11.7747 143.23 12.4033C143.483 13.032 143.61 13.7335 143.61 14.5078C143.61 15.2745 143.475 15.976 143.207 16.6123C142.939 17.2487 142.544 17.7968 142.023 18.2568C141.509 18.7168 140.869 19.0772 140.102 19.3378C139.335 19.5908 138.458 19.7173 137.469 19.7173H134.824ZM134.824 17.9463H137.469C138.105 17.9463 138.665 17.862 139.148 17.6933C139.638 17.5247 140.048 17.2908 140.378 16.9918C140.708 16.6852 140.957 16.321 141.126 15.8993C141.294 15.4777 141.379 15.0138 141.379 14.5078C141.379 13.4575 141.053 12.6372 140.401 12.0468C139.757 11.4565 138.78 11.1613 137.469 11.1613H134.824V17.9463ZM150.491 14.0478C151.342 14.0478 152.108 14.1897 152.791 14.4733C153.481 14.757 154.063 15.1595 154.539 15.6808C155.022 16.2022 155.39 16.8347 155.643 17.5783C155.903 18.3143 156.034 19.1385 156.034 20.0508C156.034 20.9708 155.903 21.7988 155.643 22.5348C155.39 23.2708 155.022 23.8995 154.539 24.4208C154.063 24.9422 153.481 25.3447 152.791 25.6283C152.108 25.9043 151.342 26.0423 150.491 26.0423C149.64 26.0423 148.869 25.9043 148.179 25.6283C147.497 25.3447 146.914 24.9422 146.431 24.4208C145.948 23.8995 145.576 23.2708 145.316 22.5348C145.055 21.7988 144.925 20.9708 144.925 20.0508C144.925 19.1385 145.055 18.3143 145.316 17.5783C145.576 16.8347 145.948 16.2022 146.431 15.6808C146.914 15.1595 147.497 14.757 148.179 14.4733C148.869 14.1897 149.64 14.0478 150.491 14.0478ZM150.491 24.4438C151.641 24.4438 152.499 24.0605 153.067 23.2938C153.634 22.5195 153.918 21.4423 153.918 20.0623C153.918 18.6747 153.634 17.5937 153.067 16.8193C152.499 16.045 151.641 15.6578 150.491 15.6578C149.908 15.6578 149.402 15.7575 148.973 15.9568C148.543 16.1562 148.183 16.4437 147.892 16.8193C147.608 17.195 147.393 17.6588 147.248 18.2108C147.11 18.7552 147.041 19.3723 147.041 20.0623C147.041 20.7523 147.11 21.3695 147.248 21.9138C147.393 22.4582 147.608 22.9182 147.892 23.2938C148.183 23.6618 148.543 23.9455 148.973 24.1448C149.402 24.3442 149.908 24.4438 150.491 24.4438ZM158.556 25.8813V14.2318H159.729C159.951 14.2318 160.105 14.274 160.189 14.3583C160.273 14.4427 160.331 14.5883 160.362 14.7953L160.5 16.6123C160.898 15.7997 161.389 15.1672 161.972 14.7148C162.562 14.2548 163.252 14.0248 164.042 14.0248C164.364 14.0248 164.655 14.0632 164.916 14.1398C165.176 14.2088 165.418 14.3085 165.64 14.4388L165.376 15.9683C165.322 16.16 165.203 16.2558 165.019 16.2558C164.912 16.2558 164.747 16.2213 164.525 16.1523C164.302 16.0757 163.992 16.0373 163.593 16.0373C162.88 16.0373 162.282 16.2443 161.799 16.6583C161.324 17.0723 160.925 17.6742 160.603 18.4638V25.8813H158.556ZM171.363 26.0653C170.443 26.0653 169.734 25.8085 169.235 25.2948C168.745 24.7812 168.499 24.0413 168.499 23.0753V15.9453H167.096C166.974 15.9453 166.87 15.9108 166.786 15.8418C166.702 15.7652 166.659 15.6502 166.659 15.4968V14.6803L168.568 14.4388L169.04 10.8393C169.055 10.7243 169.105 10.6323 169.189 10.5633C169.274 10.4867 169.381 10.4483 169.511 10.4483H170.546V14.4618H173.881V15.9453H170.546V22.9373C170.546 23.428 170.665 23.7922 170.903 24.0298C171.141 24.2675 171.447 24.3863 171.823 24.3863C172.038 24.3863 172.222 24.3595 172.375 24.3058C172.536 24.2445 172.674 24.1793 172.789 24.1103C172.904 24.0413 173 23.98 173.076 23.9263C173.161 23.865 173.234 23.8343 173.295 23.8343C173.402 23.8343 173.498 23.8995 173.582 24.0298L174.18 25.0073C173.828 25.337 173.402 25.5977 172.904 25.7893C172.406 25.9733 171.892 26.0653 171.363 26.0653ZM184.968 25.8813H184.06C183.861 25.8813 183.7 25.8507 183.577 25.7893C183.454 25.728 183.374 25.5977 183.335 25.3983L183.105 24.3173C182.799 24.5933 182.5 24.8425 182.208 25.0648C181.917 25.2795 181.61 25.4635 181.288 25.6168C180.966 25.7625 180.621 25.8737 180.253 25.9503C179.893 26.027 179.491 26.0653 179.046 26.0653C178.594 26.0653 178.168 26.004 177.769 25.8813C177.378 25.751 177.037 25.5593 176.746 25.3063C176.455 25.0533 176.221 24.7352 176.044 24.3518C175.876 23.9608 175.791 23.5008 175.791 22.9718C175.791 22.5118 175.918 22.071 176.171 21.6493C176.424 21.22 176.83 20.8405 177.39 20.5108C177.957 20.1812 178.697 19.9128 179.609 19.7058C180.522 19.4912 181.637 19.3685 182.956 19.3378V18.4293C182.956 17.5247 182.76 16.8423 182.369 16.3823C181.986 15.9147 181.415 15.6808 180.656 15.6808C180.158 15.6808 179.736 15.746 179.391 15.8763C179.054 15.999 178.758 16.1408 178.505 16.3018C178.26 16.4552 178.045 16.597 177.861 16.7273C177.685 16.85 177.509 16.9113 177.332 16.9113C177.194 16.9113 177.072 16.8768 176.964 16.8078C176.865 16.7312 176.784 16.6392 176.723 16.5318L176.355 15.8763C176.999 15.2553 177.693 14.7915 178.436 14.4848C179.18 14.1782 180.004 14.0248 180.909 14.0248C181.561 14.0248 182.139 14.1322 182.645 14.3468C183.151 14.5615 183.577 14.8605 183.922 15.2438C184.267 15.6272 184.528 16.091 184.704 16.6353C184.88 17.1797 184.968 17.7777 184.968 18.4293V25.8813ZM179.655 24.6278C180.016 24.6278 180.345 24.5933 180.644 24.5243C180.943 24.4477 181.223 24.3442 181.484 24.2138C181.752 24.0758 182.005 23.911 182.243 23.7193C182.488 23.5277 182.726 23.3092 182.956 23.0638V20.6373C182.013 20.668 181.212 20.7447 180.552 20.8673C179.893 20.9823 179.356 21.1357 178.942 21.3273C178.528 21.519 178.226 21.7452 178.034 22.0058C177.85 22.2665 177.758 22.5578 177.758 22.8798C177.758 23.1865 177.808 23.451 177.907 23.6733C178.007 23.8957 178.141 24.0797 178.31 24.2253C178.479 24.3633 178.678 24.4668 178.908 24.5358C179.138 24.5972 179.387 24.6278 179.655 24.6278ZM190.347 8.94185V25.8813H188.3V8.94185H190.347Z" fill="#11324D"/>
</svg>
