<?xml version="1.0" encoding="UTF-8"?>
<svg width="24px" height="24px" viewBox="0 0 24 24" version="1.1" xmlns="http://www.w3.org/2000/svg" xmlns:xlink="http://www.w3.org/1999/xlink">
    <!-- Generator: Sketch 55.2 (78181) - https://sketchapp.com -->
    <title>Icons  / credit</title>
    <desc>Created with Sketch.</desc>
    <g id="Icons--/-credit" stroke="none" stroke-width="1" fill="none" fill-rule="evenodd">
        <path d="M12,5 C12,8.58375817 12,11.2715768 12,13.0634559 M6.98654049,18.9352466 C5.26814674,18.7108934 4,17.9294946 4,17 L4,5 M4,15 C4,15.9330431 5.27784803,16.7168575 7.00624107,16.9377917 M4,13 C4,13.938167 5.29192137,14.7254618 7.03475651,14.9413806 M4,11 C4,12.1045695 5.790861,13 8,13 L8,13 C10.209139,13 12,12.1045695 12,11 M4,9 C4,10.1045695 5.790861,11 8,11 L8,11 C10.209139,11 12,10.1045695 12,9 M4,7 C4,8.1045695 5.790861,9 8,9 L8,9 C10.209139,9 12,8.1045695 12,7 M8,7 C10.209139,7 12,6.1045695 12,5 C12,3.8954305 10.209139,3 8,3 C5.790861,3 4,3.8954305 4,5 C4,6.1045695 5.790861,7 8,7 Z M14.9726966,17.9334258 C15.300519,17.9768581 15.6448544,18 16,18 C18.209139,18 20,17.1045695 20,16 L20,10 M14.9682783,15.9328391 C15.2974247,15.9766497 15.6432586,16 16,16 C18.209139,16 20,15.1045695 20,14 M20,12 C20,13.1045695 18.209139,14 16,14 C15.4870415,14 14.7322151,13.9047077 14.2815441,13.8167433 M12.51129,13.1208845 C12.0605107,12.8497096 12,12.3598784 12,12 L12,10 M16,12 C18.209139,12 20,11.1045695 20,10 C20,8.8954305 18.209139,8 16,8 C13.790861,8 12,8.8954305 12,10 C12,11.1045695 13.790861,12 16,12 Z M15,15 L15,19 C15,20.1045695 13.209139,21 11,21 C8.790861,21 7,20.1045695 7,19 L7,15 M7,17 C7,18.1045695 8.790861,19 11,19 L11,19 C13.209139,19 15,18.1045695 15,17 M11,17 C13.209139,17 15,16.1045695 15,15 C15,13.8954305 13.209139,13 11,13 C8.790861,13 7,13.8954305 7,15 C7,16.1045695 8.790861,17 11,17 Z" id="Icon" stroke="#A1A9B7"></path>
    </g>
</svg>