<svg xmlns="http://www.w3.org/2000/svg" width="14" height="14" viewBox="0 0 14 14">
  <g fill="none" fill-rule="evenodd">
    <circle cx="7" cy="7" r="5.833" stroke="#67B373" stroke-linecap="round" stroke-linejoin="round"/>
    <path fill="#67B373" d="M8.20005841,5.56469298 L6.94275701,9.65762061 C6.87324732,9.89172266 6.83849299,10.0452299 6.83849299,10.1181469 C6.83849299,10.1603621 6.85689234,10.1996983 6.89369159,10.2361568 C6.93049084,10.2726153 6.96933391,10.2908443 7.01022196,10.2908443 C7.07973166,10.2908443 7.14924031,10.2620617 7.21875,10.2044956 C7.40274625,10.0624993 7.62353843,9.80537467 7.88113318,9.43311404 L8.08966121,9.54824561 C7.47225159,10.5575708 6.81600815,11.0622259 6.12091121,11.0622259 C5.85513886,11.0622259 5.64354635,10.9921882 5.48612734,10.8521107 C5.32870833,10.7120333 5.25,10.5345405 5.25,10.3196272 C5.25,10.1776309 5.28475433,9.99725987 5.35426402,9.77850877 L6.2067757,7.02686404 C6.28855181,6.76206008 6.32943925,6.56250067 6.32943925,6.42817982 C6.32943925,6.34374958 6.29059618,6.2689148 6.21290888,6.20367325 C6.13522157,6.13843169 6.02891423,6.1058114 5.89398364,6.1058114 C5.83265156,6.1058114 5.75905417,6.10773024 5.67318925,6.11156798 L5.75292056,5.88130482 L7.83206776,5.56469298 L8.20005841,5.56469298 Z M7.8198014,2.91666667 C8.07330734,2.91666667 8.28694422,2.99917681 8.46071846,3.16419956 C8.63449269,3.32922232 8.7213785,3.52878172 8.7213785,3.76288377 C8.7213785,3.99698582 8.63347051,4.19654523 8.45765187,4.36156798 C8.28183323,4.52659074 8.06921854,4.60910088 7.8198014,4.60910088 C7.57447307,4.60910088 7.36390275,4.52659074 7.18808411,4.36156798 C7.01226548,4.19654523 6.92435748,3.99698582 6.92435748,3.76288377 C6.92435748,3.52878172 7.01124329,3.32922232 7.18501752,3.16419956 C7.35879176,2.99917681 7.57038427,2.91666667 7.8198014,2.91666667 Z"/>
  </g>
</svg>
