<?xml version="1.0" encoding="UTF-8"?>
<svg width="256px" height="256px" viewBox="0 0 256 256" version="1.1" xmlns="http://www.w3.org/2000/svg" xmlns:xlink="http://www.w3.org/1999/xlink">
    <!-- Generator: Sketch Beta 47 (45392) - http://www.bohemiancoding.com/sketch -->
    <title>Channels</title>
    <desc>Created with Sketch Beta.</desc>
    <defs>
        <polygon id="path-1" points="9.19 0.418 9.19 2.418 0.2174 2.418 0.2174 0.418 9.19 0.418"></polygon>
        <polygon id="path-3" points="5.83111033e-16 2.418 5.83111033e-16 0.418 10.9727 0.418 10.9727 2.418"></polygon>
        <polygon id="path-5" points="0.221 46.36 86.221 46.36 86.221 0.121 0.221 0.121"></polygon>
        <polygon id="path-7" points="55.22 0.119238394 55.22 33.377 0.0416331139 33.377 0.0416331139 0.119238394 55.22 0.119238394"></polygon>
        <polygon id="path-9" points="39.7321134 24.377 0.62124928 24.377 0.62124928 0.595265576 39.7321134 0.595265576 39.7321134 24.377"></polygon>
        <polygon id="path-11" points="0.620769412 25.377 41.7289695 25.377 41.7289695 0.595031757 0.620769412 0.595031757 0.620769412 25.377"></polygon>
        <polygon id="path-13" points="11.7250345 12.377 0.5407 12.377 0.5407 0.613326582 11.7250345 0.613326582 11.7250345 12.377"></polygon>
        <polygon id="path-15" points="13.2252979 12.377 0.5352 12.377 0.5352 0.114181457 13.2252979 0.114181457"></polygon>
        <polygon id="path-17" points="25.1982 38.377 0.179372928 38.377 0.179372928 0.484638392 25.1982 0.484638392 25.1982 38.377"></polygon>
        <polygon id="path-19" points="27.0847 39.377 0.179792699 39.377 0.179792699 0.481477755 27.0847 0.481477755"></polygon>
        <polygon id="path-21" points="33.7804944 25.377 0.188016426 25.377 0.188016426 0.363563745 33.7804944 0.363563745 33.7804944 25.377"></polygon>
        <polygon id="path-23" points="0.688301569 26.377 35.2634964 26.377 35.2634964 0.861115742 0.688301569 0.861115742 0.688301569 26.377"></polygon>
    </defs>
    <g id="Illustrations" stroke="none" stroke-width="1" fill="none" fill-rule="evenodd">
        <g id="Channels">
            <g id="Page-1" transform="translate(2.000000, 9.000000)">
                <path d="M185.7528,129.8898 L223.1678,129.8898 L185.7528,129.8898 Z" id="Fill-1" fill="#FFFFFF"></path>
                <g id="Group-67" transform="translate(0.000000, 0.655000)">
                    <path d="M223.168,130.2344 L185.753,130.2344 C185.2,130.2344 184.753,129.7874 184.753,129.2344 C184.753,128.6814 185.2,128.2344 185.753,128.2344 L223.168,128.2344 C223.721,128.2344 224.168,128.6814 224.168,129.2344 C224.168,129.7874 223.721,130.2344 223.168,130.2344 Z" id="Fill-2" fill="#375D81"></path>
                    <path d="M21.3604,209.248 C21.3604,152.055 67.7244,105.69 124.9184,105.69 C182.1114,105.69 228.4754,152.055 228.4754,209.248 L21.3604,209.248 Z" id="Fill-4" fill="#E1F2FF"></path>
                    <path d="M209.1074,172.1602 C208.8314,172.1602 208.6074,171.9362 208.6074,171.6602 L208.6074,167.7232 C208.6074,167.4462 208.8314,167.2232 209.1074,167.2232 C209.3834,167.2232 209.6074,167.4462 209.6074,167.7232 L209.6074,171.6602 C209.6074,171.9362 209.3834,172.1602 209.1074,172.1602" id="Fill-6" fill="#375D81"></path>
                    <path d="M211.0762,170.1914 L207.1382,170.1914 C206.8622,170.1914 206.6392,169.9674 206.6392,169.6914 C206.6392,169.4154 206.8622,169.1914 207.1382,169.1914 L211.0762,169.1914 C211.3522,169.1914 211.5762,169.4154 211.5762,169.6914 C211.5762,169.9674 211.3522,170.1914 211.0762,170.1914" id="Fill-8" fill="#375D81"></path>
                    <path d="M243.2178,200.418 L250.1908,200.418" id="Fill-10" fill="#FFFFFF"></path>
                    <g id="Group-14" transform="translate(242.000000, 199.000000)">
                        <mask id="mask-2" fill="white">
                            <use xlink:href="#path-1"></use>
                        </mask>
                        <g id="Clip-13"></g>
                        <path d="M8.1904,2.418 L1.2174,2.418 C0.6654,2.418 0.2174,1.971 0.2174,1.418 C0.2174,0.865 0.6654,0.418 1.2174,0.418 L8.1904,0.418 C8.7434,0.418 9.1904,0.865 9.1904,1.418 C9.1904,1.971 8.7434,2.418 8.1904,2.418" id="Fill-12" fill="#375D81" mask="url(#mask-2)"></path>
                    </g>
                    <path d="M1,200.418 L9.973,200.418" id="Fill-15" fill="#FFFFFF"></path>
                    <g id="Group-19" transform="translate(0.000000, 199.000000)">
                        <mask id="mask-4" fill="white">
                            <use xlink:href="#path-3"></use>
                        </mask>
                        <g id="Clip-18"></g>
                        <path d="M9.9727,2.418 L0.9997,2.418 C0.4477,2.418 -0.0003,1.971 -0.0003,1.418 C-0.0003,0.865 0.4477,0.418 0.9997,0.418 L9.9727,0.418 C10.5257,0.418 10.9727,0.865 10.9727,1.418 C10.9727,1.971 10.5257,2.418 9.9727,2.418" id="Fill-17" fill="#375D81" mask="url(#mask-4)"></path>
                    </g>
                    <path d="M92.2305,209.5322 L159.4175,209.5322" id="Fill-20" fill="#FFFFFF"></path>
                    <path d="M159.417,210.5322 L92.23,210.5322 C91.678,210.5322 91.23,210.0852 91.23,209.5322 C91.23,208.9792 91.678,208.5322 92.23,208.5322 L159.417,208.5322 C159.97,208.5322 160.417,208.9792 160.417,209.5322 C160.417,210.0852 159.97,210.5322 159.417,210.5322" id="Fill-22" fill="#375D81"></path>
                    <path d="M168.0352,209.5322 L177.1772,209.5322" id="Fill-24" fill="#FFFFFF"></path>
                    <path d="M177.1768,210.5322 L168.0348,210.5322 C167.4828,210.5322 167.0348,210.0852 167.0348,209.5322 C167.0348,208.9792 167.4828,208.5322 168.0348,208.5322 L177.1768,208.5322 C177.7298,208.5322 178.1768,208.9792 178.1768,209.5322 C178.1768,210.0852 177.7298,210.5322 177.1768,210.5322" id="Fill-26" fill="#375D81"></path>
                    <path d="M84.3486,209.457 L79.3486,209.532" id="Fill-28" fill="#FFFFFF"></path>
                    <path d="M79.3486,210.5322 C78.8026,210.5322 78.3576,210.0952 78.3486,209.5472 C78.3406,208.9952 78.7816,208.5412 79.3336,208.5322 L84.3336,208.4572 C84.8486,208.4482 85.3386,208.8892 85.3486,209.4422 C85.3566,209.9942 84.9156,210.4482 84.3636,210.4572 L79.3636,210.5322 L79.3486,210.5322 Z" id="Fill-30" fill="#375D81"></path>
                    <path d="M208.2529,54.9189 C207.6999,54.9189 207.2529,54.4719 207.2529,53.9189 L207.2529,46.9189 C207.2529,46.3659 207.6999,45.9189 208.2529,45.9189 C208.8059,45.9189 209.2529,46.3659 209.2529,46.9189 L209.2529,53.9189 C209.2529,54.4719 208.8059,54.9189 208.2529,54.9189" id="Fill-32" fill="#375D81"></path>
                    <path d="M211.7529,51.4189 L204.7529,51.4189 C204.1999,51.4189 203.7529,50.9719 203.7529,50.4189 C203.7529,49.8659 204.1999,49.4189 204.7529,49.4189 L211.7529,49.4189 C212.3059,49.4189 212.7529,49.8659 212.7529,50.4189 C212.7529,50.9719 212.3059,51.4189 211.7529,51.4189" id="Fill-34" fill="#375D81"></path>
                    <path d="M33.6523,33.5635 C33.0993,33.5635 32.6523,33.1165 32.6523,32.5635 L32.6523,25.5635 C32.6523,25.0105 33.0993,24.5635 33.6523,24.5635 C34.2053,24.5635 34.6523,25.0105 34.6523,25.5635 L34.6523,32.5635 C34.6523,33.1165 34.2053,33.5635 33.6523,33.5635" id="Fill-36" fill="#375D81"></path>
                    <path d="M37.1523,30.0635 L30.1523,30.0635 C29.5993,30.0635 29.1523,29.6165 29.1523,29.0635 C29.1523,28.5105 29.5993,28.0635 30.1523,28.0635 L37.1523,28.0635 C37.7053,28.0635 38.1523,28.5105 38.1523,29.0635 C38.1523,29.6165 37.7053,30.0635 37.1523,30.0635" id="Fill-38" fill="#375D81"></path>
                    <path d="M172.7959,5.2822 C172.5199,5.2822 172.2959,5.0582 172.2959,4.7822 L172.2959,0.8452 C172.2959,0.5682 172.5199,0.3452 172.7959,0.3452 C173.0719,0.3452 173.2959,0.5682 173.2959,0.8452 L173.2959,4.7822 C173.2959,5.0582 173.0719,5.2822 172.7959,5.2822" id="Fill-40" fill="#375D81"></path>
                    <path d="M174.7646,3.3135 L170.8266,3.3135 C170.5506,3.3135 170.3276,3.0895 170.3276,2.8135 C170.3276,2.5375 170.5506,2.3135 170.8266,2.3135 L174.7646,2.3135 C175.0406,2.3135 175.2646,2.5375 175.2646,2.8135 C175.2646,3.0895 175.0406,3.3135 174.7646,3.3135" id="Fill-42" fill="#375D81"></path>
                    <path d="M20.4092,164.1572 C20.1332,164.1572 19.9092,163.9332 19.9092,163.6572 L19.9092,159.7202 C19.9092,159.4432 20.1332,159.2202 20.4092,159.2202 C20.6852,159.2202 20.9092,159.4432 20.9092,159.7202 L20.9092,163.6572 C20.9092,163.9332 20.6852,164.1572 20.4092,164.1572" id="Fill-44" fill="#375D81"></path>
                    <path d="M22.3779,162.1885 L18.4399,162.1885 C18.1639,162.1885 17.9409,161.9645 17.9409,161.6885 C17.9409,161.4125 18.1639,161.1885 18.4399,161.1885 L22.3779,161.1885 C22.6539,161.1885 22.8779,161.4125 22.8779,161.6885 C22.8779,161.9645 22.6539,162.1885 22.3779,162.1885" id="Fill-46" fill="#375D81"></path>
                    <path d="M185.0146,197.3135 C184.4616,197.3135 184.0146,196.8665 184.0146,196.3135 L184.0146,182.0635 C184.0146,181.5105 184.4616,181.0635 185.0146,181.0635 C185.5676,181.0635 186.0146,181.5105 186.0146,182.0635 L186.0146,196.3135 C186.0146,196.8665 185.5676,197.3135 185.0146,197.3135" id="Fill-48" fill="#E1F2FF"></path>
                    <polygon id="Fill-50" fill="#FFFFFF" points="51.648 200.361 198.188 200.361 198.188 106.294 51.648 106.294"></polygon>
                    <path d="M52.648,199.361 L197.188,199.361 L197.188,107.294 L52.648,107.294 L52.648,199.361 Z M50.648,201.361 L199.188,201.361 L199.188,105.294 L50.648,105.294 L50.648,201.361 Z" id="Fill-52" fill="#375D81"></path>
                    <path d="M196.1885,74.1152 L53.6485,74.1152 C52.5435,74.1152 51.6485,73.4122 51.6485,72.5452 L51.6485,66.8842 C51.6485,66.0162 52.5435,65.3132 53.6485,65.3132 L196.1885,65.3132 C197.2925,65.3132 198.1885,66.0162 198.1885,66.8842 L198.1885,72.5452 C198.1885,73.4122 197.2925,74.1152 196.1885,74.1152" id="Fill-53" fill="#FFFFFF"></path>
                    <path d="M53.6484,66.3135 C53.0384,66.3135 52.6484,66.6515 52.6484,66.8835 L52.6484,72.5445 C52.6484,72.7775 53.0384,73.1155 53.6484,73.1155 L196.1884,73.1155 C196.7984,73.1155 197.1884,72.7775 197.1884,72.5445 L197.1884,66.8835 C197.1884,66.6515 196.7984,66.3135 196.1884,66.3135 L53.6484,66.3135 Z M196.1884,75.1155 L53.6484,75.1155 C51.9944,75.1155 50.6484,73.9615 50.6484,72.5445 L50.6484,66.8835 C50.6484,65.4665 51.9944,64.3135 53.6484,64.3135 L196.1884,64.3135 C197.8424,64.3135 199.1884,65.4665 199.1884,66.8835 L199.1884,72.5445 C199.1884,73.9615 197.8424,75.1155 196.1884,75.1155 L196.1884,75.1155 Z" id="Fill-54" fill="#375D81"></path>
                    <path d="M169.0703,58.0908 L80.7663,58.0908 C79.7963,58.0908 79.0093,57.1948 79.0093,56.0908 L79.0093,34.3818 C79.0093,33.2778 79.7963,32.3818 80.7663,32.3818 L169.0703,32.3818 C170.0403,32.3818 170.8273,33.2778 170.8273,34.3818 L170.8273,56.0908 C170.8273,57.1948 170.0403,58.0908 169.0703,58.0908" id="Fill-55" fill="#FFFFFF"></path>
                    <path d="M80.7666,33.3818 C80.3566,33.3818 80.0096,33.8398 80.0096,34.3818 L80.0096,56.0908 C80.0096,56.6328 80.3566,57.0908 80.7666,57.0908 L169.0706,57.0908 C169.4806,57.0908 169.8276,56.6328 169.8276,56.0908 L169.8276,34.3818 C169.8276,33.8398 169.4806,33.3818 169.0706,33.3818 L80.7666,33.3818 Z M169.0706,59.0908 L80.7666,59.0908 C79.2456,59.0908 78.0096,57.7448 78.0096,56.0908 L78.0096,34.3818 C78.0096,32.7278 79.2456,31.3818 80.7666,31.3818 L169.0706,31.3818 C170.5906,31.3818 171.8276,32.7278 171.8276,34.3818 L171.8276,56.0908 C171.8276,57.7448 170.5906,59.0908 169.0706,59.0908 L169.0706,59.0908 Z" id="Fill-56" fill="#375D81"></path>
                    <polygon id="Fill-57" fill="#E1F2FF" points="65.493 173.36 127.221 173.36 127.221 127.121 65.493 127.121"></polygon>
                    <path d="M66.493,172.36 L126.221,172.36 L126.221,128.121 L66.493,128.121 L66.493,172.36 Z M64.493,174.36 L128.221,174.36 L128.221,126.121 L64.493,126.121 L64.493,174.36 Z" id="Fill-58" fill="#375D81"></path>
                    <polygon id="Fill-59" fill="#E1F2FF" points="150.483 200.361 185.347 200.361 185.347 127.121 150.483 127.121"></polygon>
                    <path d="M151.482,199.361 L184.346,199.361 L184.346,128.121 L151.482,128.121 L151.482,199.361 Z M149.483,201.361 L186.347,201.361 L186.347,126.121 L149.483,126.121 L149.483,201.361 Z" id="Fill-60" fill="#375D81"></path>
                    <path d="M85.5928,200.4355 C85.2748,194.7395 80.8818,190.1325 75.2738,189.5025 C73.4608,180.7065 65.6718,174.0915 56.3378,174.0915 C49.9888,174.0915 44.3558,177.1525 40.8298,181.8775 C39.6058,181.5705 38.3238,181.4055 37.0038,181.4055 C28.3458,181.4055 21.3258,188.4245 21.3258,197.0825 C21.3258,198.2345 21.4538,199.3555 21.6918,200.4355" id="Fill-61" fill="#FFFFFF"></path>
                    <path d="M21.6904,201.4355 C21.2314,201.4355 20.8174,201.1175 20.7144,200.6505 C20.4574,199.4765 20.3264,198.2765 20.3264,197.0825 C20.3264,187.8865 27.8074,180.4055 37.0034,180.4055 C38.1554,180.4055 39.3044,180.5245 40.4294,180.7595 C44.3134,175.8775 50.0744,173.0915 56.3374,173.0915 C65.7054,173.0915 73.9034,179.5765 76.0974,188.6095 C81.8934,189.5905 86.2584,194.4335 86.5904,200.3795 C86.6224,200.9315 86.2004,201.4035 85.6484,201.4335 C85.0984,201.4555 84.6254,201.0425 84.5944,200.4915 C84.3024,195.2815 80.3364,191.0785 75.1624,190.4975 L74.4404,190.4155 L74.2944,189.7055 C72.5494,181.2375 64.9984,175.0915 56.3374,175.0915 C50.4934,175.0915 45.1324,177.7835 41.6314,182.4755 L41.2334,183.0095 L40.5864,182.8475 C39.4184,182.5535 38.2114,182.4055 37.0034,182.4055 C28.9104,182.4055 22.3264,188.9895 22.3264,197.0825 C22.3264,198.1325 22.4414,199.1885 22.6684,200.2205 C22.7874,200.7605 22.4454,201.2935 21.9064,201.4125 C21.8344,201.4275 21.7614,201.4355 21.6904,201.4355" id="Fill-62" fill="#9ACDED"></path>
                    <path d="M231.7275,199.9346 C232.1855,198.3656 232.4415,196.7096 232.4415,194.9926 C232.4415,185.2516 224.5445,177.3556 214.8045,177.3556 C207.0415,177.3556 200.4555,182.3726 198.0985,189.3406 C197.2685,189.1556 196.4065,189.0546 195.5205,189.0546 C189.3175,189.0546 184.2445,193.8496 183.7795,199.9346" id="Fill-63" fill="#FFFFFF"></path>
                    <path d="M231.7275,200.9346 C231.6345,200.9346 231.5405,200.9216 231.4475,200.8946 C230.9165,200.7406 230.6135,200.1846 230.7675,199.6546 C231.2145,198.1216 231.4415,196.5536 231.4415,194.9926 C231.4415,185.8186 223.9785,178.3556 214.8045,178.3556 C207.6655,178.3556 201.3325,182.8986 199.0455,189.6616 L198.7575,190.5126 L197.8805,190.3166 C197.1025,190.1426 196.3085,190.0546 195.5205,190.0546 C189.9215,190.0546 185.2035,194.4276 184.7765,200.0106 C184.7345,200.5616 184.2695,200.9616 183.7035,200.9316 C183.1525,200.8896 182.7405,200.4096 182.7825,199.8586 C183.2885,193.2396 188.8825,188.0546 195.5205,188.0546 C196.1635,188.0546 196.8095,188.1046 197.4495,188.2026 C200.2315,181.0806 207.0985,176.3556 214.8045,176.3556 C225.0815,176.3556 233.4415,184.7156 233.4415,194.9926 C233.4415,196.7436 233.1875,198.5006 232.6875,200.2146 C232.5605,200.6516 232.1615,200.9346 231.7275,200.9346" id="Fill-64" fill="#9ACDED"></path>
                    <path d="M18.2744,200.457 L236.1684,200.457" id="Fill-65" fill="#FFFFFF"></path>
                    <path d="M236.168,201.457 L18.274,201.457 C17.722,201.457 17.274,201.01 17.274,200.457 C17.274,199.904 17.722,199.457 18.274,199.457 L236.168,199.457 C236.721,199.457 237.168,199.904 237.168,200.457 C237.168,201.01 236.721,201.457 236.168,201.457" id="Fill-66" fill="#375D81"></path>
                </g>
                <g id="Group-346" transform="translate(41.000000, 127.655000)">
                    <mask id="mask-6" fill="white">
                        <use xlink:href="#path-5"></use>
                    </mask>
                    <g id="Fill-57"></g>
                    <g id="Group-82" mask="url(#mask-6)">
                        <g transform="translate(31.000000, 12.000000)">
                            <mask id="mask-8" fill="white">
                                <use xlink:href="#path-7"></use>
                            </mask>
                            <g id="Clip-81" stroke="none" fill="none"></g>
                            <path d="M3.8848,46.9131 C8.2628,46.7681 12.3288,43.7011 21.2598,43.1771 C21.3808,42.5911 21.5318,42.0611 21.7268,41.6261 C23.2988,38.1041 25.4538,27.9851 23.9058,21.3751 L22.6798,16.1441 C22.2778,14.4291 22.0638,12.6741 22.0418,10.9111 C22.0318,10.1771 22.0978,9.4591 22.2308,8.7661 C22.2638,8.5921 22.3018,8.4201 22.3428,8.2491 C22.4678,7.7381 22.6298,7.2411 22.8248,6.7611 C22.8908,6.6011 22.9598,6.4431 23.0318,6.2871 C23.1778,5.9751 23.3378,5.6721 23.5118,5.3771 C23.6868,5.0821 23.8738,4.7971 24.0738,4.5211 C24.6768,3.6941 25.3958,2.9581 26.2068,2.3351 C26.4778,2.1271 26.7578,1.9331 27.0478,1.7511 C28.6438,0.7541 30.5248,0.1671 32.5438,0.1421 L34.2878,0.1201 C37.2248,0.0831 39.8988,1.2401 41.8478,3.1411 C42.0908,3.3781 42.3228,3.6281 42.5428,3.8881 C42.9438,4.3591 43.3008,4.8691 43.6138,5.4071 C43.7328,5.6091 43.8458,5.8141 43.9498,6.0241 C44.0278,6.1791 44.0998,6.3351 44.1688,6.4931 C44.3768,6.9681 44.5518,7.4601 44.6888,7.9691 C44.8258,8.4761 44.9278,9.0001 44.9888,9.5351 C45.0298,9.8921 45.0528,10.2551 45.0578,10.6221 C45.0668,11.3541 44.7788,12.0211 44.3038,12.5071 C43.8298,12.9931 43.1708,13.2981 42.4398,13.3071 L31.5498,13.4441 L33.3168,22.8751 C35.3728,32.5591 34.8728,39.0591 33.4298,43.4071 C33.1078,44.3761 31.2478,47.8201 31.2478,47.8201 C36.8018,56.3441 45.1978,59.9941 54.1408,60.9731 C61.7418,61.8041 78.0418,54.6761 69.4928,46.7751 C60.9448,38.8741 71.2148,43.7251 72.7308,44.7191 C74.2458,45.7141 83.0298,53.1121 73.7378,64.2471 C69.8088,68.9551 65.3448,73.2461 54.5168,76.6301 C52.7808,77.1721 43.2788,77.9831 38.1768,79.5171 C22.9878,84.0841 10.5338,79.4821 3.4628,69.5061 C-3.5802,59.5711 2.1558,46.9701 3.8848,46.9131" id="Fill-80" stroke="none" fill="#9452BA" fill-rule="evenodd" mask="url(#mask-8)"></path>
                        </g>
                    </g>
                    <g id="Group-85" mask="url(#mask-6)" fill="#52267D">
                        <g transform="translate(51.000000, 11.000000)" id="Fill-83">
                            <path d="M12.4809,44.0921 C14.1429,39.0861 14.0949,32.3531 12.3379,24.0831 L10.3479,13.4591 L22.4269,13.3071 C22.8679,13.3021 23.2799,13.1251 23.5869,12.8091 C23.8969,12.4931 24.0639,12.0761 24.0579,11.6341 C24.0539,11.3021 24.0319,10.9741 23.9949,10.6491 C23.9419,10.1731 23.8499,9.6961 23.7239,9.2301 C23.6019,8.7791 23.4439,8.3301 23.2529,7.8941 C23.1909,7.7521 23.1249,7.6101 23.0559,7.4721 C22.9599,7.2801 22.8579,7.0951 22.7509,6.9121 C22.4619,6.4171 22.1359,5.9541 21.7799,5.5351 C21.5799,5.2981 21.3699,5.0711 21.1499,4.8561 C19.3359,3.0891 16.9519,2.1191 14.4259,2.1191 C14.3979,2.1191 13.7749,2.12643333 12.5569,2.1411 C10.7899,2.1641 9.0679,2.6681 7.5779,3.5991 C7.3159,3.7631 7.0619,3.9391 6.8169,4.1281 C6.0789,4.6941 5.4289,5.3611 4.8829,6.1101 C4.7009,6.3591 4.5309,6.6191 4.3719,6.8871 C4.2159,7.1521 4.0699,7.4281 3.9389,7.7101 C3.8739,7.8491 3.8109,7.9951 3.7499,8.1411 C3.5729,8.5771 3.4259,9.0311 3.3149,9.4861 C3.2769,9.6381 3.2429,9.7951 3.2129,9.9531 C3.0909,10.5911 3.0329,11.2441 3.0419,11.8971 C3.0629,13.5861 3.2689,15.2731 3.6529,16.9161 L4.8789,22.1461 C6.4809,28.9801 4.2729,39.3771 2.6399,43.0331 C2.4879,43.3731 12.2669,44.7361 12.4809,44.0921 Z M0.8139,42.2191 C2.3079,38.8711 4.4099,28.9131 2.9319,22.6031 L1.7059,17.3731 C1.2879,15.5891 1.0649,13.7561 1.0419,11.9231 C1.0309,11.1371 1.1009,10.3471 1.2479,9.5771 C1.2839,9.3891 1.3259,9.2021 1.3699,9.0161 C1.5059,8.4611 1.6839,7.9141 1.8989,7.3841 C1.9709,7.2081 2.0459,7.0371 2.1249,6.8671 C2.2849,6.5231 2.4599,6.1911 2.6499,5.8691 C2.8419,5.5451 3.0469,5.2341 3.2659,4.9331 C3.9249,4.0281 4.7089,3.2241 5.5979,2.5421 C5.8939,2.3141 6.1999,2.1021 6.5169,1.9031 C8.3189,0.7771 10.3989,0.1691 12.5309,0.1411 L14.2749,0.1201 C17.4339,0.0791 20.3189,1.2551 22.5459,3.4251 C22.8119,3.6841 23.0669,3.9581 23.3069,4.2421 C23.7369,4.7491 24.1319,5.3081 24.4789,5.9041 C24.6079,6.1241 24.7319,6.3491 24.8459,6.5791 C24.9299,6.7461 25.0089,6.9181 25.0849,7.0921 C25.3169,7.6191 25.5079,8.1631 25.6539,8.7091 C25.8069,9.2701 25.9169,9.8481 25.9829,10.4231 C26.0259,10.8111 26.0519,11.2081 26.0579,11.6081 C26.0689,12.5871 25.6999,13.5091 25.0189,14.2061 C24.3399,14.9031 23.4269,15.2951 22.4509,15.3071 L12.7519,15.4301 L14.2989,23.6901 C16.1259,32.2901 16.1539,39.3741 14.3789,44.7231 C14.1982333,45.2651 9.67656667,44.4304333 0.8139,42.2191 Z"></path>
                        </g>
                    </g>
                    <g id="Group-88" mask="url(#mask-6)">
                        <g transform="translate(7.000000, 21.000000)">
                            <mask id="mask-10" fill="white">
                                <use xlink:href="#path-9"></use>
                            </mask>
                            <g id="Clip-87" stroke="none" fill="none"></g>
                            <path d="M37.1611,23.3242 C37.3691,12.0602 28.3221,3.3252 18.1431,1.5822 C16.0301,1.2202 15.3351,0.5672 13.0291,0.5962 L11.2631,0.6192 C5.3111,0.6932 0.5481,5.5782 0.6221,11.5292 C0.6411,13.0122 1.8581,14.2002 3.3431,14.1812 C3.3431,14.1812 21.4601,13.9492 21.5451,13.9402 C21.5451,13.9402 23.0201,13.9232 23.0221,13.9242 C23.0191,13.9252 21.5441,13.9442 21.5411,13.9462 C25.5691,15.5962 28.1271,20.6862 28.6011,23.4312 C29.2771,27.3422 28.8581,30.5802 27.5551,33.2102 C26.6861,34.9632 26.6121,37.0612 26.7701,38.7592 C26.7701,38.7592 26.8131,38.7732 26.8741,38.7932 C26.9481,39.7002 27.1081,40.7312 27.3931,41.9062 C29.0851,40.6962 31.7161,38.8732 32.1971,38.6112 C33.2371,38.0462 35.5851,36.7592 36.6351,36.1382 C43.3451,32.1792 37.0441,29.7312 37.1611,23.3242" id="Fill-86" stroke="none" fill="#9452BA" fill-rule="evenodd" mask="url(#mask-10)"></path>
                        </g>
                    </g>
                    <g id="Group-91" mask="url(#mask-6)">
                        <g transform="translate(6.000000, 20.000000)">
                            <mask id="mask-12" fill="white">
                                <use xlink:href="#path-11"></use>
                            </mask>
                            <g id="Clip-90" stroke="none" fill="none"></g>
                            <path d="M28.7197,39.0146 L28.7287,39.0176 L28.8707,39.7116 C28.9097,40.1916 28.9737,40.6916 29.0617,41.2066 C30.5177,40.1846 32.2767,38.9736 32.7197,38.7326 C33.8867,38.0976 36.1287,36.8676 37.1257,36.2776 C40.5317,34.2686 40.0287,33.1906 38.8127,30.5866 C38.0557,28.9646 37.1137,26.9476 37.1607,24.3056 C37.3717,12.8946 27.9487,5.1046 18.9747,3.5676 C18.1097,3.4196 17.4617,3.2256 16.8907,3.0536 C16.0107,2.7896 15.3217,2.5626 14.0417,2.5966 L12.2757,2.6186 C6.8847,2.6866 2.5547,7.1256 2.6217,12.5166 C2.6337,13.4396 3.3887,14.1816 4.3087,14.1816 L4.3237,14.1816 C10.4657,14.1026 22.1607,13.9516 22.5067,13.9416 C22.9747,13.9356 23.3167,13.9316 23.5717,13.9306 L23.9947,13.9236 L23.9947,13.9336 C24.2967,13.9436 24.3517,13.9696 24.4697,14.0296 L26.6287,15.1096 L25.3907,15.5216 C28.3067,17.9116 30.1637,21.8136 30.5867,24.2616 C31.2757,28.2466 30.8937,31.7436 29.4497,34.6546 C28.7677,36.0336 28.6577,37.6916 28.7197,39.0146 L28.7197,39.0146 Z M27.7717,44.5806 L27.4217,43.1426 C27.2027,42.2406 27.0427,41.3666 26.9437,40.5336 L26.8347,40.4956 L26.7747,39.8516 C26.5507,37.4496 26.8487,35.4026 27.6577,33.7666 C28.9087,31.2436 29.2317,28.1606 28.6157,24.6016 C28.2277,22.3526 25.9927,17.5626 22.3337,15.9456 C21.5717,15.9566 18.2837,16.0026 4.3557,16.1816 L4.3087,16.1816 C2.2977,16.1816 0.6487,14.5586 0.6217,12.5416 C0.5827,9.3966 1.7707,6.4236 3.9667,4.1716 C6.1627,1.9196 9.1047,0.6586 12.2497,0.6186 L14.0167,0.5966 C15.5737,0.5716 16.5037,0.8496 17.4657,1.1376 C18.0067,1.3006 18.5677,1.4686 19.3127,1.5966 C29.1077,3.2736 39.3927,11.8156 39.1607,24.3426 C39.1207,26.5206 39.9197,28.2316 40.6247,29.7406 C41.8477,32.3606 43.1117,35.0686 38.1427,37.9996 C37.1217,38.6036 34.8537,39.8486 33.6747,40.4906 C33.3007,40.6936 30.8857,42.3536 28.9757,43.7196 L27.7717,44.5806 Z" id="Fill-89" stroke="none" fill="#52267D" fill-rule="evenodd" mask="url(#mask-12)"></path>
                        </g>
                    </g>
                    <g id="Group-94" mask="url(#mask-6)">
                        <g transform="translate(28.000000, 33.000000)">
                            <mask id="mask-14" fill="white">
                                <use xlink:href="#path-13"></use>
                            </mask>
                            <g id="Clip-93" stroke="none" fill="none"></g>
                            <path d="M10.5547,24.4062 C10.4447,22.6692 10.1667,21.7792 10.3537,21.0692 C11.4247,16.9822 11.7737,15.6912 11.7197,11.3802 C11.6657,7.0942 9.1297,2.8912 5.4367,0.6852 C5.2337,0.5632 2.5937,0.4112 0.5407,1.9462 C4.5697,3.5962 7.1267,8.6862 7.6017,11.4312 C8.2777,15.3422 7.8587,18.5802 6.5547,21.2102 C5.6867,22.9632 5.6117,25.0612 5.7707,26.7592 C5.7707,26.7592 10.7087,28.5422 10.5547,24.4062" id="Fill-92" stroke="none" fill="#F3E3FF" fill-rule="evenodd" mask="url(#mask-14)"></path>
                        </g>
                    </g>
                    <g id="Group-97" mask="url(#mask-6)">
                        <g transform="translate(27.000000, 33.000000)">
                            <mask id="mask-16" fill="white">
                                <use xlink:href="#path-15"></use>
                            </mask>
                            <g id="Clip-96" stroke="none" fill="none"></g>
                            <path d="M7.2412,26.3838 C8.0442,26.6128 9.5682,26.8708 10.3972,26.2638 C10.8652,25.9218 11.0872,25.3048 11.0552,24.4318 C11.0132,23.7848 10.9492,23.2588 10.8942,22.8168 C10.7992,22.0368 10.7292,21.4748 10.8702,20.9428 L10.8972,20.8388 C11.9532,16.8098 12.2722,15.5928 12.2202,11.3858 C12.1692,7.3078 9.7982,3.2758 6.1792,1.1148 C6.0322,1.0878 4.2502,0.9928 2.5712,1.8848 C6.2472,3.8928 8.6162,8.5808 9.0952,11.3468 C9.7642,15.2258 9.3972,18.6178 8.0032,21.4318 C7.2112,23.0308 7.1382,24.9518 7.2412,26.3838 M8.9442,27.6388 C7.7572,27.6388 6.6722,27.2548 6.6002,27.2298 L6.3032,27.1208 L6.2722,26.8058 C6.1242,25.2198 6.1482,22.9238 7.1062,20.9878 C8.4052,18.3678 8.7422,15.1818 8.1082,11.5168 C7.6142,8.6558 4.9912,3.9008 1.3512,2.4088 L0.5352,2.0738 L1.2412,1.5458 C3.3942,-0.0632 6.2522,-0.0082 6.6942,0.2568 C10.6022,2.5918 13.1642,6.9548 13.2202,11.3738 C13.2732,15.7158 12.9192,17.0708 11.8642,21.0918 L11.8372,21.1968 C11.7462,21.5438 11.8022,22.0008 11.8872,22.6948 C11.9432,23.1548 12.0112,23.7018 12.0532,24.3748 L12.0542,24.3878 C12.1002,25.6178 11.7412,26.5218 10.9862,27.0718 C10.3972,27.5018 9.6522,27.6388 8.9442,27.6388" id="Fill-95" stroke="none" fill="#52267D" fill-rule="evenodd" mask="url(#mask-16)"></path>
                        </g>
                    </g>
                    <path d="M12.6309,23.5205 C12.6309,23.5205 12.6039,21.6385 14.4639,20.8685 C15.0309,20.6315 16.0689,20.1955 16.0689,20.1955 C16.0689,20.1955 17.2119,22.5365 15.9569,23.1465 C14.1519,24.0235 12.6309,23.5205 12.6309,23.5205" id="Fill-98" fill="#FFFFFF" mask="url(#mask-6)"></path>
                    <path d="M13.1768,23.124 C13.6938,23.192 14.6618,23.219 15.7388,22.696 C15.8648,22.635 15.9438,22.545 15.9918,22.403 C16.1368,21.984 15.9668,21.317 15.7988,20.851 L14.6558,21.33 C13.6068,21.765 13.2798,22.623 13.1768,23.124 M13.7448,24.164 C12.9998,24.164 12.5108,24.008 12.4738,23.995 L12.1358,23.884 L12.1308,23.527 C12.1298,23.437 12.1228,21.296 14.2728,20.406 L16.3108,19.551 L16.5178,19.976 C16.5998,20.144 17.3098,21.649 16.9378,22.729 C16.8028,23.119 16.5388,23.419 16.1758,23.596 C15.2558,24.043 14.4018,24.164 13.7448,24.164" id="Fill-100" fill="#52267D" mask="url(#mask-6)"></path>
                    <path d="M17.2959,22.1387 C17.2959,22.1387 17.3169,19.5747 20.1959,19.1637 C20.7339,19.0867 22.1379,19.1037 22.1379,19.1037 C22.1379,19.1037 22.8189,21.8087 21.3019,22.0877 C19.4369,22.4327 17.2959,22.1387 17.2959,22.1387" id="Fill-102" fill="#FFFFFF" mask="url(#mask-6)"></path>
                    <path d="M17.8564,21.6943 C18.5784,21.7563 19.9724,21.8253 21.2104,21.5963 C21.3794,21.5653 21.4964,21.4883 21.5864,21.3463 C21.8574,20.9253 21.8074,20.1233 21.7264,19.6013 C21.2454,19.6033 20.5724,19.6153 20.2674,19.6593 C18.5144,19.9083 18.0044,21.0483 17.8564,21.6943 M19.2374,22.7563 C18.1374,22.7563 17.2844,22.6413 17.2274,22.6333 L16.7924,22.5743 L16.7954,22.1343 C16.8034,21.0983 17.5104,19.0413 20.1264,18.6693 C20.6854,18.5903 21.9954,18.6033 22.1434,18.6033 L22.5284,18.6083 L22.6224,18.9813 C22.6704,19.1733 23.0754,20.8813 22.4284,21.8863 C22.1894,22.2593 21.8314,22.4993 21.3924,22.5803 C20.6664,22.7143 19.9064,22.7563 19.2374,22.7563" id="Fill-104" fill="#52267D" mask="url(#mask-6)"></path>
                    <path d="M23.0342,22.3125 C23.0342,22.3125 23.3792,19.4635 25.9432,20.2125 C27.0392,20.5335 27.6552,21.3545 27.6552,21.3545 C27.6552,21.3545 27.1742,23.5265 26.1542,23.2955 C24.3752,22.8935 23.0342,22.3125 23.0342,22.3125" id="Fill-106" fill="#FFFFFF" mask="url(#mask-6)"></path>
                    <path d="M23.6123,22.0059 C24.1233,22.1999 25.1013,22.5449 26.2643,22.8089 C26.3113,22.8189 26.3483,22.8159 26.4103,22.7769 C26.6943,22.5969 26.9623,21.9809 27.1043,21.4869 C26.8853,21.2649 26.4343,20.8769 25.8023,20.6929 C25.2163,20.5219 24.7533,20.5569 24.3863,20.7989 C23.9413,21.0929 23.7173,21.6399 23.6123,22.0059 M26.3033,23.8129 C26.2173,23.8129 26.1313,23.8029 26.0443,23.7829 C24.2403,23.3759 22.8913,22.7959 22.8353,22.7719 L22.4933,22.6229 L22.5383,22.2519 C22.5463,22.1889 22.7383,20.6879 23.8363,19.9639 C24.4573,19.5569 25.2133,19.4779 26.0843,19.7339 C27.3253,20.0959 28.0263,21.0159 28.0553,21.0549 L28.1933,21.2379 L28.1433,21.4629 C28.1063,21.6289 27.7593,23.1049 26.9463,23.6199 C26.7453,23.7479 26.5263,23.8129 26.3033,23.8129" id="Fill-108" fill="#52267D" mask="url(#mask-6)"></path>
                    <path d="M30.626,36.0234 C30.626,36.0234 36.541,32.7104 35.34,27.2774 C36.139,27.9194 38.277,29.8784 39.057,30.8854 C39.07,31.9514 39.319,36.1854 33.506,39.0944 C32.465,38.0414 31.581,36.7214 30.626,36.0234" id="Fill-110" fill="#FFFFFF" mask="url(#mask-6)"></path>
                    <path d="M31.4639,36.0771 C31.8909,36.4801 32.2999,36.9651 32.7269,37.4701 C33.0129,37.8061 33.3069,38.1531 33.6089,38.4791 C38.5489,35.8591 38.5799,32.3331 38.5599,31.0641 C37.9979,30.3821 36.8889,29.3091 35.9959,28.5051 C36.1149,32.4311 32.8389,35.1231 31.4639,36.0771 L31.4639,36.0771 Z M33.4049,39.7041 L33.1509,39.4461 C32.7309,39.0211 32.3409,38.5601 31.9639,38.1151 C31.3989,37.4481 30.8649,36.8171 30.3309,36.4271 L29.7039,35.9691 L30.3809,35.5881 C30.4379,35.5561 35.9569,32.3861 34.8519,27.3861 L34.5449,25.9971 L35.6529,26.8881 C36.5069,27.5731 38.6509,29.5461 39.4519,30.5801 L39.5549,30.7121 L39.5569,30.8791 C39.6239,34.6921 37.6629,37.5731 33.7299,39.5421 L33.4049,39.7041 Z" id="Fill-112" fill="#52267D" mask="url(#mask-6)"></path>
                    <path d="M13.4355,22.9922 C13.4355,22.9922 13.4205,22.0182 14.3835,21.6192 C14.6775,21.4982 15.2135,21.2712 15.2135,21.2712 C15.2135,21.2712 15.8065,22.4832 15.1575,22.7992 C14.2225,23.2532 13.4355,22.9922 13.4355,22.9922" id="Fill-114" fill="#F3E3FF" mask="url(#mask-6)"></path>
                    <path d="M18.5195,21.543 C18.5195,21.543 18.5305,20.235 19.9985,20.026 C20.2725,19.987 20.9885,19.995 20.9885,19.995 C20.9885,19.995 21.3355,21.375 20.5625,21.518 C19.6115,21.692 18.5195,21.543 18.5195,21.543" id="Fill-116" fill="#F3E3FF" mask="url(#mask-6)"></path>
                    <path d="M23.9502,22.0957 C23.9502,22.0957 24.1332,20.5837 25.4942,20.9827 C26.0752,21.1527 26.4022,21.5877 26.4022,21.5877 C26.4022,21.5877 26.1462,22.7407 25.6052,22.6177 C24.6622,22.4047 23.9502,22.0957 23.9502,22.0957" id="Fill-118" fill="#F3E3FF" mask="url(#mask-6)"></path>
                    <path d="M22.5586,33.2246 L17.1136,33.2926 C17.0796,30.5496 19.2746,28.2986 22.0176,28.2646 L22.4966,28.2586 C23.8676,28.2416 24.9936,29.3386 25.0106,30.7096 C25.0276,32.0816 23.9296,33.2066 22.5586,33.2246" id="Fill-120" fill="#F3E3FF" mask="url(#mask-6)"></path>
                    <path d="M22.0986,33.1367 L17.2056,33.1987 C17.1786,31.0437 18.9046,29.2757 21.0586,29.2477 L22.0496,29.2357 C23.1266,29.2217 24.0116,30.0837 24.0256,31.1617 C24.0386,32.2397 23.1766,33.1227 22.0986,33.1367" id="Fill-122" fill="#FFFFFF" mask="url(#mask-6)"></path>
                    <path d="M22.0752,29.7354 L22.0562,29.7354 L21.0652,29.7484 C20.1562,29.7594 19.3062,30.1244 18.6722,30.7744 C18.1552,31.3044 17.8322,31.9714 17.7362,32.6914 L22.0932,32.6364 C22.4802,32.6314 22.8432,32.4764 23.1132,32.1994 C23.3842,31.9224 23.5302,31.5554 23.5252,31.1684 C23.5202,30.7804 23.3652,30.4184 23.0872,30.1474 C22.8142,29.8814 22.4552,29.7354 22.0752,29.7354 L22.0752,29.7354 Z M16.7132,33.7044 L16.7062,33.2054 C16.6762,30.7784 18.6252,28.7794 21.0522,28.7484 L22.0432,28.7354 L22.0752,28.7354 C22.7182,28.7354 23.3242,28.9814 23.7852,29.4314 C24.2542,29.8884 24.5162,30.5014 24.5252,31.1564 C24.5332,31.8104 24.2862,32.4284 23.8292,32.8974 C23.3722,33.3664 22.7602,33.6284 22.1042,33.6364 L16.7132,33.7044 Z" id="Fill-124" fill="#52267D" mask="url(#mask-6)"></path>
                    <path d="M18.0664,31.1221 C18.0744,31.7241 18.5684,32.2051 19.1704,32.1971 C19.7714,32.1901 20.2534,31.6961 20.2454,31.0951 C20.2384,30.4921 19.7444,30.0111 19.1424,30.0181 C18.5414,30.0261 18.0584,30.5191 18.0664,31.1221" id="Fill-126" fill="#52267D" mask="url(#mask-6)"></path>
                    <path d="M10.083,34.3662 L10.083,34.3662 C10.392,34.2972 10.667,34.1212 10.86,33.8712 L11.22,33.4072 L10.409,33.5922 L9.932,33.7002 C9.747,33.7422 9.632,33.9252 9.674,34.1092 C9.716,34.2932 9.898,34.4082 10.083,34.3662" id="Fill-128" fill="#52267D" mask="url(#mask-6)"></path>
                    <path d="M31.6338,36.1182 C31.6338,36.1182 36.1908,33.5912 36.0568,28.6152 C38.0468,30.0272 38.5918,30.9482 38.5918,30.9482 C38.5918,30.9482 38.2788,33.3212 37.1908,34.5302 C35.5198,36.3872 33.7618,36.9732 31.6338,36.1182" id="Fill-130" fill="#EAF3FB" mask="url(#mask-6)"></path>
                    <path d="M35.9658,35.1895 C35.9658,35.1895 34.1798,37.0525 32.4268,37.9575" id="Fill-132" fill="#FFFFFF" mask="url(#mask-6)"></path>
                    <path d="M32.6563,38.4014 L32.1973,37.5124 C33.8533,36.6584 35.5883,34.8614 35.6043,34.8434 L36.3273,35.5354 C36.2523,35.6144 34.4623,37.4694 32.6563,38.4014" id="Fill-134" fill="#52267D" mask="url(#mask-6)"></path>
                    <g id="Group-138" mask="url(#mask-6)">
                        <g transform="translate(29.000000, 7.000000)">
                            <mask id="mask-18" fill="white">
                                <use xlink:href="#path-17"></use>
                            </mask>
                            <g id="Clip-137" stroke="none" fill="none"></g>
                            <path d="M25.1982,47.3105 L24.1512,45.3065 C20.2172,35.9735 19.5582,30.4725 21.4262,21.4945 L22.5192,16.2345 C22.8792,14.5085 23.0482,12.7495 23.0262,10.9875 C22.9522,5.1135 18.1312,0.4115 12.2572,0.4855 L10.5392,0.5065 C4.7462,0.5795 0.1082,5.3345 0.1802,11.1285 L0.1842,11.4295 C0.2022,12.8085 1.3342,13.9125 2.7122,13.8945 L13.5852,13.7575 L12.0542,23.2295 C7.3272,48.6225 7.9622,58.8845 17.8662,56.6495" id="Fill-136" stroke="none" fill="#9452BA" fill-rule="evenodd" mask="url(#mask-18)"></path>
                        </g>
                    </g>
                    <g id="Group-141" mask="url(#mask-6)">
                        <g transform="translate(28.000000, 6.000000)">
                            <mask id="mask-20" fill="white">
                                <use xlink:href="#path-19"></use>
                            </mask>
                            <g id="Clip-140" stroke="none" fill="none"></g>
                            <path d="M16.4307,58.9502 C14.6067,58.9502 13.1437,58.4022 11.9957,57.2982 C8.2647,53.7052 8.2847,44.3822 12.0717,24.0472 L13.4087,15.7722 L3.7247,15.8942 C2.7787,15.8892 1.9087,15.5542 1.2407,14.9012 C0.5717,14.2502 0.1967,13.3762 0.1847,12.4422 L0.1807,12.1412 C0.1017,5.8042 5.1917,0.5862 11.5267,0.5072 L13.2437,0.4852 C16.3387,0.4052 19.2877,1.6182 21.5147,3.7902 C23.7407,5.9602 24.9877,8.8662 25.0267,11.9742 C25.0487,13.8112 24.8707,15.6492 24.4977,17.4382 L23.4057,22.6972 C21.5797,31.4722 22.1787,36.6802 26.0737,45.9182 L27.0847,47.8472 L25.3117,48.7732 L24.2647,46.7692 C20.1977,37.1292 19.5467,31.4272 21.4467,22.2912 L22.5397,17.0312 C22.8837,15.3842 23.0467,13.6902 23.0267,11.9992 C22.9937,9.4262 21.9607,7.0182 20.1187,5.2212 C18.2757,3.4252 15.8517,2.4142 13.2697,2.4852 L11.5517,2.5072 C6.3197,2.5722 2.1157,6.8832 2.1807,12.1162 L2.1847,12.4172 C2.1897,12.8162 2.3497,13.1902 2.6367,13.4702 C2.9227,13.7492 3.3237,13.8892 3.6997,13.8942 L15.7617,13.7432 L14.0417,24.3882 C11.5347,37.8622 9.4977,52.1162 13.3837,55.8572 C14.5197,56.9502 16.2377,57.2182 18.6467,56.6742 L19.0857,58.6252 C18.1267,58.8422 17.2427,58.9502 16.4307,58.9502" id="Fill-139" stroke="none" fill="#52267D" fill-rule="evenodd" mask="url(#mask-20)"></path>
                        </g>
                    </g>
                    <path d="M34.3066,8.8311 C34.3066,8.8311 34.4576,6.9851 36.2806,6.2291 C36.8366,5.9991 37.7156,6.2271 37.7156,6.2271 C37.7156,6.2271 38.7936,7.8671 37.5656,8.4641 C35.7956,9.3241 34.3066,8.8311 34.3066,8.8311" id="Fill-142" fill="#FFFFFF" mask="url(#mask-6)"></path>
                    <path d="M34.8984,8.4434 C35.4114,8.5074 36.3204,8.5124 37.3464,8.0144 C37.5514,7.9154 37.6064,7.7974 37.6314,7.7074 C37.7144,7.4064 37.5444,6.9554 37.3954,6.6704 C37.1034,6.6194 36.7024,6.5944 36.4714,6.6914 C35.4544,7.1134 35.0524,7.9374 34.8984,8.4434 M35.3984,9.4714 C34.6664,9.4714 34.1854,9.3174 34.1494,9.3054 L33.7764,9.1814 L33.8084,8.7904 C33.8154,8.7024 34.0084,6.6314 36.0884,5.7674 C36.7804,5.4804 37.7354,5.7154 37.8404,5.7424 L38.0274,5.7914 L38.1334,5.9524 C38.2074,6.0634 38.8444,7.0704 38.5954,7.9724 C38.4824,8.3854 38.2014,8.7114 37.7844,8.9144 C36.8804,9.3524 36.0424,9.4714 35.3984,9.4714" id="Fill-144" fill="#52267D" mask="url(#mask-6)"></path>
                    <path d="M38.6602,8.168 C38.6602,8.168 38.6842,5.264 41.9462,4.799 C42.5552,4.712 43.3382,4.763 43.3382,4.763 C43.3382,4.763 44.9172,7.794 43.1982,8.111 C41.0852,8.501 38.6602,8.168 38.6602,8.168" id="Fill-146" fill="#FFFFFF" mask="url(#mask-6)"></path>
                    <path d="M39.2148,7.7246 C40.0098,7.7956 41.6498,7.8886 43.1078,7.6196 C43.3198,7.5796 43.3898,7.4916 43.4298,7.4096 C43.6438,6.9706 43.3458,5.9646 43.0198,5.2506 C42.7538,5.2436 42.3518,5.2456 42.0168,5.2936 C39.9248,5.5916 39.3648,6.9916 39.2148,7.7246 M40.8618,8.8016 C39.6198,8.8016 38.6558,8.6716 38.5918,8.6626 L38.1558,8.6036 L38.1598,8.1636 C38.1698,7.0106 38.9588,4.7196 41.8758,4.3036 C42.5288,4.2116 43.3368,4.2626 43.3698,4.2636 L43.6518,4.2826 L43.7808,4.5316 C43.8958,4.7506 44.8838,6.7106 44.3278,7.8476 C44.1908,8.1296 43.8988,8.4906 43.2888,8.6026 C42.4708,8.7536 41.6148,8.8016 40.8618,8.8016" id="Fill-148" fill="#52267D" mask="url(#mask-6)"></path>
                    <path d="M44.5137,8.7549 C44.5137,8.7549 44.9217,5.9749 47.4137,6.7729 C48.4797,7.1129 49.0627,7.9339 49.0627,7.9339 C49.0627,7.9339 48.5367,10.0489 47.5437,9.7969 C45.8117,9.3589 44.5137,8.7549 44.5137,8.7549" id="Fill-150" fill="#FFFFFF" mask="url(#mask-6)"></path>
                    <path d="M45.0996,8.4629 C45.5966,8.6669 46.5406,9.0269 47.6666,9.3129 C47.6986,9.3199 47.7366,9.3249 47.8026,9.2849 C48.0796,9.1189 48.3576,8.5219 48.5086,8.0529 C48.2986,7.8289 47.8696,7.4429 47.2616,7.2489 C46.6986,7.0669 46.2476,7.0899 45.8836,7.3139 C45.4436,7.5859 45.2116,8.1089 45.0996,8.4629 M47.7066,10.3169 C47.6116,10.3169 47.5166,10.3059 47.4206,10.2809 C45.6626,9.8369 44.3576,9.2339 44.3026,9.2079 L43.9646,9.0509 L44.0186,8.6829 C44.0286,8.6199 44.2546,7.1509 45.3516,6.4679 C45.9706,6.0819 46.7156,6.0249 47.5666,6.2959 C48.7766,6.6839 49.4426,7.6049 49.4696,7.6439 L49.6036,7.8309 L49.5476,8.0539 C49.4816,8.3189 49.1136,9.6669 48.3166,10.1439 C48.1226,10.2589 47.9166,10.3169 47.7066,10.3169" id="Fill-152" fill="#52267D" mask="url(#mask-6)"></path>
                    <g id="Group-156" mask="url(#mask-6)" fill="#F3E3FF">
                        <g transform="translate(35.000000, 57.000000)" id="Fill-154">
                            <path d="M0.1094,1.5742 C0.7224,1.1012 1.3474,0.8262 1.8844,0.6902"></path>
                        </g>
                    </g>
                    <g id="Group-162" mask="url(#mask-6)">
                        <g transform="translate(32.000000, 20.000000)">
                            <mask id="mask-22" fill="white">
                                <use xlink:href="#path-21"></use>
                            </mask>
                            <g id="Clip-161" stroke="none" fill="none"></g>
                            <path d="M6.708,38.4717 C4.841,31.2727 7.873,17.4257 8.42,14.0207 L10.583,0.3767 L11.606,0.3637 C12.902,0.3477 13.901,1.7437 13.733,3.0317 L12.19,14.8617 C11.668,18.8677 11.305,37.3887 18.303,41.2787 C19.795,42.1077 22.198,41.5217 23.1,41.0757 C26.383,39.4567 27.28,35.3277 27.963,31.9997 C29.374,25.1127 28.139,19.7347 27.74,14.3547 L27.308,7.6217 C27.229,6.4057 28.182,5.1007 29.399,5.0847 L30.64,5.0697 L33.047,18.6567 C33.768,22.5247 35.667,35.9467 27.825,42.3487 C27.683,42.4647 29.758,42.9017 29.172,43.9697 C26.842,48.2117 19.946,48.9637 18.669,50.7837 C13.749,57.7907 18.625,72.5267 18.625,72.5267 C18.625,72.5267 13.04,70.3787 9.56,67.3377 C1.423,60.2277 0.271,49.7947 0.194,46.7207 C0.104,43.0417 1.041,40.7477 2.214,39.3707" id="Fill-160" stroke="none" fill="#F3E3FF" fill-rule="evenodd" mask="url(#mask-22)"></path>
                        </g>
                    </g>
                    <g id="Group-165" mask="url(#mask-6)">
                        <g transform="translate(31.000000, 19.000000)">
                            <mask id="mask-24" fill="white">
                                <use xlink:href="#path-23"></use>
                            </mask>
                            <g id="Clip-164" stroke="none" fill="none"></g>
                            <path d="M20.4316,74.3721 L19.4456,73.9931 C19.2136,73.9041 13.7376,71.7781 10.2306,68.7151 C1.4586,61.0501 0.7476,49.8921 0.6946,47.7331 C0.6126,44.3951 1.3316,41.8091 2.8326,40.0471 L3.5946,40.6951 C2.2766,42.2431 1.6196,44.6681 1.6946,47.7081 C1.7256,48.9861 2.2526,60.4151 10.8886,67.9611 C13.4046,70.1591 17.0996,71.9041 18.8356,72.6571 C17.8156,69.1401 14.9596,57.6211 19.2596,51.4961 C19.8366,50.6741 21.1806,50.1251 22.8806,49.4301 C25.3336,48.4281 28.3876,47.1801 29.7336,44.7291 C29.7906,44.6251 29.7756,44.5811 29.7706,44.5641 C29.6916,44.3311 29.1116,44.0721 28.8926,43.9751 C28.6086,43.8481 28.3646,43.7381 28.3226,43.4291 L28.2856,43.1521 L28.5096,42.9611 C36.0566,36.7991 34.2796,23.6361 33.5556,19.7481 L31.2216,6.5741 L30.4056,6.5851 C30.0326,6.5901 29.6606,6.7711 29.3606,7.0971 C28.9856,7.5011 28.7736,8.0731 28.8066,8.5901 L29.2396,15.3221 C29.3296,16.5461 29.4646,17.7741 29.6016,19.0201 C30.0706,23.2951 30.5556,27.7161 29.4526,33.1011 C28.7886,36.3371 27.8796,40.7691 24.3206,42.5241 C23.3916,42.9831 20.7756,43.6681 19.0596,42.7161 C11.5496,38.5411 12.2526,19.1841 12.6946,15.7971 L14.2376,3.9671 C14.3076,3.4331 14.1146,2.8341 13.7326,2.4051 C13.4216,2.0561 13.0306,1.8631 12.6276,1.8631 L12.6126,1.8631 L12.0106,1.8711 L9.9136,15.0991 C9.8396,15.5601 9.7206,16.2121 9.5746,17.0111 C8.6856,21.8621 6.6036,33.2231 8.1926,39.3461 L7.2236,39.5981 C5.5796,33.2601 7.6136,22.1631 8.5906,16.8301 C8.7356,16.0401 8.8536,15.3961 8.9256,14.9411 L11.1556,0.8831 L12.5996,0.8631 C13.3356,0.8321 13.9696,1.1661 14.4806,1.7411 C15.0566,2.3901 15.3366,3.2701 15.2296,4.0961 L13.6866,15.9261 C13.0776,20.5851 12.9946,38.2001 19.5456,41.8411 C20.8276,42.5571 23.0346,42.0441 23.8776,41.6281 C26.9976,40.0891 27.8506,35.9341 28.4726,32.8991 C29.5446,27.6691 29.0686,23.3271 28.6076,19.1291 C28.4696,17.8711 28.3326,16.6321 28.2416,15.3921 L27.8086,8.6541 C27.7576,7.8611 28.0636,7.0241 28.6256,6.4171 C29.1156,5.8891 29.7426,5.5941 30.3926,5.5851 L32.0576,5.5641 L34.5386,19.5691 C35.2706,23.4921 37.0286,36.5721 29.7026,43.2511 C30.1076,43.4601 30.5566,43.7681 30.7176,44.2451 C30.7906,44.4631 30.8316,44.8071 30.6106,45.2101 C29.0936,47.9721 25.8586,49.2931 23.2596,50.3551 C21.8336,50.9381 20.4866,51.4891 20.0776,52.0701 C15.3606,58.7911 20.0516,73.2251 20.0996,73.3691 L20.4316,74.3721 Z" id="Fill-163" stroke="none" fill="#52267D" fill-rule="evenodd" mask="url(#mask-24)"></path>
                        </g>
                    </g>
                    <path d="M42.0947,23.7031 C42.0947,23.7031 45.9957,25.8451 51.4147,23.7991 C51.0637,25.4931 50.3447,28.8961 50.3447,28.8961 C50.3447,28.8961 45.3197,30.5071 41.3977,28.1071 C41.7687,25.8621 42.0947,23.7031 42.0947,23.7031" id="Fill-202" fill="#FFFFFF" mask="url(#mask-6)"></path>
                    <path d="M41.9473,27.8486 C45.0663,29.5706 48.8753,28.7656 49.9183,28.4966 C50.0673,27.7896 50.4533,25.9616 50.7463,24.5576 C46.8013,25.7876 43.7563,24.9296 42.4893,24.4286 C42.3743,25.1766 42.1723,26.4766 41.9473,27.8486 M46.5503,29.9316 C44.8793,29.9316 42.9123,29.6196 41.1363,28.5346 L40.8493,28.3586 L40.9043,28.0266 C41.2743,25.7856 41.6003,23.6296 41.6003,23.6286 L41.7073,22.9236 L42.3343,23.2646 C42.3713,23.2856 46.1213,25.2626 51.2383,23.3306 L52.0903,23.0096 L51.9043,23.9006 C51.5523,25.5956 50.8343,28.9996 50.8343,28.9996 L50.7733,29.2846 L50.4973,29.3726 C50.3773,29.4106 48.7103,29.9316 46.5503,29.9316" id="Fill-204" fill="#52267D" mask="url(#mask-6)"></path>
                    <path d="M70.9482,13.499 C70.9482,13.499 70.7492,11.644 68.8942,10.929 C68.3282,10.71 66.8072,10.668 66.8072,10.668 C66.8072,10.668 66.4042,12.642 67.6572,13.212 C69.4612,14.033 70.9482,13.499 70.9482,13.499" id="Fill-206" fill="#FFFFFF" mask="url(#mask-6)"></path>
                    <path d="M67.2529,11.1895 C67.2289,11.6915 67.2859,12.4945 67.8639,12.7565 C68.9129,13.2345 69.8369,13.2055 70.3479,13.1265 C70.1809,12.6195 69.7569,11.7965 68.7149,11.3955 C68.4449,11.2915 67.7939,11.2225 67.2529,11.1895 M69.7319,14.1695 C69.1039,14.1695 68.3089,14.0575 67.4499,13.6675 C65.8539,12.9405 66.2979,10.6645 66.3169,10.5675 L66.4009,10.1565 L66.8209,10.1685 C66.9859,10.1725 68.4459,10.2195 69.0739,10.4615 C71.1899,11.2775 71.4359,13.3575 71.4449,13.4455 L71.4869,13.8365 L71.1169,13.9695 C71.0789,13.9835 70.5439,14.1695 69.7319,14.1695" id="Fill-208" fill="#52267D" mask="url(#mask-6)"></path>
                    <path d="M66.2539,12.6094 C66.2539,12.6094 66.1699,10.0794 63.3179,9.7454 C62.7859,9.6834 62.1049,9.7444 62.1049,9.7444 C62.1049,9.7444 60.7949,12.4204 62.2999,12.6584 C64.1499,12.9524 66.2539,12.6094 66.2539,12.6094" id="Fill-210" fill="#FFFFFF" mask="url(#mask-6)"></path>
                    <path d="M62.4365,10.2246 C62.1845,10.8306 61.9595,11.6766 62.1395,12.0226 C62.1605,12.0616 62.1995,12.1356 62.3775,12.1636 C63.6025,12.3596 64.9645,12.2586 65.6765,12.1806 C65.5065,11.5446 64.9675,10.4416 63.2595,10.2426 C62.9875,10.2096 62.6655,10.2146 62.4365,10.2246 M63.9765,13.2786 C63.4155,13.2786 62.8085,13.2456 62.2215,13.1526 C61.6615,13.0636 61.3845,12.7396 61.2515,12.4836 C60.7405,11.4976 61.4985,9.8456 61.6555,9.5246 L61.7795,9.2716 L62.0605,9.2456 C62.0905,9.2436 62.7975,9.1826 63.3755,9.2476 C65.9695,9.5526 66.7195,11.5696 66.7535,12.5926 L66.7685,13.0326 L66.3335,13.1026 C66.2725,13.1136 65.2395,13.2786 63.9765,13.2786" id="Fill-212" fill="#52267D" mask="url(#mask-6)"></path>
                    <path d="M60.8633,12.8604 C60.8633,12.8604 60.3823,10.0694 57.8913,10.9364 C56.8273,11.3064 56.2603,12.1474 56.2603,12.1474 C56.2603,12.1474 56.8433,14.2644 57.8373,13.9864 C59.5713,13.5004 60.8633,12.8604 60.8633,12.8604" id="Fill-214" fill="#FFFFFF" mask="url(#mask-6)"></path>
                    <path d="M56.8174,12.252 C56.9834,12.73 57.2754,13.319 57.5624,13.481 C57.6314,13.521 57.6684,13.514 57.7024,13.505 C58.8314,13.189 59.7764,12.801 60.2704,12.583 C60.1484,12.228 59.9014,11.704 59.4484,11.44 C59.0764,11.223 58.6224,11.212 58.0554,11.409 C57.4464,11.62 57.0234,12.022 56.8174,12.252 M57.6584,14.512 C57.4574,14.512 57.2574,14.458 57.0704,14.352 C56.2574,13.893 55.8514,12.546 55.7784,12.28 L55.7174,12.059 L55.8454,11.868 C55.8734,11.828 56.5194,10.884 57.7274,10.464 C58.5774,10.171 59.3284,10.208 59.9594,10.58 C61.0804,11.24 61.3454,12.713 61.3564,12.775 L61.4194,13.143 L61.0854,13.309 C61.0304,13.335 59.7314,13.975 57.9714,14.468 C57.8684,14.497 57.7624,14.512 57.6584,14.512" id="Fill-216" fill="#52267D" mask="url(#mask-6)"></path>
                    <path d="M35.2598,8.3525 C35.2598,8.3525 35.3408,7.3675 36.3148,6.9635 C36.6118,6.8395 37.0808,6.9615 37.0808,6.9615 C37.0808,6.9615 37.6568,7.8375 37.0008,8.1575 C36.0558,8.6165 35.2598,8.3525 35.2598,8.3525" id="Fill-218" fill="#F3E3FF" mask="url(#mask-6)"></path>
                    <path d="M39.7295,7.667 C39.7295,7.667 39.7445,5.846 41.7895,5.555 C42.1705,5.5 42.6625,5.531 42.6625,5.531 C42.6625,5.531 43.6515,7.433 42.5745,7.631 C41.2505,7.875 39.7295,7.667 39.7295,7.667" id="Fill-220" fill="#F3E3FF" mask="url(#mask-6)"></path>
                    <path d="M45.5879,8.4629 C45.5879,8.4629 45.8229,6.8579 47.2629,7.3179 C47.8769,7.5149 48.2139,7.9879 48.2139,7.9879 C48.2139,7.9879 47.9099,9.2089 47.3369,9.0639 C46.3369,8.8109 45.5879,8.4629 45.5879,8.4629" id="Fill-222" fill="#F3E3FF" mask="url(#mask-6)"></path>
                    <path d="M70.0264,13.0352 C70.0264,13.0352 69.9214,12.0552 68.9404,11.6772 C68.6404,11.5612 67.8374,11.5392 67.8374,11.5392 C67.8374,11.5392 67.6244,12.5822 68.2864,12.8842 C69.2394,13.3172 70.0264,13.0352 70.0264,13.0352" id="Fill-224" fill="#F3E3FF" mask="url(#mask-6)"></path>
                    <path d="M65.1436,12.1768 C65.1436,12.1768 65.0976,10.7778 63.5206,10.5938 C63.2266,10.5588 62.8496,10.5928 62.8496,10.5928 C62.8496,10.5928 62.1256,12.0728 62.9576,12.2038 C63.9806,12.3658 65.1436,12.1768 65.1436,12.1768" id="Fill-226" fill="#F3E3FF" mask="url(#mask-6)"></path>
                    <path d="M59.8652,12.6826 C59.8652,12.6826 59.6022,11.1566 58.2392,11.6296 C57.6572,11.8326 57.3472,12.2926 57.3472,12.2926 C57.3472,12.2926 57.6662,13.4516 58.2102,13.2986 C59.1582,13.0336 59.8652,12.6826 59.8652,12.6826" id="Fill-228" fill="#F3E3FF" mask="url(#mask-6)"></path>
                    <path d="M53.7285,28.3535 C53.7285,28.3535 58.5345,29.0405 63.0815,27.8645 C63.5565,30.3365 63.8655,32.2055 63.8655,32.2055 C63.8655,32.2055 60.7295,34.3925 54.8695,33.2205 C54.1395,30.0455 53.7285,28.3535 53.7285,28.3535" id="Fill-230" fill="#FFFFFF" mask="url(#mask-6)"></path>
                    <path d="M55.2832,32.791 C59.7202,33.595 62.4832,32.395 63.3152,31.949 C63.2162,31.366 62.9922,30.078 62.6882,28.475 C59.2592,29.26 55.8382,29.07 54.3812,28.931 C54.5552,29.663 54.8622,30.964 55.2832,32.791 M58.2292,34.068 C57.2042,34.068 56.0512,33.967 54.7712,33.711 L54.4542,33.647 L54.3822,33.333 C53.6532,30.164 53.2432,28.474 53.2422,28.472 L53.0682,27.755 L53.7992,27.858 C53.8462,27.866 58.5612,28.518 62.9562,27.38 L63.4712,27.247 L63.5722,27.77 C64.0492,30.25 64.3582,32.124 64.3582,32.124 L64.4102,32.435 L64.1512,32.615 C64.0452,32.689 62.0132,34.068 58.2292,34.068" id="Fill-232" fill="#52267D" mask="url(#mask-6)"></path>
                    <path d="M61.6006,23.4365 L67.0456,23.3685 C67.0106,20.6255 64.7596,18.4305 62.0176,18.4645 L61.5386,18.4705 C60.1666,18.4885 59.0696,19.6135 59.0866,20.9855 C59.1036,22.3565 60.2296,23.4545 61.6006,23.4365" id="Fill-234" fill="#F3E3FF" mask="url(#mask-6)"></path>
                    <path d="M62.1963,23.3359 L66.9513,23.2759 C66.9243,21.1209 65.1553,19.3969 63.0003,19.4239 L61.8713,19.4389 C60.8703,19.4499 60.0683,20.2729 60.0813,21.2729 C60.0953,22.4269 61.0423,23.3509 62.1963,23.3359" id="Fill-236" fill="#FFFFFF" mask="url(#mask-6)"></path>
                    <path d="M63.0508,19.9238 L63.0058,19.9238 L61.8778,19.9388 C61.5268,19.9428 61.1988,20.0828 60.9538,20.3338 C60.7088,20.5848 60.5758,20.9168 60.5808,21.2678 C60.5918,22.1368 61.3028,22.8358 62.1698,22.8358 L62.1828,22.8358 L66.4078,22.7828 C66.2938,22.0658 65.9538,21.4058 65.4248,20.8898 C64.7838,20.2658 63.9438,19.9238 63.0508,19.9238 L63.0508,19.9238 Z M62.1688,23.8358 C60.7568,23.8358 59.5988,22.6958 59.5808,21.2788 C59.5728,20.6618 59.8068,20.0778 60.2378,19.6358 C60.6698,19.1938 61.2468,18.9448 61.8648,18.9388 L62.9928,18.9238 C64.2138,18.9028 65.2808,19.3528 66.1228,20.1738 C66.9648,20.9938 67.4368,22.0938 67.4508,23.2708 L67.4568,23.7708 L62.2018,23.8358 L62.1688,23.8358 Z" id="Fill-238" fill="#52267D" mask="url(#mask-6)"></path>
                    <path d="M64.1865,22.3975 C63.9165,21.8595 64.1335,21.2055 64.6715,20.9345 C65.2095,20.6655 65.8645,20.8815 66.1345,21.4195 C66.4045,21.9585 66.1875,22.6125 65.6495,22.8825 C65.1115,23.1525 64.4565,22.9355 64.1865,22.3975" id="Fill-240" fill="#52267D" mask="url(#mask-6)"></path>
                    <path d="M42.7002,18.9658 L37.2552,19.0338 C37.2212,16.2908 39.4162,14.0398 42.1582,14.0058 L42.6382,13.9998 C44.0092,13.9828 45.1352,15.0798 45.1512,16.4508 C45.1692,17.8218 44.0712,18.9478 42.7002,18.9658" id="Fill-242" fill="#F3E3FF" mask="url(#mask-6)"></path>
                    <path d="M42.2402,18.8779 L37.3472,18.9399 C37.3202,16.7849 39.0452,15.0169 41.2002,14.9889 L42.1912,14.9769 C43.2682,14.9629 44.1532,15.8249 44.1662,16.9019 C44.1792,17.9809 43.3172,18.8639 42.2402,18.8779" id="Fill-244" fill="#FFFFFF" mask="url(#mask-6)"></path>
                    <path d="M42.2168,15.4766 L42.1968,15.4766 L41.2068,15.4896 C40.2978,15.5006 39.4478,15.8656 38.8138,16.5156 C38.2968,17.0446 37.9738,17.7126 37.8778,18.4326 L42.2348,18.3776 C43.0338,18.3686 43.6758,17.7086 43.6658,16.9086 C43.6608,16.5216 43.5058,16.1596 43.2288,15.8886 C42.9558,15.6226 42.5968,15.4766 42.2168,15.4766 L42.2168,15.4766 Z M36.8548,19.4456 L36.8478,18.9466 C36.8328,17.7706 37.2768,16.6596 38.0978,15.8176 C38.9178,14.9756 40.0178,14.5036 41.1948,14.4896 L42.1848,14.4766 L42.2168,14.4766 C42.8598,14.4766 43.4658,14.7226 43.9268,15.1726 C44.3958,15.6296 44.6578,16.2426 44.6658,16.8966 C44.6838,18.2476 43.5978,19.3606 42.2458,19.3776 L36.8548,19.4456 Z" id="Fill-246" fill="#52267D" mask="url(#mask-6)"></path>
                    <path d="M38.7119,17.8086 C39.1789,18.1876 39.8649,18.1166 40.2439,17.6496 C40.6239,17.1826 40.5529,16.4966 40.0849,16.1166 C39.6179,15.7376 38.9319,15.8086 38.5529,16.2766 C38.1729,16.7436 38.2439,17.4296 38.7119,17.8086" id="Fill-248" fill="#52267D" mask="url(#mask-6)"></path>
                    <path d="M73.6201,24.4189 L73.6201,24.4189 C73.3091,24.3569 73.0301,24.1879 72.8301,23.9419 L72.4591,23.4879 L73.2741,23.6519 L73.7551,23.7489 C73.9391,23.7859 74.0591,23.9659 74.0221,24.1509 C73.9851,24.3359 73.8051,24.4559 73.6201,24.4189" id="Fill-250" fill="#52267D" mask="url(#mask-6)"></path>
                    <path d="M31.5527,19.8506 L31.5527,19.8506 C31.8627,19.7806 32.1367,19.6056 32.3307,19.3546 L32.6907,18.8906 L31.8787,19.0756 L31.4017,19.1846 C31.2177,19.2266 31.1027,19.4096 31.1437,19.5936 C31.1857,19.7776 31.3687,19.8926 31.5527,19.8506" id="Fill-252" fill="#52267D" mask="url(#mask-6)"></path>
                    <path d="M42.5684,24.4043 C42.5684,24.4043 46.6484,26.0823 50.7214,24.4513 C50.3234,26.8573 49.9564,28.0883 49.9564,28.0883 C49.9564,28.0883 47.4954,28.2633 45.8604,27.9633 C43.5254,27.5333 42.5944,26.4863 42.5684,24.4043" id="Fill-254" fill="#EAF3FB" mask="url(#mask-6)"></path>
                    <path d="M48.2539,27.4121 C48.2539,27.4121 44.5649,27.7661 41.6879,26.3201" id="Fill-256" fill="#FFFFFF" mask="url(#mask-6)"></path>
                    <path d="M47.2012,27.9521 C45.8472,27.9521 43.4842,27.7821 41.4632,26.7671 L41.9122,25.8731 C44.6212,27.2341 48.1722,26.9161 48.2062,26.9141 L48.3022,27.9101 C48.2522,27.9151 47.8382,27.9521 47.2012,27.9521" id="Fill-258" fill="#52267D" mask="url(#mask-6)"></path>
                    <path d="M61.3359,28.7988 C61.3359,28.7988 57.7489,29.8678 54.5649,29.2728 C55.1939,31.6288 55.5219,32.3658 55.5219,32.3658 C55.5219,32.3658 60.2769,31.6708 61.3359,28.7988" id="Fill-260" fill="#EAF3FB" mask="url(#mask-6)"></path>
                    <g id="Group-264" mask="url(#mask-6)" fill="#F3E3FF">
                        <g transform="translate(59.000000, 62.000000)" id="Fill-262">
                            <path d="M0.8252,0.3994 C0.8252,0.3994 0.6102,0.5594 0.3032,0.7494"></path>
                        </g>
                    </g>
                    <path d="M61.7002,30.1553 C61.7002,30.1553 58.0852,30.8873 54.2322,30.4773" id="Fill-268" fill="#FFFFFF" mask="url(#mask-6)"></path>
                    <path d="M56.708,31.1035 C55.903,31.1035 55.05,31.0675 54.18,30.9745 L54.285,29.9805 C58.018,30.3765 61.564,29.6715 61.601,29.6655 L61.8,30.6455 C61.683,30.6685 59.497,31.1035 56.708,31.1035" id="Fill-270" fill="#52267D" mask="url(#mask-6)"></path>
                    <g id="Group-345" mask="url(#mask-6)">
                        <g transform="translate(9.000000, 15.000000)">
                            <path d="M2.6953,16.4053 C2.3343,16.4053 2.0373,16.1143 2.0323,15.7533 L2.2823,15.7493 C2.2853,15.9733 2.4693,16.1553 2.6943,16.1553 L2.6993,16.1553 C2.8083,16.1543 2.9113,16.1093 2.9873,16.0313 C3.0643,15.9523 3.1053,15.8483 3.1043,15.7393 L3.3543,15.7353 C3.3563,15.9123 3.2903,16.0793 3.1673,16.2053 C3.0433,16.3323 2.8783,16.4033 2.7023,16.4053 L2.6953,16.4053 Z" id="Fill-284" fill="#F3E3FF"></path>
                            <path d="M1.6211,16.418 C1.4481,16.418 1.2851,16.352 1.1611,16.231 C1.0341,16.107 0.9631,15.942 0.9611,15.767 L1.2111,15.763 C1.2141,15.987 1.3971,16.168 1.6221,16.168 L1.6271,16.168 C1.7371,16.167 1.8391,16.123 1.9151,16.045 C1.9921,15.967 2.0331,15.862 2.0321,15.753 L2.2821,15.749 C2.2841,15.927 2.2181,16.094 2.0951,16.22 C1.9711,16.346 1.8071,16.416 1.6301,16.418 L1.6211,16.418 Z" id="Fill-286" fill="#F3E3FF"></path>
                            <path d="M2.1641,16.9473 C1.9901,16.9473 1.8271,16.8813 1.7031,16.7603 C1.5771,16.6353 1.5061,16.4703 1.5041,16.2953 L1.7541,16.2913 C1.7551,16.4013 1.8001,16.5043 1.8781,16.5813 C1.9551,16.6563 2.0571,16.6973 2.1641,16.6973 L2.1691,16.6973 C2.3961,16.6943 2.5781,16.5083 2.5751,16.2823 L2.8251,16.2783 C2.8271,16.4553 2.7611,16.6223 2.6381,16.7483 C2.5141,16.8743 2.3491,16.9453 2.1731,16.9473 L2.1641,16.9473 Z" id="Fill-288" fill="#F3E3FF"></path>
                            <path d="M23.0869,15.2295 C22.9259,15.2295 22.7629,15.1875 22.6149,15.0985 L22.7439,14.8835 C23.0579,15.0745 23.4679,14.9725 23.6569,14.6595 C23.8469,14.3445 23.7459,13.9355 23.4329,13.7465 L23.5619,13.5315 C23.9929,13.7925 24.1319,14.3565 23.8719,14.7885 C23.6999,15.0725 23.3969,15.2295 23.0869,15.2295" id="Fill-290" fill="#F3E3FF"></path>
                            <path d="M23.3545,16.3135 C23.1935,16.3135 23.0305,16.2715 22.8825,16.1825 L23.0115,15.9675 C23.3255,16.1585 23.7365,16.0555 23.9245,15.7435 C24.0165,15.5905 24.0435,15.4135 24.0015,15.2405 C23.9585,15.0685 23.8515,14.9225 23.7005,14.8315 L23.8295,14.6165 C24.0385,14.7435 24.1855,14.9435 24.2445,15.1805 C24.3025,15.4175 24.2655,15.6635 24.1395,15.8725 C23.9675,16.1565 23.6645,16.3135 23.3545,16.3135" id="Fill-292" fill="#F3E3FF"></path>
                            <path d="M47.7188,10.6855 C47.4788,10.6855 47.2528,10.5935 47.0808,10.4255 C46.9068,10.2555 46.8088,10.0275 46.8058,9.7825 L47.0558,9.7805 C47.0578,9.9565 47.1288,10.1235 47.2558,10.2475 C47.3808,10.3695 47.5448,10.4355 47.7188,10.4355 L47.7248,10.4355 C47.9058,10.4335 48.0718,10.3625 48.1958,10.2355 C48.3198,10.1085 48.3868,9.9405 48.3848,9.7625 L48.6348,9.7605 C48.6378,10.0045 48.5448,10.2355 48.3748,10.4105 C48.2038,10.5845 47.9758,10.6825 47.7308,10.6855 L47.7188,10.6855 Z" id="Fill-303" fill="#F3E3FF"></path>
                            <path d="M46.9395,11.4854 C46.7005,11.4854 46.4735,11.3934 46.3015,11.2254 C46.1275,11.0544 46.0285,10.8274 46.0255,10.5834 L46.2755,10.5794 C46.2775,10.7564 46.3495,10.9234 46.4765,11.0474 C46.6035,11.1704 46.7695,11.2464 46.9485,11.2354 C47.1265,11.2334 47.2925,11.1624 47.4165,11.0354 C47.5405,10.9074 47.6065,10.7404 47.6045,10.5624 L47.8545,10.5584 C47.8575,10.8034 47.7655,11.0344 47.5955,11.2094 C47.4245,11.3834 47.1965,11.4824 46.9525,11.4854 L46.9395,11.4854 Z" id="Fill-305" fill="#F3E3FF"></path>
                            <path d="M37.9717,24.9258 C37.6877,24.9258 37.4187,24.8168 37.2147,24.6178 C37.0077,24.4158 36.8917,24.1448 36.8877,23.8558 L37.1377,23.8518 C37.1407,24.0748 37.2307,24.2828 37.3897,24.4398 C37.5457,24.5918 37.7527,24.6758 37.9717,24.6758 L37.9827,24.6758 C38.4437,24.6698 38.8127,24.2908 38.8067,23.8308 L39.0567,23.8268 C39.0647,24.4258 38.5837,24.9178 37.9867,24.9258 L37.9717,24.9258 Z" id="Fill-307" fill="#F3E3FF"></path>
                            <path d="M37.0244,25.8975 C36.7404,25.8975 36.4714,25.7885 36.2674,25.5895 C36.0604,25.3875 35.9444,25.1165 35.9404,24.8275 L36.1904,24.8235 C36.1934,25.0465 36.2834,25.2545 36.4424,25.4115 C36.5984,25.5635 36.8054,25.6475 37.0244,25.6475 L37.0354,25.6475 C37.4964,25.6415 37.8654,25.2625 37.8594,24.8025 L38.1094,24.7985 C38.1174,25.3975 37.6364,25.8895 37.0394,25.8975 L37.0244,25.8975 Z" id="Fill-309" fill="#F3E3FF"></path>
                            <path d="M23.4189,0.9326 C22.9989,0.9326 22.6559,0.5946 22.6509,0.1746 L22.9009,0.1726 C22.9029,0.3106 22.9579,0.4396 23.0569,0.5356 C23.1539,0.6306 23.2819,0.6826 23.4189,0.6826 L23.4249,0.6826 C23.5629,0.6806 23.6909,0.6246 23.7879,0.5266 C23.8849,0.4276 23.9369,0.2966 23.9349,0.1596 L24.1849,0.1556 C24.1879,0.3606 24.1099,0.5536 23.9669,0.7016 C23.8239,0.8476 23.6329,0.9296 23.4279,0.9326 L23.4189,0.9326 Z" id="Fill-311" fill="#F3E3FF"></path>
                            <path d="M22.7822,1.582 C22.3662,1.582 22.0232,1.245 22.0172,0.825 L22.2672,0.821 C22.2712,1.104 22.5022,1.332 22.7832,1.332 L22.7902,1.332 C22.9282,1.33 23.0572,1.275 23.1542,1.177 C23.2512,1.077 23.3032,0.947 23.3012,0.81 L23.5512,0.806 C23.5532,1.011 23.4762,1.204 23.3332,1.351 C23.1902,1.498 22.9982,1.58 22.7932,1.582 L22.7822,1.582 Z" id="Fill-313" fill="#F3E3FF"></path>
                            <g id="Group-317" stroke-width="1" fill="none" transform="translate(83.000000, 63.000000)">
                                <path d="M1.5469,1.4941 C1.5259,1.4941 1.5059,1.4931 1.4849,1.4911 C1.2549,1.4751 1.0449,1.3701 0.8939,1.1961 L1.0829,1.0321 C1.1909,1.1561 1.3399,1.2301 1.5029,1.2421 C1.6559,1.2521 1.8239,1.2011 1.9489,1.0931 C2.2049,0.8711 2.2329,0.4821 2.0099,0.2271 L2.1989,0.0631 C2.5109,0.4231 2.4729,0.9691 2.1129,1.2821 C1.9539,1.4201 1.7549,1.4941 1.5469,1.4941" id="Fill-315" fill="#F3E3FF"></path>
                            </g>
                            <g id="Group-320" stroke-width="1" fill="none" transform="translate(83.000000, 64.000000)">
                                <path d="M1.4746,1.5361 C1.4546,1.5361 1.4346,1.5351 1.4136,1.5341 C1.1836,1.5181 0.9736,1.4141 0.8216,1.2391 L1.0106,1.0751 C1.1186,1.1991 1.2676,1.2731 1.4316,1.2851 C1.5796,1.2941 1.7526,1.2421 1.8756,1.1361 C2.1316,0.9131 2.1596,0.5241 1.9366,0.2691 L2.1256,0.1051 C2.4376,0.4651 2.3996,1.0111 2.0396,1.3241 C1.8816,1.4621 1.6826,1.5361 1.4746,1.5361" id="Fill-318" fill="#F3E3FF"></path>
                            </g>
                            <path d="M39.6729,7.4492 C39.1279,7.4492 38.6809,7.0092 38.6729,6.4632 L38.9229,6.4592 C38.9289,6.8712 39.2699,7.1982 39.6819,7.1992 C39.8829,7.1972 40.0699,7.1162 40.2099,6.9722 C40.3499,6.8302 40.4249,6.6402 40.4219,6.4402 L40.6719,6.4362 C40.6759,6.7042 40.5749,6.9562 40.3889,7.1472 C40.2019,7.3392 39.9519,7.4462 39.6859,7.4492 L39.6729,7.4492 Z" id="Fill-336" fill="#F3E3FF"></path>
                            <path d="M49.2539,21.9502 C49.0489,21.9502 48.8539,21.8712 48.7059,21.7262 C48.5549,21.5802 48.4709,21.3832 48.4679,21.1732 L48.7179,21.1692 C48.7199,21.3122 48.7769,21.4472 48.8799,21.5482 C48.9819,21.6462 49.1139,21.7002 49.2549,21.7002 L49.2619,21.7002 C49.5589,21.6972 49.7969,21.4532 49.7939,21.1552 L50.0439,21.1532 C50.0489,21.5882 49.6989,21.9452 49.2649,21.9502 L49.2539,21.9502 Z" id="Fill-341" fill="#F3E3FF"></path>
                            <path d="M64.6797,6.5332 C64.3397,6.5332 64.0617,6.2592 64.0567,5.9192 L64.3067,5.9152 C64.3097,6.1192 64.4767,6.2832 64.6797,6.2832 L64.6837,6.2832 C64.7827,6.2822 64.8757,6.2422 64.9457,6.1712 C65.0147,6.0992 65.0517,6.0052 65.0507,5.9062 L65.3007,5.9022 C65.3027,6.0682 65.2407,6.2252 65.1237,6.3452 C65.0087,6.4642 64.8527,6.5312 64.6867,6.5332 L64.6797,6.5332 Z" id="Fill-343" fill="#F3E3FF"></path>
                        </g>
                    </g>
                </g>
                <g id="Group-414" transform="translate(34.000000, 37.655000)">
                    <path d="M93.2207,142.3555 L66.8257,142.3555 C66.2737,142.3555 65.8257,141.9085 65.8257,141.3555 C65.8257,140.8025 66.2737,140.3555 66.8257,140.3555 L93.2207,140.3555 C93.7737,140.3555 94.2207,140.8025 94.2207,141.3555 C94.2207,141.9085 93.7737,142.3555 93.2207,142.3555 Z" id="Fill-347" fill="#9ACDED"></path>
                    <path d="M58.3486,20.8135 L58.3486,28.3135" id="Fill-349" fill="#FFFFFF"></path>
                    <polygon id="Fill-351" fill="#375D81" points="57.349 28.313 59.349 28.313 59.349 20.813 57.349 20.813"></polygon>
                    <path d="M123.9141,20.8135 L123.9141,28.3135" id="Fill-353" fill="#FFFFFF"></path>
                    <polygon id="Fill-354" fill="#375D81" points="122.914 28.313 124.914 28.313 124.914 20.813 122.914 20.813"></polygon>
                    <path d="M146.8262,123.3613 L146.8262,143.6463" id="Fill-355" fill="#FFFFFF"></path>
                    <polygon id="Fill-356" fill="#375D81" points="145.826 143.646 147.826 143.646 147.826 123.361 145.826 123.361"></polygon>
                    <path d="M77.1377,150.0322 L77.1377,159.3132" id="Fill-357" fill="#FFFFFF"></path>
                    <path d="M77.1377,160.3135 C76.5847,160.3135 76.1377,159.8665 76.1377,159.3135 L76.1377,150.0325 C76.1377,149.4795 76.5847,149.0325 77.1377,149.0325 C77.6907,149.0325 78.1377,149.4795 78.1377,150.0325 L78.1377,159.3135 C78.1377,159.8665 77.6907,160.3135 77.1377,160.3135" id="Fill-358" fill="#E1F2FF"></path>
                    <path d="M86.3262,147.9805 L86.3262,154.5465" id="Fill-359" fill="#FFFFFF"></path>
                    <path d="M86.3262,155.5469 C85.7732,155.5469 85.3262,155.0999 85.3262,154.5469 L85.3262,147.9809 C85.3262,147.4279 85.7732,146.9809 86.3262,146.9809 C86.8792,146.9809 87.3262,147.4279 87.3262,147.9809 L87.3262,154.5469 C87.3262,155.0999 86.8792,155.5469 86.3262,155.5469" id="Fill-360" fill="#E1F2FF"></path>
                    <path d="M95.1592,155.6807 L95.1592,159.3137" id="Fill-361" fill="#FFFFFF"></path>
                    <path d="M95.1592,160.3135 C94.6062,160.3135 94.1592,159.8665 94.1592,159.3135 L94.1592,155.6805 C94.1592,155.1275 94.6062,154.6805 95.1592,154.6805 C95.7122,154.6805 96.1592,155.1275 96.1592,155.6805 L96.1592,159.3135 C96.1592,159.8665 95.7122,160.3135 95.1592,160.3135" id="Fill-362" fill="#E1F2FF"></path>
                    <path d="M100.8262,152.0469 L100.8262,155.6809" id="Fill-363" fill="#FFFFFF"></path>
                    <path d="M100.8262,156.6807 C100.2732,156.6807 99.8262,156.2337 99.8262,155.6807 L99.8262,152.0467 C99.8262,151.4937 100.2732,151.0467 100.8262,151.0467 C101.3792,151.0467 101.8262,151.4937 101.8262,152.0467 L101.8262,155.6807 C101.8262,156.2337 101.3792,156.6807 100.8262,156.6807" id="Fill-364" fill="#E1F2FF"></path>
                    <path d="M103.2207,155.6807 L78.0707,155.6807" id="Fill-365" fill="#FFFFFF"></path>
                    <path d="M103.2207,156.6807 L78.0707,156.6807 C77.5177,156.6807 77.0707,156.2337 77.0707,155.6807 C77.0707,155.1277 77.5177,154.6807 78.0707,154.6807 L103.2207,154.6807 C103.7737,154.6807 104.2207,155.1277 104.2207,155.6807 C104.2207,156.2337 103.7737,156.6807 103.2207,156.6807" id="Fill-366" fill="#E1F2FF"></path>
                    <path d="M118.7207,106.5527 L118.7207,99.9857" id="Fill-367" fill="#FFFFFF"></path>
                    <path d="M118.7207,107.5527 C118.1677,107.5527 117.7207,107.1057 117.7207,106.5527 L117.7207,99.9857 C117.7207,99.4327 118.1677,98.9857 118.7207,98.9857 C119.2737,98.9857 119.7207,99.4327 119.7207,99.9857 L119.7207,106.5527 C119.7207,107.1057 119.2737,107.5527 118.7207,107.5527" id="Fill-368" fill="#E1F2FF"></path>
                    <path d="M108.8877,107.8525 L108.8877,104.2185" id="Fill-369" fill="#FFFFFF"></path>
                    <path d="M108.8877,108.8525 C108.3347,108.8525 107.8877,108.4055 107.8877,107.8525 L107.8877,104.2185 C107.8877,103.6655 108.3347,103.2185 108.8877,103.2185 C109.4407,103.2185 109.8877,103.6655 109.8877,104.2185 L109.8877,107.8525 C109.8877,108.4055 109.4407,108.8525 108.8877,108.8525" id="Fill-370" fill="#E1F2FF"></path>
                    <path d="M103.2207,111.4854 L103.2207,107.8524" id="Fill-371" fill="#FFFFFF"></path>
                    <path d="M103.2207,112.4854 C102.6677,112.4854 102.2207,112.0384 102.2207,111.4854 L102.2207,107.8524 C102.2207,107.2994 102.6677,106.8524 103.2207,106.8524 C103.7737,106.8524 104.2207,107.2994 104.2207,107.8524 L104.2207,111.4854 C104.2207,112.0384 103.7737,112.4854 103.2207,112.4854" id="Fill-372" fill="#E1F2FF"></path>
                    <path d="M100.8262,107.8525 L111.9762,107.8525" id="Fill-373" fill="#FFFFFF"></path>
                    <path d="M111.9766,108.8525 L100.8266,108.8525 C100.2736,108.8525 99.8266,108.4055 99.8266,107.8525 C99.8266,107.2995 100.2736,106.8525 100.8266,106.8525 L111.9766,106.8525 C112.5296,106.8525 112.9766,107.2995 112.9766,107.8525 C112.9766,108.4055 112.5296,108.8525 111.9766,108.8525" id="Fill-374" fill="#E1F2FF"></path>
                    <path d="M108.5293,137.2109 L108.5293,132.6449" id="Fill-375" fill="#FFFFFF"></path>
                    <path d="M108.5293,138.2109 C107.9763,138.2109 107.5293,137.7639 107.5293,137.2109 L107.5293,132.6449 C107.5293,132.0919 107.9763,131.6449 108.5293,131.6449 C109.0823,131.6449 109.5293,132.0919 109.5293,132.6449 L109.5293,137.2109 C109.5293,137.7639 109.0823,138.2109 108.5293,138.2109" id="Fill-376" fill="#E1F2FF"></path>
                    <path d="M167.9111,120.2842 L167.9111,123.9182" id="Fill-377" fill="#FFFFFF"></path>
                    <path d="M167.9111,124.918 C167.3581,124.918 166.9111,124.471 166.9111,123.918 L166.9111,120.284 C166.9111,119.731 167.3581,119.284 167.9111,119.284 C168.4641,119.284 168.9111,119.731 168.9111,120.284 L168.9111,123.918 C168.9111,124.471 168.4641,124.918 167.9111,124.918" id="Fill-378" fill="#E1F2FF"></path>
                    <path d="M106.1006,131.5107 L112.6026,131.5107" id="Fill-379" fill="#FFFFFF"></path>
                    <path d="M112.6025,132.5107 L106.1005,132.5107 C105.5475,132.5107 105.1005,132.0637 105.1005,131.5107 C105.1005,130.9577 105.5475,130.5107 106.1005,130.5107 L112.6025,130.5107 C113.1555,130.5107 113.6025,130.9577 113.6025,131.5107 C113.6025,132.0637 113.1555,132.5107 112.6025,132.5107" id="Fill-380" fill="#E1F2FF"></path>
                    <polygon id="Fill-381" fill="#E1F2FF" points="18.7461 86.834 163.0911 81.924 163.0911 75.993 18.7461 75.993"></polygon>
                    <path d="M198.1992,92.876 C198.1992,100.426 192.0782,106.547 184.5282,106.547 C176.9782,106.547 170.8572,100.426 170.8572,92.876 C170.8572,85.325 176.9782,79.205 184.5282,79.205 C192.0782,79.205 198.1992,85.325 198.1992,92.876" id="Fill-382" fill="#FFFFFF"></path>
                    <path d="M184.5283,80.2051 C177.5423,80.2051 171.8573,85.8901 171.8573,92.8761 C171.8573,99.8621 177.5423,105.5471 184.5283,105.5471 C191.5143,105.5471 197.1993,99.8621 197.1993,92.8761 C197.1993,85.8901 191.5143,80.2051 184.5283,80.2051 M184.5283,107.5471 C176.4383,107.5471 169.8573,100.9661 169.8573,92.8761 C169.8573,84.7861 176.4383,78.2051 184.5283,78.2051 C192.6183,78.2051 199.1993,84.7861 199.1993,92.8761 C199.1993,100.9661 192.6183,107.5471 184.5283,107.5471" id="Fill-383" fill="#375D81"></path>
                    <path d="M188.8086,100.5137 C188.8736,100.7077 188.9316,100.8397 188.9496,100.8837 C188.9546,100.8887 188.9436,100.8817 188.9496,100.8837 C188.9496,100.8837 188.9496,100.8857 188.9496,100.8837 C188.9496,100.8847 188.9486,100.8837 188.9486,100.8837 C188.5076,96.6337 190.9176,94.8627 191.6936,92.0387 C191.6976,91.9967 191.7046,91.9507 191.7176,91.8997 C191.7336,91.8367 191.7466,91.7717 191.7566,91.7057 C191.8716,90.9247 191.5516,90.0157 190.9456,89.0697 C190.9426,89.0637 190.9386,89.0587 190.9356,89.0537 C190.8856,88.9747 190.8326,88.8967 190.7796,88.8177 C190.7796,88.8177 190.7776,88.8167 190.7776,88.8147 C190.6776,88.6707 190.5716,88.5257 190.4596,88.3797 C190.4486,88.3657 190.4376,88.3497 190.4256,88.3347 C190.3946,88.2947 190.3616,88.2557 190.3306,88.2157 C190.2986,88.1747 190.2666,88.1337 190.2346,88.0937 C190.2006,88.0537 190.1676,88.0137 190.1346,87.9747 C190.1006,87.9337 190.0666,87.8927 190.0316,87.8517 C190.0076,87.8247 189.9826,87.7947 189.9566,87.7657 C189.0046,86.6687 187.7646,85.5847 186.4706,84.6417 C186.4706,84.6417 186.4606,84.6267 186.4706,84.6417 C186.6416,86.2417 186.6636,87.8407 186.5126,89.1197 C186.3296,90.6617 185.7776,92.4567 185.0116,94.0837 C183.2196,93.9377 181.3886,93.5227 179.9596,92.9127 C178.7656,92.4027 177.3976,91.5977 176.0886,90.6437 C176.1036,90.7767 176.1196,90.9077 176.1346,91.0397 C176.1396,91.0787 176.1456,91.1187 176.1506,91.1587 C176.1626,91.2527 176.1746,91.3467 176.1896,91.4417 C176.1946,91.4857 176.2016,91.5287 176.2076,91.5727 C176.2216,91.6667 176.2366,91.7617 176.2506,91.8557 C176.2566,91.8937 176.2636,91.9317 176.2696,91.9707 C176.2886,92.0897 176.3096,92.2077 176.3306,92.3257 C176.3326,92.3387 176.3336,92.3507 176.3366,92.3617 C176.3616,92.4987 176.3876,92.6357 176.4146,92.7717 C176.4156,92.7827 176.4186,92.7917 176.4216,92.8027 C176.4466,92.9257 176.4706,93.0457 176.4966,93.1667 C176.5026,93.1917 176.5086,93.2157 176.5136,93.2407 C176.5376,93.3507 176.5636,93.4597 176.5886,93.5707 C176.5956,93.5907 176.6006,93.6127 176.6056,93.6347 C176.6366,93.7607 176.6666,93.8867 176.7006,94.0107 C176.7016,94.0107 176.7016,94.0127 176.7016,94.0127 C176.8066,94.4107 176.9226,94.7967 177.0486,95.1657 C177.0496,95.1707 177.0516,95.1747 177.0526,95.1797 C177.2656,95.7967 177.5076,96.3657 177.7786,96.8637 C177.8186,96.9357 177.8586,97.0067 177.8996,97.0757 C177.9016,97.0777 177.9016,97.0807 177.9036,97.0837 L177.9046,97.0837 C177.9406,97.1477 177.9786,97.2097 178.0156,97.2697 L178.0166,97.2707 C178.0166,97.2707 178.0206,97.2747 178.0216,97.2767 C178.0616,97.3417 178.1036,97.4057 178.1466,97.4657 C178.1526,97.4747 178.1576,97.4827 178.1636,97.4907 L178.1636,97.4927 C178.2186,97.5717 178.2756,97.6477 178.3296,97.7207 C178.3406,97.7327 178.3506,97.7437 178.3596,97.7557 C178.3626,97.7597 178.3666,97.7637 178.3696,97.7697 C178.4336,97.8507 178.4996,97.9297 178.5686,98.0027 C178.6156,98.0557 178.6626,98.1047 178.7116,98.1537 C178.7326,98.1737 178.7536,98.1927 178.7746,98.2117 C178.8046,98.2407 178.8346,98.2677 178.8666,98.2947 C178.8886,98.3147 178.9126,98.3317 178.9366,98.3527 C178.9646,98.3767 178.9956,98.3997 179.0256,98.4227 C179.0486,98.4417 179.0726,98.4567 179.0976,98.4747 C179.1276,98.4957 179.1586,98.5167 179.1896,98.5377 C179.2126,98.5527 179.2376,98.5677 179.2616,98.5817 C179.2946,98.6017 179.3286,98.6187 179.3606,98.6387 C179.3836,98.6507 179.4076,98.6617 179.4286,98.6737 C179.4666,98.6917 179.5046,98.7077 179.5436,98.7247 C179.5616,98.7317 179.5806,98.7417 179.6006,98.7477 C179.6596,98.7727 179.7176,98.7917 179.7766,98.8087 C179.8166,98.8207 179.8506,98.8317 179.8826,98.8447 C182.7206,99.5947 185.4836,98.4067 188.9496,100.8837" id="Fill-384" fill="#9452BA"></path>
                    <path d="M155.6592,111.4854 L160.8262,111.4854" id="Fill-385" fill="#FFFFFF"></path>
                    <path d="M160.8262,112.4854 L155.6592,112.4854 C155.1062,112.4854 154.6592,112.0384 154.6592,111.4854 C154.6592,110.9324 155.1062,110.4854 155.6592,110.4854 L160.8262,110.4854 C161.3792,110.4854 161.8262,110.9324 161.8262,111.4854 C161.8262,112.0384 161.3792,112.4854 160.8262,112.4854" id="Fill-386" fill="#E1F2FF"></path>
                    <path d="M99.2432,90.1211 L104.4092,90.1211" id="Fill-387" fill="#FFFFFF"></path>
                    <path d="M104.4092,91.1211 L99.2432,91.1211 C98.6902,91.1211 98.2432,90.6741 98.2432,90.1211 C98.2432,89.5681 98.6902,89.1211 99.2432,89.1211 L104.4092,89.1211 C104.9622,89.1211 105.4092,89.5681 105.4092,90.1211 C105.4092,90.6741 104.9622,91.1211 104.4092,91.1211" id="Fill-388" fill="#E1F2FF"></path>
                    <path d="M153.6592,141.3555 L157.6592,141.3555" id="Fill-389" fill="#FFFFFF"></path>
                    <path d="M157.6592,142.3555 L153.6592,142.3555 C153.1062,142.3555 152.6592,141.9085 152.6592,141.3555 C152.6592,140.8025 153.1062,140.3555 153.6592,140.3555 L157.6592,140.3555 C158.2122,140.3555 158.6592,140.8025 158.6592,141.3555 C158.6592,141.9085 158.2122,142.3555 157.6592,142.3555" id="Fill-390" fill="#E1F2FF"></path>
                    <path d="M50.4189,147.9805 L54.4189,147.9805" id="Fill-391" fill="#FFFFFF"></path>
                    <path d="M54.4189,148.9805 L50.4189,148.9805 C49.8659,148.9805 49.4189,148.5335 49.4189,147.9805 C49.4189,147.4275 49.8659,146.9805 50.4189,146.9805 L54.4189,146.9805 C54.9719,146.9805 55.4189,147.4275 55.4189,147.9805 C55.4189,148.5335 54.9719,148.9805 54.4189,148.9805" id="Fill-392" fill="#E1F2FF"></path>
                    <path d="M126.7266,124.918 C126.5616,124.918 126.3946,124.877 126.2406,124.791 C125.7576,124.522 125.5846,123.912 125.8546,123.431 L136.1626,104.982 C136.4316,104.5 137.0396,104.327 137.5226,104.597 C138.0046,104.866 138.1776,105.476 137.9086,105.957 L127.6006,124.405 C127.4166,124.733 127.0776,124.918 126.7266,124.918" id="Fill-393" fill="#FFFFFF"></path>
                    <path d="M134.6357,123.7197 C134.4667,123.7197 134.2947,123.6767 134.1377,123.5857 C133.6587,123.3107 133.4937,122.6987 133.7707,122.2207 L140.7397,110.1237 C141.0147,109.6457 141.6267,109.4797 142.1057,109.7567 C142.5837,110.0317 142.7487,110.6437 142.4727,111.1217 L135.5027,123.2187 C135.3187,123.5397 134.9817,123.7197 134.6357,123.7197" id="Fill-394" fill="#FFFFFF"></path>
                    <path d="M166.667,75.0449 L15.17,75.0449 L15.17,65.0069 C15.17,49.6029 27.657,37.1149 43.062,37.1149 L138.775,37.1149 C154.179,37.1149 166.667,49.6029 166.667,65.0069 L166.667,75.0449 Z" id="Fill-395" fill="#E1F2FF"></path>
                    <path d="M16.1699,74.0449 L165.6669,74.0449 L165.6669,65.0069 C165.6669,50.1789 153.6039,38.1149 138.7749,38.1149 L43.0619,38.1149 C28.2329,38.1149 16.1699,50.1789 16.1699,65.0069 L16.1699,74.0449 Z M167.6669,76.0449 L14.1699,76.0449 L14.1699,65.0069 C14.1699,49.0759 27.1309,36.1149 43.0619,36.1149 L138.7749,36.1149 C154.7059,36.1149 167.6669,49.0759 167.6669,65.0069 L167.6669,76.0449 Z" id="Fill-396" fill="#9ACDED"></path>
                    <path d="M151.0146,75.0449 L30.8226,75.0449 L30.8226,65.0069 C30.8226,49.6029 43.3096,37.1149 58.7136,37.1149 L123.1226,37.1149 C138.5276,37.1149 151.0146,49.6029 151.0146,65.0069 L151.0146,75.0449 Z" id="Fill-397" fill="#FFFFFF"></path>
                    <path d="M31.8223,74.0449 L150.0143,74.0449 L150.0143,65.0069 C150.0143,50.1789 137.9513,38.1149 123.1233,38.1149 L58.7143,38.1149 C43.8853,38.1149 31.8223,50.1789 31.8223,65.0069 L31.8223,74.0449 Z M152.0143,76.0449 L29.8223,76.0449 L29.8223,65.0069 C29.8223,49.0759 42.7833,36.1149 58.7143,36.1149 L123.1233,36.1149 C139.0533,36.1149 152.0143,49.0759 152.0143,65.0069 L152.0143,76.0449 Z" id="Fill-398" fill="#9ACDED"></path>
                    <path d="M134.4004,75.0449 L47.4364,75.0449 L47.4364,65.0069 C47.4364,49.6029 59.9234,37.1149 75.3284,37.1149 L106.5074,37.1149 C121.9124,37.1149 134.4004,49.6029 134.4004,65.0069 L134.4004,75.0449 Z" id="Fill-399" fill="#E1F2FF"></path>
                    <path d="M48.4365,74.0449 L133.4005,74.0449 L133.4005,65.0069 C133.4005,50.1789 121.3365,38.1149 106.5075,38.1149 L75.3285,38.1149 C60.4995,38.1149 48.4365,50.1789 48.4365,65.0069 L48.4365,74.0449 Z M135.4005,76.0449 L46.4365,76.0449 L46.4365,65.0069 C46.4365,49.0759 59.3975,36.1149 75.3285,36.1149 L106.5075,36.1149 C122.4395,36.1149 135.4005,49.0759 135.4005,65.0069 L135.4005,76.0449 Z" id="Fill-400" fill="#9ACDED"></path>
                    <path d="M118.8096,75.0449 L63.0266,75.0449 L63.0266,65.0069 C63.0266,49.6029 75.5136,37.1149 90.9176,37.1149 C106.3226,37.1149 118.8096,49.6029 118.8096,65.0069 L118.8096,75.0449 Z" id="Fill-401" fill="#FFFFFF"></path>
                    <path d="M64.0264,74.0449 L117.8094,74.0449 L117.8094,65.0069 C117.8094,50.1789 105.7464,38.1149 90.9184,38.1149 C76.0894,38.1149 64.0264,50.1789 64.0264,65.0069 L64.0264,74.0449 Z M119.8094,76.0449 L62.0264,76.0449 L62.0264,65.0069 C62.0264,49.0759 74.9874,36.1149 90.9184,36.1149 C106.8484,36.1149 119.8094,49.0759 119.8094,65.0069 L119.8094,76.0449 Z" id="Fill-402" fill="#9ACDED"></path>
                    <path d="M91.2598,37.1152 L95.1538,42.8532 C99.4488,49.1862 101.8258,57.4012 101.8258,65.9172 L101.8258,75.0452 L80.0108,75.0452 L80.0108,65.9172 C80.0108,57.4012 82.3868,49.1862 86.6838,42.8532 L90.5758,37.1152" id="Fill-403" fill="#E1F2FF"></path>
                    <path d="M81.0107,74.0449 L100.8257,74.0449 L100.8257,65.9169 C100.8257,57.5859 98.5177,49.5949 94.3257,43.4149 L90.9177,38.3929 L87.5107,43.4149 C83.3197,49.5929 81.0107,57.5849 81.0107,65.9169 L81.0107,74.0449 Z M102.8257,76.0449 L79.0107,76.0449 L79.0107,65.9169 C79.0107,57.1889 81.4417,48.7979 85.8567,42.2919 L89.7487,36.5539 C90.0117,36.1669 90.4987,36.0229 90.9177,36.1749 C91.3377,36.0229 91.8237,36.1669 92.0867,36.5539 L95.9807,42.2919 C100.3957,48.7999 102.8257,57.1899 102.8257,65.9169 L102.8257,76.0449 Z" id="Fill-404" fill="#9ACDED"></path>
                    <path d="M2.0771,74.0449 L179.7601,74.0449 L179.7601,65.0069 C179.7601,50.1789 167.6951,38.1149 152.8671,38.1149 L28.9691,38.1149 C14.1401,38.1149 2.0771,50.1789 2.0771,65.0069 L2.0771,74.0449 Z M181.7601,76.0449 L0.0771,76.0449 L0.0771,65.0069 C0.0771,49.0759 13.0381,36.1149 28.9691,36.1149 L152.8671,36.1149 C168.7991,36.1149 181.7601,49.0759 181.7601,65.0069 L181.7601,76.0449 Z" id="Fill-405" fill="#375D81"></path>
                    <path d="M159.8262,33.7139 L84.8262,33.7139 C84.2732,33.7139 83.8262,33.2669 83.8262,32.7139 C83.8262,32.1609 84.2732,31.7139 84.8262,31.7139 L159.8262,31.7139 C160.3792,31.7139 160.8262,32.1609 160.8262,32.7139 C160.8262,33.2669 160.3792,33.7139 159.8262,33.7139" id="Fill-406" fill="#E1F2FF"></path>
                    <path d="M39.8262,33.7139 L21.8262,33.7139 C21.2732,33.7139 20.8262,33.2669 20.8262,32.7139 C20.8262,32.1609 21.2732,31.7139 21.8262,31.7139 L39.8262,31.7139 C40.3792,31.7139 40.8262,32.1609 40.8262,32.7139 C40.8262,33.2669 40.3792,33.7139 39.8262,33.7139" id="Fill-407" fill="#E1F2FF"></path>
                    <path d="M75.7695,4.4756 C75.6975,4.6016 75.6215,4.6936 75.5405,4.7506 C75.4585,4.8076 75.3585,4.8356 75.2385,4.8356 C75.1125,4.8356 74.9765,4.7896 74.8295,4.6966 C74.6815,4.6036 74.5065,4.4996 74.3025,4.3856 C74.0985,4.2726 73.8605,4.1686 73.5865,4.0756 C73.3145,3.9826 72.9915,3.9366 72.6195,3.9366 C72.2835,3.9366 71.9895,3.9766 71.7375,4.0576 C71.4855,4.1386 71.2745,4.2506 71.1035,4.3956 C70.9315,4.5386 70.8045,4.7116 70.7205,4.9126 C70.6365,5.1136 70.5945,5.3336 70.5945,5.5746 C70.5945,5.8796 70.6795,6.1346 70.8515,6.3386 C71.0225,6.5426 71.2485,6.7166 71.5305,6.8616 C71.8125,7.0046 72.1335,7.1336 72.4935,7.2476 C72.8535,7.3626 73.2225,7.4836 73.6005,7.6126 C73.9785,7.7416 74.3475,7.8916 74.7075,8.0626 C75.0675,8.2336 75.3885,8.4496 75.6705,8.7106 C75.9525,8.9716 76.1785,9.2906 76.3505,9.6686 C76.5215,10.0466 76.6065,10.5056 76.6065,11.0456 C76.6065,11.6336 76.5055,12.1846 76.3045,12.6976 C76.1045,13.2106 75.8105,13.6576 75.4225,14.0386 C75.0365,14.4196 74.5635,14.7196 74.0055,14.9386 C73.4475,15.1576 72.8085,15.2666 72.0885,15.2666 C71.6745,15.2666 71.2665,15.2266 70.8645,15.1456 C70.4625,15.0646 70.0775,14.9496 69.7075,14.7986 C69.3385,14.6496 68.9925,14.4686 68.6685,14.2586 C68.3445,14.0486 68.0565,13.8156 67.8045,13.5566 L68.5155,12.3966 C68.5755,12.3126 68.6535,12.2416 68.7495,12.1846 C68.8455,12.1276 68.9475,12.0986 69.0555,12.0986 C69.2055,12.0986 69.3675,12.1606 69.5415,12.2836 C69.7155,12.4066 69.9225,12.5426 70.1635,12.6936 C70.4025,12.8426 70.6825,12.9796 71.0035,13.1026 C71.3255,13.2256 71.7105,13.2876 72.1605,13.2876 C72.8505,13.2876 73.3845,13.1236 73.7625,12.7966 C74.1405,12.4696 74.3305,11.9996 74.3305,11.3876 C74.3305,11.0456 74.2445,10.7666 74.0735,10.5506 C73.9025,10.3346 73.6755,10.1536 73.3935,10.0066 C73.1115,9.8596 72.7905,9.7356 72.4305,9.6326 C72.0705,9.5316 71.7045,9.4196 71.3325,9.2996 C70.9605,9.1796 70.5945,9.0366 70.2345,8.8686 C69.8745,8.7006 69.5535,8.4816 69.2715,8.2106 C68.9895,7.9416 68.7625,7.6036 68.5915,7.1986 C68.4205,6.7936 68.3355,6.2936 68.3355,5.7006 C68.3355,5.2266 68.4295,4.7636 68.6195,4.3146 C68.8085,3.8646 69.0825,3.4646 69.4425,3.1176 C69.8025,2.7696 70.2465,2.4906 70.7745,2.2806 C71.3025,2.0706 71.9085,1.9646 72.5925,1.9646 C73.3605,1.9646 74.0685,2.0846 74.7165,2.3256 C75.3645,2.5656 75.9165,2.9016 76.3735,3.3326 L75.7695,4.4756 Z" id="Fill-408" fill="#375D81"></path>
                    <polygon id="Fill-409" fill="#375D81" points="89.6836 2.1094 89.6836 15.1234 87.2536 15.1234 87.2536 9.4344 81.1426 9.4344 81.1426 15.1234 78.7126 15.1234 78.7126 2.1094 81.1426 2.1094 81.1426 7.7074 87.2536 7.7074 87.2536 2.1094"></polygon>
                    <path d="M102.5176,8.6162 C102.5176,7.9022 102.4216,7.2622 102.2296,6.6942 C102.0386,6.1282 101.7646,5.6462 101.4116,5.2502 C101.0566,4.8542 100.6256,4.5512 100.1196,4.3412 C99.6126,4.1312 99.0406,4.0262 98.4056,4.0262 C97.7686,4.0262 97.1976,4.1312 96.6906,4.3412 C96.1836,4.5512 95.7506,4.8542 95.3946,5.2502 C95.0376,5.6462 94.7626,6.1282 94.5716,6.6942 C94.3786,7.2622 94.2836,7.9022 94.2836,8.6162 C94.2836,9.3302 94.3786,9.9702 94.5716,10.5372 C94.7626,11.1042 95.0376,11.5852 95.3946,11.9772 C95.7506,12.3702 96.1836,12.6722 96.6906,12.8822 C97.1976,13.0922 97.7686,13.1972 98.4056,13.1972 C99.0406,13.1972 99.6126,13.0922 100.1196,12.8822 C100.6256,12.6722 101.0566,12.3702 101.4116,11.9772 C101.7646,11.5852 102.0386,11.1042 102.2296,10.5372 C102.4216,9.9702 102.5176,9.3302 102.5176,8.6162 M104.9936,8.6162 C104.9936,9.5702 104.8346,10.4532 104.5206,11.2662 C104.2046,12.0802 103.7596,12.7832 103.1836,13.3772 C102.6076,13.9702 101.9146,14.4342 101.1046,14.7672 C100.2946,15.1002 99.3946,15.2662 98.4056,15.2662 C97.4206,15.2662 96.5236,15.1002 95.7136,14.7672 C94.9046,14.4342 94.2086,13.9702 93.6296,13.3772 C93.0506,12.7832 92.6026,12.0802 92.2856,11.2662 C91.9666,10.4532 91.8076,9.5702 91.8076,8.6162 C91.8076,7.6622 91.9666,6.7782 92.2856,5.9662 C92.6026,5.1522 93.0506,4.4492 93.6296,3.8552 C94.2086,3.2612 94.9046,2.7982 95.7136,2.4652 C96.5236,2.1322 97.4206,1.9652 98.4056,1.9652 C99.0646,1.9652 99.6856,2.0422 100.2676,2.1942 C100.8496,2.3472 101.3836,2.5632 101.8706,2.8432 C102.3556,3.1212 102.7916,3.4612 103.1796,3.8592 C103.5666,4.2592 103.8946,4.7042 104.1646,5.1962 C104.4346,5.6882 104.6406,6.2212 104.7816,6.7982 C104.9216,7.3742 104.9936,7.9802 104.9936,8.6162" id="Fill-410" fill="#375D81"></path>
                    <path d="M111.3555,8.6523 C111.7995,8.6523 112.1865,8.5963 112.5165,8.4853 C112.8465,8.3753 113.1215,8.2153 113.3395,8.0083 C113.5595,7.8013 113.7225,7.5493 113.8315,7.2533 C113.9385,6.9553 113.9935,6.6243 113.9935,6.2573 C113.9935,5.9103 113.9385,5.5943 113.8315,5.3133 C113.7225,5.0313 113.5605,4.7913 113.3445,4.5923 C113.1285,4.3953 112.8555,4.2433 112.5255,4.1383 C112.1955,4.0333 111.8055,3.9813 111.3555,3.9813 L109.5465,3.9813 L109.5465,8.6523 L111.3555,8.6523 Z M111.3555,2.1093 C112.2255,2.1093 112.9785,2.2113 113.6155,2.4153 C114.2515,2.6193 114.7755,2.9043 115.1895,3.2703 C115.6035,3.6353 115.9115,4.0743 116.1125,4.5843 C116.3135,5.0933 116.4145,5.6523 116.4145,6.2573 C116.4145,6.8873 116.3085,7.4653 116.0985,7.9903 C115.8885,8.5153 115.5735,8.9663 115.1535,9.3443 C114.7335,9.7223 114.2075,10.0173 113.5745,10.2263 C112.9415,10.4373 112.2025,10.5423 111.3555,10.5423 L109.5465,10.5423 L109.5465,15.1233 L107.1265,15.1233 L107.1265,2.1093 L111.3555,2.1093 Z" id="Fill-411" fill="#375D81"></path>
                    <path d="M131.8818,15.8135 C131.3288,15.8135 130.8818,15.3665 130.8818,14.8135 L130.8818,1.7495 C130.8818,1.1965 131.3288,0.7495 131.8818,0.7495 C132.4348,0.7495 132.8818,1.1965 132.8818,1.7495 L132.8818,14.8135 C132.8818,15.3665 132.4348,15.8135 131.8818,15.8135" id="Fill-412" fill="#9ACDED"></path>
                    <path d="M52.4189,15.8135 C51.8659,15.8135 51.4189,15.3665 51.4189,14.8135 L51.4189,5.7495 C51.4189,5.1965 51.8659,4.7495 52.4189,4.7495 C52.9719,4.7495 53.4189,5.1965 53.4189,5.7495 L53.4189,14.8135 C53.4189,15.3665 52.9719,15.8135 52.4189,15.8135" id="Fill-413" fill="#9ACDED"></path>
                </g>
            </g>
        </g>
    </g>
</svg>