<?xml version="1.0" encoding="UTF-8"?>
<svg width="256px" height="256px" viewBox="0 0 256 256" version="1.1" xmlns="http://www.w3.org/2000/svg" xmlns:xlink="http://www.w3.org/1999/xlink">
    <!-- Generator: Sketch Beta 47 (45392) - http://www.bohemiancoding.com/sketch -->
    <title>Product</title>
    <desc>Created with Sketch Beta.</desc>
    <defs>
        <polygon id="path-1" points="9.14 0.6836 9.14 2.6836 0.1661 2.6836 0.1661 0.6836 9.14 0.6836"></polygon>
    </defs>
    <g id="Illustrations" stroke="none" stroke-width="1" fill="none" fill-rule="evenodd">
        <g id="Product">
            <g id="Page-1" transform="translate(2.000000, 29.000000)">
                <path d="M21.2041,196.5328 C21.2041,139.3398 67.5681,92.9748 124.7621,92.9748 C181.9541,92.9748 228.3201,139.3398 228.3201,196.5328 L21.2041,196.5328 Z" id="Fill-1" fill="#E1F2FF"></path>
                <path d="M17.9775,187.5328 L53.9775,187.5328" id="Fill-3" fill="#FFFFFF"></path>
                <path d="M53.9775,188.5328 L17.9775,188.5328 C17.4255,188.5328 16.9775,188.0858 16.9775,187.5328 C16.9775,186.9798 17.4255,186.5328 17.9775,186.5328 L53.9775,186.5328 C54.5295,186.5328 54.9775,186.9798 54.9775,187.5328 C54.9775,188.0858 54.5295,188.5328 53.9775,188.5328" id="Fill-5" fill="#375D81"></path>
                <path d="M193.3198,187.5328 L237.3198,187.5328" id="Fill-7" fill="#FFFFFF"></path>
                <path d="M237.3198,188.5328 L193.3198,188.5328 C192.7668,188.5328 192.3198,188.0858 192.3198,187.5328 C192.3198,186.9798 192.7668,186.5328 193.3198,186.5328 L237.3198,186.5328 C237.8728,186.5328 238.3198,186.9798 238.3198,187.5328 C238.3198,188.0858 237.8728,188.5328 237.3198,188.5328" id="Fill-9" fill="#375D81"></path>
                <path d="M163.2241,187.1588 L168.2031,187.1588 C169.9151,187.1588 171.4681,186.1108 172.0881,184.5148 C173.8561,179.9648 173.4151,175.7838 173.6261,172.2078 C174.0181,165.5828 172.9831,162.1878 171.9951,156.6468 L164.5211,156.8198 C164.5211,156.8198 165.1571,159.5728 165.5801,167.8318 C165.7111,170.3868 161.4891,180.6498 161.6871,185.6848 C161.7191,186.5108 162.3971,187.1588 163.2241,187.1588" id="Fill-11" fill="#9452BA"></path>
                <path d="M165.1226,157.3062 C165.3266,158.4982 165.7616,161.5992 166.0796,167.8062 C166.1396,168.9642 165.4466,171.3272 164.5696,174.3172 C163.4586,178.1092 162.0746,182.8272 162.1866,185.6652 C162.2086,186.2222 162.6646,186.6592 163.2246,186.6592 L168.2026,186.6592 C169.7076,186.6592 171.0816,185.7242 171.6226,184.3342 C172.9496,180.9172 173.0026,177.6522 173.0496,174.7712 C173.0636,173.8762 173.0786,173.0112 173.1276,172.1782 C173.4426,166.8362 172.8266,163.6512 172.0466,159.6192 C171.8936,158.8342 171.7366,158.0212 171.5796,157.1572 L165.1226,157.3062 Z M168.2026,187.6592 L163.2246,187.6592 C162.1246,187.6592 161.2296,186.8002 161.1866,185.7042 C161.0686,182.7032 162.4196,178.0992 163.6106,174.0352 C164.3936,171.3672 165.1326,168.8462 165.0816,167.8572 C164.6666,159.7662 164.0396,156.9592 164.0336,156.9322 L163.8966,156.3342 L172.4126,156.1372 L172.4876,156.5592 C172.6696,157.5772 172.8516,158.5232 173.0276,159.4292 C173.8216,163.5312 174.4486,166.7702 174.1256,172.2372 C174.0776,173.0562 174.0636,173.9072 174.0496,174.7862 C174.0006,177.7522 173.9456,181.1132 172.5546,184.6962 C171.8656,186.4682 170.1166,187.6592 168.2026,187.6592 L168.2026,187.6592 Z" id="Fill-13" fill="#52267D"></path>
                <path d="M148.729,163.4898 L142.717,156.6728 L139.005,156.8198 C139.005,156.8198 138.485,162.4908 138.271,164.8658 C137.895,169.0518 136.161,177.2538 135.095,180.8528 C134.749,182.0238 134.547,183.1178 134.491,184.1098 C134.397,185.7798 135.79,187.1588 137.461,187.1588 L141.873,187.1588 C144.442,187.1588 146.726,185.4438 147.358,182.9538 C149.324,175.1998 148.729,163.4898 148.729,163.4898" id="Fill-15" fill="#9452BA"></path>
                <path d="M139.4634,157.3023 C139.3374,158.6753 138.9464,162.9343 138.7694,164.9103 C138.4014,169.0023 136.7054,177.1753 135.5744,180.9943 C135.2414,182.1203 135.0444,183.1783 134.9894,184.1383 C134.9534,184.7793 135.1834,185.3953 135.6344,185.8723 C136.1074,186.3723 136.7734,186.6583 137.4614,186.6583 L141.8724,186.6583 C144.2444,186.6583 146.3014,185.0843 146.8734,182.8303 C148.6684,175.7483 148.2994,165.1663 148.2374,163.6883 L142.4994,157.1813 L139.4634,157.3023 Z M141.8724,187.6583 L137.4614,187.6583 C136.4984,187.6583 135.5674,187.2583 134.9074,186.5603 C134.2654,185.8803 133.9404,185.0003 133.9914,184.0813 C134.0504,183.0443 134.2614,181.9093 134.6154,180.7113 C135.7344,176.9343 137.4104,168.8603 137.7734,164.8213 C137.9864,162.4463 138.5074,156.7743 138.5074,156.7743 L138.5474,156.3373 L142.9354,156.1633 L149.2194,163.2893 L149.2284,163.4643 C149.2344,163.5823 149.8044,175.3393 147.8424,183.0763 C147.1574,185.7753 144.7024,187.6583 141.8724,187.6583 L141.8724,187.6583 Z" id="Fill-17" fill="#52267D"></path>
                <polygon id="Fill-19" fill="#52267D" points="140.2065 170.0611 139.0955 169.0601 140.1935 168.0961 140.3575 168.2841 139.4725 169.0621 140.2595 169.7721 141.6095 169.2531 141.3975 168.7901 140.3155 169.0471 140.5235 169.0381 140.5355 169.2881 140.0775 169.3091 140.0565 168.8511 141.5405 168.4991 141.9475 169.3921"></polygon>
                <path d="M140.312,138.1031 C144.691,138.0131 148.795,134.9981 157.732,134.5851 C157.861,134.0011 158.018,133.4741 158.218,133.0411 C159.835,129.5401 162.118,119.4491 160.652,112.8191 L159.492,107.5741 C159.111,105.8531 158.919,104.0951 158.919,102.3321 C158.919,101.5981 158.994,100.8811 159.135,100.1891 C159.17,100.0161 159.21,99.8441 159.254,99.6741 C159.385,99.1651 159.553,98.6691 159.755,98.1931 C159.823,98.0341 159.893,97.8761 159.968,97.7211 C160.118,97.4121 160.282,97.1101 160.459,96.8171 C160.637,96.5251 160.829,96.2421 161.033,95.9691 C161.645,95.1491 162.373,94.4221 163.192,93.8091 C163.465,93.6051 163.749,93.4141 164.041,93.2361 C165.649,92.2591 167.537,91.6961 169.556,91.6961 L171.3,91.6961 C174.238,91.6961 176.897,92.8871 178.822,94.8111 C179.062,95.0521 179.291,95.3041 179.508,95.5671 C179.902,96.0441 180.252,96.5581 180.559,97.1001 C180.674,97.3031 180.786,97.5101 180.888,97.7211 C180.962,97.8761 181.034,98.0341 181.101,98.1931 C181.302,98.6691 181.471,99.1651 181.602,99.6741 C181.733,100.1841 181.828,100.7081 181.882,101.2461 C181.918,101.6031 181.937,101.9651 181.937,102.3321 C181.937,103.0651 181.64,103.7281 181.16,104.2071 C180.68,104.6881 180.017,104.9851 179.285,104.9851 L168.395,104.9851 L170.043,114.4371 C171.978,124.1471 171.396,130.6401 169.898,134.9691 C169.564,135.9341 167.662,139.3541 167.662,139.3541 C173.107,147.9471 181.458,151.7031 190.386,152.7921 C197.978,153.7201 214.365,146.7971 205.916,138.7901 C197.467,130.7821 207.676,135.7611 209.18,136.7751 C210.683,137.7881 219.373,145.2961 209.941,156.3131 C205.954,160.9721 201.436,165.2071 190.567,168.4541 C188.824,168.9741 179.311,169.6661 174.191,171.1351 C158.946,175.5121 146.551,170.7531 139.606,160.6901 C132.689,150.6661 138.583,138.1381 140.312,138.1031" id="Fill-21" fill="#9452BA"></path>
                <path d="M140.4771,139.0992 C139.9961,139.4752 138.6651,141.5552 137.8801,144.9682 C137.1421,148.1792 136.4921,154.4172 140.4291,160.1212 C147.6281,170.5532 159.8321,174.2182 173.9151,170.1742 C177.1811,169.2372 182.1711,168.6122 185.8161,168.1552 C187.8151,167.9052 189.7041,167.6672 190.2811,167.4952 C201.1661,164.2442 205.4331,160.0422 209.1811,155.6622 C212.2981,152.0222 213.6451,148.4532 213.1831,145.0572 C212.6471,141.1032 209.7081,138.3362 208.6221,137.6042 C207.8301,137.0712 205.5861,135.9912 204.1791,135.5302 C204.6041,136.0572 205.3371,136.8632 206.6041,138.0642 C209.8831,141.1712 209.5551,143.9822 208.7031,145.7922 C206.1841,151.1412 195.7391,154.4532 190.2651,153.7852 C179.7351,152.4992 171.8451,147.8252 166.8171,139.8892 L166.4981,139.3872 L166.7881,138.8682 C167.5071,137.5752 168.7311,135.2852 168.9531,134.6422 C170.6781,129.6572 170.7151,122.9252 169.0631,114.6322 L167.2061,103.9852 L179.2851,103.9852 C179.7261,103.9852 180.1401,103.8132 180.4521,103.5012 C180.7651,103.1882 180.9371,102.7742 180.9371,102.3322 C180.9371,101.9992 180.9201,101.6702 180.8871,101.3462 C180.8381,100.8692 180.7531,100.3902 180.6331,99.9232 C180.5181,99.4722 180.3651,99.0202 180.1801,98.5812 C180.1191,98.4372 180.0531,98.2942 179.9861,98.1532 C179.8961,97.9662 179.7941,97.7782 179.6891,97.5932 C179.4081,97.0962 179.0871,96.6292 178.7371,96.2032 C178.5401,95.9652 178.3311,95.7362 178.1141,95.5182 C176.2941,93.6992 173.8741,92.6962 171.3001,92.6962 L169.5561,92.6962 C167.7891,92.6962 166.0611,93.1782 164.5601,94.0902 C164.2951,94.2512 164.0391,94.4252 163.7901,94.6102 C163.0471,95.1662 162.3891,95.8252 161.8331,96.5672 C161.6491,96.8152 161.4751,97.0722 161.3141,97.3362 C161.1531,97.6012 161.0041,97.8752 160.8691,98.1562 C160.8001,98.2972 160.7371,98.4392 160.6761,98.5822 C160.4931,99.0162 160.3401,99.4662 160.2231,99.9232 C160.1831,100.0782 160.1471,100.2332 160.1151,100.3882 C159.9851,101.0242 159.9191,101.6772 159.9191,102.3322 C159.9191,104.0222 160.1041,105.7122 160.4681,107.3582 L161.6281,112.6032 C163.1441,119.4572 160.8051,129.8262 159.1261,133.4602 C158.9711,133.7952 158.8311,134.2452 158.7081,134.8012 L158.5431,135.5492 L157.7781,135.5842 C152.7491,135.8162 149.2321,136.9112 146.4051,137.7912 C144.2691,138.4562 142.4171,139.0342 140.4771,139.0992 M163.2951,173.7412 C153.1581,173.7412 144.4041,169.4032 138.7831,161.2582 C133.2681,153.2662 135.4421,144.0142 137.5961,139.8072 C138.9671,137.1302 139.9641,137.1102 140.2911,137.1032 C142.0021,137.0682 143.6831,136.5442 145.8101,135.8822 C148.6071,135.0112 152.0551,133.9382 156.9431,133.6272 C157.0531,133.2472 157.1751,132.9142 157.3111,132.6212 C158.8471,129.2942 161.0751,119.3652 159.6751,113.0352 L158.5151,107.7892 C158.1201,106.0032 157.9191,104.1672 157.9191,102.3322 C157.9191,101.5432 157.9981,100.7542 158.1561,99.9892 C158.1941,99.7992 158.2381,99.6112 158.2871,99.4242 C158.4281,98.8722 158.6131,98.3272 158.8341,97.8022 C158.9091,97.6282 158.9861,97.4552 159.0681,97.2862 C159.2311,96.9482 159.4111,96.6182 159.6051,96.2982 C159.7991,95.9782 160.0081,95.6682 160.2321,95.3702 C160.9021,94.4742 161.6961,93.6792 162.5931,93.0082 C162.8921,92.7852 163.2021,92.5762 163.5211,92.3822 C165.3351,91.2792 167.4221,90.6962 169.5561,90.6962 L171.3001,90.6962 C174.4091,90.6962 177.3311,91.9072 179.5291,94.1042 C179.7921,94.3682 180.0421,94.6432 180.2801,94.9302 C180.7051,95.4472 181.0911,96.0112 181.4291,96.6082 C181.5541,96.8282 181.6751,97.0542 181.7881,97.2842 C181.8721,97.4582 181.9491,97.6302 182.0221,97.8032 C182.2461,98.3332 182.4301,98.8792 182.5711,99.4252 C182.7151,99.9892 182.8191,100.5682 182.8771,101.1442 C182.9161,101.5362 182.9371,101.9312 182.9371,102.3322 C182.9371,103.3092 182.5571,104.2262 181.8661,104.9152 C181.1781,105.6052 180.2611,105.9852 179.2851,105.9852 L169.5841,105.9852 L171.0291,114.2652 C172.7471,122.8872 172.6861,129.9712 170.8431,135.2962 C170.5621,136.1072 169.3921,138.2802 168.8271,139.3132 C173.5321,146.4172 180.8241,150.6182 190.5071,151.8002 C195.7061,152.4252 204.9351,149.0972 206.8931,144.9412 C207.7361,143.1512 207.1921,141.3762 205.2291,139.5152 C201.8841,136.3462 201.0431,134.9162 201.8971,133.8532 C203.3811,131.9962 209.6771,135.9042 209.7391,135.9462 C211.3481,137.0302 214.5521,140.2732 215.1651,144.7882 C215.7061,148.7752 214.2051,152.8702 210.7011,156.9632 C206.9081,161.3952 202.2511,166.0062 190.8531,169.4112 C190.1171,169.6312 188.4161,169.8442 186.0641,170.1392 C182.4851,170.5882 177.5831,171.2032 174.4661,172.0962 C170.6231,173.2002 166.8731,173.7412 163.2951,173.7412" id="Fill-23" fill="#52267D"></path>
                <path d="M149.771,123.6324 C150.121,112.3724 141.184,103.5234 131.027,101.6534 C128.918,101.2654 128.233,100.6034 125.926,100.6034 L124.159,100.6034 C118.208,100.6034 113.383,105.4284 113.383,111.3794 C113.383,112.8624 114.586,114.0664 116.069,114.0664 C116.069,114.0664 134.189,114.0614 134.274,114.0534 C134.275,114.0534 135.75,114.0544 135.75,114.0544 C135.749,114.0564 134.272,114.0574 134.27,114.0594 C138.277,115.7604 140.77,120.8804 141.21,123.6324 C141.836,127.5504 141.377,130.7824 140.041,133.3974 C139.15,135.1384 139.049,137.2364 139.187,138.9354 C139.187,138.9354 139.23,138.9494 139.29,138.9704 C139.353,139.8784 139.5,140.9114 139.77,142.0904 C141.477,140.9014 144.13,139.1114 144.615,138.8564 C145.662,138.3034 148.026,137.0454 149.084,136.4404 C155.842,132.5654 149.573,130.0364 149.771,123.6324" id="Fill-25" fill="#9452BA"></path>
                <path d="M139.6626,138.5699 L139.7656,138.6049 L139.7886,138.9349 C139.8396,139.6669 139.9446,140.4429 140.1026,141.2519 C141.7376,140.1239 143.9146,138.6609 144.3816,138.4139 C144.7076,138.2419 147.6056,136.7099 148.8356,136.0069 C152.6586,133.8139 151.9976,132.3509 150.7986,129.6969 C150.0836,128.1119 149.1926,126.1409 149.2706,123.6169 C149.6346,111.9289 140.0956,103.8309 130.9356,102.1449 C130.1026,101.9919 129.4736,101.7939 128.9176,101.6189 C128.0376,101.3419 127.2766,101.1029 125.9256,101.1029 L124.1596,101.1029 C118.4926,101.1029 113.8826,105.7139 113.8826,111.3799 C113.8826,112.5859 114.8636,113.5659 116.0696,113.5659 C122.2386,113.5639 133.9796,113.5589 134.2586,113.5529 L136.9566,113.5549 L136.1036,114.4079 C136.0786,114.4329 136.0586,114.4539 136.0356,114.4709 C139.2606,116.7059 141.2916,120.9719 141.7046,123.5529 C142.3256,127.4409 141.9156,130.8299 140.4856,133.6249 C139.6736,135.2139 139.5776,137.1349 139.6626,138.5699 L139.6626,138.5699 Z M139.4476,142.9239 L139.2826,142.2019 C139.0546,141.2039 138.8976,140.2419 138.8166,139.3379 L138.7156,139.3019 L138.6886,138.9749 C138.5596,137.3869 138.6126,135.0909 139.5956,133.1699 C140.9266,130.5669 141.3036,127.3839 140.7166,123.7119 C140.2616,120.8669 137.7326,116.1279 134.1556,114.5539 C133.6286,114.5559 130.8176,114.5619 116.0696,114.5659 C114.3126,114.5659 112.8826,113.1359 112.8826,111.3799 C112.8826,105.1619 117.9416,100.1029 124.1596,100.1029 L125.9256,100.1029 C127.4306,100.1029 128.2986,100.3759 129.2176,100.6649 C129.7706,100.8399 130.3446,101.0189 131.1176,101.1609 C140.6856,102.9239 150.6506,111.4029 150.2706,123.6479 C150.1996,125.9399 151.0026,127.7169 151.7106,129.2849 C152.9086,131.9379 153.9426,134.2299 149.3326,136.8739 C148.0886,137.5859 145.1766,139.1249 144.8486,139.2989 C144.4106,139.5289 141.8486,141.2529 140.0566,142.5009 L139.4476,142.9239 Z" id="Fill-27" fill="#52267D"></path>
                <path d="M144.0005,136.6432 C143.9115,134.9042 143.6465,134.0112 143.8405,133.3032 C144.9635,129.2302 145.3285,127.9452 145.3285,123.6322 C145.3285,119.3472 142.8465,115.1122 139.1805,112.8592 C138.9795,112.7362 136.3415,112.5492 134.2705,114.0592 C138.2765,115.7602 140.7705,120.8802 141.2105,123.6322 C141.8365,127.5502 141.3775,130.7832 140.0415,133.3972 C139.1505,135.1382 139.0495,137.2362 139.1875,138.9352 C139.1875,138.9352 144.1035,140.7812 144.0005,136.6432" id="Fill-29" fill="#F3E3FF"></path>
                <path d="M139.4243,138.7516 C139.9703,138.9266 141.8803,139.4616 142.9643,138.6896 C143.5093,138.3026 143.7743,137.6166 143.7503,136.6526 C143.7173,135.9996 143.6593,135.4776 143.6093,135.0166 C143.5263,134.2656 143.4663,133.7226 143.5993,133.2366 L143.6293,133.1266 C144.7133,129.1956 145.0783,127.8716 145.0783,123.6326 C145.0783,119.4686 142.7123,115.3226 139.0493,113.0716 C138.7873,112.9806 136.6203,112.8846 134.7793,114.0186 C138.5873,115.8966 141.0053,120.7716 141.4573,123.5936 C142.0703,127.4266 141.6683,130.7636 140.2643,133.5106 C139.3933,135.2136 139.3203,137.2706 139.4243,138.7516 M141.4193,139.5966 C140.2573,139.5966 139.1683,139.1946 139.0993,139.1696 L138.9503,139.1136 L138.9383,138.9556 C138.8123,137.3996 138.8623,135.1526 139.8193,133.2826 C141.1733,130.6316 141.5593,127.3976 140.9633,123.6716 C140.5133,120.8596 138.0433,115.9336 134.1723,114.2896 L133.7663,114.1166 L134.1223,113.8566 C136.2553,112.3036 138.9993,112.4546 139.3113,112.6466 C143.1183,114.9856 145.5783,119.2986 145.5783,123.6326 C145.5783,127.9396 145.2083,129.2796 144.1113,133.2596 L144.0813,133.3696 C143.9743,133.7626 144.0263,134.2386 144.1063,134.9616 C144.1543,135.4066 144.2163,135.9616 144.2503,136.6306 L144.2503,136.6376 C144.2783,137.7796 143.9433,138.6076 143.2533,139.0986 C142.7263,139.4746 142.0613,139.5966 141.4193,139.5966" id="Fill-31" fill="#52267D"></path>
                <path d="M118.5044,102.4342 C118.5044,102.4342 118.5004,100.5522 120.3704,99.8042 C120.9414,99.5772 121.9834,99.1522 121.9834,99.1522 C121.9834,99.1522 123.0964,101.5072 121.8354,102.1022 C120.0184,102.9562 118.5044,102.4342 118.5044,102.4342" id="Fill-33" fill="#FFFFFF"></path>
                <path d="M118.7681,102.2457 C119.2081,102.3437 120.3861,102.5087 121.7281,101.8757 C122.1351,101.6837 122.2721,101.2067 122.1381,100.4567 C122.0671,100.0667 121.9371,99.6987 121.8491,99.4757 C121.5101,99.6147 120.8681,99.8747 120.4631,100.0367 C119.0951,100.5837 118.8221,101.7797 118.7681,102.2457 M119.6771,102.8447 C118.9401,102.8447 118.4581,102.6827 118.4231,102.6707 L118.2551,102.6127 L118.2541,102.4347 C118.2541,102.4147 118.2731,100.3737 120.2781,99.5717 C120.8481,99.3447 121.8891,98.9207 121.8891,98.9207 L122.1081,98.8307 L122.2091,99.0457 C122.2391,99.1087 122.9421,100.6157 122.5841,101.6127 C122.4671,101.9417 122.2501,102.1837 121.9411,102.3287 C121.0831,102.7317 120.2921,102.8447 119.6771,102.8447" id="Fill-35" fill="#52267D"></path>
                <path d="M123.186,101.1109 C123.186,101.1109 123.239,98.5469 126.124,98.1729 C126.662,98.1029 128.066,98.1369 128.066,98.1369 C128.066,98.1369 128.713,100.8499 127.193,101.1109 C125.323,101.4309 123.186,101.1109 123.186,101.1109" id="Fill-37" fill="#FFFFFF"></path>
                <path d="M123.4575,100.8941 C124.0575,100.9631 125.6985,101.1141 127.1505,100.8651 C127.3875,100.8241 127.5645,100.7081 127.6955,100.5111 C128.0555,99.9661 127.9605,98.9211 127.8615,98.3831 C127.4585,98.3771 126.5515,98.3701 126.1555,98.4201 C123.9825,98.7021 123.5455,100.2961 123.4575,100.8941 M125.3155,101.5041 C124.1435,101.5041 123.2075,101.3671 123.1485,101.3581 L122.9315,101.3261 L122.9365,101.1061 C122.9365,101.0781 123.0295,98.3221 126.0915,97.9241 C126.6425,97.8541 128.0135,97.8851 128.0715,97.8871 L128.2645,97.8921 L128.3095,98.0801 C128.3265,98.1521 128.7245,99.8601 128.1125,100.7871 C127.9055,101.1011 127.6095,101.2921 127.2345,101.3571 C126.5915,101.4671 125.9225,101.5041 125.3155,101.5041" id="Fill-39" fill="#52267D"></path>
                <path d="M128.9224,101.356 C128.9224,101.356 129.3024,98.512 131.8574,99.294 C132.9484,99.628 133.5544,100.458 133.5544,100.458 C133.5544,100.458 133.0454,102.624 132.0294,102.379 C130.2554,101.955 128.9224,101.356 128.9224,101.356" id="Fill-41" fill="#FFFFFF"></path>
                <path d="M129.2056,101.2047 C129.6256,101.3797 130.7306,101.8107 132.0886,102.1367 C132.2056,102.1627 132.3096,102.1437 132.4226,102.0757 C132.8516,101.8117 133.1616,100.9497 133.2806,100.5177 C133.0986,100.3087 132.5756,99.7757 131.7836,99.5337 C131.1356,99.3357 130.5906,99.3747 130.1576,99.6497 C129.5346,100.0507 129.2886,100.8457 129.2056,101.2047 M132.1896,102.6487 C132.1176,102.6487 132.0446,102.6407 131.9716,102.6227 C130.1946,102.1967 128.8756,101.6087 128.8196,101.5847 L128.6496,101.5077 L128.6746,101.3227 C128.6826,101.2647 128.8786,99.8767 129.8886,99.2287 C130.4466,98.8707 131.1336,98.8097 131.9306,99.0557 C133.0886,99.4097 133.7286,100.2737 133.7566,100.3097 L133.8236,100.4027 L133.7976,100.5157 C133.7616,100.6707 133.4186,102.0497 132.6846,102.5017 C132.5256,102.6007 132.3596,102.6487 132.1896,102.6487" id="Fill-43" fill="#52267D"></path>
                <path d="M136.3413,115.1617 C136.3413,115.1617 142.2963,111.9247 141.1633,106.4757 C141.9543,107.1277 144.0693,109.1137 144.8353,110.1307 C144.8353,111.1967 145.0303,115.4327 139.1823,118.2687 C138.1533,117.2027 137.2873,115.8717 136.3413,115.1617" id="Fill-45" fill="#FFFFFF"></path>
                <path d="M136.7749,115.193 C137.2679,115.626 137.7369,116.194 138.2279,116.791 C138.5529,117.184 138.8869,117.589 139.2369,117.964 C142.8029,116.183 144.6019,113.584 144.5859,110.232 L144.5859,110.215 C143.9499,109.4 142.4719,107.964 141.5169,107.112 C141.9939,111.547 137.9499,114.449 136.7749,115.193 L136.7749,115.193 Z M139.1289,118.573 L139.0029,118.443 C138.5929,118.019 138.2119,117.556 137.8429,117.109 C137.2779,116.423 136.7439,115.776 136.1909,115.362 L135.8799,115.129 L136.2219,114.942 C136.2799,114.911 141.9999,111.727 140.9189,106.527 L140.7739,105.832 L141.3229,106.283 C142.1609,106.973 144.2579,108.95 145.0349,109.98 L145.0859,110.047 L145.0859,110.23 C145.1029,113.84 143.1539,116.621 139.2919,118.494 L139.1289,118.573 Z" id="Fill-47" fill="#52267D"></path>
                <path d="M119.0557,102.1334 C119.0557,102.1334 119.0537,101.0344 120.1447,100.5984 C120.4777,100.4654 121.0857,100.2174 121.0857,100.2174 C121.0857,100.2174 121.7357,101.5924 120.9997,101.9394 C119.9397,102.4384 119.0557,102.1334 119.0557,102.1334" id="Fill-49" fill="#F3E3FF"></path>
                <path d="M124.0376,100.7564 C124.0376,100.7564 124.0686,99.2554 125.7586,99.0354 C126.0736,98.9954 126.8946,99.0154 126.8946,99.0154 C126.8946,99.0154 127.2746,100.6044 126.3836,100.7564 C125.2886,100.9434 124.0376,100.7564 124.0376,100.7564" id="Fill-51" fill="#F3E3FF"></path>
                <path d="M129.5522,101.2711 C129.5522,101.2711 129.7772,99.5881 131.2882,100.0511 C131.9342,100.2491 132.2922,100.7391 132.2922,100.7391 C132.2922,100.7391 131.9912,102.0201 131.3902,101.8761 C130.3412,101.6251 129.5522,101.2711 129.5522,101.2711" id="Fill-53" fill="#F3E3FF"></path>
                <path d="M129.5103,112.2623 L122.8643,112.2623 L122.8643,109.3973 C122.8643,108.2373 123.8043,107.2953 124.9653,107.2953 L129.5103,107.2953 C130.2183,107.2953 130.7923,107.8693 130.7923,108.5773 L130.7923,110.9803 C130.7923,111.6883 130.2183,112.2623 129.5103,112.2623" id="Fill-55" fill="#F3E3FF"></path>
                <path d="M128.7944,112.1685 L122.9574,112.1685 L122.9574,110.2815 C122.9574,109.1695 123.8594,108.2675 124.9724,108.2675 L128.7944,108.2675 C129.3504,108.2675 129.8014,108.7185 129.8014,109.2745 L129.8014,111.1615 C129.8014,111.7175 129.3504,112.1685 128.7944,112.1685" id="Fill-57" fill="#FFFFFF"></path>
                <path d="M123.2075,111.9185 L128.7945,111.9185 C129.2115,111.9185 129.5515,111.5785 129.5515,111.1615 L129.5515,109.2745 C129.5515,108.8565 129.2115,108.5175 128.7945,108.5175 L124.9725,108.5175 C123.9995,108.5175 123.2075,109.3095 123.2075,110.2815 L123.2075,111.9185 Z M128.7945,112.4185 L122.7075,112.4185 L122.7075,110.2815 C122.7075,109.0325 123.7235,108.0175 124.9725,108.0175 L128.7945,108.0175 C129.4875,108.0175 130.0515,108.5815 130.0515,109.2745 L130.0515,111.1615 C130.0515,111.8555 129.4875,112.4185 128.7945,112.4185 L128.7945,112.4185 Z" id="Fill-59" fill="#52267D"></path>
                <path d="M123.8438,110.1656 C123.8438,110.7676 124.3318,111.2556 124.9338,111.2556 C125.5348,111.2556 126.0228,110.7676 126.0228,110.1656 C126.0228,109.5636 125.5348,109.0756 124.9338,109.0756 C124.3318,109.0756 123.8438,109.5636 123.8438,110.1656" id="Fill-61" fill="#52267D"></path>
                <path d="M115.8203,113.2476 L115.8203,113.2476 C116.1303,113.1816 116.4063,113.0096 116.6043,112.7616 L116.9693,112.3026 L116.1553,112.4766 L115.6763,112.5786 C115.4923,112.6186 115.3753,112.8006 115.4143,112.9846 C115.4543,113.1696 115.6353,113.2866 115.8203,113.2476" id="Fill-63" fill="#52267D"></path>
                <path d="M137.3472,115.2691 C137.3472,115.2691 141.9352,112.7991 141.8652,107.8231 C143.8362,109.2591 144.3692,110.1881 144.3692,110.1881 C144.3692,110.1881 144.0272,112.5561 142.9232,113.7521 C141.2292,115.5871 139.4642,116.1521 137.3472,115.2691" id="Fill-65" fill="#EAF3FB"></path>
                <path d="M141.6899,114.3961 C141.6899,114.3961 139.8809,116.2361 138.1169,117.1191" id="Fill-67" fill="#FFFFFF"></path>
                <path d="M138.229,117.3424 L138.004,116.8954 C139.71,116.0414 141.494,114.2384 141.511,114.2214 L141.869,114.5714 C141.793,114.6484 140.01,116.4504 138.229,117.3424" id="Fill-69" fill="#52267D"></path>
                <path d="M159.6812,133.7437 L158.6602,131.7267 C154.8422,122.3457 154.2532,116.8367 156.2342,107.8827 L157.3932,102.6377 C157.7742,100.9167 157.9662,99.1587 157.9662,97.3957 C157.9662,91.5217 153.2032,86.7597 147.3292,86.7597 L145.6122,86.7597 C139.8182,86.7597 135.1202,91.4567 135.1202,97.2507 L135.1202,97.5527 C135.1202,98.9307 136.2382,100.0487 137.6172,100.0487 L148.4902,100.0487 L146.8422,109.5007 C141.7952,134.8307 142.3012,145.1007 152.2322,142.9897" id="Fill-71" fill="#9452BA"></path>
                <path d="M149.9048,143.7594 C148.1588,143.7594 146.7768,143.2414 145.7188,142.1974 C142.1708,138.6934 142.3478,129.4984 146.3518,109.4034 L147.8948,100.5484 L137.6168,100.5484 C135.9648,100.5484 134.6208,99.2044 134.6208,97.5524 L134.6208,97.2504 C134.6208,91.1904 139.5508,86.2594 145.6118,86.2594 L147.3298,86.2594 C153.4698,86.2594 158.4668,91.2554 158.4668,97.3964 C158.4668,99.1924 158.2688,100.9914 157.8818,102.7454 L156.7218,107.9894 C154.7838,116.7524 155.3448,122.2544 159.1228,131.5384 L160.1278,133.5184 L159.2348,133.9694 L158.2138,131.9524 C154.3288,122.4094 153.7568,116.7694 155.7458,107.7744 L156.9048,102.5304 C157.2778,100.8464 157.4668,99.1184 157.4668,97.3964 C157.4668,91.8064 152.9198,87.2594 147.3298,87.2594 L145.6118,87.2594 C140.1028,87.2594 135.6208,91.7414 135.6208,97.2504 L135.6208,97.5524 C135.6208,98.6534 136.5158,99.5484 137.6168,99.5484 L149.0848,99.5484 L147.3348,109.5864 C143.4558,129.0584 143.1918,138.2964 146.4228,141.4854 C147.6708,142.7194 149.5388,143.0494 152.1288,142.5004 L152.3358,143.4794 C151.4578,143.6654 150.6478,143.7594 149.9048,143.7594" id="Fill-73" fill="#52267D"></path>
                <path d="M140.3628,88.0182 C140.3628,88.0182 140.5378,86.1742 142.3698,85.4422 C142.9278,85.2182 143.8038,85.4562 143.8038,85.4562 C143.8038,85.4562 144.8618,87.1102 143.6258,87.6922 C141.8458,88.5302 140.3628,88.0182 140.3628,88.0182" id="Fill-75" fill="#FFFFFF"></path>
                <path d="M140.6489,87.8341 C141.0949,87.9301 142.2309,88.0731 143.5189,87.4661 C143.7449,87.3601 143.8829,87.2091 143.9419,87.0051 C144.0689,86.5641 143.8039,85.9581 143.6439,85.6741 C143.3649,85.6131 142.8079,85.5351 142.4619,85.6741 C141.1439,86.2011 140.7539,87.3601 140.6489,87.8341 M141.5109,88.4241 C140.7889,88.4241 140.3169,88.2671 140.2819,88.2541 L140.0949,88.1901 L140.1139,87.9951 C140.1219,87.9131 140.3259,85.9901 142.2769,85.2101 C142.9049,84.9581 143.8319,85.2041 143.8699,85.2151 L143.9619,85.2401 L144.0149,85.3211 C144.0419,85.3621 144.6549,86.3361 144.4219,87.1441 C144.3229,87.4891 144.0899,87.7501 143.7319,87.9181 C142.8909,88.3141 142.1139,88.4241 141.5109,88.4241" id="Fill-77" fill="#52267D"></path>
                <path d="M144.7241,87.4102 C144.7241,87.4102 144.7851,84.5062 148.0521,84.0822 C148.6621,84.0032 149.4441,84.0632 149.4441,84.0632 C149.4441,84.0632 150.9851,87.1152 149.2621,87.4102 C147.1451,87.7732 144.7241,87.4102 144.7241,87.4102" id="Fill-79" fill="#FFFFFF"></path>
                <path d="M144.9937,87.193 C145.6427,87.271 147.5417,87.452 149.2207,87.164 C149.4697,87.121 149.6307,87.013 149.7257,86.824 C150.0407,86.199 149.5587,84.897 149.2827,84.304 C149.0367,84.292 148.5097,84.275 148.0847,84.331 C145.5467,84.659 145.0797,86.537 144.9937,87.193 M147.1377,87.823 C145.8117,87.823 144.7537,87.668 144.6867,87.657 L144.4697,87.625 L144.4737,87.405 C144.4747,87.374 144.5787,84.28 148.0197,83.835 C148.6447,83.754 149.4307,83.812 149.4637,83.815 L149.6027,83.825 L149.6677,83.951 C149.7727,84.16 150.6857,86.028 150.1727,87.048 C150.0067,87.378 149.7067,87.588 149.3047,87.657 C148.5777,87.781 147.8217,87.823 147.1377,87.823" id="Fill-81" fill="#52267D"></path>
                <path d="M150.5698,88.0709 C150.5698,88.0709 151.0128,85.2949 153.4958,86.1239 C154.5558,86.4789 155.1288,87.3059 155.1288,87.3059 C155.1288,87.3059 154.5768,89.4139 153.5878,89.1509 C151.8598,88.6899 150.5698,88.0709 150.5698,88.0709" id="Fill-83" fill="#FFFFFF"></path>
                <path d="M150.8579,87.9273 C151.2669,88.1093 152.3369,88.5583 153.6519,88.9083 C153.7659,88.9393 153.8679,88.9223 153.9779,88.8583 C154.4019,88.6113 154.7259,87.7793 154.8529,87.3593 C154.6789,87.1483 154.1819,86.6173 153.4169,86.3613 C152.7879,86.1513 152.2539,86.1763 151.8279,86.4333 C151.2119,86.8043 150.9499,87.5743 150.8579,87.9273 M153.7589,89.4243 C153.6809,89.4243 153.6019,89.4133 153.5229,89.3923 C151.7929,88.9303 150.5149,88.3223 150.4619,88.2963 L150.2939,88.2153 L150.3229,88.0313 C150.3329,87.9743 150.5589,86.6173 151.5669,86.0073 C152.1239,85.6693 152.7999,85.6283 153.5749,85.8863 C154.7019,86.2633 155.3089,87.1273 155.3349,87.1633 L155.3989,87.2583 L155.3709,87.3693 C155.3309,87.5213 154.9619,88.8643 154.2289,89.2903 C154.0769,89.3793 153.9199,89.4243 153.7589,89.4243" id="Fill-85" fill="#52267D"></path>
                <path d="M140.5405,137.7672 C141.1595,137.3032 141.7875,137.0352 142.3275,136.9062" id="Fill-87" fill="#F3E3FF"></path>
                <path d="M140.6899,137.9674 L140.3909,137.5674 C141.1279,137.0144 141.8199,136.7704 142.2699,136.6624 L142.3849,137.1494 C141.9819,137.2454 141.3599,137.4654 140.6899,137.9674" id="Fill-89" fill="#52267D"></path>
                <path d="M144.1411,137.7105 C142.3641,130.4875 145.5701,116.6805 146.1591,113.2815 L148.4931,99.6665 L149.5171,99.6665 C150.8131,99.6665 151.7941,101.0755 151.6101,102.3605 L149.9181,114.1705 C149.3461,118.1695 148.7501,136.6855 155.6991,140.6615 C157.1811,141.5105 159.5901,140.9535 160.4981,140.5205 C163.8011,138.9425 164.7501,134.8255 165.4741,131.5065 C166.9721,124.6365 165.8051,119.2435 165.4731,113.8585 L165.1251,107.1215 C165.0631,105.9035 166.0311,104.6115 167.2481,104.6115 L168.4901,104.6115 L170.7261,118.2275 C171.3981,122.1045 173.1291,135.5495 165.2061,141.8525 C165.0631,141.9665 167.1331,142.4295 166.5331,143.4895 C164.1501,147.7015 157.2451,148.3675 155.9461,150.1715 C150.9381,157.1155 155.6281,171.9125 155.6281,171.9125 C155.6281,171.9125 150.0711,169.6945 146.6281,166.6095 C138.5821,159.3975 137.5611,148.9515 137.5241,145.8765 C137.4791,142.1975 138.4451,139.9155 139.6351,138.5535" id="Fill-91" fill="#F3E3FF"></path>
                <path d="M156.0259,172.3404 L155.5359,172.1454 C155.4799,172.1224 149.8969,169.8744 146.4619,166.7964 C137.6819,158.9264 137.2899,147.1924 137.2739,145.8794 C137.2349,142.6514 137.9859,140.0614 139.4469,138.3894 L139.8239,138.7174 C138.4449,140.2954 137.7359,142.7704 137.7739,145.8734 C137.7899,147.1634 138.1749,158.6964 146.7959,166.4234 C149.5769,168.9164 153.8119,170.8614 155.2359,171.4764 C154.4449,168.7624 151.1879,156.3424 155.7429,150.0254 C156.2879,149.2704 157.6079,148.7494 159.2799,148.0904 C161.7819,147.1044 164.8949,145.8764 166.3149,143.3664 C166.4169,143.1884 166.3969,143.0734 166.3749,143.0024 C166.2649,142.6634 165.6829,142.3964 165.3709,142.2514 C165.1049,142.1294 164.9719,142.0684 164.9519,141.8974 L164.9339,141.7584 L165.0509,141.6564 C167.0049,140.1014 173.1739,133.8194 170.4799,118.2704 L168.2779,104.8614 L167.2489,104.8614 C166.8059,104.8614 166.3689,105.0664 166.0159,105.4374 C165.5899,105.8844 165.3449,106.5254 165.3759,107.1094 L165.7229,113.8464 C165.7979,115.0714 165.9159,116.2774 166.0399,117.5534 C166.4539,121.8164 166.8809,126.2244 165.7179,131.5604 C165.0259,134.7364 164.0769,139.0884 160.6059,140.7454 C159.7069,141.1744 157.1909,141.8044 155.5749,140.8784 C151.7809,138.7074 150.3069,132.3794 149.7399,127.4524 C149.0749,121.6764 149.4059,115.9864 149.6719,114.1354 L151.3629,102.3254 C151.4489,101.7224 151.2409,101.0444 150.8189,100.5584 C150.4609,100.1444 149.9989,99.9164 149.5169,99.9164 L148.7039,99.9164 L146.4049,113.3234 C146.3259,113.7834 146.1979,114.4344 146.0419,115.2324 C145.0079,120.4974 142.8599,131.4554 144.3839,137.6514 L143.8979,137.7704 C142.3469,131.4684 144.5109,120.4374 145.5509,115.1354 C145.7069,114.3424 145.8339,113.6954 145.9129,113.2384 L148.2819,99.4164 L149.5169,99.4164 C150.1449,99.4164 150.7419,99.7054 151.1969,100.2314 C151.7179,100.8324 151.9649,101.6424 151.8569,102.3964 L150.1659,114.2054 C149.4949,118.8944 149.2069,136.6584 155.8229,140.4444 C157.1889,141.2284 159.4709,140.7334 160.3909,140.2944 C163.6409,138.7424 164.5589,134.5294 165.2299,131.4524 C166.3769,126.1944 165.9519,121.8254 165.5419,117.6014 C165.4179,116.3204 165.2999,115.1114 165.2229,113.8744 L164.8759,107.1344 C164.8389,106.4074 165.1299,105.6444 165.6539,105.0924 C166.1009,104.6214 166.6679,104.3614 167.2489,104.3614 L168.7019,104.3614 L168.7369,104.5714 L170.9729,118.1874 C171.3449,120.3354 171.9019,124.6204 171.4379,129.1554 C170.8589,134.8194 168.9079,139.0794 165.6359,141.8234 C166.0489,142.0144 166.6819,142.3254 166.8499,142.8494 C166.9299,143.0974 166.8969,143.3544 166.7509,143.6124 C165.2439,146.2774 162.0389,147.5404 159.4639,148.5554 C157.9299,149.1594 156.6069,149.6814 156.1489,150.3184 C151.2709,157.0814 155.8199,171.6904 155.8669,171.8374 L156.0259,172.3404 Z" id="Fill-93" fill="#52267D"></path>
                <path d="M209.4546,143.734 C209.4546,143.734 210.5986,142.468 209.9556,140.768 C209.7596,140.25 209.0536,139.803 209.0536,139.803 C209.0536,139.803 207.2706,140.114 207.6446,141.316 C208.1836,143.046 209.4546,143.734 209.4546,143.734" id="Fill-95" fill="#FFFFFF"></path>
                <path d="M208.9497,140.3414 C208.6707,140.4224 208.2837,140.5864 208.1447,140.8154 C208.1037,140.8814 208.0647,140.9824 208.1227,141.1674 C208.4227,142.1294 208.9687,142.7244 209.3307,143.0314 C209.5647,142.6074 209.8307,141.8514 209.4877,140.9454 C209.4087,140.7374 209.1497,140.4954 208.9497,140.3414 L208.9497,140.3414 Z M209.5617,144.3614 L209.2167,144.1734 C209.1567,144.1414 207.7607,143.3664 207.1677,141.4644 C207.0367,141.0444 207.0797,140.6394 207.2917,140.2924 C207.7507,139.5424 208.8447,139.3324 208.9677,139.3114 L209.1577,139.2784 L209.3207,139.3804 C209.4067,139.4354 210.1757,139.9354 210.4237,140.5914 C211.1657,142.5544 209.8807,144.0084 209.8257,144.0694 L209.5617,144.3614 Z" id="Fill-97" fill="#52267D"></path>
                <path d="M209.0767,141.9752 C209.0767,141.9752 209.4777,141.5312 209.2527,140.9352 C209.1837,140.7522 208.9357,140.5962 208.9357,140.5962 C208.9357,140.5962 208.3107,140.7052 208.4417,141.1262 C208.6317,141.7332 209.0767,141.9752 209.0767,141.9752" id="Fill-99" fill="#F3E3FF"></path>
                <path d="M200.0942,152.8023 C200.0942,152.8023 199.0092,150.3253 201.6032,148.6893 C202.0862,148.3833 202.7712,148.1283 202.7712,148.1283 C202.7712,148.1283 205.2672,150.1023 203.9272,151.0263 C202.2812,152.1613 200.0942,152.8023 200.0942,152.8023" id="Fill-101" fill="#FFFFFF"></path>
                <path d="M202.6792,148.7047 C202.4532,148.8007 202.1262,148.9497 201.8702,149.1117 C200.2542,150.1317 200.2792,151.4847 200.4222,152.1697 C201.1362,151.9217 202.5312,151.3827 203.6432,150.6147 C203.7962,150.5097 203.8202,150.4207 203.8232,150.3407 C203.8362,149.9077 203.2102,149.1767 202.6792,148.7047 L202.6792,148.7047 Z M199.8132,153.4057 L199.6362,153.0027 C199.2012,152.0107 198.9962,149.7427 201.3362,148.2667 C201.8572,147.9367 202.5672,147.6717 202.5962,147.6597 L202.8602,147.5617 L203.0812,147.7357 C203.3782,147.9717 204.8602,149.2037 204.8222,150.3727 C204.8122,150.6737 204.6982,151.1017 204.2112,151.4377 C202.5182,152.6047 200.3272,153.2557 200.2352,153.2817 L199.8132,153.4057 Z" id="Fill-103" fill="#52267D"></path>
                <path d="M200.9985,151.8707 C200.9985,151.8707 200.3955,150.4967 201.8345,149.5897 C202.1025,149.4207 202.4825,149.2787 202.4825,149.2787 C202.4825,149.2787 203.8665,150.3737 203.1235,150.8857 C202.2105,151.5157 200.9985,151.8707 200.9985,151.8707" id="Fill-105" fill="#F3E3FF"></path>
                <path d="M208.0132,144.69 C208.0132,144.69 209.8932,146.341 208.0892,147.818 C207.3192,148.449 206.4242,148.487 206.4242,148.487 C206.4242,148.487 205.0982,147.07 205.7662,146.451 C206.9342,145.368 208.0132,144.69 208.0132,144.69" id="Fill-107" fill="#FFFFFF"></path>
                <path d="M207.937,145.3434 C207.538,145.6224 206.836,146.1404 206.106,146.8174 C206.074,147.1474 206.36,147.6224 206.626,147.9554 C206.894,147.9044 207.359,147.7704 207.773,147.4314 C208.169,147.1064 208.365,146.7714 208.372,146.4064 C208.378,145.9874 208.136,145.5944 207.937,145.3434 L207.937,145.3434 Z M206.216,148.9964 L206.059,148.8284 C205.89,148.6484 205.048,147.7044 205.079,146.8574 C205.089,146.5524 205.209,146.2844 205.426,146.0834 C206.615,144.9824 207.702,144.2954 207.748,144.2664 L208.063,144.0684 L208.343,144.3144 C208.386,144.3524 209.392,145.2494 209.372,146.4244 C209.36,147.0914 209.035,147.6904 208.406,148.2044 C207.517,148.9334 206.489,148.9854 206.446,148.9874 L206.216,148.9964 Z" id="Fill-109" fill="#52267D"></path>
                <path d="M207.7388,145.8609 C207.7388,145.8609 208.5718,146.5919 207.7728,147.2459 C207.4318,147.5249 207.0358,147.5429 207.0358,147.5429 C207.0358,147.5429 206.4478,146.9149 206.7448,146.6399 C207.2608,146.1609 207.7388,145.8609 207.7388,145.8609" id="Fill-111" fill="#F3E3FF"></path>
                <path d="M191.0728,154.1051 C191.0728,154.1051 190.4528,151.9001 192.8798,151.0251 C195.3058,150.1501 195.9578,150.8771 195.9578,150.8771 C195.9578,150.8771 197.3008,153.1371 196.1008,153.8641 C194.9008,154.5911 191.0728,154.1051 191.0728,154.1051" id="Fill-113" fill="#FFFFFF"></path>
                <path d="M191.5024,153.651 C192.9484,153.803 195.1404,153.863 195.8424,153.436 C196.4464,153.07 195.8404,151.7 195.5734,151.214 C195.4194,151.131 194.7504,150.88 193.0494,151.496 C191.5754,152.027 191.4594,153.111 191.5024,153.651 M193.5784,154.765 C192.3664,154.765 191.2294,154.629 191.0094,154.601 L190.6814,154.559 L190.5914,154.241 C190.3334,153.323 190.4434,151.372 192.7094,150.554 C195.3214,149.614 196.1834,150.38 196.3294,150.544 C196.9804,151.62 197.6414,153.515 196.3594,154.292 C195.7494,154.662 194.6364,154.765 193.5784,154.765" id="Fill-115" fill="#52267D"></path>
                <path d="M192.2114,153.6041 C192.2114,153.6041 191.8894,152.4581 193.1504,152.0021 C194.4124,151.5471 194.7524,151.9261 194.7524,151.9261 C194.7524,151.9261 195.4494,153.1011 194.8264,153.4791 C194.2024,153.8571 192.2114,153.6041 192.2114,153.6041" id="Fill-117" fill="#F3E3FF"></path>
                <path d="M147.9634,102.9869 C147.9634,102.9869 151.8374,105.1769 157.2824,103.1999 C156.9084,104.8889 156.1474,108.2839 156.1474,108.2839 C156.1474,108.2839 151.1024,109.8309 147.2114,107.3829 C147.6094,105.1409 147.9634,102.9869 147.9634,102.9869" id="Fill-119" fill="#FFFFFF"></path>
                <path d="M147.4878,107.2584 C150.8628,109.2794 155.1208,108.2984 155.9358,108.0834 C156.0718,107.4774 156.5998,105.1184 156.9418,103.5824 C152.4848,105.0524 149.1648,103.8254 148.1548,103.3624 C148.0448,104.0294 147.7798,105.6064 147.4878,107.2584 M152.5088,109.0244 C150.8418,109.0244 148.8538,108.7114 147.0788,107.5944 L146.9358,107.5044 L146.9658,107.3384 C147.3638,105.0994 147.7168,102.9464 147.7168,102.9464 L147.7748,102.5944 L148.0868,102.7694 C148.1238,102.7904 151.9288,104.8794 157.1978,102.9644 L157.6258,102.8094 L157.5268,103.2534 C157.1528,104.9444 156.3908,108.3384 156.3908,108.3384 L156.3588,108.4804 L156.2198,108.5234 C156.1048,108.5584 154.5458,109.0244 152.5088,109.0244" id="Fill-121" fill="#52267D"></path>
                <path d="M176.9429,93.1456 C176.9429,93.1456 176.7669,91.2886 174.9219,90.5496 C174.3579,90.3246 172.8379,90.2636 172.8379,90.2636 C172.8379,90.2636 172.4109,92.2306 173.6559,92.8176 C175.4489,93.6616 176.9429,93.1456 176.9429,93.1456" id="Fill-123" fill="#FFFFFF"></path>
                <path d="M173.0483,90.525 C172.9873,91.009 172.9303,92.199 173.7623,92.591 C175.0633,93.204 176.2093,93.058 176.6583,92.962 C176.5553,92.483 176.1713,91.319 174.8283,90.782 C174.4613,90.635 173.5603,90.555 173.0483,90.525 M175.7853,93.553 C175.1793,93.553 174.3973,93.442 173.5493,93.044 C172.1403,92.38 172.5733,90.299 172.5933,90.211 L172.6373,90.005 L172.8473,90.014 C172.9113,90.017 174.4173,90.08 175.0143,90.318 C176.9793,91.104 177.1843,93.04 177.1923,93.122 L177.2103,93.318 L177.0253,93.382 C176.9883,93.394 176.5133,93.553 175.7853,93.553" id="Fill-125" fill="#52267D"></path>
                <path d="M172.2603,92.1974 C172.2603,92.1974 172.2073,89.6664 169.3603,89.2974 C168.8293,89.2284 168.1473,89.2804 168.1473,89.2804 C168.1473,89.2804 166.8043,91.9394 168.3053,92.1974 C170.1513,92.5134 172.2603,92.1974 172.2603,92.1974" id="Fill-127" fill="#FFFFFF"></path>
                <path d="M168.3081,89.5211 C168.0691,90.0411 167.6641,91.1441 167.9301,91.6721 C168.0081,91.8271 168.1411,91.9161 168.3471,91.9511 C169.7791,92.1971 171.3951,92.0501 171.9891,91.9801 C171.9011,91.3891 171.4671,89.8221 169.3281,89.5451 C168.9701,89.4981 168.5311,89.5111 168.3081,89.5211 M170.1581,92.5891 C169.5591,92.5891 168.8981,92.5531 168.2631,92.4441 C167.9021,92.3821 167.6321,92.1921 167.4841,91.8961 C167.0291,90.9931 167.8301,89.3521 167.9231,89.1671 L167.9881,89.0421 L168.1271,89.0311 C168.1571,89.0291 168.8431,88.9781 169.3921,89.0491 C172.4181,89.4411 172.5091,92.1651 172.5101,92.1921 L172.5151,92.4121 L172.2971,92.4441 C172.2401,92.4531 171.3151,92.5891 170.1581,92.5891" id="Fill-129" fill="#52267D"></path>
                <path d="M166.8667,92.3805 C166.8667,92.3805 166.4207,89.5845 163.9197,90.4195 C162.8497,90.7765 162.2727,91.6095 162.2727,91.6095 C162.2727,91.6095 162.8297,93.7345 163.8267,93.4685 C165.5667,93.0045 166.8667,92.3805 166.8667,92.3805" id="Fill-131" fill="#FFFFFF"></path>
                <path d="M162.5483,91.6627 C162.6763,92.0857 163.0033,92.9267 163.4323,93.1757 C163.5443,93.2407 163.6513,93.2577 163.7623,93.2267 C165.0913,92.8727 166.1673,92.4197 166.5783,92.2367 C166.4863,91.8827 166.2223,91.1047 165.6013,90.7287 C165.1703,90.4697 164.6313,90.4447 163.9983,90.6567 C163.2203,90.9167 162.7223,91.4507 162.5483,91.6627 M163.6533,93.7417 C163.4923,93.7417 163.3333,93.6967 163.1803,93.6077 C162.4443,93.1787 162.0703,91.8267 162.0303,91.6737 L162.0023,91.5617 L162.0683,91.4677 C162.0933,91.4307 162.7043,90.5607 163.8403,90.1827 C164.6213,89.9217 165.3003,89.9627 165.8613,90.3027 C166.8753,90.9177 167.1043,92.2837 167.1133,92.3407 L167.1433,92.5247 L166.9753,92.6057 C166.9213,92.6317 165.6343,93.2457 163.8913,93.7097 C163.8113,93.7307 163.7323,93.7417 163.6533,93.7417" id="Fill-133" fill="#52267D"></path>
                <path d="M141.2026,87.6349 C141.2026,87.6349 141.3016,86.5929 142.3366,86.1789 C142.6526,86.0519 143.1466,86.1869 143.1466,86.1869 C143.1466,86.1869 143.7456,87.1219 143.0466,87.4509 C142.0406,87.9239 141.2026,87.6349 141.2026,87.6349" id="Fill-135" fill="#F3E3FF"></path>
                <path d="M145.6392,87.023 C145.6392,87.023 145.6792,85.115 147.8262,84.837 C148.2262,84.785 148.7402,84.825 148.7402,84.825 C148.7402,84.825 149.7512,86.829 148.6202,87.023 C147.2292,87.262 145.6392,87.023 145.6392,87.023" id="Fill-137" fill="#F3E3FF"></path>
                <path d="M151.3706,87.898 C151.3706,87.898 151.6526,86.132 153.2316,86.659 C153.9066,86.885 154.2716,87.411 154.2716,87.411 C154.2716,87.411 153.9206,88.753 153.2906,88.585 C152.1916,88.292 151.3706,87.898 151.3706,87.898" id="Fill-139" fill="#F3E3FF"></path>
                <path d="M176.146,92.7535 C176.146,92.7535 176.047,91.7185 175.019,91.3075 C174.706,91.1815 173.858,91.1475 173.858,91.1475 C173.858,91.1475 173.62,92.2435 174.314,92.5705 C175.313,93.0405 176.146,92.7535 176.146,92.7535" id="Fill-141" fill="#F3E3FF"></path>
                <path d="M171.2788,91.8287 C171.2788,91.8287 171.2488,90.3617 169.5988,90.1477 C169.2918,90.1087 168.8958,90.1387 168.8958,90.1387 C168.8958,90.1387 168.1178,91.6797 168.9878,91.8287 C170.0568,92.0117 171.2788,91.8287 171.2788,91.8287" id="Fill-143" fill="#F3E3FF"></path>
                <path d="M166.0806,92.2711 C166.0806,92.2711 165.8166,90.6171 164.3376,91.1111 C163.7056,91.3221 163.3636,91.8151 163.3636,91.8151 C163.3636,91.8151 163.6926,93.0721 164.2826,92.9151 C165.3116,92.6401 166.0806,92.2711 166.0806,92.2711" id="Fill-145" fill="#F3E3FF"></path>
                <path d="M159.5376,107.7828 C159.5376,107.7828 164.3346,108.5308 168.8956,107.4118 C169.3406,109.8898 169.6256,111.7618 169.6256,111.7618 C169.6256,111.7618 166.4626,113.9098 160.6176,112.6638 C159.9286,109.4798 159.5376,107.7828 159.5376,107.7828" id="Fill-147" fill="#FFFFFF"></path>
                <path d="M160.8276,112.4517 C165.7366,113.4577 168.7086,111.9997 169.3526,111.6347 C169.2766,111.1457 169.0356,109.6247 168.6966,107.7167 C164.9366,108.5797 161.0466,108.2207 159.8606,108.0777 C160.0056,108.7117 160.3386,110.1957 160.8276,112.4517 M164.1706,113.3057 C163.1116,113.3057 161.9096,113.1947 160.5656,112.9077 L160.4076,112.8747 L160.3736,112.7167 C159.6836,109.5357 159.2946,107.8397 159.2946,107.8387 L159.2116,107.4787 L159.5756,107.5357 C159.6236,107.5417 164.3786,108.2627 168.8366,107.1687 L169.0956,107.1047 L169.1416,107.3677 C169.5816,109.8207 169.8696,111.7047 169.8726,111.7227 L169.8956,111.8797 L169.7656,111.9687 C169.6636,112.0377 167.7436,113.3057 164.1706,113.3057" id="Fill-149" fill="#52267D"></path>
                <path d="M166.27,102.9654 L172.916,102.9654 L172.916,100.1004 C172.916,98.9404 171.976,97.9994 170.815,97.9994 L166.27,97.9994 C165.562,97.9994 164.988,98.5734 164.988,99.2814 L164.988,101.6834 C164.988,102.3914 165.562,102.9654 166.27,102.9654" id="Fill-151" fill="#F3E3FF"></path>
                <path d="M166.9858,102.8726 L172.8228,102.8726 L172.8228,100.9856 C172.8228,99.8726 171.9208,98.9706 170.8078,98.9706 L166.9858,98.9706 C166.4298,98.9706 165.9788,99.4216 165.9788,99.9776 L165.9788,101.8646 C165.9788,102.4216 166.4298,102.8726 166.9858,102.8726" id="Fill-153" fill="#FFFFFF"></path>
                <path d="M166.9858,99.2203 C166.5688,99.2203 166.2288,99.5603 166.2288,99.9783 L166.2288,101.8653 C166.2288,102.2833 166.5688,102.6223 166.9858,102.6223 L172.5728,102.6223 L172.5728,100.9863 C172.5728,100.0123 171.7808,99.2203 170.8078,99.2203 L166.9858,99.2203 Z M173.0728,103.1223 L166.9858,103.1223 C166.2928,103.1223 165.7288,102.5583 165.7288,101.8653 L165.7288,99.9783 C165.7288,99.2843 166.2928,98.7203 166.9858,98.7203 L170.8078,98.7203 C172.0568,98.7203 173.0728,99.7373 173.0728,100.9863 L173.0728,103.1223 Z" id="Fill-155" fill="#52267D"></path>
                <path d="M171.937,101.7164 C171.937,102.3184 171.449,102.8064 170.847,102.8064 C170.246,102.8064 169.757,102.3184 169.757,101.7164 C169.757,101.1134 170.246,100.6264 170.847,100.6264 C171.449,100.6264 171.937,101.1134 171.937,101.7164" id="Fill-157" fill="#52267D"></path>
                <path d="M149.8286,98.2574 L143.1826,98.2574 L143.1826,95.3924 C143.1826,94.2324 144.1236,93.2914 145.2836,93.2914 L149.8286,93.2914 C150.5376,93.2914 151.1106,93.8654 151.1106,94.5734 L151.1106,96.9754 C151.1106,97.6834 150.5376,98.2574 149.8286,98.2574" id="Fill-159" fill="#F3E3FF"></path>
                <path d="M149.1128,98.1637 L143.2768,98.1637 L143.2768,96.2767 C143.2768,95.1637 144.1778,94.2627 145.2918,94.2627 L149.1128,94.2627 C149.6698,94.2627 150.1208,94.7137 150.1208,95.2697 L150.1208,97.1567 C150.1208,97.7127 149.6698,98.1637 149.1128,98.1637" id="Fill-161" fill="#FFFFFF"></path>
                <path d="M143.5269,97.9137 L149.1129,97.9137 C149.5309,97.9137 149.8709,97.5737 149.8709,97.1567 L149.8709,95.2697 C149.8709,94.8517 149.5309,94.5127 149.1129,94.5127 L145.2919,94.5127 C144.3189,94.5127 143.5269,95.3037 143.5269,96.2767 L143.5269,97.9137 Z M149.1129,98.4137 L143.0269,98.4137 L143.0269,96.2767 C143.0269,95.0287 144.0429,94.0127 145.2919,94.0127 L149.1129,94.0127 C149.8059,94.0127 150.3709,94.5767 150.3709,95.2697 L150.3709,97.1567 C150.3709,97.8507 149.8059,98.4137 149.1129,98.4137 L149.1129,98.4137 Z" id="Fill-163" fill="#52267D"></path>
                <path d="M144.1626,97.0074 C144.1626,97.6104 144.6506,98.0974 145.2526,98.0974 C145.8536,98.0974 146.3426,97.6104 146.3426,97.0074 C146.3426,96.4054 145.8536,95.9184 145.2526,95.9184 C144.6506,95.9184 144.1626,96.4054 144.1626,97.0074" id="Fill-165" fill="#52267D"></path>
                <path d="M179.4771,104.0982 L179.4771,104.0982 C179.1671,104.0322 178.8901,103.8602 178.6931,103.6132 L178.3281,103.1532 L179.1411,103.3272 L179.6211,103.4302 C179.8051,103.4692 179.9221,103.6522 179.8821,103.8362 C179.8431,104.0212 179.6621,104.1382 179.4771,104.0982" id="Fill-167" fill="#52267D"></path>
                <path d="M137.4712,99.0025 L137.4712,99.0025 C137.7812,98.9365 138.0582,98.7645 138.2552,98.5165 L138.6192,98.0575 L137.8072,98.2315 L137.3272,98.3345 C137.1432,98.3735 137.0262,98.5555 137.0652,98.7395 C137.1052,98.9245 137.2862,99.0425 137.4712,99.0025" id="Fill-169" fill="#52267D"></path>
                <path d="M148.4282,103.6939 C148.4282,103.6939 152.4872,105.4229 156.5802,103.8429 C156.1522,106.2449 155.7692,107.4699 155.7692,107.4699 C155.7692,107.4699 153.3062,107.6149 151.6752,107.2939 C149.3462,106.8349 148.4282,105.7759 148.4282,103.6939" id="Fill-171" fill="#EAF3FB"></path>
                <path d="M154.0747,106.773 C154.0747,106.773 150.3827,107.081 147.5227,105.598" id="Fill-173" fill="#FFFFFF"></path>
                <path d="M153.2085,107.0514 C151.9215,107.0514 149.4725,106.8904 147.4075,105.8204 L147.6385,105.3764 C150.3985,106.8084 154.0165,106.5284 154.0545,106.5244 L154.0955,107.0224 C154.0515,107.0264 153.7235,107.0514 153.2085,107.0514" id="Fill-175" fill="#52267D"></path>
                <path d="M167.1382,108.3238 C167.1382,108.3238 163.5382,109.3468 160.3632,108.7128 C160.9622,111.0768 161.2812,111.8178 161.2812,111.8178 C161.2812,111.8178 166.0442,111.1828 167.1382,108.3238" id="Fill-177" fill="#EAF3FB"></path>
                <path d="M165.2065,141.9029 C165.2065,141.9029 164.9885,142.0599 164.6805,142.2469" id="Fill-179" fill="#F3E3FF"></path>
                <path d="M164.8091,142.4605 L164.5511,142.0325 C164.8471,141.8545 165.0571,141.7025 165.0601,141.6995 L165.3531,142.1065 C165.3531,142.1065 165.1281,142.2685 164.8091,142.4605" id="Fill-181" fill="#52267D"></path>
                <path d="M167.4858,109.6851 C167.4858,109.6851 163.8618,110.3721 160.0148,109.9141" id="Fill-183" fill="#FFFFFF"></path>
                <path d="M162.7896,110.3199 C161.9016,110.3199 160.9496,110.2769 159.9856,110.1619 L160.0446,109.6659 C163.8096,110.1129 167.4036,109.4469 167.4386,109.4389 L167.5326,109.9309 C167.5056,109.9359 165.4386,110.3199 162.7896,110.3199" id="Fill-185" fill="#52267D"></path>
                <path d="M161.5474,184.2359 C161.5474,184.2359 160.5864,183.4529 159.3084,184.5019 C158.1414,185.4609 157.2634,186.9419 157.7864,187.0909 C158.3104,187.2399 159.2314,187.3839 160.1974,187.2079 C161.0394,187.0529 161.7824,187.2149 162.1204,185.4549 C162.2774,184.6339 161.5474,184.2359 161.5474,184.2359" id="Fill-187" fill="#FFFFFF"></path>
                <path d="M160.6558,184.2057 C160.3358,184.2057 159.9268,184.3167 159.4668,184.6947 C158.4348,185.5427 157.8058,186.6487 157.8848,186.8807 C158.1228,186.9277 159.0768,187.1627 160.1528,186.9617 C160.2678,186.9397 160.3828,186.9257 160.4938,186.9097 C161.1698,186.8177 161.6158,186.7577 161.8758,185.4077 C161.9948,184.7817 161.4498,184.4677 161.4268,184.4547 L161.3908,184.4317 C161.3718,184.4157 161.0958,184.2057 160.6558,184.2057 M159.2788,187.5387 C158.5238,187.5387 157.9278,187.3917 157.7178,187.3317 C157.5498,187.2837 157.4308,187.1547 157.3938,186.9787 C157.2658,186.3607 158.2168,185.0757 159.1488,184.3087 C160.4578,183.2347 161.5128,183.9037 161.6818,184.0247 C161.9918,184.2007 162.5148,184.7237 162.3658,185.5017 C162.0398,187.2047 161.2878,187.3077 160.5608,187.4047 C160.4578,187.4197 160.3508,187.4347 160.2428,187.4537 C159.9058,187.5157 159.5798,187.5387 159.2788,187.5387" id="Fill-189" fill="#52267D"></path>
                <path d="M161.3286,184.5211 C161.3286,184.5211 160.7296,184.0341 159.9346,184.6871 C159.2096,185.2841 158.6626,186.2061 158.9876,186.2981 C159.3136,186.3901 159.8876,186.4811 160.4886,186.3711 C161.0126,186.2741 161.4746,186.3751 161.6846,185.2801 C161.7826,184.7691 161.3286,184.5211 161.3286,184.5211" id="Fill-191" fill="#EAF3FB"></path>
                <path d="M162.9116,184.2184 C163.4196,184.1504 164.1506,185.2534 164.0666,185.5894 C163.9836,185.9254 163.9256,187.0354 163.1036,187.1564 C162.4986,187.2454 160.3396,187.4704 159.8676,187.0014 C159.4326,186.5694 160.2836,184.5704 162.9116,184.2184" id="Fill-193" fill="#FFFFFF"></path>
                <path d="M162.9575,184.4654 C162.9535,184.4654 162.9485,184.4654 162.9445,184.4664 C161.0985,184.7134 160.2665,185.7834 160.0665,186.3764 C159.9775,186.6424 160.0135,186.7934 160.0445,186.8244 C160.3455,187.1244 161.9935,187.0674 163.0675,186.9094 C163.5495,186.8384 163.6895,186.2684 163.7835,185.7374 C163.7985,185.6544 163.8115,185.5824 163.8235,185.5294 C163.8355,185.4194 163.6365,184.9924 163.3185,184.6844 C163.1515,184.5214 163.0235,184.4654 162.9575,184.4654 M161.3435,187.5414 C160.6575,187.5414 159.9765,187.4614 159.6915,187.1794 C159.4895,186.9784 159.4545,186.6274 159.5925,186.2174 C159.9105,185.2754 161.0495,184.2154 162.8785,183.9704 C163.2265,183.9294 163.5615,184.1984 163.7775,184.4404 C164.0395,184.7334 164.3975,185.2974 164.3095,185.6504 C164.2985,185.6944 164.2875,185.7544 164.2755,185.8254 C164.1925,186.2954 164.0195,187.2754 163.1405,187.4034 C162.9835,187.4274 162.1615,187.5414 161.3435,187.5414" id="Fill-195" fill="#52267D"></path>
                <path d="M163.0542,184.524 C163.3542,184.484 163.7842,185.134 163.7362,185.333 C163.6862,185.532 163.6522,186.187 163.1672,186.258 C162.8102,186.31 161.5352,186.443 161.2572,186.167 C161.0012,185.911 161.5032,184.732 163.0542,184.524" id="Fill-197" fill="#EAF3FB"></path>
                <path d="M165.0601,184.4332 C165.0601,184.4332 164.6221,184.2042 163.7521,184.7012 C162.9861,185.1392 161.8401,185.8412 162.1421,186.7132 C162.4431,187.5852 164.8681,187.2612 165.4071,187.0772 C165.9461,186.8922 166.2841,186.3052 166.1881,185.7912 C165.9811,184.6712 165.0601,184.4332 165.0601,184.4332" id="Fill-199" fill="#FFFFFF"></path>
                <path d="M164.7583,184.6314 C164.5833,184.6314 164.2903,184.6814 163.8763,184.9174 C163.0133,185.4114 162.1603,186.0014 162.3783,186.6314 C162.5843,187.2304 164.6963,187.0564 165.3253,186.8404 C165.7353,186.6994 166.0173,186.2404 165.9423,185.8374 C165.7683,184.8964 165.0273,184.6834 164.9953,184.6744 L164.9503,184.6574 C164.9433,184.6544 164.8783,184.6314 164.7583,184.6314 M163.7213,187.5464 C162.9143,187.5464 162.1083,187.3804 161.9053,186.7944 C161.5233,185.6884 162.9453,184.8744 163.6283,184.4844 C164.4963,183.9854 165.0133,184.1424 165.1463,184.1974 C165.3093,184.2474 166.2173,184.5734 166.4343,185.7454 C166.5543,186.3904 166.1293,187.0934 165.4873,187.3134 C165.2373,187.3994 164.4803,187.5464 163.7213,187.5464" id="Fill-201" fill="#52267D"></path>
                <path d="M165.2251,184.7418 C165.2251,184.7418 164.9651,184.6058 164.4511,184.8998 C163.9961,185.1608 163.3181,185.5758 163.4961,186.0928 C163.6751,186.6088 165.1111,186.4168 165.4301,186.3068 C165.7491,186.1978 165.9501,185.8498 165.8931,185.5468 C165.7701,184.8838 165.2251,184.7418 165.2251,184.7418" id="Fill-203" fill="#EAF3FB"></path>
                <path d="M154.9224,156.6197 C154.9224,156.6197 155.4164,162.2367 153.9874,171.0667 C152.6584,179.2867 150.3014,181.8647 150.4744,183.9967 C150.6094,185.6467 151.3054,187.1587 152.9614,187.1587 L157.9014,187.1587 C160.2084,187.1587 162.2424,185.6857 162.9844,183.5017 C163.5814,181.7427 164.2024,179.3487 164.5734,176.3227 C164.9534,172.2067 164.8714,168.0787 164.8034,165.6537" id="Fill-205" fill="#9452BA"></path>
                <path d="M157.9019,187.6588 L152.9619,187.6588 C151.2769,187.6588 150.1609,186.3048 149.9759,184.0378 C149.8929,183.0198 150.2859,182.0078 150.8789,180.4748 C151.6629,178.4498 152.7359,175.6758 153.4949,170.9868 C154.8949,162.3318 154.4289,156.7198 154.4239,156.6638 L155.4209,156.5758 C155.4249,156.6328 155.9039,162.3568 154.4809,171.1468 C153.7069,175.9388 152.5659,178.8868 151.8109,180.8358 C151.2679,182.2398 150.9089,183.1678 150.9719,183.9568 C151.0549,184.9658 151.4229,186.6588 152.9619,186.6588 L157.9019,186.6588 C159.9849,186.6588 161.8379,185.3258 162.5099,183.3408 C163.2359,181.2058 163.7629,178.8238 164.0779,176.2628 C164.4329,172.4028 164.3849,168.5718 164.3029,165.6678 L165.3029,165.6398 C165.3849,168.5718 165.4339,172.4408 165.0719,176.3688 C164.7479,179.0128 164.2049,181.4628 163.4579,183.6628 C162.6459,186.0528 160.4139,187.6588 157.9019,187.6588" id="Fill-207" fill="#52267D"></path>
                <path d="M180.2544,160.3355 C178.6174,161.7445 177.7694,164.0515 177.7814,166.1705 C177.7994,169.0005 179.4414,172.6035 178.4004,177.3055 C177.4734,181.4945 175.6274,182.2335 176.1834,185.9915 C176.2834,186.6705 176.8934,187.1585 177.5784,187.1585 L183.0844,187.1585 C185.6174,187.1585 187.7874,185.3205 188.2014,182.8215 C189.3084,176.1465 188.4634,169.8455 187.5734,165.0105" id="Fill-209" fill="#9452BA"></path>
                <path d="M183.0845,187.6588 L177.5785,187.6588 C176.6355,187.6588 175.8225,186.9728 175.6885,186.0648 C175.3325,183.6558 175.9255,182.3628 176.6115,180.8658 C177.0545,179.9038 177.5545,178.8118 177.9115,177.1968 C178.5775,174.1898 178.1115,171.6568 177.7005,169.4218 C177.4885,168.2678 177.2875,167.1788 177.2815,166.1738 C177.2675,163.7568 178.2815,161.3748 179.9285,159.9568 L180.5805,160.7148 C179.1495,161.9458 178.2695,164.0358 178.2815,166.1678 C178.2875,167.0838 178.4805,168.1318 178.6845,169.2408 C179.0915,171.4538 179.5985,174.2078 178.8885,177.4138 C178.5085,179.1328 177.9835,180.2748 177.5215,181.2838 C176.8505,182.7458 176.3645,183.8028 176.6775,185.9188 C176.7405,186.3408 177.1275,186.6588 177.5785,186.6588 L183.0845,186.6588 C185.3875,186.6588 187.3325,185.0108 187.7085,182.7398 C188.8085,176.1018 187.9515,169.8268 187.0815,165.1008 L188.0655,164.9198 C188.9495,169.7248 189.8205,176.1128 188.6945,182.9038 C188.2385,185.6588 185.8785,187.6588 183.0845,187.6588" id="Fill-211" fill="#52267D"></path>
                <polygon id="Fill-213" fill="#52267D" points="181.5513 167.4605 179.9123 166.6525 181.5723 165.3245 182.2983 165.5685 182.2183 165.8055 181.6213 165.6065 180.3753 166.6025 181.5353 167.1735 182.3853 166.6305 181.6863 166.4735 181.4083 166.6735 181.2623 166.4705 181.6313 166.2055 183.0263 166.5195"></polygon>
                <path d="M151.5532,184.2359 C151.5532,184.2359 150.5922,183.4529 149.3152,184.5019 C148.1472,185.4609 147.2692,186.9419 147.7922,187.0909 C148.3162,187.2399 149.2372,187.3839 150.2032,187.2079 C151.0452,187.0529 151.7882,187.2149 152.1262,185.4549 C152.2832,184.6339 151.5532,184.2359 151.5532,184.2359" id="Fill-215" fill="#FFFFFF"></path>
                <path d="M150.6626,184.2057 C150.3426,184.2057 149.9336,184.3167 149.4736,184.6947 C148.4416,185.5417 147.8116,186.6487 147.8906,186.8807 C148.1276,186.9277 149.0816,187.1627 150.1586,186.9617 C150.2736,186.9397 150.3886,186.9257 150.4996,186.9097 C151.1756,186.8177 151.6216,186.7577 151.8816,185.4077 C152.0006,184.7817 151.4556,184.4677 151.4326,184.4547 L151.3966,184.4317 C151.3776,184.4157 151.1016,184.2057 150.6626,184.2057 M149.2846,187.5387 C148.5296,187.5387 147.9336,187.3917 147.7246,187.3317 C147.5546,187.2837 147.4366,187.1547 147.3996,186.9787 C147.2716,186.3597 148.2226,185.0747 149.1566,184.3087 C150.4616,183.2347 151.5186,183.9037 151.6876,184.0247 C151.9976,184.2007 152.5206,184.7237 152.3716,185.5017 C152.0456,187.2047 151.2936,187.3077 150.5666,187.4047 C150.4636,187.4197 150.3566,187.4347 150.2486,187.4537 C149.9116,187.5157 149.5856,187.5387 149.2846,187.5387" id="Fill-217" fill="#52267D"></path>
                <path d="M151.3345,184.5211 C151.3345,184.5211 150.7355,184.0341 149.9405,184.6871 C149.2155,185.2841 148.6685,186.2061 148.9945,186.2981 C149.3195,186.3901 149.8935,186.4811 150.4945,186.3711 C151.0185,186.2741 151.4805,186.3751 151.6905,185.2801 C151.7885,184.7691 151.3345,184.5211 151.3345,184.5211" id="Fill-219" fill="#EAF3FB"></path>
                <polygon id="Fill-221" fill="#52267D" points="159.4722 172.3892 159.4102 172.3852 157.2932 172.2312 157.0032 170.2022 159.0732 169.5582 159.1472 169.7962 157.2812 170.3782 157.5122 171.9962 159.3652 172.1312 160.1612 171.2102 159.1352 170.6412 158.3772 170.8612 158.8792 171.4182 158.6942 171.5862 157.9262 170.7322 159.1642 170.3712 160.5522 171.1422"></polygon>
                <g id="Group-285" transform="translate(115.000000, 93.608000)" fill="#F3E3FF">
                    <path d="M2.4761,16.6982 C2.1121,16.6982 1.8151,16.4012 1.8151,16.0372 L2.0651,16.0372 C2.0651,16.2632 2.2491,16.4482 2.4761,16.4482 C2.7031,16.4482 2.8871,16.2632 2.8871,16.0372 L3.1371,16.0372 C3.1371,16.4012 2.8401,16.6982 2.4761,16.6982" id="Fill-223"></path>
                    <path d="M1.4043,16.6982 C1.0403,16.6982 0.7433,16.4012 0.7433,16.0372 L0.9933,16.0372 C0.9933,16.2632 1.1773,16.4482 1.4043,16.4482 C1.6313,16.4482 1.8153,16.2632 1.8153,16.0372 L2.0653,16.0372 C2.0653,16.4012 1.7693,16.6982 1.4043,16.6982" id="Fill-225"></path>
                    <path d="M1.9404,17.2344 C1.5754,17.2344 1.2794,16.9374 1.2794,16.5734 L1.5294,16.5734 C1.5294,16.7994 1.7134,16.9844 1.9404,16.9844 C2.1674,16.9844 2.3514,16.7994 2.3514,16.5734 L2.6014,16.5734 C2.6014,16.9374 2.3044,17.2344 1.9404,17.2344" id="Fill-227"></path>
                    <path d="M22.8853,15.7783 C22.7203,15.7783 22.5543,15.7343 22.4043,15.6413 L22.5363,15.4283 C22.8453,15.6203 23.2573,15.5283 23.4513,15.2153 C23.5453,15.0643 23.5743,14.8863 23.5343,14.7143 C23.4943,14.5413 23.3893,14.3933 23.2393,14.3003 L23.3693,14.0883 C23.5773,14.2163 23.7223,14.4193 23.7783,14.6573 C23.8333,14.8943 23.7933,15.1393 23.6643,15.3473 C23.4903,15.6263 23.1913,15.7783 22.8853,15.7783" id="Fill-229"></path>
                    <path d="M23.1392,16.8662 C22.9742,16.8662 22.8082,16.8222 22.6592,16.7292 L22.7892,16.5162 C23.1052,16.7112 23.5142,16.6132 23.7052,16.3032 C23.8992,15.9922 23.8032,15.5812 23.4922,15.3872 L23.6242,15.1752 C24.0522,15.4412 24.1842,16.0072 23.9182,16.4352 C23.7442,16.7132 23.4462,16.8662 23.1392,16.8662" id="Fill-231"></path>
                    <path d="M48.6167,34.3789 C48.1517,34.3789 47.7727,33.9999 47.7727,33.5349 L48.0227,33.5349 C48.0227,33.8619 48.2897,34.1289 48.6167,34.1289 C48.9437,34.1289 49.2107,33.8619 49.2107,33.5349 L49.4607,33.5349 C49.4607,33.9999 49.0817,34.3789 48.6167,34.3789" id="Fill-233"></path>
                    <path d="M47.1792,34.3789 C46.7142,34.3789 46.3352,33.9999 46.3352,33.5349 L46.5852,33.5349 C46.5852,33.8619 46.8522,34.1289 47.1792,34.1289 C47.5062,34.1289 47.7732,33.8619 47.7732,33.5349 L48.0232,33.5349 C48.0232,33.9999 47.6442,34.3789 47.1792,34.3789" id="Fill-235"></path>
                    <path d="M47.8979,35.0977 C47.4329,35.0977 47.0539,34.7187 47.0539,34.2537 L47.3039,34.2537 C47.3039,34.5807 47.5709,34.8477 47.8979,34.8477 C48.2249,34.8477 48.4919,34.5807 48.4919,34.2537 L48.7419,34.2537 C48.7419,34.7187 48.3629,35.0977 47.8979,35.0977" id="Fill-237"></path>
                    <path d="M27.1519,79.9102 C26.6869,79.9102 26.3089,79.5312 26.3089,79.0662 L26.5589,79.0662 C26.5589,79.3932 26.8249,79.6602 27.1519,79.6602 C27.4789,79.6602 27.7459,79.3932 27.7459,79.0662 L27.9959,79.0662 C27.9959,79.5312 27.6169,79.9102 27.1519,79.9102" id="Fill-239"></path>
                    <path d="M25.7153,79.9102 C25.2503,79.9102 24.8713,79.5312 24.8713,79.0662 L25.1213,79.0662 C25.1213,79.3932 25.3883,79.6602 25.7153,79.6602 C26.0423,79.6602 26.3093,79.3932 26.3093,79.0662 L26.5593,79.0662 C26.5593,79.5312 26.1803,79.9102 25.7153,79.9102" id="Fill-241"></path>
                    <path d="M26.4341,80.6289 C25.9691,80.6289 25.5901,80.2499 25.5901,79.7849 L25.8401,79.7849 C25.8401,80.1119 26.1071,80.3789 26.4341,80.3789 C26.7611,80.3789 27.0271,80.1119 27.0271,79.7849 L27.2771,79.7849 C27.2771,80.2499 26.8991,80.6289 26.4341,80.6289" id="Fill-243"></path>
                    <path d="M47.5737,11.5459 C47.0697,11.5459 46.6597,11.1359 46.6597,10.6309 L46.9097,10.6309 C46.9097,10.9979 47.2077,11.2959 47.5737,11.2959 C47.9407,11.2959 48.2387,10.9979 48.2387,10.6309 L48.4887,10.6309 C48.4887,11.1359 48.0787,11.5459 47.5737,11.5459" id="Fill-245"></path>
                    <path d="M46.7847,12.335 C46.2797,12.335 45.8697,11.925 45.8697,11.421 L46.1197,11.421 C46.1197,11.787 46.4177,12.085 46.7847,12.085 C47.1507,12.085 47.4487,11.787 47.4487,11.421 L47.6987,11.421 C47.6987,11.925 47.2887,12.335 46.7847,12.335" id="Fill-247"></path>
                    <path d="M37.6499,25.6621 C37.0519,25.6621 36.5659,25.1761 36.5659,24.5771 L36.8159,24.5771 C36.8159,25.0371 37.1899,25.4121 37.6499,25.4121 C38.1099,25.4121 38.4849,25.0371 38.4849,24.5771 L38.7349,24.5771 C38.7349,25.1761 38.2489,25.6621 37.6499,25.6621" id="Fill-249"></path>
                    <path d="M36.6909,26.6211 C36.0919,26.6211 35.6059,26.1351 35.6059,25.5371 L35.8559,25.5371 C35.8559,25.9971 36.2309,26.3711 36.6909,26.3711 C37.1509,26.3711 37.5249,25.9971 37.5249,25.5371 L37.7749,25.5371 C37.7749,26.1351 37.2889,26.6211 36.6909,26.6211" id="Fill-251"></path>
                    <path d="M23.395,1.4873 C22.972,1.4873 22.628,1.1433 22.628,0.7203 L22.878,0.7203 C22.878,1.0053 23.11,1.2373 23.395,1.2373 C23.68,1.2373 23.912,1.0053 23.912,0.7203 L24.162,0.7203 C24.162,1.1433 23.818,1.4873 23.395,1.4873" id="Fill-253"></path>
                    <path d="M22.7534,2.1294 C22.3304,2.1294 21.9854,1.7854 21.9854,1.3624 L22.2354,1.3624 C22.2354,1.6474 22.4684,1.8794 22.7534,1.8794 C23.0384,1.8794 23.2704,1.6474 23.2704,1.3624 L23.5204,1.3624 C23.5204,1.7854 23.1764,2.1294 22.7534,2.1294" id="Fill-255"></path>
                    <path d="M83.7222,65.8105 C83.4772,65.8105 83.2332,65.7075 83.0622,65.5065 L83.2512,65.3445 C83.4712,65.6015 83.8602,65.6355 84.1182,65.4155 C84.2432,65.3105 84.3202,65.1625 84.3322,64.9985 C84.3462,64.8345 84.2952,64.6755 84.1892,64.5505 L84.3802,64.3885 C84.5292,64.5655 84.6012,64.7895 84.5812,65.0185 C84.5632,65.2485 84.4552,65.4575 84.2802,65.6075 C84.1182,65.7445 83.9192,65.8105 83.7222,65.8105" id="Fill-257"></path>
                    <path d="M83.6362,66.8525 C83.6122,66.8525 83.5872,66.8515 83.5642,66.8495 C83.3332,66.8315 83.1242,66.7235 82.9752,66.5475 L83.1662,66.3855 C83.2722,66.5105 83.4202,66.5875 83.5842,66.6005 C83.7472,66.6215 83.9072,66.5625 84.0322,66.4565 C84.2892,66.2385 84.3222,65.8505 84.1032,65.5925 L84.2942,65.4305 C84.6012,65.7935 84.5562,66.3395 84.1942,66.6485 C84.0352,66.7815 83.8402,66.8525 83.6362,66.8525" id="Fill-259"></path>
                    <path d="M54.5786,55.8564 C54.4606,55.8564 54.3436,55.8354 54.2296,55.7934 C53.9816,55.7004 53.7846,55.5164 53.6756,55.2754 L53.9016,55.1714 C53.9836,55.3524 54.1326,55.4894 54.3176,55.5584 C54.5046,55.6284 54.7056,55.6214 54.8856,55.5404 C55.2566,55.3704 55.4216,54.9284 55.2516,54.5564 L55.4786,54.4534 C55.7056,54.9504 55.4856,55.5404 54.9886,55.7664 C54.8576,55.8274 54.7186,55.8564 54.5786,55.8564" id="Fill-261"></path>
                    <path d="M53.0005,56.5762 C52.8835,56.5762 52.7665,56.5552 52.6525,56.5132 C52.4045,56.4202 52.2075,56.2362 52.0985,55.9952 L52.3245,55.8912 C52.4075,56.0722 52.5555,56.2092 52.7405,56.2782 C52.9245,56.3482 53.1265,56.3422 53.3085,56.2592 C53.4875,56.1772 53.6255,56.0292 53.6945,55.8432 C53.7645,55.6572 53.7575,55.4562 53.6745,55.2752 L53.9015,55.1722 C54.1295,55.6702 53.9085,56.2602 53.4115,56.4862 C53.2805,56.5462 53.1405,56.5762 53.0005,56.5762" id="Fill-263"></path>
                    <path d="M54.1489,57.0049 C54.0319,57.0049 53.9139,56.9839 53.7999,56.9419 C53.5529,56.8489 53.3559,56.6649 53.2469,56.4239 L53.4729,56.3199 C53.5559,56.5009 53.7029,56.6379 53.8879,56.7079 C54.0749,56.7759 54.2749,56.7699 54.4559,56.6889 C54.8279,56.5179 54.9929,56.0769 54.8229,55.7049 L55.0499,55.6019 C55.2769,56.0989 55.0559,56.6889 54.5589,56.9149 C54.4279,56.9759 54.2889,57.0049 54.1489,57.0049" id="Fill-265"></path>
                    <path d="M52.5718,57.7236 C52.1958,57.7236 51.8348,57.5086 51.6688,57.1436 L51.8948,57.0396 C52.0648,57.4116 52.5048,57.5756 52.8788,57.4076 C53.0588,57.3256 53.1958,57.1766 53.2648,56.9916 C53.3358,56.8056 53.3288,56.6046 53.2458,56.4236 L53.4738,56.3206 C53.5838,56.5616 53.5928,56.8306 53.4998,57.0786 C53.4068,57.3276 53.2228,57.5246 52.9818,57.6346 C52.8488,57.6956 52.7098,57.7236 52.5718,57.7236" id="Fill-267"></path>
                    <path d="M55.2983,57.4336 C54.9213,57.4336 54.5603,57.2176 54.3943,56.8536 L54.6203,56.7496 C54.7913,57.1216 55.2323,57.2856 55.6043,57.1176 C55.9763,56.9466 56.1413,56.5056 55.9713,56.1336 L56.1983,56.0306 C56.4253,56.5276 56.2043,57.1176 55.7073,57.3436 C55.5743,57.4046 55.4353,57.4336 55.2983,57.4336" id="Fill-269"></path>
                    <path d="M39.5688,8.208 C39.0178,8.208 38.5698,7.76 38.5698,7.208 L38.8198,7.208 C38.8198,7.621 39.1558,7.958 39.5688,7.958 C39.9818,7.958 40.3188,7.621 40.3188,7.208 L40.5688,7.208 C40.5688,7.76 40.1208,8.208 39.5688,8.208" id="Fill-271"></path>
                    <path d="M39.2661,41.2598 C38.7141,41.2598 38.2661,40.8118 38.2661,40.2608 L38.5161,40.2608 C38.5161,40.6738 38.8531,41.0098 39.2661,41.0098 C39.6791,41.0098 40.0161,40.6738 40.0161,40.2608 L40.2661,40.2608 C40.2661,40.8118 39.8181,41.2598 39.2661,41.2598" id="Fill-273"></path>
                    <path d="M48.9663,22.8281 C48.5323,22.8281 48.1793,22.4741 48.1793,22.0411 L48.4293,22.0411 C48.4293,22.3371 48.6703,22.5781 48.9663,22.5781 C49.2633,22.5781 49.5043,22.3371 49.5043,22.0411 L49.7543,22.0411 C49.7543,22.4741 49.4013,22.8281 48.9663,22.8281" id="Fill-275"></path>
                    <path d="M64.5796,7.6055 C64.2366,7.6055 63.9576,7.3265 63.9576,6.9835 L64.2076,6.9835 C64.2076,7.1885 64.3746,7.3555 64.5796,7.3555 C64.7856,7.3555 64.9526,7.1885 64.9526,6.9835 L65.2026,6.9835 C65.2026,7.3265 64.9236,7.6055 64.5796,7.6055" id="Fill-277"></path>
                    <path d="M69.0786,80.9355 C68.8756,80.9355 68.6766,80.8725 68.5066,80.7525 C68.2876,80.5985 68.1416,80.3695 68.0966,80.1065 L68.3426,80.0635 C68.4136,80.4705 68.8006,80.7485 69.2096,80.6735 C69.6166,80.6025 69.8906,80.2135 69.8196,79.8065 L70.0656,79.7635 C70.1606,80.3065 69.7956,80.8255 69.2526,80.9195 C69.1946,80.9295 69.1366,80.9355 69.0786,80.9355" id="Fill-279"></path>
                    <path d="M45.0181,87.6113 C44.4191,87.6113 43.9331,87.1253 43.9331,86.5273 L44.1831,86.5273 C44.1831,86.9873 44.5581,87.3613 45.0181,87.3613 C45.4781,87.3613 45.8521,86.9873 45.8521,86.5273 L46.1021,86.5273 C46.1021,87.1253 45.6161,87.6113 45.0181,87.6113" id="Fill-281"></path>
                    <path d="M44.0581,88.5713 C43.4601,88.5713 42.9741,88.0853 42.9741,87.4863 L43.2241,87.4863 C43.2241,87.9463 43.5981,88.3213 44.0581,88.3213 C44.5181,88.3213 44.8931,87.9463 44.8931,87.4863 L45.1431,87.4863 C45.1431,88.0853 44.6571,88.5713 44.0581,88.5713" id="Fill-283"></path>
                </g>
                <path d="M152.9175,184.2184 C153.4255,184.1504 154.1565,185.2534 154.0725,185.5894 C153.9895,185.9254 153.9315,187.0354 153.1095,187.1564 C152.5045,187.2454 150.3455,187.4704 149.8735,187.0014 C149.4385,186.5694 150.2895,184.5704 152.9175,184.2184" id="Fill-286" fill="#FFFFFF"></path>
                <path d="M152.9634,184.4654 C152.9594,184.4654 152.9544,184.4654 152.9504,184.4664 C151.1044,184.7134 150.2724,185.7834 150.0724,186.3764 C149.9834,186.6424 150.0194,186.7934 150.0504,186.8244 C150.3514,187.1244 151.9994,187.0674 153.0734,186.9094 C153.5554,186.8384 153.6954,186.2684 153.7894,185.7374 C153.8044,185.6544 153.8174,185.5824 153.8294,185.5294 C153.8414,185.4194 153.6424,184.9924 153.3244,184.6844 C153.1574,184.5214 153.0294,184.4654 152.9634,184.4654 M151.3494,187.5414 C150.6634,187.5414 149.9824,187.4614 149.6974,187.1794 C149.4954,186.9784 149.4604,186.6274 149.5984,186.2174 C149.9164,185.2754 151.0554,184.2154 152.8844,183.9704 C153.2314,183.9294 153.5674,184.1984 153.7834,184.4404 C154.0454,184.7334 154.4034,185.2974 154.3154,185.6504 C154.3044,185.6944 154.2934,185.7544 154.2814,185.8254 C154.1984,186.2954 154.0254,187.2754 153.1464,187.4034 C152.9894,187.4274 152.1674,187.5414 151.3494,187.5414" id="Fill-288" fill="#52267D"></path>
                <path d="M153.0601,184.524 C153.3601,184.484 153.7901,185.134 153.7421,185.333 C153.6931,185.532 153.6581,186.187 153.1731,186.258 C152.8161,186.31 151.5411,186.443 151.2641,186.167 C151.0071,185.911 151.5091,184.732 153.0601,184.524" id="Fill-290" fill="#EAF3FB"></path>
                <path d="M154.7212,184.7613 C154.7212,184.7613 154.3332,184.5583 153.5662,184.9973 C152.8872,185.3863 151.8742,186.0063 152.1412,186.7783 C152.4082,187.5493 154.5512,187.2623 155.0282,187.0993 C155.5042,186.9363 155.8042,186.4173 155.7192,185.9623 C155.5352,184.9723 154.7212,184.7613 154.7212,184.7613" id="Fill-292" fill="#FFFFFF"></path>
                <path d="M154.4546,184.9654 C154.3056,184.9654 154.0516,185.0084 153.6896,185.2144 C152.9366,185.6464 152.1916,186.1594 152.3776,186.6954 C152.5516,187.2014 154.4136,187.0464 154.9466,186.8624 C155.2966,186.7424 155.5376,186.3524 155.4736,186.0084 C155.3206,185.1844 154.6656,185.0054 154.6586,185.0034 L154.6116,184.9864 C154.6006,184.9824 154.5486,184.9654 154.4546,184.9654 M153.5456,187.5414 C152.8196,187.5414 152.0886,187.3904 151.9046,186.8604 C151.5586,185.8594 152.8306,185.1304 153.4416,184.7804 C154.2146,184.3384 154.6826,184.4754 154.8076,184.5264 C154.9596,184.5724 155.7706,184.8674 155.9656,185.9164 C156.0736,186.5004 155.6896,187.1374 155.1086,187.3354 C154.8876,187.4114 154.2186,187.5414 153.5456,187.5414" id="Fill-294" fill="#52267D"></path>
                <path d="M154.8677,185.0338 C154.8677,185.0338 154.6387,184.9148 154.1827,185.1748 C153.7807,185.4038 153.1807,185.7718 153.3397,186.2278 C153.4967,186.6848 154.7657,186.5148 155.0487,186.4188 C155.3307,186.3218 155.5087,186.0148 155.4587,185.7458 C155.3487,185.1588 154.8677,185.0338 154.8677,185.0338" id="Fill-296" fill="#EAF3FB"></path>
                <path d="M134.4429,184.9752 C134.4429,184.9752 134.0549,184.7722 133.2869,185.2112 C132.6089,185.6002 131.5949,186.2202 131.8619,186.9922 C132.1289,187.7632 134.2729,187.4762 134.7499,187.3132 C135.2259,187.1502 135.5249,186.6312 135.4409,186.1762 C135.2569,185.1862 134.4429,184.9752 134.4429,184.9752" id="Fill-298" fill="#FFFFFF"></path>
                <path d="M134.1763,185.1793 C134.0273,185.1793 133.7723,185.2223 133.4103,185.4283 C132.6573,185.8603 131.9123,186.3743 132.0983,186.9093 C132.2723,187.4153 134.1343,187.2593 134.6683,187.0763 C135.0173,186.9573 135.2583,186.5663 135.1953,186.2213 C135.0423,185.3983 134.3873,185.2193 134.3803,185.2173 L134.3333,185.2003 C134.3223,185.1963 134.2703,185.1793 134.1763,185.1793 M133.2673,187.7553 C132.5403,187.7553 131.8093,187.6043 131.6253,187.0743 C131.2803,186.0743 132.5513,185.3453 133.1623,184.9943 C133.9343,184.5533 134.4043,184.6883 134.5293,184.7403 C134.6803,184.7863 135.4923,185.0813 135.6873,186.1303 C135.7943,186.7143 135.4103,187.3513 134.8303,187.5493 C134.6093,187.6253 133.9403,187.7553 133.2673,187.7553" id="Fill-300" fill="#52267D"></path>
                <path d="M134.5884,185.2476 C134.5884,185.2476 134.3594,185.1286 133.9044,185.3886 C133.5024,185.6186 132.9024,185.9856 133.0614,186.4416 C133.2184,186.8986 134.4874,186.7286 134.7704,186.6326 C135.0524,186.5356 135.2304,186.2286 135.1804,185.9596 C135.0704,185.3726 134.5884,185.2476 134.5884,185.2476" id="Fill-302" fill="#EAF3FB"></path>
                <path d="M136.7886,184.4322 C137.2966,184.3642 138.0276,185.4672 137.9436,185.8032 C137.8606,186.1392 137.8026,187.2492 136.9806,187.3702 C136.3756,187.4592 134.2166,187.6842 133.7446,187.2152 C133.3096,186.7832 134.1606,184.7842 136.7886,184.4322" id="Fill-304" fill="#FFFFFF"></path>
                <path d="M136.8345,184.6793 C136.8305,184.6793 136.8255,184.6793 136.8215,184.6803 C134.9755,184.9273 134.1435,185.9973 133.9435,186.5903 C133.8545,186.8563 133.8905,187.0073 133.9215,187.0383 C134.2225,187.3373 135.8705,187.2813 136.9445,187.1233 C137.4265,187.0523 137.5665,186.4823 137.6605,185.9513 C137.6755,185.8683 137.6885,185.7963 137.7005,185.7433 C137.7125,185.6333 137.5135,185.2063 137.1955,184.8983 C137.0285,184.7353 136.9005,184.6793 136.8345,184.6793 M135.2205,187.7553 C134.5345,187.7553 133.8535,187.6753 133.5685,187.3933 C133.3665,187.1923 133.3315,186.8413 133.4695,186.4313 C133.7875,185.4893 134.9265,184.4293 136.7555,184.1843 C137.0995,184.1413 137.4385,184.4133 137.6545,184.6543 C137.9165,184.9473 138.2745,185.5113 138.1865,185.8643 C138.1755,185.9083 138.1645,185.9683 138.1525,186.0393 C138.0695,186.5093 137.8965,187.4893 137.0175,187.6173 C136.8605,187.6413 136.0385,187.7553 135.2205,187.7553" id="Fill-306" fill="#52267D"></path>
                <path d="M136.9312,184.7379 C137.2312,184.6979 137.6612,185.3479 137.6132,185.5469 C137.5632,185.7459 137.5292,186.4009 137.0442,186.4719 C136.6872,186.5239 135.4122,186.6569 135.1352,186.3809 C134.8782,186.1249 135.3802,184.9459 136.9312,184.7379" id="Fill-308" fill="#EAF3FB"></path>
                <path d="M178.2827,184.2359 C178.2827,184.2359 177.3217,183.4529 176.0447,184.5019 C174.8777,185.4609 173.9997,186.9419 174.5217,187.0909 C175.0457,187.2399 175.9667,187.3839 176.9327,187.2079 C177.7747,187.0529 178.5177,187.2149 178.8557,185.4549 C179.0127,184.6339 178.2827,184.2359 178.2827,184.2359" id="Fill-310" fill="#FFFFFF"></path>
                <path d="M177.3921,184.2057 C177.0721,184.2057 176.6631,184.3167 176.2031,184.6947 C175.1721,185.5417 174.5421,186.6497 174.6211,186.8807 C174.8581,186.9277 175.8141,187.1607 176.8881,186.9617 C177.0031,186.9397 177.1181,186.9257 177.2291,186.9097 C177.9051,186.8177 178.3511,186.7577 178.6111,185.4077 C178.7301,184.7817 178.1851,184.4677 178.1621,184.4547 L178.1261,184.4317 C178.1071,184.4157 177.8311,184.2057 177.3921,184.2057 M176.0141,187.5387 C175.2591,187.5387 174.6631,187.3917 174.4541,187.3317 C174.2851,187.2837 174.1661,187.1547 174.1301,186.9787 C174.0011,186.3607 174.9531,185.0757 175.8851,184.3087 C177.1921,183.2347 178.2471,183.9037 178.4171,184.0247 C178.7271,184.2007 179.2501,184.7237 179.1011,185.5017 C178.7751,187.2047 178.0231,187.3077 177.2961,187.4047 C177.1931,187.4197 177.0861,187.4347 176.9781,187.4537 C176.6411,187.5157 176.3151,187.5387 176.0141,187.5387" id="Fill-312" fill="#52267D"></path>
                <path d="M178.064,184.5211 C178.064,184.5211 177.466,184.0341 176.671,184.6871 C175.945,185.2841 175.398,186.2061 175.724,186.2981 C176.049,186.3901 176.623,186.4811 177.224,186.3711 C177.748,186.2741 178.21,186.3751 178.42,185.2801 C178.518,184.7691 178.064,184.5211 178.064,184.5211" id="Fill-314" fill="#EAF3FB"></path>
                <path d="M179.647,184.2184 C180.155,184.1504 180.886,185.2534 180.802,185.5894 C180.719,185.9254 180.662,187.0354 179.839,187.1564 C179.234,187.2454 177.075,187.4704 176.603,187.0014 C176.168,186.5694 177.02,184.5704 179.647,184.2184" id="Fill-316" fill="#FFFFFF"></path>
                <path d="M179.6929,184.4654 C179.6889,184.4654 179.6839,184.4654 179.6799,184.4664 C177.8339,184.7134 177.0029,185.7834 176.8019,186.3774 C176.7129,186.6434 176.7489,186.7934 176.7799,186.8244 C177.0809,187.1244 178.7289,187.0674 179.8029,186.9094 C180.2859,186.8384 180.4249,186.2684 180.5189,185.7384 C180.5339,185.6544 180.5469,185.5834 180.5589,185.5294 C180.5709,185.4194 180.3719,184.9924 180.0539,184.6844 C179.8869,184.5214 179.7589,184.4654 179.6929,184.4654 M178.0789,187.5414 C177.3929,187.5414 176.7119,187.4614 176.4269,187.1794 C176.2259,186.9784 176.1899,186.6284 176.3289,186.2174 C176.6459,185.2754 177.7849,184.2154 179.6139,183.9704 C179.9579,183.9294 180.2969,184.1984 180.5129,184.4404 C180.7749,184.7334 181.1329,185.2974 181.0449,185.6504 C181.0339,185.6944 181.0229,185.7554 181.0109,185.8254 C180.9279,186.2954 180.7549,187.2754 179.8759,187.4034 C179.7189,187.4274 178.8969,187.5414 178.0789,187.5414" id="Fill-318" fill="#52267D"></path>
                <path d="M179.7896,184.524 C180.0896,184.484 180.5206,185.134 180.4716,185.333 C180.4226,185.532 180.3886,186.187 179.9026,186.258 C179.5456,186.31 178.2716,186.443 177.9936,186.167 C177.7366,185.911 178.2386,184.732 179.7896,184.524" id="Fill-320" fill="#EAF3FB"></path>
                <path d="M181.4517,184.7613 C181.4517,184.7613 181.0627,184.5583 180.2957,184.9973 C179.6167,185.3863 178.6037,186.0063 178.8707,186.7783 C179.1377,187.5493 181.2807,187.2623 181.7577,187.0993 C182.2337,186.9363 182.5337,186.4173 182.4497,185.9623 C182.2657,184.9723 181.4517,184.7613 181.4517,184.7613" id="Fill-322" fill="#FFFFFF"></path>
                <path d="M181.1841,184.9654 C181.0351,184.9654 180.7801,185.0084 180.4191,185.2144 C179.6661,185.6464 178.9211,186.1594 179.1071,186.6954 C179.2811,187.2014 181.1431,187.0464 181.6761,186.8624 C182.0261,186.7424 182.2671,186.3524 182.2041,186.0074 C182.0511,185.1844 181.3961,185.0054 181.3891,185.0034 L181.3421,184.9864 C181.3311,184.9824 181.2791,184.9654 181.1841,184.9654 M180.2751,187.5414 C179.5491,187.5414 178.8181,187.3904 178.6341,186.8604 C178.2881,185.8594 179.5601,185.1304 180.1711,184.7804 C180.9441,184.3384 181.4131,184.4754 181.5381,184.5264 C181.6891,184.5724 182.5011,184.8674 182.6961,185.9164 C182.8031,186.5004 182.4181,187.1374 181.8381,187.3354 C181.6171,187.4114 180.9481,187.5414 180.2751,187.5414" id="Fill-324" fill="#52267D"></path>
                <path d="M181.5972,185.0338 C181.5972,185.0338 181.3682,184.9148 180.9122,185.1748 C180.5112,185.4038 179.9102,185.7718 180.0692,186.2278 C180.2272,186.6848 181.4962,186.5148 181.7792,186.4188 C182.0612,186.3218 182.2382,186.0148 182.1882,185.7458 C182.0792,185.1588 181.5972,185.0338 181.5972,185.0338" id="Fill-326" fill="#EAF3FB"></path>
                <path d="M143.4575,184.9068 C143.6165,184.7728 143.8065,184.7358 143.9635,184.8088 C144.5465,185.0848 146.0205,185.8668 145.7155,186.9258 C145.4785,187.7508 144.9755,187.5028 144.0125,187.5198 L143.2855,187.5338 C143.1355,187.5368 143.0025,187.4588 142.9195,187.3208 C142.5015,186.6228 142.7275,185.5238 143.4075,184.9498 L143.4575,184.9068 Z" id="Fill-328" fill="#FFFFFF"></path>
                <path d="M144.1147,187.2691 C144.2827,187.2691 144.4357,187.2761 144.5767,187.2821 C145.2097,187.3111 145.3467,187.3001 145.4747,186.8561 C145.7077,186.0471 144.5607,185.3681 143.8567,185.0351 C143.7917,185.0041 143.7027,185.0281 143.6197,185.0971 L143.5707,185.1391 C142.9797,185.6371 142.7767,186.5961 143.1347,187.1931 C143.1587,187.2341 143.2187,187.2841 143.2807,187.2841 L144.0077,187.2701 C144.0447,187.2691 144.0797,187.2691 144.1147,187.2691 M144.8737,187.7911 C144.7707,187.7911 144.6637,187.7871 144.5537,187.7821 C144.3947,187.7751 144.2167,187.7651 144.0167,187.7701 L143.2907,187.7841 L143.2777,187.7841 C143.0457,187.7841 142.8317,187.6601 142.7057,187.4501 C142.2227,186.6451 142.4707,185.4131 143.2467,184.7581 L143.2967,184.7151 C143.5337,184.5161 143.8217,184.4661 144.0687,184.5821 C145.5347,185.2751 146.2037,186.1311 145.9557,186.9951 C145.7567,187.6861 145.3567,187.7911 144.8737,187.7911" id="Fill-330" fill="#52267D"></path>
                <path d="M143.5327,185.1441 C143.6477,185.0461 143.7867,185.0191 143.8997,185.0731 C144.3237,185.2731 145.3947,185.8411 145.1737,186.6111 C145.0017,187.2101 144.6357,187.0301 143.9357,187.0421 L143.4077,187.0521 C143.2987,187.0541 143.2017,186.9981 143.1417,186.8981 C142.8377,186.3901 143.0027,185.5921 143.4967,185.1751 L143.5327,185.1441 Z" id="Fill-332" fill="#EAF3FB"></path>
                <path d="M140.0483,184.5904 C140.0483,184.5904 139.1563,183.7294 137.7953,184.6654 C136.5503,185.5224 135.5503,186.9234 136.0593,187.1164 C136.5673,187.3094 137.4723,187.5314 138.4513,187.4374 C139.3023,187.3554 140.0293,187.5794 140.5163,185.8544 C140.7413,185.0504 140.0483,184.5904 140.0483,184.5904" id="Fill-334" fill="#FFFFFF"></path>
                <path d="M139.0435,184.4801 C138.7425,184.4801 138.3685,184.5751 137.9375,184.8721 C136.8375,185.6281 136.1165,186.6781 136.1745,186.9151 C136.4055,186.9811 137.3385,187.2971 138.4275,187.1881 C138.5445,187.1771 138.6595,187.1711 138.7715,187.1661 C139.4525,187.1321 139.9025,187.1101 140.2755,185.7871 C140.4495,185.1661 139.9155,184.8021 139.9095,184.7981 L139.8755,184.7711 C139.8535,184.7501 139.5525,184.4801 139.0435,184.4801 M137.9805,187.7091 C137.0045,187.7091 136.2155,187.4431 135.9705,187.3501 C135.8065,187.2881 135.6985,187.1501 135.6785,186.9711 C135.6025,186.3441 136.6585,185.1441 137.6535,184.4591 C139.0445,183.5021 140.0435,184.2581 140.2005,184.3911 C140.4945,184.5941 140.9715,185.1601 140.7565,185.9211 C140.2865,187.5911 139.5285,187.6281 138.7965,187.6651 C138.6915,187.6701 138.5845,187.6751 138.4765,187.6861 C138.3065,187.7031 138.1415,187.7091 137.9805,187.7091" id="Fill-336" fill="#52267D"></path>
                <path d="M139.8062,184.857 C139.8062,184.857 139.2512,184.32 138.4042,184.904 C137.6292,185.436 137.0062,186.308 137.3242,186.428 C137.6402,186.548 138.2022,186.687 138.8122,186.628 C139.3422,186.577 139.7942,186.716 140.0972,185.643 C140.2382,185.142 139.8062,184.857 139.8062,184.857" id="Fill-338" fill="#EAF3FB"></path>
                <path d="M186.8286,187.5328 L62.6946,187.5328 C61.4496,187.5328 60.4396,186.5228 60.4396,185.2778 L60.4396,3.2548 C60.4396,2.0098 61.4496,0.9998 62.6946,0.9998 L186.8286,0.9998 C188.0736,0.9998 189.0836,2.0098 189.0836,3.2548 L189.0836,185.2778 C189.0836,186.5228 188.0736,187.5328 186.8286,187.5328" id="Fill-340" fill="#FFFFFF"></path>
                <path d="M62.6948,2.0001 C62.0028,2.0001 61.4398,2.5631 61.4398,3.2551 L61.4398,185.2781 C61.4398,185.9701 62.0028,186.5331 62.6948,186.5331 L186.8288,186.5331 C187.5208,186.5331 188.0838,185.9701 188.0838,185.2781 L188.0838,3.2551 C188.0838,2.5631 187.5208,2.0001 186.8288,2.0001 L62.6948,2.0001 Z M186.8288,188.5331 L62.6948,188.5331 C60.8998,188.5331 59.4398,187.0731 59.4398,185.2781 L59.4398,3.2551 C59.4398,1.4601 60.8998,0.0001 62.6948,0.0001 L186.8288,0.0001 C188.6238,0.0001 190.0838,1.4601 190.0838,3.2551 L190.0838,185.2781 C190.0838,187.0731 188.6238,188.5331 186.8288,188.5331 L186.8288,188.5331 Z" id="Fill-342" fill="#375D81"></path>
                <polygon id="Fill-344" fill="#EFEFF6" points="180.2114 166.0953 69.3124 173.8143 69.3124 16.2913 181.4974 11.1463"></polygon>
                <path d="M145.8511,59.8092 C145.8511,73.4692 134.7781,84.5412 121.1191,84.5412 C107.4591,84.5412 96.3861,73.4692 96.3861,59.8092 C96.3861,46.1502 107.4591,35.0772 121.1191,35.0772 C134.7781,35.0772 145.8511,46.1502 145.8511,59.8092" id="Fill-346" fill="#FFFFFF"></path>
                <path d="M148.8511,54.8092 C148.8511,68.4692 137.7781,79.5412 124.1191,79.5412 C110.4591,79.5412 99.3861,68.4692 99.3861,54.8092 C99.3861,41.1502 110.4591,30.0772 124.1191,30.0772 C137.7781,30.0772 148.8511,41.1502 148.8511,54.8092" id="Fill-348" fill="#FFFFFF"></path>
                <path d="M124.1187,31.0768 C111.0327,31.0768 100.3867,41.7228 100.3867,54.8088 C100.3867,67.8948 111.0327,78.5418 124.1187,78.5418 C137.2047,78.5418 147.8507,67.8948 147.8507,54.8088 C147.8507,41.7228 137.2047,31.0768 124.1187,31.0768 M124.1187,80.5418 C109.9297,80.5418 98.3867,68.9978 98.3867,54.8088 C98.3867,40.6198 109.9297,29.0768 124.1187,29.0768 C138.3067,29.0768 149.8507,40.6198 149.8507,54.8088 C149.8507,68.9978 138.3067,80.5418 124.1187,80.5418" id="Fill-350" fill="#375D81"></path>
                <path d="M130.2661,67.0074 C130.3701,67.3154 130.4611,67.5254 130.4891,67.5954 C130.4971,67.6024 130.4801,67.5914 130.4891,67.5954 C130.4891,67.5954 130.4891,67.5974 130.4891,67.5954 C130.4901,67.5964 130.4881,67.5954 130.4881,67.5954 C129.7891,60.8544 133.6121,58.0464 134.8401,53.5694 C134.8461,53.5024 134.8591,53.4304 134.8791,53.3484 C134.9051,53.2484 134.9251,53.1454 134.9411,53.0414 C135.1231,51.8034 134.6161,50.3614 133.6551,48.8604 C133.6511,48.8514 133.6441,48.8434 133.6391,48.8364 C133.5611,48.7104 133.4761,48.5864 133.3911,48.4614 C133.3911,48.4614 133.3881,48.4594 133.3871,48.4564 C133.2301,48.2284 133.0611,47.9984 132.8841,47.7674 C132.8661,47.7434 132.8491,47.7184 132.8301,47.6954 C132.7811,47.6324 132.7291,47.5704 132.6811,47.5074 C132.6291,47.4414 132.5791,47.3764 132.5281,47.3134 C132.4741,47.2494 132.4221,47.1864 132.3701,47.1244 C132.3151,47.0584 132.2611,46.9944 132.2051,46.9294 C132.1681,46.8854 132.1271,46.8394 132.0871,46.7934 C130.5771,45.0534 128.6111,43.3344 126.5591,41.8394 C126.5591,41.8394 126.5441,41.8164 126.5591,41.8394 C126.8311,44.3754 126.8651,46.9124 126.6251,48.9404 C126.3351,51.3854 125.4601,54.2324 124.2461,56.8124 C121.4041,56.5804 118.4991,55.9214 116.2341,54.9544 C114.3411,54.1464 112.1711,52.8694 110.0971,51.3564 C110.1201,51.5674 110.1451,51.7754 110.1691,51.9854 C110.1771,52.0484 110.1861,52.1104 110.1941,52.1734 C110.2141,52.3234 110.2321,52.4714 110.2551,52.6224 C110.2641,52.6914 110.2741,52.7604 110.2851,52.8294 C110.3071,52.9804 110.3291,53.1294 110.3541,53.2784 C110.3631,53.3384 110.3731,53.3994 110.3831,53.4604 C110.4141,53.6504 110.4461,53.8374 110.4811,54.0254 C110.4831,54.0444 110.4851,54.0634 110.4901,54.0804 C110.5281,54.2994 110.5701,54.5154 110.6131,54.7314 C110.6151,54.7474 110.6201,54.7624 110.6231,54.7804 C110.6631,54.9744 110.7021,55.1654 110.7441,55.3574 C110.7531,55.3974 110.7621,55.4354 110.7691,55.4744 C110.8081,55.6494 110.8491,55.8234 110.8901,55.9974 C110.8991,56.0304 110.9081,56.0634 110.9151,56.0994 C110.9651,56.2994 111.0141,56.4994 111.0651,56.6954 C111.0671,56.6964 111.0671,56.6984 111.0671,56.6984 C111.2351,57.3314 111.4191,57.9424 111.6181,58.5284 C111.6201,58.5364 111.6231,58.5424 111.6251,58.5494 C111.9621,59.5284 112.3461,60.4304 112.7751,61.2194 C112.8381,61.3334 112.9021,61.4464 112.9671,61.5564 C112.9701,61.5604 112.9701,61.5654 112.9731,61.5694 L112.9741,61.5694 C113.0331,61.6694 113.0931,61.7684 113.1521,61.8624 L113.1541,61.8644 C113.1541,61.8644 113.1591,61.8714 113.1611,61.8754 C113.2251,61.9784 113.2911,62.0794 113.3581,62.1744 L113.3581,62.1754 C113.3681,62.1894 113.3761,62.2004 113.3871,62.2144 C113.3881,62.2144 113.3861,62.2164 113.3871,62.2174 C113.4741,62.3424 113.5631,62.4634 113.6511,62.5784 C113.6681,62.5974 113.6831,62.6164 113.6961,62.6344 C113.7011,62.6414 113.7071,62.6474 113.7121,62.6564 C113.8141,62.7854 113.9191,62.9104 114.0281,63.0274 C114.1021,63.1104 114.1791,63.1874 114.2561,63.2644 C114.2881,63.2974 114.3231,63.3264 114.3551,63.3574 C114.4031,63.4034 114.4521,63.4454 114.5001,63.4894 C114.5371,63.5214 114.5741,63.5494 114.6121,63.5804 C114.6581,63.6194 114.7061,63.6554 114.7531,63.6934 C114.7901,63.7204 114.8281,63.7474 114.8671,63.7744 C114.9161,63.8084 114.9641,63.8414 115.0131,63.8754 C115.0501,63.8984 115.0891,63.9224 115.1271,63.9444 C115.1801,63.9754 115.2331,64.0044 115.2841,64.0344 C115.3211,64.0534 115.3571,64.0724 115.3931,64.0904 C115.4531,64.1184 115.5131,64.1444 115.5751,64.1714 C115.6031,64.1814 115.6351,64.1974 115.6651,64.2084 C115.7581,64.2464 115.8511,64.2774 115.9441,64.3034 C116.0081,64.3224 116.0611,64.3414 116.1121,64.3614 C120.6121,65.5494 124.9941,63.6664 130.4891,67.5954" id="Fill-352" fill="#9452BA"></path>
                <path d="M93.376,107.6754 L157.144,107.6754" id="Fill-354" fill="#FFFFFF"></path>
                <path d="M157.144,108.6754 L93.376,108.6754 C92.824,108.6754 92.376,108.2284 92.376,107.6754 C92.376,107.1224 92.824,106.6754 93.376,106.6754 L157.144,106.6754 C157.697,106.6754 158.144,107.1224 158.144,107.6754 C158.144,108.2284 157.697,108.6754 157.144,108.6754" id="Fill-356" fill="#375D81"></path>
                <path d="M93.376,128.235 L157.144,128.235" id="Fill-358" fill="#FFFFFF"></path>
                <path d="M157.144,129.235 L93.376,129.235 C92.824,129.235 92.376,128.788 92.376,128.235 C92.376,127.682 92.824,127.235 93.376,127.235 L157.144,127.235 C157.697,127.235 158.144,127.682 158.144,128.235 C158.144,128.788 157.697,129.235 157.144,129.235" id="Fill-360" fill="#375D81"></path>
                <path d="M93.376,149.4859 L157.144,149.4859" id="Fill-362" fill="#FFFFFF"></path>
                <path d="M157.144,150.4859 L93.376,150.4859 C92.824,150.4859 92.376,150.0389 92.376,149.4859 C92.376,148.9329 92.824,148.4859 93.376,148.4859 L157.144,148.4859 C157.697,148.4859 158.144,148.9329 158.144,149.4859 C158.144,150.0389 157.697,150.4859 157.144,150.4859" id="Fill-364" fill="#375D81"></path>
                <path d="M204.978,42.5416 C204.425,42.5416 203.978,42.0936 203.978,41.5416 L203.978,34.5416 C203.978,33.9896 204.425,33.5416 204.978,33.5416 C205.531,33.5416 205.978,33.9896 205.978,34.5416 L205.978,41.5416 C205.978,42.0936 205.531,42.5416 204.978,42.5416" id="Fill-366" fill="#375D81"></path>
                <path d="M208.478,39.0416 L201.478,39.0416 C200.925,39.0416 200.478,38.5936 200.478,38.0416 C200.478,37.4896 200.925,37.0416 201.478,37.0416 L208.478,37.0416 C209.031,37.0416 209.478,37.4896 209.478,38.0416 C209.478,38.5936 209.031,39.0416 208.478,39.0416" id="Fill-368" fill="#375D81"></path>
                <path d="M40.7275,159.2603 C40.4515,159.2603 40.2275,159.0363 40.2275,158.7603 L40.2275,154.8233 C40.2275,154.5463 40.4515,154.3233 40.7275,154.3233 C41.0035,154.3233 41.2275,154.5463 41.2275,154.8233 L41.2275,158.7603 C41.2275,159.0363 41.0035,159.2603 40.7275,159.2603" id="Fill-370" fill="#375D81"></path>
                <path d="M42.6963,157.2916 L38.7583,157.2916 C38.4823,157.2916 38.2593,157.0676 38.2593,156.7916 C38.2593,156.5156 38.4823,156.2916 38.7583,156.2916 L42.6963,156.2916 C42.9723,156.2916 43.1963,156.5156 43.1963,156.7916 C43.1963,157.0676 42.9723,157.2916 42.6963,157.2916" id="Fill-372" fill="#375D81"></path>
                <path d="M215.728,99.2603 C215.452,99.2603 215.228,99.0363 215.228,98.7603 L215.228,94.8233 C215.228,94.5463 215.452,94.3233 215.728,94.3233 C216.004,94.3233 216.228,94.5463 216.228,94.8233 L216.228,98.7603 C216.228,99.0363 216.004,99.2603 215.728,99.2603" id="Fill-374" fill="#375D81"></path>
                <path d="M217.6968,97.2916 L213.7588,97.2916 C213.4828,97.2916 213.2598,97.0676 213.2598,96.7916 C213.2598,96.5156 213.4828,96.2916 213.7588,96.2916 L217.6968,96.2916 C217.9728,96.2916 218.1968,96.5156 218.1968,96.7916 C218.1968,97.0676 217.9728,97.2916 217.6968,97.2916" id="Fill-376" fill="#375D81"></path>
                <path d="M46.7275,59.2603 C46.4515,59.2603 46.2275,59.0363 46.2275,58.7603 L46.2275,54.8233 C46.2275,54.5463 46.4515,54.3233 46.7275,54.3233 C47.0035,54.3233 47.2275,54.5463 47.2275,54.8233 L47.2275,58.7603 C47.2275,59.0363 47.0035,59.2603 46.7275,59.2603" id="Fill-378" fill="#375D81"></path>
                <path d="M48.6963,57.2916 L44.7583,57.2916 C44.4823,57.2916 44.2593,57.0676 44.2593,56.7916 C44.2593,56.5156 44.4823,56.2916 44.7583,56.2916 L48.6963,56.2916 C48.9723,56.2916 49.1963,56.5156 49.1963,56.7916 C49.1963,57.0676 48.9723,57.2916 48.6963,57.2916" id="Fill-380" fill="#375D81"></path>
                <path d="M24.415,93.4166 L24.415,101.5416" id="Fill-382" fill="#FFFFFF"></path>
                <path d="M24.415,102.5416 C23.863,102.5416 23.415,102.0946 23.415,101.5416 L23.415,93.4166 C23.415,92.8646 23.863,92.4166 24.415,92.4166 C24.967,92.4166 25.415,92.8646 25.415,93.4166 L25.415,101.5416 C25.415,102.0946 24.967,102.5416 24.415,102.5416" id="Fill-384" fill="#375D81"></path>
                <path d="M28.4775,97.4791 L20.3525,97.4791" id="Fill-386" fill="#FFFFFF"></path>
                <path d="M28.4775,98.4791 L20.3525,98.4791 C19.8005,98.4791 19.3525,98.0321 19.3525,97.4791 C19.3525,96.9261 19.8005,96.4791 20.3525,96.4791 L28.4775,96.4791 C29.0295,96.4791 29.4775,96.9261 29.4775,97.4791 C29.4775,98.0321 29.0295,98.4791 28.4775,98.4791" id="Fill-388" fill="#375D81"></path>
                <path d="M244.1665,187.2916 L251.1405,187.2916" id="Fill-390" fill="#FFFFFF"></path>
                <g id="Group-394" transform="translate(243.000000, 185.608000)">
                    <mask id="mask-2" fill="white">
                        <use xlink:href="#path-1"></use>
                    </mask>
                    <g id="Clip-393"></g>
                    <path d="M8.1401,2.6836 L1.1661,2.6836 C0.6141,2.6836 0.1661,2.2366 0.1661,1.6836 C0.1661,1.1306 0.6141,0.6836 1.1661,0.6836 L8.1401,0.6836 C8.6931,0.6836 9.1401,1.1306 9.1401,1.6836 C9.1401,2.2366 8.6931,2.6836 8.1401,2.6836" id="Fill-392" fill="#375D81" mask="url(#mask-2)"></path>
                </g>
                <path d="M1,187.2916 L9.973,187.2916" id="Fill-395" fill="#FFFFFF"></path>
                <path d="M9.9731,188.2916 L1.0001,188.2916 C0.4481,188.2916 0.0001,187.8446 0.0001,187.2916 C0.0001,186.7386 0.4481,186.2916 1.0001,186.2916 L9.9731,186.2916 C10.5251,186.2916 10.9731,186.7386 10.9731,187.2916 C10.9731,187.8446 10.5251,188.2916 9.9731,188.2916" id="Fill-397" fill="#375D81"></path>
                <path d="M93.3823,196.608 L160.5683,196.608" id="Fill-399" fill="#FFFFFF"></path>
                <path d="M160.5679,197.608 L93.3819,197.608 C92.8299,197.608 92.3819,197.161 92.3819,196.608 C92.3819,196.055 92.8299,195.608 93.3819,195.608 L160.5679,195.608 C161.1209,195.608 161.5679,196.055 161.5679,196.608 C161.5679,197.161 161.1209,197.608 160.5679,197.608" id="Fill-401" fill="#375D81"></path>
                <path d="M169.187,196.608 L178.328,196.608" id="Fill-403" fill="#FFFFFF"></path>
                <path d="M178.3276,197.608 L169.1866,197.608 C168.6346,197.608 168.1866,197.161 168.1866,196.608 C168.1866,196.055 168.6346,195.608 169.1866,195.608 L178.3276,195.608 C178.8806,195.608 179.3276,196.055 179.3276,196.608 C179.3276,197.161 178.8806,197.608 178.3276,197.608" id="Fill-405" fill="#375D81"></path>
                <path d="M85.5,196.5328 L80.5,196.6078" id="Fill-407" fill="#FFFFFF"></path>
                <path d="M80.4995,197.608 C79.9545,197.608 79.5085,197.171 79.4995,196.623 C79.4915,196.071 79.9325,195.617 80.4845,195.608 L85.4845,195.533 C86.0595,195.518 86.4915,195.965 86.4995,196.518 C86.5085,197.07 86.0675,197.524 85.5155,197.533 L80.5155,197.608 L80.4995,197.608 Z" id="Fill-409" fill="#375D81"></path>
            </g>
        </g>
    </g>
</svg>