<?xml version="1.0" encoding="UTF-8"?>
<svg width="256px" height="256px" viewBox="0 0 256 256" version="1.1" xmlns="http://www.w3.org/2000/svg" xmlns:xlink="http://www.w3.org/1999/xlink">
    <!-- Generator: Sketch Beta 47 (45392) - http://www.bohemiancoding.com/sketch -->
    <title>User</title>
    <desc>Created with Sketch Beta.</desc>
    <defs>
        <polygon id="path-1" points="9.479 0.0537 9.479 2.0537 0.4795 2.0537 0.4795 0.0537 9.479 0.0537"></polygon>
        <polygon id="path-3" points="0.6768 0.056 2.6768 0.056 2.6768 9.0557 0.6768 9.0557 0.6768 0.056"></polygon>
        <path d="M129.681141,113.980815 C113.621703,129.070953 92.0050047,138.315 68.229,138.315 C41.003785,138.315 16.6096381,126.19383 0.148734105,107.0535 L0.148734105,0.0679035388 L129.681141,0.0679035388 L129.681141,113.980815 L129.681141,113.980815 Z" id="path-5"></path>
        <path d="M0.148815745,106.870432 C16.6130626,126.692986 41.4470077,139.315 69.229,139.315 C93.5021125,139.315 115.524682,129.680364 131.681133,114.026667 L131.681133,0.0695883802 L0.148815745,0.0695883802 L0.148815745,106.870432 L0.148815745,106.870432 Z" id="path-7"></path>
    </defs>
    <g id="Illustrations" stroke="none" stroke-width="1" fill="none" fill-rule="evenodd">
        <g id="User">
            <g id="Page-1" transform="translate(11.000000, 28.000000)">
                <g id="Group-23" transform="translate(0.000000, 0.944000)">
                    <path d="M208.7295,108.5557 C208.7295,158.5377 168.2115,199.0557 118.2295,199.0557 C68.2485,199.0557 27.7295,158.5377 27.7295,108.5557 C27.7295,58.5747 68.2485,18.0557 118.2295,18.0557 C168.2115,18.0557 208.7295,58.5747 208.7295,108.5557" id="Fill-1" fill="#E1F2FF"></path>
                    <path d="M199.9971,148.3906 C199.8531,148.3906 199.7071,148.3596 199.5681,148.2936 C199.0691,148.0566 198.8571,147.4596 199.0951,146.9606 C204.8241,134.9176 207.7291,121.9956 207.7291,108.5556 C207.7291,105.3026 207.5541,102.0286 207.2071,98.8226 C207.1471,98.2736 207.5451,97.7806 208.0941,97.7206 C208.6251,97.6616 209.1361,98.0576 209.1951,98.6076 C209.5501,101.8836 209.7291,105.2316 209.7291,108.5556 C209.7291,122.2956 206.7591,135.5056 200.9011,147.8206 C200.7291,148.1806 200.3711,148.3906 199.9971,148.3906 M100.4111,198.3016 C100.3471,198.3016 100.2801,198.2956 100.2141,198.2826 C83.6151,194.9676 68.2671,187.0806 55.8261,175.4746 C55.4231,175.0976 55.4001,174.4646 55.7771,174.0606 C56.1541,173.6576 56.7871,173.6356 57.1911,174.0116 C69.3591,185.3656 84.3711,193.0786 100.6061,196.3216 C101.1471,196.4296 101.4991,196.9556 101.3911,197.4976 C101.2961,197.9726 100.8781,198.3016 100.4111,198.3016 M130.2561,199.2626 C129.7621,199.2626 129.3321,198.8976 129.2661,198.3946 C129.1921,197.8466 129.5781,197.3436 130.1251,197.2716 C149.7661,194.6626 168.2541,185.3926 182.1831,171.1676 C182.5711,170.7736 183.2041,170.7666 183.5971,171.1526 C183.9921,171.5386 183.9981,172.1716 183.6121,172.5666 C169.3711,187.1106 150.4701,196.5876 130.3891,199.2536 C130.3441,199.2596 130.3001,199.2626 130.2561,199.2626" id="Fill-3" fill="#375D81"></path>
                    <path d="M228.9795,50.5537 C228.4265,50.5537 227.9795,50.1067 227.9795,49.5537 L227.9795,42.5537 C227.9795,42.0007 228.4265,41.5537 228.9795,41.5537 C229.5325,41.5537 229.9795,42.0007 229.9795,42.5537 L229.9795,49.5537 C229.9795,50.1067 229.5325,50.5537 228.9795,50.5537" id="Fill-5" fill="#375D81"></path>
                    <g id="Group-9" transform="translate(224.000000, 45.000000)">
                        <mask id="mask-2" fill="white">
                            <use xlink:href="#path-1"></use>
                        </mask>
                        <g id="Clip-8"></g>
                        <path d="M8.4795,2.0537 L1.4795,2.0537 C0.9265,2.0537 0.4795,1.6067 0.4795,1.0537 C0.4795,0.5007 0.9265,0.0537 1.4795,0.0537 L8.4795,0.0537 C9.0325,0.0537 9.4795,0.5007 9.4795,1.0537 C9.4795,1.6067 9.0325,2.0537 8.4795,2.0537" id="Fill-7" fill="#375D81" mask="url(#mask-2)"></path>
                    </g>
                    <g id="Group-12" transform="translate(56.000000, 0.000000)">
                        <mask id="mask-4" fill="white">
                            <use xlink:href="#path-3"></use>
                        </mask>
                        <g id="Clip-11"></g>
                        <path d="M1.6768,9.0557 C1.1238,9.0557 0.6768,8.6087 0.6768,8.0557 L0.6768,1.0557 C0.6768,0.5027 1.1238,0.0557 1.6768,0.0557 C2.2298,0.0557 2.6768,0.5027 2.6768,1.0557 L2.6768,8.0557 C2.6768,8.6087 2.2298,9.0557 1.6768,9.0557" id="Fill-10" fill="#375D81" mask="url(#mask-4)"></path>
                    </g>
                    <path d="M61.1768,5.5557 L54.1768,5.5557 C53.6238,5.5557 53.1768,5.1087 53.1768,4.5557 C53.1768,4.0027 53.6238,3.5557 54.1768,3.5557 L61.1768,3.5557 C61.7298,3.5557 62.1768,4.0027 62.1768,4.5557 C62.1768,5.1087 61.7298,5.5557 61.1768,5.5557" id="Fill-13" fill="#375D81"></path>
                    <path d="M2.4687,101.1836 C2.1927,101.1836 1.9687,100.9596 1.9687,100.6836 L1.9687,96.7466 C1.9687,96.4696 2.1927,96.2466 2.4687,96.2466 C2.7447,96.2466 2.9687,96.4696 2.9687,96.7466 L2.9687,100.6836 C2.9687,100.9596 2.7447,101.1836 2.4687,101.1836" id="Fill-15" fill="#375D81"></path>
                    <path d="M4.4375,99.2148 L0.4995,99.2148 C0.2235,99.2148 0.0005,98.9908 0.0005,98.7148 C0.0005,98.4388 0.2235,98.2148 0.4995,98.2148 L4.4375,98.2148 C4.7135,98.2148 4.9375,98.4388 4.9375,98.7148 C4.9375,98.9908 4.7135,99.2148 4.4375,99.2148" id="Fill-17" fill="#375D81"></path>
                    <path d="M24.7109,186.2393 C24.4349,186.2393 24.2109,186.0153 24.2109,185.7393 L24.2109,181.8023 C24.2109,181.5253 24.4349,181.3023 24.7109,181.3023 C24.9869,181.3023 25.2109,181.5253 25.2109,181.8023 L25.2109,185.7393 C25.2109,186.0153 24.9869,186.2393 24.7109,186.2393" id="Fill-19" fill="#375D81"></path>
                    <path d="M26.6797,184.2705 L22.7417,184.2705 C22.4657,184.2705 22.2427,184.0465 22.2427,183.7705 C22.2427,183.4945 22.4657,183.2705 22.7417,183.2705 L26.6797,183.2705 C26.9557,183.2705 27.1797,183.4945 27.1797,183.7705 C27.1797,184.0465 26.9557,184.2705 26.6797,184.2705" id="Fill-21" fill="#375D81"></path>
                </g>
                <g id="Group-74" transform="translate(49.000000, 46.944000)">
                    <g id="Group-26" transform="translate(1.000000, 14.000000)">
                        <mask id="mask-6" fill="white">
                            <use xlink:href="#path-5"></use>
                        </mask>
                        <g id="Clip-25"></g>
                        <path d="M129.666,217.2051 C120.65,198.9021 107.242,145.8461 114.111,110.5981 L119.548,82.7061 C121.331,73.5561 122.113,64.2371 121.879,54.9181 L121.879,54.9171 C121.781,51.0341 121.293,47.2541 120.451,43.6111 C120.241,42.7001 120.009,41.7981 119.755,40.9051 C118.993,38.2271 118.039,35.6321 116.908,33.1361 C116.532,32.3041 116.136,31.4821 115.72,30.6721 C114.889,29.0531 113.981,27.4791 113.003,25.9571 C112.024,24.4341 110.976,22.9631 109.859,21.5461 C106.512,17.2961 102.566,13.5441 98.153,10.4141 C96.683,9.3711 95.16,8.3961 93.59,7.4961 C84.956,2.5421 74.898,-0.1829 64.221,0.0861 L54.999,0.3171 C39.467,0.7081 25.563,7.3561 15.642,17.7911 C14.401,19.0951 13.223,20.4581 12.112,21.8761 C10.092,24.4531 8.306,27.2171 6.755,30.1231 C6.172,31.2151 5.611,32.3191 5.101,33.4521 C4.727,34.2811 4.372,35.1221 4.037,35.9721 C3.033,38.5211 2.21,41.1621 1.585,43.8751 C0.959,46.5881 0.529,49.3741 0.312,52.2181 C0.168,54.1131 0.118,56.0341 0.167,57.9761 C0.265,61.8481 1.922,65.3131 4.523,67.7871 C7.124,70.2611 10.669,71.7421 14.541,71.6451 L72.126,70.1981 L64.666,120.3981 C55.727,171.9991 59.664,206.2591 68.163,228.9491 C70.058,234.0081 130.78,219.4661 129.666,217.2051" id="Fill-24" fill="#9ACDED" mask="url(#mask-6)"></path>
                    </g>
                    <g id="Group-29" transform="translate(0.000000, 13.000000)">
                        <mask id="mask-8" fill="white">
                            <use xlink:href="#path-7"></use>
                        </mask>
                        <g id="Clip-28"></g>
                        <path d="M129.7666,218.6426 C129.7676,218.6446 129.7686,218.6456 129.7686,218.6476 L129.7686,218.6466 C129.7686,218.6456 129.7676,218.6436 129.7666,218.6426 L129.7666,218.6426 Z M74.2896,70.1686 L66.6556,121.5456 C58.8836,166.4056 60.0436,202.7516 70.0996,229.5986 C70.8556,230.3486 78.1426,230.6726 100.0316,226.0156 C114.6106,222.9136 126.9386,219.4166 129.4716,218.0346 C120.3446,198.9526 107.2836,146.5366 114.1296,111.4066 L119.5666,83.5146 C121.3326,74.4486 122.1116,65.1716 121.8786,55.9436 C121.7856,52.1916 121.3136,48.4556 120.4766,44.8366 C120.2726,43.9496 120.0416,43.0556 119.7926,42.1786 C119.0526,39.5766 118.1126,37.0086 116.9966,34.5486 C116.6316,33.7396 116.2396,32.9256 115.8296,32.1286 C115.0196,30.5496 114.1216,28.9926 113.1626,27.4976 C112.2046,26.0086 111.1656,24.5506 110.0746,23.1646 C106.7826,18.9856 102.9126,15.3066 98.5756,12.2296 C97.1276,11.2046 95.6206,10.2396 94.0926,9.3636 C85.3506,4.3476 75.3886,1.8256 65.2456,2.0856 L56.0246,2.3176 C41.2666,2.6886 27.5376,8.7836 17.3666,19.4806 C16.1486,20.7606 14.9816,22.1106 13.8996,23.4926 C11.9476,25.9826 10.1766,28.7076 8.6366,31.5936 C7.9756,32.8316 7.4586,33.8716 7.0126,34.8636 C6.6446,35.6776 6.2966,36.5036 5.9676,37.3386 C4.9756,39.8576 4.1656,42.4686 3.5596,45.0996 C2.9396,47.7846 2.5196,50.5406 2.3096,53.2936 C2.1666,55.1606 2.1196,57.0636 2.1666,58.9506 C2.2546,62.4286 3.6916,65.6646 6.2126,68.0626 C8.7326,70.4586 12.0126,71.7376 15.5156,71.6456 L74.2896,70.1686 Z M73.2566,231.9996 C72.4166,231.9996 71.6886,231.9616 71.0846,231.8816 C70.0616,231.7466 68.6516,231.4346 68.2266,230.2996 C58.0446,203.1166 56.8516,166.4186 64.6806,121.2276 L71.9616,72.2276 L15.5666,73.6456 C11.5366,73.7236 7.7426,72.2786 4.8336,69.5116 C1.9256,66.7466 0.2686,63.0136 0.1666,59.0006 C0.1186,57.0456 0.1676,55.0756 0.3156,53.1416 C0.5336,50.2886 0.9686,47.4326 1.6106,44.6506 C2.2396,41.9226 3.0786,39.2156 4.1066,36.6056 C4.4496,35.7366 4.8136,34.8736 5.1896,34.0406 C5.6556,33.0076 6.1906,31.9306 6.8726,30.6526 C8.4666,27.6636 10.3016,24.8396 12.3256,22.2586 C13.4466,20.8276 14.6556,19.4286 15.9166,18.1016 C26.4556,7.0186 40.6816,0.7026 55.9736,0.3176 L65.1956,0.0856 C75.7066,-0.1604 86.0296,2.4316 95.0876,7.6286 C96.6696,8.5366 98.2336,9.5356 99.7316,10.5986 C104.2266,13.7866 108.2346,17.5976 111.6446,21.9266 C112.7766,23.3636 113.8526,24.8736 114.8436,26.4156 C115.8396,27.9646 116.7696,29.5796 117.6096,31.2146 C118.0346,32.0416 118.4406,32.8856 118.8196,33.7236 C119.9746,36.2736 120.9496,38.9346 121.7166,41.6316 C121.9756,42.5406 122.2136,43.4676 122.4256,44.3866 C123.2916,48.1356 123.7816,52.0066 123.8786,55.8916 C124.1146,65.2666 123.3246,74.6886 121.5296,83.8976 L116.0926,111.7886 C109.2566,146.8686 122.5306,199.4256 131.5636,217.7636 L131.5636,217.7626 C131.7566,218.1556 131.7096,218.6156 131.4396,218.9936 C129.2666,222.0206 86.8516,231.9986 73.2566,231.9996 L73.2566,231.9996 Z" id="Fill-27" fill="#375D81" mask="url(#mask-8)"></path>
                    </g>
                    <path d="M26.3516,22.7324 C26.3516,22.7324 27.0366,12.8864 36.6976,8.7384 C39.6456,7.4714 47.6776,6.9474 47.6776,6.9474 C47.6776,6.9474 50.1996,17.2944 43.6906,20.5594 C34.3226,25.2594 26.3516,22.7324 26.3516,22.7324" id="Fill-30" fill="#FFFFFF"></path>
                    <path d="M27.457,21.9746 C29.648,22.4316 36.047,23.2756 43.242,19.6656 C47.971,17.2926 47.27,10.4026 46.867,8.0116 C44.736,8.1866 39.296,8.7096 37.092,9.6576 C29.616,12.8676 27.852,19.6096 27.457,21.9746 M31.863,24.4216 C28.444,24.4216 26.225,23.7416 26.049,23.6856 L25.3,23.4486 L25.353,22.6626 C25.384,22.2366 26.197,12.1596 36.303,7.8196 C39.373,6.4996 47.277,5.9716 47.612,5.9496 L48.45,5.8946 L48.649,6.7106 C48.76,7.1636 51.277,17.8716 44.139,21.4536 C39.449,23.8066 35.114,24.4216 31.863,24.4216" id="Fill-32" fill="#375D81"></path>
                    <path d="M50.9863,17.0938 C50.9863,17.0938 50.9283,3.7028 65.9373,1.3728 C68.7363,0.9388 72.3493,1.1248 72.3493,1.1248 C72.3493,1.1248 79.8033,15.0078 71.8993,16.5688 C62.1823,18.4878 50.9863,17.0938 50.9863,17.0938" id="Fill-34" fill="#FFFFFF"></path>
                    <path d="M52.0381,16.1992 C54.8991,16.4742 63.8561,17.1362 71.7061,15.5872 C72.8871,15.3542 73.6721,14.7952 74.1051,13.8782 C75.5241,10.8772 73.0741,4.7832 71.7291,2.1032 C70.6221,2.0672 68.1121,2.0472 66.0911,2.3612 C54.1751,4.2112 52.3241,13.2782 52.0381,16.1992 M60.1171,18.5892 C55.0011,18.5892 51.1341,18.1202 50.8631,18.0862 L49.9901,17.9772 L49.9861,17.0972 C49.9851,16.9552 50.1061,2.8182 65.7841,0.3852 C68.6531,-0.0608 72.2501,0.1192 72.4011,0.1262 L72.9641,0.1552 L73.2301,0.6522 C73.4341,1.0292 78.1711,9.9562 75.9141,14.7312 C75.2001,16.2412 73.9151,17.1892 72.0931,17.5502 C68.0331,18.3512 63.7591,18.5892 60.1171,18.5892" id="Fill-36" fill="#375D81"></path>
                    <path d="M79.5322,17.3477 C79.5322,17.3477 81.5212,2.5007 94.8582,6.5857 C100.5562,8.3307 103.7192,12.6617 103.7192,12.6617 C103.7192,12.6617 101.0592,23.9687 95.7542,22.6957 C86.4902,20.4737 79.5322,17.3477 79.5322,17.3477" id="Fill-38" fill="#FFFFFF"></path>
                    <path d="M80.6602,16.7441 C82.6572,17.5811 88.6142,19.9551 95.9872,21.7231 C96.6712,21.8881 97.3172,21.7701 97.9702,21.3691 C100.3512,19.9021 102.0322,15.1351 102.6282,12.9001 C101.7592,11.8751 98.9342,8.8801 94.5652,7.5421 C91.0902,6.4761 88.1472,6.6921 85.8232,8.1831 C82.3252,10.4261 81.0412,14.9661 80.6602,16.7441 M96.5862,23.7971 C96.2342,23.7971 95.8792,23.7541 95.5202,23.6681 C86.2722,21.4501 79.1922,18.2911 79.1222,18.2601 L78.4422,17.9541 L78.5412,17.2151 C78.5812,16.9141 79.5882,9.8061 84.7432,6.5001 C87.5852,4.6791 91.0852,4.3851 95.1512,5.6301 C101.0992,7.4511 104.3892,11.8851 104.5262,12.0721 L104.7982,12.4431 L104.6922,12.8901 C104.6172,13.2101 102.8092,20.7371 99.0182,23.0721 C98.2362,23.5551 97.4212,23.7971 96.5862,23.7971" id="Fill-40" fill="#375D81"></path>
                    <path d="M31.1357,20.1006 C31.1357,20.1006 31.4977,14.8966 36.6047,12.7036 C38.1627,12.0336 42.4087,11.7556 42.4087,11.7556 C42.4087,11.7556 43.7417,17.2256 40.3017,18.9526 C35.3497,21.4366 31.1357,20.1006 31.1357,20.1006" id="Fill-42" fill="#E1F2FF"></path>
                    <path d="M56.7695,14.5869 C56.7695,14.5869 56.7385,7.1839 65.0355,5.8959 C66.5825,5.6549 68.5815,5.7589 68.5815,5.7589 C68.5815,5.7589 72.7025,13.4339 68.3325,14.2969 C62.9595,15.3579 56.7695,14.5869 56.7695,14.5869" id="Fill-44" fill="#E1F2FF"></path>
                    <path d="M84.7705,16.2109 C84.7705,16.2109 85.8585,8.0879 93.1565,10.3229 C96.2735,11.2779 98.0035,13.6479 98.0035,13.6479 C98.0035,13.6479 96.5485,19.8329 93.6455,19.1369 C88.5775,17.9209 84.7705,16.2109 84.7705,16.2109" id="Fill-46" fill="#E1F2FF"></path>
                    <path d="M120.3311,97.8174 C120.3311,97.8174 95.2571,102.4054 71.1701,97.0884 C69.1651,110.2544 67.9171,120.1874 67.9171,120.1874 C67.9171,120.1874 84.8081,131.1304 115.3151,123.7704 C118.5121,106.8454 120.3311,97.8174 120.3311,97.8174" id="Fill-48" fill="#FFFFFF"></path>
                    <path d="M68.9932,119.6572 C72.0462,121.3452 88.0872,129.1262 114.4532,122.9472 C116.8382,110.3322 118.4502,102.1472 119.0682,99.0342 C113.4582,99.8852 92.4012,102.5472 71.9992,98.2892 C70.3952,108.8962 69.2952,117.3092 68.9932,119.6572 M94.7952,127.3392 C77.3822,127.3392 67.8972,121.3662 67.3732,121.0262 L66.8472,120.6852 L66.9252,120.0622 C66.9372,119.9632 68.1972,109.9662 70.1812,96.9372 L70.3422,95.8812 L71.3862,96.1112 C94.9862,101.3212 119.9022,96.8792 120.1512,96.8342 L121.6022,96.5682 L121.3112,98.0142 C121.2932,98.1052 119.4562,107.2322 116.2982,123.9562 L116.1782,124.5912 L115.5502,124.7422 C107.7222,126.6312 100.7872,127.3392 94.7952,127.3392" id="Fill-50" fill="#375D81"></path>
                    <path d="M77.7432,73.3994 L48.9492,74.1234 C48.5842,59.6194 60.0462,47.5674 74.5492,47.2024 L77.0832,47.1384 C84.3352,46.9574 90.3612,52.6874 90.5432,59.9394 C90.7252,67.1904 84.9942,73.2164 77.7432,73.3994" id="Fill-52" fill="#E1F2FF"></path>
                    <path d="M75.1836,72.9697 L49.4316,73.6167 C49.1456,62.2227 58.1506,52.7537 69.5446,52.4677 L74.9096,52.3327 C80.5386,52.1917 85.2176,56.6407 85.3586,62.2707 C85.5036,68.0347 80.9486,72.8247 75.1836,72.9697" id="Fill-54" fill="#FFFFFF"></path>
                    <path d="M75.1719,53.3301 C75.0929,53.3301 75.0139,53.3311 74.9349,53.3331 L69.5699,53.4681 C64.3259,53.6001 59.4469,55.7651 55.8329,59.5661 C52.4479,63.1251 50.5509,67.7171 50.4309,72.5921 L75.1579,71.9701 C77.6799,71.9071 80.0259,70.8661 81.7629,69.0381 C83.4999,67.2111 84.4219,64.8161 84.3589,62.2961 C84.2979,59.8401 83.2829,57.5551 81.5029,55.8621 C79.7799,54.2241 77.5399,53.3301 75.1719,53.3301 L75.1719,53.3301 Z M48.4569,74.6421 L48.4319,73.6421 C48.1329,61.7151 57.5929,51.7681 69.5199,51.4681 L74.8839,51.3331 C77.8939,51.2891 80.7149,52.3511 82.8819,54.4131 C85.0489,56.4741 86.2829,59.2561 86.3589,62.2451 C86.4359,65.3011 85.3179,68.2021 83.2119,70.4171 C81.1069,72.6311 78.2639,73.8921 75.2089,73.9701 L48.4569,74.6421 Z" id="Fill-56" fill="#375D81"></path>
                    <path d="M55.8027,61.5742 C55.8817,64.7562 58.5267,67.2702 61.7087,67.1912 C64.8917,67.1112 67.4067,64.4672 67.3257,61.2842 C67.2457,58.1022 64.6017,55.5872 61.4197,55.6672 C58.2377,55.7472 55.7227,58.3912 55.8027,61.5742" id="Fill-58" fill="#375D81"></path>
                    <path d="M14.4092,80.9854 L14.4092,80.9854 C16.0382,80.5934 17.4792,79.6474 18.4892,78.3104 L20.3582,75.8344 L16.0812,76.8634 L13.5622,77.4704 C12.5922,77.7044 11.9942,78.6804 12.2272,79.6514 C12.4622,80.6224 13.4382,81.2194 14.4092,80.9854" id="Fill-60" fill="#375D81"></path>
                    <path d="M80.2129,101.6914 C80.2129,101.6914 99.3839,106.6244 116.0939,102.8434 C113.2359,115.4254 111.6549,119.3874 111.6549,119.3874 C111.6549,119.3874 86.3779,116.6614 80.2129,101.6914" id="Fill-62" fill="#E1F2FF"></path>
                    <path d="M98.1406,109.7949 C86.2916,109.7949 78.4306,107.9319 78.3216,107.9049 C77.7856,107.7749 77.4556,107.2339 77.5856,106.6979 C77.7166,106.1599 78.2596,105.8279 78.7926,105.9619 C78.9426,105.9979 93.9646,109.5489 113.8016,106.6769 C114.3426,106.5879 114.8566,106.9759 114.9346,107.5229 C115.0136,108.0689 114.6346,108.5759 114.0886,108.6549 C108.2926,109.4949 102.8956,109.7949 98.1406,109.7949" id="Fill-64" fill="#9ACDED"></path>
                    <path d="M103.8037,84.1582 C102.5987,84.1582 101.4597,83.7042 100.5827,82.8702 C99.6777,82.0102 99.1617,80.8472 99.1307,79.5982 C99.1237,79.3222 99.3427,79.0932 99.6177,79.0862 L99.6307,79.0862 C99.9017,79.0862 100.1237,79.3022 100.1307,79.5732 C100.1557,80.5552 100.5607,81.4692 101.2727,82.1452 C101.9837,82.8222 102.9197,83.1822 103.8987,83.1572 C105.9257,83.1052 107.5327,81.4152 107.4817,79.3882 C107.4747,79.1122 107.6927,78.8832 107.9687,78.8762 C108.2687,78.8752 108.4747,79.0882 108.4817,79.3632 C108.5467,81.9412 106.5017,84.0922 103.9237,84.1572 C103.8837,84.1582 103.8437,84.1582 103.8037,84.1582" id="Fill-66" fill="#E1F2FF"></path>
                    <path d="M108.084,88.2285 C106.88,88.2285 105.74,87.7745 104.863,86.9415 C103.958,86.0805 103.442,84.9175 103.411,83.6695 C103.404,83.3935 103.623,83.1645 103.898,83.1575 L103.911,83.1575 C104.182,83.1575 104.404,83.3735 104.411,83.6445 C104.436,84.6255 104.841,85.5395 105.553,86.2155 C106.264,86.8925 107.2,87.2495 108.179,87.2275 C109.161,87.2035 110.074,86.7975 110.751,86.0855 C111.428,85.3745 111.787,84.4415 111.762,83.4595 C111.755,83.1835 111.973,82.9545 112.249,82.9475 C112.522,82.9915 112.755,83.1605 112.762,83.4345 C112.793,84.6835 112.337,85.8695 111.476,86.7755 C110.615,87.6805 109.453,88.1965 108.204,88.2275 C108.164,88.2285 108.124,88.2285 108.084,88.2285" id="Fill-68" fill="#E1F2FF"></path>
                    <path d="M97.9561,144.0049 C96.9241,144.0049 95.9481,143.6149 95.1981,142.9019 C94.4231,142.1649 93.9811,141.1699 93.9541,140.0999 C93.9471,139.8229 94.1651,139.5939 94.4411,139.5869 C94.7541,139.5899 94.9471,139.7989 94.9541,140.0739 C94.9751,140.8769 95.3061,141.6239 95.8881,142.1779 C96.4701,142.7319 97.2381,143.0419 98.0341,143.0039 C98.8371,142.9839 99.5841,142.6519 100.1371,142.0709 C100.6901,141.4889 100.9841,140.7269 100.9641,139.9239 C100.9571,139.6479 101.1751,139.4179 101.4511,139.4109 L101.4641,139.4109 C101.7341,139.4109 101.9571,139.6269 101.9641,139.8989 C101.9901,140.9679 101.6001,141.9839 100.8621,142.7599 C100.1241,143.5349 99.1291,143.9779 98.0601,144.0039 C98.0241,144.0049 97.9901,144.0049 97.9561,144.0049" id="Fill-70" fill="#E1F2FF"></path>
                    <path d="M13.3945,65.584 C12.5885,65.584 11.8275,65.28 11.2415,64.723 C10.6355,64.147 10.2905,63.369 10.2685,62.533 C10.2615,62.257 10.4795,62.027 10.7555,62.021 L10.7685,62.021 C11.0395,62.021 11.2615,62.236 11.2685,62.508 C11.2985,63.683 12.2845,64.65 13.4515,64.583 C14.0195,64.569 14.5485,64.334 14.9405,63.922 C15.3325,63.51 15.5405,62.97 15.5265,62.401 C15.5195,62.125 15.7385,61.896 16.0135,61.889 L16.0265,61.889 C16.2965,61.889 16.5195,62.105 16.5265,62.376 C16.5465,63.212 16.2415,64.005 15.6655,64.611 C15.0885,65.217 14.3115,65.563 13.4765,65.583 C13.4495,65.584 13.4215,65.584 13.3945,65.584" id="Fill-72" fill="#E1F2FF"></path>
                </g>
                <g id="Group-79" transform="translate(176.000000, 50.944000)" fill="#375D81">
                    <path d="M3.2197,4.7969 C2.9437,4.7969 2.7197,4.5729 2.7197,4.2969 L2.7197,0.8159 C2.7197,0.5389 2.9437,0.3159 3.2197,0.3159 C3.4957,0.3159 3.7197,0.5389 3.7197,0.8159 L3.7197,4.2969 C3.7197,4.5729 3.4957,4.7969 3.2197,4.7969" id="Fill-75"></path>
                    <path d="M4.96,3.0557 L1.479,3.0557 C1.202,3.0557 0.979,2.8317 0.979,2.5557 C0.979,2.2797 1.202,2.0557 1.479,2.0557 L4.96,2.0557 C5.236,2.0557 5.46,2.2797 5.46,2.5557 C5.46,2.8317 5.236,3.0557 4.96,3.0557" id="Fill-77"></path>
                </g>
            </g>
        </g>
    </g>
</svg>