<?xml version="1.0" encoding="UTF-8"?>
<svg width="256px" height="256px" viewBox="0 0 256 256" version="1.1" xmlns="http://www.w3.org/2000/svg" xmlns:xlink="http://www.w3.org/1999/xlink">
    <!-- Generator: Sketch Beta 47 (45392) - http://www.bohemiancoding.com/sketch -->
    <title>User-groups</title>
    <desc>Created with Sketch Beta.</desc>
    <defs>
        <path d="M84.8272515,68.6991504 C74.4022729,78.4950368 60.3699159,84.496 44.936,84.496 C27.2618795,84.496 11.4255991,76.62704 0.739508961,64.2016357 L0.739508961,0.751262615 L84.8272515,0.751262615 L84.8272515,68.6991504 L84.8272515,68.6991504 Z" id="path-1"></path>
        <path d="M86.8282582,68.7359669 C76.3093061,79.1002257 61.8695377,85.496 45.936,85.496 C27.7017212,85.496 11.4236245,77.1203427 0.739089136,64.0065893 L0.739089136,0.75141139 L86.8282582,0.75141139 L86.8282582,68.7359669 L86.8282582,68.7359669 Z" id="path-3"></path>
        <path d="M2.04279952,0.9443 C1.63370964,1.069759 1.22270332,1.19083601 0.809835306,1.30747627 L0.809835306,0.9443 L2.04279952,0.9443 Z" id="path-5"></path>
        <path d="M89.1704053,74.0402993 C77.8733744,87.17683 61.1314133,95.496 42.446,95.496 C26.1288594,95.496 11.2933744,89.1516341 0.271796457,78.7950434 L0.271796457,0.61641904 L89.1704053,0.61641904 L89.1704053,74.0402993 L89.1704053,74.0402993 Z" id="path-7"></path>
        <path d="M91.1702953,73.8476043 C79.8740672,87.6712587 62.6908133,96.496 43.446,96.496 C26.6294844,96.496 11.3867023,89.7573618 0.270656215,78.8329672 L0.270656215,0.618133975 L91.1702953,0.618133975 L91.1702953,73.8476043 L91.1702953,73.8476043 Z" id="path-9"></path>
        <path d="M100.984412,153.57864 C95.8371761,154.399558 90.5583827,154.826 85.18,154.826 C49.5684088,154.826 18.3234216,136.131752 0.723131875,108.021621 L0.723131875,2.48593523 C1.04311671,1.97487502 1.36761161,1.46692723 1.69656083,0.962147611 L100.984412,0.962147611 L100.984412,153.57864 Z" id="path-11"></path>
        <path d="M102.984688,154.413869 C97.521793,155.342422 91.9073627,155.826 86.18,155.826 C49.8837371,155.826 18.1235977,136.406007 0.72317441,107.389902 L0.723175673,5.11765169 C1.56706127,3.71042933 2.44472171,2.32577856 3.35503641,0.964819897 L102.984688,0.964819897 L102.984688,154.413869 L102.984688,154.413869 Z" id="path-13"></path>
    </defs>
    <g id="Illustrations" stroke="none" stroke-width="1" fill="none" fill-rule="evenodd">
        <g id="User-groups">
            <g id="Page-1" transform="translate(6.000000, 11.000000)">
                <g id="Group-57" transform="translate(0.000000, 0.318000)">
                    <path d="M239.3027,50.5498 C238.7497,50.5498 238.3027,50.1028 238.3027,49.5498 L238.3027,42.5498 C238.3027,41.9968 238.7497,41.5498 239.3027,41.5498 C239.8557,41.5498 240.3027,41.9968 240.3027,42.5498 L240.3027,49.5498 C240.3027,50.1028 239.8557,50.5498 239.3027,50.5498" id="Fill-1" fill="#375D81"></path>
                    <path d="M242.8027,47.0498 L235.8027,47.0498 C235.2497,47.0498 234.8027,46.6028 234.8027,46.0498 C234.8027,45.4968 235.2497,45.0498 235.8027,45.0498 L242.8027,45.0498 C243.3557,45.0498 243.8027,45.4968 243.8027,46.0498 C243.8027,46.6028 243.3557,47.0498 242.8027,47.0498" id="Fill-3" fill="#375D81"></path>
                    <path d="M68,9.0518 C67.447,9.0518 67,8.6048 67,8.0518 L67,1.0518 C67,0.4988 67.447,0.0518 68,0.0518 C68.553,0.0518 69,0.4988 69,1.0518 L69,8.0518 C69,8.6048 68.553,9.0518 68,9.0518" id="Fill-5" fill="#375D81"></path>
                    <path d="M71.5,5.5518 L64.5,5.5518 C63.947,5.5518 63.5,5.1048 63.5,4.5518 C63.5,3.9988 63.947,3.5518 64.5,3.5518 L71.5,3.5518 C72.053,3.5518 72.5,3.9988 72.5,4.5518 C72.5,5.1048 72.053,5.5518 71.5,5.5518" id="Fill-7" fill="#375D81"></path>
                    <path d="M35.0342,186.2354 C34.7582,186.2354 34.5342,186.0114 34.5342,185.7354 L34.5342,181.7984 C34.5342,181.5214 34.7582,181.2984 35.0342,181.2984 C35.3102,181.2984 35.5342,181.5214 35.5342,181.7984 L35.5342,185.7354 C35.5342,186.0114 35.3102,186.2354 35.0342,186.2354" id="Fill-9" fill="#375D81"></path>
                    <path d="M37.0029,184.2666 L33.0649,184.2666 C32.7889,184.2666 32.5659,184.0426 32.5659,183.7666 C32.5659,183.4906 32.7889,183.2666 33.0649,183.2666 L37.0029,183.2666 C37.2789,183.2666 37.5029,183.4906 37.5029,183.7666 C37.5029,184.0426 37.2789,184.2666 37.0029,184.2666" id="Fill-11" fill="#375D81"></path>
                    <path d="M20.9951,190.3604 C20.9951,133.1674 67.3591,86.8024 124.5531,86.8024 C181.7461,86.8024 228.1101,133.1674 228.1101,190.3604 L20.9951,190.3604 Z" id="Fill-13" fill="#E1F2FF"></path>
                    <path d="M179.8643,18.0684 C179.5883,18.0684 179.3643,17.8444 179.3643,17.5684 L179.3643,13.6314 C179.3643,13.3544 179.5883,13.1314 179.8643,13.1314 C180.1403,13.1314 180.3643,13.3544 180.3643,13.6314 L180.3643,17.5684 C180.3643,17.8444 180.1403,18.0684 179.8643,18.0684" id="Fill-15" fill="#375D81"></path>
                    <path d="M181.833,16.0996 L177.895,16.0996 C177.619,16.0996 177.396,15.8756 177.396,15.5996 C177.396,15.3236 177.619,15.0996 177.895,15.0996 L181.833,15.0996 C182.109,15.0996 182.333,15.3236 182.333,15.5996 C182.333,15.8756 182.109,16.0996 181.833,16.0996" id="Fill-17" fill="#375D81"></path>
                    <path d="M20.9951,67.7617 C20.7191,67.7617 20.4951,67.5377 20.4951,67.2617 L20.4951,63.3247 C20.4951,63.0477 20.7191,62.8247 20.9951,62.8247 C21.2711,62.8247 21.4951,63.0477 21.4951,63.3247 L21.4951,67.2617 C21.4951,67.5377 21.2711,67.7617 20.9951,67.7617" id="Fill-19" fill="#375D81"></path>
                    <path d="M22.9639,65.793 L19.0259,65.793 C18.7499,65.793 18.5269,65.569 18.5269,65.293 C18.5269,65.017 18.7499,64.793 19.0259,64.793 L22.9639,64.793 C23.2399,64.793 23.4639,65.017 23.4639,65.293 C23.4639,65.569 23.2399,65.793 22.9639,65.793" id="Fill-21" fill="#375D81"></path>
                    <path d="M206.1533,144.4658 C205.8773,144.4658 205.6533,144.2418 205.6533,143.9658 L205.6533,140.0288 C205.6533,139.7518 205.8773,139.5288 206.1533,139.5288 C206.4293,139.5288 206.6533,139.7518 206.6533,140.0288 L206.6533,143.9658 C206.6533,144.2418 206.4293,144.4658 206.1533,144.4658" id="Fill-23" fill="#375D81"></path>
                    <path d="M208.1221,142.4971 L204.1841,142.4971 C203.9081,142.4971 203.6851,142.2731 203.6851,141.9971 C203.6851,141.7211 203.9081,141.4971 204.1841,141.4971 L208.1221,141.4971 C208.3981,141.4971 208.6221,141.7211 208.6221,141.9971 C208.6221,142.2731 208.3981,142.4971 208.1221,142.4971" id="Fill-25" fill="#375D81"></path>
                    <path d="M26.6104,202.1729 L48.9434,202.1729" id="Fill-27" fill="#FFFFFF"></path>
                    <path d="M48.9434,203.1729 L26.6104,203.1729 C26.0574,203.1729 25.6104,202.7259 25.6104,202.1729 C25.6104,201.6199 26.0574,201.1729 26.6104,201.1729 L48.9434,201.1729 C49.4964,201.1729 49.9434,201.6199 49.9434,202.1729 C49.9434,202.7259 49.4964,203.1729 48.9434,203.1729" id="Fill-29" fill="#9ACDED"></path>
                    <path d="M241.2197,192.21 L236.2197,192.21 C235.6667,192.21 235.2197,191.763 235.2197,191.21 C235.2197,190.657 235.6667,190.21 236.2197,190.21 L241.2197,190.21 C241.7727,190.21 242.2197,190.657 242.2197,191.21 C242.2197,191.763 241.7727,192.21 241.2197,192.21" id="Fill-31" fill="#9ACDED"></path>
                    <path d="M1,191.21 L6.333,191.21" id="Fill-33" fill="#FFFFFF"></path>
                    <path d="M6.333,192.21 L1,192.21 C0.447,192.21 0,191.763 0,191.21 C0,190.657 0.447,190.21 1,190.21 L6.333,190.21 C6.886,190.21 7.333,190.657 7.333,191.21 C7.333,191.763 6.886,192.21 6.333,192.21" id="Fill-35" fill="#9ACDED"></path>
                    <path d="M92.3477,202.1729 L148.0747,202.1729" id="Fill-37" fill="#FFFFFF"></path>
                    <path d="M148.0742,203.1729 L92.3472,203.1729 C91.7952,203.1729 91.3472,202.7259 91.3472,202.1729 C91.3472,201.6199 91.7952,201.1729 92.3472,201.1729 L148.0742,201.1729 C148.6272,201.1729 149.0742,201.6199 149.0742,202.1729 C149.0742,202.7259 148.6272,203.1729 148.0742,203.1729" id="Fill-39" fill="#9ACDED"></path>
                    <path d="M154.7197,202.1729 L166.0527,202.1729" id="Fill-41" fill="#FFFFFF"></path>
                    <path d="M166.0527,203.1729 L154.7197,203.1729 C154.1667,203.1729 153.7197,202.7259 153.7197,202.1729 C153.7197,201.6199 154.1667,201.1729 154.7197,201.1729 L166.0527,201.1729 C166.6057,201.1729 167.0527,201.6199 167.0527,202.1729 C167.0527,202.7259 166.6057,203.1729 166.0527,203.1729" id="Fill-43" fill="#9ACDED"></path>
                    <path d="M87.3857,202.1729 L83.0527,202.1729" id="Fill-45" fill="#FFFFFF"></path>
                    <path d="M87.3857,203.1729 L83.0527,203.1729 C82.4997,203.1729 82.0527,202.7259 82.0527,202.1729 C82.0527,201.6199 82.4997,201.1729 83.0527,201.1729 L87.3857,201.1729 C87.9387,201.1729 88.3857,201.6199 88.3857,202.1729 C88.3857,202.7259 87.9387,203.1729 87.3857,203.1729" id="Fill-47" fill="#9ACDED"></path>
                    <path d="M15.5527,202.1729 L19.2197,202.1729" id="Fill-49" fill="#FFFFFF"></path>
                    <path d="M19.2197,203.1729 L15.5527,203.1729 C14.9997,203.1729 14.5527,202.7259 14.5527,202.1729 C14.5527,201.6199 14.9997,201.1729 15.5527,201.1729 L19.2197,201.1729 C19.7727,201.1729 20.2197,201.6199 20.2197,202.1729 C20.2197,202.7259 19.7727,203.1729 19.2197,203.1729" id="Fill-51" fill="#9ACDED"></path>
                    <path d="M213.2129,202.1729 L226.8799,202.1729" id="Fill-53" fill="#FFFFFF"></path>
                    <path d="M226.8799,203.1729 L213.2129,203.1729 C212.6599,203.1729 212.2129,202.7259 212.2129,202.1729 C212.2129,201.6199 212.6599,201.1729 213.2129,201.1729 L226.8799,201.1729 C227.4329,201.1729 227.8799,201.6199 227.8799,202.1729 C227.8799,202.7259 227.4329,203.1729 226.8799,203.1729" id="Fill-55" fill="#9ACDED"></path>
                </g>
                <g id="Group-118" transform="translate(19.000000, 96.318000)">
                    <g id="Group-60" transform="translate(1.000000, 9.000000)">
                        <mask id="mask-2" fill="white">
                            <use xlink:href="#path-1"></use>
                        </mask>
                        <g id="Clip-59"></g>
                        <path d="M84.8174,141.709 C78.9644,129.827 70.2604,95.385 74.7194,72.503 L78.2494,54.397 C79.4074,48.457 79.9144,42.408 79.7624,36.357 C79.6994,33.837 79.3814,31.382 78.8364,29.018 C78.6994,28.427 78.5474,27.841 78.3834,27.262 C77.8894,25.522 77.2694,23.838 76.5364,22.218 C76.2914,21.677 76.0344,21.144 75.7634,20.618 C75.2244,19.567 74.6354,18.546 74.0014,17.558 C73.3654,16.569 72.6844,15.613 71.9604,14.694 C69.7864,11.936 67.2244,9.499 64.3604,7.468 C63.4064,6.79 62.4174,6.157 61.3984,5.573 C55.7944,2.357 49.2644,0.589 42.3334,0.763 L36.3454,0.913 C26.2634,1.166 17.2384,5.482 10.7964,12.256 C9.9914,13.103 9.2264,13.988 8.5044,14.908 C7.1944,16.581 6.0344,18.375 5.0274,20.262 C4.6494,20.971 4.2864,21.688 3.9544,22.423 C3.7114,22.961 3.4804,23.507 3.2634,24.059 C2.6114,25.714 2.0784,27.428 1.6714,29.188 C1.2654,30.95 0.9864,32.759 0.8454,34.605 C0.7524,35.836 0.7194,37.082 0.7514,38.343 C0.8144,40.856 1.8904,43.106 3.5794,44.712 C5.2674,46.318 7.5684,47.279 10.0824,47.217 L47.4634,46.277 L42.6214,78.865 C36.8184,112.363 39.3744,134.604 44.8914,149.333 C46.1224,152.617 85.5414,143.177 84.8174,141.709" id="Fill-58" fill="#9ACDED" mask="url(#mask-2)"></path>
                    </g>
                    <g id="Group-63" transform="translate(0.000000, 8.000000)">
                        <mask id="mask-4" fill="white">
                            <use xlink:href="#path-3"></use>
                        </mask>
                        <g id="Clip-62"></g>
                        <path d="M46.7705,149.8291 C47.7025,150.2471 52.7485,150.2371 66.0675,147.3911 C75.4905,145.3781 82.5865,143.3181 84.5755,142.4311 C78.6405,129.7481 70.3175,95.9981 74.7385,73.3111 L78.2675,55.2061 C79.4095,49.3501 79.9125,43.3531 79.7625,37.3831 C79.7025,34.9731 79.3995,32.5701 78.8615,30.2421 C78.7285,29.6681 78.5815,29.0981 78.4215,28.5341 C77.9485,26.8671 77.3435,25.2181 76.6245,23.6301 C76.3865,23.1041 76.1375,22.5871 75.8745,22.0761 C75.3535,21.0601 74.7775,20.0591 74.1595,19.0981 C73.5405,18.1351 72.8725,17.1981 72.1745,16.3131 C70.0565,13.6251 67.5695,11.2611 64.7825,9.2831 C63.8565,8.6261 62.8875,8.0071 61.9015,7.4401 C56.2835,4.2171 49.8665,2.6011 43.3585,2.7631 L37.3715,2.9131 C27.8855,3.1501 19.0605,7.0681 12.5215,13.9451 C11.7455,14.7621 10.9955,15.6291 10.2915,16.5251 C9.0365,18.1281 7.8985,19.8801 6.9095,21.7321 C6.4855,22.5271 6.1545,23.1951 5.8655,23.8341 C5.6285,24.3571 5.4055,24.8881 5.1945,25.4241 C4.5585,27.0371 4.0385,28.7161 3.6465,30.4131 C3.2485,32.1411 2.9775,33.9141 2.8425,35.6811 C2.7515,36.8791 2.7205,38.1021 2.7505,39.3181 C2.8055,41.4821 3.6995,43.4951 5.2685,44.9871 C6.8355,46.4791 8.8865,47.3021 11.0575,47.2171 L49.6275,46.2481 L44.6105,80.0131 C39.5895,108.9961 40.3185,132.4761 46.7705,149.8291 M48.2895,152.0001 C47.8205,152.0001 47.4195,151.9781 47.0935,151.9351 C46.6595,151.8781 45.3365,151.7021 44.9555,150.6831 C38.3235,132.9791 37.5425,109.0951 42.6355,79.6941 L47.2995,48.3071 L11.1075,49.2171 C8.4315,49.2801 5.8455,48.2971 3.8895,46.4361 C1.9345,44.5771 0.8195,42.0661 0.7505,39.3681 C0.7195,38.0861 0.7515,36.7941 0.8485,35.5281 C0.9915,33.6621 1.2765,31.7901 1.6975,29.9641 C2.1115,28.1701 2.6625,26.3951 3.3325,24.6921 C3.5555,24.1261 3.7925,23.5641 4.0425,23.0111 C4.3495,22.3321 4.7005,21.6261 5.1445,20.7911 C6.1885,18.8361 7.3905,16.9861 8.7175,15.2911 C9.4595,14.3451 10.2515,13.4291 11.0725,12.5661 C17.9795,5.3041 27.3015,1.1651 37.3205,0.9131 L43.3075,0.7631 C50.2155,0.5921 56.9595,2.3001 62.8965,5.7061 C63.9385,6.3041 64.9615,6.9581 65.9395,7.6521 C68.8825,9.7391 71.5085,12.2371 73.7455,15.0751 C74.4825,16.0101 75.1875,17.0001 75.8415,18.0171 C76.4955,19.0331 77.1045,20.0911 77.6535,21.1621 C77.9305,21.7001 78.1955,22.2491 78.4475,22.8051 C79.2065,24.4821 79.8445,26.2261 80.3455,27.9881 C80.5145,28.5841 80.6695,29.1851 80.8105,29.7921 C81.3775,32.2511 81.6985,34.7881 81.7625,37.3321 C81.9155,43.4481 81.4005,49.5911 80.2305,55.5891 L76.7015,73.6941 C72.2785,96.3901 80.8695,130.3991 86.7145,142.2671 C86.8985,142.6401 86.8575,143.0721 86.6045,143.4251 C84.9325,145.7561 56.4445,151.9991 48.2895,152.0001" id="Fill-61" fill="#375D81" mask="url(#mask-4)"></path>
                    </g>
                    <path d="M18.0996,15.376 C18.0996,15.376 18.5436,8.984 24.8156,6.291 C26.7296,5.469 31.9446,5.129 31.9446,5.129 C31.9446,5.129 33.5806,11.846 29.3556,13.965 C23.2746,17.016 18.0996,15.376 18.0996,15.376" id="Fill-64" fill="#FFFFFF"></path>
                    <path d="M19.2314,14.6064 C20.8574,14.8894 24.6614,15.2004 28.9074,13.0714 C31.5904,11.7254 31.3694,7.8954 31.1234,6.1954 C29.3624,6.3484 26.4104,6.6944 25.2104,7.2104 C20.8674,9.0754 19.5904,12.9094 19.2314,14.6064 M21.6764,16.8204 C19.3974,16.8204 17.9144,16.3664 17.7974,16.3294 L17.0474,16.0914 L17.1014,15.3064 C17.1224,15.0204 17.6664,8.2734 24.4204,5.3724 C26.4344,4.5064 31.3284,4.1674 31.8784,4.1304 L32.7164,4.0764 L32.9164,4.8924 C32.9904,5.1984 34.6844,12.4114 29.8034,14.8584 C26.7054,16.4134 23.8344,16.8204 21.6764,16.8204" id="Fill-66" fill="#375D81"></path>
                    <path d="M34.0928,11.7158 C34.0928,11.7158 34.0548,3.0228 43.7978,1.5098 C45.6148,1.2278 47.9598,1.3488 47.9598,1.3488 C47.9598,1.3488 52.7998,10.3618 47.6678,11.3738 C41.3608,12.6198 34.0928,11.7158 34.0928,11.7158" id="Fill-68" fill="#FFFFFF"></path>
                    <path d="M35.167,10.8193 C37.314,11.0063 42.716,11.3333 47.475,10.3923 C48.34,10.2213 48.636,9.7893 48.783,9.4773 C49.538,7.8813 48.381,4.4543 47.339,2.3293 C46.559,2.3153 45.121,2.3153 43.951,2.4983 C36.896,3.5933 35.459,8.7153 35.167,10.8193 M40.017,13.0363 C36.673,13.0363 34.146,12.7303 33.97,12.7083 L33.097,12.5993 L33.093,11.7193 C33.093,11.6253 33.172,2.1473 43.645,0.5213 C45.542,0.2263 47.913,0.3453 48.012,0.3493 L48.574,0.3793 L48.841,0.8763 C49.18,1.5063 52.105,7.1293 50.592,10.3313 C50.085,11.4033 49.141,12.1023 47.861,12.3553 C45.201,12.8813 42.4,13.0363 40.017,13.0363" id="Fill-70" fill="#375D81"></path>
                    <path d="M52.623,11.8799 C52.623,11.8799 53.914,2.2419 62.572,4.8939 C66.271,6.0269 68.324,8.8389 68.324,8.8389 C68.324,8.8389 66.598,16.1789 63.153,15.3519 C57.14,13.9089 52.623,11.8799 52.623,11.8799" id="Fill-72" fill="#FFFFFF"></path>
                    <path d="M53.7617,11.2773 C55.2607,11.8933 58.9207,13.3083 63.3867,14.3793 C63.7407,14.4653 64.0637,14.4043 64.4077,14.1933 C65.7957,13.3393 66.8167,10.5483 67.2277,9.0813 C66.5777,8.3463 64.8537,6.6383 62.2797,5.8493 C60.1257,5.1923 58.3147,5.3153 56.8967,6.2263 C54.8947,7.5093 54.0627,10.0293 53.7617,11.2773 M63.6847,16.4153 C63.4297,16.4153 63.1747,16.3843 62.9197,16.3243 C56.8847,14.8763 52.4017,12.8773 52.2127,12.7923 L51.5327,12.4863 L51.6317,11.7473 C51.6587,11.5453 52.3337,6.7753 55.8167,4.5433 C57.7507,3.3013 60.1217,3.0983 62.8657,3.9373 C66.8367,5.1553 69.0397,8.1233 69.1317,8.2493 L69.4037,8.6203 L69.2977,9.0673 C69.1717,9.6013 67.9967,14.3313 65.4567,15.8953 C64.8967,16.2403 64.2947,16.4153 63.6847,16.4153" id="Fill-74" fill="#375D81"></path>
                    <path d="M21.2061,13.667 C21.2061,13.667 21.4401,10.289 24.7561,8.865 C25.7681,8.431 28.5241,8.25 28.5241,8.25 C28.5241,8.25 29.3901,11.801 27.1561,12.922 C23.9411,14.534 21.2061,13.667 21.2061,13.667" id="Fill-76" fill="#E1F2FF"></path>
                    <path d="M37.8467,10.0879 C37.8467,10.0879 37.8257,5.2819 43.2127,4.4449 C44.2167,4.2899 45.5137,4.3569 45.5137,4.3569 C45.5137,4.3569 48.1897,9.3399 45.3527,9.8999 C41.8647,10.5879 37.8467,10.0879 37.8467,10.0879" id="Fill-78" fill="#E1F2FF"></path>
                    <path d="M56.0234,11.1416 C56.0234,11.1416 56.7304,5.8696 61.4664,7.3206 C63.4914,7.9396 64.6144,9.4776 64.6144,9.4776 C64.6144,9.4776 63.6694,13.4946 61.7854,13.0416 C58.4954,12.2516 56.0234,11.1416 56.0234,11.1416" id="Fill-80" fill="#E1F2FF"></path>
                    <path d="M79.1084,64.1182 C79.1084,64.1182 62.8314,67.0972 47.1954,63.6442 C45.8934,72.1912 45.0834,78.6392 45.0834,78.6392 C45.0834,78.6392 56.0474,85.7442 75.8524,80.9672 C77.9264,69.9792 79.1084,64.1182 79.1084,64.1182" id="Fill-82" fill="#FFFFFF"></path>
                    <path d="M46.1602,78.1016 C48.5222,79.3556 58.6462,83.9096 74.9902,80.1426 C76.4042,72.6656 77.3932,67.6196 77.8472,65.3286 C73.6042,65.9376 60.6662,67.4046 48.0252,64.8416 C47.0622,71.2356 46.3882,76.3396 46.1602,78.1016 M62.5452,83.6316 C51.1232,83.6316 44.8842,79.7026 44.5392,79.4786 L44.0132,79.1376 L44.0912,78.5146 C44.0982,78.4506 44.9182,71.9556 46.2072,63.4946 L46.3672,62.4376 L47.4112,62.6676 C62.6742,66.0386 78.7682,63.1646 78.9292,63.1346 L80.3812,62.8696 L80.0892,64.3156 C80.0772,64.3736 78.8842,70.2986 76.8352,81.1526 L76.7152,81.7876 L76.0872,81.9386 C70.9842,83.1696 66.4592,83.6316 62.5452,83.6316" id="Fill-84" fill="#375D81"></path>
                    <path d="M51.4619,48.2666 L32.7699,48.7366 C32.5329,39.3216 39.9739,31.4966 49.3889,31.2606 L51.0329,31.2196 C55.7409,31.1016 59.6519,34.8216 59.7719,39.5296 C59.8899,44.2366 56.1689,48.1486 51.4619,48.2666" id="Fill-86" fill="#E1F2FF"></path>
                    <path d="M49.7998,47.9883 L33.0828,48.4083 C32.8978,41.0113 38.7418,34.8643 46.1398,34.6783 L49.6218,34.5913 C53.2768,34.4993 56.3138,37.3873 56.4048,41.0423 C56.4998,44.7843 53.5418,47.8943 49.7998,47.9883" id="Fill-88" fill="#FFFFFF"></path>
                    <path d="M49.792,35.5889 C49.744,35.5889 49.695,35.5889 49.647,35.5909 L46.165,35.6789 C42.855,35.7619 39.774,37.1289 37.492,39.5279 C35.441,41.6849 34.256,44.4429 34.097,47.3829 L49.774,46.9879 C51.317,46.9499 52.753,46.3129 53.816,45.1939 C54.881,44.0759 55.444,42.6099 55.405,41.0679 C55.368,39.5669 54.748,38.1709 53.66,37.1369 C52.607,36.1349 51.239,35.5889 49.792,35.5889 L49.792,35.5889 Z M32.108,49.4329 L32.083,48.4339 C31.987,44.5889 33.394,40.9369 36.043,38.1509 C38.693,35.3629 42.27,33.7759 46.114,33.6789 L49.597,33.5909 C51.64,33.5829 53.564,34.2829 55.039,35.6879 C56.514,37.0899 57.354,38.9829 57.405,41.0169 C57.458,43.0939 56.698,45.0669 55.266,46.5719 C53.834,48.0779 51.901,48.9359 49.825,48.9879 L32.108,49.4329 Z" id="Fill-90" fill="#375D81"></path>
                    <path d="M37.2188,40.5898 C37.2708,42.6558 38.9878,44.2888 41.0528,44.2358 C43.1188,44.1848 44.7508,42.4678 44.6988,40.4028 C44.6478,38.3368 42.9308,36.7038 40.8648,36.7558 C38.7988,36.8078 37.1668,38.5248 37.2188,40.5898" id="Fill-92" fill="#375D81"></path>
                    <path d="M10.3477,53.1914 L10.3477,53.1914 C11.4047,52.9374 12.3407,52.3234 12.9957,51.4554 L14.2097,49.8474 L11.4327,50.5154 L9.7977,50.9104 C9.1667,51.0614 8.7797,51.6954 8.9317,52.3254 C9.0827,52.9564 9.7167,53.3434 10.3477,53.1914" id="Fill-94" fill="#375D81"></path>
                    <path d="M53.0645,66.6328 C53.0645,66.6328 65.5095,69.8358 76.3575,67.3808 C74.5015,75.5498 73.4755,78.1208 73.4755,78.1208 C73.4755,78.1208 57.0675,76.3518 53.0645,66.6328" id="Fill-96" fill="#E1F2FF"></path>
                    <path d="M64.5967,72.2568 C57.0207,72.2568 52.0437,71.0778 51.7537,71.0078 C51.2177,70.8778 50.8887,70.3368 51.0187,69.8008 C51.1487,69.2638 51.6827,68.9288 52.2257,69.0648 C52.3237,69.0878 62.0217,71.3738 74.8197,69.5228 C75.3627,69.4378 75.8727,69.8208 75.9517,70.3678 C76.0317,70.9148 75.6527,71.4218 75.1067,71.5008 C71.2607,72.0588 67.7087,72.2568 64.5967,72.2568" id="Fill-98" fill="#9ACDED"></path>
                    <g id="Group-102" transform="translate(63.000000, 130.000000)" fill="#E1F2FF">
                        <path d="M3.7773,3.8975 C2.1743,3.8975 0.8513,2.6145 0.8103,1.0035 C0.8033,0.7275 1.0213,0.4985 1.2983,0.4915 L1.3103,0.4915 C1.5813,0.4915 1.8033,0.7075 1.8103,0.9785 C1.8373,2.0465 2.7153,2.8975 3.7773,2.8975 C3.7943,2.8975 3.8103,2.8975 3.8273,2.8965 C4.3523,2.8835 4.8413,2.6665 5.2043,2.2855 C5.5663,1.9045 5.7583,1.4055 5.7453,0.8795 C5.7383,0.6035 5.9563,0.3745 6.2323,0.3675 L6.2453,0.3675 C6.5153,0.3675 6.7383,0.5835 6.7453,0.8545 C6.7863,2.4915 5.4883,3.8555 3.8523,3.8965 C3.8273,3.8965 3.8013,3.8975 3.7773,3.8975" id="Fill-100"></path>
                    </g>
                    <g id="Group-105" transform="translate(68.000000, 130.000000)" fill="#E1F2FF">
                        <path d="M3.7109,3.7734 C2.1079,3.7734 0.7859,2.4904 0.7449,0.8794 C0.7379,0.6034 0.9559,0.3744 1.2319,0.3674 L1.2449,0.3674 C1.5159,0.3674 1.7379,0.5834 1.7449,0.8544 C1.7729,1.9394 2.6799,2.8474 3.7609,2.7724 C4.2859,2.7594 4.7749,2.5424 5.1379,2.1614 C5.4999,1.7804 5.6919,1.2814 5.6789,0.7554 C5.6719,0.4794 5.8899,0.2504 6.1659,0.2434 L6.1749,0.2434 C6.4489,0.2434 6.6719,0.4594 6.6789,0.7304 C6.6979,1.5234 6.4079,2.2764 5.8619,2.8504 C5.3159,3.4244 4.5789,3.7524 3.7859,3.7724 C3.7609,3.7724 3.7349,3.7734 3.7109,3.7734" id="Fill-103"></path>
                    </g>
                    <g id="Group-108" transform="translate(66.000000, 132.000000)" fill="#E1F2FF">
                        <path d="M3.3066,4.3018 C1.7036,4.3018 0.3806,3.0198 0.3396,1.4088 C0.3326,1.1328 0.5506,0.9038 0.8276,0.8968 L0.8396,0.8968 C1.1106,0.8968 1.3326,1.1128 1.3396,1.3838 C1.3666,2.4508 2.2446,3.3018 3.3066,3.3018 C3.3236,3.3018 3.3396,3.3018 3.3566,3.3008 C3.8816,3.2878 4.3706,3.0718 4.7326,2.6908 C5.0946,2.3098 5.2866,1.8108 5.2736,1.2848 C5.2666,1.0088 5.4846,0.7798 5.7606,0.7728 L5.7736,0.7728 C6.0436,0.7728 6.2666,0.9888 6.2736,1.2598 C6.3146,2.8958 5.0176,4.2598 3.3816,4.3008 C3.3566,4.3008 3.3306,4.3018 3.3066,4.3018" id="Fill-106"></path>
                    </g>
                    <path d="M68.3809,55.4268 C66.6469,55.4268 65.2149,54.0388 65.1699,52.2958 C65.1629,52.0198 65.3809,51.7898 65.6569,51.7828 L65.6699,51.7828 C65.9409,51.7828 66.1629,51.9988 66.1699,52.2708 C66.2009,53.4898 67.2389,54.4838 68.4369,54.4258 C69.6549,54.3948 70.6219,53.3778 70.5919,52.1598 C70.5849,51.8838 70.8039,51.6548 71.0789,51.6478 L71.0919,51.6478 C71.3619,51.6478 71.5849,51.8638 71.5919,52.1348 C71.6359,53.9048 70.2319,55.3808 68.4619,55.4258 C68.4349,55.4268 68.4079,55.4268 68.3809,55.4268" id="Fill-109" fill="#E1F2FF"></path>
                    <path d="M71.1582,58.0693 C70.3312,58.0693 69.5482,57.7573 68.9462,57.1843 C68.3242,56.5933 67.9702,55.7963 67.9492,54.9383 C67.9422,54.6623 68.1612,54.4323 68.4362,54.4253 L68.4492,54.4253 C68.7202,54.4253 68.9422,54.6413 68.9492,54.9133 C68.9642,55.5043 69.2072,56.0523 69.6362,56.4603 C70.0632,56.8673 70.6142,57.0903 71.2152,57.0683 C71.8052,57.0533 72.3552,56.8093 72.7622,56.3813 C73.1692,55.9533 73.3862,55.3923 73.3702,54.8013 C73.3632,54.5253 73.5812,54.2963 73.8572,54.2893 C74.1382,54.2913 74.3642,54.5013 74.3702,54.7763 C74.3912,55.6333 74.0782,56.4483 73.4872,57.0703 C72.8952,57.6923 72.0972,58.0463 71.2402,58.0683 C71.2132,58.0693 71.1852,58.0693 71.1582,58.0693" id="Fill-111" fill="#E1F2FF"></path>
                    <g id="Group-115" transform="translate(61.000000, 90.000000)">
                        <mask id="mask-6" fill="white">
                            <use xlink:href="#path-5"></use>
                        </mask>
                        <g id="Clip-114"></g>
                        <path d="M3.582,4.2773 C2.868,4.2773 2.192,4.0073 1.672,3.5133 C1.135,3.0023 0.829,2.3123 0.81,1.5713 C0.803,1.2953 1.02,1.0653 1.297,1.0583 C1.613,1.0623 1.803,1.2703 1.81,1.5463 C1.821,2.0203 2.018,2.4623 2.361,2.7883 C2.705,3.1153 3.165,3.2993 3.63,3.2763 C4.608,3.2523 5.385,2.4353 5.36,1.4573 C5.353,1.1803 5.572,0.9513 5.848,0.9443 L5.86,0.9443 C6.131,0.9443 6.353,1.1603 6.36,1.4313 C6.398,2.9623 5.185,4.2383 3.655,4.2763 C3.631,4.2763 3.606,4.2773 3.582,4.2773" id="Fill-113" fill="#E1F2FF" mask="url(#mask-6)"></path>
                    </g>
                    <path d="M9.6875,43.3691 C9.1205,43.3691 8.5835,43.1541 8.1695,42.7621 C7.7435,42.3551 7.4995,41.8071 7.4845,41.2181 C7.4775,40.9411 7.6965,40.7121 7.9715,40.7051 L7.9845,40.7051 C8.2545,40.7051 8.4775,40.9211 8.4845,41.1921 C8.4925,41.5151 8.6255,41.8141 8.8595,42.0371 C9.0925,42.2591 9.4045,42.3591 9.7205,42.3681 C10.0425,42.3601 10.3425,42.2271 10.5655,41.9931 C10.7885,41.7601 10.9055,41.4541 10.8975,41.1321 C10.8905,40.8551 11.1095,40.6261 11.3845,40.6191 L11.3975,40.6191 C11.6675,40.6191 11.8905,40.8351 11.8975,41.1061 C11.9125,41.6961 11.6965,42.2561 11.2905,42.6821 C10.8835,43.1101 10.3345,43.3531 9.7465,43.3681 C9.7265,43.3681 9.7075,43.3691 9.6875,43.3691" id="Fill-116" fill="#E1F2FF"></path>
                </g>
                <g id="Group-178" transform="translate(150.000000, 83.318000)">
                    <g id="Group-121" transform="translate(1.000000, 10.000000)">
                        <mask id="mask-8" fill="white">
                            <use xlink:href="#path-7"></use>
                        </mask>
                        <g id="Clip-120"></g>
                        <path d="M0.2822,149.6387 C6.4692,137.0767 15.6722,100.6647 10.9572,76.4737 L7.2262,57.3317 C6.0032,51.0517 5.4662,44.6577 5.6272,38.2607 C5.6942,35.5957 6.0292,33.0007 6.6062,30.5007 C6.7512,29.8757 6.9102,29.2567 7.0852,28.6437 C7.6072,26.8057 8.2612,25.0247 9.0382,23.3117 C9.2972,22.7407 9.5682,22.1767 9.8532,21.6207 C10.4242,20.5097 11.0472,19.4297 11.7182,18.3847 C12.3892,17.3397 13.1102,16.3297 13.8762,15.3577 C16.1742,12.4417 18.8812,9.8667 21.9092,7.7177 C22.9192,7.0017 23.9642,6.3327 25.0412,5.7147 C30.9672,2.3157 37.8692,0.4457 45.1982,0.6287 L51.5262,0.7877 C62.1862,1.0567 71.7272,5.6187 78.5382,12.7807 C79.3882,13.6757 80.1972,14.6117 80.9602,15.5837 C82.3462,17.3527 83.5722,19.2487 84.6362,21.2437 C85.0362,21.9927 85.4212,22.7507 85.7712,23.5287 C86.0292,24.0977 86.2722,24.6747 86.5022,25.2577 C87.1912,27.0077 87.7562,28.8197 88.1842,30.6817 C88.6142,32.5437 88.9092,34.4557 89.0572,36.4077 C89.1572,37.7087 89.1912,39.0267 89.1582,40.3597 C89.0912,43.0167 87.9532,45.3957 86.1682,47.0927 C84.3832,48.7907 81.9502,49.8077 79.2932,49.7407 L39.7722,48.7467 L44.8922,83.2007 C51.0272,118.6147 48.3252,142.1267 42.4922,157.6997 C41.1922,161.1707 -0.4828,151.1907 0.2822,149.6387" id="Fill-119" fill="#9ACDED" mask="url(#mask-8)"></path>
                    </g>
                    <g id="Group-124" transform="translate(0.000000, 9.000000)">
                        <mask id="mask-10" fill="white">
                            <use xlink:href="#path-9"></use>
                        </mask>
                        <g id="Clip-123"></g>
                        <path d="M2.5107,150.3916 C7.3697,152.8226 39.4617,159.9436 42.6067,158.2126 C49.4417,139.8546 50.2147,115.0126 44.9067,84.3706 L39.6087,48.7176 L80.3187,49.7406 C82.6327,49.8006 84.8097,48.9566 86.4787,47.3686 C88.1487,45.7806 89.1007,43.6376 89.1577,41.3336 C89.1907,40.0476 89.1567,38.7516 89.0607,37.4836 C88.9177,35.6116 88.6317,33.7346 88.2097,31.9066 C87.7977,30.1146 87.2457,28.3366 86.5717,26.6236 C86.3477,26.0566 86.1117,25.4956 85.8607,24.9406 C85.5577,24.2696 85.2057,23.5626 84.7537,22.7146 C83.7057,20.7496 82.5007,18.8946 81.1727,17.2016 C80.4357,16.2596 79.6407,15.3406 78.8137,14.4686 C71.8897,7.1896 62.5447,3.0406 52.5007,2.7876 L46.1727,2.6286 C39.2617,2.4526 32.4887,4.1676 26.5387,7.5816 C25.4987,8.1786 24.4717,8.8356 23.4877,9.5336 C20.5357,11.6266 17.9037,14.1316 15.6607,16.9766 C14.9137,17.9246 14.2067,18.9176 13.5587,19.9256 C12.9047,20.9456 12.2927,22.0056 11.7427,23.0786 C11.4657,23.6196 11.2007,24.1676 10.9487,24.7246 C10.1907,26.3966 9.5507,28.1436 9.0467,29.9166 C8.8757,30.5146 8.7217,31.1186 8.5807,31.7266 C8.0127,34.1886 7.6917,36.7326 7.6267,39.2866 C7.4677,45.5956 7.9997,51.9396 9.2077,58.1406 L12.9387,77.2826 C17.6187,101.2966 8.7837,137.0436 2.5107,150.3916 M40.9487,160.4046 C32.3357,160.4056 2.2627,153.8226 0.4967,151.3626 C0.2417,151.0076 0.1997,150.5726 0.3847,150.1976 C6.5687,137.6446 15.6547,101.6716 10.9757,77.6646 L7.2447,58.5236 C6.0087,52.1796 5.4647,45.6896 5.6267,39.2356 C5.6957,36.5476 6.0327,33.8706 6.6317,31.2766 C6.7807,30.6336 6.9447,29.9986 7.1227,29.3696 C7.6547,27.5016 8.3277,25.6616 9.1267,23.8986 C9.3927,23.3126 9.6707,22.7346 9.9637,22.1636 C10.5427,21.0366 11.1867,19.9186 11.8757,18.8446 C12.5587,17.7826 13.3037,16.7386 14.0897,15.7396 C16.4507,12.7436 19.2237,10.1066 22.3297,7.9026 C23.3667,7.1666 24.4477,6.4756 25.5427,5.8476 C31.8117,2.2516 38.9487,0.4636 46.2237,0.6286 L52.5517,0.7876 C63.1297,1.0546 72.9707,5.4236 80.2627,13.0906 C81.1347,14.0086 81.9697,14.9766 82.7467,15.9666 C84.1467,17.7516 85.4157,19.7056 86.5187,21.7736 C86.9917,22.6616 87.3627,23.4066 87.6827,24.1176 C87.9477,24.7006 88.1977,25.2926 88.4327,25.8916 C89.1437,27.6966 89.7247,29.5686 90.1587,31.4566 C90.6037,33.3826 90.9047,35.3596 91.0547,37.3306 C91.1567,38.6666 91.1917,40.0306 91.1577,41.3836 C91.0857,44.2226 89.9137,46.8626 87.8577,48.8176 C85.7997,50.7736 83.1027,51.7966 80.2677,51.7406 L41.9367,50.7766 L46.8817,84.0526 C52.2607,115.1006 51.4367,140.3416 44.4287,159.0496 C44.0377,160.0946 42.6657,160.2766 42.2157,160.3366 C41.8707,160.3826 41.4457,160.4046 40.9487,160.4046" id="Fill-122" fill="#375D81" mask="url(#mask-10)"></path>
                    </g>
                    <path d="M72.874,16.5635 C72.874,16.5635 72.404,9.8065 65.773,6.9595 C63.75,6.0895 58.237,5.7295 58.237,5.7295 C58.237,5.7295 56.507,12.8315 60.975,15.0725 C67.403,18.2975 72.874,16.5635 72.874,16.5635" id="Fill-125" fill="#FFFFFF"></path>
                    <path d="M59.0586,6.7959 C58.7976,8.5799 58.5376,12.7309 61.4226,14.1789 C65.9826,16.4649 70.0616,16.1009 71.7506,15.7949 C71.3946,14.0159 70.0796,9.8969 65.3786,7.8779 C64.0916,7.3249 60.9166,6.9569 59.0586,6.7959 M69.0906,18.0339 C66.8176,18.0339 63.7926,17.6049 60.5266,15.9659 C55.4056,13.3979 57.1876,5.8149 57.2656,5.4929 L57.4646,4.6769 L58.3026,4.7319 C58.8846,4.7699 64.0476,5.1299 66.1676,6.0399 C73.2776,9.0939 73.8506,16.1929 73.8716,16.4939 L73.9256,17.2789 L73.1756,17.5169 C73.0536,17.5559 71.4916,18.0339 69.0906,18.0339" id="Fill-127" fill="#375D81"></path>
                    <path d="M55.9668,12.6943 C55.9668,12.6943 56.0058,3.5043 45.7058,1.9043 C43.7848,1.6063 41.3058,1.7343 41.3058,1.7343 C41.3058,1.7343 36.1898,11.2623 41.6138,12.3333 C48.2828,13.6493 55.9668,12.6943 55.9668,12.6943" id="Fill-129" fill="#FFFFFF"></path>
                    <path d="M41.9268,2.7148 C40.8158,4.9688 39.5728,8.6398 40.3838,10.3528 C40.5448,10.6928 40.8678,11.1658 41.8078,11.3518 C46.8928,12.3568 52.6648,11.9958 54.8958,11.7978 C54.6048,9.5978 53.1168,4.0678 45.5528,2.8928 C44.2928,2.6968 42.7438,2.6988 41.9268,2.7148 M49.7048,14.0328 C47.1878,14.0328 44.2308,13.8688 41.4208,13.3148 C40.0868,13.0508 39.1028,12.3218 38.5748,11.2068 C36.9868,7.8468 40.0688,1.9258 40.4248,1.2618 L40.6918,0.7648 L41.2538,0.7358 C41.3608,0.7328 43.8598,0.6068 45.8598,0.9158 C56.8818,2.6278 56.9668,12.5978 56.9668,12.6978 L56.9628,13.5778 L56.0898,13.6868 C55.9038,13.7098 53.2358,14.0328 49.7048,14.0328" id="Fill-131" fill="#375D81"></path>
                    <path d="M36.376,12.8672 C36.376,12.8672 35.011,2.6792 25.857,5.4822 C21.946,6.6802 19.776,9.6522 19.776,9.6522 C19.776,9.6522 21.602,17.4122 25.243,16.5382 C31.601,15.0132 36.376,12.8672 36.376,12.8672" id="Fill-133" fill="#FFFFFF"></path>
                    <path d="M20.8721,9.8945 C21.3041,11.4445 22.3941,14.4435 23.8881,15.3615 C24.2661,15.5945 24.6231,15.6585 25.0101,15.5655 C29.7851,14.4195 33.6811,12.9085 35.2361,12.2655 C34.9221,10.9515 34.0321,8.2115 31.8821,6.8375 C30.3681,5.8715 28.4401,5.7365 26.1501,6.4385 C23.3891,7.2845 21.5491,9.1235 20.8721,9.8945 M24.6831,17.6055 C24.0471,17.6055 23.4211,17.4225 22.8381,17.0635 C20.1721,15.4215 18.9351,10.4435 18.8031,9.8805 L18.6971,9.4335 L18.9691,9.0625 C19.0651,8.9305 21.3831,5.8065 25.5641,4.5265 C28.4471,3.6415 30.9371,3.8565 32.9691,5.1595 C36.6281,7.5045 37.3391,12.5215 37.3671,12.7345 L37.4661,13.4735 L36.7861,13.7795 C36.5871,13.8685 31.8511,15.9805 25.4761,17.5105 C25.2121,17.5745 24.9461,17.6055 24.6831,17.6055" id="Fill-135" fill="#375D81"></path>
                    <path d="M69.5898,14.7568 C69.5898,14.7568 69.3418,11.1858 65.8368,9.6808 C64.7678,9.2208 61.8538,9.0298 61.8538,9.0298 C61.8538,9.0298 60.9388,12.7838 63.2998,13.9688 C66.6978,15.6738 69.5898,14.7568 69.5898,14.7568" id="Fill-137" fill="#E1F2FF"></path>
                    <path d="M51.9971,10.9736 C51.9971,10.9736 52.0191,5.8926 46.3251,5.0076 C45.2631,4.8436 43.8921,4.9136 43.8921,4.9136 C43.8921,4.9136 41.0631,10.1816 44.0621,10.7746 C47.7501,11.5016 51.9971,10.9736 51.9971,10.9736" id="Fill-139" fill="#E1F2FF"></path>
                    <path d="M32.7803,12.0879 C32.7803,12.0879 32.0343,6.5129 27.0253,8.0469 C24.8853,8.7019 23.6993,10.3279 23.6993,10.3279 C23.6993,10.3279 24.6973,14.5739 26.6893,14.0959 C30.1683,13.2619 32.7803,12.0879 32.7803,12.0879" id="Fill-141" fill="#E1F2FF"></path>
                    <path d="M8.375,68.0947 C8.375,68.0947 25.584,71.2427 42.114,67.5937 C43.49,76.6297 44.348,83.4467 44.348,83.4467 C44.348,83.4467 32.756,90.9567 11.817,85.9067 C9.624,74.2907 8.375,68.0947 8.375,68.0947" id="Fill-143" fill="#FFFFFF"></path>
                    <path d="M12.6797,85.082 C30.1307,89.116 40.8337,84.221 43.2707,82.912 C43.0337,81.083 42.3147,75.628 41.2837,68.792 C27.8297,71.529 14.0387,69.943 9.6357,69.306 C10.1097,71.693 11.1637,77.07 12.6797,85.082 M25.8897,88.667 C21.7537,88.667 16.9757,88.18 11.5827,86.878 L10.9547,86.727 L10.8347,86.092 C8.6677,74.617 7.4077,68.354 7.3947,68.292 L7.1037,66.846 L8.5547,67.111 C8.7247,67.143 25.7657,70.179 41.8987,66.617 L42.9427,66.387 L43.1027,67.443 C44.4647,76.389 45.3307,83.253 45.3397,83.321 L45.4177,83.944 L44.8917,84.285 C44.5287,84.52 37.9437,88.667 25.8897,88.667" id="Fill-145" fill="#375D81"></path>
                    <path d="M37.6035,51.3359 L57.3655,51.8329 C57.6155,41.8789 49.7495,33.6069 39.7955,33.3569 L38.0565,33.3139 C33.0805,33.1889 28.9445,37.1219 28.8195,42.0989 C28.6935,47.0749 32.6265,51.2109 37.6035,51.3359" id="Fill-147" fill="#E1F2FF"></path>
                    <path d="M39.3604,51.042 L57.0344,51.485 C57.2304,43.666 51.0504,37.167 43.2304,36.971 L39.5484,36.878 C35.6844,36.781 32.4734,39.835 32.3774,43.698 C32.2774,47.654 35.4044,50.942 39.3604,51.042" id="Fill-149" fill="#FFFFFF"></path>
                    <path d="M39.3857,50.042 L56.0227,50.46 C55.8667,47.315 54.6057,44.363 52.4137,42.059 C49.9907,39.511 46.7207,38.059 43.2047,37.971 L39.5237,37.878 C36.2337,37.79 33.4587,40.417 33.3767,43.724 C33.3347,45.37 33.9377,46.934 35.0727,48.127 C36.2067,49.32 37.7397,50.001 39.3857,50.042 L39.3857,50.042 Z M58.0087,52.51 L39.3347,52.042 C34.8337,51.929 31.2637,48.174 31.3767,43.673 C31.4867,39.333 35.0527,35.876 39.3707,35.876 C39.4387,35.876 39.5057,35.877 39.5737,35.878 L43.2557,35.971 C47.3047,36.072 51.0727,37.745 53.8637,40.681 C56.6547,43.615 58.1357,47.462 58.0337,51.511 L58.0087,52.51 Z" id="Fill-151" fill="#375D81"></path>
                    <path d="M52.6621,43.2207 C52.6061,45.4047 50.7921,47.1307 48.6071,47.0747 C46.4241,47.0207 44.6981,45.2057 44.7531,43.0217 C44.8081,40.8377 46.6231,39.1127 48.8071,39.1667 C50.9901,39.2217 52.7171,41.0357 52.6621,43.2207" id="Fill-153" fill="#375D81"></path>
                    <path d="M81.0703,56.543 L81.0703,56.543 C79.9523,56.273 78.9633,55.625 78.2693,54.707 L76.9873,53.007 L79.9223,53.714 L81.6513,54.13 C82.3173,54.291 82.7273,54.961 82.5673,55.627 C82.4063,56.293 81.7363,56.703 81.0703,56.543" id="Fill-155" fill="#375D81"></path>
                    <path d="M35.9092,70.7529 C35.9092,70.7529 22.7522,74.1389 11.2832,71.5439 C13.2452,80.1799 14.3302,82.8979 14.3302,82.8979 C14.3302,82.8979 31.6782,81.0269 35.9092,70.7529" id="Fill-157" fill="#E1F2FF"></path>
                    <path d="M23.7178,76.6416 C20.4298,76.6416 16.6788,76.4316 12.6138,75.8426 C12.0688,75.7636 11.6898,75.2566 11.7688,74.7096 C11.8468,74.1626 12.3548,73.7776 12.9018,73.8646 C26.4458,75.8266 36.7068,73.4036 36.8098,73.3786 C37.3538,73.2466 37.8868,73.5786 38.0168,74.1156 C38.1468,74.6516 37.8178,75.1926 37.2808,75.3226 C36.9758,75.3966 31.7188,76.6416 23.7178,76.6416" id="Fill-159" fill="#9ACDED"></path>
                    <g id="Group-163" transform="translate(18.000000, 138.000000)" fill="#E1F2FF">
                        <path d="M3.4131,3.8359 C3.3871,3.8359 3.3601,3.8359 3.3331,3.8349 C1.6191,3.7919 0.2601,2.3629 0.3031,0.6489 C0.3091,0.3779 0.5321,0.1619 0.8031,0.1619 L0.8151,0.1619 C1.0921,0.1689 1.3091,0.3979 1.3031,0.6749 C1.2881,1.2369 1.4941,1.7729 1.8831,2.1809 C2.2701,2.5889 2.7951,2.8209 3.3581,2.8349 C3.9151,2.8579 4.4571,2.6429 4.8641,2.2549 C5.2731,1.8669 5.5061,1.3439 5.5191,0.7799 C5.5261,0.5089 5.7491,0.2929 6.0191,0.2929 L6.0321,0.2929 C6.3091,0.2999 6.5261,0.5289 6.5191,0.8059 C6.4991,1.6359 6.1551,2.4079 5.5541,2.9809 C4.9721,3.5329 4.2141,3.8359 3.4131,3.8359" id="Fill-161"></path>
                    </g>
                    <g id="Group-166" transform="translate(13.000000, 138.000000)" fill="#E1F2FF">
                        <path d="M3.1973,3.7051 C3.1713,3.7051 3.1443,3.7051 3.1173,3.7041 C2.2873,3.6841 1.5143,3.3401 0.9423,2.7381 C0.3703,2.1371 0.0663,1.3481 0.0873,0.5171 C0.0933,0.2461 0.3163,0.0301 0.5873,0.0301 L0.5993,0.0301 C0.8763,0.0371 1.0933,0.2671 1.0873,0.5431 C1.0723,1.1051 1.2783,1.6411 1.6673,2.0491 C2.0553,2.4571 2.5793,2.6901 3.1423,2.7041 C3.7063,2.7331 4.2413,2.5131 4.6483,2.1241 C5.0563,1.7361 5.2893,1.2131 5.3023,0.6491 C5.3093,0.3781 5.5323,0.1621 5.8023,0.1621 L5.8153,0.1621 C6.0923,0.1691 6.3093,0.3981 6.3023,0.6751 C6.2823,1.5051 5.9393,2.2771 5.3383,2.8501 C4.7553,3.4021 3.9983,3.7051 3.1973,3.7051" id="Fill-164"></path>
                    </g>
                    <g id="Group-169" transform="translate(15.000000, 140.000000)" fill="#E1F2FF">
                        <path d="M3.7393,4.3789 C3.7133,4.3789 3.6863,4.3789 3.6593,4.3779 C2.8293,4.3579 2.0563,4.0139 1.4843,3.4119 C0.9133,2.8109 0.6093,2.0219 0.6303,1.1909 C0.6363,0.9199 0.8593,0.7039 1.1303,0.7039 L1.1423,0.7039 C1.4193,0.7109 1.6363,0.9409 1.6303,1.2169 C1.6153,1.7799 1.8213,2.3149 2.2103,2.7229 C2.5973,3.1319 3.1213,3.3639 3.6843,3.3779 C4.2633,3.4159 4.7833,3.1869 5.1903,2.7979 C5.5983,2.4089 5.8323,1.8859 5.8453,1.3219 C5.8523,1.0509 6.0753,0.8349 6.3453,0.8349 L6.3533,0.8349 C6.6353,0.8419 6.8523,1.0709 6.8453,1.3479 C6.8253,2.1779 6.4813,2.9499 5.8803,3.5229 C5.2983,4.0759 4.5403,4.3789 3.7393,4.3789" id="Fill-167"></path>
                    </g>
                    <path d="M19.7187,58.877 C19.6907,58.877 19.6607,58.877 19.6317,58.876 C17.7777,58.829 16.3047,57.281 16.3507,55.426 C16.3587,55.15 16.5347,54.934 16.8637,54.939 C17.1387,54.945 17.3577,55.175 17.3507,55.451 C17.3187,56.755 18.3537,57.843 19.6567,57.876 C20.2747,57.919 20.8897,57.66 21.3477,57.226 C21.8057,56.79 22.0667,56.201 22.0817,55.569 C22.0887,55.294 22.2977,55.071 22.5947,55.082 C22.8707,55.089 23.0887,55.318 23.0817,55.595 C23.0597,56.494 22.6877,57.33 22.0357,57.95 C21.4057,58.55 20.5857,58.877 19.7187,58.877" id="Fill-170" fill="#E1F2FF"></path>
                    <path d="M16.7793,61.6709 C16.7513,61.6709 16.7223,61.6709 16.6943,61.6699 C15.7953,61.6479 14.9593,61.2749 14.3393,60.6239 C13.7193,59.9729 13.3903,59.1179 13.4133,58.2199 C13.4203,57.9439 13.6533,57.7459 13.9253,57.7329 C14.2023,57.7389 14.4203,57.9689 14.4133,58.2449 C14.3963,58.8769 14.6283,59.4769 15.0633,59.9349 C15.4993,60.3929 16.0883,60.6539 16.7193,60.6699 C16.7393,60.6709 16.7583,60.6709 16.7793,60.6709 C18.0563,60.6709 19.1123,59.6479 19.1443,58.3629 C19.1513,58.0879 19.4163,57.8839 19.6573,57.8759 C19.9333,57.8829 20.1513,58.1119 20.1443,58.3889 C20.0983,60.2159 18.5963,61.6709 16.7793,61.6709" id="Fill-172" fill="#E1F2FF"></path>
                    <path d="M23.7305,99.9502 C23.7065,99.9502 23.6805,99.9492 23.6565,99.9492 C22.0545,99.9092 20.7845,98.5732 20.8245,96.9712 C20.8315,96.6992 21.0535,96.4832 21.3245,96.4832 L21.3365,96.4832 C21.6125,96.4902 21.8315,96.7202 21.8245,96.9962 C21.7975,98.0472 22.6305,98.9232 23.6815,98.9492 C24.7095,99.0192 25.6095,98.1412 25.6345,97.0922 C25.6415,96.8202 25.8645,96.6042 26.1345,96.6042 L26.1475,96.6042 C26.4225,96.6112 26.6415,96.8412 26.6345,97.1172 C26.5945,98.6942 25.2985,99.9502 23.7305,99.9502" id="Fill-174" fill="#E1F2FF"></path>
                    <path d="M81.7666,46.1299 C81.7456,46.1299 81.7266,46.1289 81.7056,46.1289 C80.4356,46.0969 79.4276,45.0369 79.4596,43.7669 C79.4666,43.4909 79.7186,43.2719 79.9726,43.2789 C80.2486,43.2859 80.4666,43.5159 80.4596,43.7919 C80.4416,44.5109 81.0116,45.1099 81.7316,45.1289 C82.0656,45.1349 82.4106,45.0119 82.6626,44.7709 C82.9156,44.5299 83.0596,44.2059 83.0686,43.8579 C83.0756,43.5819 83.2866,43.4079 83.5806,43.3699 C83.8576,43.3769 84.0756,43.6069 84.0686,43.8829 C84.0526,44.4979 83.7976,45.0699 83.3526,45.4949 C82.9206,45.9049 82.3596,46.1299 81.7666,46.1299" id="Fill-176" fill="#E1F2FF"></path>
                </g>
                <g id="Group-235" transform="translate(60.000000, 26.318000)">
                    <g id="Group-181" transform="translate(1.000000, 11.000000)">
                        <mask id="mask-12" fill="white">
                            <use xlink:href="#path-11"></use>
                        </mask>
                        <g id="Clip-180"></g>
                        <path d="M100.9727,169.0332 C93.9937,154.8662 83.6167,113.7992 88.9337,86.5152 L93.1407,64.9282 C94.5217,57.8452 95.1267,50.6322 94.9457,43.4182 C94.8697,40.4122 94.4917,37.4852 93.8397,34.6662 C93.6777,33.9622 93.4977,33.2632 93.3007,32.5722 C92.7117,30.4992 91.9737,28.4902 91.0987,26.5572 C90.8067,25.9142 90.4997,25.2782 90.1777,24.6512 C89.5347,23.3982 88.8327,22.1802 88.0757,21.0022 C87.3187,19.8232 86.5057,18.6832 85.6417,17.5872 C83.0507,14.2982 79.9967,11.3932 76.5807,8.9712 C75.4427,8.1632 74.2637,7.4092 73.0487,6.7122 C66.3667,2.8782 58.5807,0.7682 50.3167,0.9762 L43.1777,1.1562 C31.1567,1.4582 20.3947,6.6042 12.7147,14.6802 C11.7547,15.6902 10.8427,16.7452 9.9827,17.8432 C8.4187,19.8372 7.0357,21.9762 5.8357,24.2262 C5.3847,25.0712 4.9517,25.9272 4.5557,26.8032 C4.2657,27.4452 3.9917,28.0962 3.7327,28.7532 C2.9547,30.7272 2.3187,32.7702 1.8337,34.8702 C1.3497,36.9712 1.0177,39.1272 0.8497,41.3282 C0.7387,42.7962 0.6997,44.2822 0.7367,45.7852 C0.8127,48.7822 2.0947,51.4652 4.1087,53.3802 C6.1217,55.2942 8.8657,56.4402 11.8627,56.3652 L56.4347,55.2452 L50.6607,94.1012 C43.7417,134.0432 46.7887,160.5602 53.3677,178.1242 C54.8337,182.0392 101.8347,170.7832 100.9727,169.0332" id="Fill-179" fill="#9ACDED" mask="url(#mask-12)"></path>
                    </g>
                    <g id="Group-184" transform="translate(0.000000, 10.000000)">
                        <mask id="mask-14" fill="white">
                            <use xlink:href="#path-13"></use>
                        </mask>
                        <g id="Clip-183"></g>
                        <path d="M55.2637,178.667 C58.4517,180.711 95.6197,172.512 100.7557,169.813 C93.6847,154.865 83.6647,114.451 88.9517,87.324 L93.1597,65.736 C94.5247,58.735 95.1247,51.571 94.9457,44.443 C94.8727,41.559 94.5097,38.681 93.8657,35.892 C93.7067,35.203 93.5317,34.521 93.3387,33.847 C92.7707,31.844 92.0467,29.867 91.1877,27.97 C90.9027,27.342 90.6037,26.721 90.2877,26.108 C89.6597,24.886 88.9687,23.687 88.2347,22.543 C87.4987,21.397 86.6997,20.275 85.8567,19.206 C83.3217,15.988 80.3427,13.155 77.0027,10.786 C75.8937,10 74.7327,9.257 73.5507,8.579 C66.8207,4.717 59.1157,2.764 51.3417,2.977 L44.2027,3.156 C32.8407,3.441 22.2717,8.134 14.4397,16.37 C13.5007,17.356 12.6037,18.396 11.7697,19.46 C10.2667,21.377 8.9037,23.476 7.7177,25.697 C7.2117,26.646 6.8147,27.444 6.4667,28.214 C6.1837,28.842 5.9157,29.478 5.6627,30.119 C4.9007,32.057 4.2767,34.067 3.8087,36.095 C3.3317,38.16 3.0087,40.283 2.8467,42.404 C2.7377,43.845 2.7007,45.311 2.7367,46.761 C2.8027,49.393 3.8907,51.842 5.7977,53.655 C7.7057,55.469 10.1737,56.421 12.8367,56.365 L58.5987,55.216 L52.6507,95.248 C46.6517,129.877 47.5327,157.935 55.2637,178.667 M57.6457,180.944 C56.9567,180.944 56.3447,180.913 55.8257,180.844 C54.9757,180.731 53.8027,180.467 53.4307,179.475 C45.5347,158.395 44.6087,129.95 50.6757,94.931 L56.2707,57.274 L12.8877,58.365 C9.6907,58.422 6.7147,57.286 4.4197,55.104 C2.1247,52.923 0.8177,49.978 0.7367,46.811 C0.6997,45.293 0.7387,43.76 0.8527,42.253 C1.0227,40.031 1.3607,37.809 1.8597,35.646 C2.3497,33.521 3.0027,31.416 3.8017,29.387 C4.0667,28.714 4.3477,28.049 4.6447,27.392 C5.0107,26.58 5.4267,25.743 5.9537,24.756 C7.1937,22.432 8.6207,20.234 10.1957,18.226 C11.0687,17.112 12.0087,16.024 12.9907,14.991 C21.1897,6.368 32.2567,1.455 44.1527,1.156 L51.2907,0.977 C59.4797,0.788 67.4977,2.801 74.5467,6.845 C75.7837,7.555 76.9987,8.332 78.1597,9.155 C81.6567,11.635 84.7747,14.601 87.4267,17.968 C88.3097,19.088 89.1477,20.264 89.9167,21.462 C90.6867,22.659 91.4097,23.915 92.0677,25.194 C92.3967,25.836 92.7107,26.486 93.0087,27.145 C93.9097,29.132 94.6667,31.202 95.2627,33.299 C95.4647,34.006 95.6487,34.721 95.8147,35.441 C96.4897,38.361 96.8687,41.374 96.9457,44.393 C97.1277,51.666 96.5147,58.976 95.1217,66.119 L90.9147,87.707 C85.6327,114.811 95.8897,155.422 102.8697,169.592 L102.8697,169.591 C103.0567,169.971 103.0137,170.413 102.7547,170.774 C101.4087,172.65 84.9877,176.407 81.7097,177.142 C77.4617,178.093 64.1737,180.944 57.6457,180.944" id="Fill-182" fill="#375D81" mask="url(#mask-14)"></path>
                    </g>
                    <path d="M21.2305,18.6689 C21.2305,18.6689 21.7595,11.0489 29.2385,7.8369 C31.5195,6.8569 37.7375,6.4509 37.7375,6.4509 C37.7375,6.4509 39.6895,14.4599 34.6515,16.9869 C27.3995,20.6249 21.2305,18.6689 21.2305,18.6689" id="Fill-185" fill="#FFFFFF"></path>
                    <path d="M22.3535,17.9053 C24.1965,18.2573 28.9155,18.7443 34.2035,16.0933 C37.5955,14.3913 37.2215,9.4833 36.9185,7.5163 C34.8335,7.6923 31.1255,8.1143 29.6325,8.7563 C24.2085,11.0853 22.7335,15.9553 22.3535,17.9053 M25.4975,20.2013 C22.8115,20.2013 21.0655,19.6663 20.9275,19.6223 L20.1785,19.3843 L20.2325,18.5993 C20.2555,18.2633 20.8955,10.3323 28.8435,6.9183 C31.2545,5.8833 37.4115,5.4703 37.6715,5.4533 L38.5095,5.3983 L38.7085,6.2153 C38.7955,6.5733 40.7845,15.0293 35.0995,17.8813 C31.4355,19.7193 28.0435,20.2013 25.4975,20.2013" id="Fill-187" fill="#375D81"></path>
                    <path d="M40.2988,14.3047 C40.2988,14.3047 40.2538,3.9407 51.8708,2.1367 C54.0378,1.7997 56.8338,1.9447 56.8338,1.9447 C56.8338,1.9447 62.6048,12.6907 56.4858,13.8987 C48.9638,15.3827 40.2988,14.3047 40.2988,14.3047" id="Fill-189" fill="#FFFFFF"></path>
                    <path d="M41.3633,13.4092 C43.7823,13.6292 50.4383,14.0732 56.2923,12.9172 C57.1423,12.7492 57.6813,12.3682 57.9893,11.7182 C59.0313,9.5132 57.2503,5.0202 56.2133,2.9242 C55.3103,2.9022 53.4973,2.8962 52.0243,3.1252 C43.2503,4.4872 41.6533,10.9922 41.3633,13.4092 M47.3663,15.6872 C43.3893,15.6872 40.3853,15.3232 40.1763,15.2972 L39.3023,15.1882 L39.2993,14.3082 C39.2993,14.1962 39.3923,3.0622 51.7173,1.1482 C53.9603,0.8012 56.7673,0.9412 56.8853,0.9452 L57.4483,0.9742 L57.7153,1.4712 C58.1143,2.2142 61.5623,8.8392 59.7983,12.5722 C59.2203,13.7932 58.1423,14.5912 56.6783,14.8802 C53.5213,15.5032 50.1973,15.6872 47.3663,15.6872" id="Fill-191" fill="#375D81"></path>
                    <path d="M62.3936,14.501 C62.3936,14.501 63.9336,3.009 74.2566,6.172 C78.6666,7.522 81.1156,10.875 81.1156,10.875 C81.1156,10.875 79.0566,19.626 74.9506,18.641 C67.7796,16.921 62.3936,14.501 62.3936,14.501" id="Fill-193" fill="#FFFFFF"></path>
                    <path d="M63.5273,13.8975 C65.2163,14.5985 69.6903,16.3505 75.1833,17.6685 C75.6593,17.7825 76.0903,17.7035 76.5453,17.4225 C78.2853,16.3525 79.5423,12.8605 80.0213,11.1165 C79.2873,10.2705 77.1723,8.1105 73.9643,7.1275 C71.3403,6.3265 69.1263,6.4825 67.3843,7.5975 C64.8563,9.2185 63.8593,12.4465 63.5273,13.8975 M75.5953,19.7195 C75.3053,19.7195 75.0123,19.6835 74.7163,19.6135 C67.5373,17.8915 62.2073,15.5135 61.9833,15.4135 L61.3033,15.1075 L61.4023,14.3685 C61.4343,14.1305 62.2273,8.5285 66.3053,5.9145 C68.5633,4.4675 71.3383,4.2335 74.5493,5.2155 C79.2243,6.6475 81.8143,10.1375 81.9233,10.2855 L82.1943,10.6565 L82.0893,11.1035 C81.9403,11.7325 80.5573,17.2995 77.5953,19.1255 C76.9533,19.5205 76.2833,19.7195 75.5953,19.7195" id="Fill-195" fill="#375D81"></path>
                    <path d="M24.9336,16.6318 C24.9336,16.6318 25.2136,12.6038 29.1666,10.9058 C30.3726,10.3878 33.6606,10.1738 33.6606,10.1738 C33.6606,10.1738 34.6916,14.4068 32.0286,15.7428 C28.1956,17.6658 24.9336,16.6318 24.9336,16.6318" id="Fill-197" fill="#E1F2FF"></path>
                    <path d="M44.7754,12.3643 C44.7754,12.3643 44.7504,6.6343 51.1724,5.6363 C52.3714,5.4513 53.9174,5.5313 53.9174,5.5313 C53.9174,5.5313 57.1074,11.4713 53.7244,12.1393 C49.5664,12.9613 44.7754,12.3643 44.7754,12.3643" id="Fill-199" fill="#E1F2FF"></path>
                    <path d="M66.4482,13.6211 C66.4482,13.6211 67.2912,7.3341 72.9382,9.0641 C75.3512,9.8031 76.6912,11.6371 76.6912,11.6371 C76.6912,11.6371 75.5642,16.4251 73.3182,15.8871 C69.3942,14.9451 66.4482,13.6211 66.4482,13.6211" id="Fill-201" fill="#E1F2FF"></path>
                    <path d="M93.9736,76.7871 C93.9736,76.7871 74.5656,80.3381 55.9216,76.2231 C54.3696,86.4131 53.4036,94.1011 53.4036,94.1011 C53.4036,94.1011 66.4766,102.5721 90.0906,96.8761 C92.5646,83.7751 93.9736,76.7871 93.9736,76.7871" id="Fill-203" fill="#FFFFFF"></path>
                    <path d="M54.4795,93.5674 C57.1085,94.9854 69.3315,100.6694 89.2285,96.0524 C90.9845,86.7664 92.1955,80.6054 92.7115,78.0004 C87.9485,78.7014 72.1385,80.5814 56.7505,77.4214 C55.5615,85.3034 54.7365,91.5804 54.4795,93.5674 M74.2165,99.8624 C60.6625,99.8624 53.2675,95.2054 52.8595,94.9404 L52.3335,94.5994 L52.4115,93.9764 C52.4205,93.9004 53.3965,86.1594 54.9335,76.0724 L55.0935,75.0154 L56.1375,75.2464 C74.3585,79.2674 93.6035,75.8384 93.7935,75.8034 L95.2455,75.5384 L94.9545,76.9844 C94.9395,77.0544 93.5175,84.1184 91.0735,97.0614 L90.9535,97.6964 L90.3255,97.8474 C84.2515,99.3134 78.8715,99.8624 74.2165,99.8624" id="Fill-205" fill="#375D81"></path>
                    <path d="M62.1611,57.8584 L38.7221,58.4474 L38.6631,56.1434 C38.4131,46.1894 46.2791,37.9184 56.2331,37.6684 L61.6501,37.5314 C66.6271,37.4064 70.7631,41.3394 70.8881,46.3164 L70.9451,48.6204 C71.0701,53.5964 67.1381,57.7324 62.1611,57.8584" id="Fill-207" fill="#E1F2FF"></path>
                    <path d="M59.0381,57.5547 L39.0951,58.0557 C38.8731,49.2367 45.8441,41.9067 54.6631,41.6857 L58.8051,41.5807 C63.1681,41.4717 66.7941,44.9197 66.9041,49.2837 C67.0161,53.7397 63.4941,57.4427 59.0381,57.5547" id="Fill-209" fill="#FFFFFF"></path>
                    <path d="M59.0049,42.5781 C58.9459,42.5781 58.8889,42.5791 58.8299,42.5811 L54.6889,42.6851 C50.6899,42.7851 46.9699,44.4361 44.2129,47.3351 C41.6879,49.9911 40.2479,53.4021 40.1019,57.0301 L59.0129,56.5551 C62.9099,56.4571 66.0019,53.2061 65.9039,49.3081 C65.8099,45.5621 62.7319,42.5781 59.0049,42.5781 L59.0049,42.5781 Z M38.1199,59.0801 L38.0949,58.0811 C37.9819,53.5481 39.6399,49.2421 42.7639,45.9571 C45.8889,42.6711 50.1059,40.7991 54.6379,40.6851 L58.7789,40.5811 C63.6929,40.4541 67.7809,44.3501 67.9039,49.2581 C68.0289,54.2581 64.0629,58.4291 59.0639,58.5551 L38.1199,59.0801 Z" id="Fill-211" fill="#375D81"></path>
                    <path d="M44.0264,48.7334 C44.0884,51.1974 46.1344,53.1434 48.5974,53.0824 C51.0614,53.0194 53.0074,50.9724 52.9464,48.5094 C52.8834,46.0464 50.8374,44.0994 48.3744,44.1624 C45.9114,44.2234 43.9644,46.2704 44.0264,48.7334" id="Fill-213" fill="#375D81"></path>
                    <path d="M11.9863,63.7588 L11.9863,63.7588 C13.2473,63.4548 14.3633,62.7238 15.1443,61.6888 L16.5913,59.7718 L13.2813,60.5688 L11.3313,61.0378 C10.5803,61.2188 10.1173,61.9748 10.2983,62.7268 C10.4793,63.4778 11.2353,63.9408 11.9863,63.7588" id="Fill-215" fill="#375D81"></path>
                    <path d="M62.9209,79.7852 C62.9209,79.7852 77.7589,83.6042 90.6929,80.6782 C88.4819,90.4172 87.2579,93.4832 87.2579,93.4832 C87.2579,93.4832 67.6919,91.3732 62.9209,79.7852" id="Fill-217" fill="#E1F2FF"></path>
                    <path d="M76.668,86.2998 C67.66,86.2998 61.747,84.8988 61.403,84.8148 C60.867,84.6848 60.538,84.1438 60.668,83.6078 C60.798,83.0708 61.328,82.7368 61.875,82.8708 C61.99,82.8988 73.585,85.6368 88.887,83.4208 C89.432,83.3258 89.94,83.7198 90.02,84.2668 C90.099,84.8138 89.72,85.3208 89.174,85.3998 C84.598,86.0628 80.371,86.2998 76.668,86.2998" id="Fill-219" fill="#9ACDED"></path>
                    <path d="M79.2715,159.8916 C77.4125,159.8916 75.8755,158.4036 75.8295,156.5356 C75.8225,156.2586 76.0405,156.0296 76.3165,156.0226 L76.3295,156.0226 C76.5995,156.0226 76.8225,156.2386 76.8295,156.5096 C76.8625,157.8556 77.9975,158.9576 79.3325,158.8906 C80.6775,158.8566 81.7465,157.7336 81.7125,156.3876 C81.7065,156.1116 81.9245,155.8816 82.2005,155.8746 L82.2125,155.8746 C82.4835,155.8746 82.7065,156.0906 82.7125,156.3626 C82.7595,158.2596 81.2535,159.8426 79.3575,159.8906 C79.3295,159.8916 79.2995,159.8916 79.2715,159.8916" id="Fill-221" fill="#E1F2FF"></path>
                    <path d="M85.1514,159.7432 C84.2644,159.7432 83.4264,159.4082 82.7814,158.7952 C82.1154,158.1612 81.7354,157.3062 81.7134,156.3882 C81.7064,156.1112 81.9244,155.8822 82.2004,155.8752 L82.2134,155.8752 C82.4834,155.8752 82.7064,156.0912 82.7134,156.3622 C82.7284,157.0142 82.9984,157.6212 83.4704,158.0702 C83.9444,158.5212 84.5714,158.7732 85.2144,158.7422 C86.5614,158.7082 87.6304,157.5852 87.5954,156.2392 C87.5894,155.9632 87.8064,155.7332 88.0834,155.7262 C88.3644,155.7122 88.5894,155.9392 88.5954,156.2142 C88.6434,158.1112 87.1384,159.6942 85.2404,159.7422 C85.2104,159.7432 85.1804,159.7432 85.1514,159.7432" id="Fill-223" fill="#E1F2FF"></path>
                    <path d="M82.2852,162.7588 C80.4272,162.7588 78.8912,161.2718 78.8452,159.4038 C78.8382,159.1268 79.0562,158.8978 79.3322,158.8908 L79.3452,158.8908 C79.6152,158.8908 79.8382,159.1068 79.8452,159.3778 C79.8612,160.0298 80.1312,160.6368 80.6032,161.0858 C81.0762,161.5368 81.7082,161.7838 82.3472,161.7578 C83.6942,161.7238 84.7622,160.6018 84.7272,159.2548 C84.7212,158.9788 84.9382,158.7488 85.2152,158.7418 C85.4822,158.7308 85.7212,158.9548 85.7272,159.2298 C85.7512,160.1498 85.4142,161.0228 84.7812,161.6888 C84.1472,162.3548 83.2922,162.7348 82.3732,162.7578 C82.3442,162.7588 82.3142,162.7588 82.2852,162.7588" id="Fill-225" fill="#E1F2FF"></path>
                    <path d="M81.1807,66.3271 C79.1657,66.3271 77.5007,64.7141 77.4507,62.6881 C77.4437,62.4121 77.6607,62.1821 77.9377,62.1761 L77.9507,62.1761 C78.2207,62.1761 78.4437,62.3911 78.4507,62.6631 C78.4687,63.3921 78.7697,64.0721 79.2987,64.5751 C79.8277,65.0781 80.5267,65.3631 81.2507,65.3261 C81.9807,65.3071 82.6597,65.0071 83.1627,64.4771 C83.6657,63.9481 83.9327,63.2561 83.9137,62.5261 C83.9077,62.2501 84.1247,62.0201 84.4017,62.0141 C84.6597,61.9991 84.9077,62.2261 84.9137,62.5011 C84.9397,63.4981 84.5747,64.4441 83.8877,65.1671 C83.2007,65.8901 82.2737,66.3011 81.2767,66.3261 C81.2437,66.3271 81.2127,66.3271 81.1807,66.3271" id="Fill-227" fill="#E1F2FF"></path>
                    <path d="M84.4941,69.4785 C82.4791,69.4785 80.8141,67.8655 80.7641,65.8385 C80.7571,65.5625 80.9741,65.3325 81.2511,65.3265 L81.2641,65.3265 C81.5341,65.3265 81.7571,65.5415 81.7641,65.8135 C81.8021,67.3205 83.0831,68.5255 84.5641,68.4775 C85.2941,68.4585 85.9731,68.1585 86.4761,67.6285 C86.9791,67.0995 87.2461,66.4065 87.2271,65.6765 C87.2211,65.4005 87.4381,65.1705 87.7151,65.1645 L87.7231,65.1645 C87.9981,65.1645 88.2211,65.3795 88.2271,65.6515 C88.2791,67.7085 86.6471,69.4255 84.5901,69.4775 C84.5571,69.4785 84.5261,69.4785 84.4941,69.4785" id="Fill-229" fill="#E1F2FF"></path>
                    <path d="M76.6562,112.6514 C74.9212,112.6514 73.4882,111.2624 73.4432,109.5184 C73.4362,109.2424 73.6542,109.0124 73.9302,109.0054 C74.2312,108.9924 74.4362,109.2184 74.4432,109.4934 C74.4732,110.7134 75.4772,111.7274 76.7122,111.6504 C77.9322,111.6194 78.9002,110.6014 78.8692,109.3814 C78.8622,109.1054 79.0802,108.8764 79.3562,108.8694 C79.6512,108.8554 79.8622,109.0824 79.8692,109.3564 C79.8902,110.2144 79.5772,111.0294 78.9852,111.6514 C78.3932,112.2734 77.5952,112.6284 76.7372,112.6504 C76.7102,112.6514 76.6832,112.6514 76.6562,112.6514" id="Fill-231" fill="#E1F2FF"></path>
                    <path d="M11.2031,51.9512 C9.8341,51.9512 8.7041,50.8552 8.6691,49.4792 C8.6621,49.2032 8.8801,48.9732 9.1561,48.9672 C9.4701,48.9652 9.6621,49.1792 9.6691,49.4542 C9.6891,50.2992 10.4081,50.9742 11.2421,50.9502 C12.0891,50.9292 12.7601,50.2232 12.7381,49.3772 C12.7311,49.1002 12.9491,48.8712 13.2251,48.8642 C13.5171,48.8952 13.7311,49.0762 13.7381,49.3512 C13.7731,50.7492 12.6651,51.9152 11.2671,51.9502 C11.2461,51.9502 11.2241,51.9512 11.2031,51.9512" id="Fill-233" fill="#E1F2FF"></path>
                </g>
                <g id="Group-258" transform="translate(14.000000, 145.318000)">
                    <path d="M218.0479,46.21 L201.9909,46.21 C202.5899,44.162 202.9229,42.002 202.9229,39.761 C202.9229,27.05 192.6189,16.745 179.9079,16.745 C169.7769,16.745 161.1829,23.293 158.1079,32.386 C157.0249,32.144 155.8999,32.012 154.7429,32.012 C146.6489,32.012 140.0279,38.27 139.4219,46.21 L125.7049,46.245 C125.1679,36.638 117.7589,28.868 108.2999,27.806 C105.2419,12.969 92.1069,1.813 76.3629,1.813 C65.6549,1.813 56.1529,6.975 50.2079,14.945 C48.1419,14.427 45.9809,14.148 43.7539,14.148 C29.1519,14.148 17.3129,25.986 17.3129,40.59 C17.3129,42.532 17.5279,44.423 17.9279,46.245 L1.6669,46.245" id="Fill-236" fill="#FFFFFF"></path>
                    <path d="M124.7598,47.2471 L124.7068,46.3011 C124.1968,37.1781 117.2498,29.8171 108.1888,28.8001 L107.4668,28.7191 L107.3208,28.0081 C104.3118,13.4081 91.2918,2.8121 76.3638,2.8121 C66.2848,2.8121 57.0438,7.4531 51.0098,15.5431 L50.6118,16.0771 L49.9648,15.9151 C47.9378,15.4061 45.8478,15.1481 43.7538,15.1481 C29.7258,15.1481 18.3128,26.5611 18.3128,40.5901 C18.3128,42.4081 18.5118,44.2381 18.9048,46.0311 L19.1708,47.2451 L1.6668,47.2451 C1.1138,47.2451 0.6668,46.7981 0.6668,46.2451 C0.6668,45.6921 1.1138,45.2451 1.6668,45.2451 L16.7128,45.2451 C16.4468,43.7031 16.3128,42.1431 16.3128,40.5901 C16.3128,25.4591 28.6228,13.1481 43.7538,13.1481 C45.7898,13.1481 47.8228,13.3751 49.8068,13.8211 C56.2268,5.5451 65.8678,0.8121 76.3638,0.8121 C91.9968,0.8121 105.6618,11.7431 109.1268,26.9041 C118.4978,28.2841 125.6768,35.8211 126.6288,45.2431 L138.5218,45.2121 C139.5978,37.1781 146.5508,31.0121 154.7428,31.0121 C155.6468,31.0121 156.5558,31.0881 157.4558,31.2391 C160.9828,21.9351 169.8968,15.7451 179.9078,15.7451 C193.1508,15.7451 203.9228,26.5181 203.9228,39.7611 C203.9228,41.5851 203.7098,43.4121 203.2878,45.2101 L218.0478,45.2101 C218.6008,45.2101 219.0478,45.6571 219.0478,46.2101 C219.0478,46.7631 218.6008,47.2101 218.0478,47.2101 L200.6568,47.2101 L201.0308,45.9301 C201.6228,43.9061 201.9228,41.8301 201.9228,39.7611 C201.9228,27.6211 192.0468,17.7451 179.9078,17.7451 C170.4618,17.7451 162.0808,23.7581 159.0548,32.7061 L158.7668,33.5581 L157.8898,33.3611 C156.8508,33.1301 155.7918,33.0121 154.7428,33.0121 C147.2798,33.0121 140.9878,38.8431 140.4188,46.2861 L140.3488,47.2081 L124.7598,47.2471 Z" id="Fill-238" fill="#9ACDED"></path>
                    <path d="M147.5918,57 C147.5918,73.211 134.4508,86.352 118.2398,86.352 C102.0288,86.352 88.8888,73.211 88.8888,57 C88.8888,40.79 102.0288,27.648 118.2398,27.648 C134.4508,27.648 147.5918,40.79 147.5918,57" id="Fill-240" fill="#FFFFFF"></path>
                    <path d="M118.2402,28.6484 C102.6072,28.6484 89.8882,41.3674 89.8882,57.0004 C89.8882,72.6324 102.6072,85.3514 118.2402,85.3514 C133.8732,85.3514 146.5922,72.6324 146.5922,57.0004 C146.5922,41.3674 133.8732,28.6484 118.2402,28.6484 M118.2402,87.3514 C101.5042,87.3514 87.8882,73.7364 87.8882,57.0004 C87.8882,40.2634 101.5042,26.6484 118.2402,26.6484 C134.9762,26.6484 148.5922,40.2634 148.5922,57.0004 C148.5922,73.7364 134.9762,87.3514 118.2402,87.3514" id="Fill-242" fill="#375D81"></path>
                    <path d="M125.0615,71.9873 L105.4185,71.9873 C104.3145,71.9873 103.4185,71.0913 103.4185,69.9873 L103.4185,54.0493 C103.4185,52.9443 104.3145,52.0493 105.4185,52.0493 L125.0615,52.0493 C126.1655,52.0493 127.0615,52.9443 127.0615,54.0493 L127.0615,69.9873 C127.0615,71.0913 126.1655,71.9873 125.0615,71.9873" id="Fill-244" fill="#EFEFF6"></path>
                    <path d="M128.0615,68.9873 L108.4185,68.9873 C107.3145,68.9873 106.4185,68.0913 106.4185,66.9873 L106.4185,51.0493 C106.4185,49.9443 107.3145,49.0493 108.4185,49.0493 L128.0615,49.0493 C129.1655,49.0493 130.0615,49.9443 130.0615,51.0493 L130.0615,66.9873 C130.0615,68.0913 129.1655,68.9873 128.0615,68.9873" id="Fill-246" fill="#FFFFFF"></path>
                    <path d="M108.4189,50.0488 C107.8669,50.0488 107.4189,50.4968 107.4189,51.0488 L107.4189,66.9868 C107.4189,67.5388 107.8669,67.9868 108.4189,67.9868 L128.0619,67.9868 C128.6129,67.9868 129.0619,67.5388 129.0619,66.9868 L129.0619,51.0488 C129.0619,50.4968 128.6129,50.0488 128.0619,50.0488 L108.4189,50.0488 Z M128.0619,69.9868 L108.4189,69.9868 C106.7649,69.9868 105.4189,68.6418 105.4189,66.9868 L105.4189,51.0488 C105.4189,49.3948 106.7649,48.0488 108.4189,48.0488 L128.0619,48.0488 C129.7159,48.0488 131.0619,49.3948 131.0619,51.0488 L131.0619,66.9868 C131.0619,68.6418 129.7159,69.9868 128.0619,69.9868 L128.0619,69.9868 Z" id="Fill-248" fill="#9ACDED"></path>
                    <path d="M120.8154,57.5537 C120.8154,58.9767 119.6634,60.1297 118.2404,60.1297 C116.8174,60.1297 115.6654,58.9767 115.6654,57.5537 C115.6654,56.1317 116.8174,54.9787 118.2404,54.9787 C119.6634,54.9787 120.8154,56.1317 120.8154,57.5537" id="Fill-250" fill="#9ACDED"></path>
                    <path d="M118.21,63.335 L118.21,63.335 C117.398,63.335 116.741,62.678 116.741,61.866 L116.741,56.96 L119.679,56.96 L119.679,61.866 C119.679,62.678 119.021,63.335 118.21,63.335" id="Fill-252" fill="#9ACDED"></path>
                    <path d="M110.9912,48.0488 L125.6162,48.0488 L125.6162,45.9758 C125.6162,41.9438 122.3362,38.6628 118.3032,38.6628 C114.2712,38.6628 110.9912,41.9438 110.9912,45.9758 L110.9912,48.0488 Z M127.6162,50.0488 L108.9912,50.0488 L108.9912,45.9758 C108.9912,40.8408 113.1692,36.6628 118.3032,36.6628 C123.4382,36.6628 127.6162,40.8408 127.6162,45.9758 L127.6162,50.0488 Z" id="Fill-254" fill="#9ACDED"></path>
                    <path d="M126.6162,66.6338 C126.0632,66.6338 125.6162,66.1868 125.6162,65.6338 L125.6162,54.9788 C125.6162,54.4258 126.0632,53.9788 126.6162,53.9788 C127.1692,53.9788 127.6162,54.4258 127.6162,54.9788 L127.6162,65.6338 C127.6162,66.1868 127.1692,66.6338 126.6162,66.6338" id="Fill-256" fill="#E1F2FF"></path>
                </g>
            </g>
        </g>
    </g>
</svg>