<?xml version="1.0" encoding="UTF-8"?>
<svg width="256px" height="256px" viewBox="0 0 256 256" version="1.1" xmlns="http://www.w3.org/2000/svg" xmlns:xlink="http://www.w3.org/1999/xlink">
    <!-- Generator: Sketch Beta 47 (45392) - http://www.bohemiancoding.com/sketch -->
    <title>Views</title>
    <desc>Created with Sketch Beta.</desc>
    <defs>
        <polygon id="path-1" points="9.14 0.6831 9.14 2.6831 0.1661 2.6831 0.1661 0.6831 9.14 0.6831"></polygon>
    </defs>
    <g id="Illustrations" stroke="none" stroke-width="1" fill="none" fill-rule="evenodd">
        <g id="Views">
            <g id="Page-1" transform="translate(1.000000, 29.000000)">
                <path d="M21.2041,196.5328 C21.2041,139.3398 67.5681,92.9748 124.7621,92.9748 C181.9541,92.9748 228.3201,139.3398 228.3201,196.5328 L21.2041,196.5328 Z" id="Fill-1" fill="#E1F2FF"></path>
                <path d="M17.9775,187.5328 L53.9775,187.5328" id="Fill-3" fill="#FFFFFF"></path>
                <path d="M53.9775,188.5328 L17.9775,188.5328 C17.4255,188.5328 16.9775,188.0848 16.9775,187.5328 C16.9775,186.9808 17.4255,186.5328 17.9775,186.5328 L53.9775,186.5328 C54.5295,186.5328 54.9775,186.9808 54.9775,187.5328 C54.9775,188.0848 54.5295,188.5328 53.9775,188.5328" id="Fill-5" fill="#375D81"></path>
                <path d="M193.3198,187.5328 L237.3198,187.5328" id="Fill-7" fill="#FFFFFF"></path>
                <path d="M237.3198,188.5328 L193.3198,188.5328 C192.7668,188.5328 192.3198,188.0848 192.3198,187.5328 C192.3198,186.9808 192.7668,186.5328 193.3198,186.5328 L237.3198,186.5328 C237.8728,186.5328 238.3198,186.9808 238.3198,187.5328 C238.3198,188.0848 237.8728,188.5328 237.3198,188.5328" id="Fill-9" fill="#375D81"></path>
                <path d="M163.2241,187.1583 L168.2031,187.1583 C169.9151,187.1583 171.4681,186.1113 172.0881,184.5143 C173.8561,179.9643 173.4151,175.7833 173.6261,172.2073 C174.0181,165.5823 172.9831,162.1873 171.9951,156.6473 L164.5211,156.8203 C164.5211,156.8203 165.1571,159.5733 165.5801,167.8313 C165.7111,170.3863 161.4891,180.6503 161.6871,185.6843 C161.7191,186.5103 162.3971,187.1583 163.2241,187.1583" id="Fill-11" fill="#9452BA"></path>
                <path d="M165.1226,157.3062 C165.3266,158.4982 165.7616,161.5992 166.0796,167.8062 C166.1396,168.9642 165.4466,171.3272 164.5696,174.3182 C163.4586,178.1092 162.0746,182.8282 162.1866,185.6652 C162.2086,186.2222 162.6646,186.6582 163.2246,186.6582 L168.2026,186.6582 C169.7076,186.6582 171.0826,185.7242 171.6226,184.3332 C172.9496,180.9172 173.0026,177.6522 173.0496,174.7702 C173.0636,173.8752 173.0786,173.0102 173.1276,172.1782 C173.4426,166.8352 172.8266,163.6512 172.0466,159.6192 C171.8936,158.8342 171.7366,158.0212 171.5796,157.1572 L165.1226,157.3062 Z M168.2026,187.6582 L163.2246,187.6582 C162.1246,187.6582 161.2296,186.8002 161.1866,185.7042 C161.0686,182.7032 162.4196,178.0992 163.6096,174.0362 C164.3936,171.3672 165.1326,168.8462 165.0816,167.8562 C164.6666,159.7662 164.0396,156.9592 164.0336,156.9312 L163.8966,156.3342 L172.4126,156.1372 L172.4876,156.5592 C172.6696,157.5772 172.8516,158.5222 173.0276,159.4292 C173.8216,163.5302 174.4486,166.7692 174.1256,172.2362 C174.0776,173.0562 174.0636,173.9072 174.0496,174.7862 C174.0006,177.7522 173.9456,181.1132 172.5546,184.6962 C171.8656,186.4682 170.1176,187.6582 168.2026,187.6582 L168.2026,187.6582 Z" id="Fill-13" fill="#52267D"></path>
                <path d="M148.729,163.4893 L142.717,156.6723 L139.005,156.8193 C139.005,156.8193 138.485,162.4903 138.271,164.8653 C137.895,169.0513 136.161,177.2533 135.095,180.8523 C134.749,182.0233 134.547,183.1173 134.491,184.1093 C134.397,185.7793 135.79,187.1583 137.461,187.1583 L141.873,187.1583 C144.442,187.1583 146.726,185.4443 147.358,182.9533 C149.324,175.1993 148.729,163.4893 148.729,163.4893" id="Fill-15" fill="#9452BA"></path>
                <path d="M139.4634,157.3018 C139.3374,158.6758 138.9464,162.9338 138.7694,164.9108 C138.4014,169.0018 136.7054,177.1748 135.5744,180.9948 C135.2414,182.1198 135.0444,183.1768 134.9894,184.1378 C134.9534,184.7788 135.1834,185.3948 135.6344,185.8718 C136.1074,186.3718 136.7734,186.6578 137.4614,186.6578 L141.8724,186.6578 C144.2444,186.6578 146.3014,185.0848 146.8734,182.8308 C148.6684,175.7478 148.2994,165.1668 148.2374,163.6878 L142.4994,157.1808 L139.4634,157.3018 Z M141.8724,187.6578 L137.4614,187.6578 C136.4984,187.6578 135.5674,187.2578 134.9074,186.5588 C134.2654,185.8798 133.9404,184.9998 133.9914,184.0818 C134.0514,183.0438 134.2614,181.9098 134.6154,180.7108 C135.7344,176.9338 137.4104,168.8598 137.7734,164.8208 C137.9864,162.4458 138.5074,156.7738 138.5074,156.7738 L138.5474,156.3368 L142.9354,156.1628 L149.2194,163.2898 L149.2284,163.4638 C149.2344,163.5818 149.8044,175.3388 147.8424,183.0768 C147.1574,185.7738 144.7034,187.6578 141.8724,187.6578 L141.8724,187.6578 Z" id="Fill-17" fill="#52267D"></path>
                <polygon id="Fill-19" fill="#52267D" points="140.2065 170.0601 139.0955 169.0591 140.1935 168.0961 140.3575 168.2831 139.4725 169.0621 140.2595 169.7721 141.6095 169.2531 141.3975 168.7901 140.3155 169.0471 140.5235 169.0371 140.5355 169.2871 140.0775 169.3091 140.0565 168.8511 141.5405 168.4991 141.9475 169.3911"></polygon>
                <path d="M140.312,138.1031 C144.691,138.0131 148.795,134.9981 157.732,134.5851 C157.861,134.0011 158.018,133.4741 158.218,133.0411 C159.835,129.5391 162.118,119.4481 160.652,112.8191 L159.492,107.5731 C159.111,105.8531 158.919,104.0951 158.919,102.3321 C158.919,101.5981 158.994,100.8811 159.135,100.1891 C159.17,100.0161 159.21,99.8441 159.254,99.6741 C159.385,99.1651 159.553,98.6691 159.755,98.1921 C159.823,98.0331 159.893,97.8761 159.968,97.7211 C160.118,97.4111 160.282,97.1091 160.459,96.8171 C160.637,96.5241 160.829,96.2421 161.033,95.9681 C161.645,95.1491 162.373,94.4211 163.192,93.8091 C163.465,93.6051 163.749,93.4141 164.041,93.2361 C165.649,92.2591 167.537,91.6961 169.556,91.6961 L171.3,91.6961 C174.238,91.6961 176.897,92.8861 178.822,94.8111 C179.062,95.0521 179.291,95.3041 179.508,95.5671 C179.902,96.0441 180.252,96.5581 180.559,97.1001 C180.674,97.3031 180.786,97.5101 180.888,97.7211 C180.962,97.8761 181.034,98.0331 181.101,98.1921 C181.302,98.6691 181.471,99.1651 181.602,99.6741 C181.733,100.1841 181.828,100.7081 181.882,101.2451 C181.918,101.6031 181.937,101.9651 181.937,102.3321 C181.937,103.0651 181.64,103.7281 181.16,104.2071 C180.68,104.6871 180.017,104.9841 179.285,104.9841 L168.395,104.9841 L170.043,114.4361 C171.978,124.1461 171.396,130.6401 169.898,134.9691 C169.564,135.9341 167.662,139.3541 167.662,139.3541 C173.107,147.9471 181.458,151.7031 190.386,152.7931 C197.978,153.7201 214.365,146.7971 205.916,138.7901 C197.467,130.7811 207.676,135.7611 209.18,136.7741 C210.683,137.7881 219.373,145.2971 209.941,156.3131 C205.954,160.9721 201.436,165.2071 190.567,168.4531 C188.824,168.9741 179.311,169.6661 174.191,171.1361 C158.946,175.5121 146.551,170.7531 139.606,160.6891 C132.689,150.6661 138.583,138.1381 140.312,138.1031" id="Fill-21" fill="#9452BA"></path>
                <path d="M140.4771,139.0992 C139.9961,139.4752 138.6651,141.5552 137.8801,144.9682 C137.1421,148.1792 136.4931,154.4172 140.4291,160.1212 C147.6281,170.5532 159.8361,174.2192 173.9151,170.1742 C177.1811,169.2372 182.1711,168.6122 185.8151,168.1552 C187.8141,167.9042 189.7041,167.6672 190.2811,167.4952 C201.1651,164.2442 205.4321,160.0432 209.1811,155.6622 C212.2971,152.0232 213.6441,148.4552 213.1841,145.0582 C212.6471,141.1042 209.7081,138.3362 208.6221,137.6032 C207.8301,137.0702 205.5861,135.9902 204.1791,135.5292 C204.6041,136.0562 205.3371,136.8632 206.6041,138.0642 C209.8831,141.1712 209.5551,143.9822 208.7031,145.7922 C206.1841,151.1402 195.7361,154.4512 190.2651,153.7862 C179.7351,152.4992 171.8451,147.8242 166.8171,139.8892 L166.4981,139.3872 L166.7881,138.8682 C167.5061,137.5752 168.7311,135.2842 168.9531,134.6412 C170.6781,129.6572 170.7151,122.9252 169.0631,114.6322 L167.2061,103.9842 L179.2851,103.9842 C179.7261,103.9842 180.1411,103.8122 180.4531,103.5012 C180.7651,103.1882 180.9371,102.7732 180.9371,102.3322 C180.9371,101.9992 180.9201,101.6702 180.8871,101.3462 C180.8381,100.8692 180.7531,100.3902 180.6331,99.9232 C180.5181,99.4722 180.3651,99.0202 180.1791,98.5812 C180.1191,98.4372 180.0541,98.2942 179.9871,98.1532 C179.8951,97.9652 179.7941,97.7782 179.6891,97.5942 C179.4081,97.0952 179.0871,96.6282 178.7371,96.2032 C178.5401,95.9652 178.3321,95.7362 178.1151,95.5182 C176.2941,93.6982 173.8741,92.6962 171.3001,92.6962 L169.5561,92.6962 C167.7891,92.6962 166.0621,93.1782 164.5601,94.0902 C164.2951,94.2512 164.0391,94.4252 163.7901,94.6102 C163.0481,95.1652 162.3901,95.8232 161.8331,96.5672 C161.6491,96.8142 161.4751,97.0712 161.3141,97.3362 C161.1531,97.6012 161.0041,97.8742 160.8691,98.1552 C160.8001,98.2972 160.7371,98.4392 160.6761,98.5822 C160.4931,99.0162 160.3401,99.4672 160.2231,99.9232 C160.1831,100.0782 160.1471,100.2322 160.1161,100.3882 C159.9851,101.0242 159.9191,101.6782 159.9191,102.3322 C159.9191,104.0222 160.1041,105.7122 160.4681,107.3572 L161.6281,112.6032 C163.1441,119.4572 160.8051,129.8252 159.1261,133.4602 C158.9711,133.7942 158.8311,134.2452 158.7081,134.8012 L158.5431,135.5492 L157.7781,135.5842 C152.7491,135.8162 149.2321,136.9112 146.4051,137.7922 C144.2691,138.4572 142.4171,139.0332 140.4771,139.0992 M163.2961,173.7402 C153.1591,173.7412 144.4041,169.4022 138.7831,161.2572 C133.2681,153.2662 135.4421,144.0142 137.5961,139.8072 C138.9661,137.1312 139.9631,137.1102 140.2911,137.1032 C142.0021,137.0682 143.6821,136.5452 145.8101,135.8822 C148.6071,135.0122 152.0551,133.9382 156.9431,133.6272 C157.0531,133.2472 157.1751,132.9142 157.3111,132.6212 C158.8471,129.2942 161.0751,119.3642 159.6751,113.0352 L158.5151,107.7892 C158.1201,106.0032 157.9191,104.1672 157.9191,102.3322 C157.9191,101.5432 157.9981,100.7542 158.1561,99.9892 C158.1941,99.7992 158.2381,99.6112 158.2871,99.4242 C158.4271,98.8732 158.6131,98.3272 158.8341,97.8022 C158.9091,97.6272 158.9861,97.4542 159.0691,97.2842 C159.2311,96.9482 159.4111,96.6182 159.6051,96.2972 C159.7991,95.9782 160.0081,95.6692 160.2311,95.3702 C160.9031,94.4722 161.6981,93.6782 162.5931,93.0082 C162.8921,92.7852 163.2021,92.5762 163.5211,92.3822 C165.3361,91.2792 167.4231,90.6962 169.5561,90.6962 L171.3001,90.6962 C174.4091,90.6962 177.3311,91.9062 179.5291,94.1042 C179.7911,94.3672 180.0421,94.6432 180.2801,94.9302 C180.7041,95.4452 181.0901,96.0092 181.4291,96.6082 C181.5541,96.8282 181.6761,97.0542 181.7881,97.2852 C181.8711,97.4572 181.9491,97.6292 182.0221,97.8032 C182.2461,98.3342 182.4301,98.8792 182.5711,99.4262 C182.7151,99.9892 182.8191,100.5672 182.8771,101.1432 C182.9161,101.5352 182.9371,101.9312 182.9371,102.3322 C182.9371,103.3082 182.5571,104.2252 181.8671,104.9152 C181.1781,105.6042 180.2601,105.9842 179.2851,105.9842 L169.5841,105.9842 L171.0291,114.2652 C172.7471,122.8872 172.6861,129.9712 170.8431,135.2962 C170.5621,136.1062 169.3921,138.2802 168.8271,139.3122 C173.5321,146.4172 180.8231,150.6182 190.5071,151.8002 C195.7141,152.4362 204.9371,149.0962 206.8931,144.9402 C207.7361,143.1502 207.1921,141.3762 205.2291,139.5152 C201.8841,136.3462 201.0431,134.9162 201.8971,133.8522 C203.3811,131.9972 209.6771,135.9042 209.7391,135.9452 C211.3481,137.0302 214.5531,140.2742 215.1651,144.7902 C215.7061,148.7762 214.2041,152.8712 210.7011,156.9632 C206.9081,161.3952 202.2501,166.0072 190.8531,169.4112 C190.1171,169.6312 188.4161,169.8442 186.0631,170.1402 C182.4851,170.5882 177.5831,171.2022 174.4671,172.0972 C170.6231,173.2002 166.8731,173.7402 163.2961,173.7402" id="Fill-23" fill="#52267D"></path>
                <path d="M149.771,123.6324 C150.121,112.3724 141.184,103.5234 131.027,101.6534 C128.918,101.2644 128.233,100.6034 125.926,100.6034 L124.159,100.6034 C118.208,100.6034 113.383,105.4274 113.383,111.3794 C113.383,112.8624 114.586,114.0654 116.069,114.0654 C116.069,114.0654 134.189,114.0604 134.274,114.0524 C134.275,114.0534 135.75,114.0534 135.75,114.0544 C135.749,114.0564 134.272,114.0574 134.27,114.0584 C138.277,115.7594 140.77,120.8804 141.21,123.6324 C141.836,127.5504 141.377,130.7824 140.041,133.3964 C139.15,135.1384 139.049,137.2364 139.187,138.9344 C139.187,138.9344 139.23,138.9494 139.29,138.9704 C139.353,139.8784 139.5,140.9114 139.77,142.0904 C141.477,140.9014 144.13,139.1114 144.615,138.8564 C145.662,138.3034 148.026,137.0454 149.084,136.4394 C155.842,132.5644 149.573,130.0364 149.771,123.6324" id="Fill-25" fill="#9452BA"></path>
                <path d="M139.6626,138.5699 L139.7656,138.6049 L139.7886,138.9359 C139.8396,139.6669 139.9446,140.4429 140.1026,141.2509 C141.7386,140.1229 143.9166,138.6589 144.3816,138.4139 C144.7076,138.2409 147.6086,136.7089 148.8346,136.0059 C152.6576,133.8139 151.9976,132.3509 150.7986,129.6959 C150.0836,128.1119 149.1926,126.1409 149.2706,123.6169 C149.6346,111.9299 140.0956,103.8309 130.9356,102.1449 C130.1026,101.9909 129.4746,101.7939 128.9186,101.6189 C128.0376,101.3419 127.2776,101.1029 125.9256,101.1029 L124.1596,101.1029 C118.4926,101.1029 113.8826,105.7129 113.8826,111.3799 C113.8826,112.5849 114.8636,113.5659 116.0696,113.5659 C122.2386,113.5639 133.9796,113.5589 134.2586,113.5529 L135.0126,113.5539 C135.2736,113.5539 135.4556,113.5539 135.5846,113.5549 C135.6646,113.5549 135.7196,113.5549 135.7356,113.5549 L135.7356,113.5589 C135.8906,113.5649 135.9156,113.5779 135.9746,113.6069 L136.5946,113.9169 L136.1036,114.4079 C136.0786,114.4329 136.0586,114.4539 136.0356,114.4709 C139.2606,116.7049 141.2916,120.9729 141.7046,123.5529 C142.3256,127.4409 141.9156,130.8289 140.4856,133.6239 C139.6736,135.2139 139.5776,137.1349 139.6626,138.5699 L139.6626,138.5699 Z M139.4476,142.9239 L139.2826,142.2009 C139.0546,141.2019 138.8976,140.2389 138.8166,139.3349 L138.7156,139.2989 L138.6886,138.9749 C138.5596,137.3869 138.6126,135.0909 139.5956,133.1689 C140.9266,130.5669 141.3036,127.3849 140.7166,123.7119 C140.2616,120.8659 137.7306,116.1249 134.1526,114.5529 C133.5396,114.5559 130.5926,114.5619 116.0696,114.5659 C114.3126,114.5659 112.8826,113.1359 112.8826,111.3799 C112.8826,105.1619 117.9416,100.1029 124.1596,100.1029 L125.9256,100.1029 C127.4316,100.1029 128.2996,100.3759 129.2186,100.6649 C129.7716,100.8389 130.3446,101.0189 131.1176,101.1609 C140.6856,102.9229 150.6506,111.4029 150.2706,123.6479 C150.1996,125.9409 151.0026,127.7169 151.7106,129.2849 C152.9086,131.9379 153.9426,134.2299 149.3326,136.8729 C148.0916,137.5849 145.1766,139.1249 144.8486,139.2989 C144.4136,139.5279 141.8496,141.2509 140.0566,142.4999 L139.4476,142.9239 Z" id="Fill-27" fill="#52267D"></path>
                <path d="M144.0005,136.6427 C143.9115,134.9037 143.6465,134.0107 143.8405,133.3037 C144.9635,129.2297 145.3285,127.9447 145.3285,123.6327 C145.3285,119.3467 142.8465,115.1117 139.1805,112.8587 C138.9795,112.7357 136.3415,112.5497 134.2705,114.0587 C138.2765,115.7597 140.7705,120.8807 141.2105,123.6327 C141.8365,127.5507 141.3775,130.7837 140.0415,133.3967 C139.1505,135.1387 139.0495,137.2357 139.1875,138.9347 C139.1875,138.9347 144.1035,140.7807 144.0005,136.6427" id="Fill-29" fill="#F3E3FF"></path>
                <path d="M139.4243,138.7511 C139.9703,138.9271 141.8803,139.4601 142.9643,138.6901 C143.5093,138.3021 143.7743,137.6161 143.7503,136.6521 C143.7173,136.0001 143.6593,135.4771 143.6093,135.0161 C143.5263,134.2651 143.4663,133.7211 143.5993,133.2371 L143.6293,133.1281 C144.7133,129.1961 145.0783,127.8721 145.0783,123.6321 C145.0783,119.4681 142.7123,115.3231 139.0493,113.0721 C138.7873,112.9781 136.6203,112.8841 134.7793,114.0181 C138.5873,115.8961 141.0053,120.7711 141.4573,123.5931 C142.0703,127.4271 141.6683,130.7631 140.2643,133.5101 C139.3933,135.2131 139.3203,137.2701 139.4243,138.7511 M141.4193,139.5961 C140.2573,139.5961 139.1683,139.1951 139.0993,139.1681 L138.9503,139.1131 L138.9383,138.9551 C138.8123,137.4001 138.8623,135.1531 139.8193,133.2831 C141.1743,130.6321 141.5593,127.3981 140.9633,123.6721 C140.5133,120.8591 138.0433,115.9331 134.1723,114.2891 L133.7663,114.1161 L134.1223,113.8561 C136.2563,112.3011 138.9983,112.4541 139.3113,112.6461 C143.1183,114.9861 145.5783,119.2981 145.5783,123.6321 C145.5783,127.9391 145.2083,129.2811 144.1113,133.2611 L144.0813,133.3701 C143.9743,133.7621 144.0263,134.2391 144.1063,134.9611 C144.1543,135.4071 144.2163,135.9611 144.2503,136.6301 L144.2503,136.6361 C144.2783,137.7791 143.9433,138.6071 143.2533,139.0981 C142.7263,139.4731 142.0613,139.5961 141.4193,139.5961" id="Fill-31" fill="#52267D"></path>
                <path d="M118.5044,102.4342 C118.5044,102.4342 118.5004,100.5522 120.3704,99.8042 C120.9414,99.5762 121.9834,99.1522 121.9834,99.1522 C121.9834,99.1522 123.0964,101.5072 121.8354,102.1012 C120.0184,102.9562 118.5044,102.4342 118.5044,102.4342" id="Fill-33" fill="#FFFFFF"></path>
                <path d="M118.7681,102.2452 C119.2061,102.3432 120.3861,102.5062 121.7281,101.8752 C121.9151,101.7872 122.0411,101.6462 122.1141,101.4442 C122.3181,100.8762 122.0471,99.9692 121.8511,99.4752 C121.5111,99.6142 120.8691,99.8742 120.4631,100.0362 C119.0951,100.5842 118.8221,101.7792 118.7681,102.2452 M119.6771,102.8442 C118.9401,102.8442 118.4591,102.6822 118.4231,102.6702 L118.2551,102.6122 L118.2541,102.4342 C118.2541,102.4142 118.2731,100.3742 120.2781,99.5722 C120.8481,99.3442 121.8891,98.9202 121.8891,98.9202 L122.1081,98.8312 L122.2091,99.0452 C122.2391,99.1092 122.9421,100.6162 122.5841,101.6132 C122.4671,101.9422 122.2501,102.1822 121.9411,102.3282 C121.0831,102.7312 120.2911,102.8442 119.6771,102.8442" id="Fill-35" fill="#52267D"></path>
                <path d="M123.186,101.1109 C123.186,101.1109 123.239,98.5469 126.124,98.1729 C126.662,98.1029 128.066,98.1369 128.066,98.1369 C128.066,98.1369 128.713,100.8499 127.193,101.1109 C125.323,101.4309 123.186,101.1109 123.186,101.1109" id="Fill-37" fill="#FFFFFF"></path>
                <path d="M123.4575,100.8936 C124.0575,100.9636 125.6985,101.1136 127.1505,100.8646 C127.3875,100.8236 127.5655,100.7076 127.6955,100.5106 C128.0565,99.9646 127.9605,98.9206 127.8615,98.3826 C127.4605,98.3776 126.5515,98.3696 126.1555,98.4206 C123.9825,98.7026 123.5455,100.2956 123.4575,100.8936 M125.3155,101.5046 C124.1435,101.5046 123.2075,101.3666 123.1485,101.3576 L122.9315,101.3256 L122.9365,101.1056 C122.9365,101.0776 123.0295,98.3216 126.0915,97.9246 C126.6425,97.8536 128.0145,97.8856 128.0715,97.8866 L128.2645,97.8916 L128.3095,98.0786 C128.3265,98.1506 128.7245,99.8596 128.1125,100.7866 C127.9055,101.1016 127.6095,101.2926 127.2345,101.3576 C126.5915,101.4676 125.9225,101.5046 125.3155,101.5046" id="Fill-39" fill="#52267D"></path>
                <path d="M128.9224,101.356 C128.9224,101.356 129.3024,98.513 131.8574,99.294 C132.9484,99.628 133.5544,100.457 133.5544,100.457 C133.5544,100.457 133.0454,102.623 132.0294,102.379 C130.2554,101.955 128.9224,101.356 128.9224,101.356" id="Fill-41" fill="#FFFFFF"></path>
                <path d="M129.2065,101.2052 C129.6265,101.3792 130.7315,101.8112 132.0885,102.1362 C132.2055,102.1642 132.3105,102.1442 132.4235,102.0762 C132.8525,101.8102 133.1625,100.9492 133.2805,100.5182 C133.0985,100.3082 132.5755,99.7752 131.7835,99.5332 C131.1385,99.3342 130.5905,99.3732 130.1595,99.6482 C129.5385,100.0462 129.2895,100.8452 129.2065,101.2052 M132.1885,102.6492 C132.1175,102.6492 132.0445,102.6402 131.9715,102.6222 C130.1945,102.1972 128.8755,101.6092 128.8195,101.5842 L128.6495,101.5082 L128.6745,101.3232 C128.6825,101.2642 128.8785,99.8772 129.8885,99.2292 C130.4465,98.8692 131.1355,98.8122 131.9305,99.0552 C133.0885,99.4092 133.7285,100.2732 133.7565,100.3092 L133.8235,100.4022 L133.7975,100.5142 C133.7615,100.6702 133.4185,102.0492 132.6855,102.5012 C132.5255,102.6002 132.3595,102.6492 132.1885,102.6492" id="Fill-43" fill="#52267D"></path>
                <path d="M136.3413,115.1617 C136.3413,115.1617 142.2963,111.9237 141.1633,106.4757 C141.9543,107.1267 144.0693,109.1137 144.8353,110.1307 C144.8353,111.1967 145.0303,115.4327 139.1823,118.2687 C138.1533,117.2027 137.2873,115.8717 136.3413,115.1617" id="Fill-45" fill="#FFFFFF"></path>
                <path d="M136.7739,115.1925 C137.2679,115.6265 137.7379,116.1945 138.2289,116.7915 C138.5529,117.1845 138.8869,117.5895 139.2369,117.9635 C142.8029,116.1835 144.6019,113.5835 144.5859,110.2325 L144.5859,110.2155 C143.9489,109.3995 142.4709,107.9635 141.5169,107.1105 C141.9939,111.5465 137.9499,114.4485 136.7739,115.1925 L136.7739,115.1925 Z M139.1279,118.5735 L139.0029,118.4425 C138.5929,118.0185 138.2119,117.5565 137.8439,117.1095 C137.2779,116.4235 136.7439,115.7765 136.1909,115.3615 L135.8799,115.1285 L136.2219,114.9425 C136.2799,114.9105 141.9999,111.7265 140.9189,106.5265 L140.7739,105.8315 L141.3229,106.2825 C142.1599,106.9725 144.2569,108.9485 145.0349,109.9805 L145.0859,110.0465 L145.0859,110.2295 C145.1029,113.8405 143.1539,116.6215 139.2919,118.4945 L139.1279,118.5735 Z" id="Fill-47" fill="#52267D"></path>
                <path d="M119.0557,102.1329 C119.0557,102.1329 119.0537,101.0349 120.1447,100.5979 C120.4777,100.4649 121.0857,100.2169 121.0857,100.2169 C121.0857,100.2169 121.7357,101.5919 120.9997,101.9389 C119.9397,102.4379 119.0557,102.1329 119.0557,102.1329" id="Fill-49" fill="#F3E3FF"></path>
                <path d="M124.0376,100.7564 C124.0376,100.7564 124.0686,99.2554 125.7586,99.0354 C126.0736,98.9954 126.8946,99.0144 126.8946,99.0144 C126.8946,99.0144 127.2746,100.6034 126.3836,100.7564 C125.2886,100.9434 124.0376,100.7564 124.0376,100.7564" id="Fill-51" fill="#F3E3FF"></path>
                <path d="M129.5522,101.2706 C129.5522,101.2706 129.7772,99.5886 131.2882,100.0506 C131.9342,100.2486 132.2922,100.7386 132.2922,100.7386 C132.2922,100.7386 131.9912,102.0206 131.3902,101.8756 C130.3412,101.6246 129.5522,101.2706 129.5522,101.2706" id="Fill-53" fill="#F3E3FF"></path>
                <path d="M129.5103,112.2618 L122.8643,112.2618 L122.8643,109.3968 C122.8643,108.2368 123.8043,107.2958 124.9653,107.2958 L129.5103,107.2958 C130.2183,107.2958 130.7923,107.8698 130.7923,108.5778 L130.7923,110.9798 C130.7923,111.6878 130.2183,112.2618 129.5103,112.2618" id="Fill-55" fill="#F3E3FF"></path>
                <path d="M128.7944,112.1685 L122.9574,112.1685 L122.9574,110.2815 C122.9574,109.1685 123.8594,108.2665 124.9724,108.2665 L128.7944,108.2665 C129.3504,108.2665 129.8014,108.7175 129.8014,109.2745 L129.8014,111.1615 C129.8014,111.7175 129.3504,112.1685 128.7944,112.1685" id="Fill-57" fill="#FFFFFF"></path>
                <path d="M123.2075,111.9185 L128.7945,111.9185 C129.2115,111.9185 129.5515,111.5785 129.5515,111.1615 L129.5515,109.2745 C129.5515,108.8565 129.2115,108.5165 128.7945,108.5165 L124.9725,108.5165 C123.9995,108.5165 123.2075,109.3085 123.2075,110.2815 L123.2075,111.9185 Z M128.7945,112.4185 L122.7075,112.4185 L122.7075,110.2815 C122.7075,109.0325 123.7235,108.0165 124.9725,108.0165 L128.7945,108.0165 C129.4875,108.0165 130.0515,108.5815 130.0515,109.2745 L130.0515,111.1615 C130.0515,111.8545 129.4875,112.4185 128.7945,112.4185 L128.7945,112.4185 Z" id="Fill-59" fill="#52267D"></path>
                <path d="M123.8438,110.1651 C123.8438,110.7671 124.3318,111.2551 124.9338,111.2551 C125.5348,111.2551 126.0228,110.7671 126.0228,110.1651 C126.0228,109.5631 125.5348,109.0761 124.9338,109.0761 C124.3318,109.0761 123.8438,109.5631 123.8438,110.1651" id="Fill-61" fill="#52267D"></path>
                <path d="M115.8203,113.2472 L115.8203,113.2472 C116.1303,113.1812 116.4063,113.0092 116.6043,112.7612 L116.9693,112.3022 L116.1553,112.4762 L115.6763,112.5792 C115.4923,112.6182 115.3753,112.8002 115.4143,112.9852 C115.4543,113.1692 115.6353,113.2872 115.8203,113.2472" id="Fill-63" fill="#52267D"></path>
                <path d="M137.3472,115.2691 C137.3472,115.2691 141.9352,112.7991 141.8652,107.8231 C143.8362,109.2591 144.3692,110.1871 144.3692,110.1871 C144.3692,110.1871 144.0272,112.5561 142.9232,113.7521 C141.2292,115.5871 139.4642,116.1511 137.3472,115.2691" id="Fill-65" fill="#EAF3FB"></path>
                <path d="M141.6899,114.3956 C141.6899,114.3956 139.8809,116.2356 138.1169,117.1186" id="Fill-67" fill="#FFFFFF"></path>
                <path d="M138.228,117.3419 L138.005,116.8949 C139.712,116.0409 141.494,114.2379 141.511,114.2199 L141.869,114.5709 C141.793,114.6469 140.01,116.4509 138.228,117.3419" id="Fill-69" fill="#52267D"></path>
                <path d="M159.6812,133.7433 L158.6602,131.7263 C154.8422,122.3453 154.2532,116.8363 156.2342,107.8823 L157.3932,102.6373 C157.7742,100.9163 157.9662,99.1593 157.9662,97.3963 C157.9662,91.5213 153.2032,86.7593 147.3292,86.7593 L145.6122,86.7593 C139.8182,86.7593 135.1202,91.4563 135.1202,97.2503 L135.1202,97.5523 C135.1202,98.9303 136.2382,100.0483 137.6172,100.0483 L148.4902,100.0483 L146.8422,109.5003 C141.7952,134.8303 142.3012,145.1003 152.2322,142.9903" id="Fill-71" fill="#9452BA"></path>
                <path d="M149.9058,143.7594 C148.1588,143.7594 146.7768,143.2414 145.7188,142.1974 C142.1708,138.6934 142.3478,129.4984 146.3518,109.4024 L147.8948,100.5484 L137.6168,100.5484 C135.9648,100.5484 134.6208,99.2034 134.6208,97.5514 L134.6208,97.2504 C134.6208,91.1904 139.5518,86.2594 145.6118,86.2594 L147.3298,86.2594 C153.4698,86.2594 158.4668,91.2554 158.4668,97.3964 C158.4668,99.1914 158.2688,100.9904 157.8818,102.7444 L156.7218,107.9904 C154.7838,116.7524 155.3448,122.2544 159.1228,131.5384 L160.1278,133.5174 L159.2348,133.9694 L158.2138,131.9524 C154.3288,122.4094 153.7568,116.7694 155.7458,107.7744 L156.9048,102.5294 C157.2778,100.8454 157.4668,99.1184 157.4668,97.3964 C157.4668,91.8064 152.9198,87.2594 147.3298,87.2594 L145.6118,87.2594 C140.1028,87.2594 135.6208,91.7414 135.6208,97.2504 L135.6208,97.5514 C135.6208,98.6524 136.5158,99.5484 137.6168,99.5484 L149.0848,99.5484 L147.3348,109.5864 C143.4558,129.0574 143.1918,138.2964 146.4218,141.4854 C147.6728,142.7194 149.5388,143.0514 152.1288,142.5004 L152.3358,143.4794 C151.4578,143.6654 150.6478,143.7594 149.9058,143.7594" id="Fill-73" fill="#52267D"></path>
                <path d="M140.3628,88.0182 C140.3628,88.0182 140.5378,86.1742 142.3698,85.4412 C142.9278,85.2182 143.8038,85.4562 143.8038,85.4562 C143.8038,85.4562 144.8618,87.1102 143.6258,87.6922 C141.8458,88.5292 140.3628,88.0182 140.3628,88.0182" id="Fill-75" fill="#FFFFFF"></path>
                <path d="M140.647,87.8336 C141.097,87.9306 142.231,88.0726 143.519,87.4656 C143.745,87.3596 143.882,87.2096 143.942,87.0056 C144.069,86.5666 143.803,85.9586 143.643,85.6746 C143.364,85.6126 142.808,85.5356 142.462,85.6736 C141.132,86.2056 140.751,87.3586 140.647,87.8336 M141.51,88.4246 C140.789,88.4246 140.317,88.2666 140.282,88.2546 L140.095,88.1906 L140.114,87.9946 C140.122,87.9136 140.326,85.9896 142.277,85.2096 C142.905,84.9586 143.832,85.2036 143.87,85.2146 L143.962,85.2406 L144.015,85.3216 C144.042,85.3626 144.655,86.3366 144.422,87.1436 C144.323,87.4886 144.09,87.7496 143.732,87.9176 C142.89,88.3146 142.114,88.4246 141.51,88.4246" id="Fill-77" fill="#52267D"></path>
                <path d="M144.7241,87.4098 C144.7241,87.4098 144.7851,84.5058 148.0521,84.0818 C148.6621,84.0028 149.4441,84.0638 149.4441,84.0638 C149.4441,84.0638 150.9851,87.1148 149.2621,87.4098 C147.1451,87.7728 144.7241,87.4098 144.7241,87.4098" id="Fill-79" fill="#FFFFFF"></path>
                <path d="M144.9946,87.193 C145.6446,87.271 147.5426,87.453 149.2206,87.163 C149.4696,87.121 149.6306,87.012 149.7256,86.823 C150.0406,86.198 149.5586,84.897 149.2826,84.304 C149.0356,84.291 148.5106,84.274 148.0846,84.33 C145.5566,84.658 145.0826,86.536 144.9946,87.193 M147.1376,87.822 C145.8116,87.822 144.7536,87.667 144.6866,87.657 L144.4696,87.625 L144.4736,87.404 C144.4746,87.373 144.5786,84.28 148.0196,83.834 C148.6476,83.755 149.4316,83.812 149.4636,83.815 L149.6036,83.825 L149.6666,83.951 C149.7726,84.16 150.6856,86.028 150.1726,87.048 C150.0066,87.377 149.7066,87.587 149.3046,87.656 C148.5776,87.781 147.8216,87.822 147.1376,87.822" id="Fill-81" fill="#52267D"></path>
                <path d="M150.5698,88.0704 C150.5698,88.0704 151.0128,85.2954 153.4958,86.1244 C154.5558,86.4784 155.1288,87.3054 155.1288,87.3054 C155.1288,87.3054 154.5768,89.4144 153.5878,89.1504 C151.8598,88.6894 150.5698,88.0704 150.5698,88.0704" id="Fill-83" fill="#FFFFFF"></path>
                <path d="M150.8569,87.9268 C151.2659,88.1088 152.3359,88.5578 153.6519,88.9078 C153.7619,88.9378 153.8669,88.9218 153.9779,88.8578 C154.4039,88.6108 154.7269,87.7788 154.8529,87.3588 C154.6789,87.1478 154.1819,86.6168 153.4169,86.3618 C152.7879,86.1508 152.2519,86.1768 151.8259,86.4348 C151.2089,86.8088 150.9479,87.5748 150.8569,87.9268 M153.7589,89.4238 C153.6809,89.4238 153.6019,89.4128 153.5229,89.3918 C151.7929,88.9298 150.5149,88.3218 150.4609,88.2958 L150.2939,88.2148 L150.3229,88.0308 C150.3329,87.9738 150.5589,86.6178 151.5659,86.0068 C152.1249,85.6688 152.8009,85.6278 153.5749,85.8868 C154.7019,86.2628 155.3089,87.1268 155.3349,87.1638 L155.3989,87.2578 L155.3709,87.3688 C155.3309,87.5208 154.9609,88.8638 154.2289,89.2898 C154.0769,89.3788 153.9199,89.4238 153.7589,89.4238" id="Fill-85" fill="#52267D"></path>
                <path d="M140.5405,137.7672 C141.1595,137.3032 141.7875,137.0352 142.3275,136.9062" id="Fill-87" fill="#F3E3FF"></path>
                <path d="M140.6909,137.9674 L140.3899,137.5674 C141.1279,137.0144 141.8189,136.7704 142.2699,136.6624 L142.3849,137.1494 C141.9809,137.2454 141.3589,137.4664 140.6909,137.9674" id="Fill-89" fill="#52267D"></path>
                <path d="M144.1411,137.7101 C142.3641,130.4881 145.5701,116.6801 146.1591,113.2821 L148.4931,99.6671 L149.5171,99.6671 C150.8131,99.6671 151.7941,101.0751 151.6101,102.3611 L149.9181,114.1701 C149.3461,118.1691 148.7501,136.6851 155.6991,140.6621 C157.1811,141.5101 159.5901,140.9541 160.4981,140.5211 C163.8011,138.9431 164.7501,134.8251 165.4741,131.5061 C166.9721,124.6361 165.8051,119.2431 165.4731,113.8581 L165.1251,107.1221 C165.0631,105.9041 166.0311,104.6111 167.2481,104.6111 L168.4901,104.6111 L170.7261,118.2271 C171.3981,122.1041 173.1291,135.5491 165.2061,141.8521 C165.0631,141.9661 167.1331,142.4291 166.5331,143.4901 C164.1501,147.7021 157.2451,148.3681 155.9461,150.1711 C150.9381,157.1161 155.6281,171.9121 155.6281,171.9121 C155.6281,171.9121 150.0711,169.6941 146.6281,166.6091 C138.5821,159.3971 137.5611,148.9511 137.5241,145.8761 C137.4791,142.1971 138.4451,139.9151 139.6351,138.5531" id="Fill-91" fill="#F3E3FF"></path>
                <path d="M156.0259,172.3399 L155.5359,172.1449 C155.4799,172.1219 149.8969,169.8749 146.4619,166.7959 C137.6819,158.9259 137.2899,147.1919 137.2739,145.8789 C137.2349,142.6509 137.9859,140.0599 139.4469,138.3879 L139.8239,138.7169 C138.4449,140.2949 137.7359,142.7699 137.7739,145.8729 C137.7899,147.1629 138.1749,158.6959 146.7959,166.4229 C149.5769,168.9159 153.8119,170.8609 155.2359,171.4759 C154.4449,168.7619 151.1879,156.3419 155.7429,150.0249 C156.2879,149.2699 157.6079,148.7489 159.2789,148.0899 C161.7809,147.1039 164.8949,145.8769 166.3149,143.3669 C166.4169,143.1889 166.3969,143.0739 166.3749,143.0029 C166.2649,142.6639 165.6829,142.3959 165.3709,142.2519 C165.1049,142.1289 164.9719,142.0679 164.9519,141.8969 L164.9339,141.7579 L165.0509,141.6559 C167.0049,140.1009 173.1739,133.8189 170.4799,118.2689 L168.2779,104.8609 L167.2489,104.8609 C166.8059,104.8609 166.3689,105.0659 166.0159,105.4369 C165.5899,105.8839 165.3449,106.5249 165.3759,107.1089 L165.7229,113.8459 C165.7979,115.0719 165.9159,116.2769 166.0399,117.5519 C166.4539,121.8159 166.8809,126.2239 165.7179,131.5589 C165.0259,134.7359 164.0769,139.0889 160.6059,140.7459 C159.7069,141.1749 157.1879,141.8039 155.5749,140.8789 C151.7809,138.7069 150.3069,132.3789 149.7399,127.4529 C149.0749,121.6759 149.4059,115.9859 149.6719,114.1349 L151.3629,102.3249 C151.4489,101.7219 151.2409,101.0449 150.8189,100.5579 C150.4609,100.1439 149.9989,99.9169 149.5169,99.9169 L148.7039,99.9169 L146.4049,113.3239 C146.3259,113.7839 146.1979,114.4339 146.0419,115.2319 C145.0079,120.4979 142.8599,131.4559 144.3839,137.6509 L143.8979,137.7699 C142.3469,131.4679 144.5109,120.4369 145.5509,115.1349 C145.7069,114.3419 145.8339,113.6959 145.9129,113.2389 L148.2819,99.4169 L149.5169,99.4169 C150.1449,99.4169 150.7419,99.7059 151.1969,100.2309 C151.7179,100.8329 151.9649,101.6419 151.8569,102.3969 L150.1659,114.2059 C149.4949,118.8939 149.2079,136.6579 155.8229,140.4449 C157.1889,141.2259 159.4709,140.7329 160.3909,140.2949 C163.6399,138.7429 164.5589,134.5289 165.2299,131.4529 C166.3769,126.1939 165.9519,121.8259 165.5419,117.6009 C165.4179,116.3199 165.2999,115.1109 165.2229,113.8739 L164.8759,107.1339 C164.8389,106.4069 165.1299,105.6439 165.6539,105.0919 C166.1009,104.6209 166.6679,104.3609 167.2489,104.3609 L168.7019,104.3609 L168.7369,104.5709 L170.9729,118.1859 C171.3449,120.3349 171.9009,124.6209 171.4379,129.1549 C170.8589,134.8189 168.9079,139.0789 165.6359,141.8229 C166.0489,142.0149 166.6819,142.3259 166.8499,142.8489 C166.9299,143.0969 166.8969,143.3549 166.7509,143.6129 C165.2429,146.2769 162.0379,147.5409 159.4629,148.5559 C157.9299,149.1589 156.6069,149.6809 156.1489,150.3169 C151.2709,157.0819 155.8199,171.6899 155.8669,171.8369 L156.0259,172.3399 Z" id="Fill-93" fill="#52267D"></path>
                <path d="M209.4546,143.734 C209.4546,143.734 210.5986,142.468 209.9556,140.768 C209.7596,140.249 209.0536,139.803 209.0536,139.803 C209.0536,139.803 207.2706,140.114 207.6446,141.316 C208.1836,143.046 209.4546,143.734 209.4546,143.734" id="Fill-95" fill="#FFFFFF"></path>
                <path d="M208.9487,140.3414 C208.6697,140.4224 208.2827,140.5864 208.1447,140.8154 C208.1037,140.8814 208.0647,140.9824 208.1227,141.1674 C208.4227,142.1294 208.9677,142.7234 209.3307,143.0314 C209.5647,142.6074 209.8307,141.8514 209.4877,140.9454 C209.4097,140.7384 209.1497,140.4974 208.9487,140.3414 L208.9487,140.3414 Z M209.5617,144.3614 L209.2167,144.1734 C209.1567,144.1414 207.7607,143.3664 207.1677,141.4644 C207.0367,141.0444 207.0797,140.6394 207.2917,140.2924 C207.7507,139.5424 208.8447,139.3314 208.9677,139.3104 L209.1577,139.2774 L209.3207,139.3804 C209.4067,139.4354 210.1757,139.9344 210.4237,140.5914 C211.1657,142.5534 209.8807,144.0084 209.8257,144.0694 L209.5617,144.3614 Z" id="Fill-97" fill="#52267D"></path>
                <path d="M209.0767,141.9747 C209.0767,141.9747 209.4777,141.5307 209.2527,140.9347 C209.1837,140.7527 208.9357,140.5957 208.9357,140.5957 C208.9357,140.5957 208.3107,140.7047 208.4417,141.1267 C208.6317,141.7327 209.0767,141.9747 209.0767,141.9747" id="Fill-99" fill="#F3E3FF"></path>
                <path d="M200.0942,152.8018 C200.0942,152.8018 199.0092,150.3248 201.6032,148.6888 C202.0862,148.3838 202.7712,148.1278 202.7712,148.1278 C202.7712,148.1278 205.2672,150.1018 203.9272,151.0258 C202.2812,152.1608 200.0942,152.8018 200.0942,152.8018" id="Fill-101" fill="#FFFFFF"></path>
                <path d="M202.6792,148.7042 C202.4532,148.8002 202.1252,148.9502 201.8692,149.1112 C200.2542,150.1312 200.2792,151.4842 200.4222,152.1682 C201.1362,151.9212 202.5312,151.3812 203.6432,150.6142 C203.7962,150.5092 203.8202,150.4202 203.8232,150.3402 C203.8362,149.9072 203.2102,149.1762 202.6792,148.7042 L202.6792,148.7042 Z M199.8132,153.4052 L199.6362,153.0022 C199.2012,152.0102 198.9962,149.7422 201.3362,148.2662 C201.8572,147.9362 202.5662,147.6702 202.5962,147.6602 L202.8602,147.5612 L203.0812,147.7362 C203.3782,147.9712 204.8602,149.2042 204.8222,150.3722 C204.8122,150.6732 204.6982,151.1012 204.2112,151.4372 C202.5182,152.6052 200.3272,153.2542 200.2352,153.2822 L199.8132,153.4052 Z" id="Fill-103" fill="#52267D"></path>
                <path d="M200.9985,151.8702 C200.9985,151.8702 200.3955,150.4962 201.8345,149.5892 C202.1025,149.4202 202.4825,149.2782 202.4825,149.2782 C202.4825,149.2782 203.8665,150.3732 203.1235,150.8852 C202.2105,151.5152 200.9985,151.8702 200.9985,151.8702" id="Fill-105" fill="#F3E3FF"></path>
                <path d="M208.0132,144.69 C208.0132,144.69 209.8932,146.342 208.0892,147.818 C207.3192,148.448 206.4242,148.487 206.4242,148.487 C206.4242,148.487 205.0982,147.07 205.7662,146.45 C206.9342,145.368 208.0132,144.69 208.0132,144.69" id="Fill-107" fill="#FFFFFF"></path>
                <path d="M207.937,145.3434 C207.537,145.6224 206.836,146.1394 206.106,146.8174 C206.074,147.1464 206.36,147.6224 206.625,147.9554 C206.894,147.9034 207.359,147.7694 207.773,147.4304 C208.169,147.1064 208.365,146.7714 208.372,146.4074 C208.379,145.9874 208.136,145.5944 207.937,145.3434 L207.937,145.3434 Z M206.216,148.9964 L206.059,148.8284 C205.89,148.6484 205.049,147.7044 205.079,146.8574 C205.089,146.5514 205.209,146.2844 205.426,146.0834 C206.615,144.9824 207.702,144.2954 207.748,144.2664 L208.063,144.0684 L208.343,144.3144 C208.386,144.3524 209.392,145.2494 209.372,146.4254 C209.36,147.0914 209.035,147.6904 208.406,148.2044 C207.517,148.9324 206.489,148.9844 206.446,148.9864 L206.216,148.9964 Z" id="Fill-109" fill="#52267D"></path>
                <path d="M207.7388,145.8604 C207.7388,145.8604 208.5718,146.5914 207.7728,147.2454 C207.4318,147.5254 207.0358,147.5424 207.0358,147.5424 C207.0358,147.5424 206.4478,146.9144 206.7448,146.6404 C207.2608,146.1604 207.7388,145.8604 207.7388,145.8604" id="Fill-111" fill="#F3E3FF"></path>
                <path d="M191.0728,154.1046 C191.0728,154.1046 190.4528,151.8996 192.8798,151.0246 C195.3058,150.1496 195.9578,150.8776 195.9578,150.8776 C195.9578,150.8776 197.3008,153.1366 196.1008,153.8636 C194.9008,154.5906 191.0728,154.1046 191.0728,154.1046" id="Fill-113" fill="#FFFFFF"></path>
                <path d="M191.5024,153.651 C192.9484,153.802 195.1404,153.862 195.8424,153.436 C196.4464,153.069 195.8404,151.699 195.5734,151.214 C195.4194,151.131 194.7504,150.88 193.0494,151.495 C191.5754,152.026 191.4564,153.102 191.5024,153.651 M193.5794,154.765 C192.3664,154.765 191.2294,154.629 191.0094,154.601 L190.6814,154.559 L190.5914,154.24 C190.3334,153.322 190.4434,151.372 192.7094,150.555 C195.3214,149.613 196.1844,150.38 196.3304,150.544 C196.9804,151.619 197.6414,153.515 196.3594,154.292 C195.7494,154.661 194.6364,154.765 193.5794,154.765" id="Fill-115" fill="#52267D"></path>
                <path d="M192.2114,153.6036 C192.2114,153.6036 191.8894,152.4576 193.1504,152.0016 C194.4124,151.5466 194.7524,151.9256 194.7524,151.9256 C194.7524,151.9256 195.4494,153.1006 194.8264,153.4786 C194.2024,153.8566 192.2114,153.6036 192.2114,153.6036" id="Fill-117" fill="#F3E3FF"></path>
                <path d="M147.9634,102.9869 C147.9634,102.9869 151.8374,105.1769 157.2824,103.1999 C156.9084,104.8889 156.1474,108.2839 156.1474,108.2839 C156.1474,108.2839 151.1024,109.8299 147.2114,107.3819 C147.6094,105.1409 147.9634,102.9869 147.9634,102.9869" id="Fill-119" fill="#FFFFFF"></path>
                <path d="M147.4878,107.2579 C150.8588,109.2779 155.1198,108.2989 155.9358,108.0829 C156.0718,107.4769 156.5998,105.1189 156.9418,103.5829 C152.4848,105.0509 149.1648,103.8259 148.1548,103.3619 C148.0448,104.0289 147.7798,105.6059 147.4878,107.2579 M152.5098,109.0239 C150.8418,109.0239 148.8538,108.7109 147.0788,107.5929 L146.9358,107.5039 L146.9658,107.3379 C147.3638,105.0989 147.7168,102.9469 147.7168,102.9459 L147.7748,102.5939 L148.0868,102.7689 C148.1238,102.7909 151.9318,104.8779 157.1978,102.9649 L157.6258,102.8099 L157.5268,103.2539 C157.1528,104.9439 156.3908,108.3389 156.3908,108.3389 L156.3588,108.4799 L156.2198,108.5229 C156.1048,108.5579 154.5458,109.0239 152.5098,109.0239" id="Fill-121" fill="#52267D"></path>
                <path d="M176.9429,93.1456 C176.9429,93.1456 176.7669,91.2886 174.9219,90.5496 C174.3579,90.3246 172.8379,90.2636 172.8379,90.2636 C172.8379,90.2636 172.4109,92.2306 173.6559,92.8176 C175.4489,93.6606 176.9429,93.1456 176.9429,93.1456" id="Fill-123" fill="#FFFFFF"></path>
                <path d="M173.0483,90.5245 C172.9873,91.0085 172.9303,92.1995 173.7623,92.5915 C175.0633,93.2025 176.2063,93.0575 176.6583,92.9615 C176.5553,92.4835 176.1713,91.3185 174.8283,90.7815 C174.4613,90.6345 173.5593,90.5545 173.0483,90.5245 M175.7853,93.5525 C175.1793,93.5525 174.3973,93.4425 173.5493,93.0435 C172.1403,92.3795 172.5733,90.2985 172.5933,90.2105 L172.6373,90.0045 L172.8473,90.0135 C172.9113,90.0165 174.4173,90.0795 175.0143,90.3175 C176.9793,91.1035 177.1843,93.0405 177.1923,93.1225 L177.2103,93.3175 L177.0243,93.3815 C176.9883,93.3945 176.5133,93.5525 175.7853,93.5525" id="Fill-125" fill="#52267D"></path>
                <path d="M172.2603,92.1969 C172.2603,92.1969 172.2073,89.6659 169.3603,89.2969 C168.8293,89.2279 168.1473,89.2799 168.1473,89.2799 C168.1473,89.2799 166.8043,91.9399 168.3053,92.1969 C170.1513,92.5129 172.2603,92.1969 172.2603,92.1969" id="Fill-127" fill="#FFFFFF"></path>
                <path d="M168.3081,89.5211 C168.0691,90.0411 167.6641,91.1441 167.9301,91.6711 C168.0081,91.8261 168.1411,91.9151 168.3471,91.9501 C169.7791,92.1971 171.3951,92.0491 171.9891,91.9791 C171.9011,91.3881 171.4671,89.8221 169.3281,89.5441 C168.9691,89.4971 168.5311,89.5101 168.3081,89.5211 M170.1581,92.5881 C169.5591,92.5881 168.8981,92.5521 168.2631,92.4431 C167.9021,92.3811 167.6321,92.1921 167.4841,91.8961 C167.0291,90.9931 167.8301,89.3521 167.9231,89.1671 L167.9871,89.0421 L168.1271,89.0311 C168.1581,89.0291 168.8411,88.9781 169.3921,89.0481 C172.4181,89.4411 172.5091,92.1641 172.5101,92.1911 L172.5151,92.4121 L172.2971,92.4441 C172.2401,92.4531 171.3151,92.5881 170.1581,92.5881" id="Fill-129" fill="#52267D"></path>
                <path d="M166.8667,92.3805 C166.8667,92.3805 166.4207,89.5835 163.9197,90.4195 C162.8497,90.7765 162.2727,91.6095 162.2727,91.6095 C162.2727,91.6095 162.8297,93.7345 163.8267,93.4685 C165.5667,93.0045 166.8667,92.3805 166.8667,92.3805" id="Fill-131" fill="#FFFFFF"></path>
                <path d="M162.5474,91.6627 C162.6764,92.0857 163.0034,92.9267 163.4324,93.1757 C163.5444,93.2407 163.6514,93.2577 163.7624,93.2267 C165.0894,92.8727 166.1674,92.4197 166.5784,92.2367 C166.4864,91.8827 166.2224,91.1037 165.6014,90.7287 C165.1704,90.4697 164.6314,90.4447 163.9984,90.6567 C163.2204,90.9157 162.7224,91.4507 162.5474,91.6627 M163.6534,93.7417 C163.4924,93.7417 163.3334,93.6967 163.1804,93.6077 C162.4434,93.1787 162.0704,91.8267 162.0304,91.6737 L162.0024,91.5617 L162.0674,91.4677 C162.0934,91.4307 162.7044,90.5607 163.8404,90.1817 C164.6214,89.9207 165.3004,89.9617 165.8614,90.3027 C166.8754,90.9177 167.1044,92.2837 167.1134,92.3407 L167.1434,92.5247 L166.9754,92.6057 C166.9204,92.6317 165.6344,93.2447 163.8914,93.7097 C163.8114,93.7307 163.7324,93.7417 163.6534,93.7417" id="Fill-133" fill="#52267D"></path>
                <path d="M141.2026,87.6344 C141.2026,87.6344 141.3016,86.5924 142.3366,86.1784 C142.6526,86.0524 143.1466,86.1864 143.1466,86.1864 C143.1466,86.1864 143.7456,87.1214 143.0466,87.4504 C142.0406,87.9234 141.2026,87.6344 141.2026,87.6344" id="Fill-135" fill="#F3E3FF"></path>
                <path d="M145.6392,87.023 C145.6392,87.023 145.6792,85.115 147.8262,84.836 C148.2262,84.785 148.7402,84.824 148.7402,84.824 C148.7402,84.824 149.7512,86.829 148.6202,87.023 C147.2292,87.261 145.6392,87.023 145.6392,87.023" id="Fill-137" fill="#F3E3FF"></path>
                <path d="M151.3706,87.8976 C151.3706,87.8976 151.6526,86.1316 153.2316,86.6596 C153.9066,86.8846 154.2716,87.4116 154.2716,87.4116 C154.2716,87.4116 153.9206,88.7526 153.2906,88.5846 C152.1916,88.2916 151.3706,87.8976 151.3706,87.8976" id="Fill-139" fill="#F3E3FF"></path>
                <path d="M176.146,92.753 C176.146,92.753 176.047,91.718 175.019,91.307 C174.706,91.181 173.858,91.148 173.858,91.148 C173.858,91.148 173.62,92.244 174.314,92.57 C175.313,93.041 176.146,92.753 176.146,92.753" id="Fill-141" fill="#F3E3FF"></path>
                <path d="M171.2788,91.8282 C171.2788,91.8282 171.2488,90.3622 169.5988,90.1482 C169.2918,90.1082 168.8958,90.1392 168.8958,90.1392 C168.8958,90.1392 168.1178,91.6792 168.9878,91.8282 C170.0568,92.0122 171.2788,91.8282 171.2788,91.8282" id="Fill-143" fill="#F3E3FF"></path>
                <path d="M166.0806,92.2711 C166.0806,92.2711 165.8166,90.6171 164.3376,91.1111 C163.7056,91.3221 163.3636,91.8151 163.3636,91.8151 C163.3636,91.8151 163.6926,93.0711 164.2826,92.9141 C165.3116,92.6401 166.0806,92.2711 166.0806,92.2711" id="Fill-145" fill="#F3E3FF"></path>
                <path d="M159.5376,107.7828 C159.5376,107.7828 164.3346,108.5308 168.8956,107.4108 C169.3406,109.8898 169.6256,111.7618 169.6256,111.7618 C169.6256,111.7618 166.4626,113.9098 160.6176,112.6638 C159.9286,109.4798 159.5376,107.7828 159.5376,107.7828" id="Fill-147" fill="#FFFFFF"></path>
                <path d="M160.8276,112.4522 C165.7366,113.4532 168.7086,111.9992 169.3526,111.6342 C169.2766,111.1452 169.0356,109.6242 168.6966,107.7152 C164.9346,108.5792 161.0466,108.2202 159.8606,108.0772 C160.0056,108.7122 160.3386,110.1962 160.8276,112.4522 M164.1706,113.3062 C163.1116,113.3062 161.9096,113.1952 160.5656,112.9082 L160.4076,112.8742 L160.3736,112.7162 C159.6836,109.5352 159.2946,107.8402 159.2946,107.8392 L159.2116,107.4792 L159.5756,107.5352 C159.6236,107.5432 164.3766,108.2622 168.8366,107.1682 L169.0956,107.1052 L169.1416,107.3672 C169.5816,109.8202 169.8696,111.7042 169.8726,111.7232 L169.8956,111.8792 L169.7656,111.9682 C169.6636,112.0372 167.7436,113.3062 164.1706,113.3062" id="Fill-149" fill="#52267D"></path>
                <path d="M166.27,102.9654 L172.916,102.9654 L172.916,100.1004 C172.916,98.9404 171.976,97.9994 170.815,97.9994 L166.27,97.9994 C165.562,97.9994 164.988,98.5734 164.988,99.2814 L164.988,101.6834 C164.988,102.3914 165.562,102.9654 166.27,102.9654" id="Fill-151" fill="#F3E3FF"></path>
                <path d="M166.9858,102.8722 L172.8228,102.8722 L172.8228,100.9852 C172.8228,99.8722 171.9208,98.9702 170.8078,98.9702 L166.9858,98.9702 C166.4298,98.9702 165.9788,99.4212 165.9788,99.9772 L165.9788,101.8652 C165.9788,102.4212 166.4298,102.8722 166.9858,102.8722" id="Fill-153" fill="#FFFFFF"></path>
                <path d="M166.9858,99.2203 C166.5688,99.2203 166.2288,99.5603 166.2288,99.9773 L166.2288,101.8653 C166.2288,102.2823 166.5688,102.6223 166.9858,102.6223 L172.5728,102.6223 L172.5728,100.9853 C172.5728,100.0123 171.7808,99.2203 170.8078,99.2203 L166.9858,99.2203 Z M173.0728,103.1223 L166.9858,103.1223 C166.2928,103.1223 165.7288,102.5583 165.7288,101.8653 L165.7288,99.9773 C165.7288,99.2843 166.2928,98.7203 166.9858,98.7203 L170.8078,98.7203 C172.0568,98.7203 173.0728,99.7363 173.0728,100.9853 L173.0728,103.1223 Z" id="Fill-155" fill="#52267D"></path>
                <path d="M171.937,101.7159 C171.937,102.3179 171.449,102.8059 170.847,102.8059 C170.246,102.8059 169.757,102.3179 169.757,101.7159 C169.757,101.1139 170.246,100.6259 170.847,100.6259 C171.449,100.6259 171.937,101.1139 171.937,101.7159" id="Fill-157" fill="#52267D"></path>
                <path d="M149.8286,98.2569 L143.1826,98.2569 L143.1826,95.3919 C143.1826,94.2319 144.1236,93.2909 145.2836,93.2909 L149.8286,93.2909 C150.5376,93.2909 151.1106,93.8649 151.1106,94.5729 L151.1106,96.9749 C151.1106,97.6829 150.5376,98.2569 149.8286,98.2569" id="Fill-159" fill="#F3E3FF"></path>
                <path d="M149.1128,98.1637 L143.2768,98.1637 L143.2768,96.2767 C143.2768,95.1637 144.1778,94.2627 145.2918,94.2627 L149.1128,94.2627 C149.6698,94.2627 150.1208,94.7127 150.1208,95.2697 L150.1208,97.1567 C150.1208,97.7127 149.6698,98.1637 149.1128,98.1637" id="Fill-161" fill="#FFFFFF"></path>
                <path d="M143.5269,97.9137 L149.1129,97.9137 C149.5309,97.9137 149.8709,97.5737 149.8709,97.1567 L149.8709,95.2697 C149.8709,94.8517 149.5309,94.5127 149.1129,94.5127 L145.2919,94.5127 C144.3189,94.5127 143.5269,95.3037 143.5269,96.2767 L143.5269,97.9137 Z M149.1129,98.4137 L143.0269,98.4137 L143.0269,96.2767 C143.0269,95.0287 144.0429,94.0127 145.2919,94.0127 L149.1129,94.0127 C149.8059,94.0127 150.3709,94.5767 150.3709,95.2697 L150.3709,97.1567 C150.3709,97.8497 149.8059,98.4137 149.1129,98.4137 L149.1129,98.4137 Z" id="Fill-163" fill="#52267D"></path>
                <path d="M144.1626,97.0074 C144.1626,97.6094 144.6506,98.0974 145.2526,98.0974 C145.8536,98.0974 146.3426,97.6094 146.3426,97.0074 C146.3426,96.4054 145.8536,95.9184 145.2526,95.9184 C144.6506,95.9184 144.1626,96.4054 144.1626,97.0074" id="Fill-165" fill="#52267D"></path>
                <path d="M179.4771,104.0982 L179.4771,104.0982 C179.1671,104.0322 178.8901,103.8602 178.6931,103.6122 L178.3281,103.1532 L179.1411,103.3272 L179.6211,103.4302 C179.8051,103.4702 179.9221,103.6512 179.8821,103.8362 C179.8431,104.0202 179.6621,104.1382 179.4771,104.0982" id="Fill-167" fill="#52267D"></path>
                <path d="M137.4712,99.0025 L137.4712,99.0025 C137.7812,98.9365 138.0582,98.7645 138.2552,98.5165 L138.6192,98.0565 L137.8072,98.2315 L137.3272,98.3345 C137.1432,98.3735 137.0262,98.5555 137.0652,98.7395 C137.1052,98.9245 137.2862,99.0425 137.4712,99.0025" id="Fill-169" fill="#52267D"></path>
                <path d="M148.4282,103.6939 C148.4282,103.6939 152.4872,105.4229 156.5802,103.8429 C156.1522,106.2439 155.7692,107.4699 155.7692,107.4699 C155.7692,107.4699 153.3062,107.6149 151.6752,107.2939 C149.3462,106.8349 148.4282,105.7759 148.4282,103.6939" id="Fill-171" fill="#EAF3FB"></path>
                <path d="M154.0747,106.7726 C154.0747,106.7726 150.3827,107.0806 147.5227,105.5986" id="Fill-173" fill="#FFFFFF"></path>
                <path d="M153.2075,107.0509 C151.9215,107.0509 149.4725,106.8899 147.4075,105.8209 L147.6385,105.3759 C150.4005,106.8089 154.0175,106.5269 154.0545,106.5239 L154.0955,107.0219 C154.0515,107.0259 153.7235,107.0509 153.2075,107.0509" id="Fill-175" fill="#52267D"></path>
                <path d="M167.1382,108.3243 C167.1382,108.3243 163.5382,109.3473 160.3632,108.7123 C160.9622,111.0763 161.2812,111.8183 161.2812,111.8183 C161.2812,111.8183 166.0442,111.1823 167.1382,108.3243" id="Fill-177" fill="#EAF3FB"></path>
                <path d="M165.2065,141.9029 C165.2065,141.9029 164.9885,142.0599 164.6805,142.2459" id="Fill-179" fill="#F3E3FF"></path>
                <path d="M164.8091,142.4601 L164.5511,142.0321 C164.8471,141.8541 165.0561,141.7031 165.0601,141.7001 L165.3531,142.1061 C165.3531,142.1061 165.1281,142.2681 164.8091,142.4601" id="Fill-181" fill="#52267D"></path>
                <path d="M167.4858,109.6851 C167.4858,109.6851 163.8618,110.3721 160.0148,109.9131" id="Fill-183" fill="#FFFFFF"></path>
                <path d="M162.7915,110.3194 C161.9025,110.3194 160.9495,110.2764 159.9855,110.1614 L160.0445,109.6654 C163.8125,110.1154 167.4045,109.4454 167.4385,109.4394 L167.5325,109.9304 C167.5055,109.9364 165.4395,110.3194 162.7915,110.3194" id="Fill-185" fill="#52267D"></path>
                <path d="M161.5474,184.2354 C161.5474,184.2354 160.5864,183.4524 159.3084,184.5014 C158.1414,185.4604 157.2634,186.9424 157.7864,187.0904 C158.3104,187.2394 159.2314,187.3844 160.1974,187.2074 C161.0394,187.0524 161.7824,187.2154 162.1204,185.4544 C162.2774,184.6334 161.5474,184.2354 161.5474,184.2354" id="Fill-187" fill="#FFFFFF"></path>
                <path d="M160.6567,184.2052 C160.3357,184.2052 159.9277,184.3162 159.4667,184.6952 C158.4357,185.5422 157.8057,186.6492 157.8847,186.8802 C158.1227,186.9272 159.0767,187.1602 160.1527,186.9612 C160.2687,186.9402 160.3827,186.9242 160.4947,186.9092 C161.1697,186.8182 161.6157,186.7572 161.8757,185.4072 C161.9947,184.7822 161.4497,184.4672 161.4267,184.4542 L161.3907,184.4302 C161.3717,184.4152 161.0967,184.2052 160.6567,184.2052 M159.2777,187.5382 C158.5227,187.5382 157.9277,187.3912 157.7187,187.3312 C157.5497,187.2832 157.4307,187.1552 157.3937,186.9792 C157.2657,186.3612 158.2167,185.0752 159.1487,184.3082 C160.4577,183.2352 161.5127,183.9042 161.6817,184.0242 C161.9917,184.2012 162.5147,184.7232 162.3657,185.5012 C162.0397,187.2052 161.2877,187.3072 160.5607,187.4052 C160.4577,187.4192 160.3507,187.4332 160.2427,187.4532 C159.9057,187.5152 159.5787,187.5382 159.2777,187.5382" id="Fill-189" fill="#52267D"></path>
                <path d="M161.3286,184.5211 C161.3286,184.5211 160.7296,184.0331 159.9346,184.6871 C159.2096,185.2831 158.6626,186.2051 158.9876,186.2981 C159.3136,186.3901 159.8876,186.4801 160.4886,186.3701 C161.0126,186.2741 161.4746,186.3751 161.6846,185.2791 C161.7826,184.7691 161.3286,184.5211 161.3286,184.5211" id="Fill-191" fill="#EAF3FB"></path>
                <path d="M162.9116,184.2179 C163.4196,184.1499 164.1506,185.2529 164.0666,185.5899 C163.9836,185.9259 163.9256,187.0359 163.1036,187.1559 C162.4986,187.2459 160.3396,187.4699 159.8676,187.0009 C159.4326,186.5689 160.2836,184.5699 162.9116,184.2179" id="Fill-193" fill="#FFFFFF"></path>
                <path d="M162.9448,184.4654 C161.0968,184.7134 160.2658,185.7834 160.0668,186.3764 C159.9768,186.6424 160.0128,186.7924 160.0448,186.8234 C160.3478,187.1244 161.9928,187.0674 163.0678,186.9084 C163.5488,186.8384 163.6898,186.2674 163.7838,185.7384 C163.7988,185.6544 163.8108,185.5834 163.8238,185.5294 C163.8358,185.4204 163.6358,184.9934 163.3198,184.6844 C163.1398,184.5094 163.0028,184.4574 162.9448,184.4654 M161.3418,187.5424 C160.6578,187.5424 159.9758,187.4614 159.6908,187.1784 C159.4898,186.9784 159.4548,186.6274 159.5918,186.2164 C159.9098,185.2754 161.0488,184.2154 162.8788,183.9704 C163.2428,183.9174 163.5628,184.2004 163.7778,184.4404 C164.0398,184.7334 164.3978,185.2974 164.3088,185.6504 C164.2988,185.6944 164.2878,185.7554 164.2758,185.8254 C164.1928,186.2954 164.0198,187.2744 163.1398,187.4034 C162.9838,187.4264 162.1608,187.5424 161.3418,187.5424" id="Fill-195" fill="#52267D"></path>
                <path d="M163.0542,184.5235 C163.3542,184.4835 163.7842,185.1345 163.7362,185.3325 C163.6862,185.5315 163.6522,186.1865 163.1672,186.2575 C162.8102,186.3105 161.5352,186.4425 161.2572,186.1665 C161.0012,185.9105 161.5032,184.7315 163.0542,184.5235" id="Fill-197" fill="#EAF3FB"></path>
                <path d="M165.0601,184.4327 C165.0601,184.4327 164.6221,184.2037 163.7521,184.7007 C162.9861,185.1397 161.8401,185.8407 162.1421,186.7137 C162.4431,187.5857 164.8681,187.2607 165.4071,187.0767 C165.9461,186.8917 166.2841,186.3057 166.1881,185.7917 C165.9811,184.6717 165.0601,184.4327 165.0601,184.4327" id="Fill-199" fill="#FFFFFF"></path>
                <path d="M164.7593,184.6309 C164.5843,184.6309 164.2903,184.6809 163.8763,184.9179 C163.0133,185.4119 162.1603,186.0009 162.3783,186.6319 C162.5843,187.2299 164.6963,187.0559 165.3253,186.8399 C165.7353,186.6999 166.0173,186.2409 165.9423,185.8379 C165.7683,184.8969 165.0273,184.6829 164.9953,184.6739 L164.9503,184.6579 C164.9433,184.6539 164.8793,184.6309 164.7593,184.6309 M163.7223,187.5459 C162.9153,187.5459 162.1073,187.3799 161.9053,186.7949 C161.5233,185.6879 162.9453,184.8749 163.6283,184.4839 C164.4973,183.9869 165.0133,184.1409 165.1463,184.1969 C165.3093,184.2469 166.2173,184.5729 166.4343,185.7459 C166.5543,186.3899 166.1293,187.0929 165.4883,187.3129 C165.2383,187.3989 164.4813,187.5459 163.7223,187.5459" id="Fill-201" fill="#52267D"></path>
                <path d="M165.2251,184.7413 C165.2251,184.7413 164.9651,184.6063 164.4511,184.9003 C163.9961,185.1603 163.3181,185.5753 163.4961,186.0923 C163.6751,186.6083 165.1111,186.4163 165.4301,186.3073 C165.7491,186.1983 165.9501,185.8503 165.8931,185.5463 C165.7701,184.8833 165.2251,184.7413 165.2251,184.7413" id="Fill-203" fill="#EAF3FB"></path>
                <path d="M154.9224,156.6192 C154.9224,156.6192 155.4164,162.2372 153.9874,171.0672 C152.6584,179.2862 150.3014,181.8652 150.4744,183.9962 C150.6094,185.6462 151.3054,187.1582 152.9614,187.1582 L157.9014,187.1582 C160.2084,187.1582 162.2424,185.6852 162.9844,183.5012 C163.5814,181.7422 164.2024,179.3492 164.5734,176.3232 C164.9534,172.2062 164.8714,168.0782 164.8034,165.6542" id="Fill-205" fill="#9452BA"></path>
                <path d="M157.9019,187.6583 L152.9619,187.6583 C151.2769,187.6583 150.1609,186.3043 149.9759,184.0363 C149.8929,183.0203 150.2859,182.0083 150.8789,180.4753 C151.6629,178.4503 152.7359,175.6763 153.4949,170.9873 C154.8949,162.3313 154.4289,156.7183 154.4239,156.6623 L155.4209,156.5753 C155.4249,156.6323 155.9039,162.3573 154.4809,171.1473 C153.7069,175.9393 152.5659,178.8863 151.8109,180.8363 C151.2679,182.2403 150.9089,183.1673 150.9719,183.9553 C151.0549,184.9653 151.4229,186.6583 152.9619,186.6583 L157.9019,186.6583 C159.9849,186.6583 161.8379,185.3253 162.5099,183.3413 C163.2359,181.2043 163.7629,178.8233 164.0779,176.2623 C164.4329,172.4023 164.3849,168.5723 164.3029,165.6683 L165.3029,165.6393 C165.3849,168.5723 165.4339,172.4413 165.0719,176.3683 C164.7479,179.0123 164.2059,181.4613 163.4579,183.6623 C162.6459,186.0523 160.4139,187.6583 157.9019,187.6583" id="Fill-207" fill="#52267D"></path>
                <path d="M180.2544,160.3355 C178.6174,161.7445 177.7694,164.0505 177.7814,166.1705 C177.7994,169.0005 179.4414,172.6025 178.4004,177.3055 C177.4734,181.4945 175.6274,182.2335 176.1834,185.9915 C176.2834,186.6705 176.8934,187.1585 177.5784,187.1585 L183.0844,187.1585 C185.6174,187.1585 187.7874,185.3205 188.2014,182.8215 C189.3084,176.1465 188.4634,169.8455 187.5734,165.0105" id="Fill-209" fill="#9452BA"></path>
                <path d="M183.0845,187.6583 L177.5785,187.6583 C176.6355,187.6583 175.8225,186.9733 175.6885,186.0653 C175.3325,183.6553 175.9255,182.3633 176.6115,180.8663 C177.0545,179.9033 177.5545,178.8123 177.9115,177.1973 C178.5775,174.1893 178.1115,171.6563 177.7005,169.4213 C177.4885,168.2673 177.2875,167.1783 177.2815,166.1733 C177.2675,163.7563 178.2815,161.3743 179.9285,159.9563 L180.5805,160.7143 C179.1495,161.9463 178.2695,164.0353 178.2815,166.1673 C178.2875,167.0833 178.4805,168.1313 178.6845,169.2403 C179.0915,171.4533 179.5985,174.2073 178.8885,177.4133 C178.5085,179.1323 177.9835,180.2753 177.5215,181.2833 C176.8505,182.7453 176.3645,183.8023 176.6775,185.9183 C176.7395,186.3403 177.1275,186.6583 177.5785,186.6583 L183.0845,186.6583 C185.3875,186.6583 187.3325,185.0103 187.7085,182.7403 C188.8095,176.1023 187.9515,169.8263 187.0815,165.1003 L188.0655,164.9203 C188.9495,169.7253 189.8205,176.1133 188.6945,182.9033 C188.2385,185.6583 185.8795,187.6583 183.0845,187.6583" id="Fill-211" fill="#52267D"></path>
                <polygon id="Fill-213" fill="#52267D" points="181.5513 167.4596 179.9123 166.6526 181.5723 165.3256 182.2983 165.5676 182.2183 165.8056 181.6213 165.6056 180.3753 166.6016 181.5353 167.1736 182.3853 166.6306 181.6863 166.4736 181.4083 166.6736 181.2623 166.4706 181.6313 166.2056 183.0263 166.5186"></polygon>
                <path d="M151.5532,184.2354 C151.5532,184.2354 150.5922,183.4524 149.3152,184.5014 C148.1472,185.4604 147.2692,186.9424 147.7922,187.0904 C148.3162,187.2394 149.2372,187.3844 150.2032,187.2074 C151.0452,187.0524 151.7882,187.2154 152.1262,185.4544 C152.2832,184.6334 151.5532,184.2354 151.5532,184.2354" id="Fill-215" fill="#FFFFFF"></path>
                <path d="M150.6626,184.2052 C150.3426,184.2052 149.9336,184.3162 149.4746,184.6952 C148.4416,185.5412 147.8116,186.6492 147.8906,186.8802 C148.1286,186.9272 149.0816,187.1602 150.1586,186.9612 C150.2746,186.9402 150.3886,186.9242 150.5006,186.9092 C151.1756,186.8182 151.6216,186.7572 151.8816,185.4072 C152.0006,184.7822 151.4556,184.4672 151.4326,184.4542 L151.3966,184.4302 C151.3776,184.4152 151.1026,184.2052 150.6626,184.2052 M149.2836,187.5382 C148.5286,187.5382 147.9336,187.3912 147.7246,187.3312 C147.5556,187.2832 147.4366,187.1552 147.3996,186.9792 C147.2716,186.3602 148.2226,185.0752 149.1566,184.3082 C150.4576,183.2362 151.5176,183.9032 151.6876,184.0242 C151.9976,184.2012 152.5206,184.7232 152.3716,185.5012 C152.0456,187.2052 151.2936,187.3072 150.5666,187.4052 C150.4636,187.4192 150.3566,187.4332 150.2486,187.4532 C149.9116,187.5152 149.5846,187.5382 149.2836,187.5382" id="Fill-217" fill="#52267D"></path>
                <path d="M151.3345,184.5211 C151.3345,184.5211 150.7355,184.0331 149.9405,184.6871 C149.2155,185.2831 148.6685,186.2051 148.9945,186.2981 C149.3195,186.3901 149.8935,186.4801 150.4945,186.3701 C151.0185,186.2741 151.4805,186.3751 151.6905,185.2791 C151.7885,184.7691 151.3345,184.5211 151.3345,184.5211" id="Fill-219" fill="#EAF3FB"></path>
                <polygon id="Fill-221" fill="#52267D" points="159.4722 172.3902 157.2932 172.2312 157.0032 170.2022 159.0732 169.5572 159.1472 169.7962 157.2812 170.3782 157.5122 171.9962 159.3652 172.1312 160.1612 171.2102 159.1352 170.6412 158.3782 170.8612 158.8792 171.4182 158.6942 171.5852 157.9252 170.7322 159.1642 170.3712 160.5522 171.1412"></polygon>
                <g id="Group-285" transform="translate(115.000000, 93.608000)" fill="#F3E3FF">
                    <path d="M2.4761,16.6978 C2.1121,16.6978 1.8151,16.4018 1.8151,16.0368 L2.0651,16.0368 C2.0651,16.2638 2.2491,16.4478 2.4761,16.4478 C2.7031,16.4478 2.8871,16.2638 2.8871,16.0368 L3.1371,16.0368 C3.1371,16.4018 2.8401,16.6978 2.4761,16.6978" id="Fill-223"></path>
                    <path d="M1.4043,16.6978 C1.0403,16.6978 0.7433,16.4018 0.7433,16.0368 L0.9933,16.0368 C0.9933,16.2638 1.1773,16.4478 1.4043,16.4478 C1.6313,16.4478 1.8153,16.2638 1.8153,16.0368 L2.0653,16.0368 C2.0653,16.4018 1.7693,16.6978 1.4043,16.6978" id="Fill-225"></path>
                    <path d="M1.9404,17.2339 C1.5754,17.2339 1.2794,16.9379 1.2794,16.5729 L1.5294,16.5729 C1.5294,16.7989 1.7134,16.9839 1.9404,16.9839 C2.1674,16.9839 2.3514,16.7989 2.3514,16.5729 L2.6014,16.5729 C2.6014,16.9379 2.3044,17.2339 1.9404,17.2339" id="Fill-227"></path>
                    <path d="M22.8853,15.7788 C22.7213,15.7788 22.5543,15.7348 22.4053,15.6418 L22.5353,15.4288 C22.8473,15.6208 23.2593,15.5258 23.4513,15.2158 C23.5453,15.0648 23.5743,14.8858 23.5343,14.7138 C23.4943,14.5408 23.3893,14.3938 23.2383,14.2998 L23.3703,14.0878 C23.5773,14.2168 23.7223,14.4188 23.7783,14.6558 C23.8333,14.8948 23.7933,15.1398 23.6643,15.3468 C23.4913,15.6258 23.1923,15.7788 22.8853,15.7788" id="Fill-229"></path>
                    <path d="M23.1392,16.8662 C22.9752,16.8662 22.8082,16.8222 22.6582,16.7282 L22.7902,16.5162 C23.0992,16.7082 23.5112,16.6142 23.7052,16.3032 C23.7992,16.1522 23.8282,15.9732 23.7882,15.8012 C23.7482,15.6282 23.6432,15.4812 23.4922,15.3872 L23.6242,15.1752 C23.8312,15.3042 23.9762,15.5062 24.0322,15.7432 C24.0872,15.9822 24.0472,16.2272 23.9182,16.4342 C23.7442,16.7132 23.4462,16.8662 23.1392,16.8662" id="Fill-231"></path>
                    <path d="M48.6167,34.3789 C48.1517,34.3789 47.7727,34.0009 47.7727,33.5349 L48.0227,33.5349 C48.0227,33.8629 48.2897,34.1289 48.6167,34.1289 C48.9437,34.1289 49.2107,33.8629 49.2107,33.5349 L49.4607,33.5349 C49.4607,34.0009 49.0817,34.3789 48.6167,34.3789" id="Fill-233"></path>
                    <path d="M47.1792,34.3789 C46.7142,34.3789 46.3352,34.0009 46.3352,33.5349 L46.5852,33.5349 C46.5852,33.8629 46.8522,34.1289 47.1792,34.1289 C47.5062,34.1289 47.7732,33.8629 47.7732,33.5349 L48.0232,33.5349 C48.0232,34.0009 47.6442,34.3789 47.1792,34.3789" id="Fill-235"></path>
                    <path d="M47.8979,35.0977 C47.4329,35.0977 47.0539,34.7197 47.0539,34.2537 L47.3039,34.2537 C47.3039,34.5817 47.5709,34.8477 47.8979,34.8477 C48.2249,34.8477 48.4919,34.5817 48.4919,34.2537 L48.7419,34.2537 C48.7419,34.7197 48.3629,35.0977 47.8979,35.0977" id="Fill-237"></path>
                    <path d="M27.1519,79.9102 C26.6869,79.9102 26.3089,79.5322 26.3089,79.0662 L26.5589,79.0662 C26.5589,79.3942 26.8249,79.6602 27.1519,79.6602 C27.4789,79.6602 27.7459,79.3942 27.7459,79.0662 L27.9959,79.0662 C27.9959,79.5322 27.6169,79.9102 27.1519,79.9102" id="Fill-239"></path>
                    <path d="M25.7153,79.9102 C25.2503,79.9102 24.8713,79.5322 24.8713,79.0662 L25.1213,79.0662 C25.1213,79.3942 25.3883,79.6602 25.7153,79.6602 C26.0423,79.6602 26.3093,79.3942 26.3093,79.0662 L26.5593,79.0662 C26.5593,79.5322 26.1803,79.9102 25.7153,79.9102" id="Fill-241"></path>
                    <path d="M26.4341,80.6289 C25.9691,80.6289 25.5901,80.2509 25.5901,79.7849 L25.8401,79.7849 C25.8401,80.1129 26.1071,80.3789 26.4341,80.3789 C26.7611,80.3789 27.0271,80.1129 27.0271,79.7849 L27.2771,79.7849 C27.2771,80.2509 26.8991,80.6289 26.4341,80.6289" id="Fill-243"></path>
                    <path d="M47.5737,11.5454 C47.0697,11.5454 46.6597,11.1344 46.6597,10.6304 L46.9097,10.6304 C46.9097,10.9974 47.2077,11.2954 47.5737,11.2954 C47.9407,11.2954 48.2387,10.9974 48.2387,10.6304 L48.4887,10.6304 C48.4887,11.1344 48.0787,11.5454 47.5737,11.5454" id="Fill-245"></path>
                    <path d="M46.7847,12.335 C46.2797,12.335 45.8697,11.925 45.8697,11.42 L46.1197,11.42 C46.1197,11.787 46.4177,12.085 46.7847,12.085 C47.1507,12.085 47.4487,11.787 47.4487,11.42 L47.6987,11.42 C47.6987,11.925 47.2887,12.335 46.7847,12.335" id="Fill-247"></path>
                    <path d="M37.6499,25.6616 C37.0519,25.6616 36.5659,25.1756 36.5659,24.5776 L36.8159,24.5776 C36.8159,25.0366 37.1899,25.4116 37.6499,25.4116 C38.1099,25.4116 38.4849,25.0366 38.4849,24.5776 L38.7349,24.5776 C38.7349,25.1756 38.2489,25.6616 37.6499,25.6616" id="Fill-249"></path>
                    <path d="M36.6909,26.6211 C36.0919,26.6211 35.6059,26.1351 35.6059,25.5371 L35.8559,25.5371 C35.8559,25.9961 36.2309,26.3711 36.6909,26.3711 C37.1509,26.3711 37.5249,25.9961 37.5249,25.5371 L37.7749,25.5371 C37.7749,26.1351 37.2889,26.6211 36.6909,26.6211" id="Fill-251"></path>
                    <path d="M23.395,1.4873 C22.972,1.4873 22.628,1.1433 22.628,0.7203 L22.878,0.7203 C22.878,1.0053 23.11,1.2373 23.395,1.2373 C23.68,1.2373 23.912,1.0053 23.912,0.7203 L24.162,0.7203 C24.162,1.1433 23.818,1.4873 23.395,1.4873" id="Fill-253"></path>
                    <path d="M22.7534,2.1289 C22.3304,2.1289 21.9854,1.7849 21.9854,1.3619 L22.2354,1.3619 C22.2354,1.6469 22.4684,1.8789 22.7534,1.8789 C23.0384,1.8789 23.2704,1.6469 23.2704,1.3619 L23.5204,1.3619 C23.5204,1.7849 23.1764,2.1289 22.7534,2.1289" id="Fill-255"></path>
                    <path d="M83.7222,65.8105 C83.4762,65.8105 83.2332,65.7065 83.0622,65.5065 L83.2512,65.3445 C83.4722,65.6025 83.8602,65.6325 84.1182,65.4155 C84.2432,65.3105 84.3202,65.1615 84.3322,64.9985 C84.3462,64.8345 84.2952,64.6755 84.1892,64.5505 L84.3802,64.3895 C84.5292,64.5645 84.6012,64.7885 84.5812,65.0185 C84.5632,65.2485 84.4552,65.4575 84.2802,65.6065 C84.1182,65.7435 83.9192,65.8105 83.7222,65.8105" id="Fill-257"></path>
                    <path d="M83.6362,66.853 C83.6122,66.853 83.5882,66.852 83.5642,66.85 C83.3332,66.831 83.1242,66.723 82.9752,66.547 L83.1662,66.386 C83.2722,66.511 83.4202,66.587 83.5842,66.601 C83.7352,66.614 83.9072,66.564 84.0322,66.457 C84.2892,66.238 84.3222,65.85 84.1032,65.592 L84.2942,65.431 C84.6022,65.794 84.5562,66.34 84.1942,66.648 C84.0352,66.781 83.8402,66.853 83.6362,66.853" id="Fill-259"></path>
                    <path d="M54.5776,55.8564 C54.4606,55.8564 54.3436,55.8354 54.2296,55.7934 C53.9816,55.7004 53.7846,55.5164 53.6756,55.2754 L53.9016,55.1714 C53.9846,55.3524 54.1326,55.4894 54.3176,55.5594 C54.5026,55.6284 54.7036,55.6214 54.8856,55.5394 C55.2576,55.3694 55.4216,54.9284 55.2516,54.5564 L55.4786,54.4524 C55.7056,54.9504 55.4856,55.5394 54.9886,55.7664 C54.8576,55.8264 54.7186,55.8564 54.5776,55.8564" id="Fill-261"></path>
                    <path d="M53.0005,56.5757 C52.8835,56.5757 52.7665,56.5547 52.6525,56.5127 C52.4045,56.4197 52.2075,56.2367 52.0985,55.9947 L52.3245,55.8917 C52.4065,56.0717 52.5545,56.2087 52.7405,56.2787 C52.9245,56.3477 53.1265,56.3407 53.3085,56.2587 C53.6805,56.0887 53.8445,55.6477 53.6745,55.2757 L53.9015,55.1717 C54.1285,55.6697 53.9085,56.2587 53.4115,56.4857 C53.2805,56.5457 53.1405,56.5757 53.0005,56.5757" id="Fill-263"></path>
                    <path d="M54.1489,57.0049 C54.0319,57.0049 53.9139,56.9839 53.8009,56.9419 C53.5529,56.8489 53.3559,56.6649 53.2469,56.4239 L53.4729,56.3199 C53.5549,56.5009 53.7029,56.6379 53.8879,56.7069 C54.0759,56.7769 54.2749,56.7679 54.4559,56.6879 C54.8279,56.5179 54.9929,56.0769 54.8229,55.7049 L55.0499,55.6009 C55.2769,56.0989 55.0569,56.6879 54.5589,56.9149 C54.4279,56.9749 54.2889,57.0049 54.1489,57.0049" id="Fill-265"></path>
                    <path d="M52.5728,57.7236 C52.1958,57.7236 51.8348,57.5076 51.6688,57.1426 L51.8948,57.0396 C52.0648,57.4116 52.5048,57.5756 52.8788,57.4066 C53.2508,57.2366 53.4158,56.7956 53.2458,56.4236 L53.4738,56.3206 C53.6998,56.8176 53.4798,57.4076 52.9818,57.6346 C52.8488,57.6946 52.7098,57.7236 52.5728,57.7236" id="Fill-267"></path>
                    <path d="M55.2974,57.4331 C54.9214,57.4331 54.5604,57.2181 54.3944,56.8531 L54.6204,56.7491 C54.7914,57.1211 55.2324,57.2851 55.6044,57.1161 C55.9764,56.9461 56.1414,56.5051 55.9714,56.1331 L56.1984,56.0301 C56.4254,56.5271 56.2054,57.1171 55.7074,57.3441 C55.5744,57.4041 55.4354,57.4331 55.2974,57.4331" id="Fill-269"></path>
                    <path d="M39.5688,8.2075 C39.0178,8.2075 38.5698,7.7595 38.5698,7.2075 L38.8198,7.2075 C38.8198,7.6215 39.1558,7.9575 39.5688,7.9575 C39.9818,7.9575 40.3188,7.6215 40.3188,7.2075 L40.5688,7.2075 C40.5688,7.7595 40.1208,8.2075 39.5688,8.2075" id="Fill-271"></path>
                    <path d="M39.2661,41.2598 C38.7141,41.2598 38.2661,40.8118 38.2661,40.2598 L38.5161,40.2598 C38.5161,40.6738 38.8531,41.0098 39.2661,41.0098 C39.6791,41.0098 40.0161,40.6738 40.0161,40.2598 L40.2661,40.2598 C40.2661,40.8118 39.8181,41.2598 39.2661,41.2598" id="Fill-273"></path>
                    <path d="M48.9663,22.8281 C48.5323,22.8281 48.1793,22.4741 48.1793,22.0401 L48.4293,22.0401 C48.4293,22.3371 48.6703,22.5781 48.9663,22.5781 C49.2633,22.5781 49.5043,22.3371 49.5043,22.0401 L49.7543,22.0401 C49.7543,22.4741 49.4013,22.8281 48.9663,22.8281" id="Fill-275"></path>
                    <path d="M64.5796,7.6055 C64.2366,7.6055 63.9576,7.3265 63.9576,6.9835 L64.2076,6.9835 C64.2076,7.1885 64.3746,7.3555 64.5796,7.3555 C64.7856,7.3555 64.9526,7.1885 64.9526,6.9835 L65.2026,6.9835 C65.2026,7.3265 64.9236,7.6055 64.5796,7.6055" id="Fill-277"></path>
                    <path d="M69.0786,80.9346 C68.8746,80.9346 68.6766,80.8726 68.5066,80.7526 C68.2876,80.5986 68.1416,80.3696 68.0966,80.1056 L68.3426,80.0626 C68.3766,80.2606 68.4856,80.4326 68.6496,80.5476 C68.8136,80.6626 69.0136,80.7066 69.2096,80.6736 C69.4066,80.6396 69.5786,80.5306 69.6936,80.3666 C69.8086,80.2026 69.8536,80.0036 69.8196,79.8066 L70.0656,79.7636 C70.1116,80.0266 70.0526,80.2916 69.8986,80.5106 C69.7446,80.7286 69.5156,80.8736 69.2526,80.9196 C69.1946,80.9296 69.1366,80.9346 69.0786,80.9346" id="Fill-279"></path>
                    <path d="M45.0181,87.6113 C44.4191,87.6113 43.9331,87.1253 43.9331,86.5273 L44.1831,86.5273 C44.1831,86.9863 44.5581,87.3613 45.0181,87.3613 C45.4781,87.3613 45.8521,86.9863 45.8521,86.5273 L46.1021,86.5273 C46.1021,87.1253 45.6161,87.6113 45.0181,87.6113" id="Fill-281"></path>
                    <path d="M44.0581,88.5708 C43.4601,88.5708 42.9741,88.0848 42.9741,87.4868 L43.2241,87.4868 C43.2241,87.9458 43.5981,88.3208 44.0581,88.3208 C44.5181,88.3208 44.8931,87.9458 44.8931,87.4868 L45.1431,87.4868 C45.1431,88.0848 44.6571,88.5708 44.0581,88.5708" id="Fill-283"></path>
                </g>
                <path d="M152.9175,184.2179 C153.4255,184.1499 154.1565,185.2529 154.0725,185.5899 C153.9895,185.9259 153.9315,187.0359 153.1095,187.1559 C152.5045,187.2459 150.3455,187.4699 149.8735,187.0009 C149.4385,186.5689 150.2895,184.5699 152.9175,184.2179" id="Fill-286" fill="#FFFFFF"></path>
                <path d="M152.9507,184.4654 C151.1027,184.7134 150.2717,185.7834 150.0727,186.3764 C149.9827,186.6424 150.0187,186.7924 150.0507,186.8234 C150.3537,187.1244 151.9997,187.0674 153.0737,186.9084 C153.5547,186.8384 153.6957,186.2674 153.7897,185.7384 C153.8047,185.6544 153.8167,185.5834 153.8297,185.5294 C153.8417,185.4204 153.6417,184.9934 153.3257,184.6844 C153.1457,184.5094 153.0077,184.4574 152.9507,184.4654 M151.3477,187.5424 C150.6637,187.5424 149.9817,187.4614 149.6967,187.1784 C149.4957,186.9784 149.4607,186.6274 149.5977,186.2164 C149.9157,185.2754 151.0547,184.2154 152.8847,183.9704 C153.2467,183.9174 153.5697,184.2004 153.7837,184.4404 C154.0457,184.7334 154.4037,185.2974 154.3147,185.6504 C154.3047,185.6944 154.2937,185.7554 154.2817,185.8254 C154.1987,186.2954 154.0257,187.2744 153.1457,187.4034 C152.9897,187.4264 152.1667,187.5424 151.3477,187.5424" id="Fill-288" fill="#52267D"></path>
                <path d="M153.0601,184.5235 C153.3601,184.4835 153.7901,185.1345 153.7421,185.3325 C153.6931,185.5315 153.6581,186.1865 153.1731,186.2575 C152.8161,186.3105 151.5411,186.4425 151.2641,186.1665 C151.0071,185.9105 151.5091,184.7315 153.0601,184.5235" id="Fill-290" fill="#EAF3FB"></path>
                <path d="M154.7212,184.7608 C154.7212,184.7608 154.3332,184.5578 153.5662,184.9978 C152.8872,185.3858 151.8742,186.0068 152.1412,186.7778 C152.4082,187.5488 154.5512,187.2618 155.0282,187.0988 C155.5042,186.9358 155.8042,186.4168 155.7192,185.9628 C155.5352,184.9718 154.7212,184.7608 154.7212,184.7608" id="Fill-292" fill="#FFFFFF"></path>
                <path d="M154.4556,184.9649 C154.3066,184.9649 154.0516,185.0079 153.6896,185.2149 C152.9366,185.6459 152.1916,186.1579 152.3776,186.6959 C152.5516,187.1999 154.4136,187.0459 154.9466,186.8629 C155.2966,186.7429 155.5376,186.3519 155.4736,186.0079 C155.3226,185.1949 154.6846,185.0099 154.6566,185.0029 L154.6126,184.9859 C154.6046,184.9829 154.5526,184.9649 154.4556,184.9649 M153.5456,187.5409 C152.8196,187.5409 152.0886,187.3909 151.9046,186.8599 C151.5596,185.8579 152.8306,185.1309 153.4416,184.7809 C154.2146,184.3389 154.6826,184.4739 154.8076,184.5259 C154.9586,184.5719 155.7706,184.8669 155.9656,185.9169 C156.0736,186.4999 155.6896,187.1369 155.1086,187.3359 C154.8876,187.4119 154.2196,187.5409 153.5456,187.5409" id="Fill-294" fill="#52267D"></path>
                <path d="M154.8677,185.0338 C154.8677,185.0338 154.6387,184.9138 154.1827,185.1748 C153.7807,185.4048 153.1807,185.7718 153.3397,186.2278 C153.4967,186.6848 154.7657,186.5148 155.0487,186.4188 C155.3307,186.3218 155.5087,186.0148 155.4587,185.7458 C155.3487,185.1588 154.8677,185.0338 154.8677,185.0338" id="Fill-296" fill="#EAF3FB"></path>
                <path d="M134.4429,184.9747 C134.4429,184.9747 134.0549,184.7717 133.2869,185.2117 C132.6089,185.5997 131.5949,186.2207 131.8619,186.9917 C132.1289,187.7627 134.2729,187.4757 134.7499,187.3127 C135.2259,187.1497 135.5249,186.6307 135.4409,186.1767 C135.2569,185.1857 134.4429,184.9747 134.4429,184.9747" id="Fill-298" fill="#FFFFFF"></path>
                <path d="M134.1763,185.1788 C134.0273,185.1788 133.7723,185.2218 133.4103,185.4288 C132.6573,185.8598 131.9123,186.3728 132.0983,186.9098 C132.2723,187.4138 134.1343,187.2588 134.6683,187.0768 C135.0173,186.9568 135.2583,186.5658 135.1953,186.2218 C135.0443,185.4088 134.4053,185.2238 134.3783,185.2168 L134.3343,185.1998 C134.3263,185.1968 134.2743,185.1788 134.1763,185.1788 M133.2673,187.7548 C132.5403,187.7548 131.8093,187.6048 131.6253,187.0738 C131.2803,186.0728 132.5513,185.3448 133.1623,184.9948 C133.9363,184.5538 134.4043,184.6888 134.5293,184.7398 C134.6803,184.7858 135.4923,185.0808 135.6873,186.1308 C135.7943,186.7148 135.4103,187.3508 134.8303,187.5498 C134.6093,187.6258 133.9403,187.7548 133.2673,187.7548" id="Fill-300" fill="#52267D"></path>
                <path d="M134.5884,185.2476 C134.5884,185.2476 134.3594,185.1276 133.9044,185.3886 C133.5024,185.6186 132.9024,185.9856 133.0614,186.4416 C133.2184,186.8986 134.4874,186.7286 134.7704,186.6326 C135.0524,186.5356 135.2304,186.2286 135.1804,185.9596 C135.0704,185.3726 134.5884,185.2476 134.5884,185.2476" id="Fill-302" fill="#EAF3FB"></path>
                <path d="M136.7886,184.4317 C137.2966,184.3637 138.0276,185.4667 137.9436,185.8037 C137.8606,186.1397 137.8026,187.2497 136.9806,187.3697 C136.3756,187.4597 134.2166,187.6837 133.7446,187.2147 C133.3096,186.7827 134.1606,184.7837 136.7886,184.4317" id="Fill-304" fill="#FFFFFF"></path>
                <path d="M136.8218,184.6793 C134.9738,184.9273 134.1428,185.9973 133.9438,186.5903 C133.8538,186.8563 133.8898,187.0063 133.9218,187.0373 C134.2248,187.3393 135.8708,187.2813 136.9448,187.1223 C137.4258,187.0523 137.5668,186.4813 137.6608,185.9523 C137.6758,185.8683 137.6878,185.7973 137.7008,185.7433 C137.7128,185.6343 137.5128,185.2073 137.1968,184.8983 C137.0178,184.7233 136.8828,184.6713 136.8218,184.6793 M135.2188,187.7563 C134.5348,187.7563 133.8528,187.6753 133.5678,187.3923 C133.3668,187.1923 133.3318,186.8413 133.4688,186.4303 C133.7868,185.4893 134.9258,184.4293 136.7558,184.1843 C137.1198,184.1373 137.4398,184.4143 137.6548,184.6543 C137.9168,184.9473 138.2748,185.5113 138.1858,185.8643 C138.1758,185.9083 138.1648,185.9693 138.1528,186.0393 C138.0698,186.5093 137.8968,187.4883 137.0168,187.6173 C136.8608,187.6403 136.0378,187.7563 135.2188,187.7563" id="Fill-306" fill="#52267D"></path>
                <path d="M136.9312,184.7374 C137.2312,184.6974 137.6612,185.3484 137.6132,185.5464 C137.5632,185.7454 137.5292,186.4004 137.0442,186.4714 C136.6872,186.5244 135.4122,186.6564 135.1352,186.3804 C134.8782,186.1244 135.3802,184.9454 136.9312,184.7374" id="Fill-308" fill="#EAF3FB"></path>
                <path d="M178.2827,184.2354 C178.2827,184.2354 177.3217,183.4524 176.0447,184.5014 C174.8777,185.4604 173.9997,186.9424 174.5217,187.0904 C175.0457,187.2394 175.9667,187.3844 176.9327,187.2074 C177.7747,187.0524 178.5177,187.2154 178.8557,185.4544 C179.0127,184.6334 178.2827,184.2354 178.2827,184.2354" id="Fill-310" fill="#FFFFFF"></path>
                <path d="M177.3921,184.2052 C177.0721,184.2052 176.6631,184.3162 176.2041,184.6952 C175.1721,185.5412 174.5421,186.6492 174.6211,186.8802 C174.8581,186.9272 175.8111,187.1602 176.8881,186.9612 C177.0041,186.9402 177.1181,186.9242 177.2301,186.9092 C177.9051,186.8182 178.3511,186.7572 178.6111,185.4072 C178.7301,184.7822 178.1851,184.4672 178.1621,184.4542 L178.1261,184.4302 C178.1071,184.4152 177.8321,184.2052 177.3921,184.2052 M176.0131,187.5382 C175.2581,187.5382 174.6631,187.3912 174.4541,187.3312 C174.2851,187.2832 174.1661,187.1552 174.1301,186.9792 C174.0011,186.3612 174.9531,185.0762 175.8851,184.3082 C177.1891,183.2372 178.2471,183.9032 178.4171,184.0242 C178.7271,184.2012 179.2501,184.7232 179.1011,185.5012 C178.7751,187.2052 178.0231,187.3072 177.2961,187.4052 C177.1931,187.4192 177.0861,187.4332 176.9781,187.4532 C176.6411,187.5152 176.3141,187.5382 176.0131,187.5382" id="Fill-312" fill="#52267D"></path>
                <path d="M178.064,184.5211 C178.064,184.5211 177.466,184.0331 176.671,184.6871 C175.945,185.2831 175.398,186.2051 175.724,186.2981 C176.049,186.3901 176.623,186.4801 177.224,186.3701 C177.748,186.2741 178.21,186.3751 178.42,185.2791 C178.518,184.7691 178.064,184.5211 178.064,184.5211" id="Fill-314" fill="#EAF3FB"></path>
                <path d="M179.647,184.2179 C180.155,184.1499 180.886,185.2529 180.802,185.5899 C180.719,185.9259 180.662,187.0359 179.839,187.1559 C179.234,187.2459 177.075,187.4699 176.603,187.0009 C176.168,186.5689 177.02,184.5699 179.647,184.2179" id="Fill-316" fill="#FFFFFF"></path>
                <path d="M179.6802,184.4654 C177.8332,184.7134 177.0012,185.7834 176.8022,186.3774 C176.7122,186.6424 176.7482,186.7924 176.7802,186.8234 C177.0832,187.1244 178.7282,187.0674 179.8032,186.9084 C180.2852,186.8384 180.4252,186.2674 180.5192,185.7384 C180.5342,185.6544 180.5462,185.5834 180.5592,185.5294 C180.5712,185.4204 180.3712,184.9934 180.0552,184.6844 C179.8762,184.5094 179.7412,184.4574 179.6802,184.4654 M178.0772,187.5424 C177.3932,187.5424 176.7112,187.4614 176.4262,187.1784 C176.2262,186.9784 176.1902,186.6284 176.3272,186.2174 C176.6452,185.2754 177.7842,184.2154 179.6142,183.9704 C179.9792,183.9174 180.2982,184.2004 180.5132,184.4404 C180.7752,184.7334 181.1332,185.2974 181.0442,185.6504 C181.0342,185.6944 181.0232,185.7554 181.0112,185.8254 C180.9282,186.2964 180.7552,187.2744 179.8752,187.4034 C179.7192,187.4264 178.8962,187.5424 178.0772,187.5424" id="Fill-318" fill="#52267D"></path>
                <path d="M179.7896,184.5235 C180.0896,184.4835 180.5206,185.1345 180.4716,185.3325 C180.4226,185.5315 180.3886,186.1865 179.9026,186.2575 C179.5456,186.3105 178.2716,186.4425 177.9936,186.1665 C177.7366,185.9105 178.2386,184.7315 179.7896,184.5235" id="Fill-320" fill="#EAF3FB"></path>
                <path d="M181.4517,184.7608 C181.4517,184.7608 181.0627,184.5578 180.2957,184.9978 C179.6167,185.3858 178.6037,186.0068 178.8707,186.7778 C179.1377,187.5488 181.2807,187.2618 181.7577,187.0988 C182.2337,186.9358 182.5337,186.4168 182.4497,185.9628 C182.2657,184.9718 181.4517,184.7608 181.4517,184.7608" id="Fill-322" fill="#FFFFFF"></path>
                <path d="M181.1851,184.9649 C181.0361,184.9649 180.7811,185.0079 180.4191,185.2149 C179.6661,185.6459 178.9211,186.1579 179.1071,186.6959 C179.2811,187.1999 181.1431,187.0459 181.6761,186.8629 C182.0261,186.7429 182.2671,186.3519 182.2041,186.0079 C182.0531,185.1949 181.4141,185.0099 181.3871,185.0029 L181.3431,184.9859 C181.3351,184.9839 181.2831,184.9649 181.1851,184.9649 M180.2751,187.5409 C179.5491,187.5409 178.8181,187.3909 178.6341,186.8599 C178.2891,185.8579 179.5601,185.1309 180.1711,184.7809 C180.9441,184.3389 181.4131,184.4739 181.5381,184.5259 C181.6891,184.5719 182.5011,184.8669 182.6961,185.9169 C182.8031,186.5009 182.4181,187.1369 181.8381,187.3359 C181.6171,187.4119 180.9491,187.5409 180.2751,187.5409" id="Fill-324" fill="#52267D"></path>
                <path d="M181.5972,185.0338 C181.5972,185.0338 181.3682,184.9138 180.9122,185.1748 C180.5112,185.4048 179.9102,185.7718 180.0692,186.2278 C180.2272,186.6848 181.4962,186.5148 181.7792,186.4188 C182.0612,186.3218 182.2382,186.0148 182.1882,185.7458 C182.0792,185.1588 181.5972,185.0338 181.5972,185.0338" id="Fill-326" fill="#EAF3FB"></path>
                <path d="M143.4575,184.9068 C143.6165,184.7728 143.8065,184.7358 143.9635,184.8088 C144.5465,185.0848 146.0205,185.8668 145.7155,186.9258 C145.4785,187.7498 144.9755,187.5018 144.0125,187.5198 L143.2855,187.5328 C143.1355,187.5358 143.0025,187.4588 142.9195,187.3208 C142.5015,186.6218 142.7275,185.5238 143.4075,184.9488 L143.4575,184.9068 Z" id="Fill-328" fill="#FFFFFF"></path>
                <path d="M144.1147,187.2686 C144.2827,187.2686 144.4367,187.2756 144.5767,187.2816 C145.2047,187.3096 145.3467,187.3016 145.4747,186.8556 C145.7077,186.0466 144.5607,185.3676 143.8567,185.0356 C143.7897,185.0056 143.7027,185.0276 143.6197,185.0976 L143.5697,185.1396 C142.9797,185.6376 142.7767,186.5956 143.1347,187.1916 C143.1707,187.2536 143.1977,187.2786 143.2807,187.2836 L144.0077,187.2696 C144.0447,187.2686 144.0797,187.2686 144.1147,187.2686 M144.8737,187.7906 C144.7707,187.7906 144.6637,187.7866 144.5537,187.7816 C144.3947,187.7746 144.2167,187.7676 144.0167,187.7696 L143.2907,187.7836 L143.2777,187.7836 C143.0447,187.7836 142.8317,187.6596 142.7057,187.4496 C142.2227,186.6446 142.4707,185.4126 143.2467,184.7586 L143.2967,184.7156 C143.5337,184.5176 143.8187,184.4676 144.0697,184.5826 C145.5347,185.2746 146.2037,186.1316 145.9557,186.9946 C145.7567,187.6856 145.3567,187.7906 144.8737,187.7906" id="Fill-330" fill="#52267D"></path>
                <path d="M143.5327,185.1441 C143.6477,185.0461 143.7867,185.0191 143.8997,185.0731 C144.3237,185.2731 145.3947,185.8411 145.1737,186.6111 C145.0017,187.2101 144.6357,187.0301 143.9357,187.0421 L143.4077,187.0521 C143.2987,187.0541 143.2017,186.9981 143.1417,186.8971 C142.8377,186.3901 143.0027,185.5921 143.4967,185.1751 L143.5327,185.1441 Z" id="Fill-332" fill="#EAF3FB"></path>
                <path d="M140.0483,184.5904 C140.0483,184.5904 139.1563,183.7284 137.7953,184.6654 C136.5503,185.5224 135.5503,186.9234 136.0593,187.1164 C136.5673,187.3094 137.4723,187.5314 138.4513,187.4374 C139.3023,187.3544 140.0293,187.5794 140.5163,185.8534 C140.7413,185.0494 140.0483,184.5904 140.0483,184.5904" id="Fill-334" fill="#FFFFFF"></path>
                <path d="M139.0435,184.4796 C138.7425,184.4796 138.3685,184.5746 137.9375,184.8716 C136.8375,185.6276 136.1165,186.6776 136.1745,186.9146 C136.4065,186.9806 137.3405,187.2956 138.4275,187.1876 C138.5445,187.1766 138.6595,187.1706 138.7725,187.1656 C139.4525,187.1316 139.9025,187.1086 140.2755,185.7856 C140.4475,185.1726 139.9315,184.8126 139.9085,184.7976 L139.8755,184.7716 C139.8555,184.7526 139.5555,184.4796 139.0435,184.4796 M137.9805,187.7096 C137.0035,187.7096 136.2145,187.4426 135.9705,187.3506 C135.8065,187.2876 135.6995,187.1496 135.6785,186.9716 C135.6025,186.3446 136.6585,185.1446 137.6535,184.4596 C139.0445,183.5006 140.0435,184.2586 140.2005,184.3916 C140.4945,184.5936 140.9715,185.1586 140.7565,185.9206 C140.2865,187.5906 139.5285,187.6286 138.7975,187.6646 C138.6915,187.6696 138.5855,187.6756 138.4765,187.6866 C138.3065,187.7026 138.1415,187.7096 137.9805,187.7096" id="Fill-336" fill="#52267D"></path>
                <path d="M139.8062,184.8565 C139.8062,184.8565 139.2512,184.3195 138.4042,184.9035 C137.6292,185.4365 137.0062,186.3085 137.3242,186.4285 C137.6402,186.5475 138.2022,186.6865 138.8122,186.6275 C139.3422,186.5765 139.7942,186.7165 140.0972,185.6425 C140.2382,185.1425 139.8062,184.8565 139.8062,184.8565" id="Fill-338" fill="#EAF3FB"></path>
                <path d="M186.8286,187.5328 L62.6946,187.5328 C61.4496,187.5328 60.4396,186.5228 60.4396,185.2778 L60.4396,3.2548 C60.4396,2.0098 61.4496,0.9998 62.6946,0.9998 L186.8286,0.9998 C188.0736,0.9998 189.0836,2.0098 189.0836,3.2548 L189.0836,185.2778 C189.0836,186.5228 188.0736,187.5328 186.8286,187.5328" id="Fill-340" fill="#FFFFFF"></path>
                <path d="M62.6948,2.0001 C62.0028,2.0001 61.4398,2.5631 61.4398,3.2551 L61.4398,185.2781 C61.4398,185.9701 62.0028,186.5331 62.6948,186.5331 L186.8288,186.5331 C187.5208,186.5331 188.0838,185.9701 188.0838,185.2781 L188.0838,3.2551 C188.0838,2.5631 187.5208,2.0001 186.8288,2.0001 L62.6948,2.0001 Z M186.8288,188.5331 L62.6948,188.5331 C60.8998,188.5331 59.4398,187.0731 59.4398,185.2781 L59.4398,3.2551 C59.4398,1.4601 60.8998,0.0001 62.6948,0.0001 L186.8288,0.0001 C188.6238,0.0001 190.0838,1.4601 190.0838,3.2551 L190.0838,185.2781 C190.0838,187.0731 188.6238,188.5331 186.8288,188.5331 L186.8288,188.5331 Z" id="Fill-342" fill="#375D81"></path>
                <polygon id="Fill-344" fill="#EFEFF6" points="180.2114 166.0953 69.3124 173.8143 69.3124 16.2913 181.4974 11.1453"></polygon>
                <path d="M145.8511,59.8092 C145.8511,73.4682 134.7781,84.5412 121.1191,84.5412 C107.4591,84.5412 96.3861,73.4682 96.3861,59.8092 C96.3861,46.1502 107.4591,35.0772 121.1191,35.0772 C134.7781,35.0772 145.8511,46.1502 145.8511,59.8092" id="Fill-346" fill="#FFFFFF"></path>
                <path d="M148.8511,54.8092 C148.8511,68.4682 137.7781,79.5412 124.1191,79.5412 C110.4591,79.5412 99.3861,68.4682 99.3861,54.8092 C99.3861,41.1502 110.4591,30.0772 124.1191,30.0772 C137.7781,30.0772 148.8511,41.1502 148.8511,54.8092" id="Fill-348" fill="#FFFFFF"></path>
                <path d="M124.1187,31.0768 C111.0327,31.0768 100.3867,41.7228 100.3867,54.8088 C100.3867,67.8948 111.0327,78.5418 124.1187,78.5418 C137.2047,78.5418 147.8507,67.8948 147.8507,54.8088 C147.8507,41.7228 137.2047,31.0768 124.1187,31.0768 M124.1187,80.5418 C109.9297,80.5418 98.3867,68.9978 98.3867,54.8088 C98.3867,40.6198 109.9297,29.0768 124.1187,29.0768 C138.3067,29.0768 149.8507,40.6198 149.8507,54.8088 C149.8507,68.9978 138.3067,80.5418 124.1187,80.5418" id="Fill-350" fill="#375D81"></path>
                <path d="M130.2661,67.0069 C130.3701,67.3159 130.4611,67.5259 130.4891,67.5949 C130.4971,67.6019 130.4801,67.5909 130.4891,67.5949 C130.4891,67.5949 130.4891,67.5969 130.4891,67.5949 C130.4901,67.5959 130.4881,67.5949 130.4881,67.5949 C129.7891,60.8549 133.6121,58.0459 134.8401,53.5689 C134.8461,53.5029 134.8591,53.4299 134.8791,53.3479 C134.9051,53.2479 134.9251,53.1449 134.9411,53.0419 C135.1231,51.8029 134.6161,50.3609 133.6551,48.8599 C133.6511,48.8509 133.6441,48.8429 133.6391,48.8359 C133.5611,48.7109 133.4761,48.5859 133.3911,48.4609 C133.3911,48.4609 133.3881,48.4589 133.3871,48.4559 C133.2301,48.2279 133.0611,47.9979 132.8841,47.7669 C132.8661,47.7429 132.8491,47.7179 132.8301,47.6949 C132.7811,47.6319 132.7291,47.5699 132.6811,47.5069 C132.6291,47.4409 132.5791,47.3759 132.5281,47.3129 C132.4741,47.2489 132.4221,47.1869 132.3701,47.1249 C132.3151,47.0589 132.2611,46.9949 132.2051,46.9289 C132.1681,46.8849 132.1271,46.8389 132.0871,46.7929 C130.5771,45.0529 128.6111,43.3349 126.5591,41.8389 C126.5591,41.8389 126.5441,41.8159 126.5591,41.8389 C126.8311,44.3749 126.8651,46.9119 126.6251,48.9409 C126.3351,51.3859 125.4601,54.2329 124.2461,56.8129 C121.4041,56.5799 118.4991,55.9219 116.2341,54.9549 C114.3411,54.1459 112.1711,52.8699 110.0971,51.3559 C110.1201,51.5669 110.1451,51.7749 110.1691,51.9859 C110.1771,52.0479 110.1861,52.1099 110.1941,52.1729 C110.2141,52.3229 110.2321,52.4719 110.2551,52.6219 C110.2641,52.6909 110.2741,52.7599 110.2851,52.8289 C110.3071,52.9799 110.3291,53.1289 110.3541,53.2779 C110.3631,53.3379 110.3731,53.3999 110.3831,53.4609 C110.4141,53.6499 110.4461,53.8379 110.4811,54.0249 C110.4831,54.0449 110.4851,54.0629 110.4901,54.0809 C110.5281,54.2989 110.5701,54.5149 110.6131,54.7309 C110.6151,54.7479 110.6201,54.7629 110.6231,54.7799 C110.6631,54.9749 110.7021,55.1649 110.7441,55.3569 C110.7531,55.3969 110.7621,55.4349 110.7691,55.4739 C110.8081,55.6489 110.8491,55.8229 110.8901,55.9969 C110.8991,56.0299 110.9081,56.0639 110.9151,56.0989 C110.9651,56.2989 111.0141,56.4989 111.0651,56.6949 C111.0671,56.6959 111.0671,56.6979 111.0671,56.6979 C111.2351,57.3309 111.4191,57.9419 111.6181,58.5279 C111.6201,58.5359 111.6231,58.5419 111.6251,58.5489 C111.9621,59.5279 112.3461,60.4299 112.7751,61.2189 C112.8381,61.3339 112.9021,61.4459 112.9671,61.5559 C112.9701,61.5599 112.9701,61.5649 112.9731,61.5689 L112.9741,61.5699 C113.0331,61.6699 113.0931,61.7679 113.1521,61.8619 L113.1541,61.8639 C113.1541,61.8639 113.1591,61.8709 113.1611,61.8749 C113.2251,61.9779 113.2911,62.0789 113.3581,62.1739 L113.3581,62.1749 C113.3681,62.1889 113.3761,62.1999 113.3871,62.2139 C113.3881,62.2139 113.3861,62.2159 113.3871,62.2169 C113.4741,62.3419 113.5631,62.4629 113.6511,62.5779 C113.6681,62.5969 113.6831,62.6159 113.6961,62.6339 C113.7011,62.6409 113.7071,62.6469 113.7121,62.6559 C113.8141,62.7849 113.9191,62.9099 114.0281,63.0269 C114.1021,63.1099 114.1791,63.1879 114.2561,63.2639 C114.2881,63.2969 114.3231,63.3259 114.3551,63.3569 C114.4031,63.4029 114.4521,63.4449 114.5001,63.4889 C114.5371,63.5209 114.5741,63.5489 114.6121,63.5799 C114.6581,63.6189 114.7061,63.6549 114.7531,63.6929 C114.7901,63.7209 114.8281,63.7469 114.8671,63.7739 C114.9161,63.8089 114.9641,63.8409 115.0131,63.8749 C115.0501,63.8979 115.0891,63.9219 115.1271,63.9449 C115.1801,63.9759 115.2331,64.0039 115.2841,64.0339 C115.3211,64.0539 115.3571,64.0719 115.3931,64.0899 C115.4531,64.1189 115.5131,64.1449 115.5751,64.1709 C115.6031,64.1809 115.6351,64.1979 115.6651,64.2089 C115.7581,64.2459 115.8511,64.2769 115.9441,64.3029 C116.0081,64.3219 116.0611,64.3409 116.1121,64.3609 C120.6121,65.5499 124.9941,63.6659 130.4891,67.5949" id="Fill-352" fill="#9452BA"></path>
                <polygon id="Fill-354" fill="#9ACDED" points="105.4692 102.1197 102.5002 99.1497 94.3672 107.2837 89.3122 102.2287 86.3432 105.1987 94.3412 113.1967 94.3672 113.1707 94.3922 113.1967"></polygon>
                <path d="M111.376,108.1734 L163.283,108.1734" id="Fill-356" fill="#FFFFFF"></path>
                <path d="M163.2827,109.1734 L111.3757,109.1734 C110.8237,109.1734 110.3757,108.7254 110.3757,108.1734 C110.3757,107.6214 110.8237,107.1734 111.3757,107.1734 L163.2827,107.1734 C163.8357,107.1734 164.2827,107.6214 164.2827,108.1734 C164.2827,108.7254 163.8357,109.1734 163.2827,109.1734" id="Fill-358" fill="#375D81"></path>
                <polygon id="Fill-360" fill="#9ACDED" points="105.4692 121.7384 102.5002 118.7684 94.3672 126.9024 89.3122 121.8474 86.3432 124.8174 94.3412 132.8154 94.3672 132.7894 94.3922 132.8154"></polygon>
                <path d="M111.376,128.732 L163.283,128.732" id="Fill-362" fill="#FFFFFF"></path>
                <path d="M163.2827,129.732 L111.3757,129.732 C110.8237,129.732 110.3757,129.284 110.3757,128.732 C110.3757,128.18 110.8237,127.732 111.3757,127.732 L163.2827,127.732 C163.8357,127.732 164.2827,128.18 164.2827,128.732 C164.2827,129.284 163.8357,129.732 163.2827,129.732" id="Fill-364" fill="#375D81"></path>
                <path d="M111.376,149.9835 L163.283,149.9835" id="Fill-366" fill="#FFFFFF"></path>
                <path d="M163.2827,150.9835 L111.3757,150.9835 C110.8237,150.9835 110.3757,150.5355 110.3757,149.9835 C110.3757,149.4315 110.8237,148.9835 111.3757,148.9835 L163.2827,148.9835 C163.8357,148.9835 164.2827,149.4315 164.2827,149.9835 C164.2827,150.5355 163.8357,150.9835 163.2827,150.9835" id="Fill-368" fill="#375D81"></path>
                <path d="M204.978,42.5416 C204.425,42.5416 203.978,42.0936 203.978,41.5416 L203.978,34.5416 C203.978,33.9896 204.425,33.5416 204.978,33.5416 C205.531,33.5416 205.978,33.9896 205.978,34.5416 L205.978,41.5416 C205.978,42.0936 205.531,42.5416 204.978,42.5416" id="Fill-370" fill="#375D81"></path>
                <path d="M208.478,39.0416 L201.478,39.0416 C200.925,39.0416 200.478,38.5936 200.478,38.0416 C200.478,37.4896 200.925,37.0416 201.478,37.0416 L208.478,37.0416 C209.031,37.0416 209.478,37.4896 209.478,38.0416 C209.478,38.5936 209.031,39.0416 208.478,39.0416" id="Fill-372" fill="#375D81"></path>
                <path d="M40.7275,159.2603 C40.4515,159.2603 40.2275,159.0363 40.2275,158.7603 L40.2275,154.8233 C40.2275,154.5463 40.4515,154.3233 40.7275,154.3233 C41.0035,154.3233 41.2275,154.5463 41.2275,154.8233 L41.2275,158.7603 C41.2275,159.0363 41.0035,159.2603 40.7275,159.2603" id="Fill-374" fill="#375D81"></path>
                <path d="M42.6963,157.2916 L38.7583,157.2916 C38.4823,157.2916 38.2593,157.0676 38.2593,156.7916 C38.2593,156.5156 38.4823,156.2916 38.7583,156.2916 L42.6963,156.2916 C42.9723,156.2916 43.1963,156.5156 43.1963,156.7916 C43.1963,157.0676 42.9723,157.2916 42.6963,157.2916" id="Fill-376" fill="#375D81"></path>
                <path d="M215.728,99.2603 C215.452,99.2603 215.228,99.0363 215.228,98.7603 L215.228,94.8233 C215.228,94.5463 215.452,94.3233 215.728,94.3233 C216.004,94.3233 216.228,94.5463 216.228,94.8233 L216.228,98.7603 C216.228,99.0363 216.004,99.2603 215.728,99.2603" id="Fill-378" fill="#375D81"></path>
                <path d="M217.6968,97.2916 L213.7588,97.2916 C213.4828,97.2916 213.2598,97.0676 213.2598,96.7916 C213.2598,96.5156 213.4828,96.2916 213.7588,96.2916 L217.6968,96.2916 C217.9728,96.2916 218.1968,96.5156 218.1968,96.7916 C218.1968,97.0676 217.9728,97.2916 217.6968,97.2916" id="Fill-380" fill="#375D81"></path>
                <path d="M46.7275,59.2603 C46.4515,59.2603 46.2275,59.0363 46.2275,58.7603 L46.2275,54.8233 C46.2275,54.5463 46.4515,54.3233 46.7275,54.3233 C47.0035,54.3233 47.2275,54.5463 47.2275,54.8233 L47.2275,58.7603 C47.2275,59.0363 47.0035,59.2603 46.7275,59.2603" id="Fill-382" fill="#375D81"></path>
                <path d="M48.6963,57.2916 L44.7583,57.2916 C44.4823,57.2916 44.2593,57.0676 44.2593,56.7916 C44.2593,56.5156 44.4823,56.2916 44.7583,56.2916 L48.6963,56.2916 C48.9723,56.2916 49.1963,56.5156 49.1963,56.7916 C49.1963,57.0676 48.9723,57.2916 48.6963,57.2916" id="Fill-384" fill="#375D81"></path>
                <path d="M24.415,93.4166 L24.415,101.5416" id="Fill-386" fill="#FFFFFF"></path>
                <path d="M24.415,102.5416 C23.863,102.5416 23.415,102.0936 23.415,101.5416 L23.415,93.4166 C23.415,92.8646 23.863,92.4166 24.415,92.4166 C24.967,92.4166 25.415,92.8646 25.415,93.4166 L25.415,101.5416 C25.415,102.0936 24.967,102.5416 24.415,102.5416" id="Fill-388" fill="#375D81"></path>
                <path d="M28.4775,97.4791 L20.3525,97.4791" id="Fill-390" fill="#FFFFFF"></path>
                <path d="M28.4775,98.4791 L20.3525,98.4791 C19.8005,98.4791 19.3525,98.0311 19.3525,97.4791 C19.3525,96.9271 19.8005,96.4791 20.3525,96.4791 L28.4775,96.4791 C29.0295,96.4791 29.4775,96.9271 29.4775,97.4791 C29.4775,98.0311 29.0295,98.4791 28.4775,98.4791" id="Fill-392" fill="#375D81"></path>
                <path d="M244.1665,187.2911 L251.1405,187.2911" id="Fill-394" fill="#FFFFFF"></path>
                <g id="Group-398" transform="translate(243.000000, 185.608000)">
                    <mask id="mask-2" fill="white">
                        <use xlink:href="#path-1"></use>
                    </mask>
                    <g id="Clip-397"></g>
                    <path d="M8.1401,2.6831 L1.1661,2.6831 C0.6141,2.6831 0.1661,2.2351 0.1661,1.6831 C0.1661,1.1311 0.6141,0.6831 1.1661,0.6831 L8.1401,0.6831 C8.6931,0.6831 9.1401,1.1311 9.1401,1.6831 C9.1401,2.2351 8.6931,2.6831 8.1401,2.6831" id="Fill-396" fill="#375D81" mask="url(#mask-2)"></path>
                </g>
                <path d="M1,187.2911 L9.973,187.2911" id="Fill-399" fill="#FFFFFF"></path>
                <path d="M9.9731,188.2911 L1.0001,188.2911 C0.4481,188.2911 0.0001,187.8431 0.0001,187.2911 C0.0001,186.7391 0.4481,186.2911 1.0001,186.2911 L9.9731,186.2911 C10.5251,186.2911 10.9731,186.7391 10.9731,187.2911 C10.9731,187.8431 10.5251,188.2911 9.9731,188.2911" id="Fill-401" fill="#375D81"></path>
                <path d="M93.3823,196.608 L160.5683,196.608" id="Fill-403" fill="#FFFFFF"></path>
                <path d="M160.5679,197.608 L93.3819,197.608 C92.8299,197.608 92.3819,197.16 92.3819,196.608 C92.3819,196.056 92.8299,195.608 93.3819,195.608 L160.5679,195.608 C161.1209,195.608 161.5679,196.056 161.5679,196.608 C161.5679,197.16 161.1209,197.608 160.5679,197.608" id="Fill-405" fill="#375D81"></path>
                <path d="M169.187,196.608 L178.328,196.608" id="Fill-407" fill="#FFFFFF"></path>
                <path d="M178.3276,197.608 L169.1866,197.608 C168.6346,197.608 168.1866,197.16 168.1866,196.608 C168.1866,196.056 168.6346,195.608 169.1866,195.608 L178.3276,195.608 C178.8806,195.608 179.3276,196.056 179.3276,196.608 C179.3276,197.16 178.8806,197.608 178.3276,197.608" id="Fill-409" fill="#375D81"></path>
                <path d="M85.5,196.5328 L80.5,196.6078" id="Fill-411" fill="#FFFFFF"></path>
                <path d="M80.4995,197.608 C79.9545,197.608 79.5085,197.17 79.4995,196.623 C79.4915,196.071 79.9325,195.616 80.4845,195.608 L85.4845,195.533 C86.0595,195.566 86.4915,195.965 86.4995,196.518 C86.5085,197.07 86.0675,197.525 85.5155,197.533 L80.5155,197.608 L80.4995,197.608 Z" id="Fill-413" fill="#375D81"></path>
                <path d="M99.2095,155.0289 L91.4655,155.0289 C90.3615,155.0289 89.4655,154.1329 89.4655,153.0289 L89.4655,145.2849 C89.4655,144.1809 90.3615,143.2849 91.4655,143.2849 L99.2095,143.2849 C100.3135,143.2849 101.2095,144.1809 101.2095,145.2849 L101.2095,153.0289 C101.2095,154.1329 100.3135,155.0289 99.2095,155.0289" id="Fill-415" fill="#FFFFFF"></path>
                <path d="M91.4658,144.2852 C90.9148,144.2852 90.4658,144.7342 90.4658,145.2852 L90.4658,153.0292 C90.4658,153.5802 90.9148,154.0292 91.4658,154.0292 L99.2098,154.0292 C99.7608,154.0292 100.2098,153.5802 100.2098,153.0292 L100.2098,145.2852 C100.2098,144.7342 99.7608,144.2852 99.2098,144.2852 L91.4658,144.2852 Z M99.2098,156.0292 L91.4658,156.0292 C89.8118,156.0292 88.4658,154.6832 88.4658,153.0292 L88.4658,145.2852 C88.4658,143.6312 89.8118,142.2852 91.4658,142.2852 L99.2098,142.2852 C100.8638,142.2852 102.2098,143.6312 102.2098,145.2852 L102.2098,153.0292 C102.2098,154.6832 100.8638,156.0292 99.2098,156.0292 L99.2098,156.0292 Z" id="Fill-417" fill="#375D81"></path>
            </g>
        </g>
    </g>
</svg>