<?xml version="1.0" encoding="UTF-8"?>
<svg width="512px" height="512px" viewBox="0 0 512 512" version="1.1" xmlns="http://www.w3.org/2000/svg" xmlns:xlink="http://www.w3.org/1999/xlink">
    <!-- Generator: Sketch 46.2 (44496) - http://www.bohemiancoding.com/sketch -->
    <title>Icon-card</title>
    <desc>Created with Sketch.</desc>
    <defs></defs>
    <g id="24x24" stroke="none" stroke-width="1" fill="none" fill-rule="evenodd">
        <g id="Icon-card" fill="#67768A">
            <path d="M472,472 L280,472 L280,280 L472,280 L472,472 Z M452,452 L452,300 L300,300 L300,452 L452,452 L452,452 Z M472,232 L280,232 L280,40 L472,40 L472,232 Z M452,212 L452,60 L300,60 L300,212 L452,212 L452,212 Z M232,472 L40,472 L40,280 L232,280 L232,472 Z M60,452 L212,452 L212,300 L60,300 L60,452 L60,452 Z M232,40 L232,232 L40,232 L40,40 L232,40 Z M212,60 L60,60 L60,212 L212,212 L212,60 L212,60 Z" id="Combined-Shape"></path>
        </g>
    </g>
</svg>