<?xml version="1.0" encoding="UTF-8"?>
<svg width="512px" height="512px" viewBox="0 0 512 512" version="1.1" xmlns="http://www.w3.org/2000/svg" xmlns:xlink="http://www.w3.org/1999/xlink">
  <!-- Generator: Sketch 51.1 (57501) - http://www.bohemiancoding.com/sketch -->
  <title>Common/Icons/pim.ai</title>
  <desc>Created with Sketch.</desc>
  <defs>
    <path d="M267.443727,129.59167 L267.443727,148.019033 C267.443727,148.102048 267.436956,148.184388 267.423648,148.265949 L335.672957,148.265949 C384.084731,148.265949 426.144232,184.536861 441.146869,235.903338 C461.559042,235.88484 474.7825,259.065483 474.7825,286.041334 C474.7825,313.023413 461.560052,336.205228 442.059117,336.205228 C440.675321,336.205228 439.311381,336.079541 437.972592,335.834942 C420.70428,382.30432 380.846961,413.929993 335.672957,413.929993 L172.475764,413.929993 C127.465804,413.929993 87.680675,382.524517 70.3170581,336.197493 C50.2224475,336.205228 37,313.023413 37,286.041334 C37,260.358639 48.9860448,238.116008 66.9630824,236.042512 C81.9433504,184.554429 124.063133,148.265949 172.475764,148.265949 L244.764126,148.265949 C244.750794,148.184388 244.74401,148.102048 244.74401,148.019033 L244.74401,129.36372 C231.331998,125.395504 222.449531,114.586322 222.449531,100.791741 L222.449531,95.3013617 C222.449531,93.8002467 223.731081,92.5527447 225.281685,92.5527447 L242.317093,92.5527447 C243.860617,92.5527447 245.149247,93.8002467 245.149247,95.3013617 L245.149247,100.791741 C245.149247,108.646891 254.594482,109.030738 256.492025,109.030738 C258.403729,109.030738 267.848964,108.646891 267.848964,100.791741 L267.848964,95.3013617 C267.848964,93.8002467 269.137594,92.5527447 270.681118,92.5527447 L287.709446,92.5527447 C289.26005,92.5527447 290.54868,93.8002467 290.54868,95.3013617 L290.54868,100.791741 C290.54868,114.85985 281.310467,125.822993 267.443727,129.59167 Z M424.674603,250.327688 C414.392753,202.244528 377.518616,168.034679 335.672957,168.034679 L172.475764,168.034679 C131.116789,168.034679 94.5604277,201.464941 83.8141422,248.793205 L81.3714651,259.551123 L71.0935799,255.905719 C70.6087776,255.733768 70.1570076,255.65357 69.7233829,255.65357 C67.4977861,255.65357 64.6117883,257.793738 61.9187268,262.514659 C58.5361859,268.444234 56.4990865,276.885706 56.4990865,286.041334 C56.4990865,295.200681 58.5362612,303.644289 61.9189953,309.574954 C64.6119757,314.296333 67.4978062,316.436498 69.7233829,316.436498 C70.4012187,316.436498 71.1310475,316.235759 71.963077,315.773417 L82.4748136,309.932263 L85.9739927,321.555843 C98.9888102,364.788488 133.719034,394.161262 172.475764,394.161262 L335.672957,394.161262 C375.061802,394.161262 410.243718,363.825883 422.754393,319.585818 L426.881297,304.992324 L438.375341,314.722869 C439.808177,315.935869 441.024114,316.436498 442.059117,316.436498 C444.284693,316.436498 447.170524,314.296333 449.863504,309.574954 C453.246238,303.644289 455.283413,295.200681 455.283413,286.041334 C455.283413,276.885706 453.246314,268.444234 449.863773,262.514659 C447.170711,257.793738 444.284713,255.65357 442.059117,255.65357 C441.310362,255.65357 440.442394,255.932009 439.391683,256.601669 L427.620445,264.103945 L424.674603,250.327688 Z M332.220056,359.318669 L332.220056,365.041196 L175.884914,365.041196 C138.793615,365.041196 108.83874,329.751524 108.83874,286.981664 L108.83874,268.035027 C108.83874,225.265167 138.793615,189.975494 175.884914,189.975494 L332.220056,189.975494 C369.316551,189.975494 399.272501,225.263948 399.272501,268.035027 L399.272501,286.981664 C399.272501,329.752743 369.316551,365.041196 332.220056,365.041196 L332.220056,359.318669 Z M332.220056,359.318669 L332.220056,353.596142 C362.674147,353.596142 387.983556,323.781367 387.983556,286.981664 L387.983556,268.035027 C387.983556,231.235323 362.674147,201.420549 332.220056,201.420549 L175.884914,201.420549 C145.436222,201.420549 120.127684,231.236396 120.127684,268.035027 L120.127684,286.981664 C120.127684,323.780294 145.436222,353.596142 175.884914,353.596142 L332.220056,353.596142 L332.220056,359.318669 Z M176.826084,292.964062 C174.777767,295.346517 171.21226,295.594427 168.862301,293.517784 C166.512343,291.441141 166.267815,287.826328 168.316133,285.443873 C186.16307,264.685607 215.558109,264.509939 233.59783,285.062382 C235.670176,287.423382 235.462282,291.04055 233.133486,293.141554 C230.804691,295.242557 227.23686,295.031789 225.164514,292.670789 C211.648482,277.272132 190.207069,277.400268 176.826084,292.964062 Z M286.394725,292.964062 C284.346407,295.346517 280.7809,295.594427 278.430942,293.517784 C276.080983,291.441141 275.836455,287.826328 277.884773,285.443873 C295.73171,264.685607 325.126749,264.509939 343.16647,285.062382 C345.238816,287.423382 345.030923,291.04055 342.702127,293.141554 C340.373331,295.242557 336.8055,295.031789 334.733154,292.670789 C321.217122,277.272132 299.77571,277.400268 286.394725,292.964062 Z M290.373015,84.2266101 C290.373015,85.7277251 289.084385,86.9752271 287.53378,86.9752271 L270.505453,86.9752271 C268.961929,86.9752271 267.673299,85.7277251 267.673299,84.2266101 L267.673299,67.748617 C267.673299,66.2406476 268.961929,65 270.505453,65 L287.53378,65 C289.084385,65 290.373015,66.2406476 290.373015,67.748617 L290.373015,84.2266101 Z M244.973582,84.2266101 C244.973582,85.7277251 243.684952,86.9752271 242.141428,86.9752271 L225.10602,86.9752271 C223.555415,86.9752271 222.273866,85.7277251 222.273866,84.2266101 L222.273866,67.748617 C222.273866,66.2406476 223.555415,65 225.10602,65 L242.141428,65 C243.684952,65 244.973582,66.2406476 244.973582,67.748617 L244.973582,84.2266101 Z" id="path-1"></path>
  </defs>
  <g id="Common/Icons/pim.ai" stroke="none" stroke-width="1" fill="none" fill-rule="evenodd">
    <mask id="mask-2" fill="white">
      <use xlink:href="#path-1"></use>
    </mask>
    <use id="Combined-Shape" fill="#5992C7" fill-rule="nonzero" xlink:href="#path-1"></use>
    <g id="Colors/Purple" mask="url(#mask-2)" fill="#5992C7">
      <g transform="translate(0.000000, -30.000000)" id="Background">
        <rect x="0" y="0" width="512" height="512"></rect>
      </g>
    </g>
  </g>
</svg>
