<?xml version="1.0" encoding="UTF-8"?>
<svg width="512px" height="512px" viewBox="0 0 512 512" version="1.1" xmlns="http://www.w3.org/2000/svg" xmlns:xlink="http://www.w3.org/1999/xlink">
    <!-- Generator: Sketch 47 (45396) - http://www.bohemiancoding.com/sketch -->
    <title>Icons/model</title>
    <desc>Created with Sketch.</desc>
    <defs></defs>
    <g id="Icons" stroke="none" stroke-width="1" fill="none" fill-rule="evenodd">
        <g id="Icons/model" fill="#5992C7">
            <path d="M385,150 L385,205 L375,205 L375,155 L325,155 L325,145 L385,145 L385,150 Z M375,416 L375,366 L385,366 L385,426 L380,426 L325,426 L325,416 L375,416 Z M136,416 L186,416 L186,426 L126,426 L126,421 L126,366 L136,366 L136,416 Z M216,150 L216,235 L211,235 L131,235 L126,235 L126,145 L131,145 L216,145 L216,150 Z M206,155 L136,155 L136,225 L206,225 L206,155 Z M421.5,472 L90,472 L80,472 L80,80 L90,80 L170,80 L170,100 L100,100 L100,452 L411,452 L411,100 L342,100 L342,80 L432,80 L432,90 L432,472 L421.5,472 Z M300,110 L300,60 L212,60 L212,110 L300,110 Z M310,130 L192,130 L192,120 L192,40 L202,40 L320,40 L320,50 L320,130 L310,130 Z M126,275 L146,275 L146,285 L126,285 L126,275 Z M126,325 L146,325 L146,335 L126,335 L126,325 Z M166,275 L186,275 L186,285 L166,285 L166,275 Z M166,325 L186,325 L186,335 L166,335 L166,325 Z M206,275 L226,275 L226,285 L206,285 L206,275 Z M206,325 L226,325 L226,335 L206,335 L206,325 Z M246,275 L266,275 L266,285 L246,285 L246,275 Z M246,325 L266,325 L266,335 L246,335 L246,325 Z M286,275 L306,275 L306,285 L286,285 L286,275 Z M326,275 L346,275 L346,285 L326,285 L326,275 Z M286,325 L306,325 L306,335 L286,335 L286,325 Z M326,325 L346,325 L346,335 L326,335 L326,325 Z M365,275 L385,275 L385,285 L365,285 L365,275 Z M365,325 L385,325 L385,335 L365,335 L365,325 Z" id="Combined-Shape"></path>
        </g>
    </g>
</svg>
