<?xml version="1.0" encoding="UTF-8"?>
<svg width="512px" height="512px" viewBox="0 0 512 512" version="1.1" xmlns="http://www.w3.org/2000/svg" xmlns:xlink="http://www.w3.org/1999/xlink">
    <!-- Generator: Sketch 48.2 (47327) - http://www.bohemiancoding.com/sketch -->
    <title>add_attribute</title>
    <desc>Created with Sketch.</desc>
    <defs></defs>
    <g id="Icons" stroke="none" stroke-width="1" fill="none" fill-rule="evenodd">
        <g id="add_attribute" fill="#67768A" fill-rule="nonzero">
            <path d="M94,94 L94,40 L114,40 L114,94 L167,94 L167,114 L114,114 L114,168 L94,168 L94,114 L40,114 L40,94 L94,94 Z M392.3751,105.844995 L458.220096,40 L472,53.7799043 L407.86964,117.910265 L404.478469,271.502392 L203.980861,472 L40,308.019139 L240.497608,107.521531 L392.3751,105.844995 Z M334.545455,202.258373 C341.204582,195.599246 341.204582,184.802668 334.545455,178.143541 C327.886327,171.484414 317.089749,171.484414 310.430622,178.143541 C303.771495,184.802668 303.771495,195.599246 310.430622,202.258373 C317.089749,208.9175 327.886327,208.9175 334.545455,202.258373 Z M372.668651,125.551445 L248.658588,126.920359 L67.5598086,308.019139 L203.980861,444.440191 L385.168133,263.25292 L387.93707,137.842834 L354.034499,171.745406 C362.236524,185.743553 360.333477,204.030159 348.325359,216.038278 C334.055801,230.307836 310.920276,230.307836 296.650718,216.038278 C282.38116,201.768719 282.38116,178.633194 296.650718,164.363636 C308.409005,152.605349 326.187246,150.536032 340.064412,158.155684 L372.668651,125.551445 Z" id="Combined-Shape"></path>
        </g>
    </g>
</svg>
