<?xml version="1.0" encoding="UTF-8"?>
<svg width="24px" height="24px" viewBox="0 0 24 24" version="1.1" xmlns="http://www.w3.org/2000/svg" xmlns:xlink="http://www.w3.org/1999/xlink">
    <!-- Generator: Sketch 46.2 (44496) - http://www.bohemiancoding.com/sketch -->
    <title>icon-folder_in</title>
    <desc>Created with Sketch.</desc>
    <defs></defs>
    <g id="24x24" stroke="none" stroke-width="1" fill="none" fill-rule="evenodd">
        <g id="icon-folder_in" fill="#5992C7">
            <path d="M9.59690351,6 L5,6 L5,11 L4,11 L4,5 L4.5,5 L10,5 L10,5.01914273 L10.0151299,5.00401283 L12.0111171,7 L20,7 L20,8 L12.2630408,8 L12.2627563,8.00440469 L11.6013082,8.00440469 L9.59690351,6 Z M5,18 L20,18 L20,19 L4,19 L4,18.5 L4,15 L5,15 L5,18 Z M19,8 L20,8 L20,18 L19,18 L19,8 Z M14,13 L10,17 L10,9 L14,13 Z M12.5857864,13 L11,11.4142136 L11,14.5857864 L12.5857864,13 Z M9,13.5 L2,13.5 L2,12.5 L9,12.5 L9,13.5 Z" id="Combined-Shape"></path>
        </g>
    </g>
</svg>
