<svg width="24px" height="24px" viewBox="0 0 24 24" version="1.1" xmlns="http://www.w3.org/2000/svg" xmlns:xlink="http://www.w3.org/1999/xlink">
    <g id="Icons-/-model" stroke="none" stroke-width="1" fill="none" fill-rule="evenodd" stroke-linecap="round" stroke-linejoin="round">
        <path d="M8,14.25 C8,14.1119288 8.11192881,14 8.25,14 C8.38807119,14 8.5,14.1119288 8.5,14.25 C8.5,14.3880712 8.38807119,14.5 8.25,14.5 C8.11192881,14.5 8,14.3880712 8,14.25 Z M10,14.25 C10,14.1119288 10.1119288,14 10.25,14 C10.3880712,14 10.5,14.1119288 10.5,14.25 C10.5,14.3880712 10.3880712,14.5 10.25,14.5 C10.1119288,14.5 10,14.3880712 10,14.25 Z M12,14.25 C12,14.1119288 12.1119288,14 12.25,14 C12.3880712,14 12.5,14.1119288 12.5,14.25 C12.5,14.3880712 12.3880712,14.5 12.25,14.5 C12.1119288,14.5 12,14.3880712 12,14.25 Z M14,14.25 C14,14.1119288 14.1119288,14 14.25,14 C14.3880712,14 14.5,14.1119288 14.5,14.25 C14.5,14.3880712 14.3880712,14.5 14.25,14.5 C14.1119288,14.5 14,14.3880712 14,14.25 Z M16,14.25 C16,14.1119288 16.1119288,14 16.25,14 C16.3880712,14 16.5,14.1119288 16.5,14.25 C16.5,14.3880712 16.3880712,14.5 16.25,14.5 C16.1119288,14.5 16,14.3880712 16,14.25 Z M7.5,9 L10.5,9 L10.5,12 L7.5,12 L7.5,9 Z M16.5,5 L19.2,5 C19.6418278,5 20,5.54365423 20,6.21428571 L20,20.7857143 C20,21.4563458 19.6418278,22 19.2,22 L4.8,22 C4.3581722,22 4,21.4563458 4,20.7857143 L4,6.21428571 C4,5.54365423 4.3581722,5 4.8,5 L7.5,5 M9.5,3 L14.3,3 L14.3,7 L9.5,7 L9.5,3 Z M7.5,19 L9.5,19 M7.5,16.5 L7.5,18.8536377 L7.5,16.5 Z M14.5,19 L16.5,19 M16.5,16.5 L16.5,18.8536377 L16.5,16.5 Z M14.5,9 L16.5,9 M16.5,9.5 L16.5,11.5 L16.5,9.5 Z" id="Combined-Shape" stroke="#67768A"></path>
    </g>
</svg>
