<?xml version="1.0" encoding="UTF-8"?>
<svg width="32px" height="32px" viewBox="0 0 32 32" version="1.1" xmlns="http://www.w3.org/2000/svg" xmlns:xlink="http://www.w3.org/1999/xlink">
    <title>launchpad_icon</title>
    <g id="launchpad_icon" stroke="none" stroke-width="1" fill="none" fill-rule="evenodd">
        <g id="Notifications/Default-Copy-2">
            <circle id="Oval" stroke="#D9DDE2" cx="16" cy="16" r="15.5"></circle>
            <g id="Icons/bell" transform="translate(6.000000, 6.000000)">
                <path d="M2.91666667,14.1666667 C3.6070226,14.1666667 4.16666667,14.7263107 4.16666667,15.4166667 C4.16666667,16.1070226 3.6070226,16.6666667 2.91666667,16.6666667 C2.22631073,16.6666667 1.66666667,16.1070226 1.66666667,15.4166667 C1.66666667,14.7263107 2.22631073,14.1666667 2.91666667,14.1666667 Z M2.91666667,8.75 C3.6070226,8.75 4.16666667,9.30964406 4.16666667,10 C4.16666667,10.6903559 3.6070226,11.25 2.91666667,11.25 C2.22631073,11.25 1.66666667,10.6903559 1.66666667,10 C1.66666667,9.30964406 2.22631073,8.75 2.91666667,8.75 Z M2.91666667,3.33333333 C3.6070226,3.33333333 4.16666667,3.8929774 4.16666667,4.58333333 C4.16666667,5.27368927 3.6070226,5.83333333 2.91666667,5.83333333 C2.22631073,5.83333333 1.66666667,5.27368927 1.66666667,4.58333333 C1.66666667,3.8929774 2.22631073,3.33333333 2.91666667,3.33333333 Z" id="Combined-Shape" fill="#67768A"></path>
                <path d="M5.83333333,15.4166667 L17.0833333,15.4166667 M5.83333333,10 L17.0833333,10 M5.83333333,4.58333333 L17.0833333,4.58333333" id="Combined-Shape" stroke="#67768A" stroke-linecap="round" stroke-linejoin="round"></path>
            </g>
        </g>
    </g>
</svg>