<?xml version="1.0" encoding="UTF-8"?>
<svg version="1.1" viewBox="0 0 32 32" xmlns="http://www.w3.org/2000/svg">
<title>icono_launchpad</title>
<g fill-rule="evenodd">
<circle cx="16" cy="16" r="16" fill="#9452BA"/>
<path d="m16 7c3.866 0 7 3.134 7 7 0 2.7921-1.6347 5.2024-3.9993 6.326l-7.361e-4 2.674c0 1.1046-0.89543 2-2 2h-2c-1.1046 0-2-0.89543-2-2l2.67e-4 -2.6735c-2.3651-1.1234-4.0003-3.534-4.0003-6.3265 0-3.866 3.134-7 7-7zm-1.1123 2.4495c0.26557-0.07568 0.54221 0.078255 0.61789 0.34382 0.07568 0.26557-0.078255 0.54221-0.34382 0.61789-1.0564 0.30105-1.84 0.92975-2.3744 1.9062-0.53648 0.98033-0.66026 1.9237-0.38419 2.8582 0.078236 0.26483-0.073026 0.54294-0.33785 0.62117-0.26483 0.078236-0.54294-0.073026-0.62117-0.33785-0.35401-1.1983-0.1944-2.4149 0.46599-3.6216 0.66248-1.2106 1.6629-2.0132 2.9775-2.3879z" fill="#fff"/>
</g>
</svg>
