<?xml version="1.0" encoding="UTF-8"?>
<svg width="32px" height="32px" viewBox="0 0 32 32" version="1.1" xmlns="http://www.w3.org/2000/svg" xmlns:xlink="http://www.w3.org/1999/xlink">
    <title>AppcuesLaunchpadIcon-Learning / 32by32</title>
    <g id="AppcuesLaunchpadIcon-Learning-/-32by32" stroke="none" stroke-width="1" fill="none" fill-rule="evenodd">
        <circle id="Oval" fill="#9452BA" cx="16" cy="16" r="16"></circle>
        <path d="M9.52089118,16.1161607 L15.8914,18.9867826 C16.1526367,19.1044987 16.4518192,19.1044987 16.7130559,18.9867826 L23.0835647,16.1161607 L23.0835647,16.1161607 L23.0835647,20.3884726 C23.0835615,20.5478873 23.0075449,20.697747 22.8789151,20.791914 C20.3910934,22.6131925 18.1988643,23.5238318 16.3022279,23.5238318 C14.4056053,23.5238318 12.2133943,22.6132057 9.72559478,20.7919535 C9.59691704,20.6978199 9.52089118,20.5479425 9.52089118,20.3885088 L9.52089118,16.1161607 L9.52089118,16.1161607 Z M25.5779637,14.9979241 L16.7125926,18.987341 C16.4516193,19.104779 16.1528366,19.104779 15.8918633,18.987341 L7.02649223,14.9979241 C6.52285189,14.7712859 6.29829725,14.1792782 6.52493541,13.6756379 C6.62521982,13.4527836 6.80363798,13.2743655 7.02649223,13.1740811 L15.8918633,9.1846641 C16.1528366,9.06722611 16.4516193,9.06722611 16.7125926,9.1846641 L25.5779637,13.1740811 C26.081604,13.4007192 26.3061586,13.9927269 26.0795205,14.4963673 C25.9792361,14.7192215 25.8008179,14.8976397 25.5779637,14.9979241 Z M26.1617575,14 L26.1617575,17.9557798" id="Combined-Shape" stroke="#FFFFFF" stroke-linecap="round" stroke-linejoin="round"></path>
    </g>
</svg>