<?xml version="1.0" encoding="utf-8"?>
<!-- Generator: Adobe Illustrator 22.1.0, SVG Export Plug-In . SVG Version: 6.00 Build 0)  -->
<svg version="1.1" id="Calque_1" xmlns="http://www.w3.org/2000/svg" xmlns:xlink="http://www.w3.org/1999/xlink" x="0px" y="0px"
	 viewBox="0 0 1000 1000" style="enable-background:new 0 0 1000 1000;" xml:space="preserve">
<style type="text/css">
	.st0{fill:#F6F7FB;}
	.st1{fill:#FFFFFF;stroke:#D9DDE2;stroke-width:8.8283;}
	.st2{fill:#F6F7FB;stroke:#D9DDE2;stroke-width:8.8283;}
	.st3{fill:none;stroke:#FFFFFF;stroke-width:8.8283;stroke-linecap:round;stroke-linejoin:round;}
	.st4{fill:none;stroke:#FFFFFF;stroke-width:4.4141;stroke-linecap:round;}
	.st5{filter:url(#Adobe_OpacityMaskFilter);}
	.st6{fill:#FFFFFF;}
	.st7{mask:url(#mask-2_1_);}
	.st8{fill:#9452BA;stroke:#52267D;stroke-width:8.8283;}
	.st9{fill:none;stroke:#52267D;stroke-width:2.2071;}
	.st10{fill:#F3E3FF;stroke:#52267D;stroke-width:4.4141;}
	.st11{fill:#FFFFFF;stroke:#52267D;stroke-width:4.4141;}
	.st12{fill:#F3E3FF;}
	.st13{opacity:0.3;fill:#F3E3FF;enable-background:new    ;}
	.st14{fill:#52267D;}
	.st15{fill:#EAF3FB;}
	.st16{fill:#F3E3FF;stroke:#52267D;stroke-width:2.2071;}
	.st17{fill:#FFFFFF;stroke:#52267D;stroke-width:2.2071;}
	.st18{opacity:0.3;}
	.st19{fill:none;stroke:#F3E3FF;stroke-width:1.1035;}
	.st20{fill:#FFFFFF;stroke:#D9DDE2;stroke-width:8.8283;stroke-linecap:round;}
</style>
<g>
	<title>Default-picture</title>
	<desc>Created with Sketch Beta.</desc>
	<g id="Illustrations">
		<g id="Default-picture">
			<circle id="Oval-2" class="st0" cx="500" cy="501.1" r="419.3"/>
			<g id="Group-3" transform="translate(57.000000, 48.000000)">
				<path id="Rectangle-path" class="st1" d="M138.4,100h618c4.9,0,8.8,4,8.8,8.8v706.3c0,4.9-4,8.8-8.8,8.8h-618
					c-4.9,0-8.8-4-8.8-8.8V108.8C129.6,104,133.5,100,138.4,100z"/>
				<path id="Rectangle-path_1_" class="st2" d="M197.6,173.9h494.8c4.9,0,8.8,4,8.8,8.8v450.2c0,4.9-4,8.8-8.8,8.8H197.6
					c-4.9,0-8.8-4-8.8-8.8V182.7C188.7,177.8,192.7,173.9,197.6,173.9z"/>
				<path id="Shape" class="st3" d="M326.7,277.3v39.4"/>
				<path id="Shape_1_" class="st3" d="M346.4,301.9H307"/>
				<path id="Shape_2_" class="st4" d="M607.6,341.3v24.6"/>
				<path id="Shape_3_" class="st4" d="M622.3,356.1h-24.6"/>
				<g id="Group-2" transform="translate(13.395349, 15.619048)">
					<g id="Rectangle-path_2_">
					</g>
					<defs>
						<filter id="Adobe_OpacityMaskFilter" filterUnits="userSpaceOnUse" x="41" y="380.3" width="599.8" height="610.3">
							<feColorMatrix  type="matrix" values="1 0 0 0 0  0 1 0 0 0  0 0 1 0 0  0 0 0 1 0"/>
						</filter>
					</defs>
					<mask maskUnits="userSpaceOnUse" x="41" y="380.3" width="599.8" height="610.3" id="mask-2_1_">
						<g class="st5">
							<path id="path-1_1_" class="st6" d="M187.8,157.5h495.4c4.9,0,8.8,4,8.8,8.8v448.2c0,4.9-4,8.8-8.8,8.8H187.8
								c-4.9,0-8.8-4-8.8-8.8V166.3C179,161.4,182.9,157.5,187.8,157.5z"/>
						</g>
					</mask>
					<g id="Group_1_" class="st7">
						<g transform="translate(-30.139535, 51.725417)">
							<path id="Shape_4_" class="st8" d="M374.7,934.5h-29.3c-10.1,0-19.1-6.1-22.8-15.5c-10.4-26.6-7.8-51.1-9-72.1
								c-2.3-38.8,3.8-58.5,9.6-91.1l43.8,1c0,0-3.8,16.1-6.2,64.4c-0.8,15,24,75.1,22.8,104.5C383.3,930.5,379.5,934.4,374.7,934.5
								L374.7,934.5z"/>
							<path id="Shape_5_" class="st8" d="M459.6,795.9l35.2-39.9l21.7,0.9c0,0,3,33.2,4.3,46.8c3.9,31.6,10.2,62.9,18.6,93.7
								c1.9,6.2,3.1,12.6,3.5,19.1c0.1,4.7-1.7,9.2-5,12.5c-3.3,3.3-7.8,5.1-12.5,5h-25.8c-15.1,0.1-28.3-10-32.1-24.6
								C456.1,864.4,459.6,795.9,459.6,795.9z"/>
							<polyline id="Shape_6_" class="st9" points="509.1,823.4 514.9,828.5 509.4,833.5 500.4,830.1 502.2,826.1 509.7,827.8 
								509.6,829.2 507.7,829.1 							"/>
							<path id="Shape_7_" class="st8" d="M509,647.3c-25.7-0.5-49.7-18.2-102.1-20.6c-0.6-3.1-1.6-6.1-2.9-9
								c-9.5-20.5-22.9-79.6-14.2-118.4l6.8-30.7c2.2-10.1,3.3-20.4,3.3-30.7l0,0c0-4.2-0.4-8.4-1.3-12.5c-0.2-1-0.4-2-0.7-3
								c-0.8-3-1.7-5.9-2.9-8.7c-0.4-0.9-0.8-1.9-1.2-2.8c-0.9-1.8-1.8-3.6-2.9-5.3c-1.1-1.7-2.2-3.4-3.3-5
								c-3.6-4.8-7.9-9.1-12.7-12.6c-1.6-1.2-3.3-2.3-5-3.3c-9.7-5.9-20.9-9-32.3-9h-10.2c-16.5,0-32.3,6.5-44,18.1
								c-1.4,1.4-2.8,2.9-4,4.4c-2.3,2.8-4.4,5.8-6.2,9c-0.7,1.2-1.3,2.4-1.9,3.6s-0.9,1.8-1.2,2.8c-2.4,5.7-3.9,11.7-4.6,17.9
								c-0.2,2.1-0.3,4.3-0.3,6.4l0,0c0,4.1,1.6,8.1,4.5,11s6.9,4.5,11,4.5h63.8l-9.7,55.3c-11.3,56.8-7.9,94.8,0.9,120.2
								c1.9,5.9,13.1,25.7,13.1,25.7c-32.1,50.1-81,72.4-133.3,78.7c-44.5,5.4-140.6-35.1-91-82c49.6-46.8-10.3-17.6-19.1-11.7
								c-8.8,5.9-59.7,49.9-4.5,114.4c23.4,27.3,49.9,52,113.5,71.1c10.2,3,65.9,7.1,96,15.7c89.4,25.6,162-2.2,202.7-61.2
								C553.9,720.7,519.1,647.5,509,647.3z"/>
							<path id="Shape_8_" class="st8" d="M453.3,562.5c-2.1-65.9,50.3-117.7,109.8-128.8c12.4-2.3,16.3-5.9,29.9-5.9h10.4
								c34.9,0,63.2,28.3,63.2,63.1c0,8.7-7.1,15.7-15.8,15.7H544.1c-23.4,10-38.1,39.9-40.7,56c-3.9,19.3-1.5,39.3,6.9,57.1
								c4.6,10.2,6.3,21.4,5,32.4h-0.6c-0.5,6.2-1.4,12.3-2.8,18.3c-10-7-25.5-17.6-28.4-18.9c-5.9-3.2-20-10.6-26.2-14.2
								C418.1,614.9,454.7,600.1,453.3,562.5z"/>
							<path id="Shape_9_" class="st10" d="M487.3,638.7c0.5-10.2,2.1-15.4,0.9-19.6c-6.6-23.8-8.7-31.4-8.7-56.6
								c0.6-25.7,14.2-49.3,36-62.8c10.1-1.4,20.4,1.1,28.8,7c-23.4,10-38.1,39.9-40.7,56c-3.9,19.3-1.5,39.3,6.9,57.1
								c4.6,10.2,6.3,21.4,5,32.4c0,0-28.8,10.8-28.2-13.4"/>
							<path id="Shape_10_" class="st11" d="M636.7,438.5c-0.3-6.8-4.6-12.8-11-15.4l-9.4-3.8c0,0-6.5,13.8,0.9,17.3
								C623.3,439.5,630.2,440.2,636.7,438.5L636.7,438.5z"/>
							<path id="Shape_11_" class="st11" d="M609.3,430.7c-0.6-9.3-8-16.6-17.2-17.2c-3.2-0.4-11.4,0-11.4,0s-3.8,15.9,5.1,17.6
								C593.6,432,601.5,431.9,609.3,430.7z"/>
							<path id="Shape_12_" class="st11" d="M575.7,432.1c0,0-2.2-16.6-17.2-12.1c-3.9,1.2-7.4,3.6-10,6.8c0,0,3,12.7,8.9,11.2
								C563.7,436.6,569.8,434.6,575.7,432.1z"/>
							<path id="Shape_13_" class="st11" d="M532.2,512.9c0,0-35.2-19-28.2-50.9c-7.7,6.5-14.9,13.7-21.5,21.4
								c0,6.3-1.2,31,33.1,47.7C520.7,524.7,526.3,518.6,532.2,512.9L532.2,512.9z"/>
							<path id="Shape_14_" class="st12" d="M632,435.3c-0.2-3.6-2.5-6.7-5.9-8l-4.9-2c0,0-3.4,7.1,0.5,9
								C624.9,435.9,628.5,436.3,632,435.3z"/>
							<path id="Shape_15_" class="st12" d="M602.1,427.3c-0.3-4.7-4.1-8.5-8.8-8.8c-1.6,0-5.9,0-5.9,0s-1.9,8.1,2.6,8.9
								C594.1,427.9,598.1,427.9,602.1,427.3z"/>
							<path id="Shape_16_" class="st12" d="M570.5,430.9c0,0-1.2-8.8-9.1-6.4c-2.1,0.7-3.9,1.9-5.3,3.6c0,0,1.6,6.7,4.7,5.9
								C564.1,433.3,567.4,432.2,570.5,430.9L570.5,430.9z"/>
							<path id="Shape_17_" class="st13" d="M611.3,496h-31.9c-8,0-14.5-6.5-14.5-14.5l0,0c0-8,6.5-14.5,14.5-14.5h2.6
								c16.2,0,29.3,13.1,29.3,29.3l0,0V496z"/>
							<path id="Shape_18_" class="st11" d="M610.7,495.4H582c-6.5,0-11.7-5.2-11.7-11.7l0,0c0-6.5,5.2-11.7,11.7-11.7h5.9
								c12.6,0,22.9,10.2,22.9,22.8l0,0L610.7,495.4z"/>
							<ellipse id="Oval" class="st14" cx="599" cy="483.4" rx="6.4" ry="6.4"/>
							<path id="Shape_19_" class="st14" d="M652.5,501.8L652.5,501.8c-1.8-0.4-3.4-1.4-4.6-2.9l-2.2-2.7l4.7,1l2.8,0.6
								c0.5,0.1,1,0.4,1.3,0.9c0.3,0.5,0.4,1,0.3,1.5l0,0c-0.1,0.5-0.4,1-0.8,1.3C653.6,501.8,653.1,501.9,652.5,501.8L652.5,501.8z
								"/>
							<path id="Shape_20_" class="st15" d="M526.3,513.6c0,0-26.9-14.5-26.5-43.6c-5.7,3.7-10.7,8.3-14.7,13.8
								c1.1,7.5,4,14.7,8.5,20.8C503.6,515.5,513.9,518.7,526.3,513.6z"/>
							<path id="Shape_21_" class="st11" d="M500.9,508.5c6.2,6.2,13.3,11.6,20.9,15.9"/>
							<path id="Shape_22_" class="st8" d="M395.5,621.8l5.9-11.7c22.4-54.9,25.8-87.2,14.2-139.6l-6.8-30.7
								c-2.2-10.1-3.3-20.4-3.3-30.7l0,0c0-34.4,27.9-62.3,62.3-62.3h10.1c33.9,0,61.5,27.5,61.5,61.4v1.8c0,8.1-6.6,14.6-14.6,14.6
								H461l9.8,55.2c29.3,148.3,26.6,208.4-31.6,196.1"/>
							<path id="Shape_23_" class="st11" d="M508.6,354.1c-0.9-6.8-5.4-12.5-11.7-15.1c-2.7-0.7-5.6-0.7-8.4,0c0,0-6.2,9.7,1.1,13.1
								C495.5,355,502.2,355.7,508.6,354.1z"/>
							<path id="Shape_24_" class="st11" d="M483.1,350.5c-0.6-10.5-9-18.9-19.5-19.5c-2.7-0.2-5.4-0.2-8.1,0c0,0-9,17.9,1.1,19.6
								C465.3,351.8,474.3,351.7,483.1,350.5z"/>
							<path id="Shape_25_" class="st11" d="M448.9,354.3c0,0-2.6-16.3-17.2-11.4c-3.8,1.3-7.1,3.7-9.6,6.9c0,0,3.2,12.4,9,10.8
								C437.2,359,443.1,356.9,448.9,354.3L448.9,354.3z"/>
							<path id="Shape_26_" class="st10" d="M507.6,645.3c-3.1-2.4-6.7-4.1-10.5-5"/>
							<path id="Shape_27_" class="st10" d="M486.5,645c10.4-42.3-8.4-122.9-11.7-143l-13.7-79.7h-5.9c-3.8,0.4-7.2,2.3-9.5,5.2
								c-2.3,3-3.3,6.8-2.7,10.5l9.9,69.1c3.3,23.4,6.9,131.8-33.9,155.1c-8.7,5-22.8,1.7-28.1-0.8c-19.3-9.2-24.9-33.4-29.3-52.7
								c-8.8-40.2-1.9-71.8,0-103.3l2.1-39.5c0.5-7.4-5-13.9-12.4-14.7H344l-13.1,79.7c-3.9,22.7-14.1,101.4,32.3,138.3
								c0.8,0.6-11.3,3.4-7.8,9.6c13.9,24.6,54.4,28.6,62.1,39.1c29.3,40.6,1.9,127.3,1.9,127.3c19-7.7,36.8-18.2,52.7-31
								c46.9-42.2,53.1-103.4,53.4-121.4c0-21.5-5.4-35.1-12.4-42.9"/>
							<path id="Shape_28_" class="st11" d="M103.8,680.3c-4.1-4.9-5.2-11.6-2.9-17.6c1.2-2.4,3-4.4,5.3-5.9c0,0,10.4,1.8,8.3,8.8
								C112.8,671.7,109,676.9,103.8,680.3L103.8,680.3z"/>
							<path id="Shape_29_" class="st12" d="M106,670c-1.3-1.6-1.7-3.9-1.1-5.9c0.4-0.8,1.1-1.5,1.9-2c0,0,3.6,0.6,2.9,3.1
								C109.1,667.2,107.8,668.9,106,670L106,670z"/>
							<path id="Shape_30_" class="st11" d="M158.6,733.3c3.5-9.1-0.3-19.4-8.8-24.1c-2.2-1.3-4.5-2.4-6.9-3.3c0,0-14.6,11.7-6.8,17
								C143.1,727.4,150.7,730.9,158.6,733.3L158.6,733.3z"/>
							<path id="Shape_31_" class="st12" d="M153.4,728c2-5.1-0.1-10.8-4.9-13.3c-1.2-0.7-2.5-1.3-3.8-1.8c0,0-8.1,6.4-3.8,9.4
								C144.7,724.8,148.9,726.7,153.4,728z"/>
							<path id="Shape_32_" class="st11" d="M112.2,685.8c0,0-11,9.7-0.5,18.3c2.8,2.2,6.2,3.6,9.8,3.9c0,0,7.8-8.3,3.9-11.7
								C121.3,692.5,116.9,689,112.2,685.8z"/>
							<path id="Shape_33_" class="st12" d="M113.9,692.9c0,0-4.9,4.3,0,8.1c1.2,1,2.7,1.6,4.3,1.8c0,0,3.5-3.7,1.7-5.3
								C118,695.8,116,694.3,113.9,692.9L113.9,692.9z"/>
							<path id="Shape_34_" class="st11" d="M211.5,741c2-7.9-2.7-15.9-10.6-18c-14.2-5.2-18-0.9-18-0.9s-7.9,13.2-0.8,17.6
								C189,744,211.5,741,211.5,741z"/>
							<path id="Shape_35_" class="st12" d="M204.9,738c1-4.1-1.4-8.3-5.5-9.4c-7.4-2.7-9.4-0.5-9.4-0.5s-4.1,6.8-0.4,9.1
								C194.6,738.6,199.8,738.8,204.9,738z"/>
							<path id="Shape_36_" class="st11" d="M464.1,441.7c-17.3,7.9-37,8.4-54.6,1.2c2.2,9.9,6.7,29.7,6.7,29.7s29.3,9.1,52.4-5.3
								C466.2,454.3,464.1,441.7,464.1,441.7z"/>
							<path id="Shape_37_" class="st11" d="M294.3,384.1c0.9-6.8,5.4-12.6,11.7-15.2c4-1,8.1-1.6,12.2-1.7c0,0,2.5,11.7-4.8,14.9
								C307.5,385,300.7,385.7,294.3,384.1L294.3,384.1z"/>
							<path id="Shape_38_" class="st11" d="M321.8,378.5c0.5-9.1,7.8-16.4,17-17c2.4-0.2,4.7-0.2,7.1,0c0,0,7.9,15.2-0.9,17
								C337.2,379.6,329.4,379.6,321.8,378.5L321.8,378.5z"/>
							<path id="Shape_39_" class="st11" d="M353.3,379.6c0,0,2.6-16.4,17.3-11.7c3.8,1.3,7.2,3.7,9.7,7c0,0-3.2,12.7-9,11.1
								C365.1,384.3,359.1,382.2,353.3,379.6z"/>
							<path id="Shape_40_" class="st12" d="M503.1,351.3c-0.5-3.6-2.9-6.7-6.3-8.1c-1.5-0.4-3-0.4-4.5,0c0,0-3.3,5.2,0.6,7
								C496,351.8,499.6,352.2,503.1,351.3L503.1,351.3z"/>
							<path id="Shape_41_" class="st12" d="M476.7,347.5c-0.4-6.6-5.7-11.8-12.2-12.2c-1.7-0.1-3.4-0.1-5.1,0
								c0,0-5.9,11.2,0.6,12.3C465.6,348.3,471.2,348.3,476.7,347.5L476.7,347.5z"/>
							<path id="Shape_42_" class="st12" d="M442.5,352.7c0,0-1.5-9.4-9.9-6.6c-2.2,0.8-4.1,2.1-5.5,4c0,0,1.9,7.1,5.2,6.2
								C435.8,355.4,439.2,354.2,442.5,352.7z"/>
							<path id="Shape_43_" class="st12" d="M299.7,381.3c0.5-3.6,2.9-6.7,6.3-8c2.1-0.5,4.3-0.8,6.4-0.9c0,0,1.3,5.9-2.5,7.9
								C306.7,381.8,303.1,382.2,299.7,381.3L299.7,381.3z"/>
							<path id="Shape_44_" class="st12" d="M328.2,375.9c0.3-5,4.3-9.1,9.4-9.4c1.3-0.1,2.6-0.1,3.9,0c0,0,4.3,8.6-0.5,9.4
								C336.7,376.5,332.4,376.5,328.2,375.9z"/>
							<path id="Shape_45_" class="st12" d="M359.2,378.5c0,0,1.4-9,9.4-6.3c2.1,0.7,3.9,2,5.3,3.8c0,0-1.8,6.8-5,5.9
								C365.6,381,362.3,379.9,359.2,378.5L359.2,378.5z"/>
							<path id="Shape_46_" class="st11" d="M396.3,469.7c-18.3,2.5-36.8,1.7-54.8-2.2c-2.6,14.5-4.3,25.5-4.3,25.5
								s18.5,12.6,52.7,5.3C394,479.7,396.3,469.7,396.3,469.7z"/>
							<path id="Shape_47_" class="st13" d="M347,412.5h2.8c8,0,14.5,6.5,14.5,14.5l0,0c0,8-6.5,14.5-14.5,14.5h-31.9l0,0
								C318,425.5,331,412.6,347,412.5L347,412.5z"/>
							<path id="Shape_48_" class="st11" d="M341.3,418.2h6.5c5.9,0,10.6,4.7,10.6,10.6l0,0c0,3.3-1.2,6.4-3.5,8.7
								c-2.3,2.3-5.4,3.7-8.6,3.7h-27.8l0,0c0-12.6,10.2-22.8,22.9-22.8L341.3,418.2z"/>
							
								<ellipse id="Oval_1_" transform="matrix(0.4373 -0.8993 0.8993 0.4373 -204.2723 539.3243)" class="st14" cx="328.8" cy="432.9" rx="6.4" ry="6.4"/>
							<path id="Shape_49_" class="st13" d="M492.1,414h-31.9c-8,0-14.5-6.5-14.5-14.5l0,0c0-8,6.5-14.5,14.5-14.5h2.8
								c16.2,0,29.3,13.1,29.3,29.3l0,0L492.1,414z"/>
							<path id="Shape_50_" class="st11" d="M491.6,413.5h-28.7c-6.5,0-11.7-5.2-11.7-11.7l0,0c0-6.5,5.2-11.7,11.7-11.7h5.9
								c6.1,0,11.9,2.4,16.2,6.7c4.3,4.3,6.7,10.1,6.7,16.1l0,0L491.6,413.5z"/>
							
								<ellipse id="Oval_2_" transform="matrix(0.7684 -0.64 0.64 0.7684 -146.2069 399.9357)" class="st14" cx="479.5" cy="402" rx="6.4" ry="6.4"/>
							<path id="Shape_51_" class="st14" d="M279.4,448.2L279.4,448.2c1.8-0.4,3.4-1.4,4.6-2.9l2.2-2.7l-4.7,1l-2.8,0.6
								c-0.5,0.1-1,0.4-1.3,0.9c-0.3,0.5-0.4,1-0.3,1.5l0,0c0.1,0.5,0.4,1,0.8,1.3C278.4,448.2,278.9,448.3,279.4,448.2L279.4,448.2
								z"/>
							<path id="Shape_52_" class="st14" d="M525.6,418.3L525.6,418.3c-1.8-0.4-3.4-1.4-4.6-2.9l-2.2-2.7l4.7,1l2.8,0.6
								c0.5,0.1,1,0.4,1.3,0.9c0.3,0.5,0.4,1,0.3,1.5l0,0c-0.1,0.5-0.4,1-0.8,1.3C526.7,418.3,526.1,418.4,525.6,418.3L525.6,418.3z
								"/>
							<path id="Shape_53_" class="st15" d="M461.4,445.8c-15.3,5.9-32.2,6.2-47.8,0.9c1.2,7.2,2.8,14.3,4.7,21.3
								c8,0.5,16,0.1,24-1.1C456,464.2,461.4,458,461.4,445.8z"/>
							<path id="Shape_54_" class="st11" d="M428.3,463.8c13.2,0.9,26.3-1.5,38.4-6.8"/>
							<path id="Shape_55_" class="st15" d="M351.8,473c12.9,3.5,26.5,4.2,39.7,2.3c-1.4,6.2-3.2,12.3-5.4,18.2
								C386.1,493.4,358.1,489.7,351.8,473z"/>
							<path id="Shape_56_" class="st16" d="M363.1,669.5c0,0,1.3,0.9,3.1,2"/>
							<path id="Shape_57_" class="st11" d="M349.7,480.9c14.5,2.4,29.2,2.9,43.8,1.3"/>
							<path id="Shape_58_" class="st17" d="M384.5,917.4c4.2-2.8,9.7-2.1,13.1,1.6c6.9,5.9,11.7,14.3,8.9,15.2
								c-4.6,1.3-9.4,1.5-14.1,0.7c-4.9-0.9-9.3,0-11.3-10.2C380.7,921.7,382,918.8,384.5,917.4z"/>
							<path id="Shape_59_" class="st15" d="M385.8,919c2.6-1.7,6-1.3,8.1,1c4.3,3.5,7.4,8.9,5.6,9.4c-2.9,0.8-5.9,0.9-8.8,0.4
								c-3-0.6-5.9,0-7-6.4C383.4,921.7,384.2,919.9,385.8,919L385.8,919z"/>
							<path id="Shape_60_" class="st17" d="M376.5,917.2c-3-0.4-7.3,5.9-6.8,8c0.5,2.2,0.8,8.5,5.9,9.2c3.6,0.5,16.2,1.8,19-0.9
								C397.3,930.8,391.9,919.3,376.5,917.2z"/>
							<path id="Shape_61_" class="st15" d="M375.7,919.1c-1.8,0-4.3,3.6-4,4.7c0.3,1.2,0.5,5,3.3,5.4c2.9,0.4,9.6,1.1,11.2-0.5
								C387.9,927,384.7,920.2,375.7,919.1z"/>
							<path id="Shape_62_" class="st17" d="M363.9,918.5c0,0,2.6-1.3,7.7,1.6c5.1,2.9,11.2,6.7,9.4,11.7s-16,3.2-19.1,2.1
								c-3.1-1.1-5-4.3-4.6-7.6C357.9,922.7,360.5,919.7,363.9,918.5L363.9,918.5z"/>
							<path id="Shape_63_" class="st15" d="M362.9,920.3c0,0,1.5-0.8,4.5,0.9c3,1.8,6.6,4,5.9,7c-0.8,3-9.4,1.9-11.3,1.3
								c-1.8-0.7-3-2.5-2.7-4.4C359.6,922.9,361,921.1,362.9,920.3z"/>
							<path id="Shape_64_" class="st8" d="M423.4,755.7c-1.4,28.3,0.5,56.7,5.4,84.6c7.8,48.1,21.6,63.2,20.6,75.7
								c-0.8,9.7-4.9,18.5-14.6,18.5h-28.9c-13.5,0-25.5-8.6-29.8-21.4c-4.5-13.7-7.7-27.7-9.3-42c-1.7-20.8-2.1-41.6-1.3-62.5"/>
							<path id="Shape_65_" class="st8" d="M274.9,777.4c9.4,8.8,14.6,21.2,14.4,34.1c0,16.6-9.7,37.6-3.6,65.2
								c5.4,24.5,16.2,28.9,13,50.9c-0.7,4-4.2,6.9-8.2,6.8h-32.1c-14.9,0-27.6-10.7-30-25.4c-4.8-34.7-3.6-70,3.7-104.3"/>
							<polyline id="Shape_66_" class="st9" points="268.6,813.9 266.7,812.6 260.5,814 267.3,818.3 275.5,814.3 267,807.5 
								263.2,808.8 							"/>
							<path id="Shape_67_" class="st11" d="M443.1,917.4c4.2-2.8,9.7-2.1,13.1,1.6c6.9,5.9,11.7,14.3,8.9,15.2
								c-4.6,1.3-9.4,1.5-14.1,0.7c-4.9-0.9-9.3,0-11.3-10.2C439.2,921.7,440.5,918.8,443.1,917.4z"/>
							<path id="Shape_68_" class="st15" d="M444.3,919c2.6-1.7,6-1.3,8.1,1c4.3,3.5,7.4,8.9,5.6,9.4c-2.9,0.8-5.9,0.9-8.8,0.4
								c-3-0.6-5.9,0-7-6.4C441.9,921.7,442.8,919.9,444.3,919L444.3,919z"/>
							<polyline id="Shape_69_" class="st9" points="398.8,832.1 410.4,835.7 408.8,846.4 397,847.2 391.5,840.9 398.6,837 
								404.4,838.7 400.7,842.8 							"/>
							<g id="Group" transform="translate(19.912005, 13.262928)" class="st18">
								<path id="Shape_70_" class="st19" d="M626,467.4c-0.2,1.6-1.6,2.7-3.1,2.7c-1.6,0-2.9-1.2-3.1-2.7"/>
								<path id="Shape_71_" class="st19" d="M632.3,467.4c0.2,1.2-0.4,2.4-1.4,3.1c-1,0.7-2.4,0.7-3.4,0s-1.6-1.9-1.4-3.1"/>
								<path id="Shape_72_" class="st19" d="M629.1,470.5c0.2,1.2-0.4,2.4-1.4,3.1c-1,0.7-2.4,0.7-3.4,0c-1-0.7-1.6-1.9-1.4-3.1"/>
								<path id="Shape_73_" class="st19" d="M505.7,464.5c-2.2,1.1-4.8,0.4-6.1-1.7c-1.3-2.1-0.7-4.8,1.2-6.2"/>
								<path id="Shape_74_" class="st19" d="M504.2,470.8c-1.4,1-3.3,1.2-4.8,0.4c-1.5-0.8-2.5-2.4-2.5-4.1c0-1.7,0.9-3.3,2.5-4.1"
									/>
								<path id="Shape_75_" class="st19" d="M356.7,569.9c0,2.3-1.9,4.2-4.2,4.2s-4.2-1.9-4.2-4.2"/>
								<path id="Shape_76_" class="st19" d="M365.1,569.9c0,2.3-1.9,4.2-4.2,4.2s-4.2-1.9-4.2-4.2"/>
								<path id="Shape_77_" class="st19" d="M360.9,574.3c0,2.3-1.9,4.2-4.2,4.2c-2.3,0-4.2-1.9-4.2-4.2"/>
								<path id="Shape_78_" class="st19" d="M482.4,836.4c0,2.3-1.9,4.2-4.2,4.2s-4.2-1.9-4.2-4.2"/>
								<path id="Shape_79_" class="st19" d="M490.9,836.4c0,2.3-1.9,4.2-4.2,4.2s-4.2-1.9-4.2-4.2"/>
								<path id="Shape_80_" class="st19" d="M486.7,840.6c0,2.3-1.9,4.2-4.2,4.2c-2.3,0-4.2-1.9-4.2-4.2"/>
								<path id="Shape_81_" class="st19" d="M363.1,435.7c0,2.6-2.1,4.6-4.6,4.6s-4.6-2.1-4.6-4.6"/>
								<path id="Shape_82_" class="st19" d="M367.8,440.4c0,2.6-2.1,4.6-4.6,4.6c-2.6,0-4.6-2.1-4.6-4.6"/>
								<path id="Shape_83_" class="st19" d="M422.4,517.4c-0.7,2.5-3,4.2-5.6,4.2s-4.9-1.7-5.6-4.2"/>
								<path id="Shape_84_" class="st19" d="M428,523c0.7,2.4-0.2,5-2.2,6.4c-2,1.4-4.8,1.4-6.8,0c-2-1.4-2.9-4-2.2-6.4"/>
								<path id="Shape_85_" class="st19" d="M504,377.7c0,2.1-1.7,3.7-3.8,3.7c-2.1,0-3.8-1.7-3.8-3.7"/>
								<path id="Shape_86_" class="st19" d="M507.8,381.5c0,2.1-1.7,3.7-3.8,3.7c-2.1,0-3.8-1.7-3.8-3.7"/>
								<path id="Shape_87_" class="st19" d="M150.1,756.6c-1.6,1.8-4.4,2-6.2,0.4c-1.8-1.6-2-4.4-0.4-6.2"/>
								<path id="Shape_88_" class="st19" d="M150.6,762.7c-1.6,1.8-4.4,2-6.2,0.4c-1.8-1.6-2-4.4-0.4-6.2"/>
								<path id="Shape_89_" class="st19" d="M322.1,696.8c-0.7,1.8-2.3,3-4.2,3.3c-1.9,0.2-3.7-0.6-4.8-2.2
									c-1.1-1.6-1.2-3.6-0.3-5.3"/>
								<path id="Shape_90_" class="st19" d="M331.4,701c-1.3,2.4-4.2,3.3-6.6,2.2c-2.4-1.1-3.6-3.9-2.7-6.4"/>
								<path id="Shape_91_" class="st19" d="M324.7,703.5c-0.7,1.8-2.3,3-4.2,3.3c-1.9,0.2-3.7-0.6-4.8-2.2s-1.2-3.6-0.3-5.3"/>
								<path id="Shape_92_" class="st19" d="M333.8,707.7c-0.7,1.8-2.3,3-4.2,3.3c-1.9,0.2-3.7-0.6-4.8-2.2
									c-1.1-1.6-1.2-3.6-0.3-5.3"/>
								<path id="Shape_93_" class="st19" d="M318,706c-0.7,1.8-2.3,3-4.2,3.3c-1.9,0.2-3.7-0.6-4.8-2.2c-1.1-1.6-1.2-3.6-0.3-5.3"
									/>
								<path id="Shape_94_" class="st19" d="M410.6,415.7c0,2.8-2.3,5.1-5.1,5.1s-5.1-2.3-5.1-5.1"/>
								<path id="Shape_95_" class="st19" d="M412.4,609.4c0,2.8-2.3,5.1-5.1,5.1s-5.1-2.3-5.1-5.1"/>
								<path id="Shape_96_" class="st19" d="M354.3,502.5c0,2.2-1.7,3.9-3.9,3.9c-2.2,0-3.9-1.7-3.9-3.9"/>
								<path id="Shape_97_" class="st19" d="M261.8,414.4c0,1.6-1.3,2.9-2.9,2.9c-1.6,0-2.9-1.3-2.9-2.9"/>
								<path id="Shape_98_" class="st19" d="M237.6,842.3c-0.5,2.8-3.1,4.6-5.9,4.2c-2.8-0.5-4.6-3.1-4.2-5.9"/>
								<path id="Shape_99_" class="st19" d="M379.2,880.1c0.7,2.4-0.2,5-2.2,6.4c-2,1.4-4.8,1.4-6.8,0c-2-1.4-2.9-4-2.2-6.4"/>
								<path id="Shape_100_" class="st19" d="M384.8,885.7c-0.7,2.5-3,4.2-5.6,4.2s-4.9-1.7-5.6-4.2"/>
							</g>
							<path id="Shape_101_" class="st11" d="M435.1,917.2c-3-0.4-7.3,5.9-6.8,8c0.5,2.2,0.8,8.5,5.9,9.2c3.6,0.5,16.2,1.8,19-0.9
								C455.9,930.8,450.5,919.3,435.1,917.2z"/>
							<path id="Shape_102_" class="st15" d="M434.3,919.1c-1.8,0-4.3,3.6-4,4.7c0.3,1.2,0.5,5,3.3,5.4c2.9,0.4,9.6,1.1,11.2-0.5
								C446.4,927,443.3,920.2,434.3,919.1z"/>
							<path id="Shape_103_" class="st11" d="M424.5,920.4c0,0,2.3-1.2,6.8,1.4c4.5,2.6,9.9,5.9,8.3,10.4
								c-1.6,4.6-14.1,2.8-16.9,1.9c-2.8-1-4.5-3.8-4-6.7C419.1,924.2,421.4,921.5,424.5,920.4z"/>
							<path id="Shape_104_" class="st15" d="M423.7,922c0,0,1.3-0.7,4,0.8c2.6,1.5,5.9,3.5,4.9,6.1c-0.9,2.6-8.4,1.7-10,1.1
								c-1.6-0.6-2.6-2.2-2.4-3.9C420.4,924.3,421.8,922.7,423.7,922L423.7,922z"/>
							<path id="Shape_105_" class="st11" d="M543.3,921.7c0,0,2.3-1.2,6.8,1.4s9.9,5.9,8.3,10.4c-1.6,4.6-14.1,2.8-16.9,1.9
								c-2.8-1-4.5-3.8-4-6.7C537.9,925.5,540.2,922.7,543.3,921.7z"/>
							<path id="Shape_106_" class="st15" d="M542.5,923.3c0,0,1.3-0.7,4,0.8c2.6,1.5,5.9,3.5,4.9,6.1c-0.9,2.6-8.4,1.7-10,1.1
								c-1.6-0.6-2.6-2.2-2.4-3.9C539.3,925.5,540.6,923.9,542.5,923.3L542.5,923.3z"/>
							<path id="Shape_107_" class="st11" d="M529.5,918.5c-3-0.4-7.3,5.9-6.8,8c0.5,2.2,0.8,8.5,5.9,9.2c3.6,0.5,16.2,1.8,19-0.9
								C550.3,932,545,920.6,529.5,918.5z"/>
							<path id="Shape_108_" class="st15" d="M528.8,920.3c-1.8,0-4.3,3.6-4,4.7s0.5,5,3.3,5.4c2.9,0.4,9.6,1.1,11.2-0.5
								S537.9,921.2,528.8,920.3z"/>
							<path id="Shape_109_" class="st17" d="M286.4,917.4c4.2-2.8,9.7-2.1,13.1,1.6c6.9,5.9,11.7,14.3,8.9,15.2
								c-4.6,1.3-9.4,1.5-14.1,0.7c-4.9-0.9-9.3,0-11.3-10.2C282.6,921.7,283.9,918.8,286.4,917.4z"/>
							<path id="Shape_110_" class="st15" d="M287.7,919c2.6-1.7,6-1.3,8.1,1c4.3,3.5,7.4,8.9,5.6,9.4c-2.9,0.8-5.9,0.9-8.8,0.4
								c-3-0.6-5.9,0-7-6.4C285.3,921.7,286.1,919.9,287.7,919L287.7,919z"/>
							<path id="Shape_111_" class="st17" d="M278.5,917.2c-3-0.4-7.3,5.9-6.8,8c0.5,2.2,0.8,8.5,5.9,9.2c3.6,0.5,16.2,1.8,19-0.9
								C299.3,930.8,293.9,919.3,278.5,917.2z"/>
							<path id="Shape_112_" class="st15" d="M277.5,919.1c-1.8,0-4.3,3.6-4,4.7c0.3,1.2,0.5,5,3.3,5.4c2.9,0.4,9.6,1.1,11.2-0.5
								C289.7,927,286.7,920.2,277.5,919.1z"/>
							<path id="Shape_113_" class="st17" d="M267.9,920.4c0,0,2.3-1.2,6.8,1.4c4.5,2.6,9.9,5.9,8.3,10.4
								c-1.6,4.6-14.1,2.8-16.9,1.9c-2.8-1-4.5-3.8-4-6.7C262.5,924.2,264.8,921.5,267.9,920.4z"/>
							<path id="Shape_114_" class="st15" d="M267,922c0,0,1.3-0.7,4,0.8c2.6,1.5,5.9,3.5,4.9,6.1c-0.9,2.6-8.4,1.7-10,1.1
								c-1.6-0.6-2.6-2.2-2.4-3.9C263.8,924.3,265.2,922.7,267,922L267,922z"/>
							<path id="Shape_115_" class="st11" d="M490.5,921.2c-0.8-0.8-2-1-3-0.6c-3.4,1.6-12.1,6.2-10.3,12.4c1.4,4.8,4.3,3.4,10,3.5
								h4.3c0.9,0,1.7-0.4,2.2-1.2l0,0c2.3-4.7,1.1-10.4-2.9-13.9L490.5,921.2z"/>
							<path id="Shape_116_" class="st15" d="M490,922.7c-0.6-0.6-1.4-0.7-2.2-0.4c-2.5,1.2-8.7,4.5-7.4,9c1,3.5,3.2,2.5,7.3,2.5
								h3.1c0.6,0,1.3-0.3,1.6-0.9l0,0c1.7-3.4,0.8-7.6-2.1-10.1L490,922.7z"/>
							<path id="Shape_117_" class="st11" d="M510.5,919.4c3.9-3.1,9.5-2.9,13.2,0.5c7.3,5,13.1,13.2,10.2,14.3
								c-4.5,1.6-9.3,2.3-14,1.9c-5-0.5-9.3,0.8-12.1-9.2C507,924.1,508.1,921.1,510.5,919.4z"/>
							<path id="Shape_118_" class="st15" d="M511.9,921.2c2.4-2,5.8-2,8.2,0c4.5,3.1,8.2,8.2,6.3,8.9c-2.8,1-5.8,1.4-8.7,1.2
								c-3.1-0.3-5.9,0.5-7.5-5.9C509.9,923.8,510.6,922.2,511.9,921.2z"/>
						</g>
					</g>
				</g>
				<path id="Shape_119_" class="st20" d="M701.2,725.4h-69"/>
				<path id="Shape_120_" class="st20" d="M701.2,695.9H573.1"/>
				<path id="Shape_121_" class="st20" d="M518.9,139.4h167.5"/>
				<path id="Shape_122_" class="st20" d="M252.8,139.4h108.4"/>
			</g>
		</g>
	</g>
</g>
</svg>
