<?xml version="1.0" encoding="UTF-8"?>
<svg width="24px" height="24px" viewBox="0 0 24 24" version="1.1" xmlns="http://www.w3.org/2000/svg" xmlns:xlink="http://www.w3.org/1999/xlink">
    <g stroke="none" stroke-width="1" fill="none" fill-rule="evenodd" stroke-linecap="round" stroke-linejoin="round">
        <path d="M19.1979628,4.39368917 C18.5073868,3.7636289 17.6193806,3.41856428 16.6783253,3.41856428 C15.6786738,3.41856428 14.7388686,3.80776281 14.0320028,4.51449108 L11.707171,6.83890075 C11.3164783,7.2292566 11.3164208,7.86242158 11.7069096,8.25298133 C11.7069539,8.25302566 11.7069983,8.25306998 11.7071755,8.25298133 L16.1665877,12.7115263 C16.5572366,13.101815 17.190292,13.101817 17.5809434,12.7115308 L19.9058051,10.3871511 L19.9058051,10.3871511 C21.3234821,8.96974985 21.3634447,6.68892544 20.0263962,5.2224301 L19.1979628,4.39368917 Z M19.6690618,4.5828764 L21.5806316,2.74330279 M6.89380496,11.0907199 C7.28433663,10.7002084 7.91749628,10.7002104 8.30802544,11.0907244 L8.30802544,11.0907244 L9.70060643,12.4833008 L11.516731,14.2994192 L12.3653439,15.1480294 L12.9092719,15.6919556 C13.2997938,16.0824806 13.2997959,16.7156439 12.9092765,17.1061713 L12.9092765,17.1061713 L10.5112534,19.5042173 C9.78734002,20.2281283 8.82486923,20.6267894 7.80110884,20.6267894 C6.83735785,20.6267894 5.92793538,20.2733352 5.22070458,19.6279563 L5.22070458,19.6279563 L4.37225165,18.7790261 C3.00295713,17.2768358 3.04388354,14.9405976 4.495751,13.4887349 L4.495751,13.4887349 Z M10.756789,10.5066086 L9.47336128,11.8634465 M13.4821566,13.1985658 C13.4821566,13.1985658 13.0168217,13.6583857 12.0861517,14.5780255 M2.76706496,21.2269022 L4.50695237,19.490641" id="Combined-Shape" stroke="#67768A"></path>
    </g>
</svg>