<?xml version="1.0" encoding="UTF-8"?>
<svg width="512px" height="512px" viewBox="0 0 512 512" version="1.1" xmlns="http://www.w3.org/2000/svg" xmlns:xlink="http://www.w3.org/1999/xlink">
    <!-- Generator: Sketch 46.2 (44496) - http://www.bohemiancoding.com/sketch -->
    <title>icon-dragcolumns</title>
    <desc>Created with Sketch.</desc>
    <defs></defs>
    <g id="24x24" stroke="none" stroke-width="1" fill="none" fill-rule="evenodd">
        <g id="icon-dragcolumns" fill="#67768A">
            <path d="M40,40 L80,40 L80,80 L40,80 L40,40 Z M40,236 L80,236 L80,276 L40,276 L40,236 Z M236,40 L276,40 L276,80 L236,80 L236,40 Z M236,236 L276,236 L276,276 L236,276 L236,236 Z M432,40 L472,40 L472,80 L432,80 L432,40 Z M432,236 L472,236 L472,276 L432,276 L432,236 Z M40,432 L80,432 L80,472 L40,472 L40,432 Z M236,432 L276,432 L276,472 L236,472 L236,432 Z M432,432 L472,432 L472,472 L432,472 L432,432 Z" id="Combined-Shape"></path>
        </g>
    </g>
</svg>