<?xml version="1.0" encoding="UTF-8"?>
<svg width="512px" height="512px" viewBox="0 0 512 512" version="1.1" xmlns="http://www.w3.org/2000/svg" xmlns:xlink="http://www.w3.org/1999/xlink">
    <!-- Generator: Sketch 46.2 (44496) - http://www.bohemiancoding.com/sketch -->
    <title>icon-locale</title>
    <desc>Created with Sketch.</desc>
    <defs></defs>
    <g id="24x24" stroke="none" stroke-width="1" fill="none" fill-rule="evenodd">
        <g id="icon-locale" fill-rule="nonzero" fill="#67768A">
            <path d="M213.008063,40 C213.008063,40 213.008063,40 213.008063,40 L462,40 L472,40 L472,300 L462,300 L290,300 L290,280 L452,280 L452,60 L245.250478,60 L308.812817,104 L310,104 L310,104.821808 L310.199619,104.959991 L310,105.226149 L310,364 L300,364 L60,364 L60,344 L290,344 L290,124 L60,124 L60,104 L200,104 L200,40 L210,40 L213.008063,40 Z M220,68.7720771 L220,104 L270.890209,104 L220,68.7720771 Z M40,80 L60,80 L60,472 L40,472 L40,80 Z" id="Combined-Shape"></path>
        </g>
    </g>
</svg>