<?xml version="1.0" encoding="UTF-8" standalone="no"?>
<svg width="128px" height="128px" viewBox="0 0 128 128" version="1.1" xmlns="http://www.w3.org/2000/svg" xmlns:xlink="http://www.w3.org/1999/xlink" xmlns:sketch="http://www.bohemiancoding.com/sketch/ns">
    <!-- Generator: Sketch 3.3 (11970) - http://www.bohemiancoding.com/sketch -->
    <title>icon-import</title>
    <desc>Created with Sketch.</desc>
    <defs></defs>
    <g id="Page-1" stroke="none" stroke-width="1" fill="none" fill-rule="evenodd" sketch:type="MSPage">
        <g id="icon-import" sketch:type="MSArtboardGroup" fill="#A1A9B7">
            <path d="M128,121.263158 L128,117.894737 C128,112.907789 126.553263,111.157895 121.263158,111.157895 L6.73684211,111.157895 C1.74989474,111.157895 0,112.808421 0,117.894737 L0,121.263158 C0,126.487579 1.74989474,128 6.73684211,128 L121.263158,128 C126.349474,128 128,126.381474 128,121.263158 L128,121.263158 L128,121.263158 Z M77.4736842,0 L50.5263158,0 C42.1052632,0 40.4210526,1.58484211 40.4210526,10.1052632 L40.4210526,47.1578947 L6.73684211,47.1578947 L64,104.421053 L121.263158,47.1578947 L87.5789474,47.1578947 L87.5789474,10.1052632 C87.5789474,1.58484211 85.792,0 77.4736842,0 L77.4736842,0 L77.4736842,0 Z" id="Shape" sketch:type="MSShapeGroup"></path>
        </g>
    </g>
</svg>