<?xml version="1.0" encoding="UTF-8"?>
<svg width="512px" height="512px" viewBox="0 0 512 512" version="1.1" xmlns="http://www.w3.org/2000/svg" xmlns:xlink="http://www.w3.org/1999/xlink">
    <!-- Generator: Sketch 52.2 (67145) - http://www.bohemiancoding.com/sketch -->
    <title>Common/Icons/value</title>
    <desc>Created with Sketch.</desc>
    <g id="Common/Icons/value" stroke="none" stroke-width="1" fill="none" fill-rule="evenodd">
        <path d="M392.3751,105.844995 L458.220096,40 L472,53.7799043 L407.86964,117.910265 L404.478469,271.502392 L203.980861,472 L40,308.019139 L240.497608,107.521531 L392.3751,105.844995 Z M372.668651,125.551445 L248.658588,126.920359 L67.5598086,308.019139 L203.980861,444.440191 L385.168133,263.25292 L387.93707,137.842834 L354.034499,171.745406 C362.236524,185.743553 360.333477,204.030159 348.325359,216.038278 C334.055801,230.307836 310.920276,230.307836 296.650718,216.038278 C282.38116,201.768719 282.38116,178.633194 296.650718,164.363636 C308.409005,152.605349 326.187246,150.536032 340.064412,158.155684 L372.668651,125.551445 Z M334.545455,202.258373 C341.204582,195.599246 341.204582,184.802668 334.545455,178.143541 C327.886327,171.484414 317.089749,171.484414 310.430622,178.143541 C303.771495,184.802668 303.771495,195.599246 310.430622,202.258373 C317.089749,208.9175 327.886327,208.9175 334.545455,202.258373 Z M206.479185,203.5 L218.5,191.479185 L293.552553,266.531738 L281.531738,278.552553 L206.479185,203.5 Z M178.479185,231.5 L190.5,219.479185 L288.033972,317.013157 L276.013157,329.033972 L178.479185,231.5 Z M150.479943,263.635057 L162.364943,251.479943 L219.520057,307.364943 L207.635057,319.520057 L150.479943,263.635057 Z" id="Combined-Shape" fill="#9452BA" fill-rule="nonzero"></path>
    </g>
</svg>
