<?xml version="1.0" encoding="UTF-8"?>
<svg width="512px" height="512px" viewBox="0 0 512 512" version="1.1" xmlns="http://www.w3.org/2000/svg" xmlns:xlink="http://www.w3.org/1999/xlink">
    <!-- Generator: Sketch Beta 47 (45396) - http://www.bohemiancoding.com/sketch -->
    <title>Icons/shop</title>
    <desc>Created with Sketch Beta.</desc>
    <defs>
        <path d="M60,442 L452,442 L452,141 L472,141 L472,462 L462,462 L50,462 L40,462 L40,141 L60,141 L60,442 Z M117,348 L236,348 L236,270 L117,270 L117,348 Z M384,141 L384,141 L128,141 L128,141 L129,141 L129,191 C129,204.254834 139.745166,215 153,215 C166.254834,215 177,204.254834 177,191 L177,141 L187.5,141 L198,141 L198,191 C198,204.254834 208.745166,215 222,215 C235.254834,215 246,204.254834 246,191 L246,141 L256,141 L266,141 L266,191 C266,204.254834 276.745166,215 290,215 C303.254834,215 314,204.254834 314,191 L314,141 L324,141 L334,141 L334,191 C334,204.254834 344.745166,215 358,215 C371.254834,215 382,204.254834 382,191 L382,141 L384,141 Z M399.800145,204.776661 C394.018324,222.329456 377.488844,235 358,235 C344.30413,235 332.069782,228.742478 324,218.930478 C315.930218,228.742478 303.69587,235 290,235 C276.30413,235 264.069782,228.742478 256,218.930478 C247.930218,228.742478 235.69587,235 222,235 C208.018171,235 195.559533,228.478446 187.5,218.311254 C179.440467,228.478446 166.981829,235 153,235 C133.748805,235 117.385241,222.636584 111.416148,205.416592 C103.896311,211.414778 94.3668425,215 84,215 C75.1378558,215 66.8876446,212.380003 59.9816858,207.87233 L60,171 C60,184.254834 70.745166,195 84,195 C97.254834,195 108,184.254834 108,171 L108,141 L40,141 L40,121 L472,121 L472,141 L452.00751,141 L452.032615,207.862991 C445.123746,212.376385 436.868262,215 428,215 C417.269586,215 407.43631,211.158896 399.800142,204.776658 Z M452,141 L404,141 L404,171 C404,184.254834 414.745166,195 428,195 C441.254834,195 452,184.254834 452,171 L452,141 Z M395,291 L330,291 L330,442 L310,442 L310,270 L320,270 L405,270 L415,270 L415,442 L395,442 L395,291 Z M97,250 L256,250 L256,368 L97,368 L97,250 Z M410.16888,50 L101.83112,50 L62.8201306,121 L40,121 L90,30 L422,30 L472,121 L449.179869,121 L410.16888,50 Z" id="path-1"></path>
    </defs>
    <g id="Icons" stroke="none" stroke-width="1" fill="none" fill-rule="evenodd">
        <g id="Icons/shop">
            <mask id="mask-2" fill="white">
                <use xlink:href="#path-1"></use>
            </mask>
            <use id="Combined-Shape" fill="#67768A" xlink:href="#path-1"></use>
        </g>
    </g>
</svg>