<?xml version="1.0" encoding="UTF-8"?>
<svg width="24px" height="24px" viewBox="0 0 24 24" version="1.1" xmlns="http://www.w3.org/2000/svg" xmlns:xlink="http://www.w3.org/1999/xlink">
    <defs></defs>
    <g id="24x24" stroke="none" stroke-width="1" fill="none" fill-rule="evenodd">
        <g id="icon-settings" fill-rule="nonzero" fill="#9452BA">
            <path d="M18.9544996,9.11931245 L22,9.5 L22,14.5 L18.9545275,14.8806201 L20.8388348,17.3033009 L17.3033009,20.8388348 L14.8807458,18.9545449 L14.5,22 L9.5,22 L9.11933076,18.9546461 L6.69669914,20.8388348 L3.16116524,17.3033009 L5.04538182,14.8807367 L2,14.5 L2,9.5 L5.04535389,9.11933076 L3.16116524,6.69669914 L6.69669914,3.16116524 L9.11932161,5.04542715 L9.5,2 L14.5,2 L14.8806201,5.04547247 L17.3033009,3.16116524 L20.8388348,6.69669914 L18.9544996,9.11931245 Z M19.5074937,6.77957163 L17.2204154,4.49249331 L15.4945607,5.83482468 L13.8883397,5.16948669 L13.6171994,3 L10.3827822,3 L10.1115995,5.16946189 L8.50538099,5.83477937 L6.77958463,4.49249331 L4.4924803,6.77959764 L5.8347188,8.50540647 L5.16938862,10.1116086 L3,10.3827822 L3,13.6172362 L5.16943707,13.8884614 L5.83473404,15.4946773 L4.49249331,17.2204154 L6.77959764,19.5075197 L8.50540647,18.1652812 L10.1116086,18.8306114 L10.3827822,21 L13.6172362,21 L13.8884705,18.8304897 L15.4947028,18.1652054 L17.2204284,19.5074937 L19.5075067,17.2204154 L18.1651753,15.4945607 L18.8305133,13.8883397 L21,13.6171994 L21,10.3827822 L18.8304649,10.1115903 L18.1651601,8.50535552 L19.5074937,6.77957163 Z M12,16 C9.790861,16 8,14.209139 8,12 C8,9.790861 9.790861,8 12,8 C14.209139,8 16,9.790861 16,12 C16,14.209139 14.209139,16 12,16 Z M12,15 C13.6568542,15 15,13.6568542 15,12 C15,10.3431458 13.6568542,9 12,9 C10.3431458,9 9,10.3431458 9,12 C9,13.6568542 10.3431458,15 12,15 Z" id="Combined-Shape"></path>
        </g>
    </g>
</svg>
