<?xml version="1.0" encoding="UTF-8"?>
<svg width="24px" height="24px" viewBox="0 0 24 24" version="1.1" xmlns="http://www.w3.org/2000/svg" xmlns:xlink="http://www.w3.org/1999/xlink">
    <!-- Generator: Sketch 46.2 (44496) - http://www.bohemiancoding.com/sketch -->
    <title>icon-filters</title>
    <desc>Created with Sketch.</desc>
    <defs></defs>
    <g id="24x24" stroke="none" stroke-width="1" fill="none" fill-rule="evenodd">
        <g id="icon-filters" fill="#67768A">
            <path d="M22,4 L22,5 L15,5 L15,4 L22,4 Z M8,4 L8,5 L2,5 L2,4 L8,4 Z M10,7 L10,2 L13,2 L13,7 L10,7 Z M12,6 L12,3 L11,3 L11,6 L12,6 Z M14,14.5 L14,9.5 L17,9.5 L17,14.5 L14,14.5 Z M16,13.5 L16,10.5 L15,10.5 L15,13.5 L16,13.5 Z M7,22 L7,17 L10,17 L10,22 L7,22 Z M9,21 L9,18 L8,18 L8,21 L9,21 Z M22,11.5 L22,12.5 L19,12.5 L19,11.5 L22,11.5 Z M11,11.5 L11,12.5 L2,12.5 L2,11.5 L11,11.5 Z M5,19 L5,20 L2,20 L2,19 L5,19 Z M22,19 L22,20 L12,20 L12,19 L22,19 Z" id="Combined-Shape"></path>
        </g>
    </g>
</svg>