<?xml version="1.0" encoding="UTF-8"?>
<svg width="24px" height="24px" viewBox="0 0 24 24" version="1.1" xmlns="http://www.w3.org/2000/svg" xmlns:xlink="http://www.w3.org/1999/xlink">
    <!-- Generator: Sketch 46.2 (44496) - http://www.bohemiancoding.com/sketch -->
    <title>icon-danger</title>
    <desc>Created with Sketch.</desc>
    <defs></defs>
    <g id="24x24" stroke="none" stroke-width="1" fill="none" fill-rule="evenodd">
        <g id="icon-danger" fill="#F8B441">
            <path d="M12.8578975,3.53048487 L20.8985164,19.6117227 C21.1354473,20.0855844 20.9433768,20.6617957 20.4695151,20.8987265 C20.3363144,20.9653269 20.1894367,21 20.0405139,21 L3.95927601,21 C3.4294825,21 3,20.5705175 3,20.040724 C3,19.8918011 3.03467312,19.7449234 3.10127346,19.6117227 L11.1418924,3.53048487 C11.3788232,3.05662315 11.9550345,2.86455274 12.4288962,3.1014836 C12.6145424,3.1943067 12.7650744,3.34483868 12.8578975,3.53048487 Z M13,15 L13,8 L11,8 L11,15 L13,15 Z M13,19 L13,17 L11,17 L11,19 L13,19 Z" id="Combined-Shape"></path>
        </g>
    </g>
</svg>
