<?xml version="1.0" encoding="UTF-8" standalone="no"?>
<svg width="128px" height="128px" viewBox="0 0 128 128" version="1.1" xmlns="http://www.w3.org/2000/svg" xmlns:xlink="http://www.w3.org/1999/xlink">
    <!-- Generator: Sketch 3.6.1 (26313) - http://www.bohemiancoding.com/sketch -->
    <title>Artboard 1</title>
    <desc>Created with Sketch.</desc>
    <defs></defs>
    <g id="Page-1" stroke="none" stroke-width="1" fill="none" fill-rule="evenodd">
        <g id="Artboard-1" fill="#A1A9B7">
            <g id="Group" transform="translate(11.000000, 0.000000)">
                <path d="M65.5672599,96.7883053 C70.7533091,95.9300378 73.5759339,95.8735489 73.5759339,95.8735489 C75.5822024,95.8334599 77.2203817,94.1588362 77.2203817,92.1543899 L77.2203817,86.7442072 C77.2203817,84.7397609 75.5876691,82.9612704 73.5886895,82.7936258 C73.5886895,82.7936258 68.9219741,82.3982032 65.6747711,81.6164692 L65.405082,81.5508691 C65.1353928,81.4269579 64.6962369,80.7454462 64.4356589,80.0329566 C64.1714364,79.3222893 63.5154358,76.7693536 63.7140582,75.8564195 C63.7140582,75.8564195 63.7140582,75.8564195 64.3463699,74.9835742 C67.3949505,70.7651259 69.2572633,68.8499686 69.2572633,68.8499686 C70.654909,67.412234 70.6312201,65.0852541 69.2025966,63.6784972 L65.2811708,59.8135604 C63.8525472,58.4068035 61.4909451,58.3794702 60.033166,59.7552492 C60.033166,59.7552492 57.8191639,61.8416956 53.5314711,64.1850755 L52.5492925,64.7208093 C51.3557358,64.7827649 49.7849788,64.5750314 49.0579115,64.2561422 C48.3308442,63.937253 46.2808423,63.1008523 46.2225311,62.8876521 C46.2225311,62.8876521 46.2225311,62.8876521 46.1860866,62.6762741 C45.3187081,57.5685805 45.2476413,53.6908881 45.2476413,53.6908881 C45.2111969,51.6864418 43.5402176,50.0464403 41.5357713,50.0464403 L35.9360773,50.0464403 C33.931631,50.0464403 32.2606517,51.6864418 32.222385,53.6908881 C32.222385,53.6908881 32.1422071,57.9275587 30.7864726,62.5760518 L30.700828,62.8712521 C30.5495835,63.1682746 30.008383,63.5564082 29.4963381,63.7368084 C28.9842931,63.9153863 26.5589132,64.4383646 25.206823,64.425609 C25.206823,64.425609 25.206823,64.425609 24.091622,63.815164 C19.7984625,61.4772508 17.5862827,59.3908044 17.5862827,59.3908044 C16.1285036,58.0150254 13.7669015,58.0405365 12.3382779,59.4472934 L8.41867436,63.310408 C6.99005083,64.7171649 6.96636192,67.0441448 8.36218542,68.4800572 C8.36218542,68.4800572 10.2263205,70.3988589 13.2767232,74.6173072 L13.8489015,75.4081524 C14.0602795,76.2390865 13.9272572,77.5492655 13.551879,78.3182439 C13.1765009,79.0890447 12.1196111,81.3577134 11.7824997,81.5235358 C11.7824997,81.5235358 11.7824997,81.5235358 11.4472105,81.6182914 C6.73129504,82.9539815 3.64444777,83.023226 3.64444777,83.023226 C1.6400015,83.0651372 -7.10542736e-15,84.7415831 -7.10542736e-15,86.7460294 L-7.10542736e-15,92.1562121 C-7.10542736e-15,94.1606584 1.6400015,95.8352822 3.64444777,95.8753711 C3.64444777,95.8753711 6.36685026,95.93186 11.5528994,96.7901275 L11.809833,96.8320386 C12.0685888,96.9012831 12.5113892,97.5955504 12.7956561,98.3754623 C13.0799231,99.1571963 13.8233904,101.916043 13.6375236,102.874533 C13.6375236,102.874533 13.6375236,102.874533 12.9724119,103.794756 C9.92200906,108.007738 8.05787403,109.926539 8.05787403,109.926539 C6.66022831,111.364274 6.68756167,113.691254 8.11436297,115.098011 L12.0357888,118.962948 C13.4644123,120.367882 15.8260145,120.395216 17.2837936,119.019437 C17.2837936,119.019437 19.4959734,116.931168 23.7891328,114.591433 L24.8879338,113.991921 C26.2199795,113.970054 27.7287809,114.13041 28.2371814,114.347255 C28.747404,114.562277 30.3236277,115.393211 30.5514057,115.8105 C30.5514057,115.8105 30.5514057,115.8105 30.6753169,116.233256 C32.0310515,120.883572 32.0966515,123.866552 32.0966515,123.866552 C32.1403849,125.872821 33.8168309,127.511 35.8212772,127.511 L41.4209712,127.511 C43.4254175,127.511 45.1018634,125.872821 45.1455968,123.866552 C45.1455968,123.866552 45.203908,121.237083 46.0731088,116.127567 L46.124131,115.832367 C46.2097755,115.542634 46.8694206,115.108944 47.589199,114.870233 C48.3107997,114.631522 51.1935579,113.904454 52.4764035,113.944543 C52.4764035,113.944543 52.4764035,113.944543 53.5314711,114.518544 C57.8191639,116.860101 60.033166,118.950192 60.033166,118.950192 C61.4927673,120.325971 63.8525472,120.298638 65.2811708,118.891881 L69.2025966,115.025122 C70.6312201,113.618365 70.654909,111.289563 69.2572633,109.853651 C69.2572633,109.853651 67.3949505,107.938493 64.3463699,103.720045 L63.6994804,102.823511 C63.5063247,101.886888 63.6247692,100.505642 63.9637029,99.7475969 C64.3026365,98.9931962 65.1754818,96.8739498 65.3741042,96.8211053 C65.3704597,96.8211053 65.3704597,96.8211053 65.5672599,96.7883053 L65.5672599,96.7883053 Z M38.6530131,105.442047 C29.6694493,105.442047 22.382376,98.2661288 22.382376,89.4101207 C22.382376,80.5541127 29.6694493,73.3818394 38.6530131,73.3818394 C47.6402213,73.3818394 54.9236502,80.5559349 54.9236502,89.4101207 C54.9236502,98.2643066 47.6402213,105.442047 38.6530131,105.442047 L38.6530131,105.442047 Z" id="Shape"></path>
                <path d="M97.0534664,38.8561635 C101.270093,38.1600739 102.884583,38.1254517 102.884583,38.1254517 C104.890851,38.0835405 106.529031,36.410739 106.529031,34.4044705 L106.529031,31.3686455 C106.529031,29.3641992 104.896318,27.5857087 102.897338,27.4180641 C102.897338,27.4180641 99.7813356,27.1538416 97.1409332,26.5197077 L96.9204441,26.4668632 C96.7017772,26.3648187 96.3482658,25.8090404 96.1332434,25.2313954 C95.918221,24.6537505 95.3843094,22.574593 95.5446651,21.8347701 C95.5446651,21.8347701 95.5446651,21.8347701 96.0548878,21.1277473 C98.5349345,17.6964997 99.5772465,16.625032 99.5772465,16.625032 C100.974892,15.1872974 100.951203,12.8621397 99.5225798,11.4553829 L97.3031111,9.2687142 C95.8744876,7.86195736 93.5128854,7.834624 92.0551063,9.21040303 C92.0551063,9.21040303 90.750394,10.4385819 87.2626575,12.3446281 L86.4645234,12.7783174 C85.4969226,12.8293397 84.2250103,12.6616951 83.6400764,12.4047615 C83.0551425,12.1478279 81.3878077,11.4736051 81.3222076,11.3041383 C81.3222076,11.3041383 81.3222076,11.3041383 81.2894076,11.1164492 C80.584207,6.96360098 80.5404736,4.49084317 80.5404736,4.49084317 C80.5040291,2.48639689 78.8330498,0.846395392 76.8304257,0.846395392 L73.6378895,0.846395392 C71.6334432,0.846395392 69.9606417,2.48639689 69.9241972,4.49084317 C69.9241972,4.49084317 69.8713527,7.25697903 68.7689073,11.0362714 L68.6996628,11.2749827 C68.5775738,11.5155163 68.1365956,11.8325832 67.7211285,11.9765389 C67.3038393,12.1223168 65.332193,12.546895 64.233392,12.5377839 C64.233392,12.5377839 64.233392,12.5377839 63.3241023,12.042139 C59.8327213,10.1397372 58.5316535,8.91155832 58.5316535,8.91155832 C57.0720521,7.53577928 54.7122722,7.56129042 53.2836487,8.96804726 L51.06418,11.1547159 C49.6355565,12.5614728 49.6118675,14.8884527 51.007691,16.3261873 C51.007691,16.3261873 52.0481809,17.3958327 54.5300498,20.8252581 L54.9947169,21.4685031 C55.1678282,22.1445482 55.060317,23.2087269 54.7541834,23.835572 C54.449872,24.462417 53.5879601,26.3065075 53.3146265,26.4413521 C53.3146265,26.4413521 53.3146265,26.4413521 53.0412929,26.5178855 C49.2073338,27.6075754 47.3778211,27.6458421 47.3778211,27.6458421 C45.3733748,27.6877532 43.7333733,29.362377 43.7333733,31.3668233 L43.7333733,34.4044705 C43.7333733,36.4089168 45.3733748,38.0835405 47.3778211,38.1254517 C47.3778211,38.1254517 48.9103114,38.1582517 53.1269374,38.8543412 L53.3547154,38.8926079 C53.5624489,38.9709636 53.9196048,39.5486085 54.149205,40.1754535 C54.3788052,40.8022986 54.9764947,43.0272339 54.8234279,43.8053235 C54.8234279,43.8053235 54.8234279,43.8053235 54.2840496,44.5506131 C51.8021807,47.9782162 50.7616908,49.0496839 50.7616908,49.0496839 C49.3640451,50.4874185 49.3913785,52.8143984 50.8181798,54.2211553 L53.0376485,56.4078239 C54.466272,57.8145808 56.8260519,57.8400919 58.283831,56.4643129 C58.283831,56.4643129 59.5867211,55.236134 63.0799243,53.3337322 L63.972814,52.8453762 C65.055215,52.827154 66.2815717,52.9583541 66.6952165,53.1332876 C67.1088613,53.3082211 68.3917069,53.9842662 68.5775738,54.3231998 C68.5775738,54.3231998 68.5775738,54.3231998 68.6777961,54.6676001 C69.7802415,58.4487147 69.8185082,60.1980496 69.8185082,60.1980496 C69.8622416,62.2024959 71.5386876,63.8424974 73.5431339,63.8424974 L76.7374923,63.8424974 C78.7419386,63.8424974 80.4183846,62.2024959 80.4602957,60.1980496 C80.4602957,60.1980496 80.4930958,58.7366261 81.2001186,54.5837778 L81.243852,54.325022 C81.3367854,54.0917774 81.8779859,53.7419104 82.448342,53.5469324 C83.0186981,53.3537767 85.3365669,52.7724873 86.3916345,52.7998206 C86.3916345,52.7998206 86.3916345,52.7998206 87.2626575,53.2735988 C90.750394,55.1760006 92.0551063,56.4078239 92.0551063,56.4078239 C93.5147077,57.783603 95.8744876,57.7580918 97.3031111,56.351335 L99.5225798,54.1610219 C100.951203,52.754265 100.974892,50.4272851 99.5772465,48.9913727 C99.5772465,48.9913727 98.5367567,47.9217273 96.0548878,44.4923019 L95.5136873,43.7433679 C95.3642649,42.9634561 95.4663094,41.839144 95.7414652,41.2414545 C96.0166211,40.6437651 96.7181772,38.9472746 96.8767107,38.885319 C96.8767107,38.885319 96.8767107,38.885319 97.0534664,38.8561635 L97.0534664,38.8561635 Z M75.1649131,45.8935921 C67.8614398,45.8935921 61.9355677,40.0588312 61.9355677,32.8574024 C61.9355677,25.6559736 67.8614398,19.8212127 75.1649131,19.8212127 C82.4774976,19.8212127 88.397903,25.6559736 88.397903,32.8574024 C88.397903,40.0588312 82.4774976,45.8935921 75.1649131,45.8935921 L75.1649131,45.8935921 Z" id="Shape"></path>
            </g>
        </g>
    </g>
</svg>