<?xml version="1.0" encoding="UTF-8"?>
<svg width="512px" height="512px" viewBox="0 0 512 512" version="1.1" xmlns="http://www.w3.org/2000/svg" xmlns:xlink="http://www.w3.org/1999/xlink">
    <!-- Generator: Sketch 46.2 (44496) - http://www.bohemiancoding.com/sketch -->
    <title>icon-play</title>
    <desc>Created with Sketch.</desc>
    <defs></defs>
    <g id="24x24" stroke="none" stroke-width="1" fill="none" fill-rule="evenodd">
        <g id="icon-play" fill-rule="nonzero" fill="#67768A">
            <path d="M449.369322,267.117934 C455.511091,254.834395 450.532203,239.897731 438.248664,233.755961 L95.9872045,62.6252312 C92.5343494,60.8988036 88.7269562,60 84.8665468,60 C71.1331322,60 60,71.1331322 60,84.8665468 L60,427.128006 C60,430.988415 60.8988036,434.795809 62.6252312,438.248664 C68.7670009,450.532203 83.7036651,455.511091 95.9872045,449.369322 L438.248664,278.238592 C443.061022,275.832413 446.963143,271.930292 449.369322,267.117934 Z M110.387666,466.854635 C86.3621912,478.867372 57.1474483,469.129124 45.134711,445.10365 C41.7579773,438.350182 40,430.903271 40,423.352665 L40,88.6366808 C40,61.7753837 61.7753837,40 88.6366808,40 C96.187287,40 103.634198,41.7579773 110.387666,45.134711 L445.10365,212.492703 C469.129124,224.50544 478.867372,253.720183 466.854635,277.745658 C462.14837,287.158188 454.51618,294.790377 445.10365,299.496643 L110.387666,466.854635 Z" id="Triangle"></path>
        </g>
    </g>
</svg>