<svg xmlns="http://www.w3.org/2000/svg" width="25" height="25">
  <g fill="none" fill-rule="evenodd">
    <path fill="#FFDCB6" d="M17.3144 11.4837c-1.4554-1.7458-2.6928-3.669-3.675-5.7118-.6574-1.368-1.1954-3.002-.5004-4.352.311-.603-.421-1.179-1.097-1.287-.676-.109-1.354.226-1.864.677-1.2524 1.108-1.7167 3.003-1.1162 4.554.2803.724.759 1.353 1.1556 2.022.3965.669.7205 1.426.6393 2.197-.5396.519-1.334.851-2.0642 1.034-1.0377-.594-2.1625-1.071-3.3552-.949-1.1927.122-2.3608.793-2.8848 1.859-.5238 1.065-.2668 2.505.709 3.194-.5764.483-1.0127 1.333-.917 2.074.096.741.5908 1.42 1.2718 1.745-.1546.633-.066 1.222.234 1.802.3.58.815 1.048 1.4247 1.295.089.652.3987 1.15.952 1.516.5532.366 1.2168.541 1.879.611 1.5068.159 3.0326-.201 4.4225-.797 1.39-.597 2.6637-1.424 3.9297-2.247 1.1345-.738 2.7897-.186 4.0722.255 1.6305-2.862 1.4644-6.551-.4717-9.22-.8987.427-2.1106.485-2.7446-.276"/>
    <path fill="#E5AB7A" d="M12.7195 3.0693c-.009-.0333-.0232-.062-.0395-.0883.057-.09.0872-.1913.0478-.29-.0243-.061-.0718-.1084-.143-.1076-.1524.0015-.2785.1143-.421.161-.1947.0637-.3938.14-.5636.2545-.358.241-.535.643-.3493 1.043.16.347.684.386.983.224.108-.059.195-.135.264-.223.114.012.24-.043.293-.144.142-.273.002-.554-.073-.832"/>
    <path fill="#EBAF7F" d="M17.1377 11.3448c-.9386-1.6595-1.9758-3.2735-2.972-4.9-.4744-.7748-.9307-1.5473-1.214-2.4138-.1798-.55-.2032-1.0722-.1827-1.604.084-.0275.1582-.0877.1917-.1815.058-.1628.0807-.3515.0997-.523.019-.1708.0392-.313-.0378-.4713-.0586-.1206-.2217-.116-.3108-.0395-.0043.0037-.0078.008-.012.012-.0633-.0068-.134.0165-.175.071-1.0453 1.3817-.0925 3.5654.607 4.8827.4763.8968 1.0288 1.756 1.553 2.626.589.9777 1.1556 1.9737 1.7756 2.9326.2715.42.9252.0472.6773-.3912M8.1524 10.241c-.218-.2473-.5955-.1196-.881-.0644-.382.074-.7414.1733-1.0734.378-.065.04-.0573.1453.0218.1647.378.0928.7455.079 1.1303.0325.289-.035.695-.0215.827-.323.03-.0686.027-.13-.024-.188m1.653 5.0786c-.247.183-.367.425-.575.6486-.276.297-.654.468-1.043.563-.867.2114-1.567-.3568-2.197-.8386-.142-.1088-.35-.0134-.308.1774.22.9874 1.367 1.488 2.302 1.4963.895.008 2.362-.72 2.381-1.73.005-.256-.328-.486-.558-.316m-5.12-.446l-.004.001c-.077-.056-.181-.079-.307-.039-.489.155-.858-.026-1.322-.161-.123-.036-.218.08-.195.193.019.093.052.176.096.251-.043-.008-.085-.016-.128-.021-.195-.023-.283.217-.209.36.215.41.739.512 1.167.502.423-.01 1.118-.221 1.2-.697.03-.171-.08-.414-.297-.386m-.051 3.779c-.207.023-.323.145-.508.209-.175.061-.366.039-.531.125-.185.098-.177.325-.061.467.18.219.547.199.794.133.309-.082.602-.281.629-.615.013-.16-.157-.337-.323-.319m1.82 3.271c-.118.021-.226.078-.344.102-.109.023-.26-.005-.362-.048-.152-.063-.389.086-.261.258.285.384.965.515 1.27.076.146-.209-.093-.425-.302-.388"/>
    <path fill="#EBAF7F" d="M19.9366 11.9196c-.158.0263-1.7255.052-1.8847.0973-.011-.016-.024-.032-.039-.047-.098-.097-.212-.086-.327-.01-.015-.053-.031-.105-.051-.154-.063-.154-.254-.155-.318-.002-.184-.331-.411-.645-.59-.954-.011-.019-.024-.031-.038-.041-.034-.059-.068-.117-.103-.174.012-.024.001-.06-.034-.06-.002 0-.002.001-.004.001-.22-.344-.476-.665-.766-.974-.129-.137-.358.04-.26.198.391.627.704 1.322.927 2.024.108.338.182.688.244 1.036.049.275.053.413.244.574.221.186.294-.05.433-.235.135-.181.308-.46.536-.529.248-.075.537-.063.796-.139.411-.122 1.641-.683 1.232-.615m1.919 4.697c-.014-.207-.04-.413-.079-.618-.047-.245-.266.009-.312.092-.135.243-.227.52-.338.775-.166.381-.33.763-.499 1.143-.195.439-.789.363-1.204.425-.517.078-1.037.143-1.558.195-.244.024-.506.023-.729.138-.242.125-.407.373-.561.587-.179.249-.338.513-.476.787-.104.208-.318.533-.253.774.089.333.321.121.485-.023.06-.053.642-.617.659-.608.555.287 1.416.246 1.998.295.41.035.82.069 1.231.104.359.03.546.063.818-.18.125-.112.093-.285 0-.4-.02-.024-.04-.044-.06-.064.507-.824.815-1.764.875-2.72.039-.244.049-.487 0-.704"/>
    <path fill="#FFF" d="M12.6372.513c-.7654-.305-1.764.0656-2.3823.5403-.712.546-1.211 1.343-1.325 2.2343-.129.9977.205 1.88.675 2.747.248.457.524.8978.761 1.3608.344.6714.425 1.2742.517 2.0065.021.17.253.219.312.041.54-1.636-1.208-3.34-1.68-4.794-.312-.962-.079-2.002.553-2.783.678-.838 1.608-.906 2.568-1.166.102-.028.085-.154 0-.188m-5.97 9.342c-1.612-.403-3.366.388-4.084 1.868-.505 1.041-.179 3.163 1.275 3.291.157.014.22-.193.122-.293-.393-.401-.788-.646-1.004-1.197-.241-.616-.101-1.278.208-1.84.69-1.252 2.167-1.502 3.459-1.669.086-.011.12-.136.022-.161m-2.414 8.45c-.184-.133-.381-.207-.553-.365-.218-.2-.371-.459-.509-.715-.218-.405-.167-.91-.396-1.29-.028-.047-.091-.042-.12 0-.509.721.569 3.072 1.577 2.623.112-.051.08-.198 0-.255m2.206 3.155c-.192-.11-.396-.146-.607-.21-.311-.095-.599-.259-.868-.436-.447-.295-.717-.768-1.148-1.066-.052-.036-.125.012-.124.07.008 1.028 1.725 2.202 2.704 1.974.157-.037.178-.256.044-.333m2.409-5.769c-.455.007-.885.156-1.346.148-.572-.01-1.04-.284-1.581-.397-.091-.019-.19.078-.13.167.578.842 2.422 1.057 3.169.351.101-.095.025-.272-.113-.27"/>
    <path fill="#FFF" d="M10.894 7.6788c-.0735-.0593-.171.013-.13.099.4814 1.0074.1382 1.9155-.7937 2.5007-.8793.5523-1.9396.4662-2.9267.589-.1614.02-.2378.2838-.0426.3108 1.258.1742 2.6717.0442 3.6644-.805.7378-.631 1.0693-2.0157.2285-2.6945"/>
    <path fill="#8E3F08" d="M9.8627 15.3998c-.724.3127-1.1942.7866-2.038.848-.8673.0633-1.3747-.491-2.1227-.7363-.0695-.0227-.1443.0508-.121.1195.281.8282 1.461 1.1102 2.2438 1.1426.811.0337 1.9774-.392 2.2642-1.202.0498-.1404-.1154-.2198-.2263-.1718"/>
    <path fill="#8E3F08" d="M20.8068 20.566c-.612-.2056-1.3894-.2-1.9804-.23-.6415-.0327-1.666-.15-2.332.1157-.0807-.0622-.1895-.0767-.2988.0065-1.6095 1.2265-3.4116 2.1305-5.357 2.71-1.8996.5664-4.3015.8538-5.3315-1.0584.434.1524.881.2123 1.277.118.166-.0396.203-.2856.048-.3648-.277-.1416-.562-.1652-.865-.234-.503-.114-.974-.334-1.38-.649-.716-.5565-.831-1.3215-.711-2.1233.416.166.975.28 1.26-.042.045-.05.058-.1375 0-.1857-.241-.2008-.453-.1554-.767-.209-.552-.0943-1.037-.4457-1.365-.8824-.651-.8684-.306-1.8192.211-2.615.58.3503 1.317.5103 1.867.1596.169-.1078.106-.3742-.103-.3768-.924-.011-1.65-.063-2.219-.8996-.59-.8676-.219-2.0565.399-2.7922.645-.768 1.74-1.056 2.707-1.0987.952-.043 1.715.258 2.546.565-.431.111-.876.155-1.321.162-.413.006-.834-.109-1.233.02-.082.026-.121.134-.053.197.654.601 1.979.33 2.759.142.701-.169 1.428-.494 1.99-.976.062.137.304.183.398.026 1.079-1.798-1.202-3.403-1.783-4.908-.434-1.125-.102-2.454.65-3.358.672-.809 2.997-1.884 3.256-.23-.14.171-.244.358-.319.555-.471.228-.928.579-1.326.87-.374.273-.628.669-.468 1.131.268.769 1.262.677 1.883.297.216.69.542 1.347.824 1.85.537.959 1.161 1.88 1.741 2.814.3188.513.646 1.021.971 1.531.216.338.413.718.676 1.03-.002.067.031.133.119.174.028.013.056.023.084.035.021.019.041.04.063.058.054.044.119.051.174.033.4577.156.9357.215 1.426.238.399.018.966.063 1.257-.244 1.437 2.719 1.897 5.754.633 8.635M12.72 3.966c-.1663.088-.3255.193-.5074.259-.4616.166-1.178-.183-.745-.73.291-.368.739-.583 1.152-.835-.05.417-.003.863.1 1.306m7.628 7.503c-.109-.13-.285-.0318-.314.103-.279-.094-.604.0002-.907.015-.552.026-1.0862-.082-1.6262-.169-.262-.694-.807-1.365-1.1787-1.9787-.5368-.885-1.09-1.761-1.6376-2.64-.498-.8-1.029-1.588-1.37-2.4695-.034-.0887-.063-.1765-.089-.2638.043-.072.01-.152-.052-.197-.126-.543-.104-1.067-.02-1.603.042-.041.083-.083.121-.128.059-.071.022-.186-.064-.197l.022-.114c.048-.002.095-.029.113-.09.308-1.02-.689-1.6138-1.59-1.614-1.195-.0005-2.28 1.0076-2.841 1.96-.671 1.141-.576 2.5043-.029 3.665.58 1.2306 1.989 2.1736 1.813 3.5774-.604.3925-1.185.768-1.871 1.019-.871-.756-2.289-.9854-3.391-.8876-1.217.108-2.334.7427-2.991 1.763-.609.9474-.6 2.2255.094 3.116.08.103.178.203.286.298-.731.6854-.915 1.9795-.474 2.8483.26.513.643.898 1.136 1.18-.396.685-.16 1.662.31 2.257.291.369.753.737 1.266.996.061.8.671 1.404 1.351 1.804.945.556 2.142.471 3.179.301 2.499-.409 4.895-1.565 6.908-3.056.0206-.015.038-.032.053-.049.557.098 1.222-.039 1.767-.021.483.016.966.067 1.444.132.397.054.786.184 1.184.174.044.009.089.006.132-.009.007-.001.015-.001.022-.002.178-.022.2797-.196.21-.335 1.324-2.957 1.187-6.827-.963-9.383"/>
  </g>
</svg>
