<?xml version="1.0" encoding="UTF-8"?>
<svg width="22px" height="22px" viewBox="0 0 22 22" version="1.1" xmlns="http://www.w3.org/2000/svg" xmlns:xlink="http://www.w3.org/1999/xlink">
    <!-- Generator: Sketch 49 (51002) - http://www.bohemiancoding.com/sketch -->
    <title>metric</title>
    <desc>Created with Sketch.</desc>
    <defs>
        <path d="M12,22.125 C6.40811691,22.125 1.875,17.5918831 1.875,12 C1.875,6.40811691 6.40811691,1.875 12,1.875 C17.5918831,1.875 22.125,6.40811691 22.125,12 C22.125,17.5918831 17.5918831,22.125 12,22.125 Z M12,21.1875 C17.0741161,21.1875 21.1875,17.0741161 21.1875,12 C21.1875,6.92588386 17.0741161,2.8125 12,2.8125 C6.92588386,2.8125 2.8125,6.92588386 2.8125,12 C2.8125,17.0741161 6.92588386,21.1875 12,21.1875 Z M13.1367188,5.71582031 C13.5000018,5.71582031 13.8061511,5.84179562 14.0551758,6.09375 C14.3042005,6.34570438 14.4287109,6.65038884 14.4287109,7.0078125 C14.4287109,7.36523616 14.3027356,7.66992062 14.0507812,7.921875 C13.7988269,8.17382938 13.4941424,8.29980469 13.1367188,8.29980469 C12.7851545,8.29980469 12.4833997,8.17382938 12.2314453,7.921875 C11.9794909,7.66992062 11.8535156,7.36523616 11.8535156,7.0078125 C11.8535156,6.65038884 11.9780261,6.34570438 12.2270508,6.09375 C12.4760755,5.84179562 12.7792951,5.71582031 13.1367188,5.71582031 Z M13.6816406,9.75878906 L11.8798828,16.0078125 C11.7802729,16.3652362 11.7304688,16.5996088 11.7304688,16.7109375 C11.7304688,16.7753909 11.7568357,16.8354489 11.8095703,16.8911133 C11.862305,16.9467776 11.9179685,16.9746094 11.9765625,16.9746094 C12.0761724,16.9746094 12.1757808,16.9306645 12.2753906,16.8427734 C12.5390638,16.6259755 12.8554669,16.2334013 13.2246094,15.6650391 L13.5234375,15.8408203 C12.6386675,17.3818436 11.6982472,18.1523438 10.7021484,18.1523438 C10.3212872,18.1523438 10.0180675,18.0454112 9.79248047,17.831543 C9.5668934,17.6176747 9.45410156,17.3466813 9.45410156,17.0185547 C9.45410156,16.8017567 9.50390575,16.5263689 9.60351562,16.1923828 L10.8251953,11.9912109 C10.9423834,11.586912 11.0009766,11.2822276 11.0009766,11.0771484 C11.0009766,10.9482415 10.9453131,10.8339849 10.8339844,10.734375 C10.7226557,10.6347651 10.5703135,10.5849609 10.3769531,10.5849609 C10.2890621,10.5849609 10.1835944,10.5878906 10.0605469,10.59375 L10.1748047,10.2421875 L13.1542969,9.75878906 L13.6816406,9.75878906 Z" id="path-1"></path>
    </defs>
    <g id="Page-1" stroke="none" stroke-width="1" fill="none" fill-rule="evenodd">
        <g id="Akn---System---Monitoring-with-infos" transform="translate(-421.000000, -716.000000)">
            <g id="Group-2" transform="translate(360.000000, 651.000000)">
                <g id="Group-6-Copy" transform="translate(40.000000, 44.000000)">
                    <g id="infos" transform="translate(20.000000, 20.000000)">
                        <mask id="mask-2" fill="white">
                            <use xlink:href="#path-1"></use>
                        </mask>
                        <use id="Combined-Shape" fill="#67768A" fill-rule="nonzero" xlink:href="#path-1"></use>
                        <g id="Blue" mask="url(#mask-2)" fill="#5992C7" fill-rule="evenodd">
                            <rect id="Background" x="0" y="0" width="24" height="24"></rect>
                        </g>
                    </g>
                </g>
            </g>
        </g>
    </g>
</svg>