<svg xmlns="http://www.w3.org/2000/svg" width="24" height="24" viewBox="0 0 24 24">
  <path fill="none" stroke="#67768A" stroke-linecap="round" stroke-linejoin="round" d="M19.5068779,18.6652772 C20.5189662,18.6652772 21.3409754,17.8449354 21.3409754,16.8478533 C21.3409754,15.7573989 20.1187995,15.725719 19.5068779,13.8599416 C19.5068779,13.8599416 18.9733222,10.4918716 18.8932889,8.56940392 C18.7498958,4.93622343 15.8837015,2 12.1704877,2 C8.45727386,2 5.59107962,4.94289287 5.44601917,8.57107128 C5.36932055,10.493539 4.83409754,13.8466028 4.83409754,13.8466028 C4.22050855,15.7373906 3,15.7523968 3,16.947895 C3,17.9366403 3.82200917,18.6652772 4.83409754,18.6652772 L19.5068779,18.6652772 L19.5068779,18.6652772 Z M8.8357649,18.6652772 L8.8357649,18.6652772 C8.8357649,20.5060442 10.3297207,22 12.1704877,22 C14.0112547,22 15.5052105,20.5060442 15.5052105,18.6652772 L8.8357649,18.6652772 Z"/>
</svg>
