<?xml version="1.0" encoding="UTF-8"?>
<svg width="512px" height="512px" viewBox="0 0 512 512" version="1.1" xmlns="http://www.w3.org/2000/svg" xmlns:xlink="http://www.w3.org/1999/xlink">
    <!-- Generator: Sketch 46.2 (44496) - http://www.bohemiancoding.com/sketch -->
    <title>icon-switch</title>
    <desc>Created with Sketch.</desc>
    <defs></defs>
    <g id="24x24" stroke="none" stroke-width="1" fill="none" fill-rule="evenodd">
        <g id="icon-switch" fill-rule="nonzero" fill="#67768A">
            <path d="M60,256 C60,316.657494 108.811576,366 168.903251,366 L343.096749,366 C403.380526,366 452,316.832924 452,256 C452,195.342506 403.188424,146 343.096749,146 L168.903251,146 C108.619474,146 60,195.167076 60,256 Z M40,256 C40,184.202983 97.8131847,126 169.614244,126 L342.385756,126 C413.969726,126 472,184.349075 472,256 C472,327.797017 414.186815,386 342.385756,386 L169.614244,386 C98.0302739,386 40,327.650925 40,256 Z M170,332 C211.973641,332 246,297.973641 246,256 C246,214.026359 211.973641,180 170,180 C128.026359,180 94,214.026359 94,256 C94,297.973641 128.026359,332 170,332 Z M170,312 C139.072054,312 114,286.927946 114,256 C114,225.072054 139.072054,200 170,200 C200.927946,200 226,225.072054 226,256 C226,286.927946 200.927946,312 170,312 Z" id="Combined-Shape"></path>
        </g>
    </g>
</svg>