<?xml version="1.0" encoding="UTF-8"?>
<svg width="256px" height="256px" viewBox="0 0 256 256" version="1.1" xmlns="http://www.w3.org/2000/svg" xmlns:xlink="http://www.w3.org/1999/xlink">
    <!-- Generator: Sketch 46.2 (44496) - http://www.bohemiancoding.com/sketch -->
    <title>illustration-import-yml</title>
    <desc>Created with Sketch.</desc>
    <defs>
        <path d="M29.27,60.12 C29.27,60.12 34.95,61.57 42.08,57.95 C42.08,57.95 44.66,62.38 53.62,62.04 C62.58,61.7 67,58 67,58 L79.7791408,39.5165688 L84.6512714,23.2908741 L74.4577384,6.90751771 L37.5988717,0.640145249 L9.47356512,9.11606312 L0.836781059,39.5165688 L11.2213026,56.2537027 L29.27,60.12 Z" id="path-1"></path>
    </defs>
    <g id="256x256" stroke="none" stroke-width="1" fill="none" fill-rule="evenodd">
        <g id="illustration-import-yml">
            <g id="Import_YML" transform="translate(15.000000, 40.000000)">
                <path d="M5.44,163.11 C5.43999945,126.111575 25.1784238,91.9236205 57.2199996,73.4244079 C89.2615753,54.9251953 128.738425,54.9251953 160.78,73.4244079 C192.821576,91.9236205 212.560001,126.111575 212.56,163.11 L5.44,163.11 Z" id="Shape" fill="#E1F2FF" fill-rule="nonzero"></path>
                <path d="M134.26,128.82 L62.26,128.82 C61.0339279,128.82 60.04,127.826072 60.04,126.6 L60.04,2.22 C60.039994,1.62948268 60.2752584,1.06329622 60.6937545,0.646676807 C61.1122506,0.230057391 61.6794887,-0.00265998796 62.27,-4.5519144e-15 L155.73,-4.5519144e-15 C156.956072,-4.3298698e-15 157.95,0.993927855 157.95,2.22 L157.95,106 L134.26,128.82 Z" id="Shape" stroke="#375D81" stroke-width="2" fill="#FFFFFF" fill-rule="nonzero"></path>
                <path d="M157.95,106.64 L138,106.64 C135.901318,106.64 134.2,108.341318 134.2,110.44 L134.2,128.83" id="Shape" stroke="#375D81" stroke-width="2"></path>
                <circle id="Oval" fill="#EFEFF6" fill-rule="nonzero" cx="104" cy="52.15" r="21.23"></circle>
                <circle id="Oval" stroke="#375D81" stroke-width="2" fill="#FFFFFF" fill-rule="nonzero" cx="109" cy="48.15" r="21.23"></circle>
                <path d="M108.94,38.98 L108.94,52.69" id="Shape" stroke="#9452BA" stroke-width="3" fill="#FFFFFF" fill-rule="nonzero" stroke-linecap="round" stroke-linejoin="round"></path>
                <polyline id="Shape" stroke="#9452BA" stroke-width="3" stroke-linecap="round" stroke-linejoin="round" points="104.1 47.84 108.94 52.69 113.79 47.84"></polyline>
                <path d="M102.02,57.31 L115.98,57.31" id="Shape" stroke="#9452BA" stroke-width="3" fill="#FFFFFF" fill-rule="nonzero" stroke-linecap="round" stroke-linejoin="round"></path>
                <path d="M205.44,174.93 L183.1,174.93" id="Shape" stroke="#9ACDED" stroke-width="2" fill="#FFFFFF" fill-rule="nonzero" stroke-linecap="round"></path>
                <path d="M220.67,163.96 L225.67,163.96" id="Shape" stroke="#9ACDED" stroke-width="2" stroke-linecap="round"></path>
                <path d="M139.7,174.93 L83.97,174.93" id="Shape" stroke="#9ACDED" stroke-width="2" fill="#FFFFFF" fill-rule="nonzero" stroke-linecap="round"></path>
                <path d="M77.33,174.93 L66,174.93" id="Shape" stroke="#9ACDED" stroke-width="2" fill="#FFFFFF" fill-rule="nonzero" stroke-linecap="round"></path>
                <path d="M144.66,174.93 L149,174.93" id="Shape" stroke="#9ACDED" stroke-width="2" fill="#FFFFFF" fill-rule="nonzero" stroke-linecap="round"></path>
                <path d="M216.5,174.93 L212.83,174.93" id="Shape" stroke="#9ACDED" stroke-width="2" fill="#FFFFFF" fill-rule="nonzero" stroke-linecap="round"></path>
                <path d="M18.83,174.93 L5.17,174.93" id="Shape" stroke="#9ACDED" stroke-width="2" fill="#FFFFFF" fill-rule="nonzero" stroke-linecap="round"></path>
                <path d="M216.38,164 L200.32,164 C202.788705,156.161593 200.888143,147.601568 195.334236,141.544403 C189.780329,135.487238 181.416848,132.853161 173.394236,134.634403 C165.371623,136.415645 158.908705,142.341593 156.44,150.18 C152.087863,149.202999 147.525972,150.166115 143.940181,152.818986 C140.35439,155.471857 138.098892,159.552442 137.76,164 L124,164 C123.467327,154.434973 116.118044,146.646423 106.6,145.56 C103.98611,133.000429 94.2512477,123.140299 81.726122,120.366046 C69.2009964,117.591793 56.2129805,122.418919 48.54,132.7 C39.6590356,130.459196 30.2510184,132.976187 23.67537,139.352203 C17.0997217,145.728219 14.293972,155.054193 16.26,164 L0,164" id="Shape" stroke="#9ACDED" stroke-width="2" fill="#FFFFFF" fill-rule="nonzero" stroke-linecap="round"></path>
                <path d="M37.6,147 C37.6,147 43.28,148.45 50.41,144.83 C50.41,144.83 52.99,149.26 61.95,148.92 C70.91,148.58 75.38,144.83 75.38,144.83" id="Shape" stroke="#9ACDED" stroke-width="2" stroke-linecap="round"></path>
                <g id="Group-2" transform="translate(8.000000, 86.000000)">
                    <mask id="mask-2" fill="white">
                        <use xlink:href="#path-1"></use>
                    </mask>
                    <g id="Shape"></g>
                    <g id="Group" mask="url(#mask-2)">
                        <g transform="translate(16.000000, 24.000000)">
                            <path d="M10.29,65.8 L7.94,61.41 C7.13083017,59.8985562 7.32918966,58.0458785 8.44,56.74 C11.62,53.03 15.51,51.45 18.56,49.57 C24.22,46.1 27.7,45.41 33.05,43.66 L36.43,50.33 C36.43,50.33 33.7,51.07 26.22,54.59 C23.91,55.68 16.85,64.25 12.32,66.45 C11.5788904,66.8178593 10.6796067,66.5299113 10.29,65.8 L10.29,65.8 Z" id="Shape" stroke="#52267D" stroke-width="2" fill="#9452BA" fill-rule="nonzero"></path>
                            <path d="M38,67.41 L46.85,69.49 L48.47,72.83 L41.72,77.28 C37.2778703,80.4200906 33.0700955,83.8792224 29.13,87.63 C28.3489492,88.417089 27.4798966,89.11166 26.54,89.7 C25.8454612,90.1056631 25.0150482,90.2090586 24.2422387,89.9860965 C23.4694292,89.7631343 22.8217125,89.2332857 22.45,88.52 L20.37,84.63 C19.1435723,82.3673959 19.6043595,79.5615313 21.49,77.81 C27.4,72.41 38,67.41 38,67.41 Z" id="Shape" stroke="#52267D" stroke-width="2" fill="#9452BA" fill-rule="nonzero"></path>
                            <polyline id="Shape" stroke="#52267D" stroke-width="0.5" fill="none" points="37.85 77.08 37.55 78.36 36.35 77.93 36.14 76.29 36.89 76.24 37.22 77.51 37.02 77.61 36.87 77.31"></polyline>
                            <path d="M64.36,62.84 C62.36,58.94 63.09,53.89 59.24,45.84 C59.6562422,45.493964 60.0349868,45.1051643 60.37,44.68 C62.69,41.6 70.51,34.83 77.05,32.99 L82.22,31.54 C83.9179212,31.0532606 85.5576338,30.3826215 87.11,29.54 L87.11,29.54 C87.7455999,29.201375 88.3453188,28.7993288 88.9,28.34 L89.3,27.99 C89.6843463,27.636962 90.041993,27.2559178 90.37,26.85 L90.68,26.44 C90.88,26.16 91.07,25.8733333 91.25,25.58 C91.43,25.2866667 91.59,24.9833333 91.73,24.67 C92.1612503,23.7436769 92.4575929,22.7603581 92.61,21.75 C92.6633333,21.41 92.6966667,21.0766667 92.71,20.75 C92.8147437,18.8072189 92.3822552,16.8731302 91.46,15.16 L90.64,13.62 C89.3108168,11.1297712 87.043281,9.27255138 84.34,8.46 C84.0133333,8.36 83.68,8.27666667 83.34,8.21 C82.7303419,8.0895361 82.1113175,8.02261454 81.49,8.01 L80.79,8.01 L80.27,8.01 C79.21826,8.10572825 78.1868048,8.35853589 77.21,8.76 C76.8688373,8.899437 76.535064,9.05631044 76.21,9.23 L76.21,9.23 C75.5888139,9.56094384 75.1248028,10.1254139 74.9203185,10.7988989 C74.7158342,11.472384 74.787677,12.1995506 75.12,12.82 L80.26,22.42 L71.15,25.42 C61.68,28.3 56.23,31.88 53.15,35.24 C52.46,35.99 50.34,39.24 50.34,39.24 C40.19,38.5 32.94,32.91 27.76,25.55 C23.36,19.3 21.76,1.55 32.76,5.25 C43.76,8.95 34.6,2.25 33,1.42 C31.4,0.59 20.68,-3.58 15.42,9.97 C13.2,15.68 11.6,21.67 13.86,32.78 C14.22,34.56 18.1,43.27 19.23,48.48 C22.57,63.99 32.62,72.67 44.77,74.04 C56.92,75.41 65.14,64.38 64.36,62.84 Z" id="Shape" stroke="#52267D" stroke-width="2" fill="#9452BA" fill-rule="nonzero"></path>
                            <path d="M72.65,47.67 C82.41,42.05 94.43,45.75 100.87,53.82 C102.21,55.5 103.11,55.82 104.2,57.82 L105.03,59.38 C106.389603,61.9013456 106.689772,64.86015 105.864237,67.6031768 C105.038703,70.3462035 103.155357,72.6478625 100.63,74 C99.3210159,74.7007055 97.6918448,74.2083735 96.99,72.9 C96.99,72.9 88.44,56.9 88.41,56.85 L87.71,55.55 L88.41,56.86 C85.02,54.13 79.33,54.35 76.69,55.26 C73.466002,56.2228295 70.6390873,58.2009683 68.63,60.9 C67.4679106,62.4067976 65.9199236,63.5712432 64.15,64.27 L64.07,64.2 C63.0976245,64.6111006 62.0945608,64.9454551 61.07,65.2 C61.31,63.13 61.64,59.95 61.63,59.4 C61.63,58.22 61.63,55.54 61.63,54.32 C61.91,46.54 67.09,50.87 72.65,47.67 Z" id="Shape" stroke="#52267D" stroke-width="2" fill="#9452BA" fill-rule="nonzero"></path>
                            <path d="M63.9,58.9 C65.47,58.16 66.39,57.97 66.9,57.46 C69.96,54.55 70.9,53.62 74.72,51.58 C78.6426841,49.583776 83.3090439,49.7079614 87.12,51.91 C88.1434362,53.3257416 88.5935481,55.0761767 88.38,56.81 C84.99,54.08 79.3,54.3 76.66,55.21 C73.436002,56.1728295 70.6090873,58.1509683 68.6,60.85 C67.4379106,62.3567976 65.8899236,63.5212432 64.12,64.22 C64.12,64.22 60.17,60.76 63.87,58.89" id="Shape" stroke="#52267D" stroke-width="1" fill="#F3E3FF" fill-rule="nonzero"></path>
                            <path d="M106.09,65.23 C107.091691,64.6291534 107.653555,63.5015233 107.53,62.34 C107.46,61.73 107.34,60.61 107.34,60.61 C107.34,60.61 104.74,60.74 104.81,62.13 C104.845531,63.2845984 105.300585,64.3866827 106.09,65.23 Z" id="Shape" stroke="#52267D" stroke-width="1" fill="#FFFFFF" fill-rule="nonzero"></path>
                            <path d="M105.05,60.48 C106.407173,59.6444287 106.923105,57.9246549 106.25,56.48 C106.06,55.97 105.37,54.75 105.37,54.75 C105.37,54.75 102.67,55.46 103.16,56.92 C103.623902,58.1876621 104.259854,59.3855403 105.05,60.48 Z" id="Shape" stroke="#52267D" stroke-width="1" fill="#FFFFFF" fill-rule="nonzero"></path>
                            <path d="M102.13,55.53 C102.13,55.53 104.46,53.85 102.56,51.97 C102.056715,51.4802356 101.42016,51.1497838 100.73,51.02 C100.73,51.02 99.06,52.49 99.73,53.27 C100.464808,54.0896933 101.267673,54.8457248 102.13,55.53 L102.13,55.53 Z" id="Shape" stroke="#52267D" stroke-width="1" fill="#FFFFFF" fill-rule="nonzero"></path>
                            <path d="M86.45,55.51 C86.45,55.51 86.45,48.73 91.83,47.16 C90.2065997,46.5231771 88.5345215,46.0182095 86.83,45.65 C85.89,46.15 82.06,47.98 82.32,54.48 C83.7175215,54.7335235 85.097094,55.0775815 86.45,55.51 L86.45,55.51 Z" id="Shape" stroke="#52267D" stroke-width="1" fill="#FFFFFF" fill-rule="nonzero"></path>
                            <path d="M106.17,64.27 C106.688732,63.9625513 106.978502,63.3790951 106.91,62.78 C106.91,62.46 106.81,61.88 106.81,61.88 C106.81,61.88 105.46,61.95 105.5,62.67 C105.521653,63.2669933 105.759803,63.8357093 106.17,64.27 Z" id="Shape" stroke="none" fill="#F3E3FF" fill-rule="nonzero"></path>
                            <path d="M105,59.12 C105.671076,58.6967784 105.930655,57.8456997 105.61,57.12 C105.51,56.86 105.16,56.24 105.16,56.24 C105.16,56.24 103.78,56.6 104.03,57.35 C104.272216,57.9809592 104.598495,58.5763348 105,59.12 Z" id="Shape" stroke="none" fill="#F3E3FF" fill-rule="nonzero"></path>
                            <path d="M101.87,54.63 C101.87,54.63 103.11,53.74 102.1,52.74 C101.824719,52.476299 101.47613,52.3020046 101.1,52.24 C101.1,52.24 100.21,53.02 100.58,53.43 C100.975111,53.8659382 101.406674,54.2673923 101.87,54.63 Z" id="Shape" stroke="none" fill="#F3E3FF" fill-rule="nonzero"></path>
                            <path d="M91.7245726,58.9160525 L97.1745726,58.9160525 C98.5442388,58.9160525 99.6545726,60.0263864 99.6545726,61.3960525 L99.6545726,61.3960525 C99.6545726,62.7657187 98.5442388,63.8760525 97.1745726,63.8760525 L96.6945726,63.8760525 C93.9331489,63.8760525 91.6945726,61.6374763 91.6945726,58.8760525 L91.6945726,58.8760525 L91.7245726,58.9160525 Z" id="Shape" stroke="none" fill="#F3E3FF" fill-rule="nonzero" opacity="0.3" transform="translate(95.674573, 61.376053) rotate(-118.170000) translate(-95.674573, -61.376053) "></path>
                            <path d="M92.0839437,59.9187621 L96.9939437,59.9187621 C98.0985132,59.9187621 98.9939437,60.8141926 98.9939437,61.9187621 L98.9939437,61.9187621 C98.9939437,63.0233316 98.0985132,63.9187621 96.9939437,63.9187621 L95.9939437,63.9187621 C93.8400332,63.9187621 92.0939437,62.1726726 92.0939437,60.0187621 L92.0939437,60.0187621 L92.0839437,59.9187621 Z" id="Shape" stroke="#52267D" stroke-width="1" fill="#FFFFFF" fill-rule="nonzero" transform="translate(95.538944, 61.918762) rotate(-118.170000) translate(-95.538944, -61.918762) "></path>
                            <circle id="Oval" stroke="none" fill="#52267D" fill-rule="nonzero" transform="translate(95.419991, 63.652514) rotate(-28.170000) translate(-95.419991, -63.652514) " cx="95.4199913" cy="63.6525136" r="1.09"></circle>
                            <path d="M97.83,72.7 L97.83,72.7 C97.7431136,72.3956109 97.7643148,72.0705257 97.89,71.78 L98.12,71.24 L98.35,72.04 L98.49,72.51 C98.5416414,72.6894019 98.4389715,72.8768861 98.26,72.93 L98.26,72.93 C98.1724801,72.9578913 98.0773987,72.9491836 97.9964009,72.9058592 C97.9154031,72.8625348 97.8553815,72.7882804 97.83,72.7 Z" id="Shape" stroke="none" fill="#52267D" fill-rule="nonzero"></path>
                            <path d="M85.88,54.68 C85.88,54.68 85.88,49.47 90.31,47.18 C89.2967818,46.6175821 88.1880253,46.2479966 87.04,46.09 C85.9862706,46.8730092 85.1414287,47.9033042 84.58,49.09 C83.77,51.4 84.11,53.23 85.88,54.68 Z" id="Shape" stroke="none" fill="#EAF3FB" fill-rule="nonzero"></path>
                            <path d="M84.6,50.43 C84.1614717,51.8705832 83.9225794,53.3645016 83.89,54.87" id="Shape" stroke="#52267D" stroke-width="1" fill="#FFFFFF" fill-rule="nonzero"></path>
                            <path d="M59.05,43.71 L61.31,43.66 C71.38,42.6 76.52,40.51 83.47,34.54 L87.55,31.04 C88.8864916,29.8846597 90.3451349,28.8786988 91.9,28.04 L91.9,28.04 C97.0804996,25.2682237 103.527089,27.2201077 106.3,32.4 L107.11,33.91 C108.423145,36.3631891 108.707821,39.2375927 107.901387,41.9007017 C107.094952,44.5638106 105.263486,46.7974104 102.81,48.11 L102.54,48.25 C101.330028,48.9027419 99.8200479,48.4560023 99.16,47.25 L94,37.67 L86.45,43.59 C66.54,60 57.25,64.39 54.42,54.64" id="Shape" stroke="#52267D" stroke-width="2" fill="#9452BA" fill-rule="nonzero"></path>
                            <path d="M108.48,39.15 C109.423902,38.4572663 109.926974,37.3139193 109.8,36.15 C109.683925,35.6769719 109.446039,35.242572 109.11,34.89 C109.11,34.89 107.11,34.74 107.22,36.1 C107.252988,37.2365204 107.701238,38.3215697 108.48,39.15 L108.48,39.15 Z" id="Shape" stroke="#52267D" stroke-width="1" fill="#FFFFFF" fill-rule="nonzero"></path>
                            <path d="M107,35 C108.523838,34.0580283 109.107049,32.1282843 108.36,30.5 C108.182464,30.0691506 107.968348,29.6543008 107.72,29.26 C107.72,29.26 104.3,29.34 104.86,31 C105.387845,32.4245673 106.107835,33.7703439 107,35 Z" id="Shape" stroke="#52267D" stroke-width="1" fill="#FFFFFF" fill-rule="nonzero"></path>
                            <path d="M103.62,30.18 C103.62,30.18 105.86,28.48 103.95,26.68 C103.445834,26.2157861 102.816477,25.9098003 102.14,25.8 C102.14,25.8 100.54,27.28 101.24,28.03 C101.971718,28.8120588 102.767851,29.5312552 103.62,30.18 Z" id="Shape" stroke="#52267D" stroke-width="1" fill="#FFFFFF" fill-rule="nonzero"></path>
                            <path d="M64.54,62.48 C64.6503723,61.8148766 64.6231445,61.1341828 64.46,60.48" id="Shape" stroke="#52267D" stroke-width="1" fill="#F3E3FF" fill-rule="nonzero"></path>
                            <path d="M62.89,59.28 C70.1,57.44 80.75,48.09 83.47,45.97 L94.37,37.48 L93.89,36.58 C93.5307063,36.0451946 92.9675942,35.6813602 92.3323802,35.5736007 C91.6971663,35.4658412 91.0455682,35.6236087 90.53,36.01 L80.92,43.08 C77.66,45.47 61.62,54.74 54.84,50.49 C53.39,49.58 52.75,47.2 52.7,46.19 C52.53,42.53 55.7,39.75 58.3,37.55 C63.65,32.99 68.95,31.47 73.86,29.22 L79.96,26.35 C81.1210842,25.8218233 81.6558585,24.4694188 81.17,23.29 L80.58,22.2 L67.52,26.66 C63.78,27.9 51.12,32.72 49.3,42.66 C49.3,42.84 47.88,41.23 47.23,42.26 C44.64,46.35 47.31,52.75 46.34,54.75 C42.58,62.44 27.34,65.29 27.34,65.29 C30.0330331,67.524735 33.038098,69.3540515 36.26,70.72 C46.42,74.41 56.11,70.38 58.84,68.96 C62.1,67.26 63.66,65.33 64.3,63.64" id="Shape" stroke="#52267D" stroke-width="1" fill="#F3E3FF" fill-rule="nonzero"></path>
                            <path d="M26.75,4.55 C27.156271,3.55447601 28.0642533,2.8525065 29.13,2.71 C29.579043,2.70956313 30.0203635,2.82678889 30.41,3.05 C30.41,3.05 30.98,4.77 29.74,5.05 C28.7156967,5.25276832 27.652604,5.07499361 26.75,4.55 L26.75,4.55 Z" id="Shape" stroke="#52267D" stroke-width="1" fill="#FFFFFF" fill-rule="nonzero"></path>
                            <path d="M28.48,4.05 C28.6216691,3.70136014 28.9375661,3.45397093 29.31,3.4 C29.4679306,3.3998245 29.6231268,3.44121017 29.76,3.52 C29.76,3.52 29.96,4.12 29.53,4.21 C29.1722,4.28651298 28.7987718,4.22960964 28.48,4.05 L28.48,4.05 Z" id="Shape" stroke="none" fill="#F3E3FF" fill-rule="nonzero"></path>
                            <path d="M23.17,17.08 C24.8251596,16.8785232 26.0720679,15.4773582 26.08,13.81 C26.0966838,13.3790763 26.0766111,12.9475146 26.02,12.52 C26.02,12.52 23.1,11.25 22.92,12.87 C22.8115105,14.2781726 22.8956192,15.6945632 23.17,17.08 L23.17,17.08 Z" id="Shape" stroke="#52267D" stroke-width="1" fill="#FFFFFF" fill-rule="nonzero"></path>
                            <path d="M23.57,15.84 C24.4977597,15.7277278 25.1918753,14.9344528 25.18,14 C25.2005602,13.7604403 25.2005602,13.5195597 25.18,13.28 C25.18,13.28 23.56,12.58 23.46,13.47 C23.3871242,14.2612909 23.4241422,15.0588613 23.57,15.84 Z" id="Shape" stroke="none" fill="#F3E3FF" fill-rule="nonzero"></path>
                            <path d="M26.59,6.27 C26.59,6.27 24.25,5.39 23.8,7.68 C23.6906618,8.28010775 23.7602138,8.89911971 24,9.46 C24,9.46 25.88,9.96 26.11,9.08 C26.3483904,8.15842403 26.5089547,7.21845343 26.59,6.27 L26.59,6.27 Z" id="Shape" stroke="#52267D" stroke-width="1" fill="#FFFFFF" fill-rule="nonzero"></path>
                            <path d="M25.68,7.06 C25.68,7.06 24.68,6.67 24.44,7.68 C24.3918455,7.94646015 24.4231448,8.22119918 24.53,8.47 C24.53,8.47 25.36,8.69 25.46,8.3 C25.5677838,7.89352482 25.6413738,7.47874508 25.68,7.06 L25.68,7.06 Z" id="Shape" stroke="none" fill="#F3E3FF" fill-rule="nonzero"></path>
                            <path d="M26.28,25.65 C27.6037746,25.3100419 28.424143,23.986867 28.14,22.65 C27.77,20.1 26.82,19.87 26.82,19.87 C26.82,19.87 24.19,19.75 24.12,21.15 C24.05,22.55 26.28,25.65 26.28,25.65 Z" id="Shape" stroke="#52267D" stroke-width="1" fill="#FFFFFF" fill-rule="nonzero"></path>
                            <path d="M26.19,24.41 C26.8997828,24.2460676 27.3456151,23.5416525 27.19,22.83 C27,21.5 26.5,21.38 26.5,21.38 C26.5,21.38 25.13,21.32 25.1,22.05 C25.2983302,22.9028574 25.6692907,23.7060381 26.19,24.41 Z" id="Shape" stroke="none" fill="#F3E3FF" fill-rule="nonzero"></path>
                            <path d="M91.7,39.52 C89.1175838,37.5648672 87.4567854,34.6304282 87.11,31.41 L83.16,34.81 C83.16,34.81 84.16,39.99 88.16,42.26 C90,40.85 91.7,39.52 91.7,39.52 Z" id="Shape" stroke="#52267D" stroke-width="1" fill="#FFFFFF" fill-rule="nonzero"></path>
                            <path d="M86.69,9.33 C87.7927227,8.92702638 89.0265094,9.14027348 89.93,9.89 C90.4040633,10.4097742 90.8198679,10.9798289 91.17,11.59 C91.17,11.59 89.64,12.9 88.53,12.07 C87.6049412,11.4097729 86.9510904,10.4361037 86.69,9.33 L86.69,9.33 Z" id="Shape" stroke="#52267D" stroke-width="1" fill="#FFFFFF" fill-rule="nonzero"></path>
                            <path d="M89.74,13 C91.1622511,12.3430441 92.8510862,12.8544217 93.67,14.19 C93.8965061,14.5258794 94.0938911,14.8805033 94.26,15.25 C94.26,15.25 92.55,17.69 91.61,16.49 C90.8304468,15.4173765 90.2012814,14.2431588 89.74,13 L89.74,13 Z" id="Shape" stroke="#52267D" stroke-width="1" fill="#FFFFFF" fill-rule="nonzero"></path>
                            <path d="M92.13,17.85 C92.13,17.85 94.81,16.92 95.25,19.52 C95.3571376,20.1987299 95.2632793,20.8939764 94.98,21.52 C94.98,21.52 92.84,22.03 92.61,21.03 C92.361626,19.9852354 92.2010664,18.9215281 92.13,17.85 Z" id="Shape" stroke="#52267D" stroke-width="1" fill="#FFFFFF" fill-rule="nonzero"></path>
                            <path d="M108.44,38.09 C108.94227,37.7237221 109.212533,37.1184856 109.15,36.5 C109.087109,36.2482595 108.959568,36.0173065 108.78,35.83 C108.78,35.83 107.78,35.75 107.78,36.48 C107.799227,37.0785739 108.033544,37.650166 108.44,38.09 L108.44,38.09 Z" id="Shape" stroke="none" fill="#F3E3FF" fill-rule="nonzero"></path>
                            <path d="M106.88,33.84 C107.832095,33.2474428 108.196038,32.0400089 107.73,31.02 C107.618739,30.7524568 107.484923,30.4948617 107.33,30.25 C107.33,30.25 105.19,30.3 105.53,31.34 C105.864201,32.2308552 106.31839,33.0719457 106.88,33.84 Z" id="Shape" stroke="none" fill="#F3E3FF" fill-rule="nonzero"></path>
                            <path d="M103.36,29.1 C103.36,29.1 104.65,28.1 103.55,27.1 C103.272188,26.8380225 102.925185,26.6610509 102.55,26.59 C102.55,26.59 101.63,27.45 102.03,27.88 C102.439167,28.322411 102.883997,28.7304507 103.36,29.1 Z" id="Shape" stroke="none" fill="#F3E3FF" fill-rule="nonzero"></path>
                            <path d="M87.54,9.91 C88.12099,9.69544652 88.7722334,9.8058913 89.25,10.2 C89.4987708,10.4754537 89.7167285,10.7772413 89.9,11.1 C89.9,11.1 89.09,11.79 88.51,11.36 C88.0217287,11.0100936 87.6770542,10.4948585 87.54,9.91 L87.54,9.91 Z" id="Shape" stroke="none" fill="#F3E3FF" fill-rule="nonzero"></path>
                            <path d="M90.66,13.77 C91.4461594,13.4096118 92.3776336,13.6929174 92.83,14.43 C92.9532963,14.6171815 93.0603533,14.8145679 93.15,15.02 C93.15,15.02 92.2,16.37 91.69,15.7 C91.2599098,15.1068665 90.9133369,14.4574629 90.66,13.77 Z" id="Shape" stroke="none" fill="#F3E3FF" fill-rule="nonzero"></path>
                            <path d="M92.76,18.63 C92.76,18.63 94.22,18.12 94.47,19.55 C94.5288127,19.9234441 94.4766544,20.3059378 94.32,20.65 C94.32,20.65 93.15,20.93 93.02,20.38 C92.8844418,19.8049842 92.7974688,19.2195891 92.76,18.63 Z" id="Shape" stroke="none" fill="#F3E3FF" fill-rule="nonzero"></path>
                            <path d="M82,31.58 C80.1599808,29.0309868 78.7761288,26.1820787 77.91,23.16 C75.51,23.94 73.73,24.57 73.73,24.57 C73.73,24.57 73.33,28.37 77.19,32.94 C80.33,32 82,31.58 82,31.58 Z" id="Shape" stroke="#52267D" stroke-width="1" fill="#FFFFFF" fill-rule="nonzero"></path>
                            <path d="M85.0239706,17.3486579 L85.5039706,17.3486579 C86.8736368,17.3486579 87.9839706,18.4589917 87.9839706,19.8286579 L87.9839706,19.8286579 C87.9839706,21.1983241 86.8736368,22.3086579 85.5039706,22.3086579 L80.0239706,22.3086579 L80.0239706,22.3086579 C80.0239706,19.5472341 82.2625469,17.3086579 85.0239706,17.3086579 L85.0239706,17.3486579 Z" id="Shape" stroke="none" fill="#F3E3FF" fill-rule="nonzero" opacity="0.3" transform="translate(84.003971, 19.808658) rotate(61.830000) translate(-84.003971, -19.808658) "></path>
                            <path d="M83.8773829,17.701511 L84.9973829,17.701511 C85.4774248,17.701511 85.9378054,17.8922069 86.2772462,18.2316478 C86.616687,18.5710886 86.8073829,19.0314692 86.8073829,19.511511 L86.8073829,19.511511 C86.8073829,20.6657862 85.8716581,21.601511 84.7173829,21.601511 L79.9973829,21.601511 L79.9973829,21.601511 C79.9973829,20.5671667 80.4082746,19.5751865 81.1396665,18.8437946 C81.8710584,18.1124027 82.8630386,17.701511 83.8973829,17.701511 L83.8773829,17.701511 Z" id="Shape" stroke="#52267D" stroke-width="1" fill="#FFFFFF" fill-rule="nonzero" transform="translate(83.402383, 19.651511) rotate(61.830000) translate(-83.402383, -19.651511) "></path>
                            <circle id="Oval" stroke="none" fill="#52267D" fill-rule="nonzero" transform="translate(83.146859, 18.565925) rotate(-28.170000) translate(-83.146859, -18.565925) " cx="83.1468592" cy="18.565925" r="1.09"></circle>
                            <path d="M94.4807026,34.3974164 L99.9307026,34.3974164 C101.300369,34.3974164 102.410703,35.5077502 102.410703,36.8774164 L102.410703,36.8774164 C102.410703,38.2470826 101.300369,39.3574164 99.9307026,39.3574164 L99.4507026,39.3574164 C96.6892789,39.3574164 94.4507026,37.1188401 94.4507026,34.3574164 L94.4507026,34.3574164 L94.4807026,34.3974164 Z" id="Shape" stroke="none" fill="#F3E3FF" fill-rule="nonzero" opacity="0.3" transform="translate(98.430703, 36.857416) rotate(-118.170000) translate(-98.430703, -36.857416) "></path>
                            <path d="M94.8574341,35.3945337 L99.7474341,35.3945337 C100.852004,35.3945337 101.747434,36.2899642 101.747434,37.3945337 L101.747434,37.3945337 C101.747434,38.4991032 100.852004,39.3945337 99.7474341,39.3945337 L98.7474341,39.3945337 C97.7130898,39.3945337 96.7211095,38.983642 95.9897177,38.2522501 C95.2583258,37.5208583 94.8474341,36.528878 94.8474341,35.4945337 L94.8474341,35.4945337 L94.8574341,35.3945337 Z" id="Shape" stroke="#52267D" stroke-width="1" fill="#FFFFFF" fill-rule="nonzero" transform="translate(98.297434, 37.394534) rotate(-118.170000) translate(-98.297434, -37.394534) "></path>
                            <circle id="Oval" stroke="none" fill="#52267D" fill-rule="nonzero" transform="translate(96.981847, 36.725892) rotate(-28.170000) translate(-96.981847, -36.725892) " cx="96.981847" cy="36.7258924" r="1.09"></circle>
                            <path d="M75.84,12.26 L75.84,12.26 C76.0454466,12.5012343 76.3281614,12.6637953 76.64,12.72 L77.22,12.82 L76.68,12.19 L76.36,11.82 C76.2273175,11.6877759 76.0126825,11.6877759 75.88,11.82 L75.88,11.82 C75.7602059,11.9368391 75.743239,12.1234741 75.84,12.26 Z" id="Shape" stroke="none" fill="#52267D" fill-rule="nonzero"></path>
                            <path d="M100.17,46.89 L100.17,46.89 C100.083114,46.5856109 100.104315,46.2605257 100.23,45.97 L100.46,45.43 L100.69,46.23 L100.83,46.7 C100.881641,46.8794019 100.778971,47.0668861 100.6,47.12 L100.6,47.12 C100.51248,47.1478913 100.417399,47.1391836 100.336401,47.0958592 C100.255403,47.0525348 100.195382,46.9782804 100.17,46.89 Z" id="Shape" stroke="none" fill="#52267D" fill-rule="nonzero"></path>
                            <path d="M90.86,39.44 C88.73056,37.6111503 87.3141856,35.0900039 86.86,32.32 C85.878541,33.0767076 84.9403945,33.8879874 84.05,34.75 C84.6261053,35.9939984 85.3263219,37.1766609 86.14,38.28 C87.65,40.12 89,40.43 90.86,39.44 Z" id="Shape" stroke="none" fill="#EAF3FB" fill-rule="nonzero"></path>
                            <path d="M85.48,35.92 C86.4115188,37.970068 87.8291833,39.7618861 89.61,41.14" id="Shape" stroke="#52267D" stroke-width="1" fill="#FFFFFF" fill-rule="nonzero"></path>
                            <path d="M77.94,25.13 C78.4629537,27.3569971 79.4362672,29.4533647 80.8,31.29 C79.7585681,31.5777021 78.699718,31.7981567 77.63,31.95 C77.63,31.95 75.94,27.45 77.94,25.13 Z" id="Shape" stroke="none" fill="#EAF3FB" fill-rule="nonzero"></path>
                            <path d="M49.25,42.69 C49.25,42.69 49.25,42.96 49.2,43.32" id="Shape" stroke="#52267D" stroke-width="0.5" fill="#F3E3FF" fill-rule="nonzero"></path>
                            <path d="M76.58,25.47 C77.382603,27.8402262 78.5028019,30.0907158 79.91,32.16" id="Shape" stroke="#52267D" stroke-width="1" fill="#FFFFFF" fill-rule="nonzero"></path>
                            <path d="M13.66,65.9 C14.4111647,66.3043422 14.7584115,67.1936328 14.48,68 C14.19,69.48 13.29,71 12.92,70.56 C12.3601184,69.9690923 11.9368177,69.2624532 11.68,68.49 C11.42,67.68 10.92,67.1 12.32,65.97 C12.7086426,65.6702619 13.2422421,65.6423874 13.66,65.9 L13.66,65.9 Z" id="Shape" stroke="#52267D" stroke-width="0.5" fill="#FFFFFF" fill-rule="nonzero"></path>
                            <path d="M13.51,66.23 C13.9798203,66.4811225 14.1963528,67.0373139 14.02,67.54 C13.84,68.46 13.28,69.38 13.02,69.14 C12.6719514,68.7715846 12.4090892,68.3312051 12.25,67.85 C12.09,67.34 11.78,66.98 12.65,66.28 C12.8952329,66.0779394 13.2430031,66.0577202 13.51,66.23 L13.51,66.23 Z" id="Shape" stroke="none" fill="#EAF3FB" fill-rule="nonzero"></path>
                            <path d="M13,64.69 C12.82,64.21 11.5,64.09 11.25,64.32 C11,64.55 10.04,65.13 10.32,65.91 C10.53,66.49 11.32,68.5 11.98,68.69 C12.64,68.88 14,67.17 13,64.69 Z" id="Shape" stroke="#52267D" stroke-width="0.5" fill="#FFFFFF" fill-rule="nonzero"></path>
                            <path d="M12.7,64.71 C12.59,64.43 11.82,64.35 11.7,64.49 C11.58,64.63 10.99,64.97 11.15,65.43 C11.31,65.89 11.76,66.96 12.15,67.07 C12.54,67.18 13.25,66.17 12.7,64.71 Z" id="Shape" stroke="none" fill="#EAF3FB" fill-rule="nonzero"></path>
                            <path d="M11.83,62.9 C11.83,62.9 12.24,63.18 12.21,64.18 C12.18,65.18 12.11,66.4 11.21,66.55 C10.31,66.7 9.44,64.41 9.35,63.84 C9.26208536,63.2810973 9.57984129,62.7375675 10.11,62.54 C10.7053908,62.3266783 11.3701348,62.4658107 11.83,62.9 L11.83,62.9 Z" id="Shape" stroke="#52267D" stroke-width="0.5" fill="#FFFFFF" fill-rule="nonzero"></path>
                            <path d="M11.48,62.9 C11.48,62.9 11.72,63.06 11.71,63.66 C11.7,64.26 11.65,64.98 11.11,65.06 C10.57,65.14 10.11,63.79 10.01,63.46 C9.95997175,63.1293913 10.147399,62.8086825 10.46,62.69 C10.8124989,62.5634722 11.2061502,62.644518 11.48,62.9 L11.48,62.9 Z" id="Shape" stroke="none" fill="#EAF3FB" fill-rule="nonzero"></path>
                            <path d="M41.13,58.7 C36.7564015,60.7772285 32.630442,63.3400196 28.83,66.34 C22.21,71.39 21.05,74.69 19.09,75.54 C17.57,76.2 15.91,76.3 15.09,74.84 L12.76,70.48 C11.6727019,68.4484556 12.0026515,65.9496909 13.58,64.27 C15.2713247,62.4867388 17.1411103,60.8816719 19.16,59.48 C22.1548909,57.5530184 25.2602228,55.8033475 28.46,54.24" id="Shape" stroke="#52267D" stroke-width="2" fill="#9452BA" fill-rule="nonzero"></path>
                            <path d="M25.9,38.13 C25.3271596,40.2667468 23.8728597,42.0591715 21.9,43.06 C19.4,44.38 15.45,44.63 11.79,47.77 C8.53,50.56 8.79,52.54 5.18,53.82 C4.52606173,54.0409453 3.80867152,53.7522912 3.49,53.14 L0.89,48.29 C-0.306720418,46.0526485 0.289653849,43.2780278 2.3,41.73 C7.66,37.6 13.62,39.37 18.3,37.88" id="Shape" stroke="#52267D" stroke-width="2" fill="#9452BA" fill-rule="nonzero"></path>
                            <polyline id="Shape" stroke="#52267D" stroke-width="0.5" fill="none" points="19.89 40.12 19.94 39.72 19.24 38.91 19.14 40.29 20.41 41.19 20.74 39.36 20.24 38.89"></polyline>
                            <path d="M18.38,74.71 C19.1311647,75.1143422 19.4784115,76.0036328 19.2,76.81 C18.91,78.29 18.01,79.81 17.64,79.37 C17.0801184,78.7790923 16.6568177,78.0724532 16.4,77.3 C16.14,76.49 15.64,75.91 17.04,74.78 C17.4286426,74.4802619 17.9622421,74.4523874 18.38,74.71 L18.38,74.71 Z" id="Shape" stroke="#52267D" stroke-width="1" fill="#FFFFFF" fill-rule="nonzero"></path>
                            <path d="M18.23,75 C18.6998203,75.2511225 18.9163528,75.8073139 18.74,76.31 C18.56,77.23 18,78.15 17.74,77.91 C17.3919514,77.5415846 17.1290892,77.1012051 16.97,76.62 C16.81,76.11 16.5,75.75 17.37,75.05 C17.6152329,74.8479394 17.9630031,74.8277202 18.23,75 L18.23,75 Z" id="Shape" stroke="none" fill="#EAF3FB" fill-rule="nonzero"></path>
                            <polyline id="Shape" stroke="#52267D" stroke-width="0.5" fill="none" points="27.65 61.18 28.03 63.2 26.3 63.83 25.22 62.12 25.74 60.78 26.9 61.53 27.11 62.55 26.19 62.32"></polyline>
                            <g id="Group" opacity="0.3" stroke="none" stroke-width="1" fill="none" fill-rule="evenodd" transform="translate(11.000000, 10.000000)">
                                <path d="M89.48,60 C89.3103561,60.1255362 89.0831261,60.1407416 88.8982688,60.0389273 C88.7134114,59.937113 88.6048064,59.736939 88.6202291,59.5264621 C88.6356519,59.3159853 88.7722759,59.1337805 88.97,59.06" id="Shape" stroke="#F3E3FF" stroke-width="0.25"></path>
                                <path d="M90,61 C89.7478542,61.0940879 89.4649168,60.9881476 89.3365734,60.7515931 C89.2082301,60.5150387 89.2736633,60.2200888 89.49,60.06" id="Shape" stroke="#F3E3FF" stroke-width="0.25"></path>
                                <path d="M89.26,60.74 C89.0078542,60.8340879 88.7249168,60.7281476 88.5965734,60.4915931 C88.4682301,60.2550387 88.5336633,59.9600888 88.75,59.8" id="Shape" stroke="#F3E3FF" stroke-width="0.25"></path>
                                <path d="M80.23,41.67 C79.8516849,41.4518475 79.7218475,40.9683151 79.94,40.59 C80.1581525,40.2116849 80.6416849,40.0818475 81.02,40.3" id="Shape" stroke="#F3E3FF" stroke-width="0.25"></path>
                                <path d="M79.15,42 C78.9052731,41.8588801 78.7544226,41.5979197 78.7542726,41.31542 C78.7541226,41.0329203 78.9046957,40.7717997 79.1492726,40.63042 C79.3938495,40.4890402 79.6952731,40.4888801 79.94,40.63" id="Shape" stroke="#F3E3FF" stroke-width="0.25"></path>
                                <path d="M52.35,27.76 C52.1231364,27.8814703 51.8487021,27.8726832 51.6300739,27.7369486 C51.4114457,27.6012141 51.2818384,27.3591535 51.2900739,27.1019486 C51.2983093,26.8447438 51.4431364,26.6114703 51.67,26.49" id="Shape" stroke="#F3E3FF" stroke-width="0.25"></path>
                                <path d="M53,29 C52.6492992,29.1877768 52.2127768,29.0557008 52.025,28.705 C51.8372232,28.3542992 51.9692992,27.9177768 52.32,27.73" id="Shape" stroke="#F3E3FF" stroke-width="0.25"></path>
                                <path d="M52.06,28.73 C51.7092992,28.9177768 51.2727768,28.7857008 51.085,28.435 C50.8972232,28.0842992 51.0292992,27.6477768 51.38,27.46" id="Shape" stroke="#F3E3FF" stroke-width="0.25"></path>
                                <path d="M22.35,68.17 C22.1231363,68.2914703 21.848702,68.2826832 21.6300738,68.1469487 C21.4114456,68.0112142 21.2818383,67.7691535 21.2900738,67.5119487 C21.2983092,67.2547438 21.4431363,67.0214703 21.67,66.9" id="Shape" stroke="#F3E3FF" stroke-width="0.25"></path>
                                <path d="M23,69.44 C22.7731364,69.5614703 22.4987021,69.5526832 22.2800739,69.4169486 C22.0614457,69.2812141 21.9318384,69.0391535 21.9400739,68.7819486 C21.9483093,68.5247438 22.0931364,68.2914703 22.32,68.17" id="Shape" stroke="#F3E3FF" stroke-width="0.25"></path>
                                <path d="M22.05,69.15 C21.6992992,69.3377767 21.2627769,69.2057007 21.0750001,68.8549999 C20.8872233,68.5042992 21.0192992,68.0677768 21.37,67.88" id="Shape" stroke="#F3E3FF" stroke-width="0.25"></path>
                                <path d="M73.07,17.93 C72.8209129,18.0731655 72.5137388,18.0698183 72.2678305,17.9212591 C72.0219222,17.7726998 71.8760505,17.5023509 71.8868939,17.2152565 C71.8977373,16.9281622 72.0635863,16.6695868 72.32,16.54" id="Shape" stroke="#F3E3FF" stroke-width="0.25"></path>
                                <path d="M72.75,19 C72.367973,19.1930694 71.9016763,19.046767 71.6984183,18.6700621 C71.4951602,18.2933572 71.6288888,17.8233001 72,17.61" id="Shape" stroke="#F3E3FF" stroke-width="0.25"></path>
                                <path d="M65.54,33.41 C65.1056088,33.5021903 64.6624557,33.2968745 64.451924,32.9058871 C64.2413924,32.5148996 64.3139194,32.0319099 64.63,31.72" id="Shape" stroke="#F3E3FF" stroke-width="0.25"></path>
                                <path d="M65.15,34.71 C64.8467584,35.0092403 64.3872263,35.0835029 64.0051648,34.8950109 C63.6231034,34.7065189 63.4024127,34.2966648 63.4553569,33.873939 C63.5083011,33.4512132 63.8232536,33.1084456 64.24,33.02" id="Shape" stroke="#F3E3FF" stroke-width="0.25"></path>
                                <path d="M93.15,34.43 C92.8379591,34.5984468 92.4484468,34.4820409 92.28,34.17 C92.1115532,33.8579591 92.2279591,33.4684468 92.54,33.3" id="Shape" stroke="#F3E3FF" stroke-width="0.25"></path>
                                <path d="M92.89,35.3 C92.6881449,35.408966 92.4434905,35.4019664 92.2481956,35.2816378 C92.0529007,35.1613092 91.9366354,34.9459324 91.9431956,34.7166378 C91.9497558,34.4873431 92.0781449,34.278966 92.28,34.17" id="Shape" stroke="#F3E3FF" stroke-width="0.25"></path>
                                <path d="M7.6,11.73 C7.23725567,11.6140397 7.02175217,11.2417011 7.10189989,10.8694021 C7.1820476,10.497103 7.53167291,10.2464241 7.91,10.29" id="Shape" stroke="#F3E3FF" stroke-width="0.25"></path>
                                <path d="M6.72,12.3 C6.35725567,12.1840397 6.14175217,11.8117011 6.22189989,11.4394021 C6.3020476,11.067103 6.65167291,10.8164241 7.03,10.86" id="Shape" stroke="#F3E3FF" stroke-width="0.25"></path>
                                <path d="M30.45,32.8 C29.9987663,32.7896163 29.6304093,32.4358803 29.6017683,31.9854367 C29.5731274,31.5349931 29.8937153,31.1374514 30.34,31.07" id="Shape" stroke="#F3E3FF" stroke-width="0.25"></path>
                                <path d="M30.56,34.53 C30.2348754,34.5791393 29.9098247,34.4407781 29.7198605,34.172386 C29.5298963,33.903994 29.5074791,33.551433 29.6619201,33.2611424 C29.8163611,32.9708517 30.1212699,32.7924353 30.45,32.8" id="Shape" stroke="#F3E3FF" stroke-width="0.25"></path>
                                <path d="M29.64,33.72 C29.1887663,33.7096163 28.8204093,33.3558803 28.7917683,32.9054367 C28.7631274,32.4549931 29.0837153,32.0574514 29.53,31.99" id="Shape" stroke="#F3E3FF" stroke-width="0.25"></path>
                                <path d="M29.75,35.45 C29.2987663,35.4396163 28.9304093,35.0858803 28.9017683,34.6354367 C28.8731274,34.1849931 29.1937153,33.7874514 29.64,33.72" id="Shape" stroke="#F3E3FF" stroke-width="0.25"></path>
                                <path d="M28.72,32.91 C28.3948754,32.9591393 28.0698247,32.8207781 27.8798605,32.552386 C27.6898963,32.283994 27.6674791,31.931433 27.8219201,31.6411424 C27.9763611,31.3508517 28.2812699,31.1724353 28.61,31.18" id="Shape" stroke="#F3E3FF" stroke-width="0.25"></path>
                                <path d="M79.91,23.44 C79.4847407,23.6691982 78.9541982,23.5102593 78.725,23.085 C78.4958018,22.6597407 78.6547407,22.1291982 79.08,21.9" id="Shape" stroke="#F3E3FF" stroke-width="0.25"></path>
                                <path d="M50.91,39.31 C50.4847408,39.5391981 49.9541982,39.3802592 49.7250001,38.955 C49.4958019,38.5297407 49.6547408,37.9991982 50.08,37.77" id="Shape" stroke="#F3E3FF" stroke-width="0.25"></path>
                                <path d="M62.3,22 C62.0909996,22.1125387 61.8378366,22.1050284 61.6358751,21.9802981 C61.4339135,21.8555678 61.3138362,21.632567 61.320875,21.395298 C61.3279139,21.158029 61.4609996,20.9425386 61.67,20.83" id="Shape" stroke="#F3E3FF" stroke-width="0.25"></path>
                                <path d="M68.12,1 C67.9616246,1.09910755 67.7612074,1.10165066 67.6003682,1.00659366 C67.4395291,0.911536656 67.3451032,0.734739297 67.3555456,0.54820238 C67.365988,0.361665463 67.4795564,0.196511689 67.65,0.12" id="Shape" stroke="#F3E3FF" stroke-width="0.25"></path>
                                <path d="M1.72,31.82 C1.42346955,31.9182481 1.09704939,31.8508359 0.863698847,31.643157 C0.630348306,31.4354782 0.52551889,31.1190839 0.58869883,30.813157 C0.651878769,30.5072301 0.873469528,30.258248 1.17,30.16" id="Shape" stroke="#F3E3FF" stroke-width="0.25"></path>
                                <path d="M7.45,56.16 C7.0156088,56.2521903 6.57245574,56.0468745 6.36192405,55.6558871 C6.15139235,55.2648996 6.22391937,54.7819099 6.54,54.47" id="Shape" stroke="#F3E3FF" stroke-width="0.25"></path>
                                <path d="M7.06,57.46 C6.6256088,57.5521903 6.18245574,57.3468745 5.97192405,56.9558871 C5.76139235,56.5648996 5.83391937,56.0819099 6.15,55.77" id="Shape" stroke="#F3E3FF" stroke-width="0.25"></path>
                            </g>
                            <path d="M17.75,73.5 C17.57,73.02 16.25,72.9 16,73.13 C15.75,73.36 14.79,73.94 15.07,74.72 C15.28,75.3 16.07,77.31 16.73,77.5 C17.39,77.69 18.68,76 17.75,73.5 Z" id="Shape" stroke="#52267D" stroke-width="1" fill="#FFFFFF" fill-rule="nonzero"></path>
                            <path d="M17.41,73.52 C17.3,73.24 16.53,73.16 16.41,73.3 C16.29,73.44 15.7,73.78 15.86,74.24 C16.02,74.7 16.47,75.77 16.86,75.88 C17.25,75.99 18,75 17.41,73.52 Z" id="Shape" stroke="none" fill="#EAF3FB" fill-rule="nonzero"></path>
                            <path d="M16.42,72.17 C16.42,72.17 16.78,72.42 16.76,73.3 C16.74,74.18 16.67,75.3 15.86,75.4 C15.05,75.5 14.29,73.5 14.21,73.01 C14.1321094,72.5133031 14.417241,72.0310953 14.89,71.86 C15.4176504,71.6665174 16.009277,71.7863895 16.42,72.17 Z" id="Shape" stroke="#52267D" stroke-width="1" fill="#FFFFFF" fill-rule="nonzero"></path>
                            <path d="M16.11,72.17 C16.11,72.17 16.32,72.32 16.31,72.84 C16.3,73.36 16.26,74 15.78,74.08 C15.3,74.16 14.85,72.96 14.78,72.66 C14.733322,72.3667978 14.9010517,72.0816573 15.18,71.98 C15.5005124,71.8563828 15.8636578,71.9305738 16.11,72.17 L16.11,72.17 Z" id="Shape" stroke="none" fill="#EAF3FB" fill-rule="nonzero"></path>
                            <path d="M25.81,90.14 C25.81,90.14 26.17,90.39 26.15,91.27 C26.13,92.15 26.06,93.27 25.25,93.37 C24.44,93.47 23.68,91.47 23.6,90.98 C23.5221094,90.4833031 23.807241,90.0010953 24.28,89.83 C24.8076504,89.6365174 25.399277,89.7563895 25.81,90.14 L25.81,90.14 Z" id="Shape" stroke="#52267D" stroke-width="1" fill="#FFFFFF" fill-rule="nonzero"></path>
                            <path d="M25.5,90.14 C25.5,90.14 25.71,90.29 25.7,90.81 C25.69,91.33 25.65,91.97 25.17,92.05 C24.69,92.13 24.24,90.93 24.17,90.63 C24.123322,90.3367978 24.2910517,90.0516573 24.57,89.95 C24.8905124,89.8263828 25.2536578,89.9005738 25.5,90.14 L25.5,90.14 Z" id="Shape" stroke="none" fill="#EAF3FB" fill-rule="nonzero"></path>
                            <path d="M25.18,87.82 C25,87.34 23.68,87.22 23.43,87.45 C23.18,87.68 22.22,88.26 22.5,89.04 C22.71,89.62 23.5,91.63 24.16,91.82 C24.82,92.01 26.11,90.3 25.18,87.82 Z" id="Shape" stroke="#52267D" stroke-width="1" fill="#FFFFFF" fill-rule="nonzero"></path>
                            <path d="M24.84,87.84 C24.73,87.56 23.96,87.48 23.84,87.62 C23.72,87.76 23.13,88.1 23.29,88.56 C23.45,89.02 23.9,90.09 24.29,90.2 C24.68,90.31 25.39,89.3 24.84,87.84 Z" id="Shape" stroke="none" fill="#EAF3FB" fill-rule="nonzero"></path>
                            <path d="M5.76,51.15 C6.51116469,51.5543422 6.85841147,52.4436328 6.58,53.25 C6.29,54.73 5.39,56.25 5.02,55.81 C4.46011842,55.2190923 4.03681772,54.5124532 3.78,53.74 C3.52,52.93 3.02,52.35 4.42,51.22 C4.80864261,50.9202619 5.34224206,50.8923874 5.76,51.15 Z" id="Shape" stroke="#52267D" stroke-width="0.5" fill="#FFFFFF" fill-rule="nonzero"></path>
                            <path d="M5.61,51.48 C6.07982027,51.7311225 6.29635279,52.2873139 6.12,52.79 C5.94,53.71 5.38,54.63 5.12,54.39 C4.77195143,54.0215846 4.50908923,53.5812051 4.35,53.1 C4.19,52.59 3.88,52.23 4.75,51.53 C4.99523291,51.3279394 5.34300311,51.3077202 5.61,51.48 Z" id="Shape" stroke="none" fill="#EAF3FB" fill-rule="nonzero"></path>
                            <path d="M5.13,49.94 C4.95,49.46 3.63,49.34 3.38,49.57 C3.13,49.8 2.17,50.38 2.45,51.16 C2.66,51.74 3.45,53.75 4.11,53.94 C4.77,54.13 6.06,52.42 5.13,49.94 Z" id="Shape" stroke="#52267D" stroke-width="0.5" fill="#FFFFFF" fill-rule="nonzero"></path>
                            <path d="M4.8,50 C4.69,49.72 3.92,49.64 3.8,49.78 C3.68,49.92 3.09,50.26 3.25,50.72 C3.41,51.18 3.86,52.25 4.25,52.36 C4.64,52.47 5.34,51.42 4.8,50 Z" id="Shape" stroke="none" fill="#EAF3FB" fill-rule="nonzero"></path>
                            <path d="M3.8,48.6 C3.8,48.6 4.16,48.85 4.14,49.73 C4.12,50.61 4.05,51.73 3.24,51.83 C2.43,51.93 1.67,49.93 1.59,49.44 C1.51210939,48.9433031 1.79724096,48.4610953 2.27,48.29 C2.79765039,48.0965174 3.38927698,48.2163895 3.8,48.6 Z" id="Shape" stroke="#52267D" stroke-width="0.5" fill="#FFFFFF" fill-rule="nonzero"></path>
                            <path d="M3.49,48.6 C3.49,48.6 3.7,48.75 3.69,49.27 C3.68,49.79 3.64,50.43 3.16,50.51 C2.68,50.59 2.23,49.39 2.16,49.09 C2.11332203,48.7967978 2.28105171,48.5116573 2.56,48.41 C2.88051239,48.2863828 3.24365777,48.3605738 3.49,48.6 L3.49,48.6 Z" id="Shape" stroke="none" fill="#EAF3FB" fill-rule="nonzero"></path>
                            <path d="M21.61,82.16 C21.6612693,81.9813755 21.6024752,81.7893149 21.46,81.67 C20.94,81.29 19.56,80.36 18.77,81.12 C18.16,81.72 18.61,82.05 19.05,82.9 L19.38,83.55 C19.450167,83.6841855 19.5885812,83.768772 19.74,83.77 L19.74,83.77 C20.6378349,83.7299276 21.3986799,83.0958901 21.6,82.22 L21.61,82.16 Z" id="Shape" stroke="#52267D" stroke-width="1" fill="#FFFFFF" fill-rule="nonzero"></path>
                            <path d="M21.37,82.21 C21.4091673,82.0787978 21.3658107,81.9369034 21.26,81.85 C20.88,81.57 19.88,80.85 19.26,81.45 C18.64,82.05 19.14,82.12 19.46,82.75 L19.7,83.22 C19.751022,83.3167398 19.8506473,83.3780477 19.96,83.38 L19.96,83.38 C20.6146645,83.3543029 21.1694609,82.8899177 21.31,82.25 L21.37,82.21 Z" id="Shape" stroke="none" fill="#EAF3FB" fill-rule="nonzero"></path>
                            <path d="M23.5,85 C24.2742759,85.3359074 24.6958397,86.1790348 24.5,87 C24.33,88.5 23.57,90 23.16,89.69 C22.5473055,89.1363172 22.0656412,88.4531054 21.75,87.69 C21.42,86.9 20.88,86.37 22.17,85.12 C22.5458802,84.8088589 23.0744978,84.7611641 23.5,85 Z" id="Shape" stroke="#52267D" stroke-width="1" fill="#FFFFFF" fill-rule="nonzero"></path>
                            <path d="M23.38,85.36 C23.8687814,85.5699823 24.1318587,86.1046234 24,86.62 C23.9,87.55 23.42,88.51 23.17,88.29 C22.7907459,87.9527904 22.4903133,87.5362816 22.29,87.07 C22.09,86.58 21.75,86.25 22.55,85.47 C22.7760591,85.2625532 23.1077081,85.2185997 23.38,85.36 L23.38,85.36 Z" id="Shape" stroke="none" fill="#EAF3FB" fill-rule="nonzero"></path>
                        </g>
                    </g>
                </g>
                <path d="M52.28,152.09 C51.3208348,151.816115 50.4171426,151.376116 49.61,150.79" id="Shape" stroke="#9ACDED" stroke-width="2" stroke-linecap="round"></path>
                <path d="M196.63,57.95 L196.63,64.95" id="Shape" stroke="#375D81" stroke-width="2" stroke-linecap="round" stroke-linejoin="round"></path>
                <path d="M200.13,61.45 L193.13,61.45" id="Shape" stroke="#375D81" stroke-width="2" stroke-linecap="round" stroke-linejoin="round"></path>
                <path d="M31.63,7.95 L31.63,14.95" id="Shape" stroke="#375D81" stroke-width="2" stroke-linecap="round" stroke-linejoin="round"></path>
                <path d="M35.13,11.45 L28.13,11.45" id="Shape" stroke="#375D81" stroke-width="2" stroke-linecap="round" stroke-linejoin="round"></path>
                <path d="M14.73,76.97 L14.73,80.9" id="Shape" stroke="#375D81" stroke-linecap="round"></path>
                <path d="M16.7,78.94 L12.76,78.94" id="Shape" stroke="#375D81" stroke-linecap="round"></path>
                <path d="M188.73,120.97 L188.73,124.9" id="Shape" stroke="#375D81" stroke-linecap="round"></path>
                <path d="M190.7,122.94 L186.76,122.94" id="Shape" stroke="#375D81" stroke-linecap="round"></path>
                <text id="YML" fill="#375D81" font-family="Lato-Black, Lato" font-size="18" font-weight="700">
                    <tspan x="90.26" y="97.68">YML</tspan>
                </text>
            </g>
        </g>
    </g>
</svg>