<?xml version="1.0" encoding="utf-8"?>
<!-- Generator: Adobe Illustrator 21.1.0, SVG Export Plug-In . SVG Version: 6.00 Build 0)  -->
<svg version="1.1" id="Logo_AKENEO_-_Couleur_-_Fond_Noir"
	 xmlns="http://www.w3.org/2000/svg" xmlns:xlink="http://www.w3.org/1999/xlink" x="0px" y="0px" viewBox="0 0 752.5 163.3"
	 style="enable-background:new 0 0 752.5 163.3;" xml:space="preserve">
<style type="text/css">
	.st0{fill:#2B2422;}
	.st1{fill:url(#SVGID_1_);}
	.st2{opacity:0.8;}
	.st3{opacity:0.51;fill:url(#SVGID_2_);enable-background:new    ;}
	.st4{opacity:0.51;fill:url(#SVGID_3_);enable-background:new    ;}
	.st5{opacity:0.7;}
	.st6{fill:url(#SVGID_4_);}
	.st7{fill:url(#SVGID_5_);}
</style>
<g>
	<path class="st0" d="M244.9,85.8c0-6.9-1.8-11.8-5.3-14.5s-8.6-4.1-15.3-4.1c-4.1,0-8,0.3-11.6,1c-3.6,0.6-7.1,1.5-10.5,2.6
		c-2.2-3.9-3.4-8.5-3.4-13.9c4-1.3,8.4-2.3,13.2-3c4.8-0.7,9.5-1.1,13.9-1.1c11.8,0,20.7,2.7,26.8,8c6.1,5.4,9.2,13.9,9.2,25.7v56.6
		c-4.1,0.9-9.1,1.9-15,2.9s-11.9,1.5-18,1.5c-5.8,0-11-0.5-15.6-1.6s-8.6-2.8-11.8-5.1c-3.2-2.4-5.7-5.4-7.5-9s-2.6-8.1-2.6-13.2
		s1-9.5,3.1-13.3s4.9-7,8.4-9.5s7.6-4.4,12.2-5.6s9.4-1.9,14.5-1.9c3.8,0,6.9,0.1,9.3,0.3c2.4,0.2,4.4,0.4,6.1,0.6v-3.4H244.9z
		 M244.9,103c-1.8-0.2-4-0.5-6.7-0.7s-5-0.4-6.9-0.4c-7.3,0-12.9,1.4-16.7,4.1c-3.8,2.7-5.7,6.8-5.7,12.3c0,3.5,0.6,6.3,1.9,8.3
		c1.3,2,2.9,3.5,4.9,4.6c1.9,1.1,4.1,1.7,6.4,1.9c2.4,0.2,4.6,0.4,6.7,0.4c2.7,0,5.5-0.1,8.4-0.4s5.4-0.7,7.7-1.3V103z"/>
	<path class="st0" d="M287.6,16.2c1.3-0.2,2.7-0.4,4.3-0.5c1.6-0.1,3-0.2,4.3-0.2s2.8,0.1,4.4,0.2c1.6,0.1,3.1,0.3,4.4,0.5v129.3
		c-1.3,0.2-2.8,0.4-4.4,0.5s-3.1,0.2-4.4,0.2s-2.7-0.1-4.3-0.2c-1.6-0.1-3-0.3-4.3-0.5V16.2z M305.4,98.5l33.2-43.6
		c1.5-0.2,3.1-0.4,4.6-0.5s3.1-0.2,4.8-0.2c1.8,0,3.4,0.1,5,0.2s3.2,0.3,4.9,0.5l-33.2,42.3l38.1,48.2c-1.6,0.2-3.2,0.4-4.8,0.5
		c-1.5,0.1-3.1,0.2-4.8,0.2c-1.6,0-3.3-0.1-4.9-0.2s-3.3-0.3-4.9-0.5L305.4,98.5z"/>
	<path class="st0" d="M388.5,104.5c0.2,9.9,2.8,17.1,7.7,21.7c4.9,4.6,12.1,6.9,21.6,6.9c8.3,0,16.3-1.5,23.8-4.4
		c0.9,1.8,1.7,3.9,2.3,6.4c0.6,2.5,0.9,5,1.1,7.5c-3.9,1.6-8.1,2.9-12.8,3.7c-4.6,0.8-9.8,1.2-15.4,1.2c-8.2,0-15.3-1.1-21.2-3.4
		c-5.9-2.3-10.7-5.5-14.6-9.7c-3.8-4.2-6.6-9.1-8.4-14.8c-1.8-5.7-2.6-12-2.6-18.8c0-6.7,0.9-13,2.6-18.8s4.3-10.9,7.9-15.2
		c3.5-4.3,8-7.7,13.3-10.2s11.7-3.8,19-3.8c6.2,0,11.7,1.1,16.4,3.2c4.7,2.1,8.6,5,11.8,8.7c3.2,3.7,5.6,8.1,7.2,13.2
		s2.5,10.7,2.5,16.7c0,1.7-0.1,3.4-0.2,5.2c-0.1,1.8-0.2,3.4-0.4,4.7L388.5,104.5L388.5,104.5z M433.4,91.5c0-3.3-0.4-6.4-1.3-9.4
		s-2.2-5.6-3.9-7.9c-1.7-2.2-3.9-4-6.5-5.4s-5.8-2-9.4-2c-7.2,0-12.7,2.2-16.5,6.5c-3.8,4.4-6.1,10.4-7,18.2L433.4,91.5L433.4,91.5z
		"/>
	<path class="st0" d="M473.6,55c1.3-0.2,2.6-0.4,3.8-0.5s2.5-0.2,3.8-0.2s2.5,0.1,3.6,0.2s2.3,0.3,3.6,0.5c0.4,1.8,0.7,4.1,1.1,7.1
		c0.4,3,0.5,5.5,0.5,7.5c1.2-2,2.7-4,4.5-6s3.9-3.8,6.3-5.4c2.4-1.6,5.1-2.9,8.1-3.9c3.1-1,6.4-1.5,10.1-1.5c10.4,0,18,3,22.9,8.9
		s7.4,14.7,7.4,26.4v57.3c-1.3,0.2-2.8,0.4-4.4,0.5c-1.6,0.1-3.1,0.2-4.4,0.2c-1.3,0-2.7-0.1-4.3-0.2s-3-0.3-4.3-0.5V92.8
		c0-8.3-1.3-14.5-3.9-18.4c-2.6-3.9-6.7-5.9-12.4-5.9c-3.3,0-6.4,0.6-9.3,1.8c-2.9,1.2-5.5,3-7.8,5.5c-2.2,2.5-4,5.7-5.4,9.6
		s-2,8.7-2,14.2v45.9c-1.3,0.2-2.7,0.4-4.3,0.5s-3,0.2-4.3,0.2s-2.8-0.1-4.4-0.2c-1.6-0.1-3.1-0.3-4.4-0.5L473.6,55L473.6,55z"/>
	<path class="st0" d="M588.6,104.5c0.2,9.9,2.8,17.1,7.7,21.7s12.1,6.9,21.6,6.9c8.3,0,16.3-1.5,23.8-4.4c0.9,1.8,1.7,3.9,2.3,6.4
		s0.9,5,1.1,7.5c-3.9,1.6-8.1,2.9-12.8,3.7c-4.6,0.8-9.8,1.2-15.4,1.2c-8.2,0-15.3-1.1-21.2-3.4s-10.7-5.5-14.6-9.7
		c-3.8-4.2-6.6-9.1-8.4-14.8c-1.8-5.7-2.6-12-2.6-18.8c0-6.7,0.8-13,2.6-18.8c1.7-5.8,4.3-10.9,7.9-15.2c3.5-4.3,8-7.7,13.3-10.2
		c5.4-2.5,11.7-3.8,19-3.8c6.2,0,11.7,1.1,16.4,3.2s8.6,5,11.8,8.7s5.6,8.1,7.2,13.2c1.6,5.1,2.5,10.7,2.5,16.7
		c0,1.7-0.1,3.4-0.2,5.2c-0.1,1.8-0.2,3.4-0.4,4.7L588.6,104.5L588.6,104.5z M633.4,91.5c0-3.3-0.4-6.4-1.3-9.4
		c-0.9-3-2.2-5.6-3.9-7.9c-1.7-2.2-3.9-4-6.5-5.4s-5.8-2-9.4-2c-7.2,0-12.7,2.2-16.5,6.5c-3.8,4.4-6.1,10.4-7,18.2L633.4,91.5
		L633.4,91.5z"/>
	<path class="st0" d="M710.3,147.6c-7.1,0-13.2-1.2-18.5-3.6s-9.7-5.7-13.2-10c-3.5-4.2-6.1-9.2-7.8-15s-2.6-12-2.6-18.7
		s0.9-12.9,2.6-18.7c1.7-5.8,4.3-10.8,7.8-15s7.9-7.6,13.2-10.1s11.5-3.7,18.5-3.7c7.1,0,13.2,1.2,18.5,3.7s9.7,5.8,13.2,10.1
		c3.5,4.2,6.1,9.2,7.9,15c1.7,5.8,2.6,12,2.6,18.7s-0.9,12.9-2.6,18.7c-1.7,5.8-4.3,10.8-7.9,15c-3.5,4.2-7.9,7.6-13.2,10
		C723.6,146.4,717.4,147.6,710.3,147.6z M710.3,133.6c8.1,0,14.1-2.9,18-8.8s5.8-14.1,5.8-24.5c0-10.5-1.9-18.6-5.8-24.4
		c-3.9-5.8-9.9-8.7-18-8.7s-14.1,2.9-17.9,8.7c-3.8,5.8-5.7,14-5.7,24.4c0,10.5,1.9,18.6,5.7,24.5
		C696.2,130.7,702.2,133.6,710.3,133.6z"/>
</g>
<g>
	
		<linearGradient id="SVGID_1_" gradientUnits="userSpaceOnUse" x1="211.8561" y1="-127.3094" x2="364.9826" y2="-127.3094" gradientTransform="matrix(0.8818 -0.4717 -0.4717 -0.8818 -225.3918 119.5956)">
		<stop  offset="4.294480e-02" style="stop-color:#5C257E"/>
		<stop  offset="0.9693" style="stop-color:#8C509A"/>
	</linearGradient>
	<path class="st1" d="M123.8,159.5c0.6,2,1.1,3.3,1.3,3.8c0.1,0-0.1,0,0,0l0,0l0,0l0,0l0,0c-3-42.6,21.7-59.5,30.4-87.5
		c0.1-0.4,0.2-0.9,0.3-1.4c0.2-0.6,0.3-1.3,0.4-1.9c1.4-7.8-1.5-17-7.2-26.6c0-0.1-0.1-0.1-0.1-0.2c-0.5-0.8-1-1.6-1.5-2.4l0,0
		c-0.9-1.5-2-3-3-4.5c-0.1-0.1-0.2-0.3-0.3-0.5c-0.3-0.4-0.6-0.8-0.9-1.2c-0.3-0.4-0.6-0.8-0.9-1.3c-0.3-0.4-0.6-0.8-1-1.2
		c-0.3-0.4-0.7-0.8-1-1.3c-0.2-0.3-0.5-0.6-0.7-0.9C130.4,21.1,118.4,9.9,105.8,0l0,0l0,0l0,0c0,0-0.1-0.1,0,0
		c1.2,16,0.9,32.1-1.1,44.8c-2.3,15.4-8.5,33.1-16.7,49.1c-17.9-2.1-36-6.8-50.1-13.4C26.1,75,12.7,66.5,0,56.5
		c0.1,1.3,0.2,2.7,0.3,4c0,0.4,0.1,0.8,0.1,1.2c0.1,1,0.2,1.9,0.3,2.8c0,0.4,0.1,0.9,0.1,1.3c0.1,1,0.2,1.9,0.3,2.8
		c0,0.4,0.1,0.8,0.1,1.2c0.2,1.2,0.3,2.4,0.5,3.6c0,0.1,0,0.2,0,0.4c0.2,1.4,0.4,2.8,0.6,4.1c0,0.1,0,0.2,0.1,0.3
		c0.2,1.2,0.4,2.4,0.6,3.7c0,0.3,0.1,0.5,0.1,0.7c0.2,1.1,0.4,2.2,0.6,3.3c0.1,0.2,0.1,0.4,0.1,0.6c0.3,1.3,0.5,2.5,0.8,3.8l0,0
		c0.9,4,2,7.9,3.1,11.6c0,0.1,0,0.1,0,0.1c1.9,6.2,4.2,12,6.7,17.1c0.4,0.7,0.8,1.5,1.1,2.2v0.1l0,0c0.3,0.6,0.7,1.3,1.1,1.9l0,0
		c0,0,0,0,0,0.1c0.4,0.7,0.8,1.3,1.2,1.9l0,0c0.1,0.1,0.1,0.2,0.2,0.2l0,0c0.5,0.8,1.1,1.6,1.6,2.3c0.1,0.1,0.2,0.2,0.3,0.4l0.1,0.1
		c0.6,0.8,1.3,1.6,1.9,2.4l0,0c0.5,0.5,0.9,1,1.4,1.5c0.2,0.2,0.4,0.4,0.6,0.6c0.3,0.3,0.6,0.6,0.9,0.9c0.2,0.2,0.4,0.4,0.7,0.6
		c0.3,0.3,0.6,0.5,0.9,0.7c0.2,0.2,0.5,0.4,0.7,0.5c0.3,0.2,0.6,0.5,0.9,0.7c0.2,0.2,0.5,0.3,0.7,0.5c0.3,0.2,0.6,0.4,1,0.6
		c0.2,0.1,0.5,0.3,0.7,0.4c0.4,0.2,0.7,0.4,1.1,0.5c0.2,0.1,0.4,0.2,0.6,0.3c0.6,0.3,1.2,0.5,1.7,0.7c0.4,0.1,0.7,0.3,1,0.4
		c28.1,8.4,56.1-2.5,89.9,23.4"/>
	<g class="st2">
		
			<linearGradient id="SVGID_2_" gradientUnits="userSpaceOnUse" x1="326.7355" y1="-197.5796" x2="326.7355" y2="-50.8241" gradientTransform="matrix(0.8818 -0.4717 -0.4717 -0.8818 -225.3918 119.5956)">
			<stop  offset="4.294480e-02" style="stop-color:#5C257E"/>
			<stop  offset="1" style="stop-color:#FFFFFF"/>
		</linearGradient>
		<path class="st3" d="M104.7,44.8c-2.3,15.4-8.5,33.1-16.7,49.1c31.7,3.7,62.5-1.1,67.8-19.6c5.8-20.2-20.4-51.2-50-74.3
			C106.9,16.2,106.6,32,104.7,44.8z"/>
		
			<linearGradient id="SVGID_3_" gradientUnits="userSpaceOnUse" x1="250.1426" y1="-197.5734" x2="250.1426" y2="-50.8176" gradientTransform="matrix(0.8818 -0.4717 -0.4717 -0.8818 -225.3918 119.5956)">
			<stop  offset="4.294480e-02" style="stop-color:#5C257E"/>
			<stop  offset="1" style="stop-color:#FFFFFF"/>
		</linearGradient>
		<path class="st4" d="M37.9,80.5C26.1,75,12.7,66.5,0,56.5C2.8,94,14.1,133,34.1,139.4c18.3,5.8,39.4-17.1,53.9-45.5
			C70.1,91.9,52,87.1,37.9,80.5z"/>
	</g>
	<g class="st5">
		
			<linearGradient id="SVGID_4_" gradientUnits="userSpaceOnUse" x1="250.138" y1="-77.2233" x2="250.138" y2="-191.4781" gradientTransform="matrix(0.8818 -0.4717 -0.4717 -0.8818 -225.3918 119.5956)">
			<stop  offset="0.2331" style="stop-color:#4F256F"/>
			<stop  offset="0.8405" style="stop-color:#5C257E"/>
		</linearGradient>
		<path class="st6" d="M63.1,116C16.4,98.7,0,56.5,0,56.5l0,0c1.7,23,6.6,46.5,14.8,62.8c0.4,0.7,0.7,1.4,1.1,2.1
			c0,0.1,0.1,0.1,0.1,0.2c0.4,0.6,0.7,1.3,1.1,1.9c0,0.1,0.1,0.2,0.2,0.2c0.4,0.6,0.7,1.2,1.1,1.8c0.1,0.1,0.1,0.2,0.2,0.2
			c0.4,0.6,0.7,1.1,1.1,1.7c0.3,0.4,0.5,0.7,0.7,1c0.1,0.1,0.1,0.2,0.2,0.3c0.2,0.2,0.4,0.5,0.5,0.7c0.4,0.6,0.9,1.1,1.3,1.6
			c3.5,4.1,7.5,7.1,11.8,8.5c0.4,0.1,0.7,0.3,1,0.4c28.1,8.4,56.1-2.5,89.9,23.4C122.5,159.8,98.5,129.2,63.1,116z"/>
		
			<linearGradient id="SVGID_5_" gradientUnits="userSpaceOnUse" x1="326.7122" y1="-77.2295" x2="326.7122" y2="-191.4826" gradientTransform="matrix(0.8818 -0.4717 -0.4717 -0.8818 -225.3918 119.5956)">
			<stop  offset="0.2331" style="stop-color:#4F256F"/>
			<stop  offset="0.8405" style="stop-color:#5C257E"/>
		</linearGradient>
		<path class="st7" d="M155.8,74.3c5.8-20.2-20.4-51.2-50-74.3l0,0c0,0,25.8,37.1,14.3,85.6c-8.9,37.4,4,74.8,5,77.7
			c0.1,0-0.1,0,0,0l0,0l0,0l0,0l0,0c-3-42.6,21.7-59.5,30.4-87.5C155.5,75.3,155.6,74.8,155.8,74.3z"/>
	</g>
</g>
</svg>
