<svg xmlns="http://www.w3.org/2000/svg" width="80" height="80" viewBox="0 0 80 80">
  <path fill="#9452BA" fill-rule="evenodd" d="M55.9855447,36.7440271 C55.9855447,36.6640838 56.012244,36.5574927 56.0389433,36.4509016 C56.0656426,36.3176628 56.1190412,36.1844239 56.1190412,36.0511851 C56.4127337,34.452319 55.8253488,32.5336796 54.6238798,30.535097 C54.4903832,30.3485626 54.383586,30.188676 54.2767887,30.0021416 C54.0898935,29.7090161 53.876299,29.3892429 53.6360052,29.0694697 C53.6093059,29.0428219 53.5826066,29.0161741 53.5559073,28.9628786 C53.5025087,28.8829353 53.4224107,28.802992 53.3690121,28.7230487 C53.3156135,28.6431054 53.2355155,28.5365143 53.1821169,28.456571 C53.1287183,28.3766277 53.0486204,28.2966844 52.9952217,28.2167411 C52.9151238,28.1367978 52.8617252,28.0302067 52.7816272,27.9502634 C52.7282286,27.8969678 52.67483,27.8170245 52.6214314,27.763729 C50.7257802,25.4187253 48.2427442,23.1003695 45.6262117,21.075139 C45.8665055,24.3794624 45.8131068,27.7104335 45.4126172,30.3219148 C44.9320295,33.4929993 43.6504626,37.1703914 41.9684059,40.4747147 C38.2572016,40.0483504 34.5192979,39.062383 31.5823736,37.7033468 C29.1527362,36.5574927 26.3760078,34.79874 23.7327759,32.7468618 C23.7594752,33.0133395 23.7861745,33.3064649 23.8128738,33.5729426 C23.8128738,33.6528859 23.8395731,33.7328292 23.8395731,33.8127725 C23.8662725,33.9993069 23.8662725,34.2124891 23.8929718,34.3990234 C23.8929718,34.4789667 23.9196711,34.5855578 23.9196711,34.6655011 C23.9463704,34.8520355 23.9730697,35.0652177 23.999769,35.251752 C23.999769,35.3316953 24.0264683,35.4116387 24.0264683,35.491582 C24.0531676,35.7314119 24.0798669,35.9978896 24.1332656,36.2377195 C24.1866642,36.6107882 24.2133635,36.8772659 24.2667621,37.1703914 C24.3201608,37.4901646 24.3468601,37.7299945 24.4002587,37.9698245 C24.4002587,38.02312 24.426958,38.0764155 24.426958,38.1297111 C24.4803566,38.369541 24.5070559,38.5827231 24.5604546,38.8225531 C24.5604546,38.8758486 24.5871539,38.9024964 24.5871539,38.9557919 C24.6405525,39.2222696 24.6939511,39.4887473 24.7473497,39.7285772 C24.9342449,40.554658 25.1478394,41.3540911 25.3881332,42.1268764 C25.7886229,43.4326171 26.2425112,44.6317667 26.7764975,45.6710297 C26.8565954,45.8309163 26.9366933,45.9641551 27.0167913,46.1240417 C27.0968892,46.2839283 27.1502878,46.4171672 27.2303858,46.550406 C27.3104837,46.7102926 27.3905816,46.8435315 27.4706796,46.9767703 C27.6041761,47.1899525 27.7109734,47.3498391 27.8177706,47.5097257 C27.8711692,47.589669 27.8711692,47.6163168 27.8978686,47.6163168 C28.0313651,47.7762034 28.1648617,47.9627378 28.2983582,48.1226244 C28.4051555,48.2292155 28.4852534,48.3358065 28.5920507,48.4423976 C28.6454493,48.4956931 28.6721486,48.5223409 28.7255472,48.5756365 C28.7789458,48.628932 28.8590438,48.6822275 28.9124424,48.7621708 C28.965841,48.8154664 28.9925403,48.8421141 29.045939,48.8954097 C29.0993376,48.9487052 29.1527362,49.0020008 29.2328341,49.0552963 C29.2862328,49.0819441 29.3396314,49.1352396 29.3663307,49.1618874 C29.4197293,49.2151829 29.4998273,49.2684784 29.5532259,49.2951262 C29.6066245,49.321774 29.6600231,49.3484217 29.6867224,49.4017173 C29.7401211,49.4550128 29.820219,49.4816606 29.9003169,49.5349561 C29.9537156,49.5616039 30.0071142,49.5882517 30.0338135,49.6148994 C30.1139114,49.6415472 30.1940094,49.6948427 30.2741073,49.7214905 C30.3008066,49.7481383 30.3542052,49.7481383 30.3809046,49.7747861 C30.4877018,49.8280816 30.6211984,49.8813771 30.7279956,49.9080249 C30.8080935,49.9346727 30.8881915,49.9613204 30.9415901,49.9879682 C36.7620401,51.7200732 42.6892873,49.4816603 49.6845071,54.8378618 C49.0704229,46.0174506 54.1699915,42.5265929 55.9855447,36.7440271 Z"/>
</svg>
