<?xml version="1.0" encoding="UTF-8"?>
<svg width="44px" height="44px" viewBox="0 0 44 44" version="1.1" xmlns="http://www.w3.org/2000/svg" xmlns:xlink="http://www.w3.org/1999/xlink">
    <!-- Generator: Sketch 55 (78076) - https://sketchapp.com -->
    <title>quote_right</title>
    <desc>Created with Sketch.</desc>
    <g id="quote_right" stroke="none" stroke-width="1" fill="none" fill-rule="evenodd">
        <path d="M5.29842932,6 L21.3089005,6 L18.0837696,21.2056738 C17.6230343,23.1725867 17.0087298,25.1394701 16.2408377,27.106383 C15.4729455,29.0732959 14.4171097,30.8321435 13.0732984,32.3829787 C11.7294872,33.9338139 10.0017558,35.219853 7.89005236,36.2411348 C5.77834895,37.2624165 3.1483578,37.848699 -1.13686838e-13,38 L1.38219895,31.4184397 C4.45376754,31.0401872 6.62303031,29.9621838 7.89005236,28.1843972 C9.1570744,26.4066105 10.0977282,24.1182173 10.7120419,21.3191489 L2.07329843,21.3191489 L5.29842932,6 Z M27.9895288,6 L44,6 L40.7748691,21.2056738 C40.3141338,23.1725867 39.6998293,25.1394701 38.9319372,27.106383 C38.164045,29.0732959 37.1082092,30.8321435 35.7643979,32.3829787 C34.4205866,33.9338139 32.6928552,35.219853 30.5811518,36.2411348 C28.4694484,37.2624165 25.8394573,37.848699 22.6910995,38 L24.0732984,31.4184397 C27.144867,31.0401872 29.3141298,29.9621838 30.5811518,28.1843972 C31.8481739,26.4066105 32.7888276,24.1182173 33.4031414,21.3191489 L24.7643979,21.3191489 L27.9895288,6 Z" id="“”-copy" fill="#9452BA"></path>
    </g>
</svg>