<?xml version="1.0" encoding="UTF-8"?>
<svg width="44px" height="44px" viewBox="0 0 44 44" version="1.1" xmlns="http://www.w3.org/2000/svg" xmlns:xlink="http://www.w3.org/1999/xlink">
    <!-- Generator: Sketch 55 (78076) - https://sketchapp.com -->
    <title>quote_left</title>
    <desc>Created with Sketch.</desc>
    <g id="quote_left" stroke="none" stroke-width="1" fill="none" fill-rule="evenodd">
        <path d="M25.9162304,22.7943262 C26.3769657,20.8274133 26.9912702,18.8605299 27.7591623,16.893617 C28.5270545,14.9267041 29.5828903,13.1678565 30.9267016,11.6170213 C32.2705128,10.0661861 33.9982442,8.78014695 36.1099476,7.75886525 C38.221651,6.73758355 40.8516422,6.15130099 44,6 L42.617801,12.5815603 C39.5462325,12.9598128 37.3769697,14.0378162 36.1099476,15.8156028 C34.8429256,17.5933895 33.9022718,19.8817827 33.2879581,22.6808511 L41.9267016,22.6808511 L38.7015707,38 L22.6910995,38 L25.9162304,22.7943262 Z M3.22513089,22.7943262 C3.68586618,20.8274133 4.30017068,18.8605299 5.06806283,16.893617 C5.83595497,14.9267041 6.89179084,13.1678565 8.23560209,11.6170213 C9.57941335,10.0661861 11.3071448,8.78014695 13.4188482,7.75886525 C15.5305516,6.73758355 18.1605427,6.15130099 21.3089005,6 L19.9267016,12.5815603 C16.855133,12.9598128 14.6858702,14.0378162 13.4188482,15.8156028 C12.1518261,17.5933895 11.2111724,19.8817827 10.5968586,22.6808511 L19.2356021,22.6808511 L16.0104712,38 L0,38 L3.22513089,22.7943262 Z" id="“”" fill="#9452BA"></path>
    </g>
</svg>