<svg xmlns="http://www.w3.org/2000/svg" width="256" height="256" viewBox="0 0 256 256">
  <g fill="none" fill-rule="evenodd">
    <path fill="#FFF" d="M226.5257,216.2913 L233.4987,216.2913 L226.5257,216.2913 Z"/>
    <path fill="#5E63B6" d="M233.499,217.2916 L226.525,217.2916 C225.973,217.2916 225.525,216.8446 225.525,216.2916 C225.525,215.7386 225.973,215.2916 226.525,215.2916 L233.499,215.2916 C234.052,215.2916 234.499,215.7386 234.499,216.2916 C234.499,216.8446 234.052,217.2916 233.499,217.2916"/>
    <path fill="#E1F2FF" d="M23.2041,225.5328 C23.2041,168.3398 69.5681,121.9748 126.7621,121.9748 C183.9551,121.9748 230.3191,168.3398 230.3191,225.5328 L23.2041,225.5328 Z"/>
    <path fill="#9452BA" d="M165.2236,216.1588 L170.2026,216.1588 C171.9146,216.1588 173.4686,215.1108 174.0876,213.5148 C175.8556,208.9648 175.4146,204.7838 175.6256,201.2078 C176.0176,194.5828 174.9826,191.1878 173.9946,185.6468 L166.5216,185.8198 C166.5216,185.8198 167.1566,188.5728 167.5796,196.8318 C167.7106,199.3868 163.4886,209.6498 163.6866,214.6848 C163.7186,215.5108 164.3976,216.1588 165.2236,216.1588"/>
    <path fill="#52267D" d="M167.123,186.3062 C167.327,187.4982 167.761,190.5992 168.079,196.8062 C168.139,197.9642 167.446,200.3272 166.569,203.3172 C165.458,207.1092 164.074,211.8272 164.186,214.6652 C164.208,215.2222 164.664,215.6592 165.224,215.6592 L170.202,215.6592 C171.708,215.6592 173.082,214.7242 173.622,213.3342 C174.949,209.9172 175.002,206.6522 175.049,203.7712 C175.063,202.8762 175.078,202.0112 175.127,201.1782 C175.442,195.8362 174.826,192.6512 174.046,188.6192 C173.894,187.8342 173.736,187.0212 173.579,186.1572 L167.123,186.3062 Z M170.202,216.6592 L165.224,216.6592 C164.124,216.6592 163.229,215.8002 163.186,214.7042 C163.068,211.7032 164.419,207.0992 165.61,203.0352 C166.393,200.3672 167.132,197.8462 167.081,196.8572 C166.666,188.7662 166.04,185.9592 166.034,185.9322 L165.897,185.3342 L174.412,185.1372 L174.487,185.5592 C174.669,186.5772 174.852,187.5232 175.027,188.4292 C175.821,192.5312 176.448,195.7702 176.125,201.2372 C176.077,202.0562 176.063,202.9072 176.049,203.7862 C176,206.7522 175.945,210.1132 174.554,213.6962 C173.866,215.4682 172.117,216.6592 170.202,216.6592 L170.202,216.6592 Z"/>
    <path fill="#9452BA" d="M150.7295,192.4898 L144.7175,185.6728 L141.0055,185.8198 C141.0055,185.8198 140.4845,191.4908 140.2715,193.8658 C139.8955,198.0518 138.1605,206.2538 137.0945,209.8528 C136.7485,211.0238 136.5465,212.1178 136.4915,213.1098 C136.3965,214.7798 137.7895,216.1588 139.4615,216.1588 L143.8725,216.1588 C146.4415,216.1588 148.7255,214.4438 149.3575,211.9538 C151.3235,204.1998 150.7295,192.4898 150.7295,192.4898"/>
    <path fill="#52267D" d="M141.4639,186.3023 C141.3379,187.6753 140.9459,191.9343 140.7699,193.9103 C140.4019,197.9993 138.7049,206.1723 137.5739,209.9943 C137.2399,211.1213 137.0439,212.1793 136.9899,213.1383 C136.9539,213.7793 137.1829,214.3953 137.6339,214.8723 C138.1069,215.3713 138.7729,215.6583 139.4619,215.6583 L143.8719,215.6583 C146.2439,215.6583 148.3009,214.0843 148.8729,211.8303 C150.6689,204.7453 150.2999,194.1673 150.2379,192.6883 L144.4999,186.1813 L141.4639,186.3023 Z M143.8719,216.6583 L139.4619,216.6583 C138.4989,216.6583 137.5679,216.2583 136.9069,215.5593 C136.2649,214.8793 135.9399,213.9993 135.9919,213.0813 C136.0499,212.0453 136.2599,210.9113 136.6149,209.7113 C137.7349,205.9323 139.4109,197.8573 139.7739,193.8213 C139.9859,191.4463 140.5079,185.7743 140.5079,185.7743 L140.5479,185.3373 L144.9359,185.1633 L151.2199,192.2893 L151.2289,192.4643 C151.2349,192.5823 151.8039,204.3393 149.8419,212.0763 C149.1569,214.7753 146.7019,216.6583 143.8719,216.6583 L143.8719,216.6583 Z"/>
    <polygon fill="#52267D" points="142.206 199.061 141.096 198.06 142.194 197.096 142.358 197.284 141.473 198.062 142.259 198.772 143.609 198.253 143.397 197.79 142.315 198.047 142.523 198.038 142.535 198.288 142.079 198.309 142.056 197.851 143.54 197.499 143.947 198.392"/>
    <path fill="#9452BA" d="M142.3115,167.1031 C146.6915,167.0131 150.7945,163.9981 159.7315,163.5851 C159.8615,163.0011 160.0185,162.4741 160.2175,162.0411 C161.8345,158.5401 164.1175,148.4491 162.6515,141.8191 L161.4915,136.5741 C161.1115,134.8531 160.9185,133.0951 160.9185,131.3321 C160.9185,130.5981 160.9935,129.8811 161.1345,129.1891 C161.1705,129.0161 161.2095,128.8441 161.2535,128.6741 C161.3845,128.1651 161.5525,127.6691 161.7545,127.1931 C161.8225,127.0341 161.8935,126.8761 161.9675,126.7211 C162.1175,126.4121 162.2815,126.1101 162.4585,125.8171 C162.6365,125.5251 162.8285,125.2421 163.0325,124.9691 C163.6445,124.1491 164.3735,123.4221 165.1915,122.8091 C165.4645,122.6051 165.7485,122.4141 166.0405,122.2361 C167.6485,121.2591 169.5365,120.6961 171.5555,120.6961 L173.2995,120.6961 C176.2375,120.6961 178.8965,121.8871 180.8215,123.8111 C181.0615,124.0521 181.2905,124.3041 181.5075,124.5671 C181.9015,125.0441 182.2515,125.5581 182.5595,126.1001 C182.6745,126.3031 182.7865,126.5101 182.8875,126.7211 C182.9615,126.8761 183.0335,127.0341 183.1005,127.1931 C183.3025,127.6691 183.4705,128.1651 183.6015,128.6741 C183.7325,129.1841 183.8275,129.7081 183.8815,130.2461 C183.9175,130.6031 183.9365,130.9651 183.9365,131.3321 C183.9365,132.0651 183.6395,132.7281 183.1605,133.2071 C182.6795,133.6881 182.0165,133.9851 181.2855,133.9851 L170.3945,133.9851 L172.0425,143.4371 C173.9775,153.1471 173.3965,159.6401 171.8975,163.9691 C171.5635,164.9341 169.6615,168.3541 169.6615,168.3541 C175.1075,176.9471 183.4575,180.7031 192.3865,181.7921 C199.9775,182.7201 216.3655,175.7971 207.9155,167.7901 C199.4665,159.7821 209.6765,164.7611 211.1795,165.7751 C212.6825,166.7881 221.3725,174.2961 211.9415,185.3131 C207.9535,189.9721 203.4355,194.2071 192.5665,197.4541 C190.8235,197.9741 181.3115,198.6661 176.1915,200.1351 C160.9455,204.5121 148.5505,199.7531 141.6055,189.6901 C134.6885,179.6661 140.5825,167.1381 142.3115,167.1031"/>
    <path fill="#52267D" d="M142.4762,168.0991 C141.9952,168.4751 140.6642,170.5551 139.8802,173.9681 C139.1412,177.1791 138.4912,183.4171 142.4292,189.1221 C149.6282,199.5541 161.8362,203.2161 175.9152,199.1741 C179.1812,198.2371 184.1722,197.6121 187.8152,197.1551 C189.8142,196.9051 191.7032,196.6671 192.2802,196.4961 C203.1662,193.2441 207.4322,189.0421 211.1812,184.6631 C214.2982,181.0221 215.6442,177.4551 215.1832,174.0581 C214.6462,170.1031 211.7082,167.3361 210.6212,166.6041 C209.8292,166.0701 207.5862,164.9901 206.1792,164.5291 C206.6032,165.0561 207.3372,165.8631 208.6032,167.0641 C211.8832,170.1711 211.5552,172.9821 210.7032,174.7921 C208.1832,180.1411 197.7402,183.4541 192.2652,182.7851 C181.7352,181.4991 173.8452,176.8251 168.8162,168.8891 L168.4982,168.3871 L168.7872,167.8681 C169.5072,166.5751 170.7302,164.2851 170.9522,163.6421 C172.6782,158.6601 172.7152,151.9271 171.0622,143.6321 L169.2052,132.9851 L181.2852,132.9851 C181.7252,132.9851 182.1402,132.8131 182.4532,132.5001 C182.7642,132.1891 182.9362,131.7741 182.9362,131.3321 C182.9362,130.9991 182.9202,130.6701 182.8872,130.3461 C182.8382,129.8691 182.7532,129.3901 182.6332,128.9231 C182.5152,128.4661 182.3632,128.0161 182.1792,127.5831 C182.1182,127.4371 182.0532,127.2941 181.9852,127.1531 C181.8942,126.9641 181.7942,126.7771 181.6892,126.5931 C181.4072,126.0961 181.0872,125.6281 180.7362,125.2031 C180.5402,124.9651 180.3312,124.7361 180.1132,124.5181 C178.2942,122.6991 175.8742,121.6961 173.3002,121.6961 L171.5552,121.6961 C169.7882,121.6961 168.0602,122.1781 166.5592,123.0901 C166.2952,123.2511 166.0382,123.4251 165.7902,123.6101 C165.0462,124.1671 164.3872,124.8261 163.8332,125.5671 C163.6482,125.8151 163.4742,126.0721 163.3132,126.3361 C163.1522,126.6011 163.0042,126.8751 162.8682,127.1561 C162.8032,127.2941 162.7372,127.4371 162.6762,127.5821 C162.4922,128.0161 162.3402,128.4661 162.2222,128.9231 C162.1812,129.0801 162.1462,129.2361 162.1132,129.3941 C161.9842,130.0241 161.9192,130.6771 161.9192,131.3321 C161.9192,133.0181 162.1032,134.7081 162.4682,136.3581 L163.6282,141.6031 C165.1432,148.4571 162.8042,158.8261 161.1262,162.4601 C160.9722,162.7931 160.8312,163.2461 160.7082,163.8021 L160.5422,164.5491 L159.7772,164.5841 C154.7502,164.8161 151.2312,165.9121 148.4052,166.7911 C146.2692,167.4561 144.4182,168.0341 142.4762,168.0991 L142.4762,168.0991 Z M165.2962,202.7411 C155.1572,202.7411 146.4032,198.4031 140.7822,190.2581 C135.2672,182.2661 137.4412,173.0141 139.5952,168.8071 C140.9672,166.1301 141.9642,166.1101 142.2912,166.1031 C144.0022,166.0681 145.6822,165.5441 147.8102,164.8821 C150.6072,164.0111 154.0542,162.9381 158.9432,162.6271 C159.0542,162.2481 159.1752,161.9151 159.3092,161.6231 C160.8462,158.2941 163.0742,148.3651 161.6752,142.0351 L160.5142,136.7891 C160.1192,134.9981 159.9192,133.1631 159.9192,131.3321 C159.9192,130.5431 159.9982,129.7541 160.1552,128.9891 C160.1952,128.7961 160.2382,128.6091 160.2862,128.4241 C160.4282,127.8721 160.6122,127.3271 160.8342,126.8021 C160.9072,126.6301 160.9842,126.4581 161.0652,126.2891 C161.2302,125.9481 161.4102,125.6181 161.6042,125.2981 C161.7992,124.9781 162.0082,124.6681 162.2312,124.3701 C162.8992,123.4761 163.6942,122.6811 164.5922,122.0091 C164.8912,121.7851 165.2012,121.5761 165.5202,121.3821 C167.3352,120.2791 169.4222,119.6961 171.5552,119.6961 L173.3002,119.6961 C176.4082,119.6961 179.3312,120.9071 181.5282,123.1041 C181.7922,123.3681 182.0422,123.6431 182.2792,123.9301 C182.7032,124.4451 183.0902,125.0091 183.4292,125.6061 C183.5552,125.8301 183.6782,126.0561 183.7892,126.2881 C183.8712,126.4581 183.9482,126.6301 184.0212,126.8031 C184.2432,127.3271 184.4282,127.8721 184.5702,128.4251 C184.7152,128.9891 184.8182,129.5681 184.8772,130.1441 C184.9162,130.5361 184.9362,130.9311 184.9362,131.3321 C184.9362,132.3081 184.5562,133.2251 183.8672,133.9141 C183.1772,134.6051 182.2602,134.9851 181.2852,134.9851 L171.5842,134.9851 L173.0282,143.2651 C174.7472,151.8891 174.6852,158.9731 172.8432,164.2961 C172.5612,165.1071 171.3912,167.2801 170.8262,168.3131 C175.5322,175.4171 182.8242,179.6181 192.5082,180.8001 C197.7212,181.4251 206.9352,178.0971 208.8932,173.9411 C209.7362,172.1511 209.1912,170.3761 207.2282,168.5151 C203.8842,165.3451 203.0432,163.9161 203.8962,162.8531 C205.3862,160.9971 211.6772,164.9051 211.7392,164.9461 C213.3472,166.0301 216.5522,169.2731 217.1652,173.7891 C217.7062,177.7751 216.2042,181.8711 212.7012,185.9631 C208.9072,190.3951 204.2502,195.0071 192.8522,198.4121 C192.1162,198.6311 190.4172,198.8441 188.0642,199.1391 C184.4852,199.5881 179.5842,200.2031 176.4672,201.0961 C172.6232,202.2001 168.8722,202.7411 165.2962,202.7411 L165.2962,202.7411 Z"/>
    <path fill="#9452BA" d="M151.7705,152.6324 C152.1205,141.3724 143.1835,132.5234 133.0275,130.6534 C130.9185,130.2654 130.2325,129.6034 127.9255,129.6034 L126.1595,129.6034 C120.2075,129.6034 115.3825,134.4284 115.3825,140.3794 C115.3825,141.8624 116.5855,143.0664 118.0695,143.0664 C118.0695,143.0664 136.1885,143.0614 136.2735,143.0534 C136.2745,143.0534 137.7495,143.0544 137.7505,143.0544 C137.7485,143.0564 136.2715,143.0574 136.2695,143.0594 C140.2765,144.7604 142.7705,149.8804 143.2095,152.6324 C143.8355,156.5504 143.3775,159.7824 142.0415,162.3974 C141.1505,164.1384 141.0495,166.2364 141.1865,167.9354 C141.1865,167.9354 141.2295,167.9494 141.2905,167.9704 C141.3525,168.8784 141.4995,169.9114 141.7705,171.0904 C143.4765,169.9014 146.1295,168.1114 146.6155,167.8564 C147.6615,167.3034 150.0255,166.0454 151.0835,165.4404 C157.8415,161.5654 151.5725,159.0364 151.7705,152.6324"/>
    <path fill="#52267D" d="M141.6621,167.5689 L141.7661,167.6039 L141.7891,167.9359 C141.8391,168.6669 141.9441,169.4429 142.1021,170.2519 C143.7361,169.1249 145.9131,167.6609 146.3821,167.4139 C146.9181,167.1309 149.6541,165.6819 150.8351,165.0059 C154.6581,162.8139 153.9971,161.3509 152.7981,158.6969 C152.0831,157.1119 151.1921,155.1409 151.2701,152.6169 C151.6341,140.9289 142.0961,132.8309 132.9361,131.1449 C132.1031,130.9919 131.4741,130.7939 130.9181,130.6189 C130.0371,130.3419 129.2761,130.1029 127.9261,130.1029 L126.1591,130.1029 C120.4931,130.1029 115.8831,134.7139 115.8831,140.3799 C115.8831,141.5859 116.8631,142.5659 118.0691,142.5659 C124.2381,142.5639 135.9791,142.5589 136.2581,142.5529 L139.4011,142.5549 L138.0311,143.4679 C141.2601,145.7019 143.2911,149.9719 143.7041,152.5529 C144.3251,156.4419 143.9151,159.8309 142.4861,162.6249 C141.6751,164.2119 141.5781,166.1329 141.6621,167.5689 L141.6621,167.5689 Z M141.4491,171.9239 L141.2831,171.2029 C141.0541,170.2029 140.8971,169.2409 140.8171,168.3379 L140.7151,168.3019 L140.6881,167.9749 C140.5601,166.3859 140.6141,164.0899 141.5961,162.1699 C142.9271,159.5679 143.3041,156.3849 142.7161,152.7119 C142.2621,149.8669 139.7331,145.1289 136.1551,143.5539 C135.6281,143.5559 132.8171,143.5619 118.0691,143.5659 C116.3121,143.5659 114.8831,142.1359 114.8831,140.3799 C114.8831,134.1619 119.9411,129.1029 126.1591,129.1029 L127.9261,129.1029 C129.4301,129.1029 130.2991,129.3759 131.2181,129.6649 C131.7711,129.8399 132.3451,130.0189 133.1181,130.1609 C142.6861,131.9229 152.6501,140.4029 152.2701,152.6479 C152.1991,154.9399 153.0021,156.7169 153.7101,158.2849 C154.9081,160.9379 155.9421,163.2299 151.3321,165.8739 C150.1371,166.5569 147.3881,168.0129 146.8491,168.2979 C146.4091,168.5299 143.8471,170.2529 142.0571,171.5009 L141.4491,171.9239 Z"/>
    <path fill="#F3E3FF" d="M146,165.6432 C145.911,163.9042 145.646,163.0112 145.841,162.3032 C146.963,158.2302 147.328,156.9452 147.328,152.6322 C147.328,148.3472 144.846,144.1122 141.181,141.8592 C140.979,141.7362 138.341,141.5492 136.27,143.0592 C140.276,144.7602 142.771,149.8802 143.21,152.6322 C143.836,156.5502 143.377,159.7832 142.041,162.3972 C141.15,164.1382 141.049,166.2362 141.187,167.9352 C141.187,167.9352 146.103,169.7812 146,165.6432"/>
    <path fill="#52267D" d="M141.4238,167.7516 C141.9688,167.9266 143.8788,168.4616 144.9638,167.6896 C145.5088,167.3026 145.7738,166.6166 145.7498,165.6526 C145.7168,165.0006 145.6588,164.4796 145.6088,164.0186 C145.5258,163.2666 145.4658,162.7226 145.5998,162.2366 L145.6308,162.1236 C146.7138,158.1946 147.0778,156.8706 147.0778,152.6326 C147.0778,148.4686 144.7118,144.3226 141.0498,142.0716 C140.7888,141.9806 138.6198,141.8846 136.7788,143.0186 C140.5888,144.8976 143.0058,149.7716 143.4568,152.5936 C144.0698,156.4266 143.6678,159.7636 142.2638,162.5106 C141.3928,164.2136 141.3198,166.2706 141.4238,167.7516 M143.4188,168.5966 C142.2568,168.5966 141.1678,168.1946 141.0988,168.1696 L140.9498,168.1136 L140.9378,167.9556 C140.8118,166.3996 140.8618,164.1526 141.8188,162.2826 C143.1728,159.6316 143.5588,156.3976 142.9628,152.6716 C142.5138,149.8596 140.0448,144.9346 136.1718,143.2896 L135.7658,143.1166 L136.1218,142.8566 C138.2518,141.3056 140.9988,141.4566 141.3108,141.6456 C145.1178,143.9856 147.5778,148.2986 147.5778,152.6326 C147.5778,156.9386 147.2088,158.2786 146.1128,162.2566 L146.0818,162.3696 C145.9738,162.7626 146.0268,163.2406 146.1058,163.9636 C146.1538,164.4086 146.2158,164.9626 146.2498,165.6306 L146.2498,165.6376 C146.2778,166.7796 145.9428,167.6076 145.2528,168.0986 C144.7258,168.4746 144.0608,168.5966 143.4188,168.5966"/>
    <path fill="#FFF" d="M120.5039,131.4342 C120.5039,131.4342 120.4999,129.5522 122.3699,128.8042 C122.9409,128.5772 123.9829,128.1522 123.9829,128.1522 C123.9829,128.1522 125.0969,130.5072 123.8349,131.1022 C122.0189,131.9562 120.5039,131.4342 120.5039,131.4342"/>
    <path fill="#52267D" d="M120.7676,131.2457 C121.2056,131.3437 122.3866,131.5087 123.7286,130.8757 C123.9146,130.7877 124.0406,130.6467 124.1146,130.4437 C124.3176,129.8767 124.0466,128.9697 123.8496,128.4757 C123.5106,128.6137 122.8686,128.8747 122.4626,129.0367 C121.0946,129.5837 120.8216,130.7797 120.7676,131.2457 M121.6766,131.8447 C120.9406,131.8447 120.4576,131.6827 120.4226,131.6707 L120.2536,131.6127 L120.2536,131.4347 C120.2536,131.4147 120.2726,129.3737 122.2776,128.5717 C122.8476,128.3447 123.8876,127.9207 123.8876,127.9207 L124.1076,127.8307 L124.2076,128.0457 C124.2386,128.1087 124.9426,129.6157 124.5846,130.6127 C124.4666,130.9417 124.2496,131.1837 123.9416,131.3287 C123.0836,131.7317 122.2916,131.8447 121.6766,131.8447"/>
    <path fill="#FFF" d="M125.1855,130.1109 C125.1855,130.1109 125.2395,127.5469 128.1235,127.1729 C128.6625,127.1029 130.0655,127.1369 130.0655,127.1369 C130.0655,127.1369 130.7135,129.8499 129.1925,130.1109 C127.3225,130.4309 125.1855,130.1109 125.1855,130.1109"/>
    <path fill="#52267D" d="M125.4561,129.8932 C126.0541,129.9622 127.6961,130.1142 129.1501,129.8652 C129.3871,129.8242 129.5651,129.7082 129.6961,129.5102 C130.0571,128.9642 129.9601,127.9202 129.8611,127.3832 C129.4601,127.3782 128.5521,127.3702 128.1561,127.4202 C125.9721,127.7042 125.5411,129.2962 125.4561,129.8932 M127.3151,130.5042 C126.1431,130.5042 125.2071,130.3672 125.1481,130.3582 L124.9311,130.3262 L124.9351,130.1062 C124.9361,130.0782 125.0291,127.3222 128.0921,126.9242 C128.6441,126.8542 130.0131,126.8852 130.0711,126.8872 L130.2641,126.8922 L130.3091,127.0792 C130.3261,127.1512 130.7251,128.8602 130.1131,129.7862 C129.9051,130.1012 129.6101,130.2922 129.2341,130.3572 C128.5911,130.4672 127.9221,130.5042 127.3151,130.5042"/>
    <path fill="#FFF" d="M130.9219,130.356 C130.9219,130.356 131.3019,127.512 133.8569,128.294 C134.9479,128.628 135.5539,129.458 135.5539,129.458 C135.5539,129.458 135.0459,131.624 134.0289,131.379 C132.2549,130.955 130.9219,130.356 130.9219,130.356"/>
    <path fill="#52267D" d="M131.2051,130.2047 C131.6251,130.3797 132.7301,130.8107 134.0881,131.1367 C134.2021,131.1627 134.3091,131.1447 134.4231,131.0757 C134.8531,130.8097 135.1621,129.9497 135.2801,129.5177 C135.0981,129.3087 134.5751,128.7757 133.7831,128.5337 C133.1351,128.3357 132.5901,128.3747 132.1571,128.6497 C131.5341,129.0507 131.2881,129.8457 131.2051,130.2047 M134.1891,131.6487 C134.1171,131.6487 134.0441,131.6407 133.9711,131.6227 C132.1941,131.1967 130.8751,130.6087 130.8191,130.5847 L130.6491,130.5077 L130.6741,130.3227 C130.6821,130.2647 130.8781,128.8767 131.8881,128.2287 C132.4451,127.8707 133.1321,127.8097 133.9301,128.0557 C135.0881,128.4097 135.7281,129.2737 135.7561,129.3097 L135.8231,129.4027 L135.7971,129.5147 C135.7611,129.6707 135.4191,131.0497 134.6851,131.5017 C134.5261,131.5997 134.3601,131.6487 134.1891,131.6487"/>
    <path fill="#FFF" d="M138.3408,144.1617 C138.3408,144.1617 144.2958,140.9247 143.1628,135.4757 C143.9538,136.1277 146.0688,138.1137 146.8348,139.1307 C146.8348,140.1967 147.0298,144.4327 141.1818,147.2687 C140.1528,146.2027 139.2868,144.8717 138.3408,144.1617"/>
    <path fill="#52267D" d="M138.7744,144.193 C139.2674,144.626 139.7364,145.194 140.2274,145.791 C140.5524,146.184 140.8864,146.589 141.2364,146.964 C144.8024,145.183 146.6014,142.584 146.5854,139.232 L146.5854,139.215 C145.9494,138.4 144.4714,136.964 143.5164,136.112 C143.9934,140.547 139.9494,143.449 138.7744,144.193 L138.7744,144.193 Z M141.1284,147.573 L141.0024,147.443 C140.5924,147.019 140.2114,146.556 139.8424,146.109 C139.2774,145.423 138.7434,144.776 138.1904,144.362 L137.8794,144.129 L138.2214,143.942 C138.2794,143.911 143.9994,140.727 142.9184,135.527 L142.7734,134.832 L143.3224,135.283 C144.1604,135.973 146.2574,137.95 147.0344,138.98 L147.0854,139.047 L147.0854,139.23 C147.1024,142.84 145.1534,145.621 141.2914,147.494 L141.1284,147.573 Z"/>
    <path fill="#F3E3FF" d="M121.0557 131.1334C121.0557 131.1334 121.0537 130.0344 122.1447 129.5984 122.4777 129.4654 123.0857 129.2174 123.0857 129.2174 123.0857 129.2174 123.7357 130.5924 122.9987 130.9394 121.9397 131.4384 121.0557 131.1334 121.0557 131.1334M126.0371 129.7564C126.0371 129.7564 126.0681 128.2554 127.7581 128.0354 128.0731 127.9954 128.8941 128.0154 128.8941 128.0154 128.8941 128.0154 129.2741 129.6044 128.3841 129.7564 127.2891 129.9434 126.0371 129.7564 126.0371 129.7564M131.5527 130.2711C131.5527 130.2711 131.7777 128.5881 133.2877 129.0511 133.9337 129.2491 134.2917 129.7391 134.2917 129.7391 134.2917 129.7391 133.9907 131.0201 133.3907 130.8761 132.3407 130.6251 131.5527 130.2711 131.5527 130.2711M131.5098 141.2623L124.8638 141.2623 124.8638 138.3973C124.8638 137.2373 125.8048 136.2953 126.9648 136.2953L131.5098 136.2953C132.2178 136.2953 132.7918 136.8693 132.7918 137.5773L132.7918 139.9803C132.7918 140.6883 132.2178 141.2623 131.5098 141.2623"/>
    <path fill="#FFF" d="M130.7939,141.1685 L124.9569,141.1685 L124.9569,139.2815 C124.9569,138.1695 125.8589,137.2675 126.9719,137.2675 L130.7939,137.2675 C131.3509,137.2675 131.8019,137.7185 131.8019,138.2745 L131.8019,140.1615 C131.8019,140.7175 131.3509,141.1685 130.7939,141.1685"/>
    <path fill="#52267D" d="M125.207,140.9185 L130.794,140.9185 C131.212,140.9185 131.552,140.5785 131.552,140.1615 L131.552,138.2745 C131.552,137.8565 131.212,137.5175 130.794,137.5175 L126.972,137.5175 C125.999,137.5175 125.207,138.3095 125.207,139.2815 L125.207,140.9185 Z M130.794,141.4185 L124.707,141.4185 L124.707,139.2815 C124.707,138.0325 125.723,137.0175 126.972,137.0175 L130.794,137.0175 C131.487,137.0175 132.052,137.5815 132.052,138.2745 L132.052,140.1615 C132.052,140.8555 131.487,141.4185 130.794,141.4185 L130.794,141.4185 Z"/>
    <path fill="#52267D" d="M125.8438 139.1656C125.8438 139.7676 126.3308 140.2556 126.9338 140.2556 127.5348 140.2556 128.0228 139.7676 128.0228 139.1656 128.0228 138.5636 127.5348 138.0756 126.9338 138.0756 126.3308 138.0756 125.8438 138.5636 125.8438 139.1656M117.8203 142.2476L117.8203 142.2476C118.1303 142.1816 118.4063 142.0096 118.6033 141.7616L118.9683 141.3026 118.1553 141.4766 117.6763 141.5786C117.4923 141.6186 117.3753 141.8006 117.4143 141.9846 117.4543 142.1696 117.6353 142.2866 117.8203 142.2476"/>
    <path fill="#E1F2FF" d="M139.3467,144.2691 C139.3467,144.2691 143.9347,141.7991 143.8647,136.8231 C145.8357,138.2591 146.3697,139.1881 146.3697,139.1881 C146.3697,139.1881 146.0267,141.5561 144.9227,142.7521 C143.2287,144.5871 141.4637,145.1521 139.3467,144.2691"/>
    <path fill="#FFF" d="M143.6904,143.3961 C143.6904,143.3961 141.8804,145.2361 140.1164,146.1191"/>
    <path fill="#52267D" d="M140.2285,146.3424 L140.0035,145.8954 C141.7115,145.0404 143.4945,143.2384 143.5115,143.2204 L143.8695,143.5714 C143.7935,143.6484 142.0095,145.4504 140.2285,146.3424"/>
    <path fill="#9452BA" d="M161.6816,162.7437 L160.6596,160.7267 C156.8416,151.3457 156.2536,145.8367 158.2336,136.8827 L159.3936,131.6377 C159.7736,129.9167 159.9656,128.1587 159.9656,126.3957 C159.9656,120.5217 155.2026,115.7597 149.3286,115.7597 L147.6116,115.7597 C141.8176,115.7597 137.1196,120.4567 137.1196,126.2507 L137.1196,126.5527 C137.1196,127.9307 138.2386,129.0487 139.6166,129.0487 L150.4906,129.0487 L148.8416,138.5007 C143.7946,163.8307 144.3006,174.1007 154.2326,171.9897"/>
    <path fill="#52267D" d="M151.9053,172.7594 C150.1583,172.7594 148.7773,172.2414 147.7183,171.1974 C144.1703,167.6934 144.3473,158.4984 148.3513,138.4034 L149.8953,129.5484 L139.6163,129.5484 C137.9643,129.5484 136.6203,128.2044 136.6203,126.5524 L136.6203,126.2504 C136.6203,120.1904 141.5513,115.2594 147.6113,115.2594 L149.3293,115.2594 C155.4693,115.2594 160.4663,120.2554 160.4663,126.3964 C160.4663,128.1904 160.2693,129.9894 159.8823,131.7444 L158.7213,136.9904 C156.7843,145.7534 157.3443,151.2554 161.1223,160.5384 L162.1283,162.5174 L161.2353,162.9704 L160.2133,160.9534 C156.3293,151.4114 155.7563,145.7714 157.7453,136.7744 L158.9053,131.5294 C159.2773,129.8454 159.4663,128.1174 159.4663,126.3964 C159.4663,120.8064 154.9193,116.2594 149.3293,116.2594 L147.6113,116.2594 C142.1023,116.2594 137.6203,120.7414 137.6203,126.2504 L137.6203,126.5524 C137.6203,127.6534 138.5153,128.5484 139.6163,128.5484 L151.0853,128.5484 L149.3343,138.5864 C145.4553,158.0574 145.1913,167.2954 148.4223,170.4854 C149.6713,171.7194 151.5343,172.0504 154.1293,171.5004 L154.3363,172.4794 C153.4583,172.6654 152.6483,172.7594 151.9053,172.7594"/>
    <path fill="#FFF" d="M142.3623,117.0182 C142.3623,117.0182 142.5373,115.1742 144.3693,114.4422 C144.9273,114.2182 145.8033,114.4562 145.8033,114.4562 C145.8033,114.4562 146.8613,116.1102 145.6253,116.6922 C143.8453,117.5302 142.3623,117.0182 142.3623,117.0182"/>
    <path fill="#52267D" d="M142.6484,116.8341 C143.0954,116.9301 144.2304,117.0731 145.5184,116.4661 C145.7444,116.3601 145.8824,116.2091 145.9414,116.0051 C146.0684,115.5641 145.8034,114.9581 145.6434,114.6741 C145.3644,114.6131 144.8074,114.5351 144.4614,114.6741 C143.1434,115.2011 142.7534,116.3601 142.6484,116.8341 M143.5104,117.4241 C142.7884,117.4241 142.3164,117.2671 142.2814,117.2541 L142.0944,117.1901 L142.1134,116.9951 C142.1214,116.9131 142.3254,114.9901 144.2764,114.2101 C144.9044,113.9581 145.8314,114.2041 145.8694,114.2151 L145.9614,114.2401 L146.0144,114.3211 C146.0414,114.3621 146.6544,115.3361 146.4214,116.1441 C146.3224,116.4891 146.0894,116.7501 145.7314,116.9181 C144.8904,117.3141 144.1134,117.4241 143.5104,117.4241"/>
    <path fill="#FFF" d="M146.7246,116.4102 C146.7246,116.4102 146.7856,113.5062 150.0516,113.0822 C150.6616,113.0032 151.4436,113.0632 151.4436,113.0632 C151.4436,113.0632 152.9846,116.1152 151.2616,116.4102 C149.1446,116.7732 146.7246,116.4102 146.7246,116.4102"/>
    <path fill="#52267D" d="M146.9941,116.193 C147.6441,116.27 149.5431,116.451 151.2201,116.164 C151.4691,116.121 151.6301,116.013 151.7251,115.824 C152.0401,115.199 151.5581,113.897 151.2821,113.304 C151.0351,113.292 150.5101,113.275 150.0841,113.331 C147.5471,113.659 147.0801,115.537 146.9941,116.193 M149.1371,116.823 C147.8121,116.823 146.7541,116.668 146.6871,116.657 L146.4701,116.625 L146.4741,116.405 C146.4751,116.374 146.5791,113.28 150.0191,112.835 C150.6441,112.754 151.4301,112.812 151.4631,112.815 L151.6021,112.825 L151.6671,112.951 C151.7721,113.16 152.6851,115.028 152.1721,116.048 C152.0061,116.378 151.7061,116.588 151.3041,116.657 C150.5771,116.781 149.8211,116.823 149.1371,116.823"/>
    <path fill="#FFF" d="M152.5693,117.0709 C152.5693,117.0709 153.0123,114.2949 155.4953,115.1239 C156.5553,115.4789 157.1293,116.3059 157.1293,116.3059 C157.1293,116.3059 156.5763,118.4139 155.5873,118.1509 C153.8603,117.6899 152.5693,117.0709 152.5693,117.0709"/>
    <path fill="#52267D" d="M152.8574,116.9273 C153.2664,117.1093 154.3364,117.5583 155.6514,117.9083 C155.7654,117.9393 155.8674,117.9223 155.9774,117.8583 C156.4024,117.6113 156.7264,116.7793 156.8534,116.3593 C156.6784,116.1483 156.1814,115.6173 155.4164,115.3613 C154.7874,115.1513 154.2534,115.1763 153.8274,115.4333 C153.2114,115.8043 152.9494,116.5743 152.8574,116.9273 M155.7584,118.4243 C155.6804,118.4243 155.6014,118.4133 155.5224,118.3923 C153.7934,117.9303 152.5144,117.3223 152.4614,117.2963 L152.2934,117.2153 L152.3224,117.0313 C152.3324,116.9743 152.5584,115.6173 153.5664,115.0073 C154.1244,114.6693 154.7994,114.6283 155.5744,114.8863 C156.7014,115.2633 157.3084,116.1263 157.3344,116.1633 L157.4004,116.2583 L157.3714,116.3693 C157.3314,116.5213 156.9614,117.8643 156.2284,118.2903 C156.0764,118.3793 155.9194,118.4243 155.7584,118.4243"/>
    <path fill="#F3E3FF" d="M142.54,166.7672 C143.16,166.3032 143.787,166.0352 144.327,165.9062"/>
    <path fill="#52267D" d="M142.6895,166.9674 L142.3905,166.5674 C143.1295,166.0134 143.8205,165.7704 144.2695,165.6624 L144.3845,166.1494 C143.9825,166.2444 143.3615,166.4654 142.6895,166.9674"/>
    <path fill="#F3E3FF" d="M146.1406,166.7105 C144.3636,159.4875 147.5696,145.6805 148.1596,142.2815 L150.4936,128.6665 L151.5166,128.6665 C152.8126,128.6665 153.7936,130.0755 153.6106,131.3605 L151.9176,143.1705 C151.3456,147.1695 150.7496,165.6855 157.6986,169.6615 C159.1806,170.5105 161.5896,169.9535 162.4976,169.5205 C165.8006,167.9425 166.7496,163.8255 167.4736,160.5065 C168.9716,153.6365 167.8046,148.2435 167.4736,142.8585 L167.1246,136.1215 C167.0626,134.9035 168.0316,133.6115 169.2476,133.6115 L170.4896,133.6115 L172.7256,147.2275 C173.3986,151.1045 175.1286,164.5495 167.2066,170.8525 C167.0636,170.9665 169.1326,171.4295 168.5336,172.4895 C166.1506,176.7015 159.2446,177.3675 157.9456,179.1715 C152.9386,186.1155 157.6276,200.9125 157.6276,200.9125 C157.6276,200.9125 152.0706,198.6945 148.6286,195.6095 C140.5816,188.3975 139.5606,177.9515 139.5236,174.8765 C139.4786,171.1975 140.4456,168.9155 141.6346,167.5535"/>
    <path fill="#52267D" d="M158.0254,201.3404 L157.5354,201.1454 C157.4794,201.1224 151.8964,198.8744 148.4624,195.7964 C139.6814,187.9264 139.2894,176.1924 139.2734,174.8794 C139.2344,171.6534 139.9854,169.0624 141.4464,167.3894 L141.8234,167.7174 C140.4444,169.2964 139.7354,171.7714 139.7734,174.8734 C139.7894,176.1634 140.1744,187.6964 148.7964,195.4234 C151.5774,197.9174 155.8124,199.8614 157.2354,200.4764 C156.4454,197.7634 153.1874,185.3424 157.7424,179.0254 C158.2874,178.2704 159.6074,177.7494 161.2794,177.0904 C163.7814,176.1044 166.8954,174.8764 168.3154,172.3664 C168.4164,172.1884 168.3974,172.0734 168.3754,172.0024 C168.2654,171.6634 167.6834,171.3964 167.3714,171.2514 C167.1054,171.1294 166.9724,171.0684 166.9524,170.8974 L166.9344,170.7584 L167.0514,170.6564 C169.0064,169.1014 175.1774,162.8164 172.4794,147.2704 L170.2774,133.8614 L169.2484,133.8614 C168.8054,133.8614 168.3684,134.0664 168.0154,134.4374 C167.5894,134.8844 167.3444,135.5254 167.3754,136.1094 L167.7234,142.8464 C167.7984,144.0734 167.9164,145.2794 168.0404,146.5564 C168.4534,150.8194 168.8804,155.2264 167.7174,160.5604 C167.0254,163.7364 166.0764,168.0884 162.6054,169.7454 C161.7064,170.1744 159.1904,170.8044 157.5744,169.8784 C153.7804,167.7074 152.3064,161.3794 151.7394,156.4524 C151.0744,150.6764 151.4054,144.9864 151.6714,143.1354 L153.3634,131.3254 C153.4494,130.7224 153.2404,130.0444 152.8184,129.5574 C152.4604,129.1444 151.9974,128.9164 151.5164,128.9164 L150.7044,128.9164 L148.4054,142.3234 C148.3264,142.7824 148.1994,143.4304 148.0434,144.2244 C147.0894,149.0804 144.8584,160.4524 146.3834,166.6514 L145.8974,166.7704 C144.3464,160.4654 146.5114,149.4304 147.5524,144.1274 C147.7074,143.3384 147.8344,142.6944 147.9134,142.2384 L150.2824,128.4164 L151.5164,128.4164 C152.1444,128.4164 152.7414,128.7054 153.1964,129.2304 C153.7174,129.8324 153.9654,130.6424 153.8574,131.3964 L152.1654,143.2054 C151.4944,147.8944 151.2064,165.6584 157.8224,169.4444 C159.1884,170.2284 161.4704,169.7334 162.3904,169.2944 C165.6404,167.7424 166.5584,163.5294 167.2294,160.4524 C168.3764,155.1954 167.9524,150.8284 167.5424,146.6054 C167.4184,145.3234 167.2994,144.1124 167.2234,142.8744 L166.8754,136.1344 C166.8384,135.4074 167.1294,134.6454 167.6534,134.0924 C168.1004,133.6214 168.6674,133.3614 169.2484,133.3614 L170.7014,133.3614 L170.7364,133.5714 L172.9724,147.1874 C173.3444,149.3344 173.9014,153.6174 173.4384,158.1554 C172.8594,163.8194 170.9084,168.0784 167.6364,170.8234 C168.0494,171.0154 168.6814,171.3254 168.8504,171.8494 C168.9304,172.0974 168.8974,172.3544 168.7514,172.6124 C167.2444,175.2774 164.0384,176.5404 161.4634,177.5554 C159.9304,178.1594 158.6064,178.6814 158.1484,179.3184 C153.2714,186.0814 157.8194,200.6904 157.8664,200.8374 L158.0254,201.3404 Z"/>
    <path fill="#FFF" d="M211.4551,172.734 C211.4551,172.734 212.5981,171.468 211.9551,169.768 C211.7591,169.25 211.0531,168.803 211.0531,168.803 C211.0531,168.803 209.2701,169.114 209.6451,170.316 C210.1841,172.046 211.4551,172.734 211.4551,172.734"/>
    <path fill="#52267D" d="M210.9492,169.3414 C210.6702,169.4224 210.2832,169.5864 210.1442,169.8154 C210.1042,169.8814 210.0652,169.9824 210.1232,170.1674 C210.4232,171.1294 210.9692,171.7234 211.3312,172.0314 C211.5642,171.6074 211.8302,170.8514 211.4872,169.9454 C211.4082,169.7374 211.1492,169.4954 210.9492,169.3414 L210.9492,169.3414 Z M211.5622,173.3614 L211.2172,173.1734 C211.1572,173.1414 209.7612,172.3664 209.1682,170.4644 C209.0372,170.0454 209.0802,169.6404 209.2922,169.2924 C209.7502,168.5424 210.8442,168.3324 210.9672,168.3114 L211.1572,168.2784 L211.3202,168.3804 C211.4062,168.4354 212.1752,168.9354 212.4232,169.5914 C213.1652,171.5544 211.8812,173.0084 211.8262,173.0694 L211.5622,173.3614 Z"/>
    <path fill="#F3E3FF" d="M211.0762,170.9752 C211.0762,170.9752 211.4772,170.5312 211.2522,169.9352 C211.1832,169.7522 210.9352,169.5962 210.9352,169.5962 C210.9352,169.5962 210.3102,169.7052 210.4422,170.1262 C210.6312,170.7332 211.0762,170.9752 211.0762,170.9752"/>
    <path fill="#FFF" d="M202.0947,181.8023 C202.0947,181.8023 201.0087,179.3253 203.6027,177.6893 C204.0857,177.3833 204.7707,177.1283 204.7707,177.1283 C204.7707,177.1283 207.2667,179.1023 205.9267,180.0263 C204.2807,181.1613 202.0947,181.8023 202.0947,181.8023"/>
    <path fill="#52267D" d="M204.6787,177.7047 C204.4527,177.8007 204.1257,177.9497 203.8697,178.1117 C202.2697,179.1217 202.2877,180.4787 202.4267,181.1677 C203.1417,180.9197 204.5327,180.3807 205.6427,179.6147 C205.7957,179.5097 205.8197,179.4207 205.8227,179.3407 C205.8357,178.9077 205.2097,178.1767 204.6787,177.7047 L204.6787,177.7047 Z M201.8137,182.4057 L201.6367,182.0037 C201.2007,181.0107 200.9957,178.7427 203.3357,177.2667 C203.8567,176.9367 204.5667,176.6717 204.5957,176.6597 L204.8597,176.5617 L205.0807,176.7357 C205.3777,176.9717 206.8597,178.2037 206.8217,179.3727 C206.8117,179.6737 206.6977,180.1017 206.2107,180.4377 C204.5177,181.6047 202.3277,182.2557 202.2357,182.2817 L201.8137,182.4057 Z"/>
    <path fill="#F3E3FF" d="M202.998,180.8707 C202.998,180.8707 202.396,179.4967 203.835,178.5897 C204.102,178.4207 204.482,178.2787 204.482,178.2787 C204.482,178.2787 205.866,179.3737 205.124,179.8857 C204.211,180.5157 202.998,180.8707 202.998,180.8707"/>
    <path fill="#FFF" d="M210.0127,173.69 C210.0127,173.69 211.8927,175.341 210.0887,176.818 C209.3187,177.449 208.4237,177.487 208.4237,177.487 C208.4237,177.487 207.0977,176.07 207.7667,175.451 C208.9337,174.368 210.0127,173.69 210.0127,173.69"/>
    <path fill="#52267D" d="M209.9365,174.3434 C209.5375,174.6224 208.8365,175.1404 208.1065,175.8174 C208.0735,176.1474 208.3595,176.6224 208.6255,176.9554 C208.8935,176.9044 209.3585,176.7704 209.7725,176.4314 C210.1685,176.1064 210.3645,175.7714 210.3715,175.4064 C210.3775,174.9874 210.1355,174.5944 209.9365,174.3434 L209.9365,174.3434 Z M208.2155,177.9964 L208.0585,177.8284 C207.8895,177.6484 207.0485,176.7044 207.0795,175.8574 C207.0895,175.5524 207.2095,175.2844 207.4265,175.0834 C208.6145,173.9824 209.7015,173.2954 209.7475,173.2664 L210.0625,173.0684 L210.3425,173.3144 C210.3855,173.3524 211.3915,174.2494 211.3715,175.4244 C211.3595,176.0914 211.0345,176.6904 210.4055,177.2044 C209.5165,177.9334 208.4885,177.9854 208.4455,177.9874 L208.2155,177.9964 Z"/>
    <path fill="#F3E3FF" d="M209.7393,174.8609 C209.7393,174.8609 210.5713,175.5919 209.7723,176.2459 C209.4313,176.5249 209.0353,176.5429 209.0353,176.5429 C209.0353,176.5429 208.4483,175.9149 208.7443,175.6399 C209.2603,175.1609 209.7393,174.8609 209.7393,174.8609"/>
    <path fill="#FFF" d="M193.0723,183.1051 C193.0723,183.1051 192.4533,180.9001 194.8793,180.0251 C197.3053,179.1501 197.9583,179.8771 197.9583,179.8771 C197.9583,179.8771 199.3003,182.1371 198.1003,182.8641 C196.9013,183.5911 193.0723,183.1051 193.0723,183.1051"/>
    <path fill="#52267D" d="M193.502,182.651 C194.949,182.802 197.14,182.862 197.841,182.436 C198.446,182.07 197.841,180.7 197.574,180.214 C197.421,180.133 196.753,179.88 195.049,180.496 C193.575,181.027 193.457,182.102 193.502,182.651 M195.579,183.765 C194.366,183.765 193.229,183.629 193.009,183.601 L192.681,183.559 L192.591,183.24 C192.333,182.323 192.444,180.372 194.709,179.554 C197.321,178.614 198.184,179.38 198.33,179.544 C198.981,180.62 199.641,182.515 198.359,183.292 C197.749,183.662 196.636,183.765 195.579,183.765"/>
    <path fill="#F3E3FF" d="M194.2109,182.6041 C194.2109,182.6041 193.8889,181.4581 195.1509,181.0021 C196.4129,180.5471 196.7519,180.9261 196.7519,180.9261 C196.7519,180.9261 197.4499,182.1011 196.8259,182.4791 C196.2019,182.8571 194.2109,182.6041 194.2109,182.6041"/>
    <path fill="#FFF" d="M149.9639,131.9869 C149.9639,131.9869 153.8369,134.1769 159.2819,132.1999 C158.9079,133.8889 158.1469,137.2839 158.1469,137.2839 C158.1469,137.2839 153.1029,138.8309 149.2109,136.3829 C149.6099,134.1409 149.9639,131.9869 149.9639,131.9869"/>
    <path fill="#52267D" d="M149.4873,136.2584 C152.8663,138.2814 157.1193,137.2994 157.9353,137.0834 C158.0713,136.4774 158.5993,134.1184 158.9413,132.5824 C154.4863,134.0514 151.1653,132.8254 150.1553,132.3624 C150.0443,133.0294 149.7803,134.6064 149.4873,136.2584 M154.5093,138.0244 C152.8413,138.0244 150.8533,137.7114 149.0783,136.5944 L148.9353,136.5044 L148.9653,136.3384 C149.3643,134.0994 149.7163,131.9464 149.7163,131.9464 L149.7753,131.5944 L150.0873,131.7694 C150.1253,131.7904 153.9303,133.8794 159.1973,131.9644 L159.6253,131.8094 L159.5263,132.2534 C159.1523,133.9444 158.3903,137.3384 158.3903,137.3384 L158.3583,137.4804 L158.2193,137.5234 C158.1043,137.5584 156.5453,138.0244 154.5093,138.0244"/>
    <path fill="#FFF" d="M178.9434,122.1456 C178.9434,122.1456 178.7664,120.2886 176.9214,119.5496 C176.3584,119.3246 174.8374,119.2636 174.8374,119.2636 C174.8374,119.2636 174.4104,121.2306 175.6554,121.8176 C177.4484,122.6616 178.9434,122.1456 178.9434,122.1456"/>
    <path fill="#52267D" d="M175.0479,119.525 C174.9869,120.009 174.9299,121.199 175.7619,121.591 C177.0719,122.207 178.2099,122.06 178.6589,121.962 C178.5559,121.485 178.1709,120.319 176.8279,119.782 C176.4619,119.635 175.5599,119.555 175.0479,119.525 M177.7849,122.553 C177.1789,122.553 176.3969,122.442 175.5489,122.044 C174.1399,121.38 174.5729,119.299 174.5929,119.211 L174.6369,119.005 L174.8469,119.014 C174.9109,119.017 176.4179,119.08 177.0139,119.318 C178.9789,120.104 179.1849,122.04 179.1929,122.122 L179.2109,122.318 L179.0249,122.382 C178.9889,122.394 178.5139,122.553 177.7849,122.553"/>
    <path fill="#FFF" d="M174.2598,121.1974 C174.2598,121.1974 174.2068,118.6664 171.3608,118.2974 C170.8288,118.2284 170.1468,118.2804 170.1468,118.2804 C170.1468,118.2804 168.8038,120.9394 170.3058,121.1974 C172.1518,121.5134 174.2598,121.1974 174.2598,121.1974"/>
    <path fill="#52267D" d="M170.3076,118.5211 C170.0686,119.0411 169.6636,120.1441 169.9296,120.6711 C170.0076,120.8271 170.1406,120.9161 170.3476,120.9511 C171.7796,121.1971 173.3946,121.0501 173.9886,120.9801 C173.9006,120.3891 173.4666,118.8221 171.3286,118.5451 C170.9706,118.4981 170.5306,118.5111 170.3076,118.5211 M172.1586,121.5891 C171.5596,121.5891 170.8986,121.5531 170.2636,121.4441 C169.9026,121.3821 169.6326,121.1921 169.4836,120.8961 C169.0286,119.9931 169.8296,118.3521 169.9226,118.1671 L169.9876,118.0421 L170.1266,118.0311 C170.1566,118.0291 170.8406,117.9781 171.3926,118.0491 C174.4176,118.4411 174.5086,121.1651 174.5096,121.1921 L174.5146,121.4121 L174.2966,121.4441 C174.2396,121.4531 173.3146,121.5891 172.1586,121.5891"/>
    <path fill="#FFF" d="M168.8662,121.3805 C168.8662,121.3805 168.4202,118.5845 165.9192,119.4195 C164.8502,119.7765 164.2732,120.6095 164.2732,120.6095 C164.2732,120.6095 164.8292,122.7345 165.8262,122.4685 C167.5662,122.0045 168.8662,121.3805 168.8662,121.3805"/>
    <path fill="#52267D" d="M164.5479,120.6627 C164.6759,121.0857 165.0029,121.9267 165.4319,122.1757 C165.5439,122.2407 165.6509,122.2577 165.7619,122.2267 C167.0909,121.8727 168.1669,121.4197 168.5779,121.2367 C168.4859,120.8827 168.2219,120.1047 167.6009,119.7287 C167.1699,119.4697 166.6309,119.4447 165.9979,119.6567 C165.2209,119.9167 164.7229,120.4507 164.5479,120.6627 M165.6529,122.7417 C165.4919,122.7417 165.3329,122.6967 165.1799,122.6077 C164.4439,122.1787 164.0709,120.8267 164.0309,120.6737 L164.0029,120.5617 L164.0689,120.4677 C164.0939,120.4307 164.7049,119.5607 165.8399,119.1827 C166.6209,118.9217 167.3009,118.9627 167.8609,119.3027 C168.8749,119.9177 169.1039,121.2837 169.1129,121.3407 L169.1429,121.5247 L168.9749,121.6057 C168.9209,121.6317 167.6339,122.2457 165.8909,122.7097 C165.8109,122.7307 165.7319,122.7417 165.6529,122.7417"/>
    <path fill="#F3E3FF" d="M143.2021 116.6349C143.2021 116.6349 143.3011 115.5929 144.3371 115.1789 144.6521 115.0519 145.1471 115.1869 145.1471 115.1869 145.1471 115.1869 145.7451 116.1219 145.0461 116.4509 144.0411 116.9239 143.2021 116.6349 143.2021 116.6349M147.6387 116.023C147.6387 116.023 147.6787 114.115 149.8257 113.837 150.2257 113.785 150.7397 113.825 150.7397 113.825 150.7397 113.825 151.7517 115.829 150.6197 116.023 149.2287 116.262 147.6387 116.023 147.6387 116.023M153.3701 116.898C153.3701 116.898 153.6521 115.132 155.2321 115.659 155.9071 115.885 156.2711 116.411 156.2711 116.411 156.2711 116.411 155.9201 117.753 155.2901 117.585 154.1911 117.292 153.3701 116.898 153.3701 116.898M178.1455 121.7535C178.1455 121.7535 178.0475 120.7185 177.0195 120.3075 176.7055 120.1815 175.8585 120.1475 175.8585 120.1475 175.8585 120.1475 175.6205 121.2435 176.3135 121.5705 177.3125 122.0405 178.1455 121.7535 178.1455 121.7535M173.2793 120.8287C173.2793 120.8287 173.2483 119.3617 171.5983 119.1477 171.2913 119.1087 170.8953 119.1387 170.8953 119.1387 170.8953 119.1387 170.1183 120.6797 170.9873 120.8287 172.0563 121.0117 173.2793 120.8287 173.2793 120.8287M168.0811 121.2711C168.0811 121.2711 167.8161 119.6171 166.3371 120.1111 165.7051 120.3221 165.3631 120.8151 165.3631 120.8151 165.3631 120.8151 165.6921 122.0721 166.2821 121.9151 167.3111 121.6401 168.0811 121.2711 168.0811 121.2711"/>
    <path fill="#FFF" d="M161.5381,136.7828 C161.5381,136.7828 166.3341,137.5308 170.8951,136.4118 C171.3401,138.8898 171.6261,140.7618 171.6261,140.7618 C171.6261,140.7618 168.4621,142.9098 162.6171,141.6638 C161.9281,138.4798 161.5381,136.7828 161.5381,136.7828"/>
    <path fill="#52267D" d="M162.8271,141.4517 C167.7351,142.4577 170.7091,140.9997 171.3531,140.6347 C171.2771,140.1457 171.0351,138.6247 170.6961,136.7167 C166.9361,137.5797 163.0441,137.2207 161.8611,137.0777 C162.0051,137.7117 162.3381,139.1957 162.8271,141.4517 M166.1701,142.3057 C165.1121,142.3057 163.9091,142.1947 162.5651,141.9077 L162.4071,141.8747 L162.3731,141.7167 C161.6831,138.5357 161.2951,136.8397 161.2941,136.8387 L161.2121,136.4787 L161.5761,136.5357 C161.6241,136.5427 166.3791,137.2637 170.8361,136.1687 L171.0951,136.1047 L171.1411,136.3677 C171.5811,138.8207 171.8701,140.7047 171.8731,140.7227 L171.8961,140.8797 L171.7661,140.9687 C171.6641,141.0377 169.7431,142.3057 166.1701,142.3057"/>
    <path fill="#F3E3FF" d="M168.2695,131.9654 L174.9155,131.9654 L174.9155,129.1004 C174.9155,127.9404 173.9755,126.9994 172.8145,126.9994 L168.2695,126.9994 C167.5615,126.9994 166.9875,127.5734 166.9875,128.2814 L166.9875,130.6834 C166.9875,131.3914 167.5615,131.9654 168.2695,131.9654"/>
    <path fill="#FFF" d="M168.9863,131.8726 L174.8223,131.8726 L174.8223,129.9856 C174.8223,128.8726 173.9213,127.9706 172.8073,127.9706 L168.9863,127.9706 C168.4293,127.9706 167.9783,128.4216 167.9783,128.9776 L167.9783,130.8646 C167.9783,131.4216 168.4293,131.8726 168.9863,131.8726"/>
    <path fill="#52267D" d="M168.9863,128.2203 C168.5683,128.2203 168.2283,128.5603 168.2283,128.9783 L168.2283,130.8653 C168.2283,131.2833 168.5683,131.6223 168.9863,131.6223 L174.5723,131.6223 L174.5723,129.9863 C174.5723,129.0123 173.7803,128.2203 172.8073,128.2203 L168.9863,128.2203 Z M175.0723,132.1223 L168.9863,132.1223 C168.2933,132.1223 167.7283,131.5583 167.7283,130.8653 L167.7283,128.9783 C167.7283,128.2843 168.2933,127.7203 168.9863,127.7203 L172.8073,127.7203 C174.0563,127.7203 175.0723,128.7373 175.0723,129.9863 L175.0723,132.1223 Z"/>
    <path fill="#52267D" d="M173.9365,130.7164 C173.9365,131.3184 173.4485,131.8064 172.8465,131.8064 C172.2455,131.8064 171.7565,131.3184 171.7565,130.7164 C171.7565,130.1134 172.2455,129.6264 172.8465,129.6264 C173.4485,129.6264 173.9365,130.1134 173.9365,130.7164"/>
    <path fill="#F3E3FF" d="M151.8291,127.2574 L145.1831,127.2574 L145.1831,124.3924 C145.1831,123.2324 146.1231,122.2914 147.2841,122.2914 L151.8291,122.2914 C152.5371,122.2914 153.1111,122.8654 153.1111,123.5734 L153.1111,125.9754 C153.1111,126.6834 152.5371,127.2574 151.8291,127.2574"/>
    <path fill="#FFF" d="M151.1123,127.1637 L145.2763,127.1637 L145.2763,125.2767 C145.2763,124.1637 146.1783,123.2627 147.2913,123.2627 L151.1123,123.2627 C151.6693,123.2627 152.1203,123.7137 152.1203,124.2697 L152.1203,126.1567 C152.1203,126.7127 151.6693,127.1637 151.1123,127.1637"/>
    <path fill="#52267D" d="M145.5264,126.9137 L151.1124,126.9137 C151.5304,126.9137 151.8704,126.5737 151.8704,126.1567 L151.8704,124.2697 C151.8704,123.8517 151.5304,123.5127 151.1124,123.5127 L147.2914,123.5127 C146.3184,123.5127 145.5264,124.3037 145.5264,125.2767 L145.5264,126.9137 Z M151.1124,127.4137 L145.0264,127.4137 L145.0264,125.2767 C145.0264,124.0287 146.0424,123.0127 147.2914,123.0127 L151.1124,123.0127 C151.8054,123.0127 152.3704,123.5767 152.3704,124.2697 L152.3704,126.1567 C152.3704,126.8507 151.8054,127.4137 151.1124,127.4137 L151.1124,127.4137 Z"/>
    <path fill="#52267D" d="M146.1621 126.0074C146.1621 126.6104 146.6501 127.0974 147.2521 127.0974 147.8531 127.0974 148.3421 126.6104 148.3421 126.0074 148.3421 125.4054 147.8531 124.9184 147.2521 124.9184 146.6501 124.9184 146.1621 125.4054 146.1621 126.0074M181.4766 133.0982L181.4766 133.0982C181.1666 133.0322 180.8896 132.8602 180.6926 132.6132L180.3286 132.1532 181.1406 132.3272 181.6206 132.4302C181.8046 132.4692 181.9216 132.6522 181.8826 132.8362 181.8426 133.0212 181.6616 133.1382 181.4766 133.0982M139.4707 128.0025L139.4707 128.0025C139.7807 127.9365 140.0577 127.7645 140.2547 127.5165L140.6197 127.0575 139.8067 127.2315 139.3267 127.3345C139.1427 127.3735 139.0257 127.5555 139.0647 127.7395 139.1047 127.9245 139.2857 128.0425 139.4707 128.0025"/>
    <path fill="#E1F2FF" d="M150.4287,132.6939 C150.4287,132.6939 154.4867,134.4229 158.5797,132.8429 C158.1517,135.2449 157.7687,136.4699 157.7687,136.4699 C157.7687,136.4699 155.3057,136.6149 153.6747,136.2939 C151.3457,135.8349 150.4287,134.7759 150.4287,132.6939"/>
    <path fill="#FFF" d="M156.0752,135.773 C156.0752,135.773 152.3822,136.081 149.5232,134.598"/>
    <path fill="#52267D" d="M155.209,136.0514 C153.922,136.0514 151.473,135.8904 149.408,134.8204 L149.639,134.3764 C152.395,135.8054 156.016,135.5274 156.055,135.5244 L156.096,136.0224 C156.052,136.0264 155.724,136.0514 155.209,136.0514"/>
    <path fill="#E1F2FF" d="M169.1387,137.3238 C169.1387,137.3238 165.5387,138.3468 162.3627,137.7128 C162.9627,140.0768 163.2807,140.8178 163.2807,140.8178 C163.2807,140.8178 168.0437,140.1828 169.1387,137.3238"/>
    <path fill="#F3E3FF" d="M167.207,170.9029 C167.207,170.9029 166.989,171.0599 166.68,171.2469"/>
    <path fill="#52267D" d="M166.8086,171.4605 L166.5506,171.0325 C166.8476,170.8545 167.0566,170.7025 167.0606,170.6995 L167.3536,171.1065 C167.3536,171.1065 167.1286,171.2685 166.8086,171.4605"/>
    <path fill="#FFF" d="M169.4854,138.6851 C169.4854,138.6851 165.8624,139.3721 162.0154,138.9141"/>
    <path fill="#52267D" d="M164.79,139.3199 C163.902,139.3199 162.95,139.2769 161.986,139.1619 L162.045,138.6659 C165.808,139.1119 169.403,138.4469 169.438,138.4389 L169.532,138.9309 C169.505,138.9359 167.438,139.3199 164.79,139.3199"/>
    <path fill="#FFF" d="M163.5469,213.2359 C163.5469,213.2359 162.5859,212.4529 161.3089,213.5019 C160.1419,214.4609 159.2639,215.9419 159.7859,216.0909 C160.3099,216.2399 161.2309,216.3839 162.1969,216.2079 C163.0389,216.0529 163.7819,216.2149 164.1199,214.4549 C164.2769,213.6339 163.5469,213.2359 163.5469,213.2359"/>
    <path fill="#52267D" d="M162.6562,213.2057 C162.3362,213.2057 161.9272,213.3167 161.4672,213.6947 C160.4362,214.5417 159.8062,215.6497 159.8852,215.8807 C160.1212,215.9277 161.0782,216.1607 162.1522,215.9617 C162.2672,215.9397 162.3822,215.9257 162.4932,215.9097 C163.1692,215.8177 163.6152,215.7577 163.8752,214.4077 C163.9942,213.7817 163.4492,213.4677 163.4262,213.4547 L163.3902,213.4317 C163.3712,213.4157 163.0952,213.2057 162.6562,213.2057 M161.2782,216.5387 C160.5232,216.5387 159.9272,216.3917 159.7182,216.3317 C159.5492,216.2837 159.4302,216.1547 159.3942,215.9787 C159.2652,215.3607 160.2172,214.0757 161.1492,213.3087 C162.4562,212.2347 163.5122,212.9037 163.6812,213.0247 C163.9912,213.2007 164.5142,213.7237 164.3652,214.5017 C164.0392,216.2047 163.2872,216.3077 162.5602,216.4047 C162.4572,216.4197 162.3502,216.4347 162.2422,216.4537 C161.9052,216.5157 161.5792,216.5387 161.2782,216.5387"/>
    <path fill="#E1F2FF" d="M163.3281,213.5211 C163.3281,213.5211 162.7301,213.0341 161.9341,213.6871 C161.2091,214.2841 160.6621,215.2061 160.9881,215.2981 C161.3131,215.3901 161.8871,215.4811 162.4881,215.3711 C163.0121,215.2741 163.4741,215.3751 163.6841,214.2801 C163.7821,213.7691 163.3281,213.5211 163.3281,213.5211"/>
    <path fill="#FFF" d="M164.9111,213.2184 C165.4191,213.1504 166.1501,214.2534 166.0661,214.5894 C165.9831,214.9254 165.9251,216.0354 165.1031,216.1564 C164.4981,216.2454 162.3391,216.4704 161.8671,216.0014 C161.4321,215.5694 162.2831,213.5704 164.9111,213.2184"/>
    <path fill="#52267D" d="M164.957,213.4654 C164.953,213.4654 164.948,213.4654 164.944,213.4664 C163.098,213.7134 162.266,214.7834 162.066,215.3764 C161.977,215.6424 162.013,215.7934 162.044,215.8244 C162.345,216.1244 163.993,216.0674 165.067,215.9094 C165.549,215.8384 165.689,215.2684 165.783,214.7374 C165.798,214.6544 165.811,214.5824 165.823,214.5294 C165.835,214.4194 165.636,213.9924 165.318,213.6844 C165.151,213.5214 165.023,213.4654 164.957,213.4654 M163.343,216.5414 C162.657,216.5414 161.976,216.4614 161.691,216.1794 C161.489,215.9784 161.454,215.6274 161.592,215.2174 C161.91,214.2754 163.049,213.2154 164.878,212.9704 C165.227,212.9294 165.561,213.1984 165.777,213.4404 C166.039,213.7334 166.397,214.2974 166.309,214.6504 C166.298,214.6944 166.287,214.7544 166.275,214.8254 C166.192,215.2954 166.019,216.2754 165.14,216.4034 C164.983,216.4274 164.161,216.5414 163.343,216.5414"/>
    <path fill="#E1F2FF" d="M165.0537,213.524 C165.3537,213.484 165.7847,214.134 165.7357,214.333 C165.6867,214.532 165.6527,215.187 165.1667,215.258 C164.8097,215.31 163.5347,215.443 163.2577,215.167 C163.0007,214.911 163.5027,213.732 165.0537,213.524"/>
    <path fill="#FFF" d="M167.0596,213.4332 C167.0596,213.4332 166.6216,213.2042 165.7526,213.7012 C164.9856,214.1392 163.8396,214.8412 164.1416,215.7132 C164.4426,216.5852 166.8676,216.2612 167.4066,216.0772 C167.9456,215.8922 168.2836,215.3052 168.1886,214.7912 C167.9806,213.6712 167.0596,213.4332 167.0596,213.4332"/>
    <path fill="#52267D" d="M166.7578,213.6314 C166.5838,213.6314 166.2898,213.6814 165.8768,213.9174 C165.0128,214.4114 164.1588,215.0004 164.3778,215.6314 C164.5838,216.2304 166.6958,216.0564 167.3248,215.8404 C167.7348,215.6994 168.0168,215.2404 167.9428,214.8364 C167.7678,213.8964 167.0268,213.6834 166.9948,213.6744 L166.9498,213.6574 C166.9428,213.6544 166.8778,213.6314 166.7578,213.6314 M165.7208,216.5464 C164.9138,216.5464 164.1078,216.3804 163.9048,215.7944 C163.5228,214.6874 164.9458,213.8744 165.6288,213.4844 C166.4968,212.9854 167.0128,213.1424 167.1458,213.1974 C167.3088,213.2474 168.2168,213.5734 168.4348,214.7454 C168.5528,215.3914 168.1278,216.0934 167.4868,216.3134 C167.2368,216.3994 166.4798,216.5464 165.7208,216.5464"/>
    <path fill="#E1F2FF" d="M167.2246,213.7418 C167.2246,213.7418 166.9646,213.6058 166.4506,213.8998 C165.9956,214.1608 165.3186,214.5758 165.4956,215.0928 C165.6746,215.6088 167.1106,215.4168 167.4296,215.3068 C167.7486,215.1978 167.9496,214.8498 167.8926,214.5468 C167.7696,213.8838 167.2246,213.7418 167.2246,213.7418"/>
    <path fill="#9452BA" d="M156.9219,185.6197 C156.9219,185.6197 157.4159,191.2367 155.9869,200.0667 C154.6579,208.2867 152.3009,210.8647 152.4749,212.9967 C152.6089,214.6467 153.3049,216.1587 154.9609,216.1587 L159.9009,216.1587 C162.2079,216.1587 164.2419,214.6857 164.9839,212.5017 C165.5809,210.7427 166.2019,208.3487 166.5729,205.3227 C166.9529,201.2067 166.8709,197.0787 166.8039,194.6537"/>
    <path fill="#52267D" d="M159.9014,216.6588 L154.9614,216.6588 C153.2754,216.6588 152.1604,215.3048 151.9764,213.0368 C151.8934,212.0198 152.2854,211.0078 152.8794,209.4728 C153.6624,207.4478 154.7354,204.6748 155.4944,199.9868 C156.8944,191.3318 156.4284,185.7198 156.4234,185.6638 L157.4204,185.5758 C157.4244,185.6328 157.9034,191.3568 156.4804,200.1468 C155.7064,204.9378 154.5664,207.8848 153.8114,209.8348 C153.2674,211.2398 152.9084,212.1678 152.9724,212.9558 C153.0544,213.9658 153.4224,215.6588 154.9614,215.6588 L159.9014,215.6588 C161.9844,215.6588 163.8374,214.3258 164.5094,212.3408 C165.2354,210.2058 165.7624,207.8238 166.0774,205.2628 C166.4314,201.4138 166.3844,197.5778 166.3034,194.6678 L167.3034,194.6398 C167.3844,197.5778 167.4324,201.4528 167.0714,205.3688 C166.7474,208.0128 166.2044,210.4628 165.4574,212.6628 C164.6454,215.0528 162.4134,216.6588 159.9014,216.6588"/>
    <path fill="#9452BA" d="M182.2539,189.3355 C180.6169,190.7445 179.7689,193.0515 179.7809,195.1705 C179.7989,198.0005 181.4409,201.6035 180.3999,206.3055 C179.4729,210.4945 177.6269,211.2335 178.1839,214.9915 C178.2829,215.6705 178.8929,216.1585 179.5779,216.1585 L185.0839,216.1585 C187.6179,216.1585 189.7869,214.3205 190.2009,211.8215 C191.3079,205.1465 190.4629,198.8455 189.5729,194.0105"/>
    <path fill="#52267D" d="M185.084,216.6588 L179.578,216.6588 C178.635,216.6588 177.822,215.9728 177.688,215.0638 C177.332,212.6548 177.925,211.3628 178.611,209.8658 C179.054,208.9028 179.554,207.8118 179.911,206.1968 C180.577,203.1898 180.111,200.6568 179.7,198.4218 C179.488,197.2678 179.287,196.1788 179.281,195.1738 C179.267,192.7568 180.281,190.3748 181.928,188.9568 L182.58,189.7148 C181.149,190.9458 180.269,193.0358 180.281,195.1678 C180.287,196.0838 180.48,197.1318 180.684,198.2408 C181.091,200.4538 181.598,203.2078 180.888,206.4138 C180.508,208.1318 179.983,209.2748 179.521,210.2828 C178.85,211.7458 178.364,212.8028 178.678,214.9188 C178.74,215.3408 179.127,215.6588 179.578,215.6588 L185.084,215.6588 C187.387,215.6588 189.332,214.0108 189.708,211.7398 C190.808,205.1018 189.951,198.8268 189.081,194.1008 L190.065,193.9198 C190.949,198.7248 191.82,205.1128 190.694,211.9038 C190.238,214.6588 187.878,216.6588 185.084,216.6588"/>
    <polygon fill="#52267D" points="183.551 196.46 181.912 195.653 183.573 194.325 184.299 194.569 184.219 194.805 183.622 194.607 182.375 195.602 183.535 196.173 184.385 195.631 183.687 195.474 183.408 195.673 183.262 195.47 183.632 195.206 185.026 195.519"/>
    <path fill="#FFF" d="M153.5537,213.2359 C153.5537,213.2359 152.5917,212.4529 151.3147,213.5019 C150.1477,214.4609 149.2697,215.9419 149.7917,216.0909 C150.3157,216.2399 151.2367,216.3839 152.2037,216.2079 C153.0447,216.0529 153.7887,216.2149 154.1257,214.4549 C154.2827,213.6339 153.5537,213.2359 153.5537,213.2359"/>
    <path fill="#52267D" d="M152.6621,213.2057 C152.3421,213.2057 151.9331,213.3167 151.4731,213.6947 C150.4421,214.5417 149.8121,215.6497 149.8911,215.8807 C150.1271,215.9277 151.0791,216.1627 152.1591,215.9617 C152.2741,215.9397 152.3891,215.9257 152.5001,215.9097 C153.1761,215.8177 153.6221,215.7577 153.8811,214.4077 C154.0021,213.7737 153.4391,213.4587 153.4331,213.4557 L153.3961,213.4307 C153.3731,213.4117 153.0991,213.2057 152.6621,213.2057 M151.2851,216.5387 C150.5291,216.5387 149.9331,216.3917 149.7241,216.3317 C149.5551,216.2837 149.4361,216.1547 149.4001,215.9787 C149.2711,215.3607 150.2231,214.0757 151.1551,213.3087 C152.4601,212.2357 153.5191,212.9047 153.6881,213.0247 C153.9981,213.2007 154.5201,213.7237 154.3711,214.5017 C154.0461,216.2047 153.2941,216.3077 152.5671,216.4047 C152.4631,216.4197 152.3571,216.4347 152.2491,216.4537 C151.9121,216.5157 151.5861,216.5387 151.2851,216.5387"/>
    <path fill="#E1F2FF" d="M153.334,213.5211 C153.334,213.5211 152.736,213.0341 151.941,213.6871 C151.215,214.2841 150.669,215.2061 150.994,215.2981 C151.319,215.3901 151.893,215.4811 152.494,215.3711 C153.018,215.2741 153.48,215.3751 153.69,214.2801 C153.789,213.7691 153.334,213.5211 153.334,213.5211"/>
    <polygon fill="#52267D" points="161.472 201.389 161.41 201.385 159.293 201.231 159.003 199.202 161.074 198.558 161.148 198.796 159.281 199.378 159.512 200.996 161.365 201.131 162.162 200.21 161.135 199.641 160.377 199.861 160.879 200.418 160.694 200.586 159.926 199.732 161.164 199.371 162.553 200.142"/>
    <path fill="#FFF" d="M154.917,213.2184 C155.425,213.1504 156.156,214.2534 156.073,214.5894 C155.989,214.9254 155.932,216.0354 155.11,216.1564 C154.504,216.2454 152.345,216.4704 151.873,216.0014 C151.438,215.5694 152.29,213.5704 154.917,213.2184"/>
    <path fill="#52267D" d="M154.9629,213.4654 C154.9589,213.4654 154.9539,213.4654 154.9499,213.4664 C153.1039,213.7134 152.2729,214.7834 152.0719,215.3774 C151.9829,215.6434 152.0189,215.7934 152.0499,215.8244 C152.3519,216.1254 154.0009,216.0674 155.0739,215.9094 C155.5549,215.8384 155.6949,215.2694 155.7889,214.7404 C155.8039,214.6554 155.8169,214.5824 155.8309,214.5284 C155.8419,214.4194 155.6419,213.9914 155.3229,213.6834 C155.1569,213.5214 155.0289,213.4654 154.9629,213.4654 M153.3499,216.5414 C152.6629,216.5414 151.9809,216.4614 151.6969,216.1794 C151.4959,215.9784 151.4599,215.6284 151.5989,215.2174 C151.9159,214.2754 153.0549,213.2154 154.8839,212.9704 C155.2299,212.9304 155.5659,213.1984 155.7809,213.4384 C156.0439,213.7314 156.4029,214.2954 156.3169,214.6494 C156.3049,214.6954 156.2939,214.7564 156.2809,214.8284 C156.1979,215.2974 156.0249,216.2754 155.1469,216.4034 C154.9899,216.4274 154.1669,216.5414 153.3499,216.5414"/>
    <path fill="#E1F2FF" d="M155.0596,213.524 C155.3596,213.484 155.7906,214.134 155.7416,214.333 C155.6926,214.532 155.6586,215.187 155.1726,215.258 C154.8166,215.31 153.5416,215.443 153.2636,215.167 C153.0066,214.911 153.5086,213.732 155.0596,213.524"/>
    <path fill="#FFF" d="M156.7217,213.7613 C156.7217,213.7613 156.3337,213.5583 155.5657,213.9973 C154.8867,214.3863 153.8737,215.0063 154.1407,215.7783 C154.4077,216.5493 156.5507,216.2623 157.0277,216.0993 C157.5037,215.9363 157.8037,215.4173 157.7197,214.9623 C157.5357,213.9723 156.7217,213.7613 156.7217,213.7613"/>
    <path fill="#52267D" d="M156.4551,213.9654 C156.3061,213.9654 156.0511,214.0084 155.6891,214.2144 C154.9361,214.6464 154.1911,215.1594 154.3771,215.6954 C154.5521,216.2014 156.4121,216.0464 156.9461,215.8624 C157.2961,215.7424 157.5371,215.3524 157.4741,215.0074 C157.3211,214.1844 156.6661,214.0054 156.6591,214.0034 L156.6121,213.9864 C156.6011,213.9824 156.5491,213.9654 156.4551,213.9654 M155.5451,216.5414 C154.8191,216.5414 154.0881,216.3904 153.9041,215.8604 C153.5591,214.8594 154.8301,214.1304 155.4411,213.7804 C156.2131,213.3384 156.6831,213.4754 156.8081,213.5264 C156.9601,213.5724 157.7711,213.8674 157.9661,214.9164 C158.0731,215.5004 157.6881,216.1374 157.1081,216.3354 C156.8871,216.4114 156.2181,216.5414 155.5451,216.5414"/>
    <path fill="#E1F2FF" d="M156.8672,214.0338 C156.8672,214.0338 156.6382,213.9148 156.1822,214.1748 C155.7812,214.4038 155.1802,214.7718 155.3392,215.2278 C155.4972,215.6848 156.7662,215.5148 157.0492,215.4188 C157.3312,215.3218 157.5082,215.0148 157.4582,214.7458 C157.3492,214.1588 156.8672,214.0338 156.8672,214.0338"/>
    <path fill="#FFF" d="M136.4424,213.9752 C136.4424,213.9752 136.0544,213.7722 135.2874,214.2112 C134.6084,214.6002 133.5954,215.2202 133.8624,215.9922 C134.1294,216.7632 136.2724,216.4762 136.7494,216.3132 C137.2254,216.1502 137.5254,215.6312 137.4404,215.1762 C137.2564,214.1862 136.4424,213.9752 136.4424,213.9752"/>
    <path fill="#52267D" d="M136.1758,214.1793 C136.0268,214.1793 135.7728,214.2223 135.4108,214.4283 C134.6578,214.8603 133.9128,215.3733 134.0988,215.9093 C134.2738,216.4153 136.1348,216.2603 136.6678,216.0763 C137.0178,215.9563 137.2588,215.5663 137.1948,215.2223 C137.0418,214.3983 136.3868,214.2193 136.3798,214.2173 L136.3328,214.2003 C136.3218,214.1963 136.2708,214.1793 136.1758,214.1793 M135.2668,216.7553 C134.5408,216.7553 133.8098,216.6043 133.6258,216.0743 C133.2798,215.0733 134.5518,214.3443 135.1628,213.9943 C135.9348,213.5533 136.4038,213.6883 136.5288,213.7403 C136.6798,213.7863 137.4918,214.0813 137.6868,215.1303 C137.7948,215.7143 137.4108,216.3513 136.8298,216.5493 C136.6088,216.6253 135.9398,216.7553 135.2668,216.7553"/>
    <path fill="#E1F2FF" d="M136.5889,214.2476 C136.5889,214.2476 136.3599,214.1286 135.9039,214.3886 C135.5019,214.6186 134.9019,214.9856 135.0609,215.4416 C135.2179,215.8986 136.4869,215.7286 136.7699,215.6326 C137.0519,215.5356 137.2299,215.2286 137.1799,214.9596 C137.0699,214.3726 136.5889,214.2476 136.5889,214.2476"/>
    <path fill="#FFF" d="M138.7881,213.4322 C139.2961,213.3642 140.0271,214.4672 139.9441,214.8032 C139.8601,215.1392 139.8031,216.2492 138.9811,216.3702 C138.3751,216.4592 136.2161,216.6842 135.7441,216.2152 C135.3091,215.7832 136.1611,213.7842 138.7881,213.4322"/>
    <path fill="#52267D" d="M138.834,213.6793 C138.83,213.6793 138.825,213.6793 138.821,213.6803 C136.975,213.9273 136.144,214.9973 135.943,215.5913 C135.854,215.8573 135.89,216.0073 135.921,216.0383 C136.224,216.3383 137.873,216.2823 138.945,216.1233 C139.426,216.0523 139.566,215.4833 139.66,214.9543 C139.675,214.8693 139.688,214.7963 139.702,214.7423 C139.713,214.6333 139.513,214.2053 139.194,213.8973 C139.028,213.7353 138.9,213.6793 138.834,213.6793 M137.221,216.7553 C136.534,216.7553 135.852,216.6753 135.568,216.3933 C135.367,216.1923 135.331,215.8423 135.47,215.4313 C135.787,214.4893 136.926,213.4293 138.755,213.1843 C139.105,213.1483 139.438,213.4123 139.652,213.6523 C139.915,213.9453 140.274,214.5093 140.188,214.8633 C140.176,214.9093 140.165,214.9703 140.152,215.0423 C140.069,215.5113 139.896,216.4893 139.018,216.6173 C138.861,216.6413 138.038,216.7553 137.221,216.7553"/>
    <path fill="#E1F2FF" d="M138.9307,213.7379 C139.2307,213.6979 139.6617,214.3479 139.6127,214.5469 C139.5637,214.7459 139.5297,215.4009 139.0437,215.4719 C138.6877,215.5239 137.4127,215.6569 137.1347,215.3809 C136.8777,215.1249 137.3797,213.9459 138.9307,213.7379"/>
    <path fill="#FFF" d="M180.2832,213.2359 C180.2832,213.2359 179.3212,212.4529 178.0442,213.5019 C176.8772,214.4609 175.9992,215.9419 176.5222,216.0909 C177.0452,216.2399 177.9662,216.3839 178.9332,216.2079 C179.7742,216.0529 180.5182,216.2149 180.8552,214.4549 C181.0122,213.6339 180.2832,213.2359 180.2832,213.2359"/>
    <path fill="#52267D" d="M179.3916,213.2057 C179.0716,213.2057 178.6626,213.3167 178.2026,213.6947 C177.1706,214.5427 176.5416,215.6487 176.6206,215.8807 C176.8586,215.9277 177.8096,216.1627 178.8886,215.9617 C179.0036,215.9397 179.1186,215.9257 179.2296,215.9097 C179.9056,215.8177 180.3516,215.7577 180.6106,214.4077 C180.7316,213.7737 180.1686,213.4587 180.1626,213.4557 L180.1256,213.4307 C180.1026,213.4117 179.8286,213.2057 179.3916,213.2057 M178.0136,216.5387 C177.2586,216.5387 176.6626,216.3917 176.4536,216.3317 C176.2856,216.2837 176.1666,216.1547 176.1296,215.9787 C176.0016,215.3607 176.9526,214.0757 177.8846,213.3087 C179.1896,212.2357 180.2476,212.9047 180.4176,213.0247 C180.7276,213.2007 181.2496,213.7237 181.1006,214.5017 C180.7756,216.2047 180.0236,216.3077 179.2966,216.4047 C179.1926,216.4197 179.0866,216.4347 178.9786,216.4537 C178.6416,216.5157 178.3146,216.5387 178.0136,216.5387"/>
    <path fill="#E1F2FF" d="M180.0635,213.5211 C180.0635,213.5211 179.4655,213.0341 178.6705,213.6871 C177.9445,214.2841 177.3985,215.2061 177.7235,215.2981 C178.0485,215.3901 178.6225,215.4811 179.2235,215.3711 C179.7485,215.2741 180.2095,215.3751 180.4205,214.2801 C180.5185,213.7691 180.0635,213.5211 180.0635,213.5211"/>
    <path fill="#FFF" d="M181.6475,213.2184 C182.1555,213.1504 182.8855,214.2534 182.8025,214.5894 C182.7185,214.9254 182.6615,216.0354 181.8395,216.1564 C181.2345,216.2454 179.0745,216.4704 178.6035,216.0014 C178.1685,215.5694 179.0195,213.5704 181.6475,213.2184"/>
    <path fill="#52267D" d="M181.6934,213.4654 C181.6894,213.4654 181.6844,213.4654 181.6804,213.4664 C179.8344,213.7134 179.0024,214.7834 178.8024,215.3764 C178.7134,215.6424 178.7484,215.7934 178.7804,215.8244 C179.0834,216.1254 180.7294,216.0674 181.8034,215.9094 C182.2844,215.8384 182.4244,215.2694 182.5184,214.7404 C182.5334,214.6554 182.5474,214.5824 182.5604,214.5284 C182.5714,214.4194 182.3714,213.9914 182.0534,213.6834 C181.8874,213.5214 181.7594,213.4654 181.6934,213.4654 M180.0794,216.5414 C179.3924,216.5414 178.7114,216.4614 178.4264,216.1784 C178.2254,215.9784 178.1904,215.6274 178.3294,215.2174 C178.6464,214.2754 179.7854,213.2154 181.6144,212.9704 C181.9624,212.9304 182.2964,213.1974 182.5104,213.4374 C182.7734,213.7304 183.1324,214.2954 183.0464,214.6494 C183.0344,214.6954 183.0234,214.7564 183.0104,214.8284 C182.9274,215.2974 182.7544,216.2754 181.8764,216.4034 C181.7194,216.4274 180.8964,216.5414 180.0794,216.5414"/>
    <path fill="#E1F2FF" d="M181.7891,213.524 C182.0891,213.484 182.5201,214.134 182.4711,214.333 C182.4221,214.532 182.3881,215.187 181.9031,215.258 C181.5461,215.31 180.2711,215.443 179.9931,215.167 C179.7361,214.911 180.2381,213.732 181.7891,213.524"/>
    <path fill="#FFF" d="M183.4512,213.7613 C183.4512,213.7613 183.0632,213.5583 182.2952,213.9973 C181.6162,214.3863 180.6032,215.0063 180.8702,215.7783 C181.1372,216.5493 183.2802,216.2623 183.7582,216.0993 C184.2342,215.9363 184.5332,215.4173 184.4492,214.9623 C184.2652,213.9723 183.4512,213.7613 183.4512,213.7613"/>
    <path fill="#52267D" d="M183.1846,213.9654 C183.0356,213.9654 182.7806,214.0084 182.4186,214.2144 C181.6656,214.6464 180.9206,215.1594 181.1066,215.6954 C181.2816,216.1984 183.1436,216.0444 183.6766,215.8624 C184.0256,215.7434 184.2666,215.3524 184.2036,215.0074 C184.0506,214.1844 183.3956,214.0054 183.3886,214.0034 L183.3416,213.9864 C183.3306,213.9824 183.2786,213.9654 183.1846,213.9654 M182.2756,216.5404 C181.5496,216.5404 180.8176,216.3904 180.6336,215.8604 C180.2886,214.8594 181.5596,214.1304 182.1706,213.7804 C182.9426,213.3384 183.4126,213.4754 183.5376,213.5264 C183.6896,213.5724 184.5006,213.8674 184.6956,214.9164 C184.8026,215.5004 184.4186,216.1374 183.8386,216.3354 C183.6176,216.4114 182.9496,216.5404 182.2756,216.5404"/>
    <path fill="#E1F2FF" d="M183.5967,214.0338 C183.5967,214.0338 183.3677,213.9148 182.9117,214.1748 C182.5107,214.4038 181.9107,214.7718 182.0687,215.2278 C182.2267,215.6848 183.4957,215.5148 183.7787,215.4188 C184.0607,215.3218 184.2377,215.0148 184.1877,214.7458 C184.0787,214.1588 183.5967,214.0338 183.5967,214.0338"/>
    <path fill="#FFF" d="M145.458,213.9068 C145.616,213.7728 145.807,213.7358 145.963,213.8088 C146.546,214.0848 148.02,214.8668 147.716,215.9258 C147.479,216.7508 146.975,216.5028 146.012,216.5198 L145.285,216.5338 C145.135,216.5368 145.002,216.4588 144.919,216.3208 C144.501,215.6228 144.728,214.5238 145.407,213.9498 L145.458,213.9068 Z"/>
    <path fill="#52267D" d="M146.1143,216.2691 C146.2823,216.2691 146.4353,216.2761 146.5763,216.2821 C147.2043,216.3121 147.3473,216.3011 147.4753,215.8561 C147.7083,215.0471 146.5603,214.3681 145.8563,214.0351 C145.7903,214.0041 145.7023,214.0281 145.6193,214.0971 L145.5683,214.1401 C144.9803,214.6381 144.7763,215.5961 145.1343,216.1931 C145.1583,216.2341 145.2363,216.2841 145.2803,216.2841 L146.0073,216.2701 C146.0443,216.2691 146.0793,216.2691 146.1143,216.2691 M146.8743,216.7911 C146.7703,216.7911 146.6633,216.7871 146.5533,216.7821 C146.3923,216.7751 146.2093,216.7641 146.0163,216.7701 L145.2903,216.7841 L145.2773,216.7841 C145.0453,216.7841 144.8313,216.6601 144.7053,216.4501 C144.2233,215.6451 144.4703,214.4141 145.2463,213.7581 L145.2973,213.7161 C145.5303,213.5191 145.8243,213.4691 146.0693,213.5821 C147.5343,214.2751 148.2043,215.1311 147.9563,215.9951 C147.7573,216.6861 147.3563,216.7911 146.8743,216.7911"/>
    <path fill="#E1F2FF" d="M145.5322,214.1441 C145.6482,214.0461 145.7862,214.0191 145.9002,214.0731 C146.3242,214.2731 147.3942,214.8411 147.1732,215.6111 C147.0012,216.2101 146.6352,216.0301 145.9352,216.0421 L145.4072,216.0521 C145.2982,216.0541 145.2012,215.9981 145.1412,215.8981 C144.8382,215.3901 145.0022,214.5921 145.4962,214.1751 L145.5322,214.1441 Z"/>
    <path fill="#FFF" d="M142.0479,213.5904 C142.0479,213.5904 141.1569,212.7294 139.7949,213.6654 C138.5509,214.5224 137.5499,215.9234 138.0589,216.1164 C138.5679,216.3094 139.4729,216.5314 140.4509,216.4374 C141.3029,216.3554 142.0289,216.5794 142.5159,214.8544 C142.7419,214.0504 142.0479,213.5904 142.0479,213.5904"/>
    <path fill="#52267D" d="M141.0439,213.4801 C140.7419,213.4801 140.3689,213.5751 139.9369,213.8721 C138.8369,214.6281 138.1159,215.6781 138.1739,215.9151 C138.4069,215.9821 139.3399,216.3011 140.4269,216.1881 C140.5439,216.1771 140.6589,216.1711 140.7719,216.1661 C141.4519,216.1321 141.9019,216.1101 142.2749,214.7871 C142.4479,214.1731 141.9309,213.8131 141.9079,213.7981 L141.8749,213.7711 C141.8559,213.7531 141.5549,213.4801 141.0439,213.4801 M139.9809,216.7091 C139.0049,216.7091 138.2149,216.4431 137.9699,216.3501 C137.8059,216.2881 137.6989,216.1501 137.6779,215.9721 C137.6019,215.3451 138.6579,214.1451 139.6529,213.4591 C141.0479,212.5011 142.0409,213.2571 142.1999,213.3911 C142.4939,213.5941 142.9709,214.1601 142.7559,214.9211 C142.2859,216.5911 141.5279,216.6281 140.7959,216.6651 C140.6909,216.6701 140.5839,216.6751 140.4759,216.6861 C140.3069,216.7031 140.1409,216.7091 139.9809,216.7091"/>
    <path fill="#E1F2FF" d="M141.8057,213.857 C141.8057,213.857 141.2507,213.32 140.4037,213.904 C139.6287,214.436 139.0067,215.308 139.3237,215.428 C139.6397,215.548 140.2027,215.687 140.8117,215.628 C141.3417,215.577 141.7937,215.716 142.0967,214.643 C142.2377,214.142 141.8057,213.857 141.8057,213.857"/>
    <path fill="#FFF" d="M19.9775,216.5328 L55.9775,216.5328"/>
    <path fill="#5E63B6" d="M55.9775,217.5328 L19.9775,217.5328 C19.4245,217.5328 18.9775,217.0858 18.9775,216.5328 C18.9775,215.9798 19.4245,215.5328 19.9775,215.5328 L55.9775,215.5328 C56.5305,215.5328 56.9775,215.9798 56.9775,216.5328 C56.9775,217.0858 56.5305,217.5328 55.9775,217.5328"/>
    <path fill="#FFF" d="M195.3193,216.5328 L239.3193,216.5328"/>
    <path fill="#5E63B6" d="M239.3193,217.5328 L195.3193,217.5328 C194.7663,217.5328 194.3193,217.0858 194.3193,216.5328 C194.3193,215.9798 194.7663,215.5328 195.3193,215.5328 L239.3193,215.5328 C239.8723,215.5328 240.3193,215.9798 240.3193,216.5328 C240.3193,217.0858 239.8723,217.5328 239.3193,217.5328"/>
    <path fill="#FFF" d="M188.8281,217.5328 L64.6941,217.5328 C63.4491,217.5328 62.4391,216.5228 62.4391,215.2778 L62.4391,33.2548 C62.4391,32.0098 63.4491,30.9998 64.6941,30.9998 L188.8281,30.9998 C190.0731,30.9998 191.0831,32.0098 191.0831,33.2548 L191.0831,215.2778 C191.0831,216.5228 190.0731,217.5328 188.8281,217.5328"/>
    <path fill="#5E63B6" d="M64.6943 32.0001C64.0023 32.0001 63.4393 32.5631 63.4393 33.2551L63.4393 215.2781C63.4393 215.9701 64.0023 216.5331 64.6943 216.5331L188.8283 216.5331C189.5203 216.5331 190.0833 215.9701 190.0833 215.2781L190.0833 33.2551C190.0833 32.5631 189.5203 32.0001 188.8283 32.0001L64.6943 32.0001zM188.8283 218.5331L64.6943 218.5331C62.8993 218.5331 61.4393 217.0731 61.4393 215.2781L61.4393 33.2551C61.4393 31.4601 62.8993 30.0001 64.6943 30.0001L188.8283 30.0001C190.6233 30.0001 192.0833 31.4601 192.0833 33.2551L192.0833 215.2781C192.0833 217.0731 190.6233 218.5331 188.8283 218.5331L188.8283 218.5331zM206.9775 71.5416C206.4245 71.5416 205.9775 71.0936 205.9775 70.5416L205.9775 63.5416C205.9775 62.9896 206.4245 62.5416 206.9775 62.5416 207.5305 62.5416 207.9775 62.9896 207.9775 63.5416L207.9775 70.5416C207.9775 71.0936 207.5305 71.5416 206.9775 71.5416"/>
    <path fill="#5E63B6" d="M210.4775 68.0416L203.4775 68.0416C202.9245 68.0416 202.4775 67.5936 202.4775 67.0416 202.4775 66.4896 202.9245 66.0416 203.4775 66.0416L210.4775 66.0416C211.0305 66.0416 211.4775 66.4896 211.4775 67.0416 211.4775 67.5936 211.0305 68.0416 210.4775 68.0416M42.7275 188.2603C42.4515 188.2603 42.2275 188.0363 42.2275 187.7603L42.2275 183.8233C42.2275 183.5463 42.4515 183.3233 42.7275 183.3233 43.0035 183.3233 43.2275 183.5463 43.2275 183.8233L43.2275 187.7603C43.2275 188.0363 43.0035 188.2603 42.7275 188.2603"/>
    <path fill="#5E63B6" d="M44.6963 186.2916L40.7583 186.2916C40.4823 186.2916 40.2593 186.0676 40.2593 185.7916 40.2593 185.5156 40.4823 185.2916 40.7583 185.2916L44.6963 185.2916C44.9723 185.2916 45.1963 185.5156 45.1963 185.7916 45.1963 186.0676 44.9723 186.2916 44.6963 186.2916M217.7275 128.2603C217.4515 128.2603 217.2275 128.0363 217.2275 127.7603L217.2275 123.8233C217.2275 123.5463 217.4515 123.3233 217.7275 123.3233 218.0035 123.3233 218.2275 123.5463 218.2275 123.8233L218.2275 127.7603C218.2275 128.0363 218.0035 128.2603 217.7275 128.2603"/>
    <path fill="#5E63B6" d="M219.6963 126.2916L215.7583 126.2916C215.4823 126.2916 215.2593 126.0676 215.2593 125.7916 215.2593 125.5156 215.4823 125.2916 215.7583 125.2916L219.6963 125.2916C219.9723 125.2916 220.1963 125.5156 220.1963 125.7916 220.1963 126.0676 219.9723 126.2916 219.6963 126.2916M48.7275 88.2603C48.4515 88.2603 48.2275 88.0363 48.2275 87.7603L48.2275 83.8233C48.2275 83.5463 48.4515 83.3233 48.7275 83.3233 49.0035 83.3233 49.2275 83.5463 49.2275 83.8233L49.2275 87.7603C49.2275 88.0363 49.0035 88.2603 48.7275 88.2603"/>
    <path fill="#5E63B6" d="M50.6963,86.2916 L46.7583,86.2916 C46.4823,86.2916 46.2593,86.0676 46.2593,85.7916 C46.2593,85.5156 46.4823,85.2916 46.7583,85.2916 L50.6963,85.2916 C50.9723,85.2916 51.1963,85.5156 51.1963,85.7916 C51.1963,86.0676 50.9723,86.2916 50.6963,86.2916"/>
    <path fill="#FFF" d="M26.415,122.4166 L26.415,130.5416"/>
    <path fill="#5E63B6" d="M26.415,131.5416 C25.862,131.5416 25.415,131.0946 25.415,130.5416 L25.415,122.4166 C25.415,121.8646 25.862,121.4166 26.415,121.4166 C26.968,121.4166 27.415,121.8646 27.415,122.4166 L27.415,130.5416 C27.415,131.0946 26.968,131.5416 26.415,131.5416"/>
    <path fill="#FFF" d="M30.4775,126.4791 L22.3525,126.4791"/>
    <path fill="#5E63B6" d="M30.4775,127.4791 L22.3525,127.4791 C21.7995,127.4791 21.3525,127.0321 21.3525,126.4791 C21.3525,125.9261 21.7995,125.4791 22.3525,125.4791 L30.4775,125.4791 C31.0305,125.4791 31.4775,125.9261 31.4775,126.4791 C31.4775,127.0321 31.0305,127.4791 30.4775,127.4791"/>
    <path fill="#FFF" d="M246.166,216.2916 L253.14,216.2916"/>
    <path fill="#5E63B6" d="M253.1396,217.2916 L246.1656,217.2916 C245.6136,217.2916 245.1656,216.8446 245.1656,216.2916 C245.1656,215.7386 245.6136,215.2916 246.1656,215.2916 L253.1396,215.2916 C253.6926,215.2916 254.1396,215.7386 254.1396,216.2916 C254.1396,216.8446 253.6926,217.2916 253.1396,217.2916"/>
    <path fill="#FFF" d="M3,216.2916 L11.973,216.2916"/>
    <path fill="#5E63B6" d="M11.9727,217.2916 L2.9997,217.2916 C2.4477,217.2916 1.9997,216.8446 1.9997,216.2916 C1.9997,215.7386 2.4477,215.2916 2.9997,215.2916 L11.9727,215.2916 C12.5257,215.2916 12.9727,215.7386 12.9727,216.2916 C12.9727,216.8446 12.5257,217.2916 11.9727,217.2916"/>
    <path fill="#FFF" d="M95.3818,225.608 L162.5688,225.608"/>
    <path fill="#5E63B6" d="M162.5684,226.608 L95.3814,226.608 C94.8294,226.608 94.3814,226.161 94.3814,225.608 C94.3814,225.055 94.8294,224.608 95.3814,224.608 L162.5684,224.608 C163.1214,224.608 163.5684,225.055 163.5684,225.608 C163.5684,226.161 163.1214,226.608 162.5684,226.608"/>
    <path fill="#FFF" d="M171.1865,225.608 L180.3285,225.608"/>
    <path fill="#5E63B6" d="M180.3281,226.608 L171.1861,226.608 C170.6341,226.608 170.1861,226.161 170.1861,225.608 C170.1861,225.055 170.6341,224.608 171.1861,224.608 L180.3281,224.608 C180.8811,224.608 181.3281,225.055 181.3281,225.608 C181.3281,226.161 180.8811,226.608 180.3281,226.608"/>
    <path fill="#FFF" d="M87.5,225.5328 L82.5,225.6078"/>
    <path fill="#5E63B6" d="M82.5,226.608 C81.954,226.608 81.509,226.171 81.5,225.623 C81.492,225.071 81.933,224.617 82.485,224.608 L87.485,224.533 L87.5,224.533 C88.046,224.533 88.491,224.97 88.5,225.518 C88.508,226.07 88.067,226.524 87.515,226.533 L82.515,226.608 L82.5,226.608 Z"/>
    <path fill="#E1F2FF" d="M157.1641,113.8707 C157.1641,132.3337 142.1971,147.3007 123.7341,147.3007 C105.2711,147.3007 90.3041,132.3337 90.3041,113.8707 C90.3041,95.4077 105.2711,80.4407 123.7341,80.4407 C142.1971,80.4407 157.1641,95.4077 157.1641,113.8707"/>
    <path fill="#FFF" d="M161.2187,107.1124 C161.2187,125.5754 146.2517,140.5424 127.7887,140.5424 C109.3257,140.5424 94.3597,125.5754 94.3597,107.1124 C94.3597,88.6494 109.3257,73.6824 127.7887,73.6824 C146.2517,73.6824 161.2187,88.6494 161.2187,107.1124"/>
    <path fill="#5E63B6" d="M102.0879,87.3326 L100.5039,86.1116 C107.0819,77.5776 117.0259,72.6826 127.7889,72.6826 C134.5279,72.6826 141.0569,74.6296 146.6669,78.3146 L145.5689,79.9866 C140.2859,76.5166 134.1379,74.6826 127.7889,74.6826 C117.6519,74.6826 108.2839,79.2926 102.0879,87.3326 L102.0879,87.3326 Z M130.3929,141.4446 L130.2439,139.4506 C147.0519,138.1936 160.2189,123.9896 160.2189,107.1126 C160.2189,97.8996 156.2789,89.0896 149.4099,82.9406 L150.7439,81.4506 C158.0359,87.9786 162.2189,97.3326 162.2189,107.1126 C162.2189,125.0306 148.2389,140.1106 130.3929,141.4446 L130.3929,141.4446 Z M125.2529,141.4496 C107.3679,140.1466 93.3589,125.0636 93.3589,107.1126 C93.3589,100.1786 95.4119,93.4936 99.2949,87.7796 L100.9489,88.9036 C97.2919,94.2846 95.3589,100.5816 95.3589,107.1126 C95.3589,124.0206 108.5539,138.2286 125.3979,139.4556 L125.2529,141.4496 Z"/>
    <path fill="#9452BA" d="M136.5156,122.0689 C136.6576,122.4859 136.7806,122.7699 136.8176,122.8639 C136.8286,122.8739 136.8056,122.8589 136.8176,122.8639 C136.8176,122.8639 136.8176,122.8669 136.8176,122.8639 C136.8186,122.8659 136.8156,122.8639 136.8156,122.8639 C135.8716,113.7529 141.0376,109.9569 142.6996,103.9049 C142.7066,103.8149 142.7246,103.7169 142.7516,103.6069 C142.7866,103.4719 142.8146,103.3319 142.8346,103.1929 C143.0816,101.5179 142.3956,99.5689 141.0956,97.5399 C141.0906,97.5279 141.0816,97.5179 141.0766,97.5069 C140.9696,97.3379 140.8546,97.1699 140.7406,97.0009 C140.7406,97.0009 140.7356,96.9979 140.7356,96.9939 C140.5226,96.6859 140.2936,96.3749 140.0546,96.0629 C140.0306,96.0309 140.0076,95.9969 139.9826,95.9649 C139.9146,95.8809 139.8456,95.7969 139.7806,95.7109 C139.7096,95.6229 139.6416,95.5339 139.5726,95.4489 C139.4996,95.3629 139.4306,95.2779 139.3596,95.1939 C139.2866,95.1049 139.2126,95.0189 139.1376,94.9299 C139.0876,94.8709 139.0326,94.8089 138.9776,94.7459 C136.9366,92.3949 134.2796,90.0709 131.5056,88.0499 C131.5056,88.0499 131.4846,88.0189 131.5056,88.0499 C131.8726,91.4789 131.9196,94.9079 131.5946,97.6489 C131.2036,100.9539 130.0196,104.8019 128.3786,108.2889 C124.5376,107.9749 120.6126,107.0849 117.5496,105.7779 C114.9906,104.6849 112.0576,102.9599 109.2536,100.9139 C109.2856,101.1989 109.3196,101.4799 109.3526,101.7649 C109.3626,101.8489 109.3746,101.9329 109.3856,102.0179 C109.4116,102.2209 109.4366,102.4219 109.4676,102.6249 C109.4796,102.7179 109.4936,102.8119 109.5086,102.9049 C109.5376,103.1089 109.5686,103.3109 109.6016,103.5119 C109.6146,103.5929 109.6276,103.6759 109.6406,103.7579 C109.6826,104.0139 109.7266,104.2679 109.7736,104.5219 C109.7756,104.5479 109.7796,104.5729 109.7856,104.5969 C109.8366,104.8919 109.8936,105.1839 109.9526,105.4759 C109.9536,105.4979 109.9606,105.5189 109.9656,105.5429 C110.0196,105.8049 110.0726,106.0629 110.1286,106.3219 C110.1406,106.3759 110.1526,106.4279 110.1626,106.4809 C110.2156,106.7169 110.2706,106.9519 110.3256,107.1869 C110.3386,107.2319 110.3506,107.2769 110.3606,107.3249 C110.4276,107.5949 110.4936,107.8649 110.5636,108.1309 C110.5656,108.1319 110.5656,108.1349 110.5656,108.1349 C110.7926,108.9899 111.0406,109.8159 111.3106,110.6079 C111.3146,110.6189 111.3186,110.6269 111.3196,110.6369 C111.7756,111.9599 112.2946,113.1789 112.8736,114.2459 C112.9596,114.3999 113.0456,114.5529 113.1336,114.7009 C113.1376,114.7069 113.1376,114.7139 113.1426,114.7189 L113.1436,114.7189 C113.2226,114.8549 113.3036,114.9879 113.3836,115.1149 L113.3866,115.1179 C113.3866,115.1179 113.3926,115.1269 113.3956,115.1319 C113.4826,115.2709 113.5716,115.4079 113.6626,115.5369 L113.6626,115.5379 C113.6756,115.5559 113.6866,115.5719 113.7006,115.5899 C113.7026,115.5899 113.7006,115.5929 113.7026,115.5939 C113.8186,115.7639 113.9396,115.9269 114.0576,116.0829 C114.0806,116.1089 114.1006,116.1339 114.1196,116.1579 C114.1256,116.1679 114.1336,116.1759 114.1406,116.1879 C114.2796,116.3619 114.4206,116.5309 114.5686,116.6889 C114.6676,116.8009 114.7716,116.9059 114.8756,117.0099 C114.9196,117.0539 114.9656,117.0939 115.0096,117.1349 C115.0756,117.1969 115.1406,117.2549 115.2056,117.3139 C115.2546,117.3569 115.3056,117.3949 115.3576,117.4369 C115.4186,117.4889 115.4846,117.5389 115.5476,117.5889 C115.5986,117.6269 115.6486,117.6619 115.7016,117.6979 C115.7676,117.7459 115.8316,117.7909 115.8996,117.8359 C115.9496,117.8659 116.0016,117.8989 116.0536,117.9299 C116.1236,117.9709 116.1966,118.0099 116.2656,118.0499 C116.3146,118.0769 116.3656,118.1019 116.4126,118.1269 C116.4946,118.1649 116.5756,118.1999 116.6586,118.2359 C116.6966,118.2499 116.7396,118.2719 116.7816,118.2859 C116.9066,118.3379 117.0326,118.3789 117.1586,118.4139 C117.2436,118.4399 117.3156,118.4659 117.3846,118.4929 C123.4676,120.0989 129.3896,117.5529 136.8176,122.8639"/>
    <path fill="#E1F2FF" d="M76.8672,149.4195 C76.3302,149.4195 75.8872,148.9935 75.8692,148.4525 C75.8642,148.3025 75.5442,133.2695 90.0102,126.1945 C90.5082,125.9515 91.1042,126.1575 91.3472,126.6535 C91.5902,127.1495 91.3852,127.7485 90.8882,127.9915 C77.6092,134.4855 77.8502,147.8245 77.8682,148.3895 C77.8842,148.9405 77.4512,149.4015 76.8992,149.4195 L76.8672,149.4195 Z"/>
    <polygon fill="#E1F2FF" points="88.841 137.676 86.93 137.078 89.884 127.67 80.283 125.411 80.743 123.463 92.435 126.216"/>
    <path fill="#E1F2FF" d="M118.2461,72.6856 C117.8461,72.6856 117.4671,72.4426 117.3131,72.0466 C111.9611,58.2236 98.2401,57.3396 98.1021,57.3326 C97.5511,57.3036 97.1281,56.8326 97.1561,56.2816 C97.1841,55.7296 97.6531,55.3026 98.2081,55.3356 C98.3591,55.3436 113.3641,56.3086 119.1791,71.3236 C119.3781,71.8386 119.1221,72.4176 118.6071,72.6176 C118.4881,72.6636 118.3661,72.6856 118.2461,72.6856"/>
    <polygon fill="#E1F2FF" points="107.84 69.179 108.598 67.326 117.72 71.072 120.789 61.699 122.691 62.323 118.951 73.738"/>
    <path fill="#ACD3EF" d="M89.5107,59.9698 C89.2547,59.9698 88.9987,59.8718 88.8037,59.6768 L78.5807,49.4538 C78.1907,49.0628 78.1907,48.4298 78.5807,48.0398 C78.9717,47.6488 79.6047,47.6488 79.9947,48.0398 L90.2177,58.2628 C90.6087,58.6538 90.6087,59.2858 90.2177,59.6768 C90.0227,59.8718 89.7667,59.9698 89.5107,59.9698"/>
    <path fill="#ACD3EF" d="M79.2881 59.9698C79.0321 59.9698 78.7761 59.8718 78.5811 59.6768 78.1901 59.2858 78.1901 58.6538 78.5811 58.2628L88.8041 48.0398C89.1941 47.6488 89.8271 47.6488 90.2181 48.0398 90.6081 48.4298 90.6081 49.0628 90.2181 49.4538L79.9951 59.6768C79.8001 59.8718 79.5441 59.9698 79.2881 59.9698M170.0771 60.1578C170.0771 59.9618 170.1151 59.7768 170.1891 59.6008 170.2631 59.4258 170.3661 59.2748 170.4971 59.1468 170.6271 59.0188 170.7811 58.9178 170.9561 58.8438 171.1311 58.7698 171.3221 58.7318 171.5311 58.7318 171.7321 58.7318 171.9231 58.7698 172.1001 58.8438 172.2791 58.9178 172.4331 59.0188 172.5651 59.1468 172.6951 59.2748 172.7971 59.4258 172.8731 59.6008 172.9461 59.7768 172.9831 59.9618 172.9831 60.1578 172.9831 60.3598 172.9461 60.5468 172.8731 60.7198 172.7971 60.8918 172.6951 61.0408 172.5651 61.1688 172.4331 61.2978 172.2791 61.3968 172.1001 61.4678 171.9231 61.5388 171.7321 61.5748 171.5311 61.5748 171.3221 61.5748 171.1311 61.5388 170.9561 61.4678 170.7811 61.3968 170.6271 61.2978 170.4971 61.1688 170.3661 61.0408 170.2631 60.8918 170.1891 60.7198 170.1151 60.5468 170.0771 60.3598 170.0771 60.1578L170.0771 60.1578zM168.4121 49.6948C168.6251 49.5108 168.8561 49.3378 169.1021 49.1788 169.3491 49.0168 169.6161 48.8778 169.9041 48.7588 170.1921 48.6398 170.5041 48.5468 170.8411 48.4778 171.1761 48.4088 171.5371 48.3758 171.9231 48.3758 172.4581 48.3758 172.9421 48.4488 173.3761 48.5938 173.8091 48.7398 174.1811 48.9478 174.4901 49.2178 174.7991 49.4888 175.0381 49.8138 175.2071 50.1938 175.3771 50.5738 175.4611 50.9988 175.4611 51.4688 175.4611 51.9198 175.3961 52.3098 175.2691 52.6408 175.1411 52.9698 174.9811 53.2578 174.7891 53.5008 174.5951 53.7448 174.3831 53.9548 174.1501 54.1338 173.9191 54.3118 173.6991 54.4768 173.4921 54.6328 173.2831 54.7858 173.1031 54.9398 172.9521 55.0908 172.8001 55.2428 172.7071 55.4098 172.6711 55.5948L172.4491 56.8688 170.7641 56.8688 170.5961 55.4258C170.5531 55.1398 170.5901 54.8918 170.7021 54.6818 170.8141 54.4698 170.9671 54.2768 171.1561 54.1018 171.3471 53.9278 171.5581 53.7578 171.7941 53.5938 172.0281 53.4298 172.2471 53.2558 172.4531 53.0688 172.6581 52.8818 172.8311 52.6698 172.9701 52.4348 173.1091 52.2008 173.1811 51.9228 173.1811 51.6018 173.1811 51.2108 173.0441 50.8988 172.7741 50.6668 172.5041 50.4338 172.1451 50.3188 171.7001 50.3188 171.3731 50.3188 171.0981 50.3548 170.8751 50.4258 170.6531 50.4968 170.4621 50.5748 170.3011 50.6618 170.1391 50.7478 170.0031 50.8258 169.8901 50.8988 169.7781 50.9698 169.6711 51.0048 169.5691 51.0048 169.3451 51.0048 169.1751 50.9078 169.0611 50.7098L168.4121 49.6948zM78.9082 155.0162C78.9082 155.9692 78.1362 156.7422 77.1822 156.7422 76.2292 156.7422 75.4572 155.9692 75.4572 155.0162 75.4572 154.0632 76.2292 153.2902 77.1822 153.2902 78.1362 153.2902 78.9082 154.0632 78.9082 155.0162M84.167 155.0162C84.167 155.9692 83.395 156.7422 82.441 156.7422 81.488 156.7422 80.716 155.9692 80.716 155.0162 80.716 154.0632 81.488 153.2902 82.441 153.2902 83.395 153.2902 84.167 154.0632 84.167 155.0162M89.4258 155.0162C89.4258 155.9692 88.6538 156.7422 87.6998 156.7422 86.7468 156.7422 85.9748 155.9692 85.9748 155.0162 85.9748 154.0632 86.7468 153.2902 87.6998 153.2902 88.6538 153.2902 89.4258 154.0632 89.4258 155.0162"/>
    <path fill="#E1F2FF" d="M152.1113 64.2804C145.9583 64.2804 140.9513 69.2864 140.9513 75.4404 140.9513 81.5944 145.9583 86.6014 152.1113 86.6014 158.2643 86.6014 163.2713 81.5944 163.2713 75.4404 163.2713 69.2864 158.2643 64.2804 152.1113 64.2804M152.1113 88.6014C144.8543 88.6014 138.9513 82.6974 138.9513 75.4404 138.9513 68.1844 144.8543 62.2804 152.1113 62.2804 159.3683 62.2804 165.2713 68.1844 165.2713 75.4404 165.2713 82.6974 159.3683 88.6014 152.1113 88.6014M163.1367 156.7184C162.9937 156.7184 162.8497 156.6884 162.7127 156.6234 162.2127 156.3884 161.9977 155.7934 162.2327 155.2934 166.4387 146.3384 166.1027 138.2324 161.2337 131.2004 157.5817 125.9264 152.6547 123.2744 152.6047 123.2474 152.1167 122.9894 151.9307 122.3834 152.1897 121.8954 152.4487 121.4084 153.0537 121.2234 153.5417 121.4814 153.7557 121.5944 174.8567 133.1204 164.0427 156.1434 163.8727 156.5054 163.5127 156.7184 163.1367 156.7184"/>
    <polygon fill="#E1F2FF" points="158.004 146.389 159.882 145.695 163.293 154.948 172.273 150.869 173.099 152.693 162.161 157.658"/>
    <path fill="#FFF" d="M168.8984,96.4239 L179.6224,96.4239"/>
    <path fill="#E1F2FF" d="M179.6221,97.4239 L168.8981,97.4239 C168.3461,97.4239 167.8981,96.9759 167.8981,96.4239 C167.8981,95.8719 168.3461,95.4239 168.8981,95.4239 L179.6221,95.4239 C180.1751,95.4239 180.6221,95.8719 180.6221,96.4239 C180.6221,96.9759 180.1751,97.4239 179.6221,97.4239"/>
    <path fill="#FFF" d="M168.8984,100.4527 L179.6224,100.4527"/>
    <path fill="#E1F2FF" d="M179.6221,101.4527 L168.8981,101.4527 C168.3461,101.4527 167.8981,101.0047 167.8981,100.4527 C167.8981,99.9007 168.3461,99.4527 168.8981,99.4527 L179.6221,99.4527 C180.1751,99.4527 180.6221,99.9007 180.6221,100.4527 C180.6221,101.0047 180.1751,101.4527 179.6221,101.4527"/>
    <path fill="#FFF" d="M168.8984,104.482 L174.7184,104.482"/>
    <path fill="#E1F2FF" d="M174.7187,105.482 L168.8987,105.482 C168.3457,105.482 167.8987,105.034 167.8987,104.482 C167.8987,103.93 168.3457,103.482 168.8987,103.482 L174.7187,103.482 C175.2717,103.482 175.7187,103.93 175.7187,104.482 C175.7187,105.034 175.2717,105.482 174.7187,105.482"/>
    <path fill="#FFF" d="M168.8984,108.4508 L177.1694,108.4508"/>
    <path fill="#E1F2FF" d="M177.1699,109.4508 L168.8989,109.4508 C168.3459,109.4508 167.8989,109.0028 167.8989,108.4508 C167.8989,107.8988 168.3459,107.4508 168.8989,107.4508 L177.1699,107.4508 C177.7229,107.4508 178.1699,107.8988 178.1699,108.4508 C178.1699,109.0028 177.7229,109.4508 177.1699,109.4508"/>
    <path fill="#FFF" d="M168.8984,112.4801 L179.6224,112.4801"/>
    <path fill="#E1F2FF" d="M179.6221,113.4801 L168.8981,113.4801 C168.3461,113.4801 167.8981,113.0321 167.8981,112.4801 C167.8981,111.9281 168.3461,111.4801 168.8981,111.4801 L179.6221,111.4801 C180.1751,111.4801 180.6221,111.9281 180.6221,112.4801 C180.6221,113.0321 180.1751,113.4801 179.6221,113.4801"/>
    <path fill="#FFF" d="M76.6064,70.4405 L89.7274,70.4405"/>
    <path fill="#E1F2FF" d="M89.7275,71.4405 L76.6065,71.4405 C76.0535,71.4405 75.6065,70.9925 75.6065,70.4405 C75.6065,69.8885 76.0535,69.4405 76.6065,69.4405 L89.7275,69.4405 C90.2805,69.4405 90.7275,69.8885 90.7275,70.4405 C90.7275,70.9925 90.2805,71.4405 89.7275,71.4405"/>
    <path fill="#FFF" d="M76.6064,74.4698 L86.7274,74.4698"/>
    <path fill="#E1F2FF" d="M86.7275,75.4698 L76.6065,75.4698 C76.0535,75.4698 75.6065,75.0218 75.6065,74.4698 C75.6065,73.9178 76.0535,73.4698 76.6065,73.4698 L86.7275,73.4698 C87.2805,73.4698 87.7275,73.9178 87.7275,74.4698 C87.7275,75.0218 87.2805,75.4698 86.7275,75.4698"/>
    <path fill="#FFF" d="M76.6064,78.4991 L83.7274,78.4991"/>
    <path fill="#E1F2FF" d="M83.7275,79.4991 L76.6065,79.4991 C76.0535,79.4991 75.6065,79.0511 75.6065,78.4991 C75.6065,77.9471 76.0535,77.4991 76.6065,77.4991 L83.7275,77.4991 C84.2805,77.4991 84.7275,77.9471 84.7275,78.4991 C84.7275,79.0511 84.2805,79.4991 83.7275,79.4991"/>
    <path fill="#FFF" d="M76.6064,82.7623 L89.7274,82.7623"/>
    <path fill="#E1F2FF" d="M89.7275,83.7623 L76.6065,83.7623 C76.0535,83.7623 75.6065,83.3143 75.6065,82.7623 C75.6065,82.2103 76.0535,81.7623 76.6065,81.7623 L89.7275,81.7623 C90.2805,81.7623 90.7275,82.2103 90.7275,82.7623 C90.7275,83.3143 90.2805,83.7623 89.7275,83.7623"/>
    <path fill="#FFF" d="M76.6064,86.7916 L89.7274,86.7916"/>
    <path fill="#E1F2FF" d="M89.7275,87.7916 L76.6065,87.7916 C76.0535,87.7916 75.6065,87.3436 75.6065,86.7916 C75.6065,86.2396 76.0535,85.7916 76.6065,85.7916 L89.7275,85.7916 C90.2805,85.7916 90.7275,86.2396 90.7275,86.7916 C90.7275,87.3436 90.2805,87.7916 89.7275,87.7916"/>
    <path fill="#FFF" d="M76.6064,90.8209 L83.7274,90.8209"/>
    <path fill="#E1F2FF" d="M83.7275 91.8209L76.6065 91.8209C76.0535 91.8209 75.6065 91.3729 75.6065 90.8209 75.6065 90.2689 76.0535 89.8209 76.6065 89.8209L83.7275 89.8209C84.2805 89.8209 84.7275 90.2689 84.7275 90.8209 84.7275 91.3729 84.2805 91.8209 83.7275 91.8209M101.0313 174.8766L96.7043 174.8766C95.5993 174.8766 94.7043 173.9806 94.7043 172.8766L94.7043 168.5496C94.7043 167.4446 95.5993 166.5496 96.7043 166.5496L101.0313 166.5496C102.1353 166.5496 103.0313 167.4446 103.0313 168.5496L103.0313 172.8766C103.0313 173.9806 102.1353 174.8766 101.0313 174.8766M101.0313 188.4654L96.7043 188.4654C95.5993 188.4654 94.7043 187.5694 94.7043 186.4654L94.7043 182.1394C94.7043 181.0334 95.5993 180.1394 96.7043 180.1394L101.0313 180.1394C102.1353 180.1394 103.0313 181.0334 103.0313 182.1394L103.0313 186.4654C103.0313 187.5694 102.1353 188.4654 101.0313 188.4654M101.0313 202.0543L96.7043 202.0543C95.5993 202.0543 94.7043 201.1583 94.7043 200.0543L94.7043 195.7283C94.7043 194.6233 95.5993 193.7283 96.7043 193.7283L101.0313 193.7283C102.1353 193.7283 103.0313 194.6233 103.0313 195.7283L103.0313 200.0543C103.0313 201.1583 102.1353 202.0543 101.0313 202.0543"/>
    <path fill="#ACD3EF" d="M112.4971 172.1578C114.1051 171.0408 115.7001 169.8278 117.3551 168.7828 118.2231 167.9918 119.2191 167.4398 120.3411 167.1288 121.4581 166.2028 122.2831 166.4528 122.8161 167.8798 124.1781 168.9268 124.5001 171.6348 126.1641 172.2338 127.1051 172.5738 128.0351 172.1478 128.8021 171.6658 129.4211 171.2768 129.7081 170.4408 130.2891 170.0718 131.9071 169.0428 133.3381 169.7288 134.8111 170.2788 136.2691 170.8228 136.4581 171.2398 138.0611 171.1428 138.6251 171.1088 139.0531 170.4048 139.5561 170.2558 141.3561 169.7198 141.9861 170.3688 143.3711 170.8768 147.7251 172.4728 150.9761 171.2818 155.6031 170.2228 157.0151 169.8998 156.4171 167.7298 155.0061 168.0538 153.4881 168.4008 151.9191 168.9158 150.3721 169.1138 147.7211 169.4538 145.5471 168.5948 143.2371 167.7538 142.0491 167.3208 141.6541 166.8728 140.2821 166.9798 139.7361 167.0218 139.2551 167.6408 138.7771 167.8418 135.6361 169.1548 136.7441 168.5028 134.6211 167.3018 133.3931 166.6058 132.2471 166.1748 130.8531 166.6848 129.6751 167.1178 128.7571 169.3108 127.8291 169.5268 125.9871 169.9538 124.1691 165.2848 122.7661 164.5228 119.2561 162.6188 113.9451 168.4208 111.3621 170.2148 110.1811 171.0348 111.3051 172.9858 112.4971 172.1578M112.7646 199.8209C118.0606 197.0739 121.1426 196.2989 126.7296 198.6129 129.5466 199.7799 130.6466 198.3039 133.9266 198.4599 136.6456 198.5889 138.7616 199.4559 141.4646 198.4929 144.6226 197.3679 144.1086 196.3789 148.7636 196.7759 151.2266 196.9859 153.8576 197.9509 156.2696 198.5079 157.6786 198.8329 158.2806 196.6639 156.8686 196.3379 153.1086 195.4699 148.2606 193.3749 144.3656 194.5599 141.1706 195.5309 139.4446 197.0239 135.7686 196.4769 134.1866 196.2419 132.8636 196.0089 131.2336 196.1199 129.3496 196.2469 129.0336 196.6589 126.8866 195.9089 125.5856 195.4549 124.5686 194.9149 123.1566 194.7339 118.9976 194.2039 115.2216 196.0139 111.6286 197.8789 110.3436 198.5459 111.4796 200.4879 112.7646 199.8209M113.4854 185.4801C115.4374 185.3531 117.1474 184.9271 119.0564 184.4991 121.4204 183.9691 122.9864 183.5511 125.3484 184.5191 126.3844 184.9441 127.0264 185.4361 127.9184 185.8051 129.9544 186.6481 130.3034 186.3891 132.0184 185.2471 133.5814 184.2051 133.1944 183.7921 135.1844 184.8821 136.2234 185.4531 136.9884 186.5091 138.2424 186.6721 140.7934 187.0041 141.6024 184.4141 143.2944 183.1061L141.7034 183.1061C144.4754 185.8291 147.0024 184.5361 150.5834 184.4691 152.1024 184.4411 153.2744 184.6071 154.7764 184.2571 155.8634 184.0041 156.1984 182.7811 157.1494 183.5851 158.2494 184.5141 159.8484 182.9301 158.7414 181.9941 157.7464 181.1541 157.6254 181.0851 156.3554 180.6981 155.8454 180.5431 155.3714 180.8121 155.0854 181.2151 153.9104 182.8711 144.3574 182.5591 143.2944 181.5151 142.8204 181.0491 142.1884 181.1401 141.7034 181.5151 140.3424 182.5671 139.7654 184.2541 137.5564 183.8691 136.2714 183.6451 135.3944 181.7271 133.9874 181.4721 132.5394 181.2101 132.3754 181.9101 131.2274 182.3731 130.0244 182.8571 130.1024 183.4131 127.8674 182.7991 126.6684 182.4701 126.3514 181.8881 125.0174 181.6161 121.1724 180.8291 117.2714 182.9841 113.4854 183.2301 112.0484 183.3231 112.0374 185.5741 113.4854 185.4801"/>
  </g>
</svg>
