<svg width="256px" height="256px" viewBox="0 0 256 256" version="1.1" xmlns="http://www.w3.org/2000/svg" xmlns:xlink="http://www.w3.org/1999/xlink">
    <defs>
        <polygon id="path-1" points="23.5 207.528 214.5 207.5651 256 207.5651 256 0 0 0 3.2803 208.528"></polygon>
    </defs>
    <g id="Common/Illustrations/UserGroup" stroke="none" stroke-width="1" fill="none" fill-rule="evenodd">
        <path d="M20.9951,205.6784 C20.9951,148.4854 67.3591,102.1204 124.5531,102.1204 C181.7461,102.1204 228.1101,148.4854 228.1101,205.6784 L20.9951,205.6784 Z" id="Fill-13" fill="#E1F2FF"></path>
        <g id="Group">
            <mask id="mask-2" fill="white">
                <use xlink:href="#path-1"></use>
            </mask>
            <g id="Path-15"></g>
            <path d="M239.3027,65.8678 C238.7497,65.8678 238.3027,65.4208 238.3027,64.8678 L238.3027,57.8678 C238.3027,57.3148 238.7497,56.8678 239.3027,56.8678 C239.8557,56.8678 240.3027,57.3148 240.3027,57.8678 L240.3027,64.8678 C240.3027,65.4208 239.8557,65.8678 239.3027,65.8678" id="Fill-1" fill="#5E63B6" mask="url(#mask-2)"></path>
            <path d="M242.8027,62.3678 L235.8027,62.3678 C235.2497,62.3678 234.8027,61.9208 234.8027,61.3678 C234.8027,60.8148 235.2497,60.3678 235.8027,60.3678 L242.8027,60.3678 C243.3557,60.3678 243.8027,60.8148 243.8027,61.3678 C243.8027,61.9208 243.3557,62.3678 242.8027,62.3678" id="Fill-3" fill="#5E63B6" mask="url(#mask-2)"></path>
            <path d="M68,24.3698 C67.447,24.3698 67,23.9228 67,23.3698 L67,16.3698 C67,15.8168 67.447,15.3698 68,15.3698 C68.553,15.3698 69,15.8168 69,16.3698 L69,23.3698 C69,23.9228 68.553,24.3698 68,24.3698" id="Fill-5" fill="#5E63B6" mask="url(#mask-2)"></path>
            <path d="M71.5,20.8698 L64.5,20.8698 C63.947,20.8698 63.5,20.4228 63.5,19.8698 C63.5,19.3168 63.947,18.8698 64.5,18.8698 L71.5,18.8698 C72.053,18.8698 72.5,19.3168 72.5,19.8698 C72.5,20.4228 72.053,20.8698 71.5,20.8698" id="Fill-7" fill="#5E63B6" mask="url(#mask-2)"></path>
            <path d="M35.0342,201.5534 C34.7582,201.5534 34.5342,201.3294 34.5342,201.0534 L34.5342,197.1164 C34.5342,196.8394 34.7582,196.6164 35.0342,196.6164 C35.3102,196.6164 35.5342,196.8394 35.5342,197.1164 L35.5342,201.0534 C35.5342,201.3294 35.3102,201.5534 35.0342,201.5534" id="Fill-9" fill="#5E63B6" mask="url(#mask-2)"></path>
            <path d="M37.0029,199.5846 L33.0649,199.5846 C32.7889,199.5846 32.5659,199.3606 32.5659,199.0846 C32.5659,198.8086 32.7889,198.5846 33.0649,198.5846 L37.0029,198.5846 C37.2789,198.5846 37.5029,198.8086 37.5029,199.0846 C37.5029,199.3606 37.2789,199.5846 37.0029,199.5846" id="Fill-11" fill="#5E63B6" mask="url(#mask-2)"></path>
            <path d="M179.8643,33.3864 C179.5883,33.3864 179.3643,33.1624 179.3643,32.8864 L179.3643,28.9494 C179.3643,28.6724 179.5883,28.4494 179.8643,28.4494 C180.1403,28.4494 180.3643,28.6724 180.3643,28.9494 L180.3643,32.8864 C180.3643,33.1624 180.1403,33.3864 179.8643,33.3864" id="Fill-15" fill="#5E63B6" mask="url(#mask-2)"></path>
            <path d="M181.833,31.4176 L177.895,31.4176 C177.619,31.4176 177.396,31.1936 177.396,30.9176 C177.396,30.6416 177.619,30.4176 177.895,30.4176 L181.833,30.4176 C182.109,30.4176 182.333,30.6416 182.333,30.9176 C182.333,31.1936 182.109,31.4176 181.833,31.4176" id="Fill-17" fill="#5E63B6" mask="url(#mask-2)"></path>
            <path d="M20.9951,83.0797 C20.7191,83.0797 20.4951,82.8557 20.4951,82.5797 L20.4951,78.6427 C20.4951,78.3657 20.7191,78.1427 20.9951,78.1427 C21.2711,78.1427 21.4951,78.3657 21.4951,78.6427 L21.4951,82.5797 C21.4951,82.8557 21.2711,83.0797 20.9951,83.0797" id="Fill-19" fill="#5E63B6" mask="url(#mask-2)"></path>
            <path d="M22.9639,81.111 L19.0259,81.111 C18.7499,81.111 18.5269,80.887 18.5269,80.611 C18.5269,80.335 18.7499,80.111 19.0259,80.111 L22.9639,80.111 C23.2399,80.111 23.4639,80.335 23.4639,80.611 C23.4639,80.887 23.2399,81.111 22.9639,81.111" id="Fill-21" fill="#5E63B6" mask="url(#mask-2)"></path>
            <path d="M208.1221,157.8151 L204.1841,157.8151 C203.9081,157.8151 203.6851,157.5911 203.6851,157.3151 C203.6851,157.0391 203.9081,156.8151 204.1841,156.8151 L208.1221,156.8151 C208.3981,156.8151 208.6221,157.0391 208.6221,157.3151 C208.6221,157.5911 208.3981,157.8151 208.1221,157.8151" id="Fill-25" fill="#5E63B6" mask="url(#mask-2)"></path>
            <line x1="26.6104" y1="217.4909" x2="48.9434" y2="217.4909" id="Fill-27" fill="#FFFFFF" mask="url(#mask-2)"></line>
            <path d="M48.9434,218.4909 L26.6104,218.4909 C26.0574,218.4909 25.6104,218.0439 25.6104,217.4909 C25.6104,216.9379 26.0574,216.4909 26.6104,216.4909 L48.9434,216.4909 C49.4964,216.4909 49.9434,216.9379 49.9434,217.4909 C49.9434,218.0439 49.4964,218.4909 48.9434,218.4909" id="Fill-29" fill="#ACD3EF" mask="url(#mask-2)"></path>
            <path d="M241.2197,207.528 L236.2197,207.528 C235.6667,207.528 235.2197,207.081 235.2197,206.528 C235.2197,205.975 235.6667,205.528 236.2197,205.528 L241.2197,205.528 C241.7727,205.528 242.2197,205.975 242.2197,206.528 C242.2197,207.081 241.7727,207.528 241.2197,207.528" id="Fill-31" fill="#ACD3EF" mask="url(#mask-2)"></path>
            <line x1="1" y1="206.528" x2="6.333" y2="206.528" id="Fill-33" fill="#FFFFFF" mask="url(#mask-2)"></line>
            <path d="M6.333,207.528 L1,207.528 C0.447,207.528 4.17443857e-14,207.081 4.17443857e-14,206.528 C4.17443857e-14,205.975 0.447,205.528 1,205.528 L6.333,205.528 C6.886,205.528 7.333,205.975 7.333,206.528 C7.333,207.081 6.886,207.528 6.333,207.528" id="Fill-35" fill="#ACD3EF" mask="url(#mask-2)"></path>
            <path d="M92.3477,217.4909 L148.0747,217.4909" id="Fill-38" fill="#FFFFFF" mask="url(#mask-2)"></path>
            <path d="M148.0742,218.4909 L92.3472,218.4909 C91.7952,218.4909 91.3472,218.0439 91.3472,217.4909 C91.3472,216.9379 91.7952,216.4909 92.3472,216.4909 L148.0742,216.4909 C148.6272,216.4909 149.0742,216.9379 149.0742,217.4909 C149.0742,218.0439 148.6272,218.4909 148.0742,218.4909" id="Fill-39" fill="#ACD3EF" mask="url(#mask-2)"></path>
            <line x1="154.7197" y1="217.4909" x2="166.0527" y2="217.4909" id="Fill-41" fill="#FFFFFF" mask="url(#mask-2)"></line>
            <path d="M166.0527,218.4909 L154.7197,218.4909 C154.1667,218.4909 153.7197,218.0439 153.7197,217.4909 C153.7197,216.9379 154.1667,216.4909 154.7197,216.4909 L166.0527,216.4909 C166.6057,216.4909 167.0527,216.9379 167.0527,217.4909 C167.0527,218.0439 166.6057,218.4909 166.0527,218.4909" id="Fill-43" fill="#ACD3EF" mask="url(#mask-2)"></path>
            <line x1="87.3857" y1="217.4909" x2="83.0527" y2="217.4909" id="Fill-45" fill="#FFFFFF" mask="url(#mask-2)"></line>
            <path d="M87.3857,218.4909 L83.0527,218.4909 C82.4997,218.4909 82.0527,218.0439 82.0527,217.4909 C82.0527,216.9379 82.4997,216.4909 83.0527,216.4909 L87.3857,216.4909 C87.9387,216.4909 88.3857,216.9379 88.3857,217.4909 C88.3857,218.0439 87.9387,218.4909 87.3857,218.4909" id="Fill-47" fill="#ACD3EF" mask="url(#mask-2)"></path>
            <line x1="15.5527" y1="217.4909" x2="19.2197" y2="217.4909" id="Fill-49" fill="#FFFFFF" mask="url(#mask-2)"></line>
            <path d="M19.2197,218.4909 L15.5527,218.4909 C14.9997,218.4909 14.5527,218.0439 14.5527,217.4909 C14.5527,216.9379 14.9997,216.4909 15.5527,216.4909 L19.2197,216.4909 C19.7727,216.4909 20.2197,216.9379 20.2197,217.4909 C20.2197,218.0439 19.7727,218.4909 19.2197,218.4909" id="Fill-51" fill="#ACD3EF" mask="url(#mask-2)"></path>
            <line x1="213.2129" y1="217.4909" x2="226.8799" y2="217.4909" id="Fill-53" fill="#FFFFFF" mask="url(#mask-2)"></line>
            <path d="M226.8799,218.4909 L213.2129,218.4909 C212.6599,218.4909 212.2129,218.0439 212.2129,217.4909 C212.2129,216.9379 212.6599,216.4909 213.2129,216.4909 L226.8799,216.4909 C227.4329,216.4909 227.8799,216.9379 227.8799,217.4909 C227.8799,218.0439 227.4329,218.4909 226.8799,218.4909" id="Fill-55" fill="#ACD3EF" mask="url(#mask-2)"></path>
            <path d="M104.8174,262.027 C98.9644,250.145 90.2604,215.703 94.7194,192.821 L98.2494,174.715 C99.4074,168.775 99.9144,162.726 99.7624,156.675 C99.6994,154.155 99.3814,151.7 98.8364,149.336 C98.6994,148.745 98.5474,148.159 98.3834,147.58 C97.8894,145.84 97.2694,144.156 96.5364,142.536 C96.2914,141.995 96.0344,141.462 95.7634,140.936 C95.2244,139.885 94.6354,138.864 94.0014,137.876 C93.3654,136.887 92.6844,135.931 91.9604,135.012 C89.7864,132.254 87.2244,129.817 84.3604,127.786 C83.4064,127.108 82.4174,126.475 81.3984,125.891 C75.7944,122.675 69.2644,120.907 62.3334,121.081 L56.3454,121.231 C46.2634,121.484 37.2384,125.8 30.7964,132.574 C29.9914,133.421 29.2264,134.306 28.5044,135.226 C27.1944,136.899 26.0344,138.693 25.0274,140.58 C24.6494,141.289 24.2864,142.006 23.9544,142.741 C23.7114,143.279 23.4804,143.825 23.2634,144.377 C22.6114,146.032 22.0784,147.746 21.6714,149.506 C21.2654,151.268 20.9864,153.077 20.8454,154.923 C20.7524,156.154 20.7194,157.4 20.7514,158.661 C20.8144,161.174 21.8904,163.424 23.5794,165.03 C25.2674,166.636 27.5684,167.597 30.0824,167.535 L67.4634,166.595 L62.6214,199.183 C56.8184,232.681 59.3744,254.922 64.8914,269.651 C66.1224,272.935 105.5414,263.495 104.8174,262.027" id="Fill-58" fill="#ACD3EF" mask="url(#mask-2)"></path>
            <path d="M65.7705,269.1471 C66.7025,269.5651 71.7485,269.5551 85.0675,266.7091 C94.4905,264.6961 101.5865,262.6361 103.5755,261.7491 C97.6405,249.0661 89.3175,215.3161 93.7385,192.6291 L97.2675,174.5241 C98.4095,168.6681 98.9125,162.6711 98.7625,156.7011 C98.7025,154.2911 98.3995,151.8881 97.8615,149.5601 C97.7285,148.9861 97.5815,148.4161 97.4215,147.8521 C96.9485,146.1851 96.3435,144.5361 95.6245,142.9481 C95.3865,142.4221 95.1375,141.9051 94.8745,141.3941 C94.3535,140.3781 93.7775,139.3771 93.1595,138.4161 C92.5405,137.4531 91.8725,136.5161 91.1745,135.6311 C89.0565,132.9431 86.5695,130.5791 83.7825,128.6011 C82.8565,127.9441 81.8875,127.3251 80.9015,126.7581 C75.2835,123.5351 68.8665,121.9191 62.3585,122.0811 L56.3715,122.2311 C46.8855,122.4681 38.0605,126.3861 31.5215,133.2631 C30.7455,134.0801 29.9955,134.9471 29.2915,135.8431 C28.0365,137.4461 26.8985,139.1981 25.9095,141.0501 C25.4855,141.8451 25.1545,142.5131 24.8655,143.1521 C24.6285,143.6751 24.4055,144.2061 24.1945,144.7421 C23.5585,146.3551 23.0385,148.0341 22.6465,149.7311 C22.2485,151.4591 21.9775,153.2321 21.8425,154.9991 C21.7515,156.1971 21.7205,157.4201 21.7505,158.6361 C21.8055,160.8001 22.6995,162.8131 24.2685,164.3051 C25.8355,165.7971 27.8865,166.6201 30.0575,166.5351 L68.6275,165.5661 L63.6105,199.3311 C58.5895,228.3141 59.3185,251.7941 65.7705,269.1471 M67.2895,271.3181 C66.8205,271.3181 66.4195,271.2961 66.0935,271.2531 C65.6595,271.1961 64.3365,271.0201 63.9555,270.0011 C57.3235,252.2971 56.5425,228.4131 61.6355,199.0121 L66.2995,167.6251 L30.1075,168.5351 C27.4315,168.5981 24.8455,167.6151 22.8895,165.7541 C20.9345,163.8951 19.8195,161.3841 19.7505,158.6861 C19.7195,157.4041 19.7515,156.1121 19.8485,154.8461 C19.9915,152.9801 20.2765,151.1081 20.6975,149.2821 C21.1115,147.4881 21.6625,145.7131 22.3325,144.0101 C22.5555,143.4441 22.7925,142.8821 23.0425,142.3291 C23.3495,141.6501 23.7005,140.9441 24.1445,140.1091 C25.1885,138.1541 26.3905,136.3041 27.7175,134.6091 C28.4595,133.6631 29.2515,132.7471 30.0725,131.8841 C36.9795,124.6221 46.3015,120.4831 56.3205,120.2311 L62.3075,120.0811 C69.2155,119.9101 75.9595,121.6181 81.8965,125.0241 C82.9385,125.6221 83.9615,126.2761 84.9395,126.9701 C87.8825,129.0571 90.5085,131.5551 92.7455,134.3931 C93.4825,135.3281 94.1875,136.3181 94.8415,137.3351 C95.4955,138.3511 96.1045,139.4091 96.6535,140.4801 C96.9305,141.0181 97.1955,141.5671 97.4475,142.1231 C98.2065,143.8001 98.8445,145.5441 99.3455,147.3061 C99.5145,147.9021 99.6695,148.5031 99.8105,149.1101 C100.3775,151.5691 100.6985,154.1061 100.7625,156.6501 C100.9155,162.7661 100.4005,168.9091 99.2305,174.9071 L95.7015,193.0121 C91.2785,215.7081 99.8695,249.7171 105.7145,261.5851 C105.8985,261.9581 105.8575,262.3901 105.6045,262.7431 C103.9325,265.0741 75.4445,271.3181 67.2895,271.3181" id="Fill-61" fill="#5E63B6" mask="url(#mask-2)"></path>
            <path d="M37.0996,126.694 C37.0996,126.694 37.5436,120.302 43.8156,117.609 C45.7296,116.787 50.9446,116.447 50.9446,116.447 C50.9446,116.447 52.5806,123.164 48.3556,125.283 C42.2746,128.334 37.0996,126.694 37.0996,126.694" id="Fill-64" fill="#FFFFFF" mask="url(#mask-2)"></path>
            <path d="M38.2314,125.9244 C39.8574,126.2074 43.6614,126.5184 47.9074,124.3894 C50.5904,123.0434 50.3694,119.2134 50.1234,117.5134 C48.3624,117.6664 45.4104,118.0124 44.2104,118.5284 C39.8674,120.3934 38.5904,124.2274 38.2314,125.9244 M40.6764,128.1384 C38.3974,128.1384 36.9144,127.6844 36.7974,127.6474 L36.0474,127.4094 L36.1014,126.6244 C36.1224,126.3384 36.6664,119.5914 43.4204,116.6904 C45.4344,115.8244 50.3284,115.4854 50.8784,115.4484 L51.7164,115.3944 L51.9164,116.2104 C51.9904,116.5164 53.6844,123.7294 48.8034,126.1764 C45.7054,127.7314 42.8344,128.1384 40.6764,128.1384" id="Fill-67" fill="#5E63B6" mask="url(#mask-2)"></path>
            <path d="M53.0927977,123.0338 C53.0927977,123.0338 53.0548,114.3408 62.7978,112.8278 C64.6148,112.5458 66.9598,112.6668 66.9598,112.6668 C66.9598,112.6668 71.7998,121.6798 66.6678,122.6918 C60.3608,123.9378 53.0927977,123.0338 53.0927977,123.0338" id="Fill-70" fill="#FFFFFF" mask="url(#mask-2)"></path>
            <path d="M54.167,122.1373 C56.314,122.3243 61.716,122.6513 66.475,121.7103 C67.34,121.5393 67.636,121.1073 67.783,120.7953 C68.538,119.1993 67.381,115.7723 66.339,113.6473 C65.559,113.6333 64.121,113.6333 62.951,113.8163 C55.896,114.9113 54.459,120.0333 54.167,122.1373 M59.017,124.3543 C55.673,124.3543 53.146,124.0483 52.97,124.0263 L52.097,123.9173 L52.093,123.0373 C52.093,122.9433 52.172,113.4653 62.645,111.8393 C64.542,111.5443 66.913,111.6633 67.012,111.6673 L67.574,111.6973 L67.841,112.1943 C68.18,112.8243 71.105,118.4473 69.592,121.6493 C69.085,122.7213 68.141,123.4203 66.861,123.6733 C64.201,124.1993 61.4,124.3543 59.017,124.3543" id="Fill-73" fill="#5E63B6" mask="url(#mask-2)"></path>
            <path d="M71.623,123.1979 C71.623,123.1979 72.914,113.5599 81.572,116.2119 C85.271,117.3449 87.324,120.1569 87.324,120.1569 C87.324,120.1569 85.598,127.4969 82.153,126.6699 C76.14,125.2269 71.623,123.1979 71.623,123.1979" id="Fill-76" fill="#FFFFFF" mask="url(#mask-2)"></path>
            <path d="M72.7617,122.5953 C74.2607,123.2113 77.9207,124.6263 82.3867,125.6973 C82.7407,125.7833 83.0637,125.7223 83.4077,125.5113 C84.7957,124.6573 85.8167,121.8663 86.2277,120.3993 C85.5777,119.6643 83.8537,117.9563 81.2797,117.1673 C79.1257,116.5103 77.3147,116.6333 75.8967,117.5443 C73.8947,118.8273 73.0627,121.3473 72.7617,122.5953 M82.6847,127.7333 C82.4297,127.7333 82.1747,127.7023 81.9197,127.6423 C75.8847,126.1943 71.4017,124.1953 71.2127,124.1103 L70.5327,123.8043 L70.6317,123.0653 C70.6587,122.8633 71.3337,118.0933 74.8167,115.8613 C76.7507,114.6193 79.1217,114.4163 81.8657,115.2553 C85.8367,116.4733 88.0397,119.4413 88.1317,119.5673 L88.4037,119.9383 L88.2977,120.3853 C88.1717,120.9193 86.9967,125.6493 84.4567,127.2133 C83.8967,127.5583 83.2947,127.7333 82.6847,127.7333" id="Fill-79" fill="#5E63B6" mask="url(#mask-2)"></path>
            <path d="M40.2061,124.985 C40.2061,124.985 40.4401,121.607 43.7561,120.183 C44.7681,119.749 47.5241,119.568 47.5241,119.568 C47.5241,119.568 48.3901,123.119 46.1561,124.24 C42.9411,125.852 40.2061,124.985 40.2061,124.985" id="Fill-83" fill="#E1F2FF" mask="url(#mask-2)"></path>
            <path d="M56.8466987,121.4059 C56.8466987,121.4059 56.8257,116.5999 62.2127,115.7629 C63.2167,115.6079 64.5137,115.6749 64.5137,115.6749 C64.5137,115.6749 67.1897,120.6579 64.3527,121.2179 C60.8647,121.9059 56.8466987,121.4059 56.8466987,121.4059" id="Fill-85" fill="#E1F2FF" mask="url(#mask-2)"></path>
            <path d="M75.0234,122.4596 C75.0234,122.4596 75.7304,117.1876 80.4664,118.6386 C82.4914,119.2576 83.6144,120.7956 83.6144,120.7956 C83.6144,120.7956 82.6694,124.8126 80.7854,124.3596 C77.4954,123.5696 75.0234,122.4596 75.0234,122.4596" id="Fill-88" fill="#E1F2FF" mask="url(#mask-2)"></path>
            <path d="M98.1084,175.4362 C98.1084,175.4362 81.8314,178.4152 66.1954,174.9622 C64.8934,183.5092 64.0834,189.9572 64.0834,189.9572 C64.0834,189.9572 75.0474,197.0622 94.8524,192.2852 C96.9264,181.2972 98.1084,175.4362 98.1084,175.4362" id="Fill-91" fill="#FFFFFF" mask="url(#mask-2)"></path>
            <path d="M65.1602,189.4196 C67.5222,190.6736 77.6462,195.2276 93.9902,191.4606 C95.4042,183.9836 96.3932,178.9376 96.8472,176.6466 C92.6042,177.2556 79.6662,178.7226 67.0252,176.1596 C66.0622,182.5536 65.3882,187.6576 65.1602,189.4196 M81.5452,194.9496 C70.1232,194.9496 63.8842,191.0206 63.5392,190.7966 L63.0132,190.4556 L63.0912,189.8326 C63.0982,189.7686 63.9182,183.2736 65.2072,174.8126 L65.3672,173.7556 L66.4112,173.9856 C81.6742,177.3566 97.7682,174.4826 97.9292,174.4526 L99.3812,174.1876 L99.0892,175.6336 C99.0772,175.6916 97.8842,181.6166 95.8352,192.4706 L95.7152,193.1056 L95.0872,193.2566 C89.9842,194.4876 85.4592,194.9496 81.5452,194.9496" id="Fill-94" fill="#5E63B6" mask="url(#mask-2)"></path>
            <path d="M70.4619,159.5846 L51.7699,160.0546 C51.5329,150.6396 58.9739,142.8146 68.3889,142.5786 L70.0329,142.5376 C74.7409,142.4196 78.6519,146.1396 78.7719,150.8476 C78.8899,155.5546 75.1689,159.4666 70.4619,159.5846" id="Fill-97" fill="#E1F2FF" mask="url(#mask-2)"></path>
            <path d="M68.7998,159.3063 L52.0828,159.7263 C51.8978,152.3293 57.7418,146.1823 65.1398,145.9963 L68.6218,145.9093 C72.2768,145.8173 75.3138,148.7053 75.4048,152.3603 C75.4998,156.1023 72.5418,159.2123 68.7998,159.3063" id="Fill-100" fill="#FFFFFF" mask="url(#mask-2)"></path>
            <path d="M68.792,146.9069 C68.744,146.9069 68.695,146.9069 68.647,146.9089 L65.165,146.9969 C61.855,147.0799 58.774,148.4469 56.492,150.8459 C54.441,153.0029 53.256,155.7609 53.097,158.7009 L68.774,158.3059 C70.317,158.2679 71.753,157.6309 72.816,156.5119 C73.881,155.3939 74.444,153.9279 74.405,152.3859 C74.368,150.8849 73.748,149.4889 72.66,148.4549 C71.607,147.4529 70.239,146.9069 68.792,146.9069 L68.792,146.9069 Z M51.108,160.7509 L51.083,159.7519 C50.987,155.9069 52.394,152.2549 55.043,149.4689 C57.693,146.6809 61.27,145.0939 65.114,144.9969 L68.597,144.908832 C70.64,144.9009 72.564,145.6009 74.039,147.0059 C75.514,148.4079 76.354,150.3009 76.405,152.3349 C76.458,154.4119 75.698,156.3849 74.266,157.8899 C72.834,159.3959 70.901,160.2539 68.825,160.3059 L51.108,160.7509 Z" id="Fill-103" fill="#5E63B6" mask="url(#mask-2)"></path>
            <path d="M56.2188,151.9078 C56.2708,153.9738 57.9878,155.6068 60.0528,155.5538 C62.1188,155.5028 63.7508,153.7858 63.6988,151.7208 C63.6478,149.6548 61.9308,148.0218 59.8648,148.0738 C57.7988,148.1258 56.1668,149.8428 56.2188,151.9078" id="Fill-106" fill="#5E63B6" mask="url(#mask-2)"></path>
            <path d="M29.3477,164.5094 L29.3477,164.5094 C30.4047,164.2554 31.3407,163.6414 31.9957,162.7734 L33.2097,161.1654 L30.4327,161.8334 L28.7977,162.2284 C28.1667,162.3794 27.7797,163.0134 27.9317,163.6434 C28.0827,164.2744 28.7167,164.6614 29.3477,164.5094" id="Fill-109" fill="#5E63B6" mask="url(#mask-2)"></path>
            <path d="M72.0645,177.9508 C72.0645,177.9508 84.5095,181.1538 95.3575,178.6988 C93.5015,186.8678 92.4755,189.4388 92.4755,189.4388 C92.4755,189.4388 76.0675,187.6698 72.0645,177.9508" id="Fill-112" fill="#E1F2FF" mask="url(#mask-2)"></path>
            <path d="M83.5967,183.5748 C76.0207,183.5748 71.0437,182.3958 70.7537,182.3258 C70.2177,182.1958 69.8887,181.6548 70.0187,181.1188 C70.1487,180.5818 70.6827,180.2468 71.2257,180.3828 C71.3237,180.4058 81.0217,182.6918 93.8197,180.8408 C94.3627,180.7558 94.8727,181.1388 94.9517,181.6858 C95.0317,182.2328 94.6527,182.7398 94.1067,182.8188 C90.2607,183.3768 86.7087,183.5748 83.5967,183.5748" id="Fill-115" fill="#ACD3EF" mask="url(#mask-2)"></path>
            <path d="M85.7773,245.2155 C84.1743,245.2155 82.8513,243.9325 82.8103,242.3215 C82.8033,242.0455 83.0213,241.8165 83.2983,241.8095 L83.3103,241.8095 C83.5813,241.8095 83.8033,242.0255 83.8103,242.2965 C83.8373,243.3645 84.7153,244.2155 85.7773,244.2155 C85.7943,244.2155 85.8103,244.2155 85.8273,244.2145 C86.3523,244.2015 86.8413,243.9845 87.2043,243.6035 C87.5663,243.2225 87.7583,242.7235 87.7453,242.1975 C87.7383,241.9215 87.9563,241.6925 88.2323,241.6855 L88.2453,241.6855 C88.5153,241.6855 88.7383,241.9015 88.7453,242.1725 C88.7863,243.8095 87.4883,245.1735 85.8523,245.2145 C85.8273,245.2145 85.8013,245.2155 85.7773,245.2155" id="Fill-118" fill="#E1F2FF" mask="url(#mask-2)"></path>
            <path d="M90.7109,245.0914 C89.1079,245.0914 87.7859,243.8084 87.7449,242.1974 C87.7379,241.9214 87.9559,241.6924 88.2319,241.6854 L88.2449,241.6854 C88.5159,241.6854 88.7379,241.9014 88.7449,242.1724 C88.7729,243.2574 89.6799,244.1654 90.7609,244.0904 C91.2859,244.0774 91.7749,243.8604 92.1379,243.4794 C92.4999,243.0984 92.6919,242.5994 92.6789,242.0734 C92.6719,241.7974 92.8899,241.5684 93.1659,241.5614 L93.1789,241.5614 C93.4489,241.5614 93.6719,241.7774 93.6789,242.0484 C93.6979,242.8414 93.4079,243.5944 92.8619,244.1684 C92.3159,244.7424 91.5789,245.0704 90.7859,245.0904 C90.7609,245.0904 90.7349,245.0914 90.7109,245.0914" id="Fill-121" fill="#E1F2FF" mask="url(#mask-2)"></path>
            <path d="M88.3066,247.6198 C86.7036,247.6198 85.3806,246.3378 85.3396,244.7268 C85.3326,244.4508 85.5506,244.2218 85.8276,244.2148 L85.8396,244.2148 C86.1106,244.2148 86.3326,244.4308 86.3396,244.7018 C86.3666,245.7688 87.2446,246.6198 88.3066,246.6198 C88.3236,246.6198 88.3396,246.6198 88.3566,246.6188 C88.8816,246.6058 89.3706,246.3898 89.7326,246.0088 C90.0946,245.6278 90.2866,245.1288 90.2736,244.6028 C90.2666,244.3268 90.4846,244.0978 90.7606,244.0908 L90.7736,244.0908 C91.0436,244.0908 91.2666,244.3068 91.2736,244.5778 C91.3146,246.2138 90.0176,247.5778 88.3816,247.6188 C88.3566,247.6188 88.3306,247.6198 88.3066,247.6198" id="Fill-124" fill="#E1F2FF" mask="url(#mask-2)"></path>
            <path d="M87.3809,166.7448 C85.6469,166.7448 84.2149,165.3568 84.1699,163.6138 C84.1629,163.3378 84.3809,163.1078 84.6569,163.1008 L84.6699,163.1008 C84.9409,163.1008 85.1629,163.3168 85.1699,163.5888 C85.2009,164.8078 86.2389,165.8018 87.4369,165.7438 C88.6549,165.7128 89.6219,164.6958 89.5919,163.4778 C89.5849,163.2018 89.8039,162.9728 90.0789,162.9658 L90.0919,162.9658 C90.3619,162.9658 90.5849,163.1818 90.5919,163.4528 C90.6359,165.2228 89.2319,166.6988 87.4619,166.7438 C87.4349,166.7448 87.4079,166.7448 87.3809,166.7448" id="Fill-127" fill="#E1F2FF" mask="url(#mask-2)"></path>
            <path d="M90.1582,169.3873 C89.3312,169.3873 88.5482,169.0753 87.9462,168.5023 C87.3242,167.9113 86.9702,167.1143 86.9492,166.2563 C86.9422,165.9803 87.1612,165.7503 87.4362,165.7433 L87.4492,165.7433 C87.7202,165.7433 87.9422,165.9593 87.9492,166.2313 C87.9642,166.8223 88.2072,167.3703 88.6362,167.7783 C89.0632,168.1853 89.6142,168.4083 90.2152,168.3863 C90.8052,168.3713 91.3552,168.1273 91.7622,167.6993 C92.1692,167.2713 92.3862,166.7103 92.3702,166.1193 C92.3632,165.8433 92.5812,165.6143 92.8572,165.6073 C93.1382,165.6093 93.3642,165.8193 93.3702,166.0943 C93.3912,166.9513 93.0782,167.7663 92.4872,168.3883 C91.8952,169.0103 91.0972,169.3643 90.2402,169.3863 C90.2132,169.3873 90.1852,169.3873 90.1582,169.3873" id="Fill-130" fill="#E1F2FF" mask="url(#mask-2)"></path>
            <path d="M83.582,205.5953 C82.868,205.5953 82.192,205.3253 81.672,204.8313 C81.135,204.3203 80.829,203.6303 80.81,202.8893 C80.803,202.6133 81.02,202.3833 81.297,202.3763 C81.613,202.3803 81.803,202.5883 81.81,202.8643 C81.821,203.3383 82.018,203.7803 82.361,204.1063 C82.705,204.4333 83.165,204.6173 83.63,204.5943 C84.608,204.5703 85.385,203.7533 85.36,202.7753 C85.353,202.4983 85.572,202.2693 85.848,202.2623 L85.86,202.2623 C86.131,202.2623 86.353,202.4783 86.36,202.7493 C86.398,204.2803 85.185,205.5563 83.655,205.5943 C83.631,205.5943 83.606,205.5953 83.582,205.5953" id="Fill-133" fill="#E1F2FF" mask="url(#mask-2)"></path>
            <path d="M28.6875,154.6871 C28.1205,154.6871 27.5835,154.4721 27.1695,154.0801 C26.7435,153.6731 26.4995,153.1251 26.4845,152.5361 C26.4775,152.2591 26.6965,152.0301 26.9715,152.0231 L26.9845,152.0231 C27.2545,152.0231 27.4775,152.2391 27.4845,152.5101 C27.4925,152.8331 27.6255,153.1321 27.8595,153.3551 C28.0925,153.5771 28.4045,153.6771 28.7205,153.6861 C29.0425,153.6781 29.3425,153.5451 29.5655,153.3111 C29.7885,153.0781 29.9055,152.7721 29.8975,152.4501 C29.8905,152.1731 30.1095,151.9441 30.3845,151.9371 L30.3975,151.9371 C30.6675,151.9371 30.8905,152.1531 30.8975,152.4241 C30.9125,153.0141 30.6965,153.5741 30.2905,154.0001 C29.8835,154.4281 29.3345,154.6711 28.7465,154.6861 C28.7265,154.6861 28.7075,154.6871 28.6875,154.6871" id="Fill-136" fill="#E1F2FF" mask="url(#mask-2)"></path>
            <path d="M151.2822,257.9567 C157.4692,245.3947 166.6722,208.9827 161.9572,184.7917 L158.2262,165.6497 C157.0032,159.3697 156.4662,152.9757 156.6272,146.5787 C156.6942,143.9137 157.0292,141.3187 157.6062,138.8187 C157.7512,138.1937 157.9102,137.5747 158.0852,136.9617 C158.6072,135.1237 159.2612,133.3427 160.0382,131.6297 C160.2972,131.0587 160.5682,130.4947 160.8532,129.9387 C161.4242,128.8277 162.0472,127.7477 162.7182,126.7027 C163.3892,125.6577 164.1102,124.6477 164.8762,123.6757 C167.1742,120.7597 169.8812,118.1847 172.9092,116.0357 C173.9192,115.3197 174.9642,114.6507 176.0412,114.0327 C181.9672,110.6337 188.8692,108.7637 196.1982,108.9467 L202.5262,109.1057 C213.1862,109.3747 222.7272,113.9367 229.5382,121.0987 C230.3882,121.9937 231.1972,122.9297 231.9602,123.9017 C233.3462,125.6707 234.5722,127.5667 235.6362,129.5617 C236.0362,130.3107 236.4212,131.0687 236.7712,131.8467 C237.0292,132.4157 237.2722,132.9927 237.5022,133.5757 C238.1912,135.3257 238.7562,137.1377 239.1842,138.9997 C239.6142,140.8617 239.9092,142.7737 240.0572,144.7257 C240.1572,146.0267 240.1912,147.3447 240.1582,148.6777 C240.0912,151.3347 238.9532,153.7137 237.1682,155.4107 C235.3832,157.1087 232.9502,158.1257 230.2932,158.0587 L190.7722,157.0647 L195.8922,191.5187 C202.0272,226.9327 199.3252,250.4447 193.4922,266.0177 C192.1922,269.4887 150.5172,259.5087 151.2822,257.9567" id="Fill-140" fill="#ACD3EF" mask="url(#mask-2)"></path>
            <path d="M152.5107,257.7096 C157.3697,260.1406 189.4617,267.2616 192.6067,265.5306 C199.4417,247.1726 200.2147,222.3306 194.9067,191.6886 L189.6087,156.0356 L230.3187,157.0586 C232.6327,157.1186 234.8097,156.2746 236.4787,154.6866 C238.1487,153.0986 239.1007,150.9556 239.1577,148.6516 C239.1907,147.3656 239.1567,146.0696 239.0607,144.8016 C238.9177,142.9296 238.6317,141.0526 238.2097,139.2246 C237.7977,137.4326 237.2457,135.6546 236.5717,133.9416 C236.3477,133.3746 236.1117,132.8136 235.8607,132.2586 C235.5577,131.5876 235.2057,130.8806 234.7537,130.0326 C233.7057,128.0676 232.5007,126.2126 231.1727,124.5196 C230.4357,123.5776 229.6407,122.6586 228.8137,121.7866 C221.8897,114.5076 212.5447,110.3586 202.5007,110.1056 L196.1727,109.9466 C189.2617,109.7706 182.4887,111.4856 176.5387,114.8996 C175.4987,115.4966 174.4717,116.1536 173.4877,116.8516 C170.5357,118.9446 167.9037,121.4496 165.6607,124.2946 C164.9137,125.2426 164.2067,126.2356 163.5587,127.2436 C162.9047,128.2636 162.2927,129.3236 161.7427,130.3966 C161.4657,130.9376 161.2007,131.4856 160.9487,132.0426 C160.1907,133.7146 159.5507,135.4616 159.0467,137.2346 C158.8757,137.8326 158.7217,138.4366 158.5807,139.0446 C158.0127,141.5066 157.6917,144.0506 157.6267,146.6046 C157.4677,152.9136 157.9997,159.2576 159.2077,165.4586 L162.9387,184.6006 C167.6187,208.6146 158.7837,244.3616 152.5107,257.7096 M190.9487,267.7226 C182.3357,267.7226 152.2627,261.1406 150.4967,258.6806 C150.2417,258.3256 150.1997,257.8906 150.3847,257.5156 C156.5687,244.9626 165.6547,208.9896 160.9757,184.9826 L157.2447,165.8416 C156.0087,159.4976 155.4647,153.0076 155.6267,146.5536 C155.6957,143.8656 156.0327,141.1886 156.6317,138.5946 C156.7807,137.9516 156.9447,137.3166 157.1227,136.6876 C157.6547,134.8196 158.3277,132.9796 159.1267,131.2166 C159.3927,130.6306 159.6707,130.0526 159.9637,129.4816 C160.5427,128.3546 161.1867,127.2366 161.8757,126.1626 C162.5587,125.1006 163.3037,124.0566 164.0897,123.0576 C166.4507,120.0616 169.2237,117.4246 172.3297,115.2206 C173.3667,114.4846 174.4477,113.7936 175.5427,113.1656 C181.8117,109.5696 188.9487,107.7816 196.2237,107.9466 L202.5517,108.1056 C213.1297,108.3726 222.9707,112.7416 230.2627,120.4086 C231.1347,121.3266 231.9697,122.2946 232.7467,123.2846 C234.1467,125.0696 235.4157,127.0236 236.5187,129.0916 C236.9917,129.9796 237.3627,130.7246 237.6827,131.4356 C237.9477,132.0186 238.1977,132.6106 238.4327,133.2096 C239.1437,135.0146 239.7247,136.8866 240.1587,138.7746 C240.6037,140.7006 240.9047,142.6776 241.0547,144.6486 C241.1567,145.9846 241.1917,147.3486 241.1577,148.7016 C241.0857,151.5406 239.9137,154.1806 237.8577,156.1356 C235.7997,158.0916 233.1027,159.1146 230.2677,159.0586 L191.9367,158.0946 L196.8817,191.3706 C202.2607,222.4186 201.4367,247.6596 194.4287,266.3676 C194.0377,267.4126 192.6657,267.5946 192.2157,267.6546 C191.8707,267.7006 191.4457,267.7226 190.9487,267.7226" id="Fill-143" fill="#5E63B6" mask="url(#mask-2)"></path>
            <path d="M222.874,114.8815 C222.874,114.8815 222.404,108.1245 215.773,105.2775 C213.75,104.4075 208.237,104.0475 208.237,104.0475 C208.237,104.0475 206.507,111.1495 210.975,113.3905 C217.403,116.6155 222.874,114.8815 222.874,114.8815" id="Fill-146" fill="#FFFFFF" mask="url(#mask-2)"></path>
            <path d="M209.0586,105.1139 C208.7976,106.8979 208.5376,111.0489 211.4226,112.4969 C215.9826,114.7829 220.0616,114.4189 221.7506,114.1129 C221.3946,112.3339 220.0796,108.2149 215.3786,106.1959 C214.0916,105.6429 210.9166,105.2749 209.0586,105.1139 M219.0906,116.3519 C216.8176,116.3519 213.7926,115.9229 210.5266,114.2839 C205.4056,111.7159 207.1876,104.1329 207.2656,103.8109 L207.4646,102.9949 L208.3026,103.0499 C208.8846,103.0879 214.0476,103.4479 216.1676,104.3579 C223.2776,107.4119 223.8506,114.5109 223.8716,114.8119 L223.9256,115.5969 L223.1756,115.8349 C223.0536,115.8739 221.4916,116.3519 219.0906,116.3519" id="Fill-149" fill="#5E63B6" mask="url(#mask-2)"></path>
            <path d="M205.966802,111.0123 C205.966802,111.0123 206.0058,101.8223 195.7058,100.2223 C193.7848,99.9243 191.3058,100.0523 191.3058,100.0523 C191.3058,100.0523 186.1898,109.5803 191.6138,110.6513 C198.2828,111.9673 205.966802,111.0123 205.966802,111.0123" id="Fill-152" fill="#FFFFFF" mask="url(#mask-2)"></path>
            <path d="M191.9268,101.0328 C190.8158,103.2868 189.5728,106.9578 190.3838,108.6708 C190.5448,109.0108 190.8678,109.4838 191.8078,109.6698 C196.8928,110.6748 202.6648,110.3138 204.8958,110.1158 C204.6048,107.9158 203.1168,102.3858 195.5528,101.2108 C194.2928,101.0148 192.7438,101.0168 191.9268,101.0328 M199.7048,112.3508 C197.1878,112.3508 194.2308,112.1868 191.4208,111.6328 C190.0868,111.3688 189.1028,110.6398 188.5748,109.5248 C186.9868,106.1648 190.0688,100.2438 190.4248,99.5798 L190.6918,99.0828 L191.2538,99.0538 C191.3608,99.0508 193.8598,98.9248 195.8598,99.2338 C206.8818,100.9458 206.9668,110.9158 206.9668,111.0158 L206.9628,111.8958 L206.0898,112.0048 C205.9038,112.0278 203.2358,112.3508 199.7048,112.3508" id="Fill-155" fill="#5E63B6" mask="url(#mask-2)"></path>
            <path d="M186.376,111.1852 C186.376,111.1852 185.011,100.9972 175.857,103.8002 C171.946,104.9982 169.776,107.9702 169.776,107.9702 C169.776,107.9702 171.602,115.7302 175.243,114.8562 C181.601,113.3312 186.376,111.1852 186.376,111.1852" id="Fill-158" fill="#FFFFFF" mask="url(#mask-2)"></path>
            <path d="M170.8721,108.2125 C171.3041,109.7625 172.3941,112.7615 173.8881,113.6795 C174.2661,113.9125 174.6231,113.9765 175.0101,113.8835 C179.7851,112.7375 183.6811,111.2265 185.2361,110.5835 C184.9221,109.2695 184.0321,106.5295 181.8821,105.1555 C180.3681,104.1895 178.4401,104.0545 176.1501,104.7565 C173.3891,105.6025 171.5491,107.4415 170.8721,108.2125 M174.6831,115.9235 C174.0471,115.9235 173.4211,115.7405 172.8381,115.3815 C170.1721,113.7395 168.9351,108.7615 168.8031,108.1985 L168.6971,107.7515 L168.9691,107.3805 C169.0651,107.2485 171.3831,104.1245 175.5641,102.8445 C178.4471,101.9595 180.9371,102.1745 182.9691,103.4775 C186.6281,105.8225 187.3391,110.8395 187.3671,111.0525 L187.4661,111.7915 L186.7861,112.0975 C186.5871,112.1865 181.8511,114.2985 175.4761,115.8285 C175.2121,115.8925 174.9461,115.9235 174.6831,115.9235" id="Fill-161" fill="#5E63B6" mask="url(#mask-2)"></path>
            <path d="M219.5898,113.0748 C219.5898,113.0748 219.3418,109.5038 215.8368,107.9988 C214.7678,107.5388 211.8538,107.3478 211.8538,107.3478 C211.8538,107.3478 210.9388,111.1018 213.2998,112.2868 C216.6978,113.9918 219.5898,113.0748 219.5898,113.0748" id="Fill-164" fill="#E1F2FF" mask="url(#mask-2)"></path>
            <path d="M201.997101,109.2916 C201.997101,109.2916 202.0191,104.2106 196.3251,103.3256 C195.2631,103.1616 193.8921,103.2316 193.8921,103.2316 C193.8921,103.2316 191.0631,108.4996 194.0621,109.0926 C197.7501,109.8196 201.997101,109.2916 201.997101,109.2916" id="Fill-167" fill="#E1F2FF" mask="url(#mask-2)"></path>
            <path d="M182.7803,110.4059 C182.7803,110.4059 182.0343,104.8309 177.0253,106.3649 C174.8853,107.0199 173.6993,108.6459 173.6993,108.6459 C173.6993,108.6459 174.6973,112.8919 176.6893,112.4139 C180.1683,111.5799 182.7803,110.4059 182.7803,110.4059" id="Fill-170" fill="#E1F2FF" mask="url(#mask-2)"></path>
            <path d="M158.375,166.4127 C158.375,166.4127 175.584,169.5607 192.114,165.9117 C193.49,174.9477 194.348,181.7647 194.348,181.7647 C194.348,181.7647 182.756,189.2747 161.817,184.2247 C159.624,172.6087 158.375,166.4127 158.375,166.4127" id="Fill-173" fill="#FFFFFF" mask="url(#mask-2)"></path>
            <path d="M162.6797,183.4 C180.1307,187.434 190.8337,182.539 193.2707,181.23 C193.0337,179.401 192.3147,173.946 191.2837,167.11 C177.8297,169.847 164.0387,168.261 159.6357,167.624 C160.1097,170.011 161.1637,175.388 162.6797,183.4 M175.8897,186.985 C171.7537,186.985 166.9757,186.498 161.5827,185.196 L160.9547,185.045 L160.8347,184.41 C158.6677,172.935 157.4077,166.672 157.3947,166.61 L157.1037,165.164 L158.5547,165.429 C158.7247,165.461 175.7657,168.497 191.8987,164.935 L192.9427,164.705 L193.1027,165.761 C194.4647,174.707 195.3307,181.571 195.3397,181.639 L195.4177,182.262 L194.8917,182.603 C194.5287,182.838 187.9437,186.985 175.8897,186.985" id="Fill-176" fill="#5E63B6" mask="url(#mask-2)"></path>
            <path d="M187.6035,149.6539 L207.3655,150.1509 C207.6155,140.1969 199.7495,131.9249 189.7955,131.6749 L188.0565,131.6319 C183.0805,131.5069 178.9445,135.4399 178.8195,140.4169 C178.6935,145.3929 182.6265,149.5289 187.6035,149.6539" id="Fill-180" fill="#E1F2FF" mask="url(#mask-2)"></path>
            <path d="M189.3604,149.36 L207.0344,149.803 C207.2304,141.984 201.0504,135.485 193.2304,135.289 L189.5484,135.196 C185.6844,135.099 182.4734,138.153 182.3774,142.016 C182.2774,145.972 185.4044,149.26 189.3604,149.36" id="Fill-182" fill="#FFFFFF" mask="url(#mask-2)"></path>
            <path d="M189.3857,148.36 L206.0227,148.778 C205.8667,145.633 204.6057,142.681 202.4137,140.377 C199.9907,137.829 196.7207,136.377 193.2047,136.289 L189.5237,136.196 C186.2337,136.108 183.4587,138.735 183.3767,142.042 C183.3347,143.688 183.9377,145.252 185.0727,146.445 C186.2067,147.638 187.7397,148.319 189.3857,148.36 L189.3857,148.36 Z M208.0087,150.828 L189.3347,150.36 C184.8337,150.247 181.2637,146.492 181.3767,141.991 C181.4867,137.651 185.0527,134.194 189.3707,134.194 C189.4387,134.194 189.5057,134.195 189.5737,134.196 L193.2557,134.289 C197.3047,134.39 201.0727,136.063 203.8637,138.999 C206.6547,141.933 208.1357,145.78 208.0337,149.829 L208.0087,150.828 Z" id="Fill-185" fill="#5E63B6" mask="url(#mask-2)"></path>
            <path d="M202.6621,141.5387 C202.6061,143.7227 200.7921,145.4487 198.6071,145.3927 C196.4241,145.3387 194.6981,143.5237 194.7531,141.3397 C194.8081,139.1557 196.6231,137.4307 198.8071,137.4847 C200.9901,137.5397 202.7171,139.3537 202.6621,141.5387" id="Fill-188" fill="#5E63B6" mask="url(#mask-2)"></path>
            <path d="M231.0703,154.861 L231.0703,154.861 C229.9523,154.591 228.9633,153.943 228.2693,153.025 L226.9873,151.325 L229.9223,152.032 L231.6513,152.448 C232.3173,152.609 232.7273,153.279 232.5673,153.945 C232.4063,154.611 231.7363,155.021 231.0703,154.861" id="Fill-191" fill="#5E63B6" mask="url(#mask-2)"></path>
            <path d="M185.9092,169.0709 C185.9092,169.0709 172.7522,172.4569 161.2832,169.8619 C163.2452,178.4979 164.3302,181.2159 164.3302,181.2159 C164.3302,181.2159 181.6782,179.3449 185.9092,169.0709" id="Fill-194" fill="#E1F2FF" mask="url(#mask-2)"></path>
            <path d="M173.7178,174.9596 C170.4298,174.9596 166.6788,174.7496 162.6138,174.1606 C162.0688,174.0816 161.6898,173.5746 161.7688,173.0276 C161.8468,172.4806 162.3548,172.0956 162.9018,172.1826 C176.4458,174.1446 186.7068,171.7216 186.8098,171.6966 C187.3538,171.5646 187.8868,171.8966 188.0168,172.4336 C188.1468,172.9696 187.8178,173.5106 187.2808,173.6406 C186.9758,173.7146 181.7188,174.9596 173.7178,174.9596" id="Fill-197" fill="#ACD3EF" mask="url(#mask-2)"></path>
            <path d="M169.7187,157.195 C169.6907,157.195 169.6607,157.195 169.6317,157.194 C167.7777,157.147 166.3047,155.599 166.3507,153.744 C166.3587,153.468 166.5347,153.252 166.8637,153.257 C167.1387,153.263 167.3577,153.493 167.3507,153.769 C167.3187,155.073 168.3537,156.161 169.6567,156.194 C170.2747,156.237 170.8897,155.978 171.3477,155.544 C171.8057,155.108 172.0667,154.519 172.0817,153.887 C172.0887,153.612 172.2977,153.389 172.5947,153.4 C172.8707,153.407 173.0887,153.636 173.0817,153.913 C173.0597,154.812 172.6877,155.648 172.0357,156.268 C171.4057,156.868 170.5857,157.195 169.7187,157.195" id="Fill-209" fill="#E1F2FF" mask="url(#mask-2)"></path>
            <path d="M166.7793,159.9889 C166.7513,159.9889 166.7223,159.9889 166.6943,159.9879 C165.7953,159.9659 164.9593,159.5929 164.3393,158.9419 C163.7193,158.2909 163.3903,157.4359 163.4133,156.5379 C163.4203,156.2619 163.6533,156.0639 163.9253,156.0509 C164.2023,156.0569 164.4203,156.2869 164.4133,156.5629 C164.3963,157.1949 164.6283,157.7949 165.0633,158.2529 C165.4993,158.7109 166.0883,158.9719 166.7193,158.9879 C166.7393,158.9889 166.7583,158.9889 166.7793,158.9889 C168.0563,158.9889 169.1123,157.9659 169.1443,156.6809 C169.1513,156.4059 169.4163,156.2019 169.6573,156.1939 C169.9333,156.2009 170.1513,156.4299 170.1443,156.7069 C170.0983,158.5339 168.5963,159.9889 166.7793,159.9889" id="Fill-212" fill="#E1F2FF" mask="url(#mask-2)"></path>
            <path d="M173.7305,198.2682 C173.7065,198.2682 173.6805,198.2672 173.6565,198.2672 C172.0545,198.2272 170.7845,196.8912 170.8245,195.2892 C170.8315,195.0172 171.0535,194.8012 171.3245,194.8012 L171.3365,194.8012 C171.6125,194.8082 171.8315,195.0382 171.8245,195.3142 C171.7975,196.3652 172.6305,197.2412 173.6815,197.2672 C174.7095,197.3372 175.6095,196.4592 175.6345,195.4102 C175.6415,195.1382 175.8645,194.9222 176.1345,194.9222 L176.1475,194.9222 C176.4225,194.9292 176.6415,195.1592 176.6345,195.4352 C176.5945,197.0122 175.2985,198.2682 173.7305,198.2682" id="Fill-215" fill="#E1F2FF" mask="url(#mask-2)"></path>
            <path d="M231.7666,144.4479 C231.7456,144.4479 231.7266,144.4469 231.7056,144.4469 C230.4356,144.4149 229.4276,143.3549 229.4596,142.0849 C229.4666,141.8089 229.7186,141.5899 229.9726,141.5969 C230.2486,141.6039 230.4666,141.8339 230.4596,142.1099 C230.4416,142.8289 231.0116,143.4279 231.7316,143.4469 C232.0656,143.4529 232.4106,143.3299 232.6626,143.0889 C232.9156,142.8479 233.0596,142.5239 233.0686,142.1759 C233.0756,141.8999 233.2866,141.7259 233.5806,141.6879 C233.8576,141.6949 234.0756,141.9249 234.0686,142.2009 C234.0526,142.8159 233.7976,143.3879 233.3526,143.8129 C232.9206,144.2229 232.3596,144.4479 231.7666,144.4479" id="Fill-218" fill="#E1F2FF" mask="url(#mask-2)"></path>
            <path d="M161.9727,221.3512 C154.9937,207.1842 144.6167,166.1172 149.9337,138.8332 L154.1407,117.2462 C155.5217,110.1632 156.1267,102.9502 155.9457,95.7362 C155.8697,92.7302 155.4917,89.8032 154.8397,86.9842 C154.6777,86.2802 154.4977,85.5812 154.3007,84.8902 C153.7117,82.8172 152.9737,80.8082 152.0987,78.8752 C151.8067,78.2322 151.4997,77.5962 151.1777,76.9692 C150.5347,75.7162 149.8327,74.4982 149.0757,73.3202 C148.3187,72.1412 147.5057,71.0012 146.6417,69.9052 C144.0507,66.6162 140.9967,63.7112 137.5807,61.2892 C136.4427,60.4812 135.2637,59.7272 134.0487,59.0302 C127.3667,55.1962 119.5807,53.0862 111.3167,53.2942 L104.1777,53.4742 C92.1567,53.7762 81.3947,58.9222 73.7147,66.9982 C72.7547,68.0082 71.8427,69.0632 70.9827,70.1612 C69.4187,72.1552 68.0357,74.2942 66.8357,76.5442 C66.3847,77.3892 65.9517,78.2452 65.5557,79.1212 C65.2657,79.7632 64.9917,80.4142 64.7327,81.0712 C63.9547,83.0452 63.3187,85.0882 62.8337,87.1882 C62.3497,89.2892 62.0177,91.4452 61.8497,93.6462 C61.7387,95.1142 61.6997,96.6002 61.7367,98.1032 C61.8127,101.1002 63.0947,103.7832 65.1087,105.6982 C67.1217,107.6122 69.8657,108.7582 72.8627,108.6832 L117.4347,107.5632 L111.6607,146.4192 C104.7417,186.3612 107.7887,212.8782 114.3677,230.4422 C115.8337,234.3572 162.8347,223.1012 161.9727,221.3512" id="Fill-222" fill="#ACD3EF" mask="url(#mask-2)"></path>
            <path d="M115.2637,229.985 C118.4517,232.029 155.6197,223.83 160.7557,221.131 C153.6847,206.183 143.6647,165.769 148.9517,138.642 L153.1597,117.054 C154.5247,110.053 155.1247,102.889 154.9457,95.761 C154.8727,92.877 154.5097,89.999 153.8657,87.21 C153.7067,86.521 153.5317,85.839 153.3387,85.165 C152.7707,83.162 152.0467,81.185 151.1877,79.288 C150.9027,78.66 150.6037,78.039 150.2877,77.426 C149.6597,76.204 148.9687,75.005 148.2347,73.861 C147.4987,72.715 146.6997,71.593 145.8567,70.524 C143.3217,67.306 140.3427,64.473 137.0027,62.104 C135.8937,61.318 134.7327,60.575 133.5507,59.897 C126.8207,56.035 119.1157,54.082 111.3417,54.295 L104.2027,54.474 C92.8407,54.759 82.2717,59.452 74.4397,67.688 C73.5007,68.674 72.6037,69.714 71.7697,70.778 C70.2667,72.695 68.9037,74.794 67.7177,77.015 C67.2117,77.964 66.8147,78.762 66.4667,79.532 C66.1837,80.16 65.9157,80.796 65.6627,81.437 C64.9007,83.375 64.2767,85.385 63.8087,87.413 C63.3317,89.478 63.0087,91.601 62.8467,93.722 C62.7377,95.163 62.7007,96.629 62.7367,98.079 C62.8027,100.711 63.8907,103.16 65.7977,104.973 C67.7057,106.787 70.1737,107.739 72.8367,107.683 L118.5987,106.534 L112.6507,146.566 C106.6517,181.195 107.5327,209.253 115.2637,229.985 M117.6457,232.262 C116.9567,232.262 116.3447,232.231 115.8257,232.162 C114.9757,232.049 113.8027,231.785 113.4307,230.793 C105.5347,209.713 104.6087,181.268 110.6757,146.249 L116.2707,108.592 L72.8877,109.683 C69.6907,109.74 66.7147,108.604 64.4197,106.422 C62.1247,104.241 60.8177,101.296 60.7367,98.129 C60.6997,96.611 60.7387,95.078 60.8527,93.571 C61.0227,91.349 61.3607,89.127 61.8597,86.964 C62.3497,84.839 63.0027,82.734 63.8017,80.705 C64.0667,80.032 64.3477,79.367 64.6447,78.71 C65.0107,77.898 65.4267,77.061 65.9537,76.074 C67.1937,73.75 68.6207,71.552 70.1957,69.544 C71.0687,68.43 72.0087,67.342 72.9907,66.309 C81.1897,57.686 92.2567,52.773 104.1527,52.474 L111.2907,52.295 C119.4797,52.106 127.4977,54.119 134.5467,58.163 C135.7837,58.873 136.9987,59.65 138.1597,60.473 C141.6567,62.953 144.7747,65.919 147.4267,69.286 C148.3097,70.406 149.1477,71.582 149.9167,72.78 C150.6867,73.977 151.4097,75.233 152.0677,76.512 C152.3967,77.154 152.7107,77.804 153.0087,78.463 C153.9097,80.45 154.6667,82.52 155.2627,84.617 C155.4647,85.324 155.6487,86.039 155.8147,86.759 C156.4897,89.679 156.8687,92.692 156.9457,95.711 C157.1277,102.984 156.5147,110.294 155.1217,117.437 L150.9147,139.025 C145.6327,166.129 155.8897,206.74 162.8697,220.91 L162.8697,220.909 C163.0567,221.289 163.0137,221.731 162.7547,222.092 C161.4087,223.968 144.9877,227.725 141.7097,228.46 C137.4617,229.411 124.1737,232.262 117.6457,232.262" id="Fill-225" fill="#5E63B6" mask="url(#mask-2)"></path>
            <path d="M81.2305,59.9869 C81.2305,59.9869 81.7595,52.3669 89.2385,49.1549 C91.5195,48.1749 97.7375,47.7689 97.7375,47.7689 C97.7375,47.7689 99.6895,55.7779 94.6515,58.3049 C87.3995,61.9429 81.2305,59.9869 81.2305,59.9869" id="Fill-229" fill="#FFFFFF" mask="url(#mask-2)"></path>
            <path d="M82.3535,59.2233 C84.1965,59.5753 88.9155,60.0623 94.2035,57.4113 C97.5955,55.7093 97.2215,50.8013 96.9185,48.8343 C94.8335,49.0103 91.1255,49.4323 89.6325,50.0743 C84.2085,52.4033 82.7335,57.2733 82.3535,59.2233 M85.4975,61.5193 C82.8115,61.5193 81.0655,60.9843 80.9275,60.9403 L80.1785,60.7023 L80.2325,59.9173 C80.2555,59.5813 80.8955,51.6503 88.8435,48.2363 C91.2545,47.2013 97.4115,46.7883 97.6715,46.7713 L98.5095,46.7163 L98.7085,47.5333 C98.7955,47.8913 100.7845,56.3473 95.0995,59.1993 C91.4355,61.0373 88.0435,61.5193 85.4975,61.5193" id="Fill-231" fill="#5E63B6" mask="url(#mask-2)"></path>
            <path d="M100.298797,55.6227 C100.298797,55.6227 100.2538,45.2587 111.8708,43.4547 C114.0378,43.1177 116.8338,43.2627 116.8338,43.2627 C116.8338,43.2627 122.6048,54.0087 116.4858,55.2167 C108.9638,56.7007 100.298797,55.6227 100.298797,55.6227" id="Fill-234" fill="#FFFFFF" mask="url(#mask-2)"></path>
            <path d="M101.3633,54.7272 C103.7823,54.9472 110.4383,55.3912 116.2923,54.2352 C117.1423,54.0672 117.6813,53.6862 117.9893,53.0362 C119.0313,50.8312 117.2503,46.3382 116.2133,44.2422 C115.3103,44.2202 113.4973,44.2142 112.0243,44.4432 C103.2503,45.8052 101.6533,52.3102 101.3633,54.7272 M107.3663,57.0052 C103.3893,57.0052 100.3853,56.6412 100.1763,56.6152 L99.3023,56.5062 L99.2993,55.6262 C99.2993,55.5142 99.3923,44.3802 111.7173,42.4662 C113.9603,42.1192 116.7673,42.2592 116.8853,42.2632 L117.4483,42.2922 L117.7153,42.7892 C118.1143,43.5322 121.5623,50.1572 119.7983,53.8902 C119.2203,55.1112 118.1423,55.9092 116.6783,56.1982 C113.5213,56.8212 110.1973,57.0052 107.3663,57.0052" id="Fill-237" fill="#5E63B6" mask="url(#mask-2)"></path>
            <path d="M122.3936,55.819 C122.3936,55.819 123.9336,44.327 134.2566,47.49 C138.6666,48.84 141.1156,52.193 141.1156,52.193 C141.1156,52.193 139.0566,60.944 134.9506,59.959 C127.7796,58.239 122.3936,55.819 122.3936,55.819" id="Fill-240" fill="#FFFFFF" mask="url(#mask-2)"></path>
            <path d="M123.5273,55.2155 C125.2163,55.9165 129.6903,57.6685 135.1833,58.9865 C135.6593,59.1005 136.0903,59.0215 136.5453,58.7405 C138.2853,57.6705 139.5423,54.1785 140.0213,52.4345 C139.2873,51.5885 137.1723,49.4285 133.9643,48.4455 C131.3403,47.6445 129.1263,47.8005 127.3843,48.9155 C124.8563,50.5365 123.8593,53.7645 123.5273,55.2155 M135.5953,61.0375 C135.3053,61.0375 135.0123,61.0015 134.7163,60.9315 C127.5373,59.2095 122.2073,56.8315 121.9833,56.7315 L121.3033,56.4255 L121.4023,55.6865 C121.4343,55.4485 122.2273,49.8465 126.3053,47.2325 C128.5633,45.7855 131.3383,45.5515 134.5493,46.5335 C139.2243,47.9655 141.8143,51.4555 141.9233,51.6035 L142.1943,51.9745 L142.0893,52.4215 C141.9403,53.0505 140.5573,58.6175 137.5953,60.4435 C136.9533,60.8385 136.2833,61.0375 135.5953,61.0375" id="Fill-243" fill="#5E63B6" mask="url(#mask-2)"></path>
            <path d="M84.9336,57.9498 C84.9336,57.9498 85.2136,53.9218 89.1666,52.2238 C90.3726,51.7058 93.6606,51.4918 93.6606,51.4918 C93.6606,51.4918 94.6916,55.7248 92.0286,57.0608 C88.1956,58.9838 84.9336,57.9498 84.9336,57.9498" id="Fill-246" fill="#E1F2FF" mask="url(#mask-2)"></path>
            <path d="M104.775399,53.6823 C104.775399,53.6823 104.7504,47.9523 111.1724,46.9543 C112.3714,46.7693 113.9174,46.8493 113.9174,46.8493 C113.9174,46.8493 117.1074,52.7893 113.7244,53.4573 C109.5664,54.2793 104.775399,53.6823 104.775399,53.6823" id="Fill-249" fill="#E1F2FF" mask="url(#mask-2)"></path>
            <path d="M126.4482,54.9391 C126.4482,54.9391 127.2912,48.6521 132.9382,50.3821 C135.3512,51.1211 136.6912,52.9551 136.6912,52.9551 C136.6912,52.9551 135.5642,57.7431 133.3182,57.2051 C129.3942,56.2631 126.4482,54.9391 126.4482,54.9391" id="Fill-252" fill="#E1F2FF" mask="url(#mask-2)"></path>
            <path d="M153.9736,118.1051 C153.9736,118.1051 134.5656,121.6561 115.9216,117.5411 C114.3696,127.7311 113.4036,135.4191 113.4036,135.4191 C113.4036,135.4191 126.4766,143.8901 150.0906,138.1941 C152.5646,125.0931 153.9736,118.1051 153.9736,118.1051" id="Fill-255" fill="#FFFFFF" mask="url(#mask-2)"></path>
            <path d="M114.4795,134.8854 C117.1085,136.3034 129.3315,141.9874 149.2285,137.3704 C150.9845,128.0844 152.1955,121.9234 152.7115,119.3184 C147.9485,120.0194 132.1385,121.8994 116.7505,118.7394 C115.5615,126.6214 114.7365,132.8984 114.4795,134.8854 M134.2165,141.1804 C120.6625,141.1804 113.2675,136.5234 112.8595,136.2584 L112.3335,135.9174 L112.4115,135.2944 C112.4205,135.2184 113.3965,127.4774 114.9335,117.3904 L115.0935,116.3334 L116.1375,116.5644 C134.3585,120.5854 153.6035,117.1564 153.7935,117.1214 L155.2455,116.8564 L154.9545,118.3024 C154.9395,118.3724 153.5175,125.4364 151.0735,138.3794 L150.9535,139.0144 L150.3255,139.1654 C144.2515,140.6314 138.8715,141.1804 134.2165,141.1804" id="Fill-258" fill="#5E63B6" mask="url(#mask-2)"></path>
            <path d="M122.1611,99.1764 L98.7221,99.7654 L98.6631,97.4614 C98.4131,87.5074 106.2791,79.2364 116.2331,78.9864 L121.6501,78.8494 C126.6271,78.7244 130.7631,82.6574 130.8881,87.6344 L130.9451,89.9384 C131.0701,94.9144 127.1381,99.0504 122.1611,99.1764" id="Fill-261" fill="#E1F2FF" mask="url(#mask-2)"></path>
            <path d="M119.0381,98.8727 L99.0951,99.3737 C98.8731,90.5547 105.8441,83.2247 114.6631,83.0037 L118.8051,82.8987 C123.1681,82.7897 126.7941,86.2377 126.9041,90.6017 C127.0161,95.0577 123.4941,98.7607 119.0381,98.8727" id="Fill-264" fill="#FFFFFF" mask="url(#mask-2)"></path>
            <path d="M119.0049,83.8961 C118.9459,83.8961 118.8889,83.8971 118.8299,83.8991 L114.6889,84.0031 C110.6899,84.1031 106.9699,85.7541 104.2129,88.6531 C101.6879,91.3091 100.2479,94.7201 100.1019,98.3481 L119.0129,97.8731 C122.9099,97.7751 126.0019,94.5241 125.9039,90.6261 C125.8099,86.8801 122.7319,83.8961 119.0049,83.8961 L119.0049,83.8961 Z M98.1199,100.3981 L98.0949,99.3991 C97.9819,94.8661 99.6399,90.5601 102.7639,87.2751 C105.8889,83.9891 110.1059,82.1171 114.6379,82.0031 L118.7789,81.8991 C123.6929,81.7721 127.7809,85.6681 127.9039,90.5761 C128.0289,95.5761 124.0629,99.7471 119.0639,99.8731 L98.1199,100.3981 Z" id="Fill-267" fill="#5E63B6" mask="url(#mask-2)"></path>
            <path d="M104.0264,90.0514 C104.0884,92.5154 106.1344,94.4614 108.5974,94.4004 C111.0614,94.3374 113.0074,92.2904 112.9464,89.8274 C112.8834,87.3644 110.8374,85.4174 108.3744,85.4804 C105.9114,85.5414 103.9644,87.5884 104.0264,90.0514" id="Fill-270" fill="#5E63B6" mask="url(#mask-2)"></path>
            <path d="M71.9863,105.0768 L71.9863,105.0768 C73.2473,104.7728 74.3633,104.0418 75.1443,103.0068 L76.5913,101.0898 L73.2813,101.8868 L71.3313,102.3558 C70.5803,102.5368 70.1173,103.2928 70.2983,104.0448 C70.4793,104.7958 71.2353,105.2588 71.9863,105.0768" id="Fill-273" fill="#5E63B6" mask="url(#mask-2)"></path>
            <path d="M122.9209,121.1032 C122.9209,121.1032 137.7589,124.9222 150.6929,121.9962 C148.4819,131.7352 147.2579,134.8012 147.2579,134.8012 C147.2579,134.8012 127.6919,132.6912 122.9209,121.1032" id="Fill-276" fill="#E1F2FF" mask="url(#mask-2)"></path>
            <path d="M136.668,127.6178 C127.66,127.6178 121.747,126.2168 121.403,126.1328 C120.867,126.0028 120.538,125.4618 120.668,124.9258 C120.798,124.3888 121.328,124.0548 121.875,124.1888 C121.99,124.2168 133.585,126.9548 148.887,124.7388 C149.432,124.6438 149.94,125.0378 150.02,125.5848 C150.099,126.1318 149.72,126.6388 149.174,126.7178 C144.598,127.3808 140.371,127.6178 136.668,127.6178" id="Fill-279" fill="#ACD3EF" mask="url(#mask-2)"></path>
            <path d="M139.2715,201.2096 C137.4125,201.2096 135.8755,199.7216 135.8295,197.8536 C135.8225,197.5766 136.0405,197.3476 136.3165,197.3406 L136.3295,197.3406 C136.5995,197.3406 136.8225,197.5566 136.8295,197.8276 C136.8625,199.1736 137.9975,200.2756 139.3325,200.2086 C140.6775,200.1746 141.7465,199.0516 141.7125,197.7056 C141.7065,197.4296 141.9245,197.1996 142.2005,197.1926 L142.2125,197.1926 C142.4835,197.1926 142.7065,197.4086 142.7125,197.6806 C142.7595,199.5776 141.2535,201.1606 139.3575,201.2086 C139.3295,201.2096 139.2995,201.2096 139.2715,201.2096" id="Fill-282" fill="#E1F2FF" mask="url(#mask-2)"></path>
            <path d="M145.1514,201.0612 C144.2644,201.0612 143.4264,200.7262 142.7814,200.1132 C142.1154,199.4792 141.7354,198.6242 141.7134,197.7062 C141.7064,197.4292 141.9244,197.2002 142.2004,197.1932 L142.2134,197.1932 C142.4834,197.1932 142.7064,197.4092 142.7134,197.6802 C142.7284,198.3322 142.9984,198.9392 143.4704,199.3882 C143.9444,199.8392 144.5714,200.0912 145.2144,200.0602 C146.5614,200.0262 147.6304,198.9032 147.5954,197.5572 C147.5894,197.2812 147.8064,197.0512 148.0834,197.0442 C148.3644,197.0302 148.5894,197.2572 148.5954,197.5322 C148.6434,199.4292 147.1384,201.0122 145.2404,201.0602 C145.2104,201.0612 145.1804,201.0612 145.1514,201.0612" id="Fill-285" fill="#E1F2FF" mask="url(#mask-2)"></path>
            <path d="M142.2852,204.0768 C140.4272,204.0768 138.8912,202.5898 138.8452,200.7218 C138.8382,200.4448 139.0562,200.2158 139.3322,200.2088 L139.3452,200.2088 C139.6152,200.2088 139.8382,200.4248 139.8452,200.6958 C139.8612,201.3478 140.1312,201.9548 140.6032,202.4038 C141.0762,202.8548 141.7082,203.1018 142.3472,203.0758 C143.6942,203.0418 144.7622,201.9198 144.7272,200.5728 C144.7212,200.2968 144.9382,200.0668 145.2152,200.0598 C145.4822,200.0488 145.7212,200.2728 145.7272,200.5478 C145.7512,201.4678 145.4142,202.3408 144.7812,203.0068 C144.1472,203.6728 143.2922,204.0528 142.3732,204.0758 C142.3442,204.0768 142.3142,204.0768 142.2852,204.0768" id="Fill-288" fill="#E1F2FF" mask="url(#mask-2)"></path>
            <path d="M141.1807,107.6451 C139.1657,107.6451 137.5007,106.0321 137.4507,104.0061 C137.4437,103.7301 137.6607,103.5001 137.9377,103.4941 L137.9507,103.4941 C138.2207,103.4941 138.4437,103.7091 138.4507,103.9811 C138.4687,104.7101 138.7697,105.3901 139.2987,105.8931 C139.8277,106.3961 140.5267,106.6811 141.2507,106.6441 C141.9807,106.6251 142.6597,106.3251 143.1627,105.7951 C143.6657,105.2661 143.9327,104.5741 143.9137,103.8441 C143.9077,103.5681 144.1247,103.3381 144.4017,103.3321 C144.6597,103.3171 144.9077,103.5441 144.9137,103.8191 C144.9397,104.8161 144.5747,105.7621 143.8877,106.4851 C143.2007,107.2081 142.2737,107.6191 141.2767,107.6441 C141.2437,107.6451 141.2127,107.6451 141.1807,107.6451" id="Fill-291" fill="#E1F2FF" mask="url(#mask-2)"></path>
            <path d="M144.4941,110.7965 C142.4791,110.7965 140.8141,109.1835 140.7641,107.1565 C140.7571,106.8805 140.9741,106.6505 141.2511,106.6445 L141.2641,106.6445 C141.5341,106.6445 141.7571,106.8595 141.7641,107.1315 C141.8021,108.6385 143.0831,109.8435 144.5641,109.7955 C145.2941,109.7765 145.9731,109.4765 146.4761,108.9465 C146.9791,108.4175 147.2461,107.7245 147.2271,106.9945 C147.2211,106.7185 147.4381,106.4885 147.7151,106.4825 L147.7271,106.4825 C147.9981,106.4825 148.2211,106.6975 148.2271,106.9695 C148.2791,109.0265 146.6471,110.7435 144.5901,110.7955 C144.5571,110.7965 144.5261,110.7965 144.4941,110.7965" id="Fill-294" fill="#E1F2FF" mask="url(#mask-2)"></path>
            <path d="M136.6562,153.9694 C134.9212,153.9694 133.4882,152.5804 133.4432,150.8364 C133.4362,150.5604 133.6542,150.3304 133.9302,150.3234 C134.2312,150.3104 134.4362,150.5364 134.4432,150.8114 C134.4732,152.0314 135.4772,153.0454 136.7122,152.9684 C137.9322,152.9374 138.9002,151.9194 138.8692,150.6994 C138.8622,150.4234 139.0802,150.1944 139.3562,150.1874 C139.6512,150.1734 139.8622,150.4004 139.8692,150.6744 C139.8902,151.5324 139.5772,152.3474 138.9852,152.9694 C138.3932,153.5914 137.5952,153.9464 136.7372,153.9684 C136.7102,153.9694 136.6832,153.9694 136.6562,153.9694" id="Fill-297" fill="#E1F2FF" mask="url(#mask-2)"></path>
            <path d="M71.2031,93.2692 C69.8341,93.2692 68.7041,92.1732 68.6691,90.7972 C68.6621,90.5212 68.8801,90.2912 69.1561,90.2852 C69.4701,90.2832 69.6621,90.4972 69.6691,90.7722 C69.6891,91.6172 70.4081,92.2922 71.2421,92.2682 C72.0891,92.2472 72.7601,91.5412 72.7381,90.6952 C72.7311,90.4182 72.9491,90.1892 73.2251,90.1822 C73.5171,90.2132 73.7311,90.3942 73.7381,90.6692 C73.7731,92.0672 72.6651,93.2332 71.2671,93.2682 C71.2461,93.2682 71.2241,93.2692 71.2031,93.2692" id="Fill-300" fill="#E1F2FF" mask="url(#mask-2)"></path>
            <path d="M232.0479,206.528 L215.9909,206.528 C216.5899,204.48 216.9229,202.32 216.9229,200.079 C216.9229,187.368 206.6189,177.063 193.9079,177.063 C183.7769,177.063 175.1829,183.611 172.1079,192.704 C171.0249,192.462 169.8999,192.33 168.7429,192.33 C160.6489,192.33 154.0279,198.588 153.4219,206.528 L139.7049,206.563 C139.1679,196.956 131.7589,189.186 122.2999,188.124 C119.2419,173.287 106.1069,162.131 90.3629,162.131 C79.6549,162.131 70.1529,167.293 64.2079,175.263 C62.1419,174.745 59.9809,174.466 57.7539,174.466 C43.1519,174.466 31.3129,186.304 31.3129,200.908 C31.3129,202.85 31.5279,204.741 31.9279,206.563 L15.6669,206.563 L34.5342,222.3363" id="Fill-304" fill="#FFFFFF" mask="url(#mask-2)"></path>
            <path d="M138.7598,207.5651 L138.7068,206.6191 C138.1968,197.4961 131.2498,190.1351 122.1888,189.1181 L121.4668,189.0371 L121.3208,188.3261 C118.3118,173.7261 105.2918,163.1301 90.3638,163.1301 C80.2848,163.1301 71.0438,167.7711 65.0098,175.8611 L64.6118,176.3951 L63.9648,176.2331 C61.9378,175.7241 59.8478,175.4661 57.7538,175.4661 C43.7258,175.4661 32.3128,186.8791 32.3128,200.9081 C32.3128,202.7261 32.5118,204.5561 32.9048,206.3491 L33.1708,207.5631 L15.6668,207.5631 C15.1138,207.5631 14.6668,207.1161 14.6668,206.5631 C14.6668,206.0101 15.1138,205.5631 15.6668,205.5631 L30.7128,205.5631 C30.4468,204.0211 30.3128,202.4611 30.3128,200.9081 C30.3128,185.7771 42.6228,173.4661 57.7538,173.4661 C59.7898,173.4661 61.8228,173.6931 63.8068,174.1391 C70.2268,165.8631 79.8678,161.1301 90.3638,161.1301 C105.9968,161.1301 119.6618,172.0611 123.1268,187.2221 C132.4978,188.6021 139.6768,196.1391 140.6288,205.5611 L152.5218,205.5301 C153.5978,197.4961 160.5508,191.3301 168.7428,191.3301 C169.6468,191.3301 170.5558,191.4061 171.4558,191.5571 C174.9828,182.2531 183.8968,176.0631 193.9078,176.0631 C207.1508,176.0631 217.9228,186.8361 217.9228,200.0791 C217.9228,201.9031 217.7098,203.7301 217.2878,205.5281 L232.0478,205.5281 C232.6008,205.5281 233.0478,205.9751 233.0478,206.5281 C233.0478,207.0811 232.6008,207.5281 232.0478,207.5281 L214.6568,207.5281 L215.0308,206.2481 C215.6228,204.2241 215.9228,202.1481 215.9228,200.0791 C215.9228,187.9391 206.0468,178.0631 193.9078,178.0631 C184.4618,178.0631 176.0808,184.0761 173.0548,193.0241 L172.7668,193.8761 L171.8898,193.6791 C170.8508,193.4481 169.7918,193.3301 168.7428,193.3301 C161.2798,193.3301 154.9878,199.1611 154.4188,206.6041 L154.3488,207.5261 L138.7598,207.5651 Z" id="Fill-306" fill="#ACD3EF" mask="url(#mask-2)"></path>
        </g>
        <path d="M161.5918,217.318 C161.5918,233.529 148.4508,246.67 132.2398,246.67 C116.0288,246.67 102.8888,233.529 102.8888,217.318 C102.8888,201.108 116.0288,187.966 132.2398,187.966 C148.4508,187.966 161.5918,201.108 161.5918,217.318" id="Fill-308" fill="#FFFFFF"></path>
        <path d="M133.2402,188.9664 C117.6072,188.9664 104.8882,201.6854 104.8882,217.3184 C104.8882,232.9504 117.6072,245.6694 133.2402,245.6694 C148.8732,245.6694 161.5922,232.9504 161.5922,217.3184 C161.5922,201.6854 148.8732,188.9664 133.2402,188.9664 M133.2402,247.6694 C116.5042,247.6694 102.8882,234.0544 102.8882,217.3184 C102.8882,200.5814 116.5042,186.9664 133.2402,186.9664 C149.9762,186.9664 163.5922,200.5814 163.5922,217.3184 C163.5922,234.0544 149.9762,247.6694 133.2402,247.6694" id="Fill-310" fill="#5E63B6"></path>
        <path d="M140.0615,232.3053 L120.4185,232.3053 C119.3145,232.3053 118.4185,231.4093 118.4185,230.3053 L118.4185,214.3673 C118.4185,213.2623 119.3145,212.3673 120.4185,212.3673 L140.0615,212.3673 C141.1655,212.3673 142.0615,213.2623 142.0615,214.3673 L142.0615,230.3053 C142.0615,231.4093 141.1655,232.3053 140.0615,232.3053" id="Fill-312" fill="#E1F2FF"></path>
        <path d="M142.0615,229.3053 L122.4185,229.3053 C121.3145,229.3053 120.4185,228.4093 120.4185,227.3053 L120.4185,211.3673 C120.4185,210.2623 121.3145,209.3673 122.4185,209.3673 L142.0615,209.3673 C143.1655,209.3673 144.0615,210.2623 144.0615,211.3673 L144.0615,227.3053 C144.0615,228.4093 143.1655,229.3053 142.0615,229.3053" id="Fill-314" fill="#FFFFFF"></path>
        <path d="M123.4189,210.3668 C122.8669,210.3668 122.4189,210.8148 122.4189,211.3668 L122.4189,227.3048 C122.4189,227.8568 122.8669,228.3048 123.4189,228.3048 L143.0619,228.3048 C143.6129,228.3048 144.0619,227.8568 144.0619,227.3048 L144.0619,211.3668 C144.0619,210.8148 143.6129,210.3668 143.0619,210.3668 L123.4189,210.3668 Z M143.0619,230.3048 L123.4189,230.3048 C121.7649,230.3048 120.4189,228.9598 120.4189,227.3048 L120.4189,211.3668 C120.4189,209.7128 121.7649,208.3668 123.4189,208.3668 L143.0619,208.3668 C144.7159,208.3668 146.0619,209.7128 146.0619,211.3668 L146.0619,227.3048 C146.0619,228.9598 144.7159,230.3048 143.0619,230.3048 L143.0619,230.3048 Z" id="Fill-316" fill="#ACD3EF"></path>
        <path d="M135.8154,217.8717 C135.8154,219.2947 134.6634,220.4477 133.2404,220.4477 C131.8174,220.4477 130.6654,219.2947 130.6654,217.8717 C130.6654,216.4497 131.8174,215.2967 133.2404,215.2967 C134.6634,215.2967 135.8154,216.4497 135.8154,217.8717" id="Fill-318" fill="#ACD3EF"></path>
        <path d="M133.21,223.653 L133.21,223.653 C132.398,223.653 131.741,222.996 131.741,222.184 L131.741,217.278 L134.679,217.278 L134.679,222.184 C134.679,222.996 134.021,223.653 133.21,223.653" id="Fill-320" fill="#ACD3EF"></path>
        <path d="M125.9912,208.3668 L140.6162,208.3668 L140.6162,206.2938 C140.6162,202.2618 137.3362,198.9808 133.3032,198.9808 C129.2712,198.9808 125.9912,202.2618 125.9912,206.2938 L125.9912,208.3668 Z M142.6162,210.3668 L123.9912,210.3668 L123.9912,206.2938 C123.9912,201.1588 128.1692,196.9808 133.3032,196.9808 C138.4382,196.9808 142.6162,201.1588 142.6162,206.2938 L142.6162,210.3668 Z" id="Fill-322" fill="#ACD3EF"></path>
        <path d="M141.6162,226.9518 C141.0632,226.9518 140.6162,226.5048 140.6162,225.9518 L140.6162,215.2968 C140.6162,214.7438 141.0632,214.2968 141.6162,214.2968 C142.1692,214.2968 142.6162,214.7438 142.6162,215.2968 L142.6162,225.9518 C142.6162,226.5048 142.1692,226.9518 141.6162,226.9518" id="Fill-324" fill="#E1F2FF"></path>
    </g>
</svg>
