<svg width="256px" height="256px" viewBox="0 0 256 256" version="1.1" xmlns="http://www.w3.org/2000/svg" xmlns:xlink="http://www.w3.org/1999/xlink">
    <defs>
        <path d="M0,103.84 L207.12,103.84 C207.12,46.64 160.76,0.28 103.56,0.28 L103.56,0.28 C46.36,0.28 0,46.64 0,103.84 L0,103.84 Z" id="path-1"></path>
        <path d="M22.418,0.28 L19.317,0.35 C14.097,0.48 9.437,2.68 6.097,6.15 L6.097,6.15 C5.697,6.57 5.297,7.03 4.917,7.5 L4.917,7.5 C4.237,8.35 3.637,9.27 3.116,10.23 L3.116,10.23 C2.917,10.6 2.737,10.96 2.566,11.33 L2.566,11.33 L2.207,12.17 C1.857,13.01 1.587,13.87 1.367,14.77 L1.367,14.77 C1.167,15.67 1.017,16.61 0.947,17.55 L0.947,17.55 C0.923,17.851 0.906,18.154 0.897,18.457 L0.897,18.457 L0.897,19.45 C0.918,20.75 1.477,21.89 2.347,22.72 L2.347,22.72 C3.217,23.541 4.407,24.02 5.717,24.001 L5.717,24.001 L25.048,23.52 L22.547,40.17 C22.378,41.133 22.223,42.077 22.081,43.005 L22.081,43.005 C22.637,43.035 23.195,43.05 23.757,43.05 L23.757,43.05 C29.25,43.05 34.393,41.599 38.827,39.067 L38.827,39.067 C38.917,38.337 39.031,37.623 39.168,36.93 L39.168,36.93 L40.987,27.67 C41.588,24.63 41.857,21.54 41.787,18.45 L41.787,18.45 C41.737,17.15 41.588,15.9 41.286,14.7 L41.286,14.7 C41.227,14.4 41.147,14.1 41.057,13.8 L41.057,13.8 C40.807,12.9 40.487,12.05 40.107,11.22 L40.107,11.22 L39.708,10.4 C39.407,9.87 39.107,9.35 38.787,8.84 L38.787,8.84 C38.458,8.34 38.107,7.84 37.727,7.38 L37.727,7.38 C36.607,5.98 35.277,4.73 33.797,3.7 L33.797,3.7 C33.297,3.35 32.777,3.03 32.258,2.73 L32.258,2.73 C29.522,1.163 26.335,0.273 22.956,0.273 L22.956,0.273 C22.777,0.273 22.598,0.275 22.418,0.28 L22.418,0.28 Z" id="path-3"></path>
        <path d="M22.947,0.761 C22.765,0.761 22.583,0.763 22.4,0.768 L22.4,0.768 L19.3,0.838 C14.131,0.968 9.3,3.088 5.72,6.798 L5.72,6.798 C5.291,7.238 4.89,7.698 4.49,8.197 L4.49,8.197 C3.8,9.058 3.18,9.998 2.64,10.998 L2.64,10.998 C2.41,11.438 2.23,11.788 2.08,12.138 L2.08,12.138 L1.711,12.998 C1.37,13.878 1.07,14.778 0.87,15.678 L0.87,15.678 C0.65,16.618 0.5,17.568 0.43,18.518 L0.43,18.518 C0.407,18.893 0.388,19.271 0.38,19.653 L0.38,19.653 L0.38,20.193 C0.382,20.294 0.386,20.396 0.39,20.498 L0.39,20.498 C0.409,21.858 0.99,23.148 1.99,24.098 L1.99,24.098 C3,25.048 4.34,25.548 5.74,25.518 L5.74,25.518 L24.44,25.048 L22.041,41.088 C21.87,42.061 21.711,43.021 21.566,43.971 L21.566,43.971 C21.91,43.995 22.257,44.014 22.604,44.027 L22.604,44.027 C22.745,43.115 22.897,42.192 23.06,41.258 L23.06,41.258 L25.66,24.008 L5.71,24.508 C4.591,24.548 3.529,24.128 2.71,23.378 L2.71,23.378 C1.91,22.598 1.44,21.578 1.41,20.478 L1.41,20.478 C1.4,19.858 1.41,19.228 1.46,18.628 L1.46,18.628 C1.53,17.729 1.67,16.808 1.89,15.928 L1.89,15.928 C2.09,15.068 2.35,14.198 2.69,13.368 L2.69,13.368 L3.03,12.568 C3.17,12.238 3.35,11.887 3.57,11.488 L3.57,11.488 C4.09,10.548 4.671,9.648 5.32,8.818 L5.32,8.818 C5.68,8.378 6.079,7.919 6.48,7.518 L6.48,7.518 C9.86,3.988 14.42,1.988 19.32,1.888 L19.32,1.888 L22.421,1.789 C25.79,1.717 29.119,2.538 32.02,4.188 L32.02,4.188 C32.529,4.478 33.03,4.798 33.5,5.128 L33.5,5.128 C34.939,6.128 36.22,7.348 37.32,8.729 L37.32,8.729 C37.68,9.178 38.041,9.648 38.341,10.148 L38.341,10.148 C38.67,10.637 38.971,11.148 39.24,11.668 L39.24,11.668 L39.62,12.468 C40,13.268 40.31,14.118 40.55,14.968 L40.55,14.968 L40.79,15.838 C41.06,17.028 41.23,18.258 41.26,19.488 L41.26,19.488 C41.329,22.538 41.079,25.608 40.48,28.588 L40.48,28.588 L38.65,37.838 C38.488,38.66 38.359,39.511 38.261,40.384 L38.261,40.384 C38.645,40.175 39.023,39.959 39.396,39.735 L39.396,39.735 C39.476,39.151 39.57,38.577 39.68,38.018 L39.68,38.018 L41.51,28.768 C42.11,25.708 42.381,22.568 42.31,19.438 L42.31,19.438 C42.27,18.138 42.11,16.847 41.81,15.588 L41.81,15.588 L41.58,14.669 C41.31,13.768 40.98,12.878 40.58,12.018 L40.58,12.018 C40.46,11.738 40.32,11.468 40.18,11.168 L40.18,11.168 C39.89,10.637 39.58,10.088 39.251,9.568 L39.251,9.568 C38.9,9.068 38.55,8.548 38.15,8.068 L38.15,8.068 C37.01,6.618 35.64,5.348 34.11,4.288 L34.11,4.288 C33.6,3.928 33.07,3.588 32.529,3.288 L32.529,3.288 C29.618,1.638 26.329,0.761 22.952,0.761 L22.952,0.761 C22.95,0.761 22.949,0.761 22.947,0.761 L22.947,0.761 Z" id="path-5"></path>
        <path d="M3.84,1.49 C0.59,2.87 0.36,6.139 0.36,6.139 L0.36,6.139 L0.36,6.15 C0.36,6.15 3.041,6.98 6.18,5.43 L6.18,5.43 C8.37,4.34 7.52,0.91 7.52,0.91 L7.52,0.91 C7.52,0.91 4.84,1.09 3.84,1.49 L3.84,1.49 Z" id="path-7"></path>
        <path d="M8.5,0.38 C8.21,0.4 5.68,0.57 4.64,1.02 L4.64,1.02 C1.16,2.49 0.86,5.94 0.86,6.09 L0.86,6.09 L0.83,6.49 L1.21,6.61 C1.28,6.63 2.04,6.87 3.21,6.87 L3.21,6.87 L3.22,6.88 C4.32,6.88 5.82,6.679 7.42,5.88 L7.42,5.88 C9.94,4.62 9.06,0.94 9.02,0.78 L9.02,0.78 L8.921,0.36 L8.5,0.38 Z M5.041,1.96 C5.66,1.7 7.2,1.521 8.1,1.46 L8.1,1.46 C8.23,2.31 8.35,4.26 6.95,4.96 L6.95,4.96 C4.75,6.04 2.791,5.89 1.95,5.74 L1.95,5.74 L1.94,5.74 C2.14,4.88 2.791,2.92 5.041,1.96 L5.041,1.96 Z" id="path-9"></path>
        <path d="M5.65,1.05 C0.61,1.82 0.630999278,6.28 0.630999278,6.28 L0.630999278,6.28 L0.64,6.27 C0.64,6.27 4.4,6.72 7.671,6.07 L7.671,6.07 C10.31,5.57 7.81,0.97 7.81,0.97 L7.81,0.97 C7.81,0.97 7.55,0.957 7.177,0.957 L7.177,0.957 C6.743,0.957 6.156,0.975 5.65,1.05 L5.65,1.05 Z" id="path-11"></path>
        <path d="M5.55,0.55 C0.14,1.38 0.1,6.22 0.1,6.28 L0.1,6.28 L0.1,6.71 L0.551,6.77 C0.64,6.779 1.95,6.94 3.68,6.94 L3.68,6.94 C4.909,6.94 6.36,6.86 7.74,6.581 L7.74,6.581 C8.4,6.45 8.89,6.1 9.14,5.55 L9.14,5.55 C9.94,3.92 8.42,1.04 8.239,0.72 L8.239,0.72 L8.11,0.47 L7.81,0.45 C7.786,0.45 7.581,0.442 7.28,0.442 L7.28,0.442 C6.825,0.442 6.151,0.46 5.55,0.55 L5.55,0.55 Z M5.72,1.56 C6.329,1.46 7.07,1.46 7.49,1.48 L7.49,1.48 C8.03,2.57 8.63,4.331 8.23,5.13 L8.23,5.13 C8.159,5.29 8.001,5.51 7.56,5.59 L7.56,5.59 C5.1,6.07 2.3,5.91 1.2,5.81 L1.2,5.81 L1.18,5.81 C1.32,4.73 2.07,2.12 5.72,1.56 L5.72,1.56 Z" id="path-13"></path>
        <path d="M0.22,4.35 C0.22,4.35 2.57,5.39 5.671,6.12 L5.671,6.12 C7.44,6.55 8.34,2.8 8.34,2.8 L8.34,2.8 C8.34,2.8 7.28,1.36 5.36,0.78 L5.36,0.78 C4.821,0.617 4.337,0.545 3.903,0.545 L3.903,0.545 C0.738,0.546 0.22,4.35 0.22,4.35 L0.22,4.35 Z" id="path-15"></path>
        <path d="M2.91,0.58 C1.109,1.719 0.76,4.159 0.74,4.26 L0.74,4.26 L0.68,4.64 L1.029,4.8 C1.119,4.84 3.44,5.86 6.56,6.6 L6.56,6.6 C6.699,6.63 6.83,6.66 6.96,6.66 L6.96,6.66 L6.98,6.65 C7.301,6.65 7.6,6.561 7.9,6.39 L7.9,6.39 C9.21,5.59 9.82,3.17 9.88,2.889 L9.88,2.889 L9.94,2.66 L9.8,2.48 C9.76,2.41 8.61,0.88 6.56,0.279 L6.56,0.279 C5.986,0.102 5.443,0.014 4.933,0.014 L4.933,0.014 C4.183,0.014 3.505,0.205 2.91,0.58 L2.91,0.58 Z M6.8,5.64 C4.48,5.08 2.579,4.36 1.801,4.041 L1.801,4.041 L1.82,4.03 C1.97,3.39 2.4,2.11 3.44,1.449 L3.44,1.449 C4.17,0.99 5.11,0.92 6.211,1.27 L6.211,1.27 C7.55,1.67 8.44,2.54 8.77,2.92 L8.77,2.92 C8.56,3.67 8.03,5.1 7.301,5.54 L7.301,5.54 C7.18,5.615 7.053,5.651 6.926,5.651 L6.926,5.651 C6.884,5.651 6.842,5.647 6.8,5.64 L6.8,5.64 Z" id="path-17"></path>
        <path d="M12.35,0.55 C9.579,0.98 9.579,3.43 9.579,3.43 L9.579,3.43 L9.579,3.44 C9.579,3.44 11.65,3.69 13.45,3.34 L13.45,3.34 C14.93,3.05 13.55,0.51 13.55,0.51 L13.55,0.51 C13.55,0.51 13.382,0.5 13.149,0.5 L13.149,0.5 C12.913,0.5 12.611,0.51 12.35,0.55 L12.35,0.55 Z M18.981,3.97 C19.029,3.991 20.293,4.548 21.96,4.94 L21.96,4.94 C22.921,5.18 23.42,3.12 23.42,3.12 L23.42,3.12 C23.42,3.12 22.841,2.34 21.78,2.02 L21.78,2.02 C21.486,1.931 21.222,1.892 20.985,1.892 L20.985,1.892 C19.329,1.892 19.005,3.814 18.981,3.97 L18.981,3.97 Z M2.8,2.81 C1.09,3.54 0.97,5.26 0.97,5.26 L0.97,5.26 C0.97,5.26 2.38,5.71 4.051,4.88 L4.051,4.88 C5.2,4.311 4.751,2.51 4.751,2.51 L4.751,2.51 C4.751,2.51 3.33,2.59 2.8,2.81 L2.8,2.81 Z M18.98,3.98 C18.98,3.98 18.98,3.977 18.981,3.97 L18.981,3.97 C18.98,3.97 18.98,3.969 18.98,3.969 L18.98,3.969 L18.98,3.98 Z" id="path-19"></path>
        <path d="M0.32,8.46 C0.32,8.46 5.99,12.09 16.22,9.66 L16.22,9.66 L17.92,1.041 C17.92,1.041 9.501,2.56 1.42,0.8 L1.42,0.8 C0.74,5.17 0.32,8.46 0.32,8.46 L0.32,8.46 Z" id="path-21"></path>
        <path d="M1.91,0.74 C1.24,5.07 0.81,8.38 0.81,8.42 L0.81,8.42 L0.77,8.74 L1.051,8.9 C1.221,9.02 4.45,11.02 10.35,11.02 L10.35,11.02 L10.37,11.02 C12.391,11.02 14.73,10.79 17.369,10.159 L17.369,10.159 L17.69,10.09 L17.74,9.76 C18.81,4.22 19.44,1.19 19.44,1.159 L19.44,1.159 L19.59,0.421 L18.829,0.56 C18.751,0.57 10.43,2.04 2.53,0.32 L2.53,0.32 L1.99,0.2 L1.91,0.74 Z M2.841,1.41 C9.38,2.72 16.08,1.96 18.28,1.66 L18.28,1.66 C18.03,2.83 17.52,5.41 16.78,9.23 L16.78,9.23 C8.332,11.15 3.103,8.832 1.882,8.18 L1.882,8.18 C1.993,7.271 2.342,4.668 2.841,1.41 L2.841,1.41 Z" id="path-23"></path>
        <path d="M10.4,0.23 L9.551,0.25 C4.68,0.38 0.83,4.38 0.949,9.18 L0.949,9.18 L10.62,8.94 C13.05,8.88 14.98,6.88 14.92,4.48 L14.92,4.48 C14.851,2.107 12.892,0.229 10.513,0.229 L10.513,0.229 C10.475,0.229 10.438,0.229 10.4,0.23 L10.4,0.23 Z" id="path-25"></path>
        <path d="M8.68,0.95 L6.88,1 C3.05,1.101 0.029,4.23 0.11,8 L0.11,8 L8.76,7.8 L8.779,7.8 C10.7,7.75 12.23,6.15 12.18,4.25 L12.18,4.25 C12.14,2.406 10.621,0.949 8.757,0.949 L8.757,0.949 C8.731,0.949 8.706,0.95 8.68,0.95 L8.68,0.95 Z" id="path-27"></path>
        <path d="M7.85,0.47 C5.87,0.53 4.02,1.34 2.65,2.77 L2.65,2.77 C1.28,4.2 0.56,6.061 0.61,8.04 L0.61,8.04 L0.61,8.53 L9.77,8.3 C10.85,8.27 11.85,7.84 12.6,7.07 L12.6,7.07 C13.33,6.3 13.72,5.29 13.7,4.23 L13.7,4.23 C13.68,3.2 13.24,2.22 12.48,1.5 L12.48,1.5 C11.721,0.79 10.72,0.43 9.65,0.43 L9.65,0.43 L7.85,0.47 Z M3.38,3.48 C4.579,2.25 6.18,1.55 7.88,1.51 L7.88,1.51 L9.68,1.46 L9.751,1.46 L9.76,1.46 C10.5,1.46 11.21,1.74 11.76,2.26 L11.76,2.26 C12.32,2.78 12.64,3.5 12.659,4.26 L12.659,4.26 C12.68,5.05 12.39,5.8 11.84,6.38 L11.84,6.38 C11.29,6.94 10.541,7.28 9.74,7.28 L9.74,7.28 L1.64,7.48 C1.72,5.98 2.329,4.58 3.38,3.48 L3.38,3.48 Z M0.61,8.53 L0.61,8.54 L0.61,8.53 Z" id="path-29"></path>
        <path d="M17.13,0.06 C16.07,0.09 15.23,0.96 15.251,2.02 L15.251,2.02 C15.279,3.07 16.171,3.92 17.23,3.88 L17.23,3.88 C18.3,3.86 19.15,2.98 19.131,1.92 L19.131,1.92 C19.091,0.894 18.25,0.059 17.202,0.059 L17.202,0.059 C17.178,0.059 17.154,0.059 17.13,0.06 L17.13,0.06 Z M1.91,7.09 L1.079,7.291 C0.751,7.39 0.55,7.69 0.63,8.029 L0.63,8.029 C0.71,8.35 1.03,8.55 1.36,8.47 L1.36,8.47 L1.35,8.46 C1.9,8.33 2.381,8.01 2.72,7.561 L2.72,7.561 L3.35,6.76 L1.91,7.09 Z" id="path-31"></path>
        <path d="M11,6.21 C11,6.21 11.54,4.88 12.501,0.71 L12.501,0.71 C6.88,1.96 0.45,0.33 0.45,0.33 L0.45,0.33 C2.52,5.29 11,6.21 11,6.21 L11,6.21 Z" id="path-33"></path>
        <path d="M0.39,0.94 C0.32,1.22 0.489,1.49 0.77,1.561 L0.77,1.561 C0.921,1.6 3.501,2.199 7.4,2.199 L7.4,2.199 C9.011,2.199 10.84,2.1 12.84,1.8 L12.84,1.8 C13.12,1.76 13.32,1.5 13.29,1.22 L13.29,1.22 C13.23,0.94 12.971,0.751 12.69,0.79 L12.69,0.79 C6.069,1.74 1.05,0.57 0.99,0.57 L0.99,0.57 C0.949,0.559 0.908,0.554 0.868,0.554 L0.868,0.554 C0.643,0.554 0.441,0.711 0.39,0.94 L0.39,0.94 Z" id="path-35"></path>
        <path d="M2.82,0.89 C2.68,0.89 2.56,1.01 2.579,1.15 L2.579,1.15 C2.579,1.42 2.48,1.68 2.28,1.88 L2.28,1.88 C2.1,2.08 1.85,2.18 1.579,2.18 L1.579,2.18 L1.551,2.18 C1.001,2.18 0.55,1.75 0.53,1.2 L0.53,1.2 C0.53,1.05 0.41,0.95 0.27,0.95 L0.27,0.95 C0.11,0.96 0.01,1.08 0.01,1.22 L0.01,1.22 C0.04,2.04 0.71,2.68 1.541,2.68 L1.541,2.68 L1.56,2.699 L1.6,2.699 C2.44,2.68 3.119,1.99 3.101,1.15 L3.101,1.15 C3.091,1.01 2.98,0.89 2.84,0.89 L2.84,0.89 L2.82,0.89 Z" id="path-37"></path>
        <path d="M3.13,1.1 C3.13,1.37 3.03,1.63 2.829,1.83 L2.829,1.83 C2.65,2.01 2.4,2.13 2.13,2.13 L2.13,2.13 C1.579,2.17 1.101,1.7 1.08,1.15 L1.08,1.15 C1.08,1.01 0.97,0.89 0.83,0.89 L0.83,0.89 L0.81,0.89 C0.66,0.89 0.56,1.01 0.56,1.15 L0.56,1.15 C0.579,1.98 1.26,2.63 2.1,2.63 L2.1,2.63 L2.1,2.65 L2.14,2.65 C2.55,2.64 2.93,2.48 3.21,2.18 L3.21,2.18 C3.501,1.9 3.64,1.5 3.64,1.1 L3.64,1.1 C3.63,0.95 3.52,0.85 3.369,0.85 L3.369,0.85 C3.23,0.85 3.13,0.97 3.13,1.1 L3.13,1.1 Z" id="path-39"></path>
        <path d="M3.51,0.94 C3.541,1.561 3.04,2.09 2.409,2.09 L2.409,2.09 C1.79,2.13 1.239,1.62 1.239,0.99 L1.239,0.99 C1.23,0.84 1.12,0.74 0.97,0.74 L0.97,0.74 C0.83,0.74 0.71,0.86 0.71,1 L0.71,1 C0.73,1.9 1.471,2.6 2.37,2.6 L2.37,2.6 L2.39,2.6 L2.42,2.6 C3.34,2.58 4.06,1.82 4.04,0.92 L4.04,0.92 C4.04,0.78 3.92,0.679 3.77,0.679 L3.77,0.679 C3.631,0.679 3.51,0.8 3.51,0.94 L3.51,0.94 Z M3.87,42.38 C3.87,42.65 3.77,42.91 3.6,43.11 L3.6,43.11 C3.409,43.29 3.16,43.41 2.88,43.41 L2.88,43.41 L2.86,43.41 C2.31,43.41 1.84,42.98 1.84,42.43 L1.84,42.43 C1.84,42.28 1.72,42.18 1.579,42.18 L1.579,42.18 C1.43,42.19 1.31,42.3 1.31,42.45 L1.31,42.45 C1.329,43.27 2.02,43.92 2.85,43.92 L2.85,43.92 L2.85,43.91 L2.88,43.91 C3.73,43.89 4.4,43.19 4.38,42.37 L4.38,42.37 C4.38,42.22 4.261,42.12 4.119,42.12 L4.119,42.12 C3.97,42.12 3.87,42.24 3.87,42.38 L3.87,42.38 Z" id="path-41"></path>
        <path d="M2.94,0.3 C2.961,0.6 2.84,0.9 2.64,1.1 L2.64,1.1 C2.44,1.32 2.14,1.45 1.84,1.45 L1.84,1.45 C1.52,1.45 1.24,1.351 1.02,1.15 L1.02,1.15 C0.8,0.929 0.66,0.65 0.66,0.35 L0.66,0.35 C0.66,0.21 0.541,0.09 0.4,0.09 L0.4,0.09 C0.26,0.09 0.14,0.21 0.16,0.35 L0.16,0.35 C0.16,0.8 0.34,1.2 0.66,1.5 L0.66,1.5 C0.97,1.79 1.38,1.95 1.801,1.95 L1.801,1.95 L1.82,1.95 L1.86,1.95 C2.31,1.95 2.711,1.77 3.01,1.45 L3.01,1.45 C3.32,1.13 3.47,0.72 3.47,0.29 L3.47,0.29 C3.46,0.14 3.351,0.04 3.199,0.04 L3.199,0.04 C3.06,0.04 2.94,0.16 2.94,0.3 L2.94,0.3 Z" id="path-43"></path>
        <path d="M0.016,0.931 L0.349,0.827 C0.315,0.812 0.276,0.805 0.232,0.805 L0.232,0.805 C0.135,0.805 0.058,0.856 0.016,0.931 L0.016,0.931 Z" id="path-45"></path>
        <path d="M2.63,0.3 C2.63,0.46 2.57,0.63 2.45,0.73 L2.45,0.73 C2.34,0.86 2.18,0.93 2.02,0.93 L2.02,0.93 C1.85,0.92 1.69,0.86 1.57,0.76 L1.57,0.76 C1.449,0.63 1.39,0.49 1.39,0.33 L1.39,0.33 C1.38,0.18 1.27,0.08 1.12,0.08 L1.12,0.08 C0.971,0.08 0.87,0.2 0.87,0.34 L0.87,0.34 C0.881,0.639 1.01,0.92 1.23,1.14 L1.23,1.14 C1.44,1.34 1.72,1.44 2,1.44 L2,1.44 L2.03,1.44 C2.329,1.43 2.609,1.31 2.83,1.08 L2.83,1.08 C3.03,0.88 3.131,0.58 3.131,0.28 L3.131,0.28 C3.131,0.13 3.01,0.03 2.88,0.03 L2.88,0.03 C2.73,0.04 2.63,0.15 2.63,0.3 L2.63,0.3 Z" id="path-47"></path>
        <path d="M10.31,3.412 C9.751,3.732 9.21,4.072 8.71,4.452 L8.71,4.452 C7.149,5.552 5.76,6.892 4.6,8.392 L4.6,8.392 C4.199,8.902 3.829,9.422 3.5,9.951 L3.5,9.951 C3.15,10.492 2.829,11.052 2.53,11.622 L2.53,11.622 L2.13,12.502 C1.73,13.382 1.4,14.312 1.13,15.261 L1.13,15.261 L0.88,16.222 C0.579,17.511 0.42,18.842 0.381,20.242 L0.381,20.242 C0.31,23.552 0.579,26.862 1.21,30.112 L1.21,30.112 L3.109,40.012 C3.454,41.808 3.652,43.733 3.73,45.735 L3.73,45.735 C8.298,48.35 13.572,49.852 19.19,49.852 L19.19,49.852 C19.911,49.852 20.629,49.828 21.339,49.779 L21.339,49.779 C21.087,47.765 20.776,45.668 20.4,43.482 L20.4,43.482 L17.8,25.652 L38.001,26.172 C39.35,26.202 40.6,25.682 41.501,24.801 L41.501,24.801 C42.41,23.922 42.989,22.692 43.03,21.322 L43.03,21.322 C43.05,20.632 43.03,19.942 42.98,19.272 L42.98,19.272 C42.9,18.262 42.751,17.272 42.529,16.312 L42.529,16.312 C42.31,15.352 42.02,14.412 41.68,13.512 L41.68,13.512 L41.31,12.612 C41.13,12.212 40.93,11.822 40.73,11.442 L40.73,11.442 C40.18,10.411 39.55,9.432 38.85,8.511 L38.85,8.511 C38.46,8.012 38.05,7.522 37.61,7.052 L37.61,7.052 C34.131,3.352 29.26,1.002 23.81,0.852 L23.81,0.852 L20.61,0.782 C20.432,0.778 20.254,0.775 20.077,0.775 L20.077,0.775 C16.516,0.775 13.168,1.735 10.31,3.412 L10.31,3.412 Z" id="path-49"></path>
        <path d="M20.712,0.255 C17.319,0.328 13.992,1.241 11.029,2.925 L11.029,2.925 C10.48,3.255 9.921,3.605 9.381,4.005 L9.381,4.005 C7.8,5.154 6.38,6.505 5.18,8.055 L5.18,8.055 C4.78,8.574 4.4,9.115 4.05,9.675 L4.05,9.675 C3.68,10.215 3.38,10.795 3.08,11.375 L3.08,11.375 L2.65,12.275 C2.23,13.195 1.9,14.135 1.63,15.095 L1.63,15.095 C1.54,15.435 1.45,15.755 1.391,16.095 L1.391,16.095 C1.07,17.435 0.91,18.815 0.869,20.215 L0.869,20.215 C0.8,23.555 1.07,26.916 1.7,30.195 L1.7,30.195 L3.6,40.095 C3.925,41.777 4.12,43.572 4.208,45.435 L4.208,45.435 C4.549,45.638 4.893,45.835 5.242,46.025 L5.242,46.025 C5.169,43.888 4.962,41.83 4.59,39.915 L4.59,39.915 L2.69,30.015 C2.091,26.815 1.81,23.525 1.89,20.265 L1.89,20.265 C1.921,18.945 2.07,17.625 2.37,16.345 L2.37,16.345 C2.45,16.035 2.51,15.705 2.61,15.405 L2.61,15.405 C2.869,14.495 3.19,13.585 3.59,12.735 L3.59,12.735 C3.711,12.445 3.85,12.165 3.99,11.885 L3.99,11.885 C4.27,11.325 4.579,10.775 4.92,10.245 L4.92,10.245 C5.251,9.715 5.61,9.215 5.99,8.715 L5.99,8.715 C7.14,7.255 8.49,5.955 9.99,4.855 L9.99,4.855 C10.49,4.505 11.02,4.155 11.551,3.855 L11.551,3.855 C14.59,2.094 18.05,1.195 21.59,1.295 L21.59,1.295 L24.82,1.375 C29.949,1.515 34.73,3.655 38.27,7.415 L38.27,7.415 C38.69,7.865 39.091,8.335 39.47,8.835 L39.47,8.835 C40.15,9.705 40.76,10.665 41.3,11.685 L41.3,11.685 C41.53,12.135 41.71,12.485 41.86,12.835 L41.86,12.835 L42.23,13.705 C42.56,14.595 42.86,15.514 43.06,16.435 L43.06,16.435 C43.28,17.385 43.43,18.355 43.501,19.315 L43.501,19.315 C43.55,19.975 43.55,20.645 43.55,21.315 L43.55,21.315 C43.52,22.505 43.03,23.615 42.18,24.435 L42.18,24.435 C41.341,25.265 40.21,25.695 39.039,25.665 L39.039,25.665 L18.239,25.134 L20.94,43.565 C21.304,45.695 21.613,47.77 21.865,49.791 L21.865,49.791 C22.21,49.773 22.555,49.749 22.898,49.72 L22.898,49.72 C22.643,47.67 22.33,45.564 21.96,43.404 L21.96,43.404 L19.43,26.175 L39.01,26.675 C40.45,26.715 41.829,26.175 42.87,25.175 L42.87,25.175 C43.93,24.165 44.529,22.795 44.57,21.325 L44.57,21.325 C44.59,20.626 44.57,19.925 44.52,19.225 L44.52,19.225 C44.44,18.205 44.29,17.185 44.06,16.185 L44.06,16.185 C43.84,15.215 43.539,14.244 43.18,13.315 L43.18,13.315 C43.06,12.994 42.93,12.695 42.8,12.395 L42.8,12.395 C42.63,12.035 42.439,11.645 42.2,11.195 L42.2,11.195 C41.64,10.115 40.99,9.095 40.27,8.195 L40.27,8.195 C39.88,7.675 39.45,7.175 39.001,6.695 L39.001,6.695 C35.28,2.735 30.251,0.475 24.85,0.355 L24.85,0.355 L21.6,0.255 L20.712,0.255 Z" id="path-51"></path>
        <path d="M2.15,5.08 C5.43,6.74 8.23,5.85 8.23,5.85 L8.23,5.85 C8.23,5.85 7.989,2.35 4.6,0.88 L4.6,0.88 C3.569,0.43 0.751,0.24 0.751,0.24 L0.751,0.24 C0.751,0.24 -0.131,3.92 2.15,5.08 L2.15,5.08 Z" id="path-53"></path>
        <path d="M0.26,1.12 C0.22,1.29 -0.68,5.21 1.921,6.54 L1.921,6.54 C3.6,7.4 5.14,7.6 6.3,7.6 L6.3,7.6 L6.289,7.61 C7.51,7.61 8.31,7.36 8.36,7.34 L8.36,7.34 L8.761,7.22 L8.73,6.8 C8.72,6.66 8.43,2.98 4.79,1.4 L4.79,1.4 C3.711,0.93 1.07,0.75 0.789,0.73 L0.789,0.73 L0.36,0.7 L0.26,1.12 Z M2.37,5.6 C0.91,4.86 1.039,2.72 1.17,1.8 L1.17,1.8 C2.119,1.88 3.74,2.07 4.4,2.35 L4.4,2.35 C6.8,3.4 7.47,5.53 7.671,6.45 L7.671,6.45 C7.355,6.504 6.886,6.564 6.307,6.564 L6.307,6.564 C5.267,6.564 3.872,6.37 2.37,5.6 L2.37,5.6 Z" id="path-55"></path>
        <path d="M2.1,0.18 C2.1,0.18 -0.499,5.11 2.26,5.66 L2.26,5.66 C5.659,6.34 9.59,5.86 9.59,5.86 L9.59,5.86 L9.6,5.851 C9.6,5.851 9.6,1.09 4.35,0.25 L4.35,0.25 C3.858,0.18 3.294,0.162 2.853,0.162 L2.853,0.162 C2.415,0.162 2.1,0.18 2.1,0.18 L2.1,0.18 Z" id="path-57"></path>
        <path d="M2.07,0.65 L1.789,0.67 L1.65,0.921 C1.47,1.271 -0.1,4.331 0.699,6.07 L0.699,6.07 C0.97,6.64 1.47,7.02 2.15,7.17 L2.15,7.17 C3.59,7.44 5.09,7.54 6.39,7.54 L6.39,7.54 L6.38,7.53 C8.19,7.53 9.539,7.35 9.64,7.35 L9.64,7.35 L10.09,7.29 L10.09,6.851 C10.09,6.79 10.05,1.63 4.42,0.75 L4.42,0.75 C3.858,0.657 3.217,0.636 2.746,0.636 L2.746,0.636 C2.363,0.636 2.092,0.65 2.07,0.65 L2.07,0.65 Z M2.36,6.15 C1.88,6.06 1.72,5.81 1.619,5.63 L1.619,5.63 C1.22,4.75 1.85,2.85 2.42,1.68 L2.42,1.68 C2.84,1.68 3.631,1.68 4.27,1.78 L4.27,1.78 C8.14,2.38 8.9,5.24 9.04,6.38 L9.04,6.38 C8.489,6.428 7.516,6.498 6.365,6.498 L6.365,6.498 C5.136,6.498 3.702,6.419 2.36,6.15 L2.36,6.15 Z" id="path-59"></path>
        <path d="M3.21,1.12 C1.211,1.74 0.11,3.27 0.11,3.27 L0.11,3.27 C0.11,3.27 1.05,7.27 2.91,6.82 L2.91,6.82 C6.014,6.073 8.385,5.013 8.578,4.926 L8.578,4.926 C8.54,4.666 7.926,0.868 4.736,0.868 L4.736,0.868 C4.282,0.868 3.775,0.945 3.21,1.12 L3.21,1.12 Z M8.578,4.926 C8.579,4.935 8.58,4.94 8.58,4.94 L8.58,4.94 L8.591,4.92 C8.591,4.92 8.586,4.922 8.578,4.926 L8.578,4.926 Z" id="path-61"></path>
        <path d="M4.07,0.64 C1.93,1.3 0.751,2.92 0.71,2.98 L0.71,2.98 L0.57,3.18 L0.619,3.4 C0.68,3.69 1.32,6.27 2.68,7.119 L2.68,7.119 C2.98,7.29 3.29,7.389 3.61,7.389 L3.61,7.389 L3.59,7.4 C3.73,7.4 3.869,7.38 3.99,7.35 L3.99,7.35 C7.26,6.561 9.69,5.46 9.789,5.42 L9.789,5.42 L10.141,5.26 L10.1,4.89 C10.09,4.77 9.72,2.17 7.85,0.97 L7.85,0.97 C7.229,0.564 6.527,0.361 5.749,0.361 L5.749,0.361 C5.223,0.361 4.663,0.454 4.07,0.64 L4.07,0.64 Z M4.36,1.61 C5.53,1.25 6.5,1.33 7.3,1.83 L7.3,1.83 C8.4,2.53 8.84,3.93 9,4.63 L9,4.63 C8.21,4.96 6.22,5.73 3.779,6.33 L3.779,6.33 C3.579,6.38 3.399,6.35 3.2,6.23 L3.2,6.23 C2.442,5.751 1.884,4.21 1.662,3.407 L1.662,3.407 C2.014,3.006 2.963,2.049 4.36,1.61 L4.36,1.61 Z" id="path-63"></path>
        <path d="M10.42,0.82 C10.42,0.82 8.98,3.55 10.52,3.85 L10.52,3.85 C12.381,4.229 14.539,3.952 14.56,3.95 L14.56,3.95 C14.556,3.767 14.452,1.312 11.659,0.86 L11.659,0.86 C11.371,0.822 11.037,0.814 10.788,0.814 L10.788,0.814 C10.572,0.814 10.42,0.82 10.42,0.82 L10.42,0.82 Z M1.81,2.43 C0.71,2.78 0.11,3.63 0.11,3.63 L0.11,3.63 C0.11,3.63 0.63,5.83 1.64,5.57 L1.64,5.57 C3.329,5.152 4.621,4.583 4.749,4.525 L4.749,4.525 C4.733,4.408 4.404,2.296 2.635,2.296 L2.635,2.296 C2.389,2.296 2.115,2.337 1.81,2.43 L1.81,2.43 Z M20.34,5.52 C22.07,6.4 23.539,5.92 23.539,5.92 L23.539,5.92 L23.55,5.91 C23.55,5.91 23.421,4.07 21.63,3.29 L21.63,3.29 C21.09,3.061 19.6,2.96 19.6,2.96 L19.6,2.96 C19.6,2.96 19.13,4.9 20.34,5.52 L20.34,5.52 Z M14.56,3.95 C14.56,3.957 14.56,3.96 14.56,3.96 L14.56,3.96 L14.56,3.95 C14.56,3.95 14.56,3.95 14.56,3.95 L14.56,3.95 Z M4.749,4.525 C4.75,4.528 4.75,4.53 4.75,4.53 L4.75,4.53 L4.76,4.52 C4.76,4.52 4.756,4.522 4.749,4.525 L4.749,4.525 Z" id="path-65"></path>
        <path d="M0.28,0.5 L0.29,0.51 C0.29,0.51 0.93,3.71 2.05,9.71 L2.05,9.71 C12.739,12.34 18.67,8.44 18.67,8.44 L18.67,8.44 C18.67,8.44 18.23,4.92 17.51,0.24 L17.51,0.24 C9.08,2.13 0.28,0.5 0.28,0.5 L0.28,0.5 Z" id="path-67"></path>
        <path d="M18.409,0.76 C10.18,2.6 1.479,1.03 1.38,1 L1.38,1 L0.64,0.869 L0.789,1.62 C0.789,1.65 1.45,4.88 2.55,10.82 L2.55,10.82 L2.61,11.15 L2.94,11.23 C5.68,11.9 8.12,12.15 10.24,12.15 L10.24,12.15 L10.24,12.16 C16.39,12.16 19.76,10.021 19.94,9.9 L19.94,9.9 L20.21,9.72 L20.171,9.4 C20.171,9.36 19.73,5.81 19.029,1.18 L19.029,1.18 L18.949,0.64 L18.409,0.76 Z M18.11,1.86 C18.63,5.4 18.99,8.22 19.11,9.18 L19.11,9.18 C17.86,9.839 12.384,12.379 3.488,10.282 L3.488,10.282 C2.71,6.126 2.171,3.359 1.93,2.13 L1.93,2.13 C3.215,2.318 6.063,2.666 9.55,2.666 L9.55,2.666 C12.173,2.666 15.157,2.469 18.11,1.86 L18.11,1.86 Z" id="path-69"></path>
        <path d="M0.73,5.07 C0.659,7.64 2.67,9.77 5.211,9.84 L5.211,9.84 L5.2,9.831 L15.301,10.09 C15.43,4.95 11.421,0.67 6.329,0.54 L6.329,0.54 L5.43,0.52 C5.394,0.519 5.357,0.519 5.32,0.519 L5.32,0.519 C2.839,0.519 0.789,2.528 0.73,5.07 L0.73,5.07 Z" id="path-71"></path>
        <path d="M0.53,3.88 C0.48,5.93 2.079,7.63 4.1,7.679 L4.1,7.679 L13.14,7.91 C13.239,3.87 10.079,0.51 6.091,0.41 L6.091,0.41 L4.19,0.35 C4.16,0.349 4.13,0.349 4.1,0.349 L4.1,0.349 C2.17,0.349 0.589,1.91 0.53,3.88 L0.53,3.88 Z" id="path-73"></path>
        <path d="M4.1,0.83 C1.9,0.83 0.08,2.61 0.02,4.87 L0.02,4.87 C-0.039,7.2 1.79,9.14 4.09,9.2 L4.09,9.2 L13.619,9.44 L13.63,9.44 L13.65,8.92 C13.699,6.82 12.94,4.84 11.52,3.32 L11.52,3.32 C10.1,1.8 8.171,0.94 6.1,0.88 L6.1,0.88 L4.22,0.83 L4.1,0.83 Z M4.12,8.16 L4.12,8.139 C3.28,8.12 2.501,7.76 1.92,7.16 L1.92,7.16 C1.35,6.55 1.03,5.74 1.05,4.889 L1.05,4.889 C1.079,3.171 2.51,1.82 4.18,1.87 L4.18,1.87 L6.08,1.929 C7.88,1.97 9.539,2.73 10.78,4.03 L10.78,4.03 C11.9,5.23 12.539,6.75 12.619,8.38 L12.619,8.38 L4.12,8.16 Z" id="path-75"></path>
        <path d="M0.86,2.54 C0.83,3.66 1.73,4.6 2.829,4.64 L2.829,4.64 C3.95,4.66 4.87,3.771 4.9,2.64 L4.9,2.64 C4.93,1.51 4.05,0.57 2.93,0.54 L2.93,0.54 C2.912,0.54 2.893,0.54 2.875,0.54 L2.875,0.54 C1.789,0.54 0.889,1.419 0.86,2.54 L0.86,2.54 Z M17.99,8.58 C18.34,9.05 18.85,9.39 19.42,9.53 L19.42,9.53 C19.76,9.61 20.1,9.4 20.18,9.05 L20.18,9.05 C20.261,8.71 20.05,8.36 19.7,8.28 L19.7,8.28 L18.82,8.06 L17.319,7.7 L17.99,8.58 Z" id="path-77"></path>
        <path d="M0.76,1.28 C1.76,5.75 2.32,7.16 2.32,7.16 L2.32,7.16 C2.32,7.16 11.18,6.19 13.34,0.88 L13.34,0.88 C13.34,0.88 6.619,2.63 0.76,1.28 L0.76,1.28 Z" id="path-79"></path>
        <path d="M12.81,0.24 C12.76,0.26 7.51,1.51 0.61,0.49 L0.61,0.49 C0.31,0.44 0.06,0.639 0.01,0.92 L0.01,0.92 C-0.03,1.22 0.171,1.47 0.44,1.521 L0.44,1.521 C2.52,1.82 4.44,1.92 6.12,1.92 L6.12,1.92 L6.13,1.94 C10.21,1.94 12.9,1.29 13.06,1.24 L13.06,1.24 C13.329,1.18 13.501,0.9 13.43,0.639 L13.43,0.639 C13.378,0.382 13.164,0.227 12.927,0.227 L12.927,0.227 C12.889,0.227 12.849,0.231 12.81,0.24 L12.81,0.24 Z" id="path-81"></path>
        <path d="M0.35,0.99 C0.33,1.88 1.02,2.62 1.9,2.64 L1.9,2.64 L1.94,2.64 L1.95,2.659 C2.37,2.659 2.751,2.52 3.05,2.22 L3.05,2.22 C3.35,1.921 3.55,1.53 3.55,1.101 L3.55,1.101 C3.55,0.949 3.44,0.831 3.29,0.831 L3.29,0.831 C3.14,0.831 3.039,0.94 3.039,1.08 L3.039,1.08 C3.03,1.37 2.9,1.65 2.699,1.85 L2.699,1.85 C2.49,2.05 2.22,2.15 1.921,2.15 L1.921,2.15 C1.63,2.14 1.37,2.02 1.17,1.8 L1.17,1.8 C0.97,1.59 0.87,1.32 0.87,1.02 L0.87,1.02 C0.87,0.88 0.76,0.751 0.609,0.751 L0.609,0.751 C0.47,0.751 0.35,0.86 0.35,0.99 L0.35,0.99 Z" id="path-83"></path>
        <path d="M0.69,0.93 C0.68,1.36 0.829,1.76 1.13,2.08 L1.13,2.08 C1.41,2.38 1.81,2.56 2.23,2.58 L2.23,2.58 L2.27,2.58 L2.26,2.57 C2.68,2.57 3.06,2.42 3.36,2.119 L3.36,2.119 C3.68,1.831 3.86,1.43 3.86,1 L3.86,1 C3.86,0.86 3.751,0.73 3.6,0.73 L3.6,0.73 C3.46,0.73 3.34,0.84 3.34,0.99 L3.34,0.99 C3.33,1.28 3.211,1.55 3.01,1.75 L3.01,1.75 C2.8,1.95 2.52,2.05 2.24,2.05 L2.24,2.05 C1.95,2.04 1.69,1.91 1.49,1.71 L1.49,1.71 C1.289,1.5 1.19,1.23 1.19,0.93 L1.19,0.93 C1.19,0.79 1.08,0.67 0.93,0.67 L0.93,0.67 C0.79,0.67 0.69,0.79 0.69,0.93 L0.69,0.93 Z" id="path-85"></path>
        <path d="M1.35,0.95 C1.33,1.91 2.079,2.71 3.03,2.73 L3.03,2.73 L3.069,2.73 L3.06,2.73 C3.52,2.73 3.94,2.55 4.26,2.23 L4.26,2.23 C4.6,1.93 4.779,1.49 4.8,1.03 L4.8,1.03 C4.81,0.87 4.69,0.77 4.55,0.77 L4.55,0.77 C4.39,0.76 4.29,0.88 4.29,1.02 L4.29,1.02 C4.28,1.351 4.15,1.65 3.91,1.88 L3.91,1.88 C3.671,2.1 3.36,2.24 3.04,2.22 L3.04,2.22 C2.38,2.2 1.86,1.639 1.86,0.96 L1.86,0.96 C1.87,0.82 1.76,0.7 1.619,0.7 L1.619,0.7 C1.613,0.7 1.606,0.699 1.6,0.699 L1.6,0.699 C1.442,0.699 1.35,0.816 1.35,0.95 L1.35,0.95 Z M0.99,45.31 C0.971,45.74 1.13,46.16 1.43,46.46 L1.43,46.46 C1.71,46.76 2.11,46.96 2.529,46.96 L2.529,46.96 L2.57,46.96 L2.56,46.97 C2.98,46.97 3.36,46.811 3.66,46.53 L3.66,46.53 C3.96,46.23 4.159,45.83 4.159,45.389 L4.159,45.389 C4.159,45.25 4.05,45.13 3.9,45.13 L3.9,45.13 C3.77,45.13 3.65,45.24 3.65,45.38 L3.65,45.38 C3.64,45.67 3.52,45.94 3.3,46.14 L3.3,46.14 C3.1,46.34 2.84,46.46 2.539,46.44 L2.539,46.44 C2.25,46.43 1.989,46.3 1.79,46.1 L1.79,46.1 C1.591,45.89 1.49,45.62 1.49,45.32 L1.49,45.32 C1.49,45.18 1.38,45.06 1.23,45.06 L1.23,45.06 C1.09,45.06 0.99,45.17 0.99,45.31 L0.99,45.31 Z" id="path-87"></path>
        <path d="M34.59,0.92 C34.579,1.57 35.091,2.12 35.74,2.14 L35.74,2.14 L35.77,2.14 L35.77,2.12 C36.07,2.12 36.35,1.99 36.57,1.79 L36.57,1.79 C36.801,1.56 36.94,1.28 36.94,0.96 L36.94,0.96 C36.94,0.82 36.829,0.69 36.69,0.69 L36.69,0.69 C36.54,0.71 36.421,0.8 36.421,0.96 L36.421,0.96 C36.421,1.14 36.35,1.3 36.22,1.421 L36.22,1.421 C36.09,1.55 35.91,1.619 35.74,1.619 L35.74,1.619 C35.39,1.6 35.091,1.29 35.091,0.92 L35.091,0.92 C35.1,0.77 34.99,0.67 34.85,0.67 L34.85,0.67 C34.845,0.67 34.84,0.669 34.835,0.669 L34.835,0.669 C34.71,0.669 34.59,0.785 34.59,0.92 L34.59,0.92 Z M0.85,8.39 C0.829,8.86 1.01,9.3 1.33,9.64 L1.33,9.64 C1.63,9.98 2.07,10.18 2.529,10.18 L2.529,10.18 L2.57,10.18 L2.57,10.19 C3.501,10.19 4.27,9.44 4.3,8.49 L4.3,8.49 C4.3,8.35 4.19,8.23 4.05,8.23 L4.05,8.23 C3.93,8.23 3.78,8.34 3.78,8.47 L3.78,8.47 C3.78,9.14 3.23,9.67 2.58,9.67 L2.58,9.67 L2.55,9.67 C2.23,9.66 1.93,9.529 1.71,9.29 L1.71,9.29 C1.47,9.05 1.369,8.74 1.369,8.42 L1.369,8.42 C1.38,8.27 1.27,8.15 1.11,8.15 L1.11,8.15 C0.98,8.16 0.85,8.26 0.85,8.39 L0.85,8.39 Z M4.63,28.44 C4.609,29.28 5.26,29.96 6.09,29.98 L6.09,29.98 L6.12,29.98 L6.11,29.99 C6.91,29.99 7.59,29.34 7.59,28.52 L7.59,28.52 C7.59,28.38 7.479,28.26 7.329,28.26 L7.329,28.26 C7.18,28.26 7.08,28.37 7.08,28.51 L7.08,28.51 C7.06,29.06 6.6,29.509 6.079,29.46 L6.079,29.46 C5.53,29.46 5.13,29 5.13,28.46 L5.13,28.46 C5.13,28.32 5.02,28.19 4.88,28.19 L4.88,28.19 C4.751,28.19 4.63,28.3 4.63,28.44 L4.63,28.44 Z" id="path-89"></path>
        <path d="M26.415,0.413 L22.715,0.513 C16.534,0.653 11.015,3.283 7.055,7.413 L7.055,7.413 C6.555,7.913 6.095,8.463 5.655,9.033 L5.655,9.033 C4.855,10.053 4.135,11.133 3.515,12.293 L3.515,12.293 L2.855,13.613 C2.705,13.943 2.555,14.283 2.435,14.613 L2.435,14.613 C2.034,15.613 1.705,16.673 1.455,17.754 L1.455,17.754 C1.204,18.823 1.034,19.932 0.954,21.053 L0.954,21.053 C0.895,21.803 0.875,22.553 0.895,23.334 L0.895,23.334 C0.935,24.873 1.595,26.233 2.626,27.233 L2.626,27.233 C3.675,28.202 5.085,28.793 6.625,28.753 L6.625,28.753 L29.565,28.183 L26.595,48.063 C24.691,59.009 24.252,67.983 24.775,75.34 L24.775,75.34 C30.805,77.823 37.413,79.193 44.345,79.193 L44.345,79.193 C46.139,79.193 47.906,79.1 49.651,78.921 L49.651,78.921 C46.741,69.294 44.216,54.746 46.275,44.213 L46.275,44.213 L48.445,33.163 C49.145,29.533 49.465,25.843 49.375,22.143 L49.375,22.143 C49.336,20.603 49.135,19.104 48.805,17.663 L48.805,17.663 L48.505,16.592 C48.204,15.533 47.835,14.493 47.385,13.513 L47.385,13.513 C47.235,13.182 47.086,12.853 46.905,12.533 L46.905,12.533 C46.574,11.894 46.204,11.273 45.825,10.663 L45.825,10.663 C45.425,10.063 45.025,9.483 44.575,8.923 L44.575,8.923 C43.234,7.242 41.675,5.753 39.915,4.523 L39.915,4.523 C39.336,4.103 38.716,3.723 38.114,3.363 L38.114,3.363 C34.952,1.553 31.329,0.504 27.499,0.413 L27.499,0.413 L26.415,0.413 Z" id="path-91"></path>
        <path d="M26.4,0.9 L22.72,0.98 C16.6,1.15 10.9,3.66 6.67,8.08 L6.67,8.08 C6.171,8.61 5.69,9.16 5.25,9.73 L5.25,9.73 C4.43,10.76 3.69,11.88 3.05,13.08 L3.05,13.08 C2.79,13.58 2.57,14.01 2.39,14.44 L2.39,14.44 C2.24,14.76 2.09,15.1 1.96,15.44 L1.96,15.44 C1.56,16.49 1.211,17.56 0.961,18.64 L0.961,18.64 C0.7,19.76 0.54,20.9 0.439,22.04 L0.439,22.04 C0.369,22.81 0.369,23.59 0.369,24.37 L0.369,24.37 C0.421,26 1.1,27.5 2.25,28.61 L2.25,28.61 C3.44,29.72 4.97,30.291 6.61,30.291 L6.61,30.291 L28.93,29.73 L26.06,49 C24.291,59.137 23.676,68.194 24.208,76.103 L24.208,76.103 C24.566,76.255 24.924,76.403 25.286,76.548 L25.286,76.548 C24.703,68.6 25.311,59.446 27.12,49.16 L27.12,49.16 L30.18,28.66 L6.631,29.26 C5.26,29.28 4.001,28.79 3,27.86 L3,27.86 C2.02,26.93 1.46,25.68 1.421,24.33 L1.421,24.33 C1.4,23.59 1.421,22.84 1.47,22.09 L1.47,22.09 C1.57,21.01 1.72,19.92 1.97,18.86 L1.97,18.86 C2.211,17.82 2.529,16.8 2.91,15.8 L2.91,15.8 C3.03,15.47 3.18,15.14 3.329,14.84 L3.329,14.84 C3.51,14.44 3.71,14.02 3.96,13.54 L3.96,13.54 C4.579,12.4 5.28,11.34 6.06,10.34 L6.06,10.34 C6.489,9.8 6.95,9.26 7.43,8.76 L7.43,8.76 C11.45,4.54 16.9,2.14 22.751,2 L22.751,2 L26.421,1.9 C30.42,1.8 34.38,2.8 37.85,4.8 L37.85,4.8 C38.45,5.15 39.05,5.53 39.619,5.929 L39.619,5.929 C41.34,7.15 42.88,8.601 44.18,10.25 L44.18,10.25 C44.6,10.79 45.02,11.37 45.4,11.95 L45.4,11.95 C45.78,12.54 46.14,13.15 46.46,13.78 L46.46,13.78 C46.63,14.09 46.78,14.41 46.93,14.74 L46.93,14.74 C47.36,15.7 47.73,16.719 48.03,17.74 L48.03,17.74 L48.301,18.79 C48.63,20.22 48.82,21.69 48.859,23.17 L48.859,23.17 C48.94,26.82 48.64,30.49 47.94,34.07 L47.94,34.07 L45.77,45.11 C43.687,55.707 46.203,70.265 49.124,79.971 L49.124,79.971 C49.47,79.939 49.814,79.904 50.159,79.865 L50.159,79.865 C47.249,70.308 44.719,55.83 46.78,45.3 L46.78,45.3 L48.94,34.26 C49.65,30.6 49.97,26.86 49.869,23.13 L49.869,23.13 C49.84,21.59 49.64,20.049 49.29,18.55 L49.29,18.55 C49.21,18.18 49.11,17.81 49.01,17.449 L49.01,17.449 C48.699,16.38 48.31,15.32 47.86,14.3 L47.86,14.3 L47.36,13.299 C47.03,12.65 46.66,12 46.26,11.4 L46.26,11.4 C45.86,10.78 45.43,10.17 44.99,9.601 L44.99,9.601 C43.62,7.88 42.02,6.36 40.22,5.101 L40.22,5.101 C39.619,4.67 39,4.27 38.36,3.9 L38.36,3.9 C35.051,2.014 31.328,0.991 27.514,0.9 L27.514,0.9 L26.4,0.9 Z" id="path-93"></path>
        <path d="M5.05,1.29 C1.2,2.94 0.92,6.84 0.92,6.84 L0.92,6.84 L0.92,6.85 C0.92,6.85 4.1,7.85 7.819,5.99 L7.819,5.99 C10.42,4.69 9.421,0.59 9.421,0.59 L9.421,0.59 C9.421,0.59 6.22,0.791 5.05,1.29 L5.05,1.29 Z" id="path-95"></path>
        <path d="M9.39,0.07 C9.25,0.081 6.09,0.29 4.85,0.82 L4.85,0.82 C0.76,2.57 0.43,6.63 0.41,6.8 L0.41,6.8 L0.369,7.22 L0.77,7.32 C0.84,7.35 1.74,7.62 3.12,7.62 L3.12,7.62 L3.13,7.61 C4.44,7.61 6.189,7.37 8.07,6.43 L8.07,6.43 C11,4.97 9.97,0.65 9.93,0.45 L9.93,0.45 L9.829,0.03 L9.39,0.07 Z M5.251,1.76 C6.02,1.42 7.92,1.22 9,1.12 L9,1.12 C9.15,2.14 9.35,4.65 7.6,5.52 L7.6,5.52 C4.882,6.879 2.453,6.63 1.502,6.45 L1.502,6.45 C1.704,5.444 2.459,2.957 5.251,1.76 L5.251,1.76 Z" id="path-97"></path>
        <path d="M6.69,0.37 C0.851,1.278 0.742,6.354 0.74,6.592 L0.74,6.592 C0.973,6.62 5.287,7.129 9.06,6.39 L9.06,6.39 C12.2,5.771 9.23,0.271 9.23,0.271 L9.23,0.271 C9.23,0.271 8.909,0.253 8.454,0.253 L8.454,0.253 C7.946,0.253 7.271,0.275 6.69,0.37 L6.69,0.37 Z M0.74,6.6 C0.74,6.6 0.74,6.597 0.74,6.592 L0.74,6.592 C0.733,6.591 0.73,6.59 0.73,6.59 L0.73,6.59 L0.74,6.6 Z" id="path-99"></path>
        <path d="M6.62,0.88 C0.27,1.86 0.221,7.56 0.221,7.62 L0.221,7.62 L0.221,8.07 L0.671,8.12 C0.77,8.139 2.329,8.32 4.37,8.32 L4.37,8.32 L4.37,8.3 C5.829,8.3 7.54,8.219 9.17,7.9 L9.17,7.9 C9.921,7.75 10.47,7.33 10.77,6.73 L10.77,6.73 C11.68,4.81 9.9,1.41 9.699,1.03 L9.699,1.03 L9.57,0.78 L9.27,0.76 C9.248,0.76 8.949,0.744 8.522,0.744 L8.522,0.744 C7.989,0.744 7.258,0.769 6.62,0.88 L6.62,0.88 Z M6.77,1.89 C7.54,1.77 8.46,1.79 8.94,1.79 L8.94,1.79 C9.46,2.86 10.381,5.16 9.841,6.29 L9.841,6.29 C9.68,6.62 9.4,6.82 8.98,6.89 L8.98,6.89 C5.95,7.49 2.53,7.25 1.28,7.15 L1.28,7.15 L1.27,7.16 C1.43,5.92 2.27,2.59 6.77,1.89 L6.77,1.89 Z" id="path-101"></path>
        <path d="M0.1,4.71 L0.11,4.71 C0.11,4.71 2.87,5.94 6.57,6.84 L6.57,6.84 C8.68,7.34 9.74,2.84 9.74,2.84 L9.74,2.84 C9.74,2.84 8.48,1.14 6.2,0.441 L6.2,0.441 C5.556,0.243 4.98,0.156 4.462,0.156 L4.462,0.156 C0.718,0.156 0.1,4.71 0.1,4.71 L0.1,4.71 Z" id="path-103"></path>
        <path d="M3.1,1.28 C1.001,2.61 0.579,5.49 0.579,5.61 L0.579,5.61 L0.52,5.99 L0.88,6.15 C1.001,6.2 3.739,7.42 7.44,8.3 L7.44,8.3 C7.59,8.34 7.74,8.36 7.89,8.36 L7.89,8.36 L7.87,8.34 C8.211,8.34 8.57,8.24 8.91,8.04 L8.91,8.04 C10.409,7.101 11.13,4.24 11.21,3.94 L11.21,3.94 L11.27,3.72 L11.14,3.52 C11.08,3.44 9.74,1.65 7.34,0.92 L7.34,0.92 C6.679,0.719 6.05,0.618 5.459,0.618 L5.459,0.618 C4.585,0.618 3.793,0.839 3.1,1.28 L3.1,1.28 Z M7.699,7.33 C4.86,6.65 2.56,5.76 1.7,5.4 L1.7,5.4 L1.69,5.38 C1.86,4.63 2.36,2.98 3.659,2.16 L3.659,2.16 C4.56,1.59 5.71,1.521 7.06,1.92 L7.06,1.92 C8.71,2.42 9.8,3.53 10.18,3.969 L10.18,3.969 C9.93,4.87 9.28,6.65 8.4,7.2 L8.4,7.2 C8.224,7.306 8.062,7.357 7.902,7.357 L7.902,7.357 C7.834,7.357 7.767,7.348 7.699,7.33 L7.699,7.33 Z" id="path-105"></path>
        <path d="M14.341,0.171 C11.152,0.663 11.044,3.415 11.04,3.6 L11.04,3.6 C11.058,3.603 13.518,3.899 15.64,3.501 L15.64,3.501 C17.39,3.14 15.74,0.1 15.74,0.1 L15.74,0.1 C15.74,0.1 15.626,0.096 15.451,0.096 L15.451,0.096 C15.164,0.096 14.714,0.108 14.341,0.171 L14.341,0.171 Z M22.199,4.25 L22.189,4.25 C22.189,4.25 23.711,4.93 25.73,5.409 L25.73,5.409 C26.88,5.69 27.461,3.24 27.461,3.24 L27.461,3.24 C27.461,3.24 26.77,2.3 25.529,1.92 L25.529,1.92 C25.182,1.816 24.871,1.77 24.591,1.77 L24.591,1.77 C22.534,1.77 22.199,4.25 22.199,4.25 L22.199,4.25 Z M3.01,2.86 C0.97,3.73 0.83,5.8 0.83,5.8 L0.83,5.8 L0.841,5.81 C0.841,5.81 2.52,6.35 4.49,5.35 L4.49,5.35 C5.86,4.671 5.33,2.49 5.33,2.49 L5.33,2.49 C5.33,2.49 3.641,2.601 3.01,2.86 L3.01,2.86 Z M11.04,3.61 C11.04,3.61 11.04,3.607 11.04,3.6 L11.04,3.6 C11.04,3.6 11.04,3.6 11.04,3.6 L11.04,3.6 L11.04,3.61 Z" id="path-107"></path>
        <path d="M0.48,9.46 C0.48,9.46 7.21,13.8 19.36,10.889 L19.36,10.889 C20.63,4.19 21.36,0.61 21.36,0.61 L21.36,0.61 L21.36,0.6 C21.36,0.6 11.36,2.421 1.78,0.3 L1.78,0.3 C0.98,5.53 0.48,9.46 0.48,9.46 L0.48,9.46 Z" id="path-109"></path>
        <path d="M2.27,1.25 C1.47,6.42 0.971,10.38 0.971,10.42 L0.971,10.42 L0.93,10.74 L1.2,10.9 C1.4,11.04 5.2,13.42 12.2,13.42 L12.2,13.42 L12.18,13.45 C14.579,13.45 17.35,13.17 20.48,12.421 L20.48,12.421 L20.8,12.35 L20.86,12.02 C22.12,5.39 22.859,1.78 22.859,1.74 L22.859,1.74 L23.001,1 L22.25,1.12 C22.15,1.14 12.25,2.9 2.89,0.84 L2.89,0.84 L2.35,0.71 L2.27,1.25 Z M3.211,1.92 C11.131,3.54 19.27,2.58 21.71,2.22 L21.71,2.22 L19.909,11.46 C9.708,13.823 3.424,10.936 2.041,10.186 L2.041,10.186 C2.181,9.16 2.61,5.954 3.211,1.92 L3.211,1.92 Z" id="path-111"></path>
        <path d="M12.71,0.49 L9.93,0.57 C4.791,0.7 0.76,4.93 0.89,10.03 L0.89,10.03 L0.92,11.21 L13.001,10.91 L13.001,10.9 C15.55,10.83 17.57,8.71 17.501,6.17 L17.501,6.17 L17.47,4.99 C17.411,2.483 15.341,0.488 12.839,0.488 L12.839,0.488 C12.796,0.488 12.753,0.489 12.71,0.49 L12.71,0.49 Z" id="path-113"></path>
        <path d="M10.26,0.57 L8.12,0.63 C3.59,0.74 -6.9388939e-17,4.49 0.12,9.01 L0.12,9.01 L10.381,8.75 L10.381,8.74 C12.67,8.68 14.48,6.79 14.43,4.51 L14.43,4.51 C14.361,2.307 12.562,0.568 10.372,0.568999569 L10.372,0.568999569 C10.335,0.568999569 10.297,0.568999569 10.26,0.57 L10.26,0.57 Z" id="path-115"></path>
        <path d="M11.25,0.06 L9.1,0.11 C6.78,0.171 4.6,1.13 3.001,2.81 L3.001,2.81 C1.4,4.49 0.54,6.7 0.601,9.03 L0.601,9.03 L0.619,9.529 L11.39,9.26 C13.949,9.2 16.01,7.06 15.95,4.5 L15.95,4.5 C15.882,2.033 13.842,0.058 11.379,0.058 L11.379,0.058 C11.336,0.058 11.293,0.059 11.25,0.06 L11.25,0.06 Z M3.74,3.52 C5.171,2.04 7.08,1.19 9.14,1.14 L9.14,1.14 L11.26,1.08 L11.36,1.08 L11.37,1.08 C13.29,1.08 14.87,2.61 14.91,4.54 L14.91,4.54 C14.97,6.52 13.37,8.19 11.37,8.24 L11.37,8.24 L1.64,8.48 C1.71,6.62 2.44,4.88 3.74,3.52 L3.74,3.52 Z M0.609,9.53 L0.619,9.53 L0.619,9.529 L0.609,9.53 Z" id="path-117"></path>
        <path d="M19.9,0.89 C18.62,0.93 17.62,1.99 17.65,3.24 L17.65,3.24 L17.65,3.23 C17.69,4.5 18.75,5.49 20.01,5.46 L20.01,5.46 C21.279,5.43 22.29,4.38 22.251,3.12 L22.251,3.12 C22.22,1.878 21.201,0.889 19.955,0.889 L19.955,0.889 C19.936,0.889 19.918,0.889 19.9,0.89 L19.9,0.89 Z M1.829,9.27 L0.83,9.521 C0.43,9.62 0.2,10 0.29,10.39 L0.29,10.39 C0.39,10.771 0.77,11.01 1.16,10.92 L1.16,10.92 L1.171,10.93 C1.82,10.771 2.39,10.4 2.791,9.87 L2.791,9.87 L3.53,8.87 L1.829,9.27 Z" id="path-119"></path>
        <path d="M0.381,0.14 C2.829,6.081 12.899,7.16 12.899,7.16 L12.899,7.16 C12.899,7.16 13.529,5.59 14.68,0.59 L14.68,0.59 C8.01,2.09 0.381,0.13 0.381,0.13 L0.381,0.13 L0.381,0.14 Z" id="path-121"></path>
        <path d="M0.22,1.09 C0.15,1.37 0.319,1.64 0.6,1.71 L0.6,1.71 C0.77,1.75 3.817,2.48 8.444,2.48 L8.444,2.48 C10.353,2.48 12.521,2.36 14.89,2.021 L14.89,2.021 C15.17,1.98 15.36,1.72 15.32,1.44 L15.32,1.44 C15.28,1.16 15.02,0.96 14.74,1.02 L14.74,1.02 C6.86,2.139 0.9,0.74 0.84,0.72 L0.84,0.72 C0.802,0.712 0.764,0.708 0.726,0.708 L0.726,0.708 C0.487,0.708 0.272,0.865 0.22,1.09 L0.22,1.09 Z M8.44,2.48 L8.45,2.48 C8.448,2.48 8.446,2.48 8.444,2.48 L8.444,2.48 C8.443,2.48 8.441,2.48 8.44,2.48 L8.44,2.48 Z" id="path-123"></path>
        <path d="M3.05,0.35 C3.06,1.029 2.51,1.61 1.83,1.63 L1.83,1.63 C1.13,1.66 0.55,1.11 0.53,0.409 L0.53,0.409 C0.53,0.27 0.42,0.17 0.27,0.17 L0.27,0.17 C0.12,0.17 0.02,0.291 0.02,0.43 L0.02,0.43 C0.04,1.389 0.83,2.15 1.8,2.15 L1.8,2.15 L1.79,2.14 L1.83,2.14 C2.81,2.119 3.579,1.31 3.56,0.34 L3.56,0.34 C3.56,0.19 3.44,0.09 3.3,0.09 L3.3,0.09 C3.15,0.09 3.05,0.21 3.05,0.35 L3.05,0.35 Z" id="path-125"></path>
        <path d="M3.06,0.28 C3.09,0.96 2.54,1.561 1.86,1.561 L1.86,1.561 C1.52,1.58 1.189,1.45 0.96,1.22 L0.96,1.22 C0.711,0.99 0.56,0.679 0.56,0.34 L0.56,0.34 C0.56,0.2 0.44,0.1 0.3,0.1 L0.3,0.1 C0.15,0.1 0.05,0.219 0.05,0.36 L0.05,0.36 C0.06,0.831 0.251,1.28 0.6,1.58 L0.6,1.58 C0.92,1.9 1.36,2.08 1.819,2.08 L1.819,2.08 L1.81,2.07 L1.85,2.07 C2.829,2.04 3.591,1.23 3.591,0.27 L3.591,0.27 C3.58,0.12 3.47,0.021 3.32,0.021 L3.32,0.021 C3.18,0.021 3.06,0.139 3.06,0.28 L3.06,0.28 Z" id="path-127"></path>
        <path d="M4.18,0.29 C4.199,0.66 4.05,1.01 3.8,1.29 L3.8,1.29 C3.53,1.56 3.18,1.72 2.8,1.72 L2.8,1.72 C2.44,1.74 2.08,1.59 1.8,1.34 L1.8,1.34 C1.53,1.07 1.37,0.73 1.37,0.37 L1.37,0.37 C1.36,0.22 1.25,0.12 1.1,0.12 L1.1,0.12 C0.95,0.12 0.851,0.24 0.851,0.38 L0.851,0.38 C0.869,1.42 1.74,2.24 2.77,2.24 L2.77,2.24 L2.76,2.24 L2.81,2.24 C3.329,2.22 3.8,2.01 4.16,1.64 L4.16,1.64 C4.51,1.27 4.69,0.771 4.69,0.27 L4.69,0.27 C4.69,0.12 4.56,0.02 4.43,0.02 L4.43,0.02 C4.279,0.03 4.18,0.15 4.18,0.29 L4.18,0.29 Z M4.59,49.84 C4.61,50.52 4.07,51.1 3.37,51.12 L3.37,51.12 C3.029,51.13 2.711,51.001 2.47,50.77 L2.47,50.77 C2.22,50.541 2.091,50.23 2.091,49.89 L2.091,49.89 C2.08,49.74 1.97,49.64 1.82,49.64 L1.82,49.64 C1.67,49.64 1.57,49.76 1.57,49.9 L1.57,49.9 C1.59,50.86 2.38,51.62 3.34,51.62 L3.34,51.62 L3.329,51.62 L3.39,51.62 C3.86,51.61 4.3,51.41 4.63,51.081 L4.63,51.081 C4.95,50.74 5.119,50.29 5.1,49.82 L5.1,49.82 C5.1,49.67 4.98,49.57 4.84,49.57 L4.84,49.57 C4.69,49.58 4.59,49.69 4.59,49.84 L4.59,49.84 Z" id="path-129"></path>
        <path d="M2.56,0.55 C2.59,0.99 2.23,1.35 1.791,1.37 L1.791,1.37 C1.37,1.38 0.99,1.04 0.99,0.6 L0.99,0.6 C0.98,0.45 0.88,0.35 0.71,0.35 L0.71,0.35 C0.56,0.36 0.461,0.47 0.461,0.62 L0.461,0.62 C0.48,1.32 1.06,1.88 1.76,1.88 L1.76,1.88 L1.78,1.87 L1.82,1.87 C2.541,1.84 3.109,1.26 3.09,0.54 L3.09,0.54 C3.09,0.39 2.98,0.311 2.82,0.29 L2.82,0.29 C2.659,0.29 2.56,0.41 2.56,0.55 L2.56,0.55 Z M40.899,8.92 C40.92,9.29 40.78,9.65 40.52,9.92 L40.52,9.92 C40.26,10.19 39.92,10.35 39.52,10.35 L39.52,10.35 C38.76,10.39 38.1,9.76 38.08,8.99 L38.08,8.99 C38.08,8.84 37.96,8.74 37.83,8.74 L37.83,8.74 L37.81,8.74 C37.66,8.74 37.56,8.86 37.56,8.99 L37.56,8.99 C37.579,10.03 38.44,10.86 39.48,10.86 L39.48,10.86 L39.5,10.87 L39.55,10.87 C40.62,10.84 41.449,9.96 41.421,8.91 L41.421,8.91 C41.421,8.76 41.3,8.66 41.15,8.66 L41.15,8.66 C41,8.66 40.899,8.779 40.899,8.92 L40.899,8.92 Z M36.57,31.29 C36.6,31.91 36.1,32.43 35.47,32.449 L35.47,32.449 C34.841,32.49 34.32,31.97 34.301,31.351 L34.301,31.351 C34.291,31.2 34.19,31.1 34.03,31.1 L34.03,31.1 C33.89,31.1 33.79,31.22 33.79,31.36 L33.79,31.36 C33.81,32.26 34.54,32.96 35.44,32.96 L35.44,32.96 L35.43,32.96 L35.49,32.96 C35.94,32.96 36.34,32.78 36.64,32.46 L36.64,32.46 C36.949,32.14 37.1,31.73 37.1,31.29 L37.1,31.29 C37.091,31.14 36.99,31.04 36.83,31.04 L36.83,31.04 C36.69,31.04 36.57,31.16 36.57,31.29 L36.57,31.29 Z" id="path-131"></path>
        <path d="M0.346,0.368 L1.952,7.325 C3.832,6.891 5.002,4.98 4.559,3.06 L4.559,3.06 C4.177,1.404 2.718,0.28 1.119,0.28 L1.119,0.28 C0.864,0.28 0.605,0.308 0.346,0.368 L0.346,0.368 Z" id="path-133"></path>
        <path d="M0.295,6.867 C0.983,9.848 3.9,11.679 6.823,11.005 L6.823,11.005 L4.348,0.286 C1.426,0.961 -0.393,3.885 0.295,6.867 L0.295,6.867 Z" id="path-135"></path>
        <polygon id="path-137" points="0.027 1.361 2.501 12.079 5.62 11.359 3.145 0.641"></polygon>
        <polygon id="path-139" points="0.53 9.783 3.015 20.498 16.287 24.105 10.888 0.721"></polygon>
        <path d="M0,10.279 L26.001,10.279 C26.001,4.76 20.18,0.28 13,0.28 L13,0.28 C5.82,0.28 0,4.76 0,10.279 L0,10.279 Z" id="path-141"></path>
        <path d="M0.001,3.78 C0.001,5.713 1.567,7.28 3.501,7.28 L3.501,7.28 C5.433,7.28 7.001,5.713 7.001,3.78 L7.001,3.78 C7.001,1.847 5.433,0.28 3.501,0.28 L3.501,0.28 C1.567,0.28 0.001,1.847 0.001,3.78 L0.001,3.78 Z" id="path-143"></path>
        <path d="M0,1.78 C0,2.608 0.671,3.279 1.501,3.279 L1.501,3.279 C2.329,3.279 3,2.608 3,1.78 L3,1.78 C3,0.952 2.329,0.28 1.501,0.28 L1.501,0.28 C0.671,0.28 0,0.952 0,1.78 L0,1.78 Z" id="path-145"></path>
        <path d="M5.95,0.28 C2.67,0.28 0.001,2.7 0.001,5.7 L0.001,5.7 L0.001,61.1 C0.001,64.1 2.67,66.53 5.95,66.53 L5.95,66.53 L94.051,66.53 C97.34,66.53 100.001,64.11 100.001,61.11 L100.001,61.11 L100.001,5.71 C100.001,2.71 97.35,0.28 94.051,0.28 L94.051,0.28 L5.95,0.28 Z" id="path-147"></path>
        <path d="M4.55,0.86 C2.41,0.86 0.67,2.61 0.67,4.76 L0.67,4.76 L0.67,58.71 C0.67,60.87 2.41,62.61 4.55,62.61 L4.55,62.61 L17.98,62.61 C20.72,30.21 42.94,9.71 72.68,0.86 L72.68,0.86 L4.55,0.86 Z M4.541,0.86 L4.55,0.86 L4.541,0.86 Z" id="path-149"></path>
        <path d="M12.2,5.21 C11.9,6.94 11.17,8.94 10.221,10.73 L10.221,10.73 C8.2,10.46 6.171,9.889 4.579,9.13 L4.579,9.13 C3.26,8.47 1.76,7.48 0.34,6.33 L0.34,6.33 L0.37,6.78 L0.39,6.92 L0.39,7.24 L0.41,7.38 L0.45,7.7 L0.45,7.84 C0.48,7.97 0.49,8.11 0.51,8.24 L0.51,8.24 L0.58,8.76 C0.58,8.93 0.609,9.061 0.63,9.19 L0.63,9.19 L0.65,9.29 L0.71,9.67 L0.73,9.74 L0.81,10.17 C0.91,10.62 1.01,11.07 1.131,11.47 L1.131,11.47 C1.329,12.2 1.58,12.87 1.859,13.43 L1.859,13.43 L1.98,13.68 C2.03,13.76 2.05,13.84 2.1,13.91 L2.1,13.91 C2.14,14.01 2.18,14.07 2.22,14.14 L2.22,14.14 L2.42,14.44 L2.45,14.5 C2.52,14.6 2.59,14.7 2.67,14.78 L2.67,14.78 L2.81,14.96 L2.88,15.03 C2.921,15.06 2.98,15.09 2.98,15.13 L2.98,15.13 L3.08,15.21 C3.1,15.24 3.12,15.27 3.18,15.31 L3.18,15.31 C3.2,15.31 3.22,15.34 3.24,15.36 L3.24,15.36 L3.34,15.43 C3.37,15.45 3.4,15.46 3.409,15.49 L3.409,15.49 C3.44,15.53 3.48,15.549 3.53,15.59 L3.53,15.59 C3.56,15.59 3.579,15.61 3.6,15.62 L3.6,15.62 L3.73,15.68 C3.73,15.68 3.77,15.68 3.791,15.7 L3.791,15.7 L3.99,15.78 C4.029,15.78 4.07,15.811 4.091,15.82 L4.091,15.82 C7.26,16.82 10.52,15.66 14.29,18.65 L14.29,18.65 C14.04,13.831 16.86,11.97 17.89,8.82 L17.89,8.82 L17.9,8.82 L17.95,8.66 C17.95,8.59 17.989,8.52 17.989,8.46 L17.989,8.46 C18.159,7.58 17.86,6.52 17.22,5.42 L17.22,5.42 L17.04,5.119 L16.69,4.62 C16.69,4.59 16.671,4.58 16.65,4.55 L16.65,4.55 L16.55,4.42 L16.449,4.27 C16.421,4.21 16.38,4.17 16.35,4.13 L16.35,4.13 L16.25,3.98 C16.21,3.96 16.18,3.91 16.15,3.88 L16.15,3.88 C15.15,2.581 13.81,1.3 12.4,0.16 L12.4,0.16 C12.5,1.96 12.45,3.79 12.2,5.21 L12.2,5.21 Z" id="path-151"></path>
        <path d="M242.001,0.28 C241.45,0.28 241.001,0.73 241.001,1.28 L241.001,1.28 C241.001,1.83 241.45,2.279 242.001,2.279 L242.001,2.279 L250.97,2.279 C251.53,2.279 251.97,1.83 251.97,1.28 L251.97,1.28 C251.97,0.73 251.53,0.28 250.97,0.28 L250.97,0.28 L242.001,0.28 Z M18,0.28 C17.45,0.28 17.001,0.73 17.001,1.28 L17.001,1.28 C17.001,1.83 17.45,2.279 18,2.279 L18,2.279 L235.9,2.279 C236.449,2.279 236.9,1.83 236.9,1.28 L236.9,1.28 C236.9,0.73 236.449,0.28 235.9,0.28 L235.9,0.28 L18,0.28 Z M1,0.28 C0.449,0.28 0,0.73 0,1.28 L0,1.28 C0,1.83 0.449,2.279 1,2.279 L1,2.279 L9.971,2.279 C10.529,2.279 10.971,1.83 10.971,1.28 L10.971,1.28 C10.971,0.73 10.529,0.28 9.971,0.28 L9.971,0.28 L1,0.28 Z M79.329,9 C78.78,9 78.35,9.46 78.35,10 L78.35,10 C78.35,10.56 78.8,11.001 79.35,11.001 L79.35,11.001 L84.35,10.92 C84.921,10.92 85.35,10.46 85.35,9.921 L85.35,9.921 C85.329,9.36 84.9,8.92 84.329,8.92 L84.329,8.92 L79.329,9 Z M168.039,9 C167.48,9 167.039,9.45 167.039,10 L167.039,10 C167.039,10.55 167.48,11.001 168.039,11.001 L168.039,11.001 L177.18,11.001 C177.73,11.001 178.18,10.55 178.18,10 L178.18,10 C178.18,9.45 177.73,9 177.18,9 L177.18,9 L168.039,9 Z M92.22,9 C91.68,9 91.22,9.45 91.22,10 L91.22,10 C91.22,10.55 91.68,11.001 92.22,11.001 L92.22,11.001 L159.42,11.001 C159.97,11.001 160.42,10.55 160.42,10 L160.42,10 C160.42,9.45 159.97,9 159.42,9 L159.42,9 L92.22,9 Z" id="path-153"></path>
        <path d="M3.001,0.28 C1.34,0.28 0,1.62 0,3.28 L0,3.28 L0,17.28 C0,20.581 2.7,23.28 6,23.28 L6,23.28 L15,23.28 C18.301,23.28 21.001,20.581 21.001,17.28 L21.001,17.28 L21.001,3.28 C21.001,1.62 19.66,0.28 18,0.28 L18,0.28 L3.001,0.28 Z" id="path-155"></path>
        <path d="M0.001,0.28 L0.001,15.28 L1.001,15.28 C3.76,15.28 6,13.04 6,10.28 L6,10.28 L6,5.28 C6,2.52 3.76,0.28 1.001,0.28 L1.001,0.28 L0.001,0.28 Z" id="path-157"></path>
        <path d="M0.001,0.28 L0.001,11.279 L1.001,11.279 C2.659,11.279 4,9.94 4,8.28 L4,8.28 L4,3.28 C4,1.62 2.659,0.28 1.001,0.28 L1.001,0.28 L0.001,0.28 Z" id="path-159"></path>
        <polygon id="path-161" points="0.001 2.78 0.001 9.279 6 9.279 6 2.78 3.05 0.279"></polygon>
        <polygon id="path-163" points="0 195 261.97 195 261.97 0.28 0 0.28"></polygon>
        <path d="M5.27,4.78 L5.26,4.77 C5.29,5.74 7.039,6.97 8.16,8.97 L8.16,8.97 C8.55,9.64 8.5,10.811 8.001,12.441 L8.001,12.441 C9.72,11.84 10.55,10.8 10.48,9.34 L10.48,9.34 C10.369,7.04 8.801,6.91 7.6,4.84 L7.6,4.84 C7.23,4.179 7.28,2.86 7.75,0.88 L7.75,0.88 C6.07,2.03 5.239,3.33 5.27,4.78 L5.27,4.78 Z M0.341,5.28 L0.341,5.29 C0.32,6.07 1.69,6.99 2.52,8.59 L2.52,8.59 C2.82,9.14 2.72,10.09 2.22,11.47 L2.22,11.47 C3.68,10.89 4.42,9.99 4.42,8.79 L4.42,8.79 C4.44,6.89 3.149,6.86 2.28,5.19 L2.28,5.19 C1.979,4.67 2.079,3.58 2.58,1.91 L2.58,1.91 C1.14,2.95 0.38,4.061 0.341,5.28 L0.341,5.28 Z" id="path-165"></path>
        <path d="M0.7,1.25 L0.7,5.18 C0.7,5.46 0.92,5.68 1.199,5.68 L1.199,5.68 C1.48,5.68 1.7,5.46 1.7,5.18 L1.7,5.18 L1.7,1.25 C1.7,0.97 1.48,0.75 1.199,0.75 L1.199,0.75 C0.92,0.75 0.7,0.97 0.7,1.25 L0.7,1.25 Z" id="path-167"></path>
        <path d="M0.37,1.42 L0.37,5.36 C0.37,5.64 0.59,5.86 0.869,5.86 L0.869,5.86 C1.14,5.86 1.37,5.64 1.37,5.36 L1.37,5.36 L1.37,1.42 C1.37,1.15 1.14,0.921 0.869,0.921 L0.869,0.921 C0.59,0.921 0.37,1.15 0.37,1.42 L0.37,1.42 Z M9.23,66.71 C8.949,66.71 8.73,66.94 8.73,67.21 L8.73,67.21 C8.73,67.49 8.949,67.71 9.23,67.71 L9.23,67.71 L13.17,67.71 C13.439,67.71 13.671,67.49 13.671,67.21 L13.671,67.21 C13.671,66.94 13.439,66.71 13.17,66.71 L13.17,66.71 L9.23,66.71 Z" id="path-169"></path>
        <path d="M0.9,0.88 C0.619,0.88 0.4,1.12 0.4,1.38 L0.4,1.38 C0.4,1.68 0.619,1.88 0.9,1.88 L0.9,1.88 L4.84,1.88 C5.11,1.88 5.341,1.68 5.341,1.38 L5.341,1.38 C5.341,1.12 5.11,0.88 4.84,0.88 L4.84,0.88 L0.9,0.88 Z" id="path-171"></path>
        <path d="M0.85,1.28 L0.85,8.28 C0.85,8.83 1.289,9.28 1.85,9.28 L1.85,9.28 C2.4,9.28 2.85,8.83 2.85,8.28 L2.85,8.28 L2.85,1.28 C2.85,0.73 2.4,0.28 1.85,0.28 L1.85,0.28 C1.289,0.28 0.85,0.73 0.85,1.28 L0.85,1.28 Z" id="path-173"></path>
        <path d="M144.35,0.78 C143.789,0.78 143.35,1.23 143.35,1.78 L143.35,1.78 C143.35,2.33 143.789,2.78 144.35,2.78 L144.35,2.78 L151.35,2.78 C151.9,2.78 152.35,2.33 152.35,1.78 L152.35,1.78 C152.35,1.23 151.9,0.78 151.35,0.78 L151.35,0.78 L144.35,0.78 Z M0.83,28.41 L0.83,35.409 C0.83,35.97 1.27,36.41 1.83,36.41 L1.83,36.41 C2.381,36.41 2.83,35.97 2.83,35.409 L2.83,35.409 L2.83,28.41 C2.83,27.86 2.381,27.41 1.83,27.41 L1.83,27.41 C1.27,27.41 0.83,27.86 0.83,28.41 L0.83,28.41 Z" id="path-175"></path>
        <path d="M1.33,0.909 C0.77,0.909 0.33,1.36 0.33,1.91 L0.33,1.91 C0.33,2.47 0.77,2.91 1.33,2.91 L1.33,2.91 L8.33,2.91 C8.881,2.91 9.33,2.47 9.33,1.91 L9.33,1.91 C9.33,1.36 8.881,0.909 8.33,0.909 L8.33,0.909 L1.33,0.909 Z M45.03,6.44 L45.03,10.38 C45.03,10.66 45.251,10.88 45.529,10.88 L45.529,10.88 C45.8,10.88 46.03,10.66 46.03,10.38 L46.03,10.38 L46.03,6.44 C46.03,6.17 45.8,5.94 45.529,5.94 L45.529,5.94 C45.251,5.94 45.03,6.17 45.03,6.44 L45.03,6.44 Z" id="path-177"></path>
        <path d="M62.56,0.91 C62.279,0.91 62.06,1.14 62.06,1.41 L62.06,1.41 C62.06,1.69 62.279,1.91 62.56,1.91 L62.56,1.91 L66.501,1.91 C66.77,1.91 67,1.69 67,1.41 L67,1.41 C67,1.14 66.77,0.91 66.501,0.91 L66.501,0.91 L62.56,0.91 Z M0.9,112.22 L0.9,116.16 C0.9,116.44 1.13,116.66 1.4,116.66 L1.4,116.66 C1.7,116.66 1.9,116.44 1.9,116.16 L1.9,116.16 L1.9,112.22 C1.9,111.95 1.7,111.72 1.4,111.72 L1.4,111.72 C1.13,111.72 0.9,111.95 0.9,112.22 L0.9,112.22 Z" id="path-179"></path>
        <path d="M1.44,0.68 C1.16,0.68 0.94,0.92 0.94,1.18 L0.94,1.18 C0.94,1.48 1.16,1.68 1.44,1.68 L1.44,1.68 L5.38,1.68 C5.65,1.68 5.88,1.48 5.88,1.18 L5.88,1.18 C5.88,0.92 5.65,0.68 5.38,0.68 L5.38,0.68 L1.44,0.68 Z" id="path-181"></path>
    </defs>
    <g id="Common/Illustrations/Using" stroke="none" stroke-width="1" fill="none" fill-rule="evenodd">
        <g id="Group-305" transform="translate(-3.000000, 26.000000)">
            <g id="Group-3" transform="translate(27.000000, 85.720000)">
                <mask id="mask-2" fill="white">
                    <use xlink:href="#path-1"></use>
                </mask>
                <g id="Clip-2"></g>
                <polygon id="Fill-1" fill="#E1F2FF" mask="url(#mask-2)" points="-5 108.84 212.119 108.84 212.119 -4.72 -5 -4.72"></polygon>
            </g>
            <g id="Group-6" transform="translate(66.000000, 76.720000)">
                <mask id="mask-4" fill="white">
                    <use xlink:href="#path-3"></use>
                </mask>
                <g id="Clip-5"></g>
                <polygon id="Fill-4" fill="#9ACDED" mask="url(#mask-4)" points="-4.111 81.523 49.387 81.523 49.387 -4.727 -4.111 -4.727"></polygon>
            </g>
            <g id="Group-9" transform="translate(66.000000, 75.720000)">
                <mask id="mask-6" fill="white">
                    <use xlink:href="#path-5"></use>
                </mask>
                <g id="Clip-8"></g>
                <polygon id="Fill-7" fill="#5E63B6" mask="url(#mask-6)" points="-4.623 83.038 49.923 83.038 49.923 -4.24 -4.623 -4.24"></polygon>
            </g>
            <g id="Group-12" transform="translate(75.000000, 73.720000)">
                <mask id="mask-8" fill="white">
                    <use xlink:href="#path-7"></use>
                </mask>
                <g id="Clip-11"></g>
                <polygon id="Fill-10" fill="#FFFFFF" mask="url(#mask-8)" points="-4.64 11.372 12.682 11.372 12.682 -4.09 -4.64 -4.09"></polygon>
            </g>
            <g id="Group-15" transform="translate(74.000000, 73.720000)">
                <mask id="mask-10" fill="white">
                    <use xlink:href="#path-9"></use>
                </mask>
                <g id="Clip-14"></g>
                <polygon id="Fill-13" fill="#5E63B6" mask="url(#mask-10)" points="-4.17 11.88 14.201 11.88 14.201 -4.64 -4.17 -4.64"></polygon>
            </g>
            <g id="Group-18" transform="translate(83.000000, 71.720000)">
                <mask id="mask-12" fill="white">
                    <use xlink:href="#path-11"></use>
                </mask>
                <g id="Clip-17"></g>
                <polygon id="Fill-16" fill="#FFFFFF" mask="url(#mask-12)" points="-4.37 11.422 13.88 11.422 13.88 -4.042 -4.37 -4.042"></polygon>
            </g>
            <g id="Group-21" transform="translate(83.000000, 71.720000)">
                <mask id="mask-14" fill="white">
                    <use xlink:href="#path-13"></use>
                </mask>
                <g id="Clip-20"></g>
                <polygon id="Fill-19" fill="#5E63B6" mask="url(#mask-14)" points="-4.9 11.94 14.371 11.94 14.371 -4.558 -4.9 -4.558"></polygon>
            </g>
            <g id="Group-24" transform="translate(93.000000, 73.720000)">
                <mask id="mask-16" fill="white">
                    <use xlink:href="#path-15"></use>
                </mask>
                <g id="Clip-23"></g>
                <polygon id="Fill-22" fill="#FFFFFF" mask="url(#mask-16)" points="-4.78 11.154 13.34 11.154 13.34 -4.455 -4.78 -4.455"></polygon>
            </g>
            <g id="Group-27" transform="translate(92.000000, 73.720000)">
                <mask id="mask-18" fill="white">
                    <use xlink:href="#path-17"></use>
                </mask>
                <g id="Clip-26"></g>
                <polygon id="Fill-25" fill="#5E63B6" mask="url(#mask-18)" points="-4.32 11.66 14.94 11.66 14.94 -4.986 -4.32 -4.986"></polygon>
            </g>
            <g id="Group-30" transform="translate(76.000000, 73.720000)">
                <mask id="mask-20" fill="white">
                    <use xlink:href="#path-19"></use>
                </mask>
                <g id="Clip-29"></g>
                <polygon id="Fill-28" fill="#E1F2FF" mask="url(#mask-20)" points="-4.03 10.382 28.42 10.382 28.42 -4.5 -4.03 -4.5"></polygon>
            </g>
            <g id="Group-33" transform="translate(89.000000, 103.720000)">
                <mask id="mask-22" fill="white">
                    <use xlink:href="#path-21"></use>
                </mask>
                <g id="Clip-32"></g>
                <polygon id="Fill-31" fill="#FFFFFF" mask="url(#mask-22)" points="-4.68 15.498 22.921 15.498 22.921 -4.2 -4.68 -4.2"></polygon>
            </g>
            <g id="Group-36" transform="translate(88.000000, 103.720000)">
                <mask id="mask-24" fill="white">
                    <use xlink:href="#path-23"></use>
                </mask>
                <g id="Clip-35"></g>
                <polygon id="Fill-34" fill="#5E63B6" mask="url(#mask-24)" points="-4.23 16.02 24.59 16.02 24.59 -4.8 -4.23 -4.8"></polygon>
            </g>
            <g id="Group-39" transform="translate(82.000000, 87.720000)">
                <mask id="mask-26" fill="white">
                    <use xlink:href="#path-25"></use>
                </mask>
                <g id="Clip-38"></g>
                <polygon id="Fill-37" fill="#E1F2FF" mask="url(#mask-26)" points="-4.052 14.18 19.922 14.18 19.922 -4.771 -4.052 -4.771"></polygon>
            </g>
            <g id="Group-42" transform="translate(83.000000, 88.720000)">
                <mask id="mask-28" fill="white">
                    <use xlink:href="#path-27"></use>
                </mask>
                <g id="Clip-41"></g>
                <polygon id="Fill-40" fill="#FFFFFF" mask="url(#mask-28)" points="-4.891 13 17.181 13 17.181 -4.051 -4.891 -4.051"></polygon>
            </g>
            <g id="Group-45" transform="translate(82.000000, 88.720000)">
                <mask id="mask-30" fill="white">
                    <use xlink:href="#path-29"></use>
                </mask>
                <g id="Clip-44"></g>
                <polygon id="Fill-43" fill="#5E63B6" mask="url(#mask-30)" points="-4.392 13.54 18.701 13.54 18.701 -4.57 -4.392 -4.57"></polygon>
            </g>
            <g id="Group-48" transform="translate(70.000000, 90.720000)">
                <mask id="mask-32" fill="white">
                    <use xlink:href="#path-31"></use>
                </mask>
                <g id="Clip-47"></g>
                <polygon id="Fill-46" fill="#5E63B6" mask="url(#mask-32)" points="-4.387 13.487 24.131 13.487 24.131 -4.942 -4.387 -4.942"></polygon>
            </g>
            <g id="Group-51" transform="translate(93.000000, 105.720000)">
                <mask id="mask-34" fill="white">
                    <use xlink:href="#path-33"></use>
                </mask>
                <g id="Clip-50"></g>
                <polygon id="Fill-49" fill="#E1F2FF" mask="url(#mask-34)" points="-4.55 11.21 17.501 11.21 17.501 -4.67 -4.55 -4.67"></polygon>
            </g>
            <g id="Group-54" transform="translate(92.000000, 106.720000)">
                <mask id="mask-36" fill="white">
                    <use xlink:href="#path-35"></use>
                </mask>
                <g id="Clip-53"></g>
                <polygon id="Fill-52" fill="#9ACDED" mask="url(#mask-36)" points="-4.626 7.2 18.293 7.2 18.293 -4.446 -4.626 -4.446"></polygon>
            </g>
            <g id="Group-57" transform="translate(99.000000, 137.720000)">
                <mask id="mask-38" fill="white">
                    <use xlink:href="#path-37"></use>
                </mask>
                <g id="Clip-56"></g>
                <polygon id="Fill-55" fill="#E1F2FF" mask="url(#mask-38)" points="-4.99 7.7 8.1 7.7 8.1 -4.11 -4.99 -4.11"></polygon>
            </g>
            <g id="Group-60" transform="translate(101.000000, 137.720000)">
                <mask id="mask-40" fill="white">
                    <use xlink:href="#path-39"></use>
                </mask>
                <g id="Clip-59"></g>
                <polygon id="Fill-58" fill="#E1F2FF" mask="url(#mask-40)" points="-4.44 7.65 8.64 7.65 8.64 -4.15 -4.44 -4.15"></polygon>
            </g>
            <g id="Group-63" transform="translate(99.000000, 97.720000)">
                <mask id="mask-42" fill="white">
                    <use xlink:href="#path-41"></use>
                </mask>
                <g id="Clip-62"></g>
                <polygon id="Fill-61" fill="#E1F2FF" mask="url(#mask-42)" points="-4.29 48.92 9.38 48.92 9.38 -4.32 -4.29 -4.32"></polygon>
            </g>
            <g id="Group-66" transform="translate(101.000000, 99.720000)">
                <mask id="mask-44" fill="white">
                    <use xlink:href="#path-43"></use>
                </mask>
                <g id="Clip-65"></g>
                <polygon id="Fill-64" fill="#E1F2FF" mask="url(#mask-44)" points="-4.842 6.95 8.471 6.95 8.471 -4.96 -4.842 -4.96"></polygon>
            </g>
            <g id="Group-69" transform="translate(98.000000, 117.720000)">
                <mask id="mask-46" fill="white">
                    <use xlink:href="#path-45"></use>
                </mask>
                <g id="Clip-68"></g>
                <polygon id="Fill-67" fill="#E1F2FF" mask="url(#mask-46)" points="-5.018 7.465 7.852 7.465 7.852 -4.265 -5.018 -4.265"></polygon>
            </g>
            <g id="Group-72" transform="translate(69.000000, 92.720000)">
                <mask id="mask-48" fill="white">
                    <use xlink:href="#path-47"></use>
                </mask>
                <g id="Clip-71"></g>
                <polygon id="Fill-70" fill="#E1F2FF" mask="url(#mask-48)" points="-4.13 6.44 8.131 6.44 8.131 -4.97 -4.13 -4.97"></polygon>
            </g>
            <g id="Group-75" transform="translate(136.000000, 67.720000)">
                <mask id="mask-50" fill="white">
                    <use xlink:href="#path-49"></use>
                </mask>
                <g id="Clip-74"></g>
                <polygon id="Fill-73" fill="#9ACDED" mask="url(#mask-50)" points="-7.366 87.4 48.037 87.4 48.037 -4.225 -7.366 -4.225"></polygon>
            </g>
            <g id="Group-78" transform="translate(135.000000, 67.720000)">
                <mask id="mask-52" fill="white">
                    <use xlink:href="#path-51"></use>
                </mask>
                <g id="Clip-77"></g>
                <polygon id="Fill-76" fill="#5E63B6" mask="url(#mask-52)" points="-6.843 87.905 49.578 87.905 49.578 -4.75 -6.843 -4.75"></polygon>
            </g>
            <g id="Group-81" transform="translate(162.000000, 65.720000)">
                <mask id="mask-54" fill="white">
                    <use xlink:href="#path-53"></use>
                </mask>
                <g id="Clip-80"></g>
                <polygon id="Fill-79" fill="#FFFFFF" mask="url(#mask-54)" points="-4.417 11.089 13.229 11.089 13.229 -4.76 -4.417 -4.76"></polygon>
            </g>
            <g id="Group-84" transform="translate(162.000000, 64.720000)">
                <mask id="mask-56" fill="white">
                    <use xlink:href="#path-55"></use>
                </mask>
                <g id="Clip-83"></g>
                <polygon id="Fill-82" fill="#5E63B6" mask="url(#mask-56)" points="-4.922 12.61 13.761 12.61 13.761 -4.3 -4.922 -4.3"></polygon>
            </g>
            <g id="Group-87" transform="translate(152.000000, 63.720000)">
                <mask id="mask-58" fill="white">
                    <use xlink:href="#path-57"></use>
                </mask>
                <g id="Clip-86"></g>
                <polygon id="Fill-85" fill="#FFFFFF" mask="url(#mask-58)" points="-4.009 11.025 14.6 11.025 14.6 -4.837 -4.009 -4.837"></polygon>
            </g>
            <g id="Group-90" transform="translate(152.000000, 62.720000)">
                <mask id="mask-60" fill="white">
                    <use xlink:href="#path-59"></use>
                </mask>
                <g id="Clip-89"></g>
                <polygon id="Fill-88" fill="#5E63B6" mask="url(#mask-60)" points="-4.526 12.54 15.09 12.54 15.09 -4.364 -4.526 -4.364"></polygon>
            </g>
            <g id="Group-93" transform="translate(143.000000, 64.720000)">
                <mask id="mask-62" fill="white">
                    <use xlink:href="#path-61"></use>
                </mask>
                <g id="Clip-92"></g>
                <polygon id="Fill-91" fill="#FFFFFF" mask="url(#mask-62)" points="-4.89 11.855 13.59 11.855 13.59 -4.133 -4.89 -4.133"></polygon>
            </g>
            <g id="Group-96" transform="translate(142.000000, 64.720000)">
                <mask id="mask-64" fill="white">
                    <use xlink:href="#path-63"></use>
                </mask>
                <g id="Clip-95"></g>
                <polygon id="Fill-94" fill="#5E63B6" mask="url(#mask-64)" points="-4.43 12.4 15.14 12.4 15.14 -4.639 -4.43 -4.639"></polygon>
            </g>
            <g id="Group-99" transform="translate(145.000000, 64.720000)">
                <mask id="mask-66" fill="white">
                    <use xlink:href="#path-65"></use>
                </mask>
                <g id="Clip-98"></g>
                <polygon id="Fill-97" fill="#E1F2FF" mask="url(#mask-66)" points="-4.89 11.051 28.55 11.051 28.55 -4.186 -4.89 -4.186"></polygon>
            </g>
            <g id="Group-102" transform="translate(137.000000, 97.720000)">
                <mask id="mask-68" fill="white">
                    <use xlink:href="#path-67"></use>
                </mask>
                <g id="Clip-101"></g>
                <polygon id="Fill-100" fill="#FFFFFF" mask="url(#mask-68)" points="-4.72 15.621 23.671 15.621 23.671 -4.76 -4.72 -4.76"></polygon>
            </g>
            <g id="Group-105" transform="translate(136.000000, 96.720000)">
                <mask id="mask-70" fill="white">
                    <use xlink:href="#path-69"></use>
                </mask>
                <g id="Clip-104"></g>
                <polygon id="Fill-103" fill="#5E63B6" mask="url(#mask-70)" points="-4.36 17.16 25.21 17.16 25.21 -4.36 -4.36 -4.36"></polygon>
            </g>
            <g id="Group-108" transform="translate(147.000000, 79.720000)">
                <mask id="mask-72" fill="white">
                    <use xlink:href="#path-71"></use>
                </mask>
                <g id="Clip-107"></g>
                <polygon id="Fill-106" fill="#E1F2FF" mask="url(#mask-72)" points="-4.272 15.09 20.303 15.09 20.303 -4.481 -4.272 -4.481"></polygon>
            </g>
            <g id="Group-111" transform="translate(149.000000, 81.720000)">
                <mask id="mask-74" fill="white">
                    <use xlink:href="#path-73"></use>
                </mask>
                <g id="Clip-110"></g>
                <polygon id="Fill-109" fill="#FFFFFF" mask="url(#mask-74)" points="-4.471 12.91 18.142 12.91 18.142 -4.651 -4.471 -4.651"></polygon>
            </g>
            <g id="Group-114" transform="translate(149.000000, 80.720000)">
                <mask id="mask-76" fill="white">
                    <use xlink:href="#path-75"></use>
                </mask>
                <g id="Clip-113"></g>
                <polygon id="Fill-112" fill="#5E63B6" mask="url(#mask-76)" points="-4.981 14.44 18.653 14.44 18.653 -4.17 -4.981 -4.17"></polygon>
            </g>
            <g id="Group-117" transform="translate(155.000000, 82.720000)">
                <mask id="mask-78" fill="white">
                    <use xlink:href="#path-77"></use>
                </mask>
                <g id="Clip-116"></g>
                <polygon id="Fill-115" fill="#5E63B6" mask="url(#mask-78)" points="-4.141 14.547 25.197 14.547 25.197 -4.461 -4.141 -4.461"></polygon>
            </g>
            <g id="Group-120" transform="translate(138.000000, 98.720000)">
                <mask id="mask-80" fill="white">
                    <use xlink:href="#path-79"></use>
                </mask>
                <g id="Clip-119"></g>
                <polygon id="Fill-118" fill="#E1F2FF" mask="url(#mask-80)" points="-4.24 12.16 18.34 12.16 18.34 -4.12 -4.24 -4.12"></polygon>
            </g>
            <g id="Group-123" transform="translate(139.000000, 100.720000)">
                <mask id="mask-82" fill="white">
                    <use xlink:href="#path-81"></use>
                </mask>
                <g id="Clip-122"></g>
                <polygon id="Fill-121" fill="#9ACDED" mask="url(#mask-82)" points="-4.995 6.94 18.445 6.94 18.445 -4.772 -4.995 -4.772"></polygon>
            </g>
            <g id="Group-126" transform="translate(142.000000, 133.720000)">
                <mask id="mask-84" fill="white">
                    <use xlink:href="#path-83"></use>
                </mask>
                <g id="Clip-125"></g>
                <polygon id="Fill-124" fill="#E1F2FF" mask="url(#mask-84)" points="-4.65 7.66 8.55 7.66 8.55 -4.25 -4.65 -4.25"></polygon>
            </g>
            <g id="Group-129" transform="translate(139.000000, 133.720000)">
                <mask id="mask-86" fill="white">
                    <use xlink:href="#path-85"></use>
                </mask>
                <g id="Clip-128"></g>
                <polygon id="Fill-127" fill="#E1F2FF" mask="url(#mask-86)" points="-4.31 7.58 8.86 7.58 8.86 -4.33 -4.31 -4.33"></polygon>
            </g>
            <g id="Group-132" transform="translate(140.000000, 90.720000)">
                <mask id="mask-88" fill="white">
                    <use xlink:href="#path-87"></use>
                </mask>
                <g id="Clip-131"></g>
                <polygon id="Fill-130" fill="#E1F2FF" mask="url(#mask-88)" points="-4.011 51.97 9.801 51.97 9.801 -4.301 -4.011 -4.301"></polygon>
            </g>
            <g id="Group-135" transform="translate(139.000000, 84.720000)">
                <mask id="mask-90" fill="white">
                    <use xlink:href="#path-89"></use>
                </mask>
                <g id="Clip-134"></g>
                <polygon id="Fill-133" fill="#E1F2FF" mask="url(#mask-90)" points="-4.152 34.99 41.94 34.99 41.94 -4.33 -4.152 -4.33"></polygon>
            </g>
            <g id="Group-138" transform="translate(87.000000, 41.720000)">
                <mask id="mask-92" fill="white">
                    <use xlink:href="#path-91"></use>
                </mask>
                <g id="Clip-137"></g>
                <polygon id="Fill-136" fill="#9ACDED" mask="url(#mask-92)" points="-4.113 96.513 57.5 96.513 57.5 -4.593 -4.113 -4.593"></polygon>
            </g>
            <g id="Group-141" transform="translate(87.000000, 40.720000)">
                <mask id="mask-94" fill="white">
                    <use xlink:href="#path-93"></use>
                </mask>
                <g id="Clip-140"></g>
                <polygon id="Fill-139" fill="#5E63B6" mask="url(#mask-94)" points="-4.63 98.06 57.993 98.06 57.993 -4.107 -4.63 -4.107"></polygon>
            </g>
            <g id="Group-144" transform="translate(97.000000, 38.720000)">
                <mask id="mask-96" fill="white">
                    <use xlink:href="#path-95"></use>
                </mask>
                <g id="Clip-143"></g>
                <polygon id="Fill-142" fill="#FFFFFF" mask="url(#mask-96)" points="-4.08 12.118 14.608 12.118 14.608 -4.41 -4.08 -4.41"></polygon>
            </g>
            <g id="Group-147" transform="translate(97.000000, 38.720000)">
                <mask id="mask-98" fill="white">
                    <use xlink:href="#path-97"></use>
                </mask>
                <g id="Clip-146"></g>
                <polygon id="Fill-145" fill="#5E63B6" mask="url(#mask-98)" points="-4.63 12.62 15.138 12.62 15.138 -4.97 -4.63 -4.97"></polygon>
            </g>
            <g id="Group-150" transform="translate(107.000000, 36.720000)">
                <mask id="mask-100" fill="white">
                    <use xlink:href="#path-99"></use>
                </mask>
                <g id="Clip-149"></g>
                <polygon id="Fill-148" fill="#FFFFFF" mask="url(#mask-100)" points="-4.27 11.789 15.501 11.789 15.501 -4.748 -4.27 -4.748"></polygon>
            </g>
            <g id="Group-153" transform="translate(107.000000, 35.720000)">
                <mask id="mask-102" fill="white">
                    <use xlink:href="#path-101"></use>
                </mask>
                <g id="Clip-152"></g>
                <polygon id="Fill-151" fill="#5E63B6" mask="url(#mask-102)" points="-4.78 13.32 16.028 13.32 16.028 -4.256 -4.78 -4.256"></polygon>
            </g>
            <g id="Group-156" transform="translate(119.000000, 38.720000)">
                <mask id="mask-104" fill="white">
                    <use xlink:href="#path-103"></use>
                </mask>
                <g id="Clip-155"></g>
                <polygon id="Fill-154" fill="#FFFFFF" mask="url(#mask-104)" points="-4.9 11.879 14.74 11.879 14.74 -4.844 -4.9 -4.844"></polygon>
            </g>
            <g id="Group-159" transform="translate(118.000000, 37.720000)">
                <mask id="mask-106" fill="white">
                    <use xlink:href="#path-105"></use>
                </mask>
                <g id="Clip-158"></g>
                <polygon id="Fill-157" fill="#5E63B6" mask="url(#mask-106)" points="-4.48 13.36 16.27 13.36 16.27 -4.382 -4.48 -4.382"></polygon>
            </g>
            <g id="Group-162" transform="translate(99.000000, 38.720000)">
                <mask id="mask-108" fill="white">
                    <use xlink:href="#path-107"></use>
                </mask>
                <g id="Clip-161"></g>
                <polygon id="Fill-160" fill="#E1F2FF" mask="url(#mask-108)" points="-4.17 10.956 32.461 10.956 32.461 -4.904 -4.17 -4.904"></polygon>
            </g>
            <g id="Group-165" transform="translate(114.000000, 74.720000)">
                <mask id="mask-110" fill="white">
                    <use xlink:href="#path-109"></use>
                </mask>
                <g id="Clip-164"></g>
                <polygon id="Fill-163" fill="#FFFFFF" mask="url(#mask-110)" points="-4.52 16.894 26.36 16.894 26.36 -4.7 -4.52 -4.7"></polygon>
            </g>
            <g id="Group-168" transform="translate(113.000000, 73.720000)">
                <mask id="mask-112" fill="white">
                    <use xlink:href="#path-111"></use>
                </mask>
                <g id="Clip-167"></g>
                <polygon id="Fill-166" fill="#5E63B6" mask="url(#mask-112)" points="-4.07 18.45 28 18.45 28 -4.29 -4.07 -4.29"></polygon>
            </g>
            <g id="Group-171" transform="translate(106.000000, 54.720000)">
                <mask id="mask-114" fill="white">
                    <use xlink:href="#path-113"></use>
                </mask>
                <g id="Clip-170"></g>
                <polygon id="Fill-169" fill="#E1F2FF" mask="url(#mask-114)" points="-4.113 16.21 22.501 16.21 22.501 -4.512 -4.113 -4.512"></polygon>
            </g>
            <g id="Group-174" transform="translate(107.000000, 56.720000)">
                <mask id="mask-116" fill="white">
                    <use xlink:href="#path-115"></use>
                </mask>
                <g id="Clip-173"></g>
                <polygon id="Fill-172" fill="#FFFFFF" mask="url(#mask-116)" points="-4.883 14.01 19.431 14.01 19.431 -4.431 -4.883 -4.431"></polygon>
            </g>
            <g id="Group-177" transform="translate(106.000000, 56.720000)">
                <mask id="mask-118" fill="white">
                    <use xlink:href="#path-117"></use>
                </mask>
                <g id="Clip-176"></g>
                <polygon id="Fill-175" fill="#5E63B6" mask="url(#mask-118)" points="-4.403 14.53 20.951 14.53 20.951 -4.942 -4.403 -4.942"></polygon>
            </g>
            <g id="Group-180" transform="translate(92.000000, 57.720000)">
                <mask id="mask-120" fill="white">
                    <use xlink:href="#path-119"></use>
                </mask>
                <g id="Clip-179"></g>
                <polygon id="Fill-178" fill="#5E63B6" mask="url(#mask-120)" points="-4.729 15.939 27.251 15.939 27.251 -4.111 -4.729 -4.111"></polygon>
            </g>
            <g id="Group-183" transform="translate(119.000000, 76.720000)">
                <mask id="mask-122" fill="white">
                    <use xlink:href="#path-121"></use>
                </mask>
                <g id="Clip-182"></g>
                <polygon id="Fill-181" fill="#E1F2FF" mask="url(#mask-122)" points="-4.62 12.16 19.68 12.16 19.68 -4.87 -4.62 -4.87"></polygon>
            </g>
            <g id="Group-186" transform="translate(118.000000, 77.720000)">
                <mask id="mask-124" fill="white">
                    <use xlink:href="#path-123"></use>
                </mask>
                <g id="Clip-185"></g>
                <polygon id="Fill-184" fill="#9ACDED" mask="url(#mask-124)" points="-4.795 7.48 20.326 7.48 20.326 -4.292 -4.795 -4.292"></polygon>
            </g>
            <g id="Group-189" transform="translate(126.000000, 115.720000)">
                <mask id="mask-126" fill="white">
                    <use xlink:href="#path-125"></use>
                </mask>
                <g id="Clip-188"></g>
                <polygon id="Fill-187" fill="#E1F2FF" mask="url(#mask-126)" points="-4.98 7.15 8.56 7.15 8.56 -4.91 -4.98 -4.91"></polygon>
            </g>
            <g id="Group-192" transform="translate(129.000000, 115.720000)">
                <mask id="mask-128" fill="white">
                    <use xlink:href="#path-127"></use>
                </mask>
                <g id="Clip-191"></g>
                <polygon id="Fill-190" fill="#E1F2FF" mask="url(#mask-128)" points="-4.95 7.08 8.59 7.08 8.59 -4.98 -4.95 -4.98"></polygon>
            </g>
            <g id="Group-195" transform="translate(126.000000, 67.720000)">
                <mask id="mask-130" fill="white">
                    <use xlink:href="#path-129"></use>
                </mask>
                <g id="Clip-194"></g>
                <polygon id="Fill-193" fill="#E1F2FF" mask="url(#mask-130)" points="-4.15 56.62 10.102 56.62 10.102 -4.98 -4.15 -4.98"></polygon>
            </g>
            <g id="Group-198" transform="translate(91.000000, 60.720000)">
                <mask id="mask-132" fill="white">
                    <use xlink:href="#path-131"></use>
                </mask>
                <g id="Clip-197"></g>
                <polygon id="Fill-196" fill="#E1F2FF" mask="url(#mask-132)" points="-4.54 37.96 46.42 37.96 46.42 -4.71 -4.54 -4.71"></polygon>
            </g>
            <polygon id="Fill-199" fill="#FFFFFF" points="31.9977 154.1616 42.4387 174.6546 46.0037 172.8386 35.5607 152.3456"></polygon>
            <path d="M33.3422,154.5986 L42.8762,173.3096 L44.6572,172.4016 L35.1232,153.6906 L33.3422,154.5986 Z M42.4392,174.6546 L31.9962,154.1616 L35.5612,152.3456 L46.0032,172.8386 L42.4392,174.6546 Z" id="Fill-200" fill="#5E63B6"></path>
            <polygon id="Fill-201" fill="#FFFFFF" points="30.6225 153.6279 33.8585 155.9799 47.3775 137.3719 44.1415 135.0209"></polygon>
            <path d="M32.019,153.4067 L33.637,154.5827 L45.981,137.5937 L44.363,136.4177 L32.019,153.4067 Z M33.858,155.9787 L30.623,153.6287 L44.142,135.0207 L47.377,137.3717 L33.858,155.9787 Z" id="Fill-202" fill="#5E63B6"></path>
            <g id="Group-205" transform="translate(55.000000, 124.720000)">
                <mask id="mask-134" fill="white">
                    <use xlink:href="#path-133"></use>
                </mask>
                <g id="Clip-204"></g>
                <polygon id="Fill-203" fill="#F8B43F" mask="url(#mask-134)" points="-5.6509 -3.3788 7.5031 -6.4158 11.3591 10.2852 -1.7959 13.3222"></polygon>
            </g>
            <path d="M56.5952,126.0546 L57.6542,130.6376 C58.4362,130.0416 58.8192,129.0176 58.5842,128.0046 C58.3542,127.0066 57.5482,126.2476 56.5952,126.0546 L56.5952,126.0546 Z M56.9652,132.1006 L55.3352,125.0466 L55.9282,125.0126 C57.6102,124.9126 59.1722,126.1056 59.5592,127.7796 C59.9502,129.4736 59.0912,131.1926 57.5142,131.8666 L56.9652,132.1006 Z" id="Fill-206" fill="#5E63B6"></path>
            <g id="Group-210" transform="translate(37.000000, 126.720000)">
                <mask id="mask-136" fill="white">
                    <use xlink:href="#path-135"></use>
                </mask>
                <g id="Clip-209"></g>
                <polygon id="Fill-208" fill="#FFFFFF" mask="url(#mask-136)" points="-6.939 -2.2391 8.095 -5.7101 12.82 14.7519 -2.215 18.2219"></polygon>
            </g>
            <path d="M40.6206,128.2978 C38.7906,129.2148 37.7926,131.2968 38.2686,133.3618 C38.7476,135.4358 40.5576,136.8698 42.6026,136.8848 L40.6206,128.2978 Z M42.6336,137.8848 C40.1136,137.8848 37.8826,136.1308 37.2946,133.5868 C36.6606,130.8368 38.1716,128.0628 40.8076,127.1338 L41.3356,126.9488 L43.8356,137.7798 L43.2826,137.8458 C43.0646,137.8718 42.8486,137.8848 42.6336,137.8848 L42.6336,137.8848 Z" id="Fill-211" fill="#5E63B6"></path>
            <g id="Group-215" transform="translate(41.000000, 125.720000)">
                <mask id="mask-138" fill="white">
                    <use xlink:href="#path-137"></use>
                </mask>
                <g id="Clip-214"></g>
                <polygon id="Fill-213" fill="#FFFFFF" mask="url(#mask-138)" points="-5.9693 -2.3866 6.8917 -5.3556 11.6157 15.1064 -1.2453 18.0754"></polygon>
            </g>
            <path d="M42.226,127.83 L44.251,136.6 L45.42,136.33 L43.395,127.56 L42.226,127.83 Z M43.501,137.799 L41.027,127.081 L44.145,126.361 L46.62,137.079 L43.501,137.799 Z" id="Fill-216" fill="#5E63B6"></path>
            <g id="Group-220" transform="translate(43.000000, 116.720000)">
                <mask id="mask-140" fill="white">
                    <use xlink:href="#path-139"></use>
                </mask>
                <g id="Clip-219"></g>
                <polygon id="Fill-218" fill="#FFFFFF" mask="url(#mask-140)" points="-6.9273 -0.2982 14.6347 -5.2762 22.2837 27.8518 0.7207 32.8308"></polygon>
            </g>
            <path d="M46.8452,136.4115 L57.9482,139.4255 L53.2982,119.2865 L44.6412,126.8665 L46.8452,136.4115 Z M59.2972,140.8285 L46.0052,137.2205 L43.4822,126.2925 L43.8662,126.2155 L53.8962,117.4325 L59.2972,140.8285 Z" id="Fill-221" fill="#5E63B6"></path>
            <g id="Group-225" transform="translate(32.000000, 171.720000)">
                <mask id="mask-142" fill="white">
                    <use xlink:href="#path-141"></use>
                </mask>
                <g id="Clip-224"></g>
                <polygon id="Fill-223" fill="#FFFFFF" mask="url(#mask-142)" points="-5 15.28 31 15.28 31 -4.72 -5 -4.72"></polygon>
            </g>
            <path d="M58.5004,181.9999 L57.5004,181.9999 C57.5004,176.7619 51.8934,172.4999 45.0004,172.4999 C38.1074,172.4999 32.5004,176.7619 32.5004,181.9999 L31.5004,181.9999 C31.5004,176.2099 37.5564,171.4999 45.0004,171.4999 C52.4444,171.4999 58.5004,176.2099 58.5004,181.9999" id="Fill-226" fill="#5E63B6"></path>
            <g id="Group-230" transform="translate(30.000000, 149.720000)">
                <mask id="mask-144" fill="white">
                    <use xlink:href="#path-143"></use>
                </mask>
                <g id="Clip-229"></g>
                <polygon id="Fill-228" fill="#FFFFFF" mask="url(#mask-144)" points="-5 12.28 12 12.28 12 -4.72 -5 -4.72"></polygon>
            </g>
            <path d="M33.5004,150.4999 C31.8464,150.4999 30.5004,151.8459 30.5004,153.4999 C30.5004,155.1539 31.8464,156.4999 33.5004,156.4999 C35.1544,156.4999 36.5004,155.1539 36.5004,153.4999 C36.5004,151.8459 35.1544,150.4999 33.5004,150.4999 M33.5004,157.4999 C31.2944,157.4999 29.5004,155.7059 29.5004,153.4999 C29.5004,151.2939 31.2944,149.4999 33.5004,149.4999 C35.7064,149.4999 37.5004,151.2939 37.5004,153.4999 C37.5004,155.7059 35.7064,157.4999 33.5004,157.4999" id="Fill-231" fill="#5E63B6"></path>
            <g id="Group-235" transform="translate(32.000000, 151.720000)">
                <mask id="mask-146" fill="white">
                    <use xlink:href="#path-145"></use>
                </mask>
                <g id="Clip-234"></g>
                <polygon id="Fill-233" fill="#FFFFFF" mask="url(#mask-146)" points="-5 8.28 8 8.28 8 -4.72 -5 -4.72"></polygon>
            </g>
            <path d="M33.5004,152.4999 C32.9484,152.4999 32.5004,152.9489 32.5004,153.4999 C32.5004,154.0509 32.9484,154.4999 33.5004,154.4999 C34.0524,154.4999 34.5004,154.0509 34.5004,153.4999 C34.5004,152.9489 34.0524,152.4999 33.5004,152.4999 M33.5004,155.4999 C32.3974,155.4999 31.5004,154.6029 31.5004,153.4999 C31.5004,152.3969 32.3974,151.4999 33.5004,151.4999 C34.6034,151.4999 35.5004,152.3969 35.5004,153.4999 C35.5004,154.6029 34.6034,155.4999 33.5004,155.4999" id="Fill-236" fill="#5E63B6"></path>
            <g id="Group-240" transform="translate(75.000000, 113.720000)">
                <mask id="mask-148" fill="white">
                    <use xlink:href="#path-147"></use>
                </mask>
                <g id="Clip-239"></g>
                <polygon id="Fill-238" fill="#FFFFFF" mask="url(#mask-148)" points="-5 71.53 105 71.53 105 -4.72 -5 -4.72"></polygon>
            </g>
            <path d="M80.9497,114.4999 C77.9447,114.4999 75.5007,116.7069 75.5007,119.4199 L75.5007,174.8199 C75.5007,177.5389 77.9447,179.7499 80.9497,179.7499 L169.0507,179.7499 C172.0547,179.7499 174.5007,177.5429 174.5007,174.8299 L174.5007,119.4299 C174.5007,116.7109 172.0547,114.4999 169.0507,114.4999 L80.9497,114.4999 Z M169.0507,180.7499 L80.9497,180.7499 C77.3937,180.7499 74.5007,178.0899 74.5007,174.8199 L74.5007,119.4199 C74.5007,116.1559 77.3937,113.4999 80.9497,113.4999 L169.0507,113.4999 C172.6067,113.4999 175.5007,116.1599 175.5007,119.4299 L175.5007,174.8299 C175.5007,178.0939 172.6067,180.7499 169.0507,180.7499 L169.0507,180.7499 Z" id="Fill-241" fill="#5E63B6"></path>
            <g id="Group-245" transform="translate(77.000000, 115.720000)">
                <mask id="mask-150" fill="white">
                    <use xlink:href="#path-149"></use>
                </mask>
                <g id="Clip-244"></g>
                <polygon id="Fill-243" fill="#EFEFF6" mask="url(#mask-150)" points="-4.33 67.61 77.68 67.61 77.68 -4.14 -4.33 -4.14"></polygon>
            </g>
            <g id="Group-248" transform="translate(116.000000, 139.720000)">
                <mask id="mask-152" fill="white">
                    <use xlink:href="#path-151"></use>
                </mask>
                <g id="Clip-247"></g>
                <polygon id="Fill-246" fill="#9452BA" mask="url(#mask-152)" points="-4.66 23.65 23.036 23.65 23.036 -4.84 -4.66 -4.84"></polygon>
            </g>
            <g id="Group-251" transform="translate(5.000000, 179.720000)">
                <mask id="mask-154" fill="white">
                    <use xlink:href="#path-153"></use>
                </mask>
                <g id="Clip-250"></g>
                <polygon id="Fill-249" fill="#5E63B6" mask="url(#mask-154)" points="-5 16 256.97 16 256.97 -4.72 -5 -4.72"></polygon>
            </g>
            <g id="Group-254" transform="translate(180.000000, 157.720000)">
                <mask id="mask-156" fill="white">
                    <use xlink:href="#path-155"></use>
                </mask>
                <g id="Clip-253"></g>
                <polygon id="Fill-252" fill="#FFFFFF" mask="url(#mask-156)" points="-5 28.28 26 28.28 26 -4.72 -5 -4.72"></polygon>
            </g>
            <g id="Group-259" transform="translate(180.000000, 157.720000)" fill="#5E63B6">
                <path d="M3.0004,1.2799 C1.8974,1.2799 1.0004,2.1769 1.0004,3.2799 L1.0004,17.2799 C1.0004,20.0369 3.2434,22.2799 6.0004,22.2799 L15.0004,22.2799 C17.7574,22.2799 20.0004,20.0369 20.0004,17.2799 L20.0004,3.2799 C20.0004,2.1769 19.1034,1.2799 18.0004,1.2799 L3.0004,1.2799 Z M15.0004,23.2799 L6.0004,23.2799 C2.6914,23.2799 0.0004,20.5889 0.0004,17.2799 L0.0004,3.2799 C0.0004,1.6259 1.3464,0.2799 3.0004,0.2799 L18.0004,0.2799 C19.6544,0.2799 21.0004,1.6259 21.0004,3.2799 L21.0004,17.2799 C21.0004,20.5889 18.3094,23.2799 15.0004,23.2799 L15.0004,23.2799 Z" id="Fill-255"></path>
                <path d="M18.5004,8.2799 L17.5004,8.2799 L17.5004,4.7799 C17.5004,4.2289 16.9754,3.7799 16.3294,3.7799 L13.0004,3.7799 L13.0004,2.7799 L16.3294,2.7799 C17.5264,2.7799 18.5004,3.6769 18.5004,4.7799 L18.5004,8.2799 Z" id="Fill-257"></path>
            </g>
            <g id="Group-262" transform="translate(200.000000, 159.720000)">
                <mask id="mask-158" fill="white">
                    <use xlink:href="#path-157"></use>
                </mask>
                <g id="Clip-261"></g>
                <polygon id="Fill-260" fill="#FFFFFF" mask="url(#mask-158)" points="-5 20.28 11 20.28 11 -4.72 -5 -4.72"></polygon>
            </g>
            <path d="M201.0004,160.9999 L201.0004,173.9999 C203.2064,173.9999 205.0004,172.2059 205.0004,169.9999 L205.0004,164.9999 C205.0004,162.7939 203.2064,160.9999 201.0004,160.9999 M201.0004,174.9999 L200.0004,174.9999 L200.0004,159.9999 L201.0004,159.9999 C203.7574,159.9999 206.0004,162.2429 206.0004,164.9999 L206.0004,169.9999 C206.0004,172.7569 203.7574,174.9999 201.0004,174.9999" id="Fill-263" fill="#5E63B6"></path>
            <g id="Group-267" transform="translate(200.000000, 161.720000)">
                <mask id="mask-160" fill="white">
                    <use xlink:href="#path-159"></use>
                </mask>
                <g id="Clip-266"></g>
                <polygon id="Fill-265" fill="#E1F2FF" mask="url(#mask-160)" points="-5 16.28 9 16.28 9 -4.72 -5 -4.72"></polygon>
            </g>
            <path d="M201.0004,162.9999 L201.0004,171.9999 C202.1034,171.9999 203.0004,171.1029 203.0004,169.9999 L203.0004,164.9999 C203.0004,163.8969 202.1034,162.9999 201.0004,162.9999 M201.0004,172.9999 L200.0004,172.9999 L200.0004,161.9999 L201.0004,161.9999 C202.6544,161.9999 204.0004,163.3459 204.0004,164.9999 L204.0004,169.9999 C204.0004,171.6539 202.6544,172.9999 201.0004,172.9999" id="Fill-268" fill="#5E63B6"></path>
            <g id="Group-272" transform="translate(183.000000, 163.720000)">
                <mask id="mask-162" fill="white">
                    <use xlink:href="#path-161"></use>
                </mask>
                <g id="Clip-271"></g>
                <polygon id="Fill-270" fill="#EFEFF6" mask="url(#mask-162)" points="-5 14.28 11 14.28 11 -4.72 -5 -4.72"></polygon>
            </g>
            <g id="Group-277" transform="translate(0.000000, 0.720000)">
                <path d="M184.0004,171.2799 L188.0004,171.2799 L188.0004,166.2409 L186.0454,164.5819 L184.0004,166.2659 L184.0004,171.2799 Z M189.0004,172.2799 L183.0004,172.2799 L183.0004,166.0199 L183.4924,166.0199 L183.1824,165.6439 L186.0554,163.2779 L189.0004,165.7789 L189.0004,172.2799 Z" id="Fill-273" fill="#5E63B6"></path>
                <mask id="mask-164" fill="white">
                    <use xlink:href="#path-163"></use>
                </mask>
                <g id="Clip-276"></g>
                <polygon id="Fill-275" fill="#5E63B6" mask="url(#mask-164)" points="185.5 164.53 186.5 164.53 186.5 157.03 185.5 157.03"></polygon>
            </g>
            <g id="Group-280" transform="translate(185.000000, 143.720000)">
                <mask id="mask-166" fill="white">
                    <use xlink:href="#path-165"></use>
                </mask>
                <g id="Clip-279"></g>
                <polygon id="Fill-278" fill="#5E63B6" mask="url(#mask-166)" points="-4.661 17.44 15.484 17.44 15.484 -4.12 -4.661 -4.12"></polygon>
            </g>
            <g id="Group-283" transform="translate(237.000000, 135.720000)">
                <mask id="mask-168" fill="white">
                    <use xlink:href="#path-167"></use>
                </mask>
                <g id="Clip-282"></g>
                <polygon id="Fill-281" fill="#5E63B6" mask="url(#mask-168)" points="-4.3 10.68 6.7 10.68 6.7 -4.25 -4.3 -4.25"></polygon>
            </g>
            <g id="Group-286" transform="translate(227.000000, 71.720000)">
                <mask id="mask-170" fill="white">
                    <use xlink:href="#path-169"></use>
                </mask>
                <g id="Clip-285"></g>
                <polygon id="Fill-284" fill="#5E63B6" mask="url(#mask-170)" points="-4.63 72.71 18.671 72.71 18.671 -4.08 -4.63 -4.08"></polygon>
            </g>
            <g id="Group-289" transform="translate(225.000000, 73.720000)">
                <mask id="mask-172" fill="white">
                    <use xlink:href="#path-171"></use>
                </mask>
                <g id="Clip-288"></g>
                <polygon id="Fill-287" fill="#5E63B6" mask="url(#mask-172)" points="-4.6 6.88 10.34 6.88 10.34 -4.12 -4.6 -4.12"></polygon>
            </g>
            <g id="Group-292" transform="translate(191.000000, 5.720000)">
                <mask id="mask-174" fill="white">
                    <use xlink:href="#path-173"></use>
                </mask>
                <g id="Clip-291"></g>
                <polygon id="Fill-290" fill="#5E63B6" mask="url(#mask-174)" points="-4.15 14.28 7.85 14.28 7.85 -4.72 -4.15 -4.72"></polygon>
            </g>
            <g id="Group-295" transform="translate(45.000000, 8.720000)">
                <mask id="mask-176" fill="white">
                    <use xlink:href="#path-175"></use>
                </mask>
                <g id="Clip-294"></g>
                <polygon id="Fill-293" fill="#5E63B6" mask="url(#mask-176)" points="-4.17 41.41 157.351 41.41 157.351 -4.22 -4.17 -4.22"></polygon>
            </g>
            <g id="Group-298" transform="translate(42.000000, 38.720000)">
                <mask id="mask-178" fill="white">
                    <use xlink:href="#path-177"></use>
                </mask>
                <g id="Clip-297"></g>
                <polygon id="Fill-296" fill="#5E63B6" mask="url(#mask-178)" points="-4.67 15.88 51.03 15.88 51.03 -4.09 -4.67 -4.09"></polygon>
            </g>
            <g id="Group-301" transform="translate(23.000000, 45.720000)">
                <mask id="mask-180" fill="white">
                    <use xlink:href="#path-179"></use>
                </mask>
                <g id="Clip-300"></g>
                <polygon id="Fill-299" fill="#5E63B6" mask="url(#mask-180)" points="-4.1 121.66 72.001 121.66 72.001 -4.09 -4.1 -4.09"></polygon>
            </g>
            <g id="Group-304" transform="translate(21.000000, 158.720000)">
                <mask id="mask-182" fill="white">
                    <use xlink:href="#path-181"></use>
                </mask>
                <g id="Clip-303"></g>
                <polygon id="Fill-302" fill="#5E63B6" mask="url(#mask-182)" points="-4.06 6.68 10.88 6.68 10.88 -4.32 -4.06 -4.32"></polygon>
            </g>
        </g>
    </g>
</svg>
