<svg xmlns="http://www.w3.org/2000/svg" width="256" height="256" viewBox="0 0 256 256">
  <g fill="none" fill-rule="evenodd">
    <path fill="#E1F2FF" d="M22.2041,236.3918 C22.2041,179.1988 68.5681,132.8338 125.7621,132.8338 C182.9551,132.8338 229.3191,179.1988 229.3191,236.3918 L22.2041,236.3918 Z"/>
    <path fill="#FFF" d="M18.9775,227.3918 L54.9775,227.3918"/>
    <path fill="#5E63B6" d="M54.9775,228.3918 L18.9775,228.3918 C18.4245,228.3918 17.9775,227.9448 17.9775,227.3918 C17.9775,226.8388 18.4245,226.3918 18.9775,226.3918 L54.9775,226.3918 C55.5305,226.3918 55.9775,226.8388 55.9775,227.3918 C55.9775,227.9448 55.5305,228.3918 54.9775,228.3918"/>
    <path fill="#FFF" d="M61.4258,227.3918 L238.3198,227.3918"/>
    <path fill="#5E63B6" d="M238.3193 228.3918L61.4253 228.3918C60.8733 228.3918 60.4253 227.9448 60.4253 227.3918 60.4253 226.8388 60.8733 226.3918 61.4253 226.3918L238.3193 226.3918C238.8723 226.3918 239.3193 226.8388 239.3193 227.3918 239.3193 227.9448 238.8723 228.3918 238.3193 228.3918M205.9775 82.4006C205.4245 82.4006 204.9775 81.9536 204.9775 81.4006L204.9775 74.4006C204.9775 73.8476 205.4245 73.4006 205.9775 73.4006 206.5305 73.4006 206.9775 73.8476 206.9775 74.4006L206.9775 81.4006C206.9775 81.9536 206.5305 82.4006 205.9775 82.4006"/>
    <path fill="#5E63B6" d="M209.4775 78.9006L202.4775 78.9006C201.9245 78.9006 201.4775 78.4536 201.4775 77.9006 201.4775 77.3476 201.9245 76.9006 202.4775 76.9006L209.4775 76.9006C210.0305 76.9006 210.4775 77.3476 210.4775 77.9006 210.4775 78.4536 210.0305 78.9006 209.4775 78.9006M41.7275 199.1193C41.4515 199.1193 41.2275 198.8953 41.2275 198.6193L41.2275 194.6823C41.2275 194.4053 41.4515 194.1823 41.7275 194.1823 42.0035 194.1823 42.2275 194.4053 42.2275 194.6823L42.2275 198.6193C42.2275 198.8953 42.0035 199.1193 41.7275 199.1193"/>
    <path fill="#5E63B6" d="M43.6963 197.1506L39.7583 197.1506C39.4823 197.1506 39.2593 196.9266 39.2593 196.6506 39.2593 196.3746 39.4823 196.1506 39.7583 196.1506L43.6963 196.1506C43.9723 196.1506 44.1963 196.3746 44.1963 196.6506 44.1963 196.9266 43.9723 197.1506 43.6963 197.1506M216.7275 139.1193C216.4515 139.1193 216.2275 138.8953 216.2275 138.6193L216.2275 134.6823C216.2275 134.4053 216.4515 134.1823 216.7275 134.1823 217.0035 134.1823 217.2275 134.4053 217.2275 134.6823L217.2275 138.6193C217.2275 138.8953 217.0035 139.1193 216.7275 139.1193"/>
    <path fill="#5E63B6" d="M218.6963 137.1506L214.7583 137.1506C214.4823 137.1506 214.2593 136.9266 214.2593 136.6506 214.2593 136.3746 214.4823 136.1506 214.7583 136.1506L218.6963 136.1506C218.9723 136.1506 219.1963 136.3746 219.1963 136.6506 219.1963 136.9266 218.9723 137.1506 218.6963 137.1506M47.7275 99.1193C47.4515 99.1193 47.2275 98.8953 47.2275 98.6193L47.2275 94.6823C47.2275 94.4053 47.4515 94.1823 47.7275 94.1823 48.0035 94.1823 48.2275 94.4053 48.2275 94.6823L48.2275 98.6193C48.2275 98.8953 48.0035 99.1193 47.7275 99.1193"/>
    <path fill="#5E63B6" d="M49.6963,97.1506 L45.7583,97.1506 C45.4823,97.1506 45.2593,96.9266 45.2593,96.6506 C45.2593,96.3746 45.4823,96.1506 45.7583,96.1506 L49.6963,96.1506 C49.9723,96.1506 50.1963,96.3746 50.1963,96.6506 C50.1963,96.9266 49.9723,97.1506 49.6963,97.1506"/>
    <path fill="#FFF" d="M25.415,133.2756 L25.415,141.4006"/>
    <path fill="#5E63B6" d="M25.415,142.4006 C24.862,142.4006 24.415,141.9536 24.415,141.4006 L24.415,133.2756 C24.415,132.7226 24.862,132.2756 25.415,132.2756 C25.968,132.2756 26.415,132.7226 26.415,133.2756 L26.415,141.4006 C26.415,141.9536 25.968,142.4006 25.415,142.4006"/>
    <path fill="#FFF" d="M29.4775,137.3381 L21.3525,137.3381"/>
    <path fill="#5E63B6" d="M29.4775,138.3381 L21.3525,138.3381 C20.7995,138.3381 20.3525,137.8911 20.3525,137.3381 C20.3525,136.7851 20.7995,136.3381 21.3525,136.3381 L29.4775,136.3381 C30.0305,136.3381 30.4775,136.7851 30.4775,137.3381 C30.4775,137.8911 30.0305,138.3381 29.4775,138.3381"/>
    <path fill="#FFF" d="M245.166,227.1506 L252.14,227.1506"/>
    <path fill="#5E63B6" d="M252.1396,228.1506 L245.1656,228.1506 C244.6136,228.1506 244.1656,227.7036 244.1656,227.1506 C244.1656,226.5976 244.6136,226.1506 245.1656,226.1506 L252.1396,226.1506 C252.6926,226.1506 253.1396,226.5976 253.1396,227.1506 C253.1396,227.7036 252.6926,228.1506 252.1396,228.1506"/>
    <path fill="#FFF" d="M2,227.1506 L10.973,227.1506"/>
    <path fill="#5E63B6" d="M10.9727,228.1506 L1.9997,228.1506 C1.4477,228.1506 0.9997,227.7036 0.9997,227.1506 C0.9997,226.5976 1.4477,226.1506 1.9997,226.1506 L10.9727,226.1506 C11.5257,226.1506 11.9727,226.5976 11.9727,227.1506 C11.9727,227.7036 11.5257,228.1506 10.9727,228.1506"/>
    <path fill="#FFF" d="M94.3818,236.467 L161.5688,236.467"/>
    <path fill="#5E63B6" d="M161.5684,237.467 L94.3814,237.467 C93.8294,237.467 93.3814,237.02 93.3814,236.467 C93.3814,235.914 93.8294,235.467 94.3814,235.467 L161.5684,235.467 C162.1214,235.467 162.5684,235.914 162.5684,236.467 C162.5684,237.02 162.1214,237.467 161.5684,237.467"/>
    <path fill="#FFF" d="M170.1865,236.467 L179.3285,236.467"/>
    <path fill="#5E63B6" d="M179.3281,237.467 L170.1861,237.467 C169.6341,237.467 169.1861,237.02 169.1861,236.467 C169.1861,235.914 169.6341,235.467 170.1861,235.467 L179.3281,235.467 C179.8811,235.467 180.3281,235.914 180.3281,236.467 C180.3281,237.02 179.8811,237.467 179.3281,237.467"/>
    <path fill="#FFF" d="M86.5,236.3918 L81.5,236.4668"/>
    <path fill="#5E63B6" d="M81.5,237.467 C80.954,237.467 80.509,237.03 80.5,236.482 C80.492,235.93 80.933,235.476 81.485,235.467 L86.485,235.392 C87.066,235.357 87.491,235.824 87.5,236.377 C87.508,236.929 87.067,237.383 86.515,237.392 L81.515,237.467 L81.5,237.467 Z"/>
    <path fill="#9452BA" d="M147.2568,225.8039 L152.2338,225.9499 C153.9448,225.9989 155.5278,224.9979 156.1948,223.4199 C158.0938,218.9229 157.7758,214.7309 158.0908,211.1629 C158.6758,204.5519 157.7398,201.1289 156.9148,195.5619 L149.4388,195.5169 C149.4388,195.5169 149.9928,198.2859 150.1758,206.5539 C150.2328,209.1119 145.7118,219.2469 145.7628,224.2859 C145.7718,225.1129 146.4308,225.7799 147.2568,225.8039"/>
    <path fill="#52267D" d="M147.2861,224.8039 L152.2631,224.9499 C153.5751,225.0219 154.7721,224.2169 155.2731,223.0319 C156.6641,219.7379 156.8041,216.6609 156.9391,213.6869 C156.9801,212.7849 157.0201,211.9129 157.0951,211.0749 C157.5601,205.8069 157.0421,202.6329 156.3851,198.6149 C156.2771,197.9529 156.1661,197.2719 156.0551,196.5569 L150.5951,196.5239 C150.7781,198.0399 151.0561,201.1219 151.1761,206.5319 C151.2021,207.7169 150.5371,209.8239 149.4511,213.1639 C148.2411,216.8859 146.7341,221.5189 146.7631,224.2769 C146.7651,224.5639 146.9961,224.7959 147.2861,224.8039 M152.3521,226.9509 C152.3041,226.9509 152.2541,226.9499 152.2041,226.9499 L147.2271,226.8039 C145.8591,226.7629 144.7771,225.6619 144.7631,224.2969 C144.7311,221.2119 146.2281,216.6079 147.5501,212.5449 C148.3591,210.0559 149.1961,207.4819 149.1761,206.5759 C148.9971,198.4909 148.4631,195.7409 148.4581,195.7129 L148.2171,194.5089 L157.7781,194.5669 L157.9041,195.4149 C158.0561,196.4349 158.2101,197.3829 158.3591,198.2909 C159.0121,202.2839 159.5751,205.7329 159.0871,211.2509 C159.0151,212.0619 158.9771,212.9059 158.9371,213.7779 C158.8011,216.7819 158.6451,220.1869 157.1151,223.8089 C156.3161,225.7029 154.4151,226.9509 152.3521,226.9509"/>
    <path fill="#9452BA" d="M133.459,201.7219 L127.648,194.7319 L123.935,194.7709 C123.935,194.7709 123.248,200.4249 122.965,202.7919 C122.467,206.9649 120.494,215.1129 119.324,218.6799 C118.943,219.8399 118.71,220.9279 118.625,221.9179 C118.482,223.5839 119.834,225.0029 121.506,225.0519 L125.915,225.1809 C128.482,225.2559 130.815,223.6089 131.52,221.1379 C133.711,213.4459 133.459,201.7219 133.459,201.7219"/>
    <path fill="#52267D" d="M124.8213,195.7619 C124.6183,197.4409 124.1723,201.1179 123.9583,202.9109 C123.4673,207.0169 121.5223,215.1849 120.2743,218.9909 C119.9203,220.0719 119.7003,221.0849 119.6213,222.0039 C119.5783,222.5039 119.7453,222.9929 120.0903,223.3799 C120.4563,223.7909 120.9833,224.0359 121.5353,224.0519 L125.9443,224.1809 C128.0803,224.2529 129.9833,222.8789 130.5573,220.8639 C132.4753,214.1299 132.4823,204.0729 132.4643,202.0889 L127.1833,195.7369 L124.8213,195.7619 Z M126.0873,226.1839 C126.0193,226.1839 125.9533,226.1829 125.8853,226.1809 L121.4763,226.0519 C120.3773,226.0199 119.3283,225.5309 118.5963,224.7109 C117.8823,223.9089 117.5383,222.8879 117.6293,221.8329 C117.7203,220.7599 117.9713,219.5939 118.3743,218.3679 C119.5693,214.7239 121.5033,206.6039 121.9713,202.6739 C122.2553,200.3059 122.9413,194.6509 122.9413,194.6509 L123.0483,193.7799 L128.1133,193.7269 L134.4513,201.3509 L134.4593,201.6999 C134.4683,202.1849 134.6883,213.6629 132.4813,221.4119 C131.6743,224.2449 129.0613,226.1839 126.0873,226.1839 L126.0873,226.1839 Z"/>
    <path fill="#52267D" d="M124.2314,207.0295 L124.5174,207.3025 L124.5064,206.8005 L124.2314,207.0295 Z M124.6314,207.4125 L124.8394,207.6105 L126.0064,207.2025 L125.9004,206.9495 L125.0964,207.1145 L125.1024,207.4025 L124.6314,207.4125 Z M124.7164,208.1845 L123.4794,207.0025 L124.7124,205.9815 L125.0314,206.3665 L124.6274,206.7005 L126.2014,206.3775 L126.6744,207.4975 L124.7164,208.1845 Z"/>
    <path fill="#9452BA" d="M125.7861,176.1008 C130.1661,176.1388 134.3561,173.2448 143.3021,173.0928 C143.4471,172.5128 143.6201,171.9908 143.8321,171.5638 C145.5511,168.1108 148.1271,158.0898 146.8551,151.4208 L145.8481,146.1438 C145.5181,144.4138 145.3781,142.6508 145.4301,140.8888 C145.4511,140.1548 145.5461,139.4408 145.7081,138.7518 C145.7491,138.5798 145.7931,138.4108 145.8421,138.2418 C145.9881,137.7358 146.1701,137.2468 146.3861,136.7748 C146.4581,136.6178 146.5331,136.4628 146.6121,136.3098 C146.7701,136.0038 146.9431,135.7068 147.1301,135.4208 C147.3151,135.1338 147.5151,134.8558 147.7271,134.5888 C148.3631,133.7878 149.1121,133.0818 149.9491,132.4938 C150.2271,132.2968 150.5161,132.1148 150.8141,131.9458 C152.4501,131.0158 154.3531,130.5078 156.3721,130.5678 L158.1151,130.6188 C161.0521,130.7038 163.6751,131.9708 165.5431,133.9518 C165.7761,134.1998 165.9981,134.4578 166.2071,134.7268 C166.5871,135.2148 166.9221,135.7398 167.2131,136.2898 C167.3221,136.4968 167.4281,136.7058 167.5231,136.9198 C167.5941,137.0778 167.6601,137.2368 167.7231,137.3978 C167.9101,137.8808 168.0631,138.3798 168.1801,138.8938 C168.2961,139.4078 168.3751,139.9338 168.4141,140.4718 C168.4391,140.8298 168.4481,141.1938 168.4371,141.5608 C168.4161,142.2918 168.0991,142.9468 167.6061,143.4128 C167.1121,143.8778 166.4411,144.1558 165.7091,144.1338 L154.8241,143.8158 L156.1951,153.3118 C157.8461,163.0748 157.0751,169.5478 155.4511,173.8308 C155.0891,174.7868 153.0881,178.1498 153.0881,178.1498 C158.2801,186.8978 166.5171,190.8958 175.4111,192.2468 C182.9721,193.3938 199.5541,186.9538 191.3431,178.7018 C183.1311,170.4508 193.1901,175.7258 194.6631,176.7828 C196.1361,177.8398 204.6021,185.5988 194.8541,196.3348 C190.7321,200.8748 186.0931,204.9768 175.1341,207.9058 C173.3761,208.3738 163.8481,208.7888 158.6861,210.1088 C143.3191,214.0378 131.0691,208.9188 124.4211,198.6578 C117.7991,188.4368 124.0561,176.0848 125.7861,176.1008"/>
    <path fill="#52267D" d="M125.9219,177.1008 C125.4299,177.4628 124.0389,179.5018 123.1549,182.8898 C122.3229,186.0788 121.4899,192.2958 125.2599,198.1138 C132.1509,208.7488 144.2439,212.7668 158.4389,209.1398 C161.7339,208.2968 166.7429,207.8178 170.4009,207.4668 C172.4039,207.2758 174.2949,207.0938 174.8759,206.9398 C185.8509,204.0058 190.2379,199.9318 194.1139,195.6628 C197.3339,192.1168 198.7839,188.5898 198.4239,185.1828 C198.0039,181.2158 195.1459,178.3608 194.0799,177.5948 C193.3049,177.0388 191.0939,175.8938 189.7009,175.3918 C190.1099,175.9318 190.8199,176.7588 192.0519,177.9968 C195.2379,181.1988 194.8279,183.9978 193.9239,185.7828 C191.2499,191.0538 180.7229,194.0678 175.2609,193.2348 C164.7729,191.6418 157.0229,186.7388 152.2279,178.6608 L151.9249,178.1488 L152.2289,177.6378 C152.9849,176.3668 154.2759,174.1128 154.5169,173.4768 C156.3859,168.5458 156.6189,161.8178 155.2089,153.4788 L153.6639,142.7818 L165.7379,143.1338 C166.1919,143.1668 166.5999,142.9878 166.9209,142.6848 C167.2409,142.3818 167.4249,141.9718 167.4379,141.5318 C167.4469,141.1988 167.4399,140.8688 167.4169,140.5418 C167.3819,140.0648 167.3109,139.5828 167.2039,139.1148 C167.1009,138.6568 166.9609,138.2008 166.7899,137.7588 C166.7349,137.6138 166.6739,137.4698 166.6099,137.3288 C166.5249,137.1348 166.4289,136.9458 166.3299,136.7588 C166.0609,136.2488 165.7539,135.7728 165.4179,135.3408 C165.2279,135.0968 165.0259,134.8618 164.8149,134.6368 C163.0489,132.7648 160.6589,131.6928 158.0859,131.6188 L156.3429,131.5678 C154.6039,131.5188 152.8369,131.9468 151.3089,132.8148 C151.0379,132.9678 150.7769,133.1328 150.5259,133.3108 C149.7649,133.8458 149.0869,134.4858 148.5109,135.2108 C148.3179,135.4528 148.1379,135.7048 147.9699,135.9638 C147.7989,136.2258 147.6439,136.4938 147.4999,136.7698 C147.4289,136.9088 147.3599,137.0488 147.2939,137.1928 C147.0999,137.6178 146.9349,138.0638 146.8029,138.5198 C146.7579,138.6728 146.7179,138.8278 146.6809,138.9848 C146.5329,139.6108 146.4479,140.2618 146.4299,140.9178 C146.3799,142.6048 146.5149,144.2988 146.8309,145.9558 L147.8379,151.2338 C149.1519,158.1288 146.5119,168.4238 144.7279,172.0088 C144.5629,172.3398 144.4089,172.7878 144.2719,173.3358 L144.0849,174.0798 L143.3179,174.0928 C138.2859,174.1778 134.7369,175.1698 131.8859,175.9678 C129.7319,176.5708 127.8639,177.0918 125.9219,177.1008 M148.7719,212.4098 C138.1829,212.4098 129.1479,207.7918 123.5819,199.2018 C118.3019,191.0518 120.7449,181.8668 123.0219,177.7248 C124.4669,175.0938 125.4499,175.0928 125.7949,175.1008 L125.8729,175.1008 C127.5579,175.1008 129.2339,174.6318 131.3479,174.0408 C134.1679,173.2528 137.6459,172.2808 142.5409,172.1128 C142.6609,171.7378 142.7919,171.4098 142.9369,171.1198 C144.5699,167.8358 147.0869,157.9758 145.8729,151.6088 L144.8659,146.3308 C144.5239,144.5318 144.3759,142.6908 144.4299,140.8598 C144.4529,140.0688 144.5559,139.2828 144.7339,138.5228 C144.7799,138.3328 144.8279,138.1478 144.8809,137.9638 C145.0399,137.4138 145.2399,136.8738 145.4769,136.3588 C145.5559,136.1858 145.6379,136.0178 145.7239,135.8518 C145.8979,135.5148 146.0879,135.1888 146.2919,134.8748 C146.4929,134.5638 146.7129,134.2588 146.9439,133.9668 C147.6399,133.0918 148.4569,132.3208 149.3739,131.6758 C149.6779,131.4608 149.9949,131.2608 150.3209,131.0758 C152.1679,130.0268 154.2639,129.5088 156.4009,129.5678 L158.1449,129.6188 C161.2509,129.7078 164.1369,131.0038 166.2709,133.2648 C166.5259,133.5378 166.7689,133.8198 166.9959,134.1128 C167.4039,134.6368 167.7749,135.2118 168.0969,135.8238 C168.2159,136.0468 168.3309,136.2778 168.4369,136.5118 C168.5139,136.6848 168.5859,136.8598 168.6549,137.0368 C168.8609,137.5688 169.0289,138.1198 169.1549,138.6728 C169.2829,139.2398 169.3689,139.8198 169.4109,140.3998 C169.4399,140.7918 169.4489,141.1888 169.4379,141.5898 C169.4079,142.5648 169.0019,143.4698 168.2929,144.1388 C167.5829,144.8098 166.6759,145.1608 165.6799,145.1338 L155.9839,144.8498 L157.1849,153.1688 C158.6509,161.8388 158.3839,168.9178 156.3859,174.1858 C156.0819,174.9888 154.8489,177.1258 154.2529,178.1428 C158.7499,185.3808 165.9149,189.7928 175.5619,191.2578 C180.7429,192.0418 190.0619,188.9768 192.1399,184.8778 C193.0339,183.1138 192.5419,181.3248 190.6339,179.4068 C187.3839,176.1408 186.5849,174.6878 187.4689,173.6498 C189.0129,171.8358 195.1859,175.9268 195.2459,175.9698 C196.8229,177.1028 199.9339,180.4428 200.4119,184.9728 C200.8359,188.9718 199.2149,193.0208 195.5949,197.0068 C191.6729,201.3268 186.8829,205.8008 175.3919,208.8718 C174.6509,209.0698 172.9479,209.2328 170.5929,209.4578 C166.9989,209.8018 162.0789,210.2728 158.9349,211.0778 C155.4379,211.9708 152.0299,212.4098 148.7719,212.4098"/>
    <path fill="#9452BA" d="M135.6631,161.9123 C136.3421,150.6673 127.6671,141.5613 117.5691,139.3953 C115.4731,138.9463 114.8071,138.2653 112.5011,138.1973 L110.7341,138.1453 C104.7851,137.9723 99.8221,142.6533 99.6481,148.6023 C99.6051,150.0863 100.7721,151.3233 102.2561,151.3663 C102.2561,151.3663 120.3671,151.8903 120.4521,151.8853 C120.4531,151.8853 121.9281,151.9293 121.9291,151.9293 C121.9271,151.9313 120.4501,151.8893 120.4481,151.8913 C124.4041,153.7083 126.7471,158.8993 127.1061,161.6623 C127.6181,165.5983 127.0651,168.8143 125.6521,171.3893 C124.7121,173.1033 124.5501,175.1973 124.6371,176.8993 C124.6371,176.8993 124.6801,176.9153 124.7391,176.9373 C124.7751,177.8473 124.8921,178.8843 125.1281,180.0703 C126.8681,178.9323 129.5731,177.2213 130.0651,176.9783 C131.1281,176.4573 133.5271,175.2683 134.6011,174.6933 C141.4721,171.0173 135.2781,168.3083 135.6631,161.9123"/>
    <path fill="#52267D" d="M125.6172,176.1994 L125.7122,176.2354 L125.7382,176.8974 C125.7582,177.3784 125.8012,177.8814 125.8672,178.4004 C127.3602,177.4414 129.1652,176.3074 129.6242,176.0814 C130.8142,175.4974 133.1022,174.3614 134.1302,173.8114 C137.6162,171.9464 137.1582,170.8484 136.0522,168.1964 C135.3632,166.5444 134.5062,164.4884 134.6652,161.8524 L134.6652,161.8514 C135.3522,150.4604 126.2622,142.2834 117.3592,140.3734 C116.5012,140.1894 115.8612,139.9684 115.2982,139.7724 C114.4302,139.4714 113.7452,139.2344 112.4712,139.1974 L110.7052,139.1454 C108.1122,139.0684 105.6112,140.0134 103.7122,141.8054 C101.8122,143.5964 100.7242,146.0214 100.6482,148.6324 C100.6212,149.5614 101.3552,150.3404 102.2852,150.3664 C108.4212,150.5444 120.1162,150.8814 120.4572,150.8854 C120.4552,150.8854 120.8382,150.8954 121.2202,150.9074 L124.2752,150.9964 L122.9572,152.3144 C125.9592,154.8014 127.7652,158.9794 128.0972,161.5334 C128.6202,165.5454 128.0922,169.0224 126.5292,171.8704 C125.7882,173.2204 125.6092,174.8754 125.6172,176.1994 L125.6172,176.1994 Z M124.4352,181.7194 L124.1472,180.2644 C123.9672,179.3584 123.8452,178.4824 123.7802,177.6524 L123.7632,177.6464 L123.6382,176.9504 C123.5142,174.5414 123.8972,172.5094 124.7752,170.9084 C126.1302,168.4404 126.5802,165.3734 126.1152,161.7914 C125.8202,159.5284 123.7882,154.6484 120.1992,152.8794 C119.4342,152.8594 116.1442,152.7674 102.2262,152.3664 C101.2422,152.3374 100.3282,151.9274 99.6522,151.2114 C98.9762,150.4944 98.6202,149.5574 98.6482,148.5734 C98.7412,145.4284 100.0522,142.5094 102.3402,140.3504 C104.6282,138.1934 107.6162,137.0714 110.7632,137.1454 L112.5302,137.1974 C114.1102,137.2444 115.0062,137.5534 115.9532,137.8834 C116.4872,138.0674 117.0402,138.2604 117.7792,138.4184 C127.4962,140.5024 137.4162,149.4664 136.6612,161.9724 L136.6612,161.9714 C136.5302,164.1464 137.2572,165.8884 137.8982,167.4274 C139.0112,170.0954 140.1612,172.8534 135.0732,175.5754 C134.0222,176.1374 131.7082,177.2864 130.5062,177.8764 C130.1172,178.0674 127.6342,179.6264 125.6762,180.9074 L124.4352,181.7194 Z"/>
    <path fill="#F3E3FF" d="M129.5156,174.7482 C129.4776,173.0082 129.2376,172.1072 129.4536,171.4062 C130.6946,167.3672 131.0966,166.0932 131.2226,161.7822 C131.3476,157.4992 128.9906,153.1932 125.3916,150.8352 C125.1946,150.7052 122.5626,150.4422 120.4486,151.8912 C124.4046,153.7082 126.7466,158.8992 127.1066,161.6622 C127.6186,165.5982 127.0646,168.8152 125.6526,171.3892 C124.7116,173.1032 124.5496,175.1972 124.6366,176.8992 C124.6366,176.8992 129.4966,178.8882 129.5156,174.7482"/>
    <path fill="#52267D" d="M125.123,176.5451 C125.914,176.8081 127.43,177.1301 128.281,176.5571 C128.764,176.2331 129.011,175.6271 129.016,174.7521 C129.001,174.1061 128.958,173.5761 128.922,173.1321 C128.859,172.3501 128.813,171.7851 128.976,171.2591 L129.008,171.1531 C130.23,167.1741 130.6,165.9731 130.723,161.7681 C130.842,157.6901 128.642,153.5631 125.117,151.2531 C124.973,151.2221 123.195,151.0521 121.479,151.8721 C125.069,154.0311 127.24,158.8151 127.602,161.5981 C128.109,165.5011 127.602,168.8771 126.091,171.6291 C125.233,173.1911 125.081,175.1081 125.123,176.5451 M126.992,177.8741 C125.721,177.8741 124.522,177.3931 124.447,177.3621 L124.153,177.2421 L124.138,176.9251 C124.056,175.3331 124.177,173.0391 125.214,171.1491 C126.62,168.5851 127.09,165.4151 126.61,161.7271 C126.236,158.8491 123.813,153.9871 120.239,152.3451 L119.437,151.9771 L120.166,151.4791 C122.383,149.9591 125.234,150.1341 125.667,150.4171 C129.474,152.9121 131.852,157.3801 131.723,161.7971 C131.596,166.1371 131.185,167.4751 129.964,171.4461 L129.931,171.5531 C129.825,171.8971 129.862,172.3561 129.919,173.0511 C129.956,173.5141 130.001,174.0641 130.016,174.7371 L130.016,174.7501 C130.01,175.9821 129.613,176.8691 128.836,177.3891 C128.292,177.7521 127.633,177.8741 126.992,177.8741"/>
    <path fill="#FFF" d="M105.0293,139.8107 C105.0293,139.8107 105.0803,137.9297 106.9703,137.2367 C107.5483,137.0247 108.6013,136.6317 108.6013,136.6317 C108.6013,136.6317 109.6463,139.0187 108.3673,139.5757 C106.5273,140.3767 105.0293,139.8107 105.0293,139.8107"/>
    <path fill="#52267D" d="M105.5908,139.4377 C106.1028,139.5287 107.0698,139.5937 108.1668,139.1177 C108.2968,139.0607 108.3788,138.9737 108.4328,138.8347 C108.5948,138.4217 108.4528,137.7497 108.3048,137.2757 L107.1428,137.7067 C106.0748,138.0977 105.7128,138.9397 105.5908,139.4377 M106.3398,140.5047 C105.4688,140.5047 104.8928,140.2927 104.8528,140.2787 L104.5198,140.1527 L104.5288,139.7967 C104.5318,139.7067 104.6138,137.5677 106.7988,136.7667 L108.8698,135.9987 L109.0598,136.4317 C109.1348,136.6027 109.7808,138.1367 109.3638,139.2007 C109.2128,139.5837 108.9378,139.8727 108.5668,140.0337 C107.7328,140.3977 106.9608,140.5047 106.3398,140.5047"/>
    <path fill="#FFF" d="M109.7471,138.6242 C109.7471,138.6242 109.8751,136.0622 112.7691,135.7732 C113.3101,135.7192 114.7121,135.7942 114.7121,135.7942 C114.7121,135.7942 115.2801,138.5252 113.7521,138.7412 C111.8741,139.0072 109.7471,138.6242 109.7471,138.6242"/>
    <path fill="#52267D" d="M110.3262,138.2043 C111.0442,138.2943 112.4322,138.4223 113.6812,138.2463 C113.8522,138.2223 113.9712,138.1503 114.0672,138.0133 C114.3542,137.6063 114.3382,136.8003 114.2792,136.2743 C113.7992,136.2563 113.1262,136.2413 112.8202,136.2703 C111.0572,136.4473 110.5012,137.5643 110.3262,138.2043 M112.2852,139.3363 C110.8992,139.3363 109.7242,139.1283 109.6582,139.1163 L109.2252,139.0383 L109.2482,138.5993 C109.3002,137.5643 110.0922,135.5383 112.7202,135.2763 C113.2782,135.2183 114.5912,135.2873 114.7382,135.2953 L115.1232,135.3153 L115.2012,135.6923 C115.2412,135.8863 115.5742,137.6083 114.8872,138.5883 C114.6322,138.9493 114.2642,139.1743 113.8222,139.2363 C113.3102,139.3083 112.7842,139.3363 112.2852,139.3363"/>
    <path fill="#FFF" d="M115.4736,139.0373 C115.4736,139.0373 115.9366,136.2063 118.4666,137.0613 C119.5486,137.4273 120.1296,138.2733 120.1296,138.2733 C120.1296,138.2733 119.5586,140.4243 118.5496,140.1503 C116.7876,139.6743 115.4736,139.0373 115.4736,139.0373"/>
    <path fill="#52267D" d="M116.0635,138.7541 C116.5655,138.9711 117.5285,139.3571 118.6805,139.6681 C118.7215,139.6791 118.7615,139.6791 118.8275,139.6421 C119.1165,139.4751 119.4125,138.8621 119.5745,138.3831 C119.3645,138.1511 118.9295,137.7451 118.3065,137.5351 C117.7315,137.3411 117.2685,137.3551 116.8905,137.5801 C116.4305,137.8551 116.1835,138.3931 116.0635,138.7541 M118.7255,140.6751 C118.6235,140.6751 118.5205,140.6601 118.4185,140.6331 C116.6325,140.1501 115.3115,139.5141 115.2555,139.4871 L114.9195,139.3241 L114.9805,138.9561 C114.9905,138.8941 115.2465,137.4021 116.3725,136.7251 C117.0075,136.3431 117.7645,136.2951 118.6265,136.5881 C119.8525,137.0021 120.5145,137.9501 120.5425,137.9901 L120.6715,138.1801 L120.6135,138.4011 C120.5695,138.5671 120.1615,140.0261 119.3275,140.5081 C119.1355,140.6181 118.9315,140.6751 118.7255,140.6751"/>
    <path fill="#FFF" d="M122.4863,153.0529 C122.4863,153.0529 128.5343,149.9909 127.5603,144.5119 C128.3323,145.1859 130.3863,147.2339 131.1243,148.2719 C131.0923,149.3379 131.1653,153.5779 125.2353,156.2419 C124.2393,155.1459 123.4113,153.7909 122.4863,153.0529"/>
    <path fill="#52267D" d="M123.3213,153.1418 C123.7303,153.5628 124.1193,154.0648 124.5253,154.5858 C124.7973,154.9348 125.0753,155.2938 125.3643,155.6318 C130.4093,153.2198 130.5873,149.6978 130.6203,148.4298 C130.0863,147.7228 129.0223,146.6058 128.1653,145.7648 C128.1213,149.6948 124.7353,152.2458 123.3213,153.1418 L123.3213,153.1418 Z M125.1093,156.8468 L124.8653,156.5788 C124.4643,156.1358 124.0933,155.6608 123.7353,155.1998 C123.1993,154.5088 122.6923,153.8568 122.1753,153.4438 L121.5673,152.9588 L122.2593,152.6068 C122.3173,152.5788 127.9643,149.6418 127.0683,144.5998 L126.8193,143.2018 L127.8893,144.1348 C128.7133,144.8538 130.7713,146.9118 131.5313,147.9828 L131.6293,148.1188 L131.6243,148.2868 C131.5303,152.0998 129.4513,154.8968 125.4403,156.6988 L125.1093,156.8468 Z"/>
    <path fill="#F3E3FF" d="M105.8545 139.3166C105.8545 139.3166 105.8805 138.3426 106.8595 137.9846 107.1585 137.8756 107.7045 137.6706 107.7045 137.6706 107.7045 137.6706 108.2445 138.9066 107.5835 139.1946 106.6295 139.6096 105.8545 139.3166 105.8545 139.3166M110.9951 138.0803C110.9951 138.0803 111.0601 136.7743 112.5361 136.6273 112.8111 136.6003 113.5261 136.6383 113.5261 136.6383 113.5261 136.6383 113.8161 138.0303 113.0371 138.1403 112.0791 138.2753 110.9951 138.0803 110.9951 138.0803M116.3975 138.8596C116.3975 138.8596 116.6435 137.3576 117.9865 137.8116 118.5595 138.0056 118.8685 138.4546 118.8685 138.4546 118.8685 138.4546 118.5655 139.5946 118.0305 139.4506 117.0955 139.1976 116.3975 138.8596 116.3975 138.8596M114.543 149.9201L109.1 149.7621C109.18 147.0201 111.467 144.8621 114.209 144.9421L114.688 144.9561C116.059 144.9961 117.138 146.1401 117.098 147.5111 117.058 148.8821 115.913 149.9601 114.543 149.9201"/>
    <path fill="#FFF" d="M114.0869,149.8137 L109.1959,149.6707 C109.2589,147.5167 111.0559,145.8217 113.2099,145.8847 L114.2009,145.9137 C115.2779,145.9457 116.1249,146.8437 116.0939,147.9207 C116.0629,148.9977 115.1639,149.8447 114.0869,149.8137"/>
    <path fill="#52267D" d="M114.1016,149.3137 C114.1156,149.3147 114.1296,149.3147 114.1446,149.3147 C114.9246,149.3147 115.5716,148.6917 115.5936,147.9067 C115.6176,147.1067 114.9856,146.4367 114.1866,146.4137 L113.1956,146.3847 C112.2876,146.3547 111.4226,146.6867 110.7616,147.3097 C110.2236,147.8177 109.8726,148.4707 109.7476,149.1867 L114.1016,149.3137 Z M114.1446,150.3147 C114.1206,150.3147 114.0966,150.3147 114.0726,150.3137 L108.6816,150.1567 L108.6966,149.6567 C108.7306,148.4807 109.2206,147.3897 110.0756,146.5827 C110.9306,145.7757 112.0406,145.3577 113.2246,145.3847 L114.2156,145.4137 C115.5666,145.4547 116.6326,146.5847 116.5936,147.9357 C116.5546,149.2617 115.4626,150.3147 114.1446,150.3147 L114.1446,150.3147 Z"/>
    <path fill="#52267D" d="M110.1133 148.632C110.0953 149.234 110.5683 149.735 111.1703 149.752 111.7713 149.77 112.2733 149.297 112.2913 148.695 112.3083 148.094 111.8363 147.592 111.2343 147.574 110.6333 147.557 110.1313 148.03 110.1133 148.632M102.0303 150.5412L102.0303 150.5412C102.3423 150.4832 102.6243 150.3192 102.8283 150.0772L103.2063 149.6292 102.3883 149.7792 101.9063 149.8682C101.7203 149.9022 101.5973 150.0812 101.6323 150.2672 101.6663 150.4522 101.8443 150.5752 102.0303 150.5412"/>
    <path fill="#E1F2FF" d="M123.4893,153.1906 C123.4893,153.1906 128.1463,150.8546 128.2213,145.8786 C130.1503,147.3726 130.6573,148.3156 130.6573,148.3156 C130.6573,148.3156 130.2453,150.6736 129.1063,151.8366 C127.3603,153.6216 125.5803,154.1336 123.4893,153.1906"/>
    <path fill="#FFF" d="M127.8555,152.4436 C127.8555,152.4436 125.9945,154.2306 124.2045,155.0606"/>
    <path fill="#52267D" d="M124.4141,155.5139 L123.9941,154.6079 C125.6851,153.8229 127.4911,152.0999 127.5091,152.0829 L128.2021,152.8039 C128.1231,152.8789 126.2591,154.6599 124.4141,155.5139"/>
    <path fill="#9452BA" d="M145.2744,172.3088 L144.3114,170.2628 C140.7704,160.7738 140.3424,155.2498 142.5834,146.3578 L143.8954,141.1488 C144.3264,139.4398 144.5694,137.6888 144.6204,135.9268 C144.7924,130.0548 140.1704,125.1558 134.2984,124.9838 L132.5824,124.9338 C126.7904,124.7648 121.9584,129.3228 121.7894,135.1148 L121.7804,135.4148 C121.7404,136.7928 122.8254,137.9428 124.2024,137.9838 L135.0714,138.3008 L133.1484,147.7008 C127.3644,172.8728 127.5704,183.1538 137.5584,181.3328"/>
    <path fill="#52267D" d="M135.4687,182.5393 C133.4557,182.5393 131.8887,181.9293 130.7097,180.6953 C127.1307,176.9493 127.5417,167.6363 132.1737,147.4763 L133.8537,139.2663 L124.1727,138.9833 C122.2457,138.9263 120.7247,137.3113 120.7807,135.3863 L120.7887,135.0853 C120.9747,128.7513 126.2517,123.7593 132.6117,123.9343 L134.3277,123.9833 C137.4357,124.0753 140.3207,125.3703 142.4527,127.6323 C144.5857,129.8933 145.7107,132.8493 145.6197,135.9563 C145.5677,137.7863 145.3137,139.6153 144.8647,141.3933 L143.5527,146.6013 C141.3637,155.2923 141.7437,160.5213 145.2477,169.9133 L146.1797,171.8833 L144.3687,172.7343 L143.4057,170.6883 C139.7447,160.8863 139.3337,155.1623 141.6137,146.1133 L142.9257,140.9043 C143.3377,139.2683 143.5727,137.5833 143.6197,135.8973 C143.7767,130.5863 139.5807,126.1393 134.2697,125.9833 L132.5527,125.9343 C129.9947,125.8523 127.6067,126.7773 125.7627,128.5163 C123.9187,130.2563 122.8627,132.6093 122.7887,135.1433 L122.7807,135.4443 C122.7557,136.2683 123.4067,136.9593 124.2317,136.9833 L136.2887,137.3363 L134.1277,147.9003 C131.0597,161.2583 128.4297,175.4143 132.1557,179.3133 C133.2447,180.4543 134.9547,180.7883 137.3787,180.3503 L137.7387,182.3163 C136.9257,182.4653 136.1697,182.5393 135.4687,182.5393"/>
    <path fill="#FFF" d="M127.2988,126.0383 C127.2988,126.0383 127.5278,124.2013 129.3798,123.5213 C129.9448,123.3143 130.8138,123.5783 130.8138,123.5783 C130.8138,123.5783 131.8218,125.2633 130.5698,125.8083 C128.7668,126.5933 127.2988,126.0383 127.2988,126.0383"/>
    <path fill="#52267D" d="M127.9063,125.676 C128.4163,125.764 129.3233,125.807 130.3703,125.35 C130.5783,125.259 130.6383,125.145 130.6673,125.055 C130.7673,124.746 130.6033,124.283 130.4743,124.008 C130.1843,123.947 129.7873,123.906 129.5523,123.991 C128.5173,124.37 128.0823,125.177 127.9063,125.676 M128.5833,126.729 C127.7273,126.729 127.1613,126.521 127.1223,126.506 L126.7543,126.367 L126.8023,125.977 C126.8133,125.889 127.0933,123.828 129.2083,123.052 C129.9103,122.793 130.8533,123.069 130.9593,123.1 L131.1433,123.155 L131.2423,123.322 C131.3113,123.436 131.9053,124.469 131.6203,125.36 C131.4893,125.768 131.1943,126.081 130.7683,126.267 C129.9503,126.623 129.1923,126.729 128.5833,126.729"/>
    <path fill="#FFF" d="M131.6768,125.5578 C131.6768,125.5578 131.8218,122.6578 135.0998,122.3288 C135.7108,122.2678 136.4908,122.3508 136.4908,122.3508 C136.4908,122.3508 137.9428,125.4458 136.2118,125.6908 C134.0848,125.9918 131.6768,125.5578 131.6768,125.5578"/>
    <path fill="#52267D" d="M132.2529,125.1389 C133.0479,125.2429 134.6779,125.4019 136.1419,125.1959 C136.3559,125.1649 136.4289,125.0789 136.4729,124.9989 C136.7039,124.5699 136.4489,123.5519 136.1529,122.8259 C135.8879,122.8079 135.4849,122.7929 135.1489,122.8259 C133.0649,123.0349 132.4399,124.4099 132.2529,125.1389 M134.5509,126.2969 C132.9869,126.2969 131.6629,126.0639 131.5879,126.0499 L131.1549,125.9719 L131.1779,125.5339 C131.2339,124.3809 132.1179,122.1249 135.0499,121.8319 C135.7029,121.7669 136.5099,121.8499 136.5439,121.8539 L136.8239,121.8829 L136.9439,122.1389 C137.0489,122.3629 137.9539,124.3619 137.3529,125.4749 C137.2019,125.7509 136.8959,126.0989 136.2819,126.1859 C135.7049,126.2669 135.1119,126.2969 134.5509,126.2969"/>
    <path fill="#FFF" d="M137.5,126.3889 C137.5,126.3889 138.023,123.6269 140.481,124.5289 C141.531,124.9139 142.079,125.7579 142.079,125.7579 C142.079,125.7579 141.466,127.8489 140.484,127.5569 C138.771,127.0459 137.5,126.3889 137.5,126.3889"/>
    <path fill="#52267D" d="M138.0977,126.1213 C138.5857,126.3473 139.5147,126.7463 140.6267,127.0773 C140.6607,127.0873 140.6967,127.0943 140.7637,127.0563 C141.0477,126.9013 141.3507,126.3163 141.5207,125.8533 C141.3207,125.6213 140.9087,125.2183 140.3087,124.9983 C139.7497,124.7913 139.2987,124.7963 138.9257,125.0083 C138.4777,125.2623 138.2247,125.7733 138.0977,126.1213 M140.6717,128.0853 C140.5617,128.0853 140.4517,128.0683 140.3417,128.0363 C138.6037,127.5173 137.3247,126.8603 137.2707,126.8333 L136.9397,126.6623 L137.0087,126.2963 C137.0207,126.2333 137.3087,124.7753 138.4327,124.1383 C139.0667,123.7783 139.8137,123.7513 140.6537,124.0583 C141.8467,124.4973 142.4727,125.4453 142.4977,125.4853 L142.6227,125.6783 L142.5587,125.8983 C142.4827,126.1613 142.0567,127.4913 141.2427,127.9343 C141.0587,128.0343 140.8657,128.0853 140.6717,128.0853"/>
    <path fill="#F3E3FF" d="M126.0234,175.7717 C126.6574,175.3257 127.2924,175.0767 127.8354,174.9627"/>
    <path fill="#52267D" d="M126.3115,176.1809 L125.7355,175.3629 C126.3595,174.9229 127.0505,174.6159 127.7345,174.4739 L127.9375,175.4519 C127.5535,175.5329 126.9595,175.7239 126.3115,176.1809"/>
    <path fill="#F3E3FF" d="M129.625,175.8195 C128.059,168.5485 131.667,154.8405 132.355,151.4615 L135.086,137.9195 L136.108,137.9495 C137.404,137.9875 138.345,139.4235 138.123,140.7035 L136.087,152.4595 C135.398,156.4395 134.263,174.9285 141.092,179.1075 C142.548,179.9995 144.974,179.5125 145.894,179.1065 C149.24,177.6265 150.31,173.5375 151.13,170.2415 C152.828,163.4185 151.818,157.9935 151.645,152.6005 L151.493,145.8565 C151.466,144.6375 152.472,143.3745 153.688,143.4095 L154.93,143.4455 L156.768,157.1205 C157.326,161.0155 158.664,174.5065 150.561,180.5755 C150.414,180.6845 152.47,181.2085 151.839,182.2515 C149.334,186.3915 142.413,186.8555 141.061,188.6205 C135.854,195.4165 140.108,210.3415 140.108,210.3415 C140.108,210.3415 134.619,207.9635 131.269,204.7795 C123.436,197.3365 122.72,186.8645 122.772,183.7895 C122.835,180.1105 123.867,177.8575 125.097,176.5305"/>
    <path fill="#52267D" d="M140.8789,211.2209 L139.9089,210.8009 C139.6819,210.7019 134.2999,208.3499 130.9239,205.1419 C122.4789,197.1169 122.2349,185.9399 122.2729,183.7809 C122.3289,180.4439 123.1559,177.8899 124.7299,176.1909 L125.4639,176.8699 C124.0819,178.3619 123.3239,180.7569 123.2729,183.7979 C123.2499,185.0759 123.2979,196.5159 131.6129,204.4169 C134.0369,206.7199 137.6539,208.6169 139.3569,209.4409 C138.4839,205.8839 136.1119,194.2559 140.6639,188.3169 C141.2749,187.5189 142.6399,187.0269 144.3689,186.4029 C146.8609,185.5029 149.9639,184.3839 151.4109,181.9919 C151.4729,181.8909 151.4599,181.8459 151.4549,181.8289 C151.3859,181.5919 150.8159,181.3089 150.6019,181.2019 C150.3229,181.0649 150.0829,180.9459 150.0549,180.6349 L150.0299,180.3569 L150.2619,180.1749 C158.0599,174.3339 156.8339,161.1069 156.2729,157.1919 L154.4899,143.9329 L153.6739,143.9089 C153.2919,143.8739 152.9229,144.0639 152.6079,144.3759 C152.2169,144.7649 151.9819,145.3269 151.9929,145.8459 L152.1449,152.5899 C152.1839,153.8159 152.2679,155.0469 152.3529,156.2979 C152.6429,160.5889 152.9429,165.0279 151.6149,170.3629 C150.8169,173.5689 149.7249,177.9589 146.0959,179.5639 C145.1479,179.9849 142.5019,180.5579 140.8309,179.5339 C133.5039,175.0509 135.0119,155.7409 135.5939,152.3739 L137.6309,140.6179 C137.7229,140.0869 137.5539,139.4819 137.1909,139.0369 C136.8919,138.6699 136.5019,138.4609 136.0939,138.4499 L135.4929,138.4319 L132.8459,151.5599 C132.7519,152.0189 132.6059,152.6649 132.4259,153.4579 C131.3349,158.2679 128.7809,169.5309 130.1139,175.7139 L129.1359,175.9249 C127.7579,169.5259 130.2519,158.5239 131.4499,153.2369 C131.6289,152.4519 131.7739,151.8139 131.8649,151.3619 L134.6789,137.4069 L136.1229,137.4499 C136.8249,137.4699 137.4799,137.8099 137.9659,138.4049 C138.5149,139.0769 138.7579,139.9679 138.6149,140.7879 L136.5789,152.5439 C135.7789,157.1739 134.9609,174.7699 141.3529,178.6809 C142.6009,179.4469 144.8289,179.0289 145.6909,178.6499 C148.8719,177.2419 149.8969,173.1259 150.6449,170.1199 C151.9349,164.9379 151.6399,160.5799 151.3549,156.3659 C151.2689,155.1029 151.1849,153.8599 151.1449,152.6169 L150.9929,145.8669 C150.9759,145.0739 151.3159,144.2509 151.9029,143.6669 C152.4149,143.1589 153.0519,142.9169 153.7029,142.9089 L155.3689,142.9579 L157.2629,157.0539 C157.8289,161.0039 159.0389,174.1469 151.4419,180.5139 C151.8379,180.7399 152.2749,181.0659 152.4149,181.5499 C152.4799,181.7699 152.5049,182.1159 152.2669,182.5099 C150.6369,185.2039 147.3499,186.3909 144.7079,187.3429 C143.2589,187.8669 141.8899,188.3609 141.4569,188.9239 C136.4609,195.4459 140.5479,210.0579 140.5889,210.2049 L140.8789,211.2209 Z"/>
    <path fill="#FFF" d="M194.7354,183.7473 C194.7354,183.7473 195.9154,182.5153 195.3224,180.7973 C195.1414,180.2723 194.4484,179.8063 194.4484,179.8063 C194.4484,179.8063 192.6584,180.0653 192.9974,181.2773 C193.4854,183.0213 194.7354,183.7473 194.7354,183.7473"/>
    <path fill="#52267D" d="M194.3291,180.341 C194.0481,180.414 193.6561,180.568 193.5111,180.791 C193.4691,180.857 193.4271,180.956 193.4781,181.143 C193.7501,182.113 194.2781,182.723 194.6321,183.042 C194.8781,182.624 195.1661,181.876 194.8501,180.96 C194.7771,180.749 194.5251,180.501 194.3291,180.341 L194.3291,180.341 Z M194.8241,184.377 L194.4841,184.18 C194.4261,184.146 193.0531,183.33 192.5161,181.412 C192.3971,180.989 192.4521,180.585 192.6741,180.244 C193.1531,179.508 194.2531,179.329 194.3761,179.311 L194.5671,179.283 L194.7271,179.391 C194.8121,179.448 195.5661,179.971 195.7951,180.634 C196.4791,182.617 195.1531,184.033 195.0971,184.093 L194.8241,184.377 Z"/>
    <path fill="#F3E3FF" d="M194.4092,181.9777 C194.4092,181.9777 194.8222,181.5457 194.6142,180.9437 C194.5512,180.7587 194.3072,180.5957 194.3072,180.5957 C194.3072,180.5957 193.6802,180.6867 193.7992,181.1117 C193.9712,181.7237 194.4092,181.9777 194.4092,181.9777"/>
    <path fill="#FFF" d="M185.1143,192.5383 C185.1143,192.5383 184.1013,190.0313 186.7423,188.4713 C187.2343,188.1803 187.9263,187.9443 187.9263,187.9443 C187.9263,187.9443 190.3633,189.9903 188.9973,190.8753 C187.3183,191.9623 185.1143,192.5383 185.1143,192.5383"/>
    <path fill="#52267D" d="M187.8174,188.5178 C187.5884,188.6068 187.2564,188.7468 186.9974,188.9018 C185.3674,189.8648 185.3454,191.2218 185.4644,191.9138 C186.1864,191.6868 187.5924,191.1888 188.7254,190.4548 C188.8804,190.3548 188.9074,190.2668 188.9124,190.1868 C188.9384,189.7538 188.3354,189.0048 187.8174,188.5178 L187.8174,188.5178 Z M184.8154,193.1328 L184.6504,192.7258 C184.2454,191.7208 184.1064,189.4488 186.4884,188.0398 C187.0184,187.7268 187.7344,187.4818 187.7644,187.4708 L188.0314,187.3798 L188.2474,187.5618 C188.5384,187.8048 189.9824,189.0798 189.9104,190.2478 C189.8914,190.5478 189.7654,190.9738 189.2684,191.2948 C187.5424,192.4128 185.3344,192.9968 185.2404,193.0218 L184.8154,193.1328 Z"/>
    <path fill="#F3E3FF" d="M186.0449,191.633 C186.0449,191.633 185.4829,190.243 186.9469,189.378 C187.2209,189.216 187.6049,189.086 187.6049,189.086 C187.6049,189.086 188.9559,190.221 188.1979,190.711 C187.2679,191.314 186.0449,191.633 186.0449,191.633"/>
    <path fill="#FFF" d="M193.2656,184.6613 C193.2656,184.6613 195.0966,186.3663 193.2506,187.7893 C192.4626,188.3973 191.5676,188.4103 191.5676,188.4103 C191.5676,188.4103 190.2836,186.9553 190.9686,186.3543 C192.1666,185.3073 193.2656,184.6613 193.2656,184.6613"/>
    <path fill="#52267D" d="M193.1709,185.3117 C192.7629,185.5787 192.0479,186.0757 191.2979,186.7307 C191.2559,187.0597 191.5279,187.5437 191.7839,187.8847 C192.0539,187.8407 192.5229,187.7197 192.9449,187.3937 C193.3509,187.0817 193.5559,186.7537 193.5739,186.3917 C193.5949,185.9697 193.3629,185.5697 193.1709,185.3117 L193.1709,185.3117 Z M191.3449,188.9137 L191.1919,188.7417 C191.0289,188.5557 190.2159,187.5877 190.2699,186.7427 C190.2899,186.4367 190.4169,186.1727 190.6399,185.9787 C191.8589,184.9117 192.9659,184.2577 193.0129,184.2307 L193.3339,184.0407 L193.6069,184.2947 C193.6489,184.3337 194.6279,185.2597 194.5729,186.4347 C194.5419,187.0997 194.1999,187.6887 193.5569,188.1847 C192.6479,188.8867 191.6179,188.9097 191.5739,188.9107 L191.3449,188.9137 Z"/>
    <path fill="#F3E3FF" d="M192.958,185.8234 C192.958,185.8234 193.77,186.5784 192.952,187.2094 C192.603,187.4774 192.206,187.4834 192.206,187.4834 C192.206,187.4834 191.637,186.8394 191.94,186.5734 C192.472,186.1094 192.958,185.8234 192.958,185.8234"/>
    <path fill="#FFF" d="M176.0586,193.5774 C176.0586,193.5774 175.5026,191.3554 177.9546,190.5514 C180.4056,189.7474 181.0356,190.4944 181.0356,190.4944 C181.0356,190.4944 182.3116,192.7914 181.0906,193.4834 C179.8716,194.1754 176.0586,193.5774 176.0586,193.5774"/>
    <path fill="#52267D" d="M176.501,193.1359 C177.943,193.3289 180.13,193.4529 180.845,193.0489 C181.457,192.7009 180.893,191.3129 180.642,190.8199 C180.488,190.7319 179.827,190.4609 178.11,191.0269 C176.621,191.5149 176.472,192.5869 176.501,193.1359 M178.976,194.3179 C177.612,194.3179 176.225,194.1099 175.981,194.0719 L175.654,194.0199 L175.573,193.6979 C175.343,192.7749 175.51,190.8269 177.798,190.0759 C180.439,189.2109 181.276,190.0039 181.417,190.1719 C182.036,191.2659 182.642,193.1789 181.338,193.9179 C180.801,194.2229 179.894,194.3179 178.976,194.3179"/>
    <path fill="#F3E3FF" d="M177.2109,193.1096 C177.2109,193.1096 176.9229,191.9546 178.1969,191.5366 C179.4719,191.1186 179.7999,191.5056 179.7999,191.5056 C179.7999,191.5056 180.4629,192.7016 179.8279,193.0606 C179.1939,193.4216 177.2109,193.1096 177.2109,193.1096"/>
    <path fill="#FFF" d="M134.459,141.2229 C134.459,141.2229 138.268,143.5249 143.768,141.7079 C143.345,143.3859 142.485,146.7559 142.485,146.7559 C142.485,146.7559 137.397,148.1559 133.579,145.5939 C134.043,143.3669 134.459,141.2229 134.459,141.2229"/>
    <path fill="#52267D" d="M134.1387,145.3586 C137.1907,147.2136 141.0247,146.5676 142.0757,146.3386 C142.2537,145.6396 142.7147,143.8296 143.0677,142.4386 C139.0747,143.5026 136.0677,142.5176 134.8237,141.9646 C134.6767,142.7066 134.4197,143.9966 134.1387,145.3586 M139.2257,147.6436 C137.4427,147.6436 135.2327,147.3046 133.3007,146.0086 L133.0207,145.8216 L133.0897,145.4926 C133.5527,143.2676 133.9677,141.1276 133.9677,141.1276 L134.1037,140.4276 L134.7167,140.7946 C134.7517,140.8156 138.4127,142.9476 143.6107,141.2336 L144.4747,140.9486 L144.2517,141.8306 C143.8287,143.5086 142.9697,146.8796 142.9697,146.8796 L142.8987,147.1616 L142.6177,147.2386 C142.5067,147.2686 141.1027,147.6436 139.2257,147.6436"/>
    <path fill="#FFF" d="M163.7139,132.2316 C163.7139,132.2316 163.5919,130.3696 161.7689,129.5786 C161.2119,129.3356 159.6939,129.2306 159.6939,129.2306 C159.6939,129.2306 159.2099,131.1846 160.4379,131.8076 C162.2049,132.7036 163.7139,132.2316 163.7139,132.2316"/>
    <path fill="#52267D" d="M160.1182,129.7697 C160.0722,130.2707 160.0972,131.0747 160.6642,131.3617 C161.6912,131.8827 162.6122,131.8917 163.1302,131.8337 C162.9832,131.3207 162.5942,130.4817 161.5692,130.0377 C161.3052,129.9217 160.6562,129.8267 160.1182,129.7697 M162.6902,132.8557 C162.0312,132.8557 161.1542,132.7317 160.2122,132.2537 C158.6462,131.4597 159.1852,129.2067 159.2092,129.1107 L159.3102,128.7027 L159.7292,128.7317 C159.8932,128.7437 161.3502,128.8507 161.9682,129.1207 C164.0472,130.0217 164.2072,132.1107 164.2132,132.1997 L164.2382,132.5907 L163.8632,132.7087 C163.8272,132.7197 163.3782,132.8557 162.6902,132.8557"/>
    <path fill="#FFF" d="M159.0605,131.1467 C159.0605,131.1467 159.0815,128.6157 156.2465,128.1637 C155.7175,128.0787 155.0345,128.1117 155.0345,128.1117 C155.0345,128.1117 153.6145,130.7307 155.1075,131.0317 C156.9435,131.4017 159.0605,131.1467 159.0605,131.1467"/>
    <path fill="#52267D" d="M155.3467,128.6047 C155.0697,129.2007 154.8087,130.0377 154.9747,130.3897 C154.9927,130.4297 155.0287,130.5047 155.2057,130.5417 C156.4217,130.7867 157.7857,130.7427 158.5017,130.6937 C158.3587,130.0517 157.8657,128.9277 156.1667,128.6577 C155.9097,128.6157 155.5887,128.6047 155.3487,128.6047 L155.3467,128.6047 Z M157.3987,131.7327 C156.6787,131.7327 155.8227,131.6857 155.0087,131.5217 C154.4527,131.4097 154.1907,131.0747 154.0687,130.8127 C153.5977,129.8067 154.4237,128.1877 154.5947,127.8737 L154.7287,127.6257 L155.0097,127.6127 C155.0397,127.6097 155.7507,127.5777 156.3257,127.6687 C158.9047,128.0807 159.5697,130.1257 159.5607,131.1507 L159.5567,131.5907 L159.1197,131.6427 C159.0697,131.6497 158.3547,131.7327 157.3987,131.7327 L157.3987,131.7327 Z"/>
    <path fill="#FFF" d="M153.6641,131.1731 C153.6641,131.1731 153.3001,128.3641 150.7741,129.1261 C149.6961,129.4521 149.0951,130.2691 149.0951,130.2691 C149.0951,130.2691 149.5891,132.4071 150.5931,132.1711 C152.3461,131.7581 153.6641,131.1731 153.6641,131.1731"/>
    <path fill="#52267D" d="M149.6465,130.3967 C149.7925,130.8797 150.0595,131.4817 150.3395,131.6547 C150.4075,131.6977 150.4475,131.6897 150.4785,131.6847 C151.6205,131.4157 152.5805,131.0687 153.0835,130.8717 C152.9765,130.5107 152.7505,129.9777 152.3095,129.6947 C151.9475,129.4617 151.4935,129.4337 150.9185,129.6047 C150.3025,129.7917 149.8625,130.1737 149.6465,130.3967 M150.4395,132.6897 C150.2225,132.6897 150.0085,132.6267 149.8115,132.5037 C149.0185,132.0107 148.6695,130.6497 148.6075,130.3807 L148.5555,130.1577 L148.6925,129.9717 C148.7205,129.9337 149.4065,129.0177 150.6295,128.6477 C151.4915,128.3877 152.2405,128.4597 152.8565,128.8567 C153.9485,129.5637 154.1515,131.0457 154.1605,131.1087 L154.2085,131.4787 L153.8675,131.6297 C153.8115,131.6547 152.4855,132.2387 150.7075,132.6577 C150.6185,132.6787 150.5285,132.6897 150.4395,132.6897"/>
    <path fill="#F3E3FF" d="M128.2715 125.6008C128.2715 125.6008 128.3935 124.6198 129.3825 124.2558 129.6845 124.1458 130.1485 124.2868 130.1485 124.2868 130.1485 124.2868 130.6875 125.1868 130.0185 125.4778 129.0555 125.8968 128.2715 125.6008 128.2715 125.6008M132.7656 125.1018C132.7656 125.1018 132.8566 123.2828 134.9116 123.0778 135.2946 123.0388 135.7846 123.0908 135.7846 123.0908 135.7846 123.0908 136.6946 125.0318 135.6096 125.1848 134.2756 125.3728 132.7656 125.1018 132.7656 125.1018M138.5859 126.1418C138.5859 126.1418 138.8879 124.5478 140.3069 125.0678 140.9119 125.2898 141.2289 125.7768 141.2289 125.7768 141.2289 125.7768 140.8739 126.9838 140.3089 126.8148 139.3189 126.5208 138.5859 126.1418 138.5859 126.1418M162.8115 131.7307C162.8115 131.7307 162.7475 130.7467 161.7835 130.3277 161.4895 130.2007 160.6865 130.1437 160.6865 130.1437 160.6865 130.1437 160.4305 131.1767 161.0795 131.5057 162.0135 131.9797 162.8115 131.7307 162.8115 131.7307M157.9697 130.6682C157.9697 130.6682 157.9817 129.2692 156.4127 129.0192 156.1207 128.9722 155.7427 128.9902 155.7427 128.9902 155.7427 128.9902 154.9577 130.4382 155.7837 130.6052 156.7987 130.8092 157.9697 130.6682 157.9697 130.6682M152.6748 130.9533C152.6748 130.9533 152.4748 129.4173 151.0938 129.8343 150.5038 130.0123 150.1748 130.4593 150.1748 130.4593 150.1748 130.4593 150.4458 131.6293 150.9938 131.5003 151.9528 131.2743 152.6748 130.9533 152.6748 130.9533"/>
    <path fill="#FFF" d="M145.8887,146.3547 C145.8887,146.3547 150.6607,147.2427 155.2537,146.2557 C155.6257,148.7477 155.8567,150.6257 155.8567,150.6257 C155.8567,150.6257 152.6307,152.6807 146.8257,151.2647 C146.2287,148.0627 145.8887,146.3547 145.8887,146.3547"/>
    <path fill="#52267D" d="M147.2568,150.8527 C151.6558,151.8427 154.4688,150.7577 155.3178,150.3477 C155.2418,149.7607 155.0728,148.4647 154.8358,146.8497 C151.3758,147.4917 147.9658,147.1577 146.5168,146.9577 C146.6598,147.6977 146.9128,149.0097 147.2568,150.8527 M150.7828,152.2657 C149.6058,152.2657 148.2428,152.1247 146.7068,151.7497 L146.3928,151.6737 L146.3338,151.3567 C145.7378,148.1607 145.3988,146.4547 145.3988,146.4527 L145.2538,145.7287 L145.9798,145.8637 C146.0268,145.8717 150.7148,146.7217 155.1488,145.7667 L155.6698,145.6557 L155.7478,146.1817 C156.1218,148.6807 156.3528,150.5657 156.3528,150.5657 L156.3918,150.8777 L156.1248,151.0477 C156.0218,151.1137 154.1608,152.2647 150.7828,152.2657"/>
    <path fill="#F3E3FF" d="M153.959,141.7707 L159.402,141.9297 C159.482,139.1877 157.324,136.9007 154.583,136.8207 L154.105,136.8067 C152.733,136.7667 151.59,137.8457 151.55,139.2157 C151.51,140.5867 152.588,141.7307 153.959,141.7707"/>
    <path fill="#FFF" d="M154.5576,141.6945 L159.3116,141.8345 C159.3736,139.6795 157.6786,137.8825 155.5256,137.8195 L154.3966,137.7875 C153.3956,137.7575 152.5606,138.5455 152.5316,139.5465 C152.4976,140.6995 153.4056,141.6615 154.5576,141.6945"/>
    <path fill="#52267D" d="M154.3428,138.2863 C154.0058,138.2863 153.6888,138.4123 153.4428,138.6433 C153.1878,138.8853 153.0408,139.2103 153.0308,139.5603 C153.0058,140.4363 153.6968,141.1693 154.5718,141.1943 L158.7898,141.3183 C158.5948,139.6733 157.2158,138.3693 155.5108,138.3193 L154.3818,138.2873 C154.3688,138.2863 154.3558,138.2863 154.3428,138.2863 L154.3428,138.2863 Z M159.7968,142.3483 L154.5428,142.1943 C153.1168,142.1533 151.9898,140.9593 152.0308,139.5313 C152.0498,138.9143 152.3068,138.3403 152.7568,137.9163 C153.2068,137.4933 153.8018,137.2833 154.4108,137.2873 L155.5398,137.3193 C157.9658,137.3903 159.8818,139.4233 159.8118,141.8493 L159.7968,142.3483 Z"/>
    <path fill="#52267D" d="M158.1162,139.552 C158.0982,140.154 157.5962,140.627 156.9952,140.61 C156.3932,140.592 155.9202,140.09 155.9372,139.489 C155.9552,138.887 156.4572,138.413 157.0582,138.431 C157.6602,138.448 158.1342,138.95 158.1162,139.552"/>
    <path fill="#F3E3FF" d="M135.2617,136.5149 L129.8187,136.3559 C129.8987,133.6149 132.1867,131.4559 134.9277,131.5359 L135.4067,131.5509 C136.7777,131.5909 137.8567,132.7349 137.8167,134.1049 C137.7767,135.4759 136.6327,136.5549 135.2617,136.5149"/>
    <path fill="#FFF" d="M134.8057,136.4084 L129.9147,136.2644 C129.9777,134.1114 131.7757,132.4164 133.9287,132.4784 L134.9197,132.5084 C135.9967,132.5394 136.8447,133.4374 136.8127,134.5144 C136.7817,135.5924 135.8827,136.4394 134.8057,136.4084"/>
    <path fill="#52267D" d="M134.8203,135.9084 C135.5783,135.9434 136.2893,135.3004 136.3123,134.5004 C136.3243,134.1124 136.1843,133.7444 135.9193,133.4624 C135.6523,133.1804 135.2933,133.0184 134.9053,133.0084 L133.9143,132.9784 C133.0203,132.9574 132.1423,133.2804 131.4803,133.9044 C130.9423,134.4124 130.5913,135.0654 130.4663,135.7804 L134.8203,135.9084 Z M134.8633,136.9094 C134.8393,136.9094 134.8153,136.9094 134.7913,136.9084 L129.4003,136.7504 L129.4153,136.2504 C129.4493,135.0754 129.9393,133.9834 130.7953,133.1774 C131.6493,132.3714 132.7433,131.9604 133.9433,131.9784 L134.9343,132.0084 C135.5893,132.0274 136.1973,132.3004 136.6453,132.7764 C137.0953,133.2524 137.3323,133.8754 137.3123,134.5294 C137.2733,135.8554 136.1813,136.9094 134.8633,136.9094 L134.8633,136.9094 Z"/>
    <path fill="#52267D" d="M133.5195 135.2141C133.5015 135.8161 133.9755 136.3181 134.5775 136.3351 135.1785 136.3531 135.6805 135.8791 135.6985 135.2771 135.7155 134.6761 135.2425 134.1741 134.6405 134.1561 134.0395 134.1391 133.5375 134.6121 133.5195 135.2141M165.9268 143.2541L165.9268 143.2541C165.6188 143.1781 165.3478 142.9981 165.1568 142.7451L164.8058 142.2751 165.6148 142.4731 166.0898 142.5901C166.2738 142.6351 166.3848 142.8191 166.3398 143.0031 166.2948 143.1871 166.1108 143.2991 165.9268 143.2541M124.0879 136.9338L124.0879 136.9338C124.3999 136.8758 124.6809 136.7128 124.8859 136.4708L125.2639 136.0228 124.4449 136.1728 123.9639 136.2618C123.7779 136.2958 123.6549 136.4738 123.6899 136.6598 123.7239 136.8448 123.9019 136.9678 124.0879 136.9338"/>
    <path fill="#E1F2FF" d="M134.9033,141.9436 C134.9033,141.9436 138.9103,143.7906 143.0483,142.3306 C142.5493,144.7176 142.1313,145.9316 142.1313,145.9316 C142.1313,145.9316 139.6643,146.0056 138.0443,145.6356 C135.7283,145.1096 134.8423,144.0246 134.9033,141.9436"/>
    <path fill="#FFF" d="M140.458,145.1857 C140.458,145.1857 136.757,145.3847 133.943,143.8207"/>
    <path fill="#52267D" d="M140.0137,145.6945 C138.8997,145.6945 136.0357,145.5565 133.7007,144.2575 L134.1867,143.3835 C136.8357,144.8565 140.3947,144.6845 140.4317,144.6865 L140.4857,145.6845 C140.4537,145.6865 140.2857,145.6945 140.0137,145.6945"/>
    <path fill="#E1F2FF" d="M153.4707,147.1174 C153.4707,147.1174 149.8427,148.0354 146.6867,147.3074 C147.2167,149.6884 147.5127,150.4384 147.5127,150.4384 C147.5127,150.4384 152.2937,149.9424 153.4707,147.1174"/>
    <path fill="#F3E3FF" d="M150.5596,180.6262 C150.5596,180.6262 150.3366,180.7762 150.0226,180.9532"/>
    <path fill="#52267D" d="M150.1445,181.1711 L149.9005,180.7351 C150.2015,180.5661 150.4155,180.4211 150.4195,180.4191 L150.6995,180.8331 C150.6995,180.8331 150.4695,180.9881 150.1445,181.1711"/>
    <path fill="#FFF" d="M153.7783,148.4885 C153.7783,148.4885 150.1353,149.0685 146.3033,148.4985"/>
    <path fill="#52267D" d="M149.9199,149.2512 C148.7999,149.2512 147.5289,149.1862 146.2309,148.9922 L146.3769,148.0042 C150.0829,148.5552 153.6639,148.0002 153.6999,147.9942 L153.8579,148.9822 C153.7559,148.9982 152.1309,149.2512 149.9199,149.2512"/>
    <path fill="#FFF" d="M145.666,222.8332 C145.666,222.8332 144.729,222.0222 143.421,223.0342 C142.226,223.9582 141.305,225.4132 141.823,225.5772 C142.342,225.7422 143.259,225.9132 144.23,225.7652 C145.076,225.6352 145.814,225.8182 146.203,224.0682 C146.385,223.2532 145.666,222.8332 145.666,222.8332"/>
    <path fill="#52267D" d="M144.7363,222.7766 C144.4223,222.7766 144.0263,222.8816 143.5743,223.2316 C142.5183,224.0476 141.8563,225.1356 141.9273,225.3696 C142.1633,225.4226 143.1113,225.6836 144.1923,225.5176 C144.3083,225.5006 144.4233,225.4876 144.5353,225.4756 C145.2133,225.4036 145.6613,225.3566 145.9593,224.0136 C146.0993,223.3836 145.5463,223.0516 145.5403,223.0486 L145.5043,223.0226 C145.4803,223.0046 145.1963,222.7766 144.7363,222.7766 M143.4673,226.0716 C142.6323,226.0716 141.9693,225.8856 141.7473,225.8156 C141.5803,225.7626 141.4653,225.6306 141.4343,225.4546 C141.3243,224.8326 142.3123,223.5756 143.2673,222.8366 C144.6063,221.8036 145.6413,222.5016 145.8063,222.6266 C146.1113,222.8116 146.6193,223.3496 146.4473,224.1236 C146.0713,225.8156 145.3173,225.8956 144.5883,225.9726 C144.4833,225.9836 144.3773,225.9956 144.2683,226.0116 C143.9903,226.0536 143.7203,226.0716 143.4673,226.0716"/>
    <path fill="#E1F2FF" d="M145.4385,223.1125 C145.4385,223.1125 144.8555,222.6075 144.0415,223.2375 C143.2975,223.8125 142.7255,224.7175 143.0475,224.8205 C143.3705,224.9225 143.9405,225.0295 144.5455,224.9365 C145.0715,224.8555 145.5315,224.9695 145.7735,223.8815 C145.8855,223.3735 145.4385,223.1125 145.4385,223.1125"/>
    <path fill="#FFF" d="M147.0303,222.8557 C147.5403,222.8027 148.2383,223.9257 148.1453,224.2597 C148.0513,224.5937 147.9623,225.7027 147.1363,225.7987 C146.5293,225.8707 144.3643,226.0317 143.9063,225.5487 C143.4843,225.1037 144.3933,223.1307 147.0303,222.8557"/>
    <path fill="#52267D" d="M147.0557,223.1047 C145.2017,223.2977 144.3407,224.3427 144.1227,224.9307 C144.0267,225.1937 144.0577,225.3447 144.0877,225.3767 C144.3807,225.6867 146.0307,225.6777 147.1077,225.5507 C147.5907,225.4947 147.7477,224.9287 147.8567,224.4037 C147.8737,224.3187 147.8897,224.2467 147.9057,224.1927 C147.9187,224.0837 147.7327,223.6517 147.4247,223.3337 C147.2527,223.1557 147.1197,223.0837 147.0557,223.1047 M145.6467,226.1367 C144.8747,226.1367 144.0387,226.0517 143.7247,225.7207 C143.5297,225.5147 143.5037,225.1637 143.6547,224.7567 C143.9987,223.8257 145.1677,222.7987 147.0037,222.6067 L147.0047,222.6067 C147.3617,222.5747 147.6797,222.8557 147.8887,223.1017 C148.1417,223.4017 148.4837,223.9757 148.3867,224.3277 C148.3727,224.3737 148.3617,224.4337 148.3467,224.5047 C148.2487,224.9717 148.0477,225.9437 147.1657,226.0467 C147.0277,226.0637 146.3647,226.1367 145.6467,226.1367"/>
    <path fill="#E1F2FF" d="M147.1631,223.1652 C147.4641,223.1342 147.8771,223.7972 147.8211,223.9942 C147.7671,224.1912 147.7131,224.8452 147.2261,224.9022 C146.8681,224.9442 145.5901,225.0392 145.3201,224.7552 C145.0711,224.4922 145.6071,223.3282 147.1631,223.1652"/>
    <path fill="#FFF" d="M149.1719,223.133 C149.1719,223.133 148.7399,222.892 147.8579,223.362 C147.0769,223.779 145.9119,224.446 146.1879,225.327 C146.4639,226.208 148.8969,225.954 149.4409,225.786 C149.9839,225.617 150.3399,225.04 150.2599,224.525 C150.0849,223.399 149.1719,223.133 149.1719,223.133"/>
    <path fill="#52267D" d="M148.8379,223.3225 C148.6599,223.3225 148.3739,223.3705 147.9749,223.5835 C147.0979,224.0515 146.2279,224.6175 146.4259,225.2535 C146.6149,225.8545 148.7319,225.7445 149.3659,225.5475 C149.7789,225.4195 150.0749,224.9685 150.0129,224.5625 C149.8659,223.6175 149.1319,223.3825 149.1009,223.3725 L149.0569,223.3545 C149.0479,223.3505 148.9759,223.3225 148.8379,223.3225 M147.9249,226.2085 C147.0619,226.2085 146.1479,226.0365 145.9489,225.4025 C145.5999,224.2855 147.0449,223.5125 147.7389,223.1415 C148.6219,222.6735 149.1349,222.8405 149.2649,222.9005 C149.4259,222.9545 150.3239,223.3065 150.5069,224.4865 C150.6079,225.1345 150.1619,225.8235 149.5149,226.0245 C149.2819,226.0965 148.6199,226.2085 147.9249,226.2085"/>
    <path fill="#E1F2FF" d="M149.3271,223.4465 C149.3271,223.4465 149.0711,223.3035 148.5491,223.5825 C148.0871,223.8295 147.3971,224.2245 147.5601,224.7465 C147.7231,225.2675 149.1641,225.1175 149.4861,225.0175 C149.8081,224.9175 150.0191,224.5765 149.9721,224.2705 C149.8681,223.6035 149.3271,223.4465 149.3271,223.4465"/>
    <path fill="#9452BA" d="M139.8496,195.0354 C139.8496,195.0354 140.1796,200.6654 138.4946,209.4504 C136.9246,217.6274 134.4946,220.1364 134.6046,222.2704 C134.6906,223.9254 135.3426,225.4564 136.9976,225.5044 L141.9366,225.6484 C144.2426,225.7164 146.3186,224.3044 147.1226,222.1414 C147.7716,220.4004 148.4626,218.0264 148.9216,215.0134 C149.4216,210.9094 149.4606,206.7794 149.4626,204.3544"/>
    <path fill="#52267D" d="M142.0937,226.6506 C142.0317,226.6506 141.9697,226.6496 141.9067,226.6486 L136.9687,226.5046 C134.9957,226.4466 133.7397,224.8836 133.6057,222.3226 C133.5467,221.1896 134.0097,220.0906 134.6507,218.5696 C135.4847,216.5876 136.6267,213.8746 137.5117,209.2616 C139.1557,200.6986 138.8547,195.1486 138.8517,195.0936 L140.8477,194.9766 C140.8617,195.2126 141.1657,200.8326 139.4767,209.6386 C138.5517,214.4576 137.3137,217.3986 136.4937,219.3446 C135.9367,220.6696 135.5687,221.5446 135.6037,222.2186 C135.6567,223.2446 135.9467,224.4726 137.0277,224.5046 L141.9657,224.6486 C143.8287,224.7146 145.5297,223.5556 146.1857,221.7936 C146.9627,219.7076 147.5507,217.3756 147.9337,214.8626 C148.4037,211.0036 148.4607,207.0146 148.4627,204.3536 L150.4627,204.3556 C150.4607,207.0686 150.4017,211.1376 149.9137,215.1336 C149.5067,217.8116 148.8847,220.2766 148.0607,222.4906 C147.1267,224.9986 144.7447,226.6506 142.0937,226.6506"/>
    <path fill="#9452BA" d="M165.0625,199.4895 C163.3855,200.8495 162.4695,203.1315 162.4205,205.2505 C162.3555,208.0795 163.8915,211.7275 162.7135,216.3985 C161.6655,220.5585 159.7985,221.2435 160.2445,225.0155 C160.3255,225.6975 160.9195,226.2025 161.6055,226.2225 L167.1085,226.3845 C169.6415,226.4575 171.8635,224.6845 172.3505,222.1975 C173.6515,215.5575 172.9905,209.2355 172.2425,204.3765"/>
    <path fill="#52267D" d="M167.2627,227.3859 C167.2017,227.3859 167.1407,227.3849 167.0787,227.3839 L161.5757,227.2229 C160.3877,227.1869 159.3887,226.2889 159.2507,225.1339 C158.9487,222.5669 159.6097,221.2309 160.3747,219.6839 C160.8327,218.7569 161.3527,217.7059 161.7437,216.1549 C162.4727,213.2649 162.0887,210.7729 161.7507,208.5739 C161.5687,207.3919 161.3967,206.2759 161.4207,205.2269 C161.4807,202.6679 162.6337,200.1719 164.4327,198.7129 L165.6927,200.2659 C164.3367,201.3649 163.4667,203.2839 163.4207,205.2739 C163.4007,206.1459 163.5517,207.1299 163.7277,208.2709 C164.0757,210.5379 164.5107,213.3619 163.6837,216.6429 C163.2407,218.4019 162.6457,219.6049 162.1667,220.5709 C161.4667,221.9869 161.0037,222.9219 161.2377,224.8989 C161.2577,225.0739 161.4327,225.2169 161.6357,225.2229 L167.1377,225.3839 C167.1787,225.3859 167.2207,225.3859 167.2617,225.3859 C169.2657,225.3859 170.9827,223.9819 171.3687,222.0049 C172.6477,215.4819 171.9787,209.2389 171.2537,204.5289 L173.2307,204.2239 C173.9807,209.0949 174.6697,215.5619 173.3317,222.3899 C172.7597,225.3109 170.2237,227.3859 167.2627,227.3859"/>
    <polygon fill="#52267D" points="166.154 206.792 164.303 205.813 166.214 204.375 166.996 204.662 166.824 205.131 166.298 204.938 165.233 205.738 166.138 206.218 166.687 205.891 166.339 205.802 166.1 205.962 165.821 205.548 166.245 205.261 167.974 205.705"/>
    <path fill="#FFF" d="M135.6768,222.5422 C135.6768,222.5422 134.7388,221.7302 133.4308,222.7422 C132.2368,223.6662 131.3158,225.1222 131.8338,225.2862 C132.3528,225.4502 133.2688,225.6222 134.2398,225.4732 C135.0858,225.3432 135.8248,225.5272 136.2138,223.7762 C136.3948,222.9612 135.6768,222.5422 135.6768,222.5422"/>
    <path fill="#52267D" d="M132.2383,224.8801 C132.6373,224.9781 133.3623,225.1031 134.1643,224.9791 C134.2853,224.9601 134.4033,224.9471 134.5193,224.9351 C135.1503,224.8681 135.4673,224.8351 135.7253,223.6681 C135.8193,223.2441 135.4873,223.0131 135.4193,222.9711 L135.3553,222.9251 L135.3553,222.9261 C135.2893,222.8701 134.6703,222.4161 133.7363,223.1381 C132.9613,223.7371 132.4053,224.4981 132.2383,224.8801 M133.4673,226.0301 C132.6403,226.0301 131.9773,225.8561 131.6833,225.7631 C131.4273,225.6821 131.2473,225.4751 131.1993,225.2071 C131.0523,224.3851 132.2613,223.0151 133.1253,222.3471 C134.3833,221.3741 135.5113,221.7691 135.9673,222.1341 C136.3513,222.3761 136.9003,222.9901 136.7023,223.8851 C136.3183,225.6131 135.5343,225.8331 134.6253,225.9301 C134.5233,225.9411 134.4213,225.9511 134.3163,225.9671 C134.0203,226.0131 133.7353,226.0301 133.4673,226.0301"/>
    <path fill="#E1F2FF" d="M135.4492,222.8205 C135.4492,222.8205 134.8652,222.3155 134.0522,222.9455 C133.3082,223.5205 132.7352,224.4255 133.0582,224.5285 C133.3812,224.6315 133.9512,224.7375 134.5552,224.6445 C135.0822,224.5635 135.5412,224.6785 135.7832,223.5895 C135.8962,223.0825 135.4492,222.8205 135.4492,222.8205"/>
    <polygon fill="#52267D" points="143.987 211.064 141.651 210.825 141.397 208.583 143.588 207.969 143.722 208.452 141.942 208.95 142.102 210.368 143.788 210.541 144.465 209.802 143.632 209.309 143.112 209.443 143.468 209.863 143.088 210.187 142.216 209.16 143.708 208.772 145.25 209.687"/>
    <path fill="#F3E3FF" d="M103.7891,147.6496 L103.7711,147.6496 C103.4061,147.6386 103.1191,147.3336 103.1301,146.9686 L103.3801,146.9766 C103.3731,147.2036 103.5521,147.3926 103.7781,147.3996 L103.7891,147.3996 C104.0111,147.3996 104.1941,147.2226 104.2011,147.0006 L104.4511,147.0076 C104.4401,147.3656 104.1451,147.6496 103.7891,147.6496"/>
    <path fill="#F3E3FF" d="M102.7188,147.6184 L102.7008,147.6184 C102.5238,147.6134 102.3608,147.5394 102.2388,147.4114 C102.1168,147.2824 102.0538,147.1144 102.0588,146.9374 L102.3088,146.9454 C102.3018,147.1724 102.4808,147.3614 102.7078,147.3684 C102.9228,147.3784 103.1228,147.1954 103.1298,146.9694 L103.3798,146.9764 C103.3688,147.3344 103.0738,147.6184 102.7188,147.6184"/>
    <path fill="#F3E3FF" d="M103.2402 148.1691L103.2192 148.1691C103.0432 148.1641 102.8802 148.0901 102.7592 147.9621 102.6372 147.8341 102.5742 147.6661 102.5792 147.4891L102.8292 147.4971C102.8222 147.7231 103.0012 147.9121 103.2272 147.9191L103.2402 147.9191C103.3452 147.9191 103.4452 147.8801 103.5212 147.8071 103.6012 147.7321 103.6462 147.6311 103.6492 147.5221L103.8992 147.5271C103.8942 147.7041 103.8212 147.8671 103.6932 147.9881 103.5702 148.1061 103.4092 148.1691 103.2402 148.1691M124.2256 147.3274C124.0466 147.3274 123.8726 147.2754 123.7216 147.1754L123.8606 146.9664C124.0066 147.0644 124.1866 147.0974 124.3586 147.0634 124.5336 147.0284 124.6836 146.9274 124.7816 146.7784 124.8796 146.6314 124.9136 146.4534 124.8786 146.2794 124.8436 146.1054 124.7426 145.9564 124.5946 145.8584L124.7316 145.6494C124.9356 145.7844 125.0756 145.9904 125.1236 146.2294 125.1726 146.4694 125.1246 146.7134 124.9906 146.9174 124.8546 147.1214 124.6486 147.2604 124.4086 147.3084 124.3476 147.3214 124.2866 147.3274 124.2256 147.3274"/>
    <path fill="#F3E3FF" d="M124.4473 148.4211C124.2693 148.4211 124.0953 148.3691 123.9443 148.2701L124.0833 148.0611C124.3883 148.2631 124.8023 148.1801 125.0033 147.8731 125.1013 147.7261 125.1353 147.5481 125.1003 147.3741 125.0653 147.2001 124.9653 147.0501 124.8163 146.9521L124.9553 146.7431C125.1583 146.8791 125.2973 147.0851 125.3453 147.3241 125.3943 147.5651 125.3463 147.8081 125.2123 148.0121 125.0773 148.2151 124.8713 148.3541 124.6323 148.4021 124.5703 148.4151 124.5093 148.4211 124.4473 148.4211M149.4014 166.6691L149.3764 166.6691C149.1514 166.6621 148.9424 166.5681 148.7874 166.4041 148.6324 166.2401 148.5504 166.0261 148.5574 165.8011L148.8074 165.8091C148.8024 165.9671 148.8604 166.1171 148.9684 166.2321 149.0784 166.3491 149.2254 166.4141 149.3834 166.4191 149.5414 166.4121 149.6934 166.3661 149.8074 166.2581 149.9234 166.1481 149.9894 166.0011 149.9944 165.8431L150.2444 165.8511C150.2374 166.0751 150.1434 166.2841 149.9794 166.4401 149.8224 166.5881 149.6174 166.6691 149.4014 166.6691"/>
    <path fill="#F3E3FF" d="M147.9648,166.6272 L147.9398,166.6272 C147.7138,166.6202 147.5048,166.5262 147.3508,166.3622 C147.1958,166.1982 147.1138,165.9842 147.1208,165.7592 L147.3708,165.7672 C147.3658,165.9252 147.4238,166.0752 147.5318,166.1902 C147.6408,166.3072 147.7878,166.3722 147.9468,166.3772 L147.9648,166.3772 C148.1168,166.3772 148.2608,166.3202 148.3708,166.2162 C148.4868,166.1062 148.5528,165.9592 148.5578,165.8012 L148.8078,165.8092 C148.8008,166.0332 148.7068,166.2422 148.5428,166.3982 C148.3858,166.5462 148.1808,166.6272 147.9648,166.6272"/>
    <path fill="#F3E3FF" d="M148.6621 167.3664L148.6371 167.3664C148.1721 167.3524 147.8051 166.9634 147.8181 166.4984L148.0681 166.5064C148.0581 166.8334 148.3171 167.1064 148.6441 167.1164 148.8031 167.1104 148.9541 167.0634 149.0681 166.9554 149.1841 166.8454 149.2501 166.6984 149.2551 166.5404L149.5051 166.5484C149.4981 166.7724 149.4041 166.9814 149.2401 167.1374 149.0831 167.2854 148.8781 167.3664 148.6621 167.3664M126.6172 211.5549L126.5922 211.5549C126.3672 211.5479 126.1572 211.4539 126.0032 211.2899 125.8482 211.1259 125.7662 210.9119 125.7732 210.6869L126.0232 210.6949C126.0182 210.8529 126.0762 211.0029 126.1842 211.1179 126.2942 211.2349 126.4412 211.2999 126.5992 211.3049L126.6172 211.3049C126.7692 211.3049 126.9132 211.2479 127.0232 211.1439 127.1392 211.0339 127.2052 210.8869 127.2102 210.7289L127.4602 210.7369C127.4532 210.9609 127.3592 211.1699 127.1952 211.3259 127.0382 211.4739 126.8332 211.5549 126.6172 211.5549"/>
    <path fill="#F3E3FF" d="M125.1807,211.5129 L125.1557,211.5129 C124.9307,211.5059 124.7217,211.4119 124.5667,211.2479 C124.4117,211.0839 124.3297,210.8699 124.3367,210.6449 L124.5867,210.6529 C124.5817,210.8109 124.6397,210.9609 124.7477,211.0759 C124.8577,211.1929 125.0047,211.2579 125.1627,211.2629 C125.3097,211.2629 125.4717,211.2099 125.5867,211.1019 C125.7027,210.9919 125.7687,210.8449 125.7737,210.6869 L126.0237,210.6949 C126.0167,210.9189 125.9227,211.1279 125.7587,211.2839 C125.6017,211.4319 125.3967,211.5129 125.1807,211.5129"/>
    <path fill="#F3E3FF" d="M125.8779 212.2522L125.8529 212.2522C125.6279 212.2452 125.4189 212.1512 125.2639 211.9872 125.1089 211.8232 125.0269 211.6092 125.0339 211.3842L125.2839 211.3922C125.2739 211.7192 125.5329 211.9922 125.8599 212.0022 126.0219 212.0012 126.1689 211.9492 126.2839 211.8412 126.3999 211.7312 126.4659 211.5842 126.4709 211.4262L126.7209 211.4342C126.7139 211.6582 126.6199 211.8672 126.4559 212.0232 126.2989 212.1712 126.0939 212.2522 125.8779 212.2522M149.0273 143.8147L149.0003 143.8147C148.4963 143.7997 148.0983 143.3777 148.1133 142.8737L148.3633 142.8807C148.3523 143.2477 148.6413 143.5537 149.0073 143.5647L149.0273 143.5647C149.3843 143.5647 149.6803 143.2797 149.6913 142.9197L149.9413 142.9277C149.9263 143.4217 149.5193 143.8147 149.0273 143.8147"/>
    <path fill="#F3E3FF" d="M148.2148 144.5813L148.1878 144.5813C147.9438 144.5743 147.7168 144.4723 147.5498 144.2943 147.3818 144.1163 147.2938 143.8843 147.3008 143.6403L147.5508 143.6473C147.5458 143.8243 147.6098 143.9933 147.7318 144.1233 147.8538 144.2523 148.0178 144.3263 148.1948 144.3313L148.2148 144.3313C148.5718 144.3313 148.8678 144.0463 148.8788 143.6853L149.1288 143.6933C149.1138 144.1883 148.7068 144.5813 148.2148 144.5813M138.7021 157.6359L138.6691 157.6359C138.3791 157.6269 138.1101 157.5069 137.9111 157.2959 137.7131 157.0849 137.6071 156.8099 137.6161 156.5199L137.8661 156.5279C137.8591 156.7499 137.9401 156.9619 138.0931 157.1239 138.2461 157.2859 138.4531 157.3789 138.6771 157.3859L138.7021 157.3859C138.9151 157.3859 139.1171 157.3059 139.2731 157.1579 139.4351 157.0059 139.5281 156.7989 139.5341 156.5749L139.7841 156.5829C139.7761 156.8719 139.6551 157.1419 139.4451 157.3409 139.2421 157.5319 138.9791 157.6359 138.7021 157.6359"/>
    <path fill="#F3E3FF" d="M137.7139 158.5666L137.6819 158.5666C137.0849 158.5486 136.6119 158.0486 136.6289 157.4516L136.8789 157.4596C136.8659 157.9186 137.2299 158.3026 137.6899 158.3166L137.7149 158.3166C137.9279 158.3166 138.1299 158.2366 138.2859 158.0896 138.4479 157.9366 138.5409 157.7296 138.5479 157.5066L138.7979 157.5146C138.7799 158.1016 138.2979 158.5666 137.7139 158.5666M125.1465 133.0559L125.1255 133.0559C124.9195 133.0499 124.7305 132.9639 124.5895 132.8149 124.4495 132.6659 124.3755 132.4709 124.3805 132.2659L124.6305 132.2739C124.6265 132.4109 124.6765 132.5429 124.7715 132.6439 124.8665 132.7439 124.9945 132.8019 125.1325 132.8059 125.4195 132.8089 125.6555 132.5889 125.6645 132.3039L125.9145 132.3119C125.9015 132.7269 125.5595 133.0559 125.1465 133.0559"/>
    <path fill="#F3E3FF" d="M124.4883 133.6779L124.4653 133.6779C124.2603 133.6719 124.0703 133.5869 123.9293 133.4379 123.7893 133.2889 123.7153 133.0939 123.7203 132.8889L123.9703 132.8969C123.9673 133.0339 124.0163 133.1659 124.1113 133.2669 124.2063 133.3659 124.3343 133.4239 124.4723 133.4279L124.4883 133.4279C124.6203 133.4279 124.7453 133.3789 124.8423 133.2869 124.9423 133.1929 125.0003 133.0649 125.0043 132.9269L125.2543 132.9349C125.2483 133.1389 125.1623 133.3289 125.0123 133.4699 124.8703 133.6049 124.6843 133.6779 124.4883 133.6779M183.5742 199.1135C183.5412 199.1135 183.5092 199.1115 183.4752 199.1075 183.2472 199.0825 183.0422 198.9675 182.8982 198.7885L183.0942 198.6325C183.1952 198.7595 183.3412 198.8415 183.5042 198.8595 183.6642 198.8715 183.8272 198.8315 183.9562 198.7285 184.0842 198.6275 184.1652 198.4815 184.1832 198.3185 184.2022 198.1555 184.1552 197.9955 184.0532 197.8665L184.2482 197.7105C184.3922 197.8905 184.4582 198.1175 184.4312 198.3465 184.4062 198.5755 184.2922 198.7805 184.1122 198.9245 183.9572 199.0485 183.7692 199.1135 183.5742 199.1135"/>
    <path fill="#F3E3FF" d="M183.458 200.1516C183.204 200.1516 182.952 200.0406 182.781 199.8276L182.977 199.6716C183.189 199.9356 183.579 199.9776 183.84 199.7676 184.104 199.5556 184.147 199.1696 183.937 198.9046L184.132 198.7486C184.429 199.1206 184.368 199.6656 183.996 199.9636 183.837 200.0896 183.646 200.1516 183.458 200.1516M154.7363 188.3117C154.6093 188.3117 154.4833 188.2877 154.3623 188.2387 154.1163 188.1387 153.9243 187.9497 153.8223 187.7057L154.0523 187.6077C154.1303 187.7907 154.2723 187.9317 154.4563 188.0067 154.6403 188.0807 154.8403 188.0807 155.0233 188.0027 155.2063 187.9257 155.3483 187.7837 155.4233 187.5997 155.4983 187.4157 155.4973 187.2137 155.4203 187.0327L155.6503 186.9347C155.7533 187.1787 155.7553 187.4487 155.6543 187.6937 155.5543 187.9397 155.3653 188.1307 155.1213 188.2337 154.9973 188.2857 154.8663 188.3117 154.7363 188.3117"/>
    <path fill="#F3E3FF" d="M153.1377,188.9856 C153.0117,188.9856 152.8857,188.9616 152.7647,188.9116 C152.5197,188.8116 152.3267,188.6226 152.2247,188.3786 L152.4547,188.2806 C152.5327,188.4646 152.6757,188.6056 152.8597,188.6796 C153.0417,188.7566 153.2427,188.7526 153.4257,188.6756 C153.6087,188.5986 153.7507,188.4566 153.8247,188.2726 C153.9007,188.0896 153.8997,187.8876 153.8227,187.7056 L154.0527,187.6076 C154.2647,188.1126 154.0277,188.6946 153.5237,188.9066 C153.3997,188.9596 153.2687,188.9856 153.1377,188.9856"/>
    <path fill="#F3E3FF" d="M154.2764,189.4465 C153.8884,189.4465 153.5194,189.2185 153.3594,188.8405 L153.5894,188.7425 C153.7494,189.1195 154.1864,189.2965 154.5614,189.1385 C154.9384,188.9795 155.1164,188.5435 154.9574,188.1675 L155.1874,188.0695 C155.2914,188.3135 155.2924,188.5835 155.1924,188.8295 C155.0924,189.0745 154.9034,189.2655 154.6594,189.3695 C154.5344,189.4225 154.4044,189.4465 154.2764,189.4465"/>
    <path fill="#F3E3FF" d="M152.6777 190.1193C152.2907 190.1193 151.9217 189.8913 151.7617 189.5143L151.9917 189.4163C152.1517 189.7923 152.5897 189.9693 152.9637 189.8113 153.1467 189.7343 153.2887 189.5923 153.3637 189.4083 153.4387 189.2243 153.4367 189.0223 153.3597 188.8403L153.5897 188.7423C153.6937 188.9863 153.6947 189.2573 153.5947 189.5023 153.4947 189.7483 153.3057 189.9393 153.0617 190.0423 152.9367 190.0953 152.8057 190.1193 152.6777 190.1193M155.4111 189.9084C155.0231 189.9084 154.6541 189.6804 154.4951 189.3034L154.7251 189.2054C154.8841 189.5814 155.3191 189.7574 155.6971 189.6004 156.0741 189.4424 156.2521 189.0064 156.0931 188.6304L156.3231 188.5324C156.4261 188.7764 156.4281 189.0464 156.3271 189.2914 156.2271 189.5364 156.0381 189.7284 155.7951 189.8314 155.6691 189.8844 155.5391 189.9084 155.4111 189.9084M141.125 140.2453L141.096 140.2453C140.546 140.2283 140.11 139.7663 140.126 139.2163L140.376 139.2243C140.364 139.6373 140.69 139.9823 141.104 139.9953L141.125 139.9953C141.528 139.9953 141.862 139.6743 141.875 139.2673L142.125 139.2753C142.108 139.8163 141.662 140.2453 141.125 140.2453M139.8574 173.2746L139.8284 173.2746C139.2784 173.2576 138.8424 172.7956 138.8584 172.2456L139.1084 172.2536C139.0964 172.6666 139.4224 173.0116 139.8364 173.0246 140.2384 173.0396 140.5944 172.7106 140.6074 172.2966L140.8574 172.3046C140.8404 172.8456 140.3944 173.2746 139.8574 173.2746M150.0869 155.134L150.0629 155.134C149.8529 155.128 149.6569 155.04 149.5129 154.887 149.3689 154.734 149.2929 154.533 149.2989 154.323L149.5489 154.331C149.5449 154.474 149.5969 154.611 149.6949 154.715 149.7939 154.82 149.9269 154.88 150.0699 154.884L150.0859 154.884C150.3759 154.884 150.6149 154.654 150.6239 154.362L150.8739 154.369C150.8679 154.579 150.7799 154.775 150.6269 154.919 150.4799 155.059 150.2879 155.134 150.0869 155.134M166.1328 140.3732L166.1138 140.3732C165.9478 140.3682 165.7938 140.2992 165.6798 140.1782 165.5658 140.0572 165.5058 139.8982 165.5108 139.7322L165.7608 139.7402C165.7578 139.8392 165.7928 139.9342 165.8618 140.0062 165.9298 140.0792 166.0228 140.1202 166.1218 140.1232L166.1328 140.1232C166.3328 140.1232 166.4978 139.9642 166.5038 139.7622L166.7538 139.7692C166.7488 139.9362 166.6798 140.0902 166.5598 140.2032 166.4438 140.3132 166.2918 140.3732 166.1328 140.3732M168.5029 213.8029C168.0129 213.8029 167.5839 213.4429 167.5129 212.9459L167.7609 212.9099C167.8179 213.3189 168.1969 213.6109 168.6089 213.5449 169.0179 213.4869 169.3029 213.1059 169.2439 212.6969L169.4919 212.6609C169.5699 213.2059 169.1899 213.7139 168.6449 213.7929 168.5969 213.7999 168.5499 213.8029 168.5029 213.8029M144.2568 219.7736L144.2248 219.7736C143.9358 219.7656 143.6668 219.6456 143.4688 219.4346 143.2698 219.2236 143.1638 218.9486 143.1728 218.6586L143.4228 218.6666C143.4158 218.8886 143.4968 219.1006 143.6508 219.2626 143.8028 219.4246 144.0098 219.5176 144.2328 219.5236L144.2568 219.5236C144.7058 219.5236 145.0768 219.1666 145.0908 218.7136L145.3408 218.7216C145.3228 219.3086 144.8408 219.7736 144.2568 219.7736"/>
    <path fill="#F3E3FF" d="M143.2715,220.7053 L143.2385,220.7053 C142.9485,220.6963 142.6795,220.5753 142.4805,220.3653 C142.2825,220.1543 142.1765,219.8793 142.1855,219.5893 L142.4355,219.5973 C142.4285,219.8193 142.5095,220.0313 142.6625,220.1933 C142.8155,220.3553 143.0225,220.4483 143.2465,220.4553 L143.2715,220.4553 C143.4845,220.4553 143.6865,220.3753 143.8415,220.2283 C144.0035,220.0753 144.0965,219.8683 144.1035,219.6443 L144.3535,219.6523 C144.3445,219.9423 144.2245,220.2113 144.0135,220.4103 C143.8115,220.6013 143.5485,220.7053 143.2715,220.7053"/>
    <path fill="#FFF" d="M137.04,222.5647 C137.55,222.5107 138.249,223.6347 138.155,223.9687 C138.062,224.3017 137.972,225.4107 137.147,225.5067 C136.539,225.5787 134.374,225.7397 133.917,225.2567 C133.495,224.8117 134.403,222.8387 137.04,222.5647"/>
    <path fill="#52267D" d="M137.0654,223.0647 C135.5304,223.2327 134.8194,224.0057 134.5844,224.3337 C134.3504,224.6567 134.3044,224.9117 134.3204,224.9777 C134.5114,225.1007 135.8814,225.1517 137.0884,225.0097 C137.4074,224.9727 137.5314,224.5007 137.6224,224.0587 C137.6414,223.9687 137.6574,223.8917 137.6734,223.8357 C137.6444,223.6937 137.2674,223.1397 137.0654,223.0647 M135.6714,226.0977 C134.8334,226.0977 133.9274,225.9957 133.5534,225.6007 C133.2914,225.3237 133.2464,224.8767 133.4304,224.3777 C133.7754,223.4467 134.9134,222.2837 136.9884,222.0677 C137.3484,222.0327 137.7354,222.2287 138.0894,222.6497 C138.3564,222.9647 138.7704,223.6267 138.6364,224.1037 C138.6264,224.1437 138.6154,224.1987 138.6014,224.2617 C138.5024,224.7457 138.2674,225.8787 137.2064,226.0037 C136.9084,226.0387 136.3084,226.0977 135.6714,226.0977"/>
    <path fill="#E1F2FF" d="M137.1738,222.8742 C137.4748,222.8432 137.8868,223.5062 137.8318,223.7022 C137.7768,223.8992 137.7238,224.5542 137.2358,224.6102 C136.8778,224.6522 135.6008,224.7482 135.3298,224.4632 C135.0818,224.2002 135.6178,223.0362 137.1738,222.8742"/>
    <path fill="#FFF" d="M138.8281,223.1594 C138.8281,223.1594 138.4461,222.9454 137.6651,223.3624 C136.9751,223.7304 135.9451,224.3214 136.1891,225.0994 C136.4331,225.8794 138.5851,225.6544 139.0651,225.5054 C139.5471,225.3564 139.8611,224.8464 139.7901,224.3894 C139.6361,223.3934 138.8281,223.1594 138.8281,223.1594"/>
    <path fill="#52267D" d="M138.5322,223.6047 C138.4242,223.6047 138.2162,223.6347 137.9002,223.8037 C137.5622,223.9837 136.5352,224.5327 136.6672,224.9507 C136.8442,225.2157 138.3582,225.1997 138.9172,225.0277 C139.1722,224.9497 139.3272,224.6667 139.2962,224.4667 C139.1932,223.8037 138.6932,223.6407 138.6882,223.6397 L138.6132,223.6117 C138.5992,223.6097 138.5732,223.6047 138.5322,223.6047 M137.7212,226.1537 C136.8712,226.1537 135.9382,225.9707 135.7122,225.2497 C135.3332,224.0417 136.8022,223.2557 137.4292,222.9207 C138.2742,222.4717 138.8112,222.6097 139.0062,222.6907 C139.4262,222.8287 140.1292,223.3097 140.2842,224.3137 C140.3952,225.0297 139.9262,225.7627 139.2132,225.9827 C139.0542,226.0327 138.4152,226.1537 137.7212,226.1537"/>
    <path fill="#E1F2FF" d="M138.9658,223.4367 C138.9658,223.4367 138.7388,223.3097 138.2778,223.5567 C137.8688,223.7747 137.2588,224.1237 137.4038,224.5857 C137.5478,225.0467 138.8208,224.9147 139.1068,224.8267 C139.3918,224.7377 139.5768,224.4357 139.5348,224.1657 C139.4448,223.5757 138.9658,223.4367 138.9658,223.4367"/>
    <path fill="#FFF" d="M118.5518,222.7815 C118.5518,222.7815 118.1698,222.5675 117.3898,222.9845 C116.6998,223.3525 115.6688,223.9435 115.9128,224.7215 C116.1568,225.5015 118.3088,225.2765 118.7898,225.1275 C119.2708,224.9785 119.5848,224.4685 119.5148,224.0115 C119.3598,223.0155 118.5518,222.7815 118.5518,222.7815"/>
    <path fill="#52267D" d="M118.2559,223.2268 C118.1489,223.2268 117.9409,223.2568 117.6249,223.4258 C117.2869,223.6058 116.2599,224.1558 116.3909,224.5728 C116.5679,224.8388 118.0839,224.8228 118.6419,224.6498 C118.8969,224.5718 119.0519,224.2888 119.0209,224.0878 C118.9169,223.4258 118.4169,223.2628 118.4119,223.2618 L118.3369,223.2338 C118.3229,223.2318 118.2969,223.2268 118.2559,223.2268 M117.4459,225.7748 C116.5949,225.7748 115.6619,225.5928 115.4359,224.8718 C115.0569,223.6638 116.5269,222.8788 117.1539,222.5428 C117.9949,222.0948 118.5329,222.2308 118.7299,222.3128 C119.1489,222.4508 119.8529,222.9318 120.0089,223.9348 C120.1189,224.6518 119.6489,225.3848 118.9379,225.6048 C118.7789,225.6548 118.1399,225.7748 117.4459,225.7748"/>
    <path fill="#E1F2FF" d="M118.6895,223.0588 C118.6895,223.0588 118.4625,222.9318 118.0015,223.1788 C117.5925,223.3968 116.9825,223.7458 117.1275,224.2078 C117.2715,224.6688 118.5455,224.5368 118.8305,224.4478 C119.1155,224.3598 119.3015,224.0578 119.2595,223.7878 C119.1685,223.1978 118.6895,223.0588 118.6895,223.0588"/>
    <path fill="#FFF" d="M120.9121,222.3068 C121.4221,222.2538 122.1201,223.3778 122.0271,223.7108 C121.9331,224.0448 121.8441,225.1538 121.0181,225.2498 C120.4111,225.3218 118.2461,225.4828 117.7881,224.9998 C117.3661,224.5548 118.2751,222.5818 120.9121,222.3068"/>
    <path fill="#52267D" d="M120.9375,222.8068 C119.4015,222.9758 118.6905,223.7498 118.4555,224.0768 C118.2225,224.3998 118.1765,224.6548 118.1915,224.7208 C118.3825,224.8448 119.7515,224.8958 120.9595,224.7528 C121.2785,224.7158 121.4025,224.2438 121.4945,223.8038 C121.5125,223.7118 121.5295,223.6338 121.5455,223.5768 C121.5165,223.4368 121.1385,222.8818 120.9375,222.8068 M119.5425,225.8408 C118.7045,225.8408 117.7995,225.7388 117.4255,225.3448 C117.1625,225.0668 117.1175,224.6208 117.3015,224.1208 C117.6455,223.1908 118.7845,222.0268 120.8605,221.8098 C121.2245,221.7718 121.6075,221.9728 121.9605,222.3918 C122.2275,222.7068 122.6415,223.3678 122.5085,223.8448 C122.4975,223.8868 122.4865,223.9428 122.4725,224.0068 C122.3735,224.4908 122.1375,225.6218 121.0775,225.7468 C120.7785,225.7818 120.1795,225.8408 119.5425,225.8408"/>
    <path fill="#E1F2FF" d="M121.0459,222.6174 C121.3469,222.5854 121.7589,223.2484 121.7029,223.4454 C121.6489,223.6424 121.5949,224.2964 121.1079,224.3534 C120.7499,224.3954 119.4719,224.4904 119.2019,224.2064 C118.9529,223.9434 119.4889,222.7794 121.0459,222.6174"/>
    <path fill="#FFF" d="M162.3945,223.3215 C162.3945,223.3215 161.4575,222.5105 160.1495,223.5225 C158.9545,224.4465 158.0335,225.9015 158.5515,226.0665 C159.0715,226.2305 159.9875,226.4015 160.9585,226.2535 C161.8045,226.1235 162.5425,226.3065 162.9315,224.5565 C163.1135,223.7415 162.3945,223.3215 162.3945,223.3215"/>
    <path fill="#52267D" d="M161.4648,223.2649 C161.1508,223.2649 160.7548,223.3699 160.3028,223.7199 C159.2458,224.5369 158.5848,225.6249 158.6558,225.8589 C158.8908,225.9119 159.8378,226.1719 160.9208,226.0059 C161.0368,225.9889 161.1518,225.9759 161.2638,225.9639 C161.9418,225.8919 162.3898,225.8449 162.6878,224.5019 C162.8278,223.8719 162.2748,223.5399 162.2688,223.5369 L162.2328,223.5109 C162.2088,223.4929 161.9248,223.2649 161.4648,223.2649 M160.1968,226.5599 C159.3628,226.5599 158.6988,226.3749 158.4768,226.3049 C158.3088,226.2509 158.1938,226.1189 158.1628,225.9429 C158.0528,225.3209 159.0408,224.0639 159.9958,223.3249 C161.3358,222.2929 162.3688,222.9889 162.5348,223.1149 C162.8398,223.2999 163.3478,223.8379 163.1758,224.6119 C162.7998,226.3039 162.0458,226.3839 161.3168,226.4609 C161.2118,226.4719 161.1058,226.4839 160.9968,226.4999 C160.7198,226.5419 160.4508,226.5599 160.1968,226.5599"/>
    <path fill="#E1F2FF" d="M162.167,223.6008 C162.167,223.6008 161.584,223.0958 160.77,223.7258 C160.026,224.3008 159.454,225.2058 159.776,225.3088 C160.099,225.4108 160.669,225.5178 161.274,225.4248 C161.8,225.3438 162.26,225.4578 162.502,224.3698 C162.614,223.8618 162.167,223.6008 162.167,223.6008"/>
    <path fill="#FFF" d="M163.7588,223.344 C164.2688,223.291 164.9668,224.415 164.8738,224.748 C164.7798,225.082 164.6908,226.191 163.8648,226.287 C163.2578,226.359 161.0928,226.52 160.6348,226.037 C160.2128,225.592 161.1218,223.619 163.7588,223.344"/>
    <path fill="#52267D" d="M163.7842,223.593 C161.9302,223.786 161.0692,224.831 160.8512,225.419 C160.7552,225.682 160.7862,225.833 160.8162,225.865 C161.1102,226.176 162.7582,226.165 163.8362,226.039 C164.3192,225.983 164.4762,225.417 164.5852,224.892 C164.6022,224.807 164.6182,224.735 164.6342,224.681 C164.6472,224.572 164.4602,224.139 164.1522,223.822 C163.9792,223.644 163.8682,223.573 163.7842,223.593 M162.3752,226.625 C161.6032,226.625 160.7672,226.54 160.4532,226.209 C160.2582,226.003 160.2322,225.652 160.3832,225.245 C160.7272,224.314 161.8962,223.287 163.7322,223.095 L163.7332,223.095 C164.0892,223.059 164.4092,223.344 164.6172,223.59 C164.8712,223.891 165.2132,224.465 165.1152,224.816 C165.1012,224.862 165.0902,224.922 165.0752,224.993 C164.9772,225.46 164.7762,226.432 163.8942,226.535 C163.7562,226.552 163.0932,226.625 162.3752,226.625"/>
    <path fill="#E1F2FF" d="M163.8916,223.6545 C164.1926,223.6225 164.6056,224.2855 164.5496,224.4825 C164.4956,224.6795 164.4416,225.3335 163.9546,225.3905 C163.5966,225.4325 162.3186,225.5275 162.0486,225.2435 C161.7996,224.9805 162.3356,223.8165 163.8916,223.6545"/>
    <path fill="#FFF" d="M165.5459,223.9397 C165.5459,223.9397 165.1639,223.7257 164.3839,224.1427 C163.6939,224.5107 162.6639,225.1017 162.9069,225.8797 C163.1509,226.6597 165.3029,226.4347 165.7839,226.2857 C166.2659,226.1367 166.5789,225.6267 166.5089,225.1697 C166.3549,224.1737 165.5459,223.9397 165.5459,223.9397"/>
    <path fill="#52267D" d="M165.25,224.1359 C165.099,224.1359 164.851,224.1769 164.502,224.3639 C163.736,224.7719 162.977,225.2629 163.146,225.8059 C163.306,226.3159 165.172,226.2139 165.71,226.0469 C166.062,225.9379 166.315,225.5539 166.262,225.2079 C166.135,224.3909 165.501,224.1879 165.475,224.1789 L165.431,224.1609 C165.423,224.1579 165.363,224.1359 165.25,224.1359 M164.449,226.6869 C163.674,226.6869 162.85,226.5309 162.669,225.9549 C162.353,224.9439 163.646,224.2539 164.266,223.9219 C165.051,223.5019 165.514,223.6499 165.639,223.7069 C165.789,223.7579 166.593,224.0759 166.756,225.1319 C166.847,225.7189 166.443,226.3439 165.857,226.5249 C165.651,226.5879 165.066,226.6869 164.449,226.6869"/>
    <path fill="#E1F2FF" d="M165.6836,224.217 C165.6836,224.217 165.4576,224.09 164.9956,224.337 C164.5866,224.555 163.9766,224.904 164.1216,225.366 C164.2656,225.827 165.5396,225.695 165.8256,225.606 C166.1096,225.518 166.2956,225.216 166.2536,224.946 C166.1626,224.356 165.6836,224.217 165.6836,224.217"/>
    <path fill="#FFF" d="M127.5645,222.9768 C127.7275,222.8468 127.9185,222.8158 128.0725,222.8938 C128.6475,223.1858 130.0975,224.0108 129.7625,225.0598 C129.5015,225.8768 129.0045,225.6148 128.0425,225.6048 L127.3155,225.5968 C127.1655,225.5948 127.0345,225.5138 126.9565,225.3728 C126.5585,224.6638 126.8165,223.5728 127.5135,223.0178 L127.5645,222.9768 Z"/>
    <path fill="#52267D" d="M128.0479,225.1047 C128.2639,225.1067 128.4579,225.1217 128.6319,225.1337 C129.1999,225.1757 129.2009,225.1767 129.2859,224.9077 C129.4959,224.2507 128.2779,223.5607 127.8649,223.3497 L127.8789,223.3657 L127.8279,223.4067 C127.3189,223.8107 127.1129,224.6307 127.3929,225.1287 L128.0479,225.1047 Z M128.9579,226.1507 C128.8219,226.1507 128.6879,226.1407 128.5589,226.1307 C128.4029,226.1197 128.2309,226.1067 128.0369,226.1047 L127.3099,226.0967 C126.9799,226.0927 126.6839,225.9137 126.5189,225.6167 C126.0059,224.6997 126.3189,223.3297 127.2019,222.6257 L127.5649,222.9767 L127.2529,222.5847 C127.5689,222.3337 127.9699,222.2807 128.2979,222.4477 C129.8649,223.2437 130.5549,224.2247 130.2389,225.2117 C129.9829,226.0137 129.4619,226.1507 128.9579,226.1507 L128.9579,226.1507 Z"/>
    <path fill="#E1F2FF" d="M127.6328,223.216 C127.7508,223.121 127.8898,223.099 128.0018,223.155 C128.4198,223.367 129.4738,223.967 129.2298,224.73 C129.0398,225.323 128.6798,225.133 127.9798,225.125 L127.4518,225.119 C127.3428,225.118 127.2478,225.06 127.1908,224.957 C126.9018,224.442 127.0888,223.649 127.5958,223.245 L127.6328,223.216 Z"/>
    <path fill="#FFF" d="M124.166,222.5608 C124.166,222.5608 123.3,221.6728 121.911,222.5708 C120.643,223.3898 119.602,224.7618 120.104,224.9688 C120.607,225.1768 121.505,225.4258 122.486,225.3598 C123.34,225.3018 124.061,225.5478 124.597,223.8368 C124.846,223.0398 124.166,222.5608 124.166,222.5608"/>
    <path fill="#52267D" d="M120.542,224.5988 C120.932,224.7308 121.647,224.9178 122.452,224.8608 C122.574,224.8528 122.693,224.8498 122.81,224.8478 C123.444,224.8338 123.763,224.8278 124.119,223.6878 C124.258,223.2448 123.882,222.9718 123.878,222.9688 L123.813,222.9138 C123.741,222.8478 123.165,222.3568 122.183,222.9908 C121.359,223.5228 120.741,224.2328 120.542,224.5988 M122.153,225.8698 C121.101,225.8698 120.252,225.5718 119.913,225.4308 C119.666,225.3288 119.504,225.1068 119.479,224.8358 C119.402,224.0058 120.724,222.7428 121.64,222.1508 C122.975,221.2878 124.066,221.7778 124.491,222.1788 C124.853,222.4528 125.347,223.1128 125.074,223.9868 C124.545,225.6748 123.744,225.8278 122.83,225.8468 C122.73,225.8498 122.626,225.8518 122.52,225.8588 C122.396,225.8668 122.272,225.8698 122.153,225.8698"/>
    <path fill="#E1F2FF" d="M123.916,222.8195 C123.916,222.8195 123.377,222.2665 122.513,222.8255 C121.724,223.3355 121.075,224.1885 121.389,224.3185 C121.701,224.4475 122.26,224.6015 122.871,224.5605 C123.401,224.5255 123.85,224.6785 124.184,223.6135 C124.339,223.1185 123.916,222.8195 123.916,222.8195"/>
    <path fill="#ACD3EF" d="M121.71,87.26 C112.231,70.614 61.392,37.272 60.879,36.937 L61.973,35.263 C64.082,36.641 113.731,69.207 123.448,86.27 L121.71,87.26 Z"/>
    <path fill="#FFF" d="M175.6621,227.2385 L78.4771,227.2385 C77.3721,227.2385 76.4771,226.3425 76.4771,225.2385 L76.4771,118.6685 C76.4771,115.9955 77.5471,113.4335 79.4481,111.5545 L122.7021,68.8065 C125.1231,66.4155 129.0161,66.4155 131.4361,68.8065 L174.6911,111.5545 C176.5931,113.4335 177.6621,115.9955 177.6621,118.6685 L177.6621,225.2385 C177.6621,226.3425 176.7661,227.2385 175.6621,227.2385"/>
    <path fill="#5E63B6" d="M127.0693,68.0207 C125.7423,68.0207 124.4163,68.5197 123.4053,69.5177 L80.1513,112.2657 C78.4523,113.9457 77.4773,116.2787 77.4773,118.6677 L77.4773,225.2387 C77.4773,225.7907 77.9253,226.2387 78.4773,226.2387 L175.6623,226.2387 C176.2143,226.2387 176.6623,225.7907 176.6623,225.2387 L176.6623,118.6677 C176.6623,116.2787 175.6873,113.9457 173.9883,112.2657 L130.7333,69.5177 C129.7233,68.5197 128.3963,68.0207 127.0693,68.0207 M175.6623,228.2387 L78.4773,228.2387 C76.8233,228.2387 75.4773,226.8927 75.4773,225.2387 L75.4773,118.6677 C75.4773,115.7477 76.6693,112.8957 78.7453,110.8437 L121.9993,68.0957 C124.7973,65.3327 129.3453,65.3337 132.1393,68.0957 L175.3943,110.8437 C177.4703,112.8957 178.6623,115.7477 178.6623,118.6677 L178.6623,225.2387 C178.6623,226.8927 177.3163,228.2387 175.6623,228.2387"/>
    <path fill="#E1F2FF" d="M149.54,149.7287 C149.54,163.3877 138.467,174.4607 124.808,174.4607 C111.148,174.4607 100.075,163.3877 100.075,149.7287 C100.075,136.0697 111.148,124.9967 124.808,124.9967 C138.467,124.9967 149.54,136.0697 149.54,149.7287"/>
    <path fill="#FFF" d="M152.54,144.7287 C152.54,158.3877 141.467,169.4607 127.808,169.4607 C114.148,169.4607 103.075,158.3877 103.075,144.7287 C103.075,131.0697 114.148,119.9967 127.808,119.9967 C141.467,119.9967 152.54,131.0697 152.54,144.7287"/>
    <path fill="#5E63B6" d="M127.8076,120.9963 C114.7216,120.9963 104.0756,131.6423 104.0756,144.7283 C104.0756,157.8143 114.7216,168.4613 127.8076,168.4613 C140.8936,168.4613 151.5396,157.8143 151.5396,144.7283 C151.5396,131.6423 140.8936,120.9963 127.8076,120.9963 M127.8076,170.4613 C113.6196,170.4613 102.0756,158.9173 102.0756,144.7283 C102.0756,130.5403 113.6196,118.9963 127.8076,118.9963 C141.9956,118.9963 153.5396,130.5403 153.5396,144.7283 C153.5396,158.9173 141.9956,170.4613 127.8076,170.4613"/>
    <path fill="#9452BA" d="M133.9551,156.926 C134.0591,157.235 134.1501,157.445 134.1781,157.515 C134.1861,157.522 134.1691,157.511 134.1781,157.515 C134.1781,157.515 134.1781,157.517 134.1781,157.515 C134.1791,157.516 134.1771,157.515 134.1771,157.515 C133.4781,150.774 137.3011,147.965 138.5291,143.488 C138.5351,143.422 138.5481,143.35 138.5681,143.268 C138.5941,143.168 138.6141,143.065 138.6301,142.961 C138.8121,141.722 138.3051,140.28 137.3441,138.779 C137.3401,138.77 137.3331,138.763 137.3281,138.755 C137.2501,138.63 137.1651,138.505 137.0801,138.38 C137.0801,138.38 137.0771,138.378 137.0761,138.375 C136.9191,138.148 136.7501,137.917 136.5731,137.686 C136.5551,137.663 136.5381,137.638 136.5191,137.614 C136.4701,137.552 136.4181,137.489 136.3701,137.426 C136.3181,137.361 136.2681,137.295 136.2171,137.233 C136.1631,137.168 136.1111,137.106 136.0591,137.044 C136.0041,136.978 135.9501,136.914 135.8941,136.849 C135.8571,136.804 135.8161,136.759 135.7761,136.712 C134.2661,134.973 132.3001,133.254 130.2481,131.759 C130.2481,131.759 130.2321,131.736 130.2481,131.759 C130.5191,134.295 130.5551,136.831 130.3141,138.86 C130.0241,141.305 129.1491,144.152 127.9351,146.732 C125.0931,146.499 122.1881,145.841 119.9241,144.874 C118.0291,144.065 115.8601,142.789 113.7861,141.276 C113.8091,141.486 113.8341,141.695 113.8581,141.905 C113.8661,141.967 113.8751,142.03 113.8831,142.092 C113.9021,142.242 113.9211,142.391 113.9441,142.541 C113.9531,142.611 113.9631,142.68 113.9741,142.748 C113.9961,142.9 114.0181,143.048 114.0431,143.197 C114.0531,143.258 114.0621,143.319 114.0721,143.38 C114.1031,143.57 114.1351,143.757 114.1701,143.945 C114.1721,143.964 114.1751,143.983 114.1791,144 C114.2181,144.218 114.2591,144.435 114.3021,144.651 C114.3041,144.667 114.3091,144.682 114.3121,144.699 C114.3511,144.894 114.3921,145.084 114.4341,145.277 C114.4411,145.317 114.4501,145.355 114.4581,145.394 C114.4971,145.569 114.5381,145.742 114.5781,145.916 C114.5891,145.949 114.5971,145.983 114.6041,146.019 C114.6541,146.219 114.7021,146.418 114.7551,146.614 C114.7561,146.615 114.7561,146.617 114.7561,146.617 C114.9241,147.25 115.1081,147.862 115.3081,148.447 C115.3091,148.455 115.3121,148.461 115.3131,148.469 C115.6511,149.447 116.0351,150.35 116.4641,151.139 C116.5271,151.253 116.5921,151.366 116.6561,151.476 C116.6591,151.48 116.6591,151.485 116.6621,151.489 L116.6631,151.489 C116.7221,151.589 116.7811,151.688 116.8411,151.782 L116.8431,151.783 C116.8431,151.783 116.8481,151.791 116.8501,151.794 C116.9141,151.898 116.9791,151.998 117.0481,152.094 L117.0481,152.095 C117.0571,152.109 117.0651,152.119 117.0751,152.133 C117.0761,152.134 117.0751,152.136 117.0761,152.137 C117.1631,152.262 117.2521,152.382 117.3401,152.498 C117.3561,152.517 117.3711,152.535 117.3861,152.554 C117.3901,152.561 117.3951,152.567 117.4011,152.575 C117.5041,152.704 117.6081,152.829 117.7171,152.946 C117.7911,153.03 117.8681,153.107 117.9441,153.184 C117.9771,153.216 118.0121,153.245 118.0441,153.277 C118.0921,153.322 118.1411,153.364 118.1891,153.408 C118.2261,153.441 118.2631,153.468 118.3011,153.499 C118.3471,153.538 118.3941,153.574 118.4421,153.612 C118.4791,153.64 118.5171,153.666 118.5561,153.693 C118.6041,153.728 118.6521,153.761 118.7021,153.794 C118.7391,153.817 118.7781,153.841 118.8161,153.864 C118.8681,153.895 118.9221,153.923 118.9731,153.953 C119.0101,153.973 119.0471,153.991 119.0821,154.01 C119.1421,154.038 119.2021,154.064 119.2641,154.09 C119.2921,154.101 119.3231,154.117 119.3541,154.128 C119.4471,154.165 119.5401,154.197 119.6341,154.223 C119.6961,154.241 119.7501,154.261 119.8011,154.28 C124.3021,155.469 128.6831,153.585 134.1781,157.515"/>
    <path fill="#ACD3EF" d="M154.9111 192.6389L99.2271 192.6389C98.6751 192.6389 98.2271 192.1919 98.2271 191.6389 98.2271 191.0859 98.6751 190.6389 99.2271 190.6389L154.9111 190.6389C155.4641 190.6389 155.9111 191.0859 155.9111 191.6389 155.9111 192.1919 155.4641 192.6389 154.9111 192.6389M154.9111 207.344L99.2271 207.344C98.6751 207.344 98.2271 206.897 98.2271 206.344 98.2271 205.791 98.6751 205.344 99.2271 205.344L154.9111 205.344C155.4641 205.344 155.9111 205.791 155.9111 206.344 155.9111 206.897 155.4641 207.344 154.9111 207.344"/>
    <path fill="#FFF" d="M135.0693,93.383 C135.0693,97.801 131.4883,101.383 127.0693,101.383 C122.6513,101.383 119.0693,97.801 119.0693,93.383 C119.0693,88.965 122.6513,85.383 127.0693,85.383 C131.4883,85.383 135.0693,88.965 135.0693,93.383"/>
    <path fill="#5E63B6" d="M127.0693,86.383 C123.2103,86.383 120.0693,89.524 120.0693,93.383 C120.0693,97.242 123.2103,100.383 127.0693,100.383 C130.9283,100.383 134.0693,97.242 134.0693,93.383 C134.0693,89.524 130.9283,86.383 127.0693,86.383 M127.0693,102.383 C122.1063,102.383 118.0693,98.346 118.0693,93.383 C118.0693,88.42 122.1063,84.383 127.0693,84.383 C132.0323,84.383 136.0693,88.42 136.0693,93.383 C136.0693,98.346 132.0323,102.383 127.0693,102.383"/>
    <path fill="#ACD3EF" d="M116.3613,98.7287 C116.0243,98.7287 115.6863,98.7057 115.3483,98.6577 C109.1553,97.7927 103.9923,89.0407 97.4563,77.9577 C95.4653,74.5837 93.4063,71.0937 91.1573,67.5477 C85.9983,59.4147 80.5413,53.8197 75.7263,48.8827 C74.1253,47.2407 72.6123,45.6897 71.1983,44.1357 C68.2133,40.8567 66.1213,31.8297 66.0343,31.4467 L67.9833,30.9997 C68.0043,31.0887 70.0443,39.8977 72.6763,42.7907 C74.0683,44.3177 75.5693,45.8567 77.1583,47.4867 C82.0413,52.4927 87.5753,58.1667 92.8463,66.4777 C95.1133,70.0497 97.1793,73.5537 99.1783,76.9427 C105.1933,87.1387 110.3873,95.9457 115.6253,96.6767 C117.5893,96.9527 119.5883,96.0907 121.7363,94.0477 C122.8763,92.9637 123.6293,89.8017 122.3883,88.4777 L123.8493,87.1107 C125.9503,89.3567 124.9083,93.7917 123.1153,95.4977 C120.8363,97.6647 118.6163,98.7287 116.3613,98.7287"/>
    <path fill="#ACD3EF" d="M70.7891,46.2541 C71.5221,46.8471 73.7131,46.5541 75.3661,46.0511 C75.6131,44.4281 75.4011,43.6001 75.1181,43.3801 C74.8841,43.1941 74.2971,43.2801 73.6291,43.5951 C72.1771,44.2821 70.9391,45.6911 70.7891,46.2541 M72.2841,48.5921 C71.0811,48.5921 69.9091,48.3171 69.1751,47.4651 C68.7981,47.0271 68.3451,46.0491 69.5531,44.4181 C70.8861,42.6181 73.8171,40.6071 75.8471,41.5031 C77.3501,42.1671 77.8151,44.0181 77.2291,47.0051 L77.1201,47.5611 L76.5881,47.7531 C76.0371,47.9521 74.1231,48.5921 72.2841,48.5921"/>
  </g>
</svg>
