<svg xmlns="http://www.w3.org/2000/svg" xmlns:xlink="http://www.w3.org/1999/xlink" width="256" height="256" viewBox="0 0 256 256">
  <defs>
    <polygon id="exportcsv-a" points=".605 .602 100.499 .602 100.499 131.425 .605 131.425"/>
    <polygon id="exportcsv-c" points="27.447 57.459 37.984 58.093 43.447 57.459 48.851 55.431 52.447 58.093 58.464 60.522 65.947 59.124 77.795 54.243 106.978 14.66 41.447 0 9.447 11.049 0 34.049 9.447 50.549"/>
  </defs>
  <g fill="none" fill-rule="evenodd">
    <path fill="#E1F2FF" d="M27.9951,200.1138 C27.9951,142.9208 74.3591,96.5558 131.5531,96.5558 C188.7461,96.5558 235.1101,142.9208 235.1101,200.1138 L27.9951,200.1138 Z"/>
    <path fill="#FFF" d="M156.8135,36.9996 L84.8255,36.9996 C83.5995,36.9996 82.6055,37.9926 82.6055,39.2186 L82.6055,163.6036 C82.6055,164.8296 83.5995,165.8226 84.8255,165.8226 L178.2805,165.8226 C179.5055,165.8226 180.4995,164.8296 180.4995,163.6036 L180.4995,59.7996 L156.8135,36.9996 Z"/>
    <g transform="translate(81 35.398)">
      <mask id="exportcsv-b" fill="#fff">
        <use xlink:href="#exportcsv-a"/>
      </mask>
      <path fill="#5E63B6" d="M3.8252,2.6016 C3.1522,2.6016 2.6052,3.1486 2.6052,3.8206 L2.6052,128.2056 C2.6052,128.8776 3.1522,129.4246 3.8252,129.4246 L97.2802,129.4246 C97.9522,129.4246 98.4992,128.8776 98.4992,128.2056 L98.4992,24.8276 L75.4102,2.6016 L3.8252,2.6016 Z M97.2802,131.4246 L3.8252,131.4246 C2.0502,131.4246 0.6052,129.9806 0.6052,128.2056 L0.6052,3.8206 C0.6052,2.0456 2.0502,0.6016 3.8252,0.6016 L76.2172,0.6016 L100.4992,23.9756 L100.4992,128.2056 C100.4992,129.9806 99.0542,131.4246 97.2802,131.4246 L97.2802,131.4246 Z" mask="url(#exportcsv-b)"/>
    </g>
    <path fill="#5E63B6" d="M180.499,60.1841 L160.597,60.1841 C157.95,60.1841 155.797,58.0321 155.797,55.3851 L155.797,36.9991 L157.797,36.9991 L157.797,55.3851 C157.797,56.9281 159.053,58.1841 160.597,58.1841 L180.499,58.1841 L180.499,60.1841 Z"/>
    <path fill="#E1F2FF" d="M147.7773,89.146 C147.7773,100.869 138.2753,110.371 126.5523,110.371 C114.8303,110.371 105.3273,100.869 105.3273,89.146 C105.3273,77.423 114.8303,67.92 126.5523,67.92 C138.2753,67.92 147.7773,77.423 147.7773,89.146"/>
    <path fill="#FFF" d="M152.7773,85.146 C152.7773,96.869 143.2753,106.371 131.5523,106.371 C119.8303,106.371 110.3273,96.869 110.3273,85.146 C110.3273,73.423 119.8303,63.92 131.5523,63.92 C143.2753,63.92 152.7773,73.423 152.7773,85.146"/>
    <path fill="#5E63B6" d="M131.5527,64.9205 C120.4007,64.9205 111.3267,73.9935 111.3267,85.1465 C111.3267,96.2985 120.4007,105.3705 131.5527,105.3705 C142.7047,105.3705 151.7777,96.2985 151.7777,85.1465 C151.7777,73.9935 142.7047,64.9205 131.5527,64.9205 M131.5527,107.3705 C119.2977,107.3705 109.3267,97.4005 109.3267,85.1465 C109.3267,72.8915 119.2977,62.9205 131.5527,62.9205 C143.8077,62.9205 153.7777,72.8915 153.7777,85.1465 C153.7777,97.4005 143.8077,107.3705 131.5527,107.3705"/>
    <path fill="#FFF" d="M131.4971,89.69 L131.4971,75.978"/>
    <path fill="#9452BA" d="M131.4971,91.19 C130.6691,91.19 129.9971,90.518 129.9971,89.69 L129.9971,75.978 C129.9971,75.15 130.6691,74.478 131.4971,74.478 C132.3251,74.478 132.9971,75.15 132.9971,75.978 L132.9971,89.69 C132.9971,90.518 132.3251,91.19 131.4971,91.19"/>
    <path fill="#9452BA" d="M136.3447,82.3267 C135.9607,82.3267 135.5767,82.1807 135.2837,81.8877 L131.4967,78.0987 L127.7097,81.8877 C127.1237,82.4727 126.1747,82.4727 125.5887,81.8877 C125.0027,81.3017 125.0027,80.3517 125.5887,79.7657 L130.4367,74.9177 C130.9987,74.3547 131.9947,74.3547 132.5577,74.9177 L137.4057,79.7657 C137.9907,80.3517 137.9907,81.3017 137.4057,81.8877 C137.1127,82.1807 136.7287,82.3267 136.3447,82.3267"/>
    <path fill="#FFF" d="M124.5762,94.313 L138.5282,94.313"/>
    <path fill="#9452BA" d="M138.5283,95.813 L124.5763,95.813 C123.7483,95.813 123.0763,95.141 123.0763,94.313 C123.0763,93.485 123.7483,92.813 124.5763,92.813 L138.5283,92.813 C139.3563,92.813 140.0283,93.485 140.0283,94.313 C140.0283,95.141 139.3563,95.813 138.5283,95.813"/>
    <path fill="#FFF" d="M33.6094,211.9263 L55.9434,211.9263"/>
    <path fill="#ACD3EF" d="M55.9434 212.9263L33.6094 212.9263C33.0564 212.9263 32.6094 212.4793 32.6094 211.9263 32.6094 211.3733 33.0564 210.9263 33.6094 210.9263L55.9434 210.9263C56.4964 210.9263 56.9434 211.3733 56.9434 211.9263 56.9434 212.4793 56.4964 212.9263 55.9434 212.9263M248.2187 201.9634L243.2187 201.9634C242.6657 201.9634 242.2187 201.5164 242.2187 200.9634 242.2187 200.4104 242.6657 199.9634 243.2187 199.9634L248.2187 199.9634C248.7717 199.9634 249.2187 200.4104 249.2187 200.9634 249.2187 201.5164 248.7717 201.9634 248.2187 201.9634"/>
    <path fill="#FFF" d="M8,200.9634 L13.333,200.9634"/>
    <path fill="#ACD3EF" d="M13.333,201.9634 L8,201.9634 C7.447,201.9634 7,201.5164 7,200.9634 C7,200.4104 7.447,199.9634 8,199.9634 L13.333,199.9634 C13.886,199.9634 14.333,200.4104 14.333,200.9634 C14.333,201.5164 13.886,201.9634 13.333,201.9634"/>
    <path fill="#FFF" d="M99.3467,211.9263 L155.0737,211.9263"/>
    <path fill="#ACD3EF" d="M155.0732,212.9263 L99.3462,212.9263 C98.7942,212.9263 98.3462,212.4793 98.3462,211.9263 C98.3462,211.3733 98.7942,210.9263 99.3462,210.9263 L155.0732,210.9263 C155.6262,210.9263 156.0732,211.3733 156.0732,211.9263 C156.0732,212.4793 155.6262,212.9263 155.0732,212.9263"/>
    <path fill="#FFF" d="M161.7187,211.9263 L173.0527,211.9263"/>
    <path fill="#ACD3EF" d="M173.0527,212.9263 L161.7187,212.9263 C161.1657,212.9263 160.7187,212.4793 160.7187,211.9263 C160.7187,211.3733 161.1657,210.9263 161.7187,210.9263 L173.0527,210.9263 C173.6057,210.9263 174.0527,211.3733 174.0527,211.9263 C174.0527,212.4793 173.6057,212.9263 173.0527,212.9263"/>
    <path fill="#FFF" d="M94.3857,211.9263 L90.0527,211.9263"/>
    <path fill="#ACD3EF" d="M94.3857,212.9263 L90.0527,212.9263 C89.4997,212.9263 89.0527,212.4793 89.0527,211.9263 C89.0527,211.3733 89.4997,210.9263 90.0527,210.9263 L94.3857,210.9263 C94.9387,210.9263 95.3857,211.3733 95.3857,211.9263 C95.3857,212.4793 94.9387,212.9263 94.3857,212.9263"/>
    <path fill="#FFF" d="M22.5527,211.9263 L26.2187,211.9263"/>
    <path fill="#ACD3EF" d="M26.2188,212.9263 L22.5528,212.9263 C21.9998,212.9263 21.5528,212.4793 21.5528,211.9263 C21.5528,211.3733 21.9998,210.9263 22.5528,210.9263 L26.2188,210.9263 C26.7718,210.9263 27.2188,211.3733 27.2188,211.9263 C27.2188,212.4793 26.7718,212.9263 26.2188,212.9263"/>
    <path fill="#FFF" d="M220.2129,211.9263 L233.8799,211.9263"/>
    <path fill="#ACD3EF" d="M233.8799,212.9263 L220.2129,212.9263 C219.6599,212.9263 219.2129,212.4793 219.2129,211.9263 C219.2129,211.3733 219.6599,210.9263 220.2129,210.9263 L233.8799,210.9263 C234.4329,210.9263 234.8799,211.3733 234.8799,211.9263 C234.8799,212.4793 234.4329,212.9263 233.8799,212.9263"/>
    <path fill="#FFF" d="M239.0479,200.9634 L222.9909,200.9634 C223.5899,198.9164 223.9229,196.7554 223.9229,194.5144 C223.9229,181.8034 213.6189,171.4994 200.9079,171.4994 C190.7769,171.4994 182.1819,178.0474 179.1079,187.1394 C178.0249,186.8984 176.8999,186.7664 175.7429,186.7664 C167.6489,186.7664 161.0269,193.0244 160.4219,200.9634 L146.7039,200.9994 C146.1679,191.3924 138.7579,183.6224 129.2999,182.5594 C126.2419,167.7224 113.1059,156.5674 97.3629,156.5674 C86.6549,156.5674 77.1529,161.7294 71.2079,169.6994 C69.1419,169.1814 66.9809,168.9024 64.7539,168.9024 C50.1509,168.9024 38.3129,180.7404 38.3129,195.3444 C38.3129,197.2864 38.5279,199.1774 38.9279,200.9994 L22.6659,200.9994"/>
    <path fill="#ACD3EF" d="M145.7588,202.0025 L145.7058,201.0555 C145.1968,191.9325 138.2498,184.5715 129.1888,183.5535 L128.4668,183.4725 L128.3208,182.7615 C125.3118,168.1625 112.2928,157.5665 97.3628,157.5665 C87.2848,157.5665 78.0438,162.2075 72.0098,170.2975 L71.6118,170.8315 L70.9648,170.6695 C68.9378,170.1605 66.8478,169.9025 64.7538,169.9025 C50.7258,169.9025 39.3128,181.3155 39.3128,195.3445 C39.3128,197.1625 39.5118,198.9925 39.9048,200.7855 L40.1708,201.9995 L22.6658,201.9995 C22.1128,201.9995 21.6658,201.5525 21.6658,200.9995 C21.6658,200.4465 22.1128,199.9995 22.6658,199.9995 L37.7128,199.9995 C37.4468,198.4575 37.3128,196.8975 37.3128,195.3445 C37.3128,180.2135 49.6228,167.9025 64.7538,167.9025 C66.7898,167.9025 68.8228,168.1295 70.8068,168.5755 C77.2268,160.2995 86.8678,155.5665 97.3628,155.5665 C112.9978,155.5665 126.6618,166.4965 130.1268,181.6585 C139.4978,183.0385 146.6768,190.5765 147.6278,199.9975 L159.5218,199.9655 C160.5968,191.9315 167.5498,185.7665 175.7428,185.7665 C176.6458,185.7665 177.5548,185.8425 178.4558,185.9935 C181.9818,176.6905 190.8958,170.4995 200.9078,170.4995 C214.1508,170.4995 224.9228,181.2725 224.9228,194.5145 C224.9228,196.3395 224.7098,198.1665 224.2878,199.9635 L239.0478,199.9635 C239.6008,199.9635 240.0478,200.4105 240.0478,200.9635 C240.0478,201.5165 239.6008,201.9635 239.0478,201.9635 L221.6568,201.9635 L222.0308,200.6835 C222.6228,198.6595 222.9228,196.5845 222.9228,194.5145 C222.9228,182.3755 213.0468,172.4995 200.9078,172.4995 C191.4608,172.4995 183.0798,178.5115 180.0548,187.4595 L179.7668,188.3105 L178.8898,188.1155 C177.8498,187.8835 176.7908,187.7665 175.7428,187.7665 C168.2788,187.7665 161.9868,193.5965 161.4188,201.0395 L161.3488,201.9605 L145.7588,202.0025 Z"/>
    <path fill="#E1F2FF" d="M62.5371,184.3667 C62.5371,184.3667 60.2661,184.8287 60.2661,184.0047 C60.2661,171.9057 94.8651,169.0787 98.0431,181.8367 C99.0921,186.0467 74.9431,187.1407 73.4041,181.7047 L62.5371,184.3667"/>
    <g transform="translate(24 126)">
      <mask id="exportcsv-d" fill="#fff">
        <use xlink:href="#exportcsv-c"/>
      </mask>
      <g mask="url(#exportcsv-d)">
        <g transform="translate(10.447 8.549)">
          <path fill="#9452BA" d="M52.5811,103.7756 L57.5601,103.7136 C59.2711,103.6916 60.8111,102.6256 61.4121,101.0206 C63.1221,96.4486 62.6291,92.2736 62.7951,88.6946 C63.1021,82.0656 62.0251,78.6836 60.9691,73.1566 L53.4971,73.4226 C53.4971,73.4226 54.1671,76.1686 54.6941,84.4206 C54.8571,86.9736 50.7641,97.2896 51.0251,102.3216 C51.0681,103.1466 51.7551,103.7866 52.5811,103.7756"/>
          <path fill="#52267D" d="M54.6943,74.3811 C54.9413,75.8881 55.3473,78.9561 55.6923,84.3571 C55.7673,85.5391 55.1923,87.6721 54.2473,91.0541 C53.1923,94.8231 51.8813,99.5161 52.0243,102.2701 C52.0393,102.5581 52.3093,102.7641 52.5683,102.7761 L57.5473,102.7131 C58.8473,102.6961 60.0243,101.8761 60.4753,100.6701 C61.7273,97.3221 61.7393,94.2421 61.7503,91.2641 C61.7543,90.3611 61.7563,89.4881 61.7963,88.6491 C62.0413,83.3651 61.3903,80.2151 60.5663,76.2271 C60.4303,75.5711 60.2913,74.8951 60.1503,74.1871 L54.6943,74.3811 Z M52.5593,104.7761 C51.2073,104.7761 50.0973,103.7271 50.0263,102.3731 C49.8663,99.2921 51.1703,94.6291 52.3203,90.5161 C53.0253,87.9941 53.7543,85.3881 53.6963,84.4841 C53.1803,76.4131 52.5323,73.6871 52.5253,73.6601 L52.2343,72.4671 L61.7903,72.1261 L61.9513,72.9691 C62.1443,73.9811 62.3393,74.9211 62.5253,75.8221 C63.3433,79.7841 64.0503,83.2061 63.7943,88.7401 C63.7563,89.5541 63.7533,90.3991 63.7503,91.2721 C63.7393,94.2781 63.7263,97.6881 62.3483,101.3711 C61.6103,103.3441 59.6903,104.6871 57.5723,104.7131 L52.5933,104.7761 L52.5593,104.7761 Z"/>
          <path fill="#9452BA" d="M37.79,80.2903 L31.693,73.5493 L27.983,73.7433 C27.983,73.7433 27.534,79.4213 27.351,81.7983 C27.027,85.9883 25.395,94.2113 24.375,97.8233 C24.043,98.9993 23.855,100.0963 23.812,101.0883 C23.739,102.7593 25.148,104.1203 26.821,104.0993 L31.231,104.0443 C33.801,104.0123 36.062,102.2693 36.663,99.7703 C38.531,91.9923 37.79,80.2903 37.79,80.2903"/>
          <path fill="#52267D" d="M28.9111,74.6965 C28.7781,76.3825 28.4861,80.0755 28.3481,81.8755 C28.0291,85.9975 26.4271,94.2395 25.3371,98.0945 C25.0281,99.1895 24.8511,100.2115 24.8111,101.1315 C24.7891,101.6345 24.9751,102.1165 25.3371,102.4885 C25.7141,102.8775 26.2401,103.0985 26.7831,103.0985 L26.8081,103.0985 L31.2191,103.0445 C33.3621,103.0175 35.2011,101.5755 35.6901,99.5375 C37.3261,92.7285 36.9131,82.6785 36.8111,80.6985 L31.2701,74.5725 L28.9111,74.6965 Z M26.7831,105.0985 C25.7011,105.0985 24.6531,104.6565 23.9001,103.8805 C23.1531,103.1095 22.7671,102.1015 22.8131,101.0445 C22.8601,99.9695 23.0611,98.7955 23.4131,97.5515 C24.4551,93.8605 26.0491,85.6675 26.3531,81.7205 C26.5371,79.3435 26.9861,73.6645 26.9861,73.6645 L27.0561,72.7905 L32.1161,72.5255 L38.7651,79.8785 L38.7881,80.2265 C38.8181,80.7115 39.5171,92.1695 37.6361,100.0045 C36.9321,102.9335 34.3031,105.0065 31.2441,105.0445 L26.8341,105.0985 L26.7831,105.0985 Z"/>
          <path fill="#52267D" d="M28.792,85.9778 L29.089,86.2388 L29.059,85.7378 L28.792,85.9778 Z M29.209,86.3438 L29.425,86.5348 L30.573,86.0768 L30.456,85.8288 L29.661,86.0288 L29.679,86.3158 L29.209,86.3438 Z M29.325,87.1128 L28.04,85.9818 L29.229,84.9118 L29.563,85.2828 L29.173,85.6348 L30.733,85.2448 L31.253,86.3438 L29.325,87.1128 Z"/>
          <path fill="#9452BA" d="M29.0537,55.012 C33.4327,54.867 37.4977,51.8 46.4287,51.276 C46.5507,50.691 46.7007,50.16 46.8957,49.726 C48.4687,46.203 50.6237,36.084 49.0747,29.475 L47.8497,24.244 C47.4477,22.528 47.2337,20.773 47.2107,19.011 C47.2017,18.277 47.2677,17.559 47.4007,16.865 C47.4337,16.691 47.4707,16.519 47.5127,16.349 C47.6377,15.837 47.7987,15.34 47.9947,14.861 C48.0607,14.7 48.1287,14.542 48.2017,14.386 C48.3477,14.074 48.5077,13.771 48.6817,13.476 C48.8557,13.182 49.0427,12.896 49.2437,12.62 C49.8467,11.794 50.5657,11.057 51.3757,10.434 C51.6467,10.227 51.9277,10.032 52.2177,9.85 C53.8137,8.853 55.6947,8.267 57.7127,8.241 L59.4567,8.219 C62.3947,8.183 65.0687,9.339 67.0167,11.241 C67.2607,11.478 67.4927,11.727 67.7127,11.987 C68.1137,12.459 68.4697,12.969 68.7837,13.506 C68.9017,13.708 69.0157,13.913 69.1197,14.123 C69.1967,14.278 69.2697,14.434 69.3387,14.592 C69.5467,15.067 69.7207,15.56 69.8587,16.068 C69.9957,16.575 70.0967,17.099 70.1577,17.635 C70.1997,17.991 70.2217,18.355 70.2267,18.722 C70.2367,19.453 69.9477,20.12 69.4737,20.606 C68.9997,21.092 68.3407,21.397 67.6087,21.407 L56.7197,21.543 L58.4867,30.974 C60.5427,40.658 60.0427,47.159 58.5987,51.506 C58.2767,52.476 56.4177,55.919 56.4177,55.919 C61.9707,64.443 70.3677,68.094 79.3097,69.072 C86.9117,69.903 103.2107,62.776 94.6617,54.874 C86.1137,46.973 96.3847,51.824 97.9007,52.819 C99.4157,53.813 108.1997,61.212 98.9077,72.346 C94.9787,77.054 90.5147,81.346 79.6867,84.729 C77.9497,85.271 68.4477,86.082 63.3457,87.616 C48.1567,92.184 35.7027,87.581 28.6317,77.606 C21.5897,67.67 27.3247,55.069 29.0537,55.012"/>
          <path fill="#52267D" d="M29.2314,56.0061 C28.7534,56.3881 27.4504,58.4851 26.7094,61.9071 C26.0114,65.1271 25.4394,71.3731 29.4474,77.0271 C36.7784,87.3671 49.0284,90.8811 63.0574,86.6581 C66.3134,85.6801 71.2974,84.9911 74.9374,84.4881 C76.9304,84.2131 78.8144,83.9531 79.3884,83.7751 C90.2314,80.3871 94.4454,76.1321 98.1394,71.7051 C101.2104,68.0271 102.5114,64.4421 102.0074,61.0521 C101.4214,57.1051 98.4484,54.3741 97.3514,53.6541 C96.5534,53.1301 94.2954,52.0781 92.8834,51.6351 C93.3144,52.1571 94.0584,52.9541 95.3404,54.1401 C98.6584,57.2061 98.3664,60.0211 97.5374,61.8411 C95.0854,67.2191 84.6844,70.6631 79.2014,70.0661 C68.6554,68.9121 60.7084,64.3371 55.5804,56.4651 L55.2554,55.9671 L55.5384,55.4441 C56.2404,54.1431 57.4344,51.8361 57.6494,51.1911 C59.3124,46.1871 59.2644,39.4541 57.5074,31.1821 L55.5174,20.5581 L67.5954,20.4061 C68.0374,20.4011 68.4504,20.2241 68.7564,19.9081 C69.0664,19.5911 69.2324,19.1751 69.2264,18.7351 C69.2224,18.4021 69.2024,18.0721 69.1654,17.7491 C69.1094,17.2681 69.0184,16.7901 68.8934,16.3291 C68.7694,15.8721 68.6114,15.4221 68.4224,14.9931 C68.3594,14.8491 68.2934,14.7061 68.2234,14.5661 C68.1294,14.3781 68.0254,14.1921 67.9194,14.0081 C67.6294,13.5141 67.3024,13.0501 66.9504,12.6331 C66.7514,12.3981 66.5404,12.1721 66.3194,11.9571 C64.5054,10.1881 62.1214,9.2181 59.5914,9.2181 C59.5504,9.2181 59.5094,9.2181 59.4694,9.2191 L57.7254,9.2411 C55.9584,9.2641 54.2374,9.7671 52.7484,10.6971 C52.4854,10.8621 52.2294,11.0401 51.9834,11.2281 C51.2504,11.7921 50.5994,12.4591 50.0514,13.2091 C49.8694,13.4591 49.7004,13.7191 49.5424,13.9851 C49.3854,14.2511 49.2404,14.5271 49.1084,14.8091 C49.0424,14.9511 48.9794,15.0941 48.9204,15.2381 C48.7444,15.6711 48.5964,16.1241 48.4844,16.5861 C48.4454,16.7411 48.4124,16.8961 48.3824,17.0521 C48.2604,17.6891 48.2034,18.3441 48.2104,18.9991 C48.2324,20.6861 48.4384,22.3741 48.8234,24.0161 L50.0484,29.2461 C51.6504,36.0811 49.4414,46.4771 47.8084,50.1341 C47.6594,50.4681 47.5244,50.9201 47.4074,51.4801 L47.2514,52.2291 L46.4874,52.2741 C41.4624,52.5681 37.9594,53.7081 35.1444,54.6241 C33.0164,55.3161 31.1714,55.9161 29.2314,56.0061 M52.0404,90.3601 C42.0894,90.3601 33.4554,86.1401 27.8164,78.1841 C22.2014,70.2611 24.2584,60.9821 26.3604,56.7481 C27.6964,54.0571 28.6934,54.0241 29.0204,54.0131 C30.7314,53.9561 32.4064,53.4111 34.5254,52.7221 C37.3104,51.8171 40.7454,50.6991 45.6274,50.3271 C45.7344,49.9451 45.8514,49.6111 45.9824,49.3181 C47.4774,45.9711 49.5804,36.0141 48.1014,29.7031 L46.8764,24.4731 C46.4584,22.6901 46.2344,20.8571 46.2104,19.0241 C46.2014,18.2351 46.2714,17.4441 46.4184,16.6771 C46.4554,16.4851 46.4964,16.2961 46.5424,16.1091 C46.6774,15.5541 46.8554,15.0051 47.0694,14.4821 C47.1414,14.3071 47.2154,14.1331 47.2964,13.9611 C47.4554,13.6221 47.6294,13.2901 47.8204,12.9681 C48.0104,12.6451 48.2164,12.3321 48.4364,12.0301 C49.0954,11.1271 49.8794,10.3221 50.7664,9.6411 C51.0634,9.4131 51.3704,9.2001 51.6864,9.0021 C53.4884,7.8771 55.5674,7.2691 57.7004,7.2411 L59.4444,7.2191 C62.5644,7.1521 65.4914,8.3561 67.7144,10.5251 C67.9814,10.7831 68.2354,11.0561 68.4764,11.3411 C68.9034,11.8451 69.2974,12.4031 69.6474,13.0011 C69.7774,13.2251 69.9014,13.4481 70.0154,13.6781 C70.0994,13.8491 70.1794,14.0191 70.2544,14.1911 C70.4824,14.7101 70.6734,15.2531 70.8234,15.8061 C70.9744,16.3631 71.0854,16.9401 71.1514,17.5211 C71.1964,17.9101 71.2204,18.3071 71.2264,18.7081 C71.2394,19.6841 70.8714,20.6061 70.1894,21.3041 C69.5094,22.0011 68.5974,22.3941 67.6224,22.4061 L57.9214,22.5281 L59.4684,30.7891 C61.2954,39.3911 61.3244,46.4751 59.5474,51.8211 C59.2774,52.6361 58.1344,54.8231 57.5824,55.8631 C62.3774,62.9081 69.7204,67.0171 79.4184,68.0771 C84.6304,68.6621 93.8124,65.1931 95.7164,61.0121 C96.5374,59.2121 95.9694,57.4441 93.9834,55.6091 C90.5994,52.4811 89.7414,51.0631 90.5814,49.9871 C92.0454,48.1181 98.3874,51.9421 98.4494,51.9831 C100.0714,53.0471 103.3174,56.2501 103.9864,60.7581 C104.5774,64.7361 103.1264,68.8511 99.6744,72.9861 C95.9364,77.4661 91.3364,82.1371 79.9844,85.6831 C79.2524,85.9121 77.5564,86.1461 75.2104,86.4701 C71.6364,86.9641 66.7414,87.6401 63.6334,88.5741 C59.6444,89.7741 55.7514,90.3601 52.0404,90.3601"/>
          <path fill="#9452BA" d="M38.3311,40.4241 C38.5391,29.1601 29.4921,20.4241 19.3121,18.6821 C17.1991,18.3201 16.5051,17.6671 14.1981,17.6951 L12.4321,17.7181 C6.4801,17.7931 1.7171,22.6781 1.7921,28.6291 C1.8101,30.1121 3.0281,31.3001 4.5121,31.2811 C4.5121,31.2811 22.6301,31.0481 22.7151,31.0391 C22.7161,31.0401 24.1901,31.0221 24.1911,31.0231 C24.1891,31.0251 22.7131,31.0441 22.7111,31.0461 C26.7391,32.6961 29.2971,37.7851 29.7701,40.5311 C30.4461,44.4421 30.0281,47.6791 28.7251,50.3101 C27.8551,52.0621 27.7811,54.1611 27.9391,55.8581 C27.9391,55.8581 27.9821,55.8721 28.0441,55.8921 C28.1181,56.7991 28.2781,57.8301 28.5631,59.0051 C30.2541,57.7951 32.8861,55.9731 33.3671,55.7111 C34.4061,55.1461 36.7541,53.8581 37.8041,53.2381 C44.5141,49.2781 38.2131,46.8301 38.3311,40.4241"/>
          <path fill="#52267D" d="M28.8887,55.1106 L28.9017,55.1136 L29.0407,55.8106 C29.0797,56.2906 29.1437,56.7906 29.2317,57.3056 C30.6837,56.2856 32.4397,55.0776 32.8897,54.8326 C34.0557,54.1986 36.2957,52.9666 37.2957,52.3776 C40.7007,50.3686 40.1977,49.2906 38.9817,46.6856 C38.2247,45.0646 37.2827,43.0466 37.3307,40.4056 C37.5417,28.9936 28.1177,21.2036 19.1437,19.6676 C18.2787,19.5186 17.6317,19.3246 17.0607,19.1536 C16.1807,18.8886 15.4797,18.6826 14.2107,18.6956 L12.4447,18.7176 C7.0537,18.7866 2.7237,23.2266 2.7917,28.6166 C2.7977,29.0666 2.9787,29.4886 3.3007,29.8026 C3.6237,30.1176 4.0547,30.3276 4.4987,30.2816 C10.6347,30.2026 22.3317,30.0496 22.6767,30.0406 L23.1087,30.0276 L23.1167,30.0346 L23.4417,30.0316 C23.6317,30.0286 23.7777,30.0116 23.9247,30.0266 L24.1557,30.0236 L24.1567,30.0296 C24.5807,30.0436 24.6867,30.1036 24.8987,30.3156 L25.6057,31.0226 L25.2517,31.3776 C28.3457,33.7376 30.3197,37.8286 30.7557,40.3616 C31.4447,44.3466 31.0627,47.8436 29.6207,50.7546 C28.9377,52.1316 28.8267,53.7886 28.8887,55.1106 L28.8887,55.1106 Z M27.9417,60.6796 L27.5917,59.2416 C27.3727,58.3396 27.2127,57.4646 27.1137,56.6316 L27.0047,56.5946 L26.9437,55.9506 C26.7197,53.5486 27.0177,51.5016 27.8287,49.8656 C29.0777,47.3436 29.4007,44.2606 28.7847,40.7016 C28.3977,38.4516 26.1607,33.6576 22.4977,32.0426 C21.6177,32.0576 18.1997,32.1056 4.5247,32.2816 C3.5357,32.2686 2.6097,31.9216 1.9047,31.2346 C1.1997,30.5476 0.8047,29.6266 0.7917,28.6416 C0.7097,22.1486 5.9257,16.7996 12.4187,16.7176 L14.1857,16.6956 C15.7787,16.6746 16.6757,16.9486 17.6357,17.2376 C18.1777,17.4006 18.7377,17.5686 19.4817,17.6966 C29.2767,19.3726 39.5627,27.9146 39.3307,40.4426 C39.2907,42.6206 40.0887,44.3306 40.7937,45.8396 C42.0167,48.4596 43.2807,51.1676 38.3117,54.0996 C37.2877,54.7036 35.0227,55.9486 33.8447,56.5896 C33.4637,56.7976 31.0477,58.4566 29.1457,59.8186 L27.9417,60.6796 Z"/>
          <path fill="#F3E3FF" d="M32.7246,53.5051 C32.6146,51.7681 32.3366,50.8781 32.5226,50.1681 C33.5936,46.0811 33.9436,44.7911 33.8886,40.4801 C33.8346,36.1941 31.2996,31.9901 27.6066,29.7841 C27.4036,29.6631 24.7626,29.5101 22.7106,31.0461 C26.7396,32.6961 29.2966,37.7851 29.7706,40.5311 C30.4466,44.4421 30.0286,47.6791 28.7246,50.3101 C27.8556,52.0621 27.7816,54.1611 27.9396,55.8581 C27.9396,55.8581 32.8786,57.6421 32.7246,53.5051"/>
          <path fill="#52267D" d="M28.4102,55.4827 C29.2132,55.7127 30.7382,55.9707 31.5672,55.3637 C32.0352,55.0207 32.2572,54.4037 32.2252,53.5307 C32.1832,52.8827 32.1192,52.3557 32.0642,51.9127 C31.9692,51.1347 31.8992,50.5737 32.0392,50.0427 L32.0692,49.9247 C33.1242,45.9027 33.4422,44.6887 33.3892,40.4857 C33.3382,36.4067 30.9672,32.3747 27.3492,30.2137 C27.2042,30.1847 25.4202,30.0917 23.7402,30.9847 C27.4182,32.9927 29.7862,37.6807 30.2642,40.4467 C30.9332,44.3257 30.5662,47.7187 29.1732,50.5317 C28.3812,52.1287 28.3082,54.0487 28.4102,55.4827 M30.1142,56.7377 C28.9262,56.7377 27.8412,56.3537 27.7692,56.3287 L27.4712,56.2197 L27.4412,55.9047 C27.2942,54.3167 27.3182,52.0197 28.2762,50.0867 C29.5742,47.4687 29.9112,44.2827 29.2772,40.6167 C28.7842,37.7557 26.1622,33.0007 22.5212,31.5087 L21.7052,31.1737 L22.4112,30.6457 C24.5582,29.0387 27.4162,29.0877 27.8622,29.3547 C31.7712,31.6897 34.3332,36.0537 34.3892,40.4737 C34.4432,44.8117 34.0892,46.1647 33.0362,50.1787 L33.0062,50.2957 C32.9162,50.6417 32.9722,51.0987 33.0562,51.7907 C33.1132,52.2517 33.1812,52.7997 33.2232,53.4737 L33.2242,53.4867 C33.2702,54.7167 32.9112,55.6207 32.1562,56.1717 C31.5672,56.6017 30.8222,56.7377 30.1142,56.7377"/>
          <path fill="#FFF" d="M6.8008,19.6204 C6.8008,19.6204 6.7738,17.7384 8.6338,16.9674 C9.2008,16.7314 10.2378,16.2944 10.2378,16.2944 C10.2378,16.2944 11.3808,18.6364 10.1268,19.2454 C8.3218,20.1234 6.8008,19.6204 6.8008,19.6204"/>
          <path fill="#52267D" d="M7.3467,19.2239 C7.8667,19.2939 8.8347,19.3189 9.9087,18.7959 C10.0347,18.7349 10.1127,18.6439 10.1607,18.5029 C10.3057,18.0839 10.1357,17.4169 9.9677,16.9509 C9.6187,17.0969 9.1467,17.2949 8.8257,17.4289 C7.7767,17.8639 7.4497,18.7219 7.3467,19.2239 M7.9147,20.2639 C7.1697,20.2639 6.6807,20.1079 6.6437,20.0949 L6.3057,19.9839 L6.3007,19.6269 C6.2997,19.5369 6.2927,17.3969 8.4427,16.5049 C9.0087,16.2709 10.0427,15.8329 10.0427,15.8329 L10.4787,15.6499 L10.6867,16.0749 C10.7687,16.2439 11.4787,17.7499 11.1067,18.8289 C10.9717,19.2189 10.7087,19.5189 10.3457,19.6959 C9.4247,20.1429 8.5707,20.2639 7.9147,20.2639"/>
          <path fill="#FFF" d="M11.4648,18.2376 C11.4648,18.2376 11.4858,15.6736 14.3658,15.2626 C14.9028,15.1866 16.3078,15.2026 16.3078,15.2026 C16.3078,15.2026 16.9888,17.9076 15.4718,18.1876 C13.6058,18.5316 11.4648,18.2376 11.4648,18.2376"/>
          <path fill="#52267D" d="M12.0303,17.7942 C12.7553,17.8562 14.1433,17.9242 15.3813,17.6952 C15.5503,17.6652 15.6663,17.5882 15.7573,17.4462 C16.0253,17.0282 15.9753,16.2232 15.8953,15.7012 C15.4143,15.7022 14.7413,15.7152 14.4363,15.7582 C12.7023,16.0052 12.1843,17.1462 12.0303,17.7942 M13.4103,18.8562 C12.3083,18.8562 11.4533,18.7402 11.3963,18.7322 L10.9613,18.6732 L10.9653,18.2332 C10.9733,17.1972 11.6803,15.1402 14.2963,14.7682 C14.8543,14.6892 16.1623,14.7012 16.3133,14.7022 L16.6983,14.7062 L16.7923,15.0802 C16.8413,15.2722 17.2453,16.9792 16.5983,17.9862 C16.3593,18.3582 16.0013,18.5992 15.5623,18.6792 C14.8373,18.8132 14.0783,18.8562 13.4103,18.8562"/>
          <path fill="#FFF" d="M17.2041,18.4114 C17.2041,18.4114 17.5481,15.5624 20.1121,16.3124 C21.2081,16.6324 21.8241,17.4544 21.8241,17.4544 C21.8241,17.4544 21.3431,19.6264 20.3241,19.3954 C18.5441,18.9924 17.2041,18.4114 17.2041,18.4114"/>
          <path fill="#52267D" d="M17.7822,18.1047 C18.2932,18.2987 19.2712,18.6447 20.4342,18.9087 C20.4682,18.9137 20.5082,18.9197 20.5792,18.8757 C20.8632,18.6967 21.1312,18.0807 21.2732,17.5867 C21.0542,17.3647 20.6032,16.9767 19.9722,16.7927 C19.3842,16.6217 18.9232,16.6557 18.5552,16.8977 C18.1102,17.1917 17.8862,17.7397 17.7822,18.1047 M20.4732,19.9127 C20.3872,19.9127 20.3012,19.9027 20.2142,19.8827 C18.4082,19.4747 17.0612,18.8947 17.0052,18.8707 L16.6632,18.7217 L16.7082,18.3517 C16.7162,18.2887 16.9082,16.7877 18.0052,16.0637 C18.6242,15.6557 19.3792,15.5767 20.2532,15.8337 C21.4942,16.1947 22.1952,17.1157 22.2242,17.1547 L22.3622,17.3377 L22.3122,17.5627 C22.2752,17.7287 21.9282,19.2057 21.1152,19.7197 C20.9142,19.8477 20.6962,19.9127 20.4732,19.9127"/>
          <path fill="#FFF" d="M24.7959,32.1223 C24.7959,32.1223 30.7099,28.8093 29.5089,23.3763 C30.3079,24.0183 32.4459,25.9773 33.2259,26.9843 C33.2389,28.0513 33.4879,32.2843 27.6759,35.1933 C26.6339,34.1403 25.7509,32.8203 24.7959,32.1223"/>
          <path fill="#52267D" d="M25.6338,32.176 C26.0598,32.579 26.4688,33.063 26.8948,33.566 C27.1808,33.905 27.4748,34.252 27.7788,34.578 C32.7188,31.958 32.7488,28.431 32.7288,27.163 C32.1668,26.481 31.0578,25.408 30.1648,24.604 C30.2838,28.53 27.0088,31.222 25.6338,32.176 L25.6338,32.176 Z M27.5748,35.803 L27.3208,35.545 C26.8998,35.119 26.5088,34.657 26.1308,34.211 C25.5678,33.545 25.0338,32.916 24.5008,32.526 L23.8738,32.068 L24.5508,31.687 C24.6078,31.655 30.1258,28.485 29.0208,23.485 L28.7138,22.096 L29.8218,22.987 C30.6758,23.672 32.8208,25.645 33.6208,26.679 L33.7238,26.811 L33.7258,26.978 C33.7928,30.791 31.8318,33.672 27.8998,35.641 L27.5748,35.803 Z"/>
          <path fill="#F3E3FF" d="M7.6045 19.092C7.6045 19.092 7.5905 18.118 8.5535 17.719 8.8475 17.597 9.3835 17.37 9.3835 17.37 9.3835 17.37 9.9755 18.582 9.3265 18.898 8.3915 19.353 7.6045 19.092 7.6045 19.092M12.6895 17.6428C12.6895 17.6428 12.7005 16.3338 14.1685 16.1248 14.4425 16.0858 15.1585 16.0948 15.1585 16.0948 15.1585 16.0948 15.5055 17.4738 14.7315 17.6168 13.7805 17.7918 12.6895 17.6428 12.6895 17.6428M18.1201 18.1946C18.1201 18.1946 18.3031 16.6836 19.6631 17.0816 20.2451 17.2516 20.5711 17.6866 20.5711 17.6866 20.5711 17.6866 20.3161 18.8396 19.7751 18.7166 18.8311 18.5036 18.1201 18.1946 18.1201 18.1946M16.7285 29.3235L11.2835 29.3915C11.2495 26.6495 13.4445 24.3985 16.1865 24.3635L16.6665 24.3575C18.0375 24.3415 19.1635 25.4385 19.1795 26.8095 19.1975 28.1805 18.0995 29.3055 16.7285 29.3235"/>
          <path fill="#FFF" d="M16.2686,29.2366 L11.3756,29.2976 C11.3486,27.1426 13.0736,25.3746 15.2286,25.3466 L16.2196,25.3356 C17.2966,25.3216 18.1806,26.1836 18.1946,27.2606 C18.2076,28.3386 17.3456,29.2226 16.2686,29.2366"/>
          <path fill="#52267D" d="M16.2451,25.8352 L16.2251,25.8352 L15.2341,25.8472 C14.3261,25.8582 13.4761,26.2232 12.8421,26.8732 C12.3251,27.4022 12.0021,28.0702 11.9061,28.7902 L16.2631,28.7362 C17.0621,28.7272 17.7041,28.0672 17.6941,27.2672 C17.6891,26.8802 17.5341,26.5182 17.2571,26.2472 C16.9841,25.9812 16.6251,25.8352 16.2451,25.8352 L16.2451,25.8352 Z M10.8831,29.8032 L10.8761,29.3042 C10.8611,28.1282 11.3051,27.0172 12.1261,26.1752 C12.9461,25.3332 14.0461,24.8612 15.2231,24.8472 L16.2141,24.8352 L16.2451,24.8352 C17.5821,24.8352 18.6781,25.9142 18.6941,27.2542 C18.7121,28.6062 17.6261,29.7192 16.2741,29.7362 L10.8831,29.8032 Z"/>
          <path fill="#52267D" d="M12.2363 27.221C12.2433 27.823 12.7373 28.304 13.3393 28.297 13.9413 28.289 14.4233 27.795 14.4153 27.194 14.4073 26.592 13.9143 26.111 13.3113 26.117 12.7103 26.125 12.2283 26.619 12.2363 27.221M4.2529 30.4661L4.2529 30.4661C4.5619 30.3961 4.8359 30.2201 5.0299 29.9701L5.3899 29.5061 4.5779 29.6911 4.1009 29.7991C3.9169 29.8411 3.8019 30.0251 3.8439 30.2081 3.8859 30.3931 4.0679 30.5081 4.2529 30.4661"/>
          <path fill="#EAF3FB" d="M25.8027,32.217 C25.8027,32.217 30.3597,29.69 30.2267,24.715 C32.2157,26.126 32.7617,27.048 32.7617,27.048 C32.7617,27.048 32.4487,29.421 31.3597,30.63 C29.6887,32.487 27.9317,33.073 25.8027,32.217"/>
          <path fill="#FFF" d="M30.1348,31.2893 C30.1348,31.2893 28.3498,33.1513 26.5958,34.0573"/>
          <path fill="#52267D" d="M26.8252,34.5012 L26.3662,33.6122 C28.0272,32.7552 29.7572,30.9612 29.7732,30.9432 L30.4962,31.6352 C30.4212,31.7142 28.6322,33.5682 26.8252,34.5012"/>
          <path fill="#9452BA" d="M48.3682,50.4094 L47.3202,48.4054 C43.3862,39.0724 42.7272,33.5714 44.5962,24.5944 L45.6892,19.3344 C46.0482,17.6084 46.2182,15.8484 46.1952,14.0864 C46.1222,8.2124 41.3002,3.5104 35.4262,3.5844 L33.7092,3.6054 C27.9152,3.6794 23.2772,8.4334 23.3502,14.2274 L23.3542,14.5294 C23.3712,15.9074 24.5032,17.0114 25.8822,16.9934 L36.7542,16.8564 L35.2242,26.3294 C30.4972,51.7214 31.1322,61.9834 41.0352,59.7484"/>
          <path fill="#52267D" d="M38.6006,61.0491 C36.7766,61.0491 35.3126,60.5011 34.1656,59.3971 C30.4346,55.8041 30.4546,46.4821 34.2416,26.1471 L35.5776,17.8711 L25.8946,17.9931 C24.9716,17.9861 24.0796,17.6531 23.4096,17.0011 C22.7406,16.3491 22.3666,15.4761 22.3546,14.5411 L22.3506,14.2401 C22.3116,11.1711 23.4706,8.2711 25.6136,6.0731 C27.7566,3.8761 30.6266,2.6451 33.6966,2.6061 L35.4126,2.5841 C38.5126,2.5101 41.4566,3.7171 43.6836,5.8891 C45.9096,8.0591 47.1566,10.9661 47.1956,14.0731 C47.2186,15.9041 47.0406,17.7421 46.6686,19.5371 L45.5756,24.7971 C43.7486,33.5701 44.3476,38.7791 48.2426,48.0171 L49.2536,49.9461 L47.4826,50.8721 L46.4346,48.8691 C42.3666,39.2271 41.7156,33.5261 43.6166,24.3901 L44.7096,19.1311 C45.0536,17.4781 45.2166,15.7841 45.1956,14.0991 C45.1626,11.5251 44.1306,9.1171 42.2886,7.3201 C40.4446,5.5241 38.0086,4.5271 35.4386,4.5841 L33.7216,4.6061 C28.4886,4.6721 24.2846,8.9831 24.3506,14.2151 L24.3546,14.5171 C24.3596,14.9161 24.5196,15.2901 24.8056,15.5691 C25.0916,15.8481 25.5016,15.9861 25.8696,15.9931 L37.9306,15.8421 L36.2116,26.4881 C33.7046,39.9621 31.6676,54.2151 35.5536,57.9561 C36.6886,59.0501 38.4086,59.3171 40.8156,58.7731 L41.2546,60.7241 C40.2956,60.9411 39.4126,61.0491 38.6006,61.0491"/>
          <path fill="#FFF" d="M28.4766,4.9299 C28.4766,4.9299 28.6276,3.0839 30.4506,2.3289 C31.0066,2.0979 31.8846,2.3259 31.8846,2.3259 C31.8846,2.3259 32.9636,3.9659 31.7346,4.5639 C29.9656,5.4229 28.4766,4.9299 28.4766,4.9299"/>
          <path fill="#52267D" d="M29.0674,4.5422 C29.5814,4.6062 30.4884,4.6132 31.5154,4.1132 C31.7204,4.0152 31.7754,3.8972 31.8004,3.8072 C31.8874,3.4932 31.7054,3.0382 31.5634,2.7692 C31.2714,2.7182 30.8724,2.6932 30.6424,2.7912 C29.6224,3.2132 29.2214,4.0352 29.0674,4.5422 M29.5694,5.5702 C28.8374,5.5702 28.3554,5.4162 28.3194,5.4042 L27.9464,5.2802 L27.9784,4.8892 C27.9854,4.8012 28.1784,2.7292 30.2584,1.8672 C30.9504,1.5782 31.9034,1.8132 32.0094,1.8412 L32.1964,1.8902 L32.3024,2.0512 C32.3764,2.1622 33.0134,3.1682 32.7654,4.0702 C32.6514,4.4842 32.3714,4.8102 31.9534,5.0132 C31.0504,5.4512 30.2134,5.5702 29.5694,5.5702"/>
          <path fill="#FFF" d="M32.8301,4.2678 C32.8301,4.2678 32.8531,1.3628 36.1151,0.8988 C36.7241,0.8118 37.5071,0.8618 37.5071,0.8618 C37.5071,0.8618 39.0861,3.8938 37.3671,4.2098 C35.2551,4.5998 32.8301,4.2678 32.8301,4.2678"/>
          <path fill="#52267D" d="M33.3848,3.8245 C34.1808,3.8955 35.8188,3.9875 37.2768,3.7185 C37.4888,3.6785 37.5588,3.5905 37.5988,3.5085 C37.8128,3.0705 37.5148,2.0635 37.1888,1.3495 C36.9228,1.3405 36.5208,1.3455 36.1858,1.3935 C34.0938,1.6915 33.5338,3.0915 33.3848,3.8245 M35.0288,4.9005 C33.7878,4.9005 32.8258,4.7715 32.7628,4.7625 L32.3258,4.7035 L32.3298,4.2635 C32.3398,3.1095 33.1278,0.8185 36.0448,0.4035 C36.6978,0.3115 37.5058,0.3615 37.5378,0.3625 L37.8208,0.3805 L37.9498,0.6315 C38.0648,0.8505 39.0528,2.8105 38.4968,3.9475 C38.3598,4.2295 38.0678,4.5905 37.4578,4.7025 C36.6388,4.8525 35.7818,4.9005 35.0288,4.9005"/>
          <path fill="#FFF" d="M38.6826,4.8547 C38.6826,4.8547 39.0906,2.0737 41.5836,2.8717 C42.6496,3.2117 43.2326,4.0327 43.2326,4.0327 C43.2326,4.0327 42.7056,6.1477 41.7136,5.8967 C39.9816,5.4577 38.6826,4.8547 38.6826,4.8547"/>
          <path fill="#52267D" d="M39.2695,4.5627 C39.7665,4.7667 40.7105,5.1257 41.8365,5.4127 C41.8715,5.4207 41.9085,5.4237 41.9715,5.3847 C42.2485,5.2187 42.5275,4.6217 42.6785,4.1517 C42.4685,3.9277 42.0395,3.5417 41.4315,3.3477 C40.8655,3.1667 40.4145,3.1897 40.0495,3.4157 C39.6135,3.6877 39.3815,4.2087 39.2695,4.5627 M41.8755,6.4167 C41.7815,6.4167 41.6855,6.4057 41.5905,6.3807 C39.8335,5.9357 38.5275,5.3337 38.4725,5.3077 L38.1335,5.1517 L38.1875,4.7827 C38.1975,4.7197 38.4235,3.2507 39.5205,2.5667 C40.1385,2.1807 40.8835,2.1227 41.7365,2.3947 C42.9465,2.7827 43.6125,3.7037 43.6395,3.7427 L43.7735,3.9297 L43.7175,4.1537 C43.6515,4.4177 43.2825,5.7657 42.4855,6.2437 C42.2925,6.3587 42.0855,6.4167 41.8755,6.4167"/>
          <path fill="#F3E3FF" d="M29.2783,54.6731 C29.8923,54.2011 30.5163,53.9251 31.0543,53.7891"/>
          <path fill="#52267D" d="M29.583,55.0696 L28.974,54.2766 C29.58,53.8106 30.258,53.4746 30.933,53.3046 L31.177,54.2736 C30.798,54.3696 30.214,54.5856 29.583,55.0696"/>
          <path fill="#F3E3FF" d="M32.8779,54.5706 C31.0109,47.3726 34.0429,33.5246 34.5889,30.1196 L36.7519,16.4756 L37.7749,16.4636 C39.0719,16.4466 40.0709,17.8426 39.9029,19.1316 L38.3589,30.9606 C37.8379,34.9666 37.4749,53.4876 44.4719,57.3776 C45.9649,58.2076 48.3669,57.6206 49.2699,57.1756 C52.5519,55.5566 53.4499,51.4266 54.1319,48.0986 C55.5429,41.2116 54.3089,35.8336 53.9089,30.4536 L53.4769,23.7206 C53.3989,22.5046 54.3509,21.1996 55.5679,21.1846 L56.8099,21.1696 L59.2169,34.7556 C59.9379,38.6246 61.8369,52.0466 53.9939,58.4486 C53.8529,58.5646 55.9279,59.0016 55.3409,60.0686 C53.0119,64.3106 46.1159,65.0636 44.8389,66.8836 C39.9189,73.8896 44.7939,88.6266 44.7939,88.6266 C44.7939,88.6266 39.2089,86.4776 35.7289,83.4366 C27.5929,76.3266 26.4399,65.8936 26.3639,62.8196 C26.2739,59.1416 27.2109,56.8476 28.3839,55.4706"/>
          <path fill="#52267D" d="M45.6006,89.4719 L44.6146,89.0929 C44.3826,89.0039 38.9066,86.8769 35.3996,83.8139 C26.6246,76.1449 25.9166,64.9909 25.8646,62.8319 C25.7826,59.4949 26.5016,56.9089 28.0026,55.1469 L28.7646,55.7949 C27.4466,57.3429 26.7886,59.7679 26.8646,62.8069 C26.8956,64.0849 27.4186,75.5099 36.0576,83.0599 C38.5736,85.2579 42.2686,87.0039 44.0046,87.7569 C42.9856,84.2389 40.1296,72.7199 44.4296,66.5959 C45.0066,65.7739 46.3496,65.2249 48.0506,64.5299 C50.5036,63.5269 53.5566,62.2789 54.9026,59.8279 C54.9596,59.7239 54.9456,59.6799 54.9396,59.6629 C54.8616,59.4299 54.2806,59.1709 54.0616,59.0749 C53.7786,58.9479 53.5336,58.8389 53.4926,58.5299 L53.4546,58.2529 L53.6766,58.0619 C61.2256,51.8999 59.4496,38.7349 58.7256,34.8469 L56.3916,21.6739 L55.5746,21.6849 C55.2016,21.6899 54.8296,21.8699 54.5296,22.1949 C54.1546,22.5989 53.9426,23.1719 53.9756,23.6889 L54.4086,30.4209 C54.4986,31.6429 54.6336,32.8689 54.7706,34.1139 C55.2406,38.3899 55.7256,42.8119 54.6216,48.1999 C53.9586,51.4359 53.0506,55.8679 49.4916,57.6239 C48.5596,58.0819 45.9426,58.7689 44.2286,57.8139 C36.7226,53.6419 37.4226,34.2839 37.8636,30.8959 L39.4076,19.0669 C39.4776,18.5319 39.2846,17.9329 38.9026,17.5039 C38.5916,17.1549 38.2006,16.9629 37.7976,16.9629 L37.7826,16.9629 L37.1796,16.9709 L35.0826,30.1979 C35.0086,30.6599 34.8886,31.3149 34.7426,32.1179 C33.8536,36.9669 31.7746,48.3259 33.3626,54.4449 L32.3936,54.6969 C30.7506,48.3629 32.7826,37.2689 33.7576,31.9369 C33.9036,31.1439 34.0216,30.4969 34.0946,30.0399 L36.3246,15.9809 L37.7696,15.9629 L37.7986,15.9629 C38.4906,15.9629 39.1466,16.2739 39.6496,16.8389 C40.2266,17.4889 40.5066,18.3689 40.3996,19.1959 L38.8556,31.0249 C38.2486,35.6839 38.1666,53.2999 44.7146,56.9399 C45.9916,57.6509 48.2036,57.1429 49.0486,56.7279 C52.1696,55.1879 53.0206,51.0329 53.6416,47.9979 C54.7136,42.7649 54.2376,38.4219 53.7766,34.2219 C53.6386,32.9659 53.5026,31.7289 53.4106,30.4909 L52.9776,23.7529 C52.9266,22.9589 53.2326,22.1229 53.7956,21.5149 C54.2846,20.9879 54.9126,20.6929 55.5626,20.6849 L57.2276,20.6639 L59.7086,34.6679 C60.4396,38.5909 62.1966,51.6709 54.8716,58.3509 C55.2776,58.5599 55.7266,58.8679 55.8876,59.3449 C55.9606,59.5619 56.0006,59.9059 55.7796,60.3099 C54.2626,63.0709 51.0286,64.3929 48.4296,65.4549 C47.0026,66.0379 45.6566,66.5889 45.2476,67.1699 C40.5276,73.8939 45.2206,88.3249 45.2686,88.4689 L45.6006,89.4719 Z"/>
          <path fill="#FFF" d="M98.2627,59.7737 C98.2627,59.7737 99.3897,58.4937 98.7267,56.8017 C98.5237,56.2857 97.8117,55.8477 97.8117,55.8477 C97.8117,55.8477 96.0337,56.1817 96.4227,57.3777 C96.9837,59.1007 98.2627,59.7737 98.2627,59.7737"/>
          <path fill="#52267D" d="M97.7139,56.3879 C97.4359,56.4719 97.0509,56.6419 96.9159,56.8709 C96.8759,56.9389 96.8389,57.0389 96.8989,57.2229 C97.2099,58.1819 97.7639,58.7699 98.1299,59.0739 C98.3589,58.6459 98.6139,57.8859 98.2609,56.9849 C98.1809,56.7799 97.9169,56.5409 97.7139,56.3879 L97.7139,56.3879 Z M98.3779,60.3999 L98.0299,60.2159 C97.9709,60.1849 96.5639,59.4269 95.9469,57.5329 C95.8119,57.1159 95.8489,56.7099 96.0569,56.3609 C96.5049,55.6039 97.5969,55.3789 97.7189,55.3569 L97.9089,55.3209 L98.0729,55.4219 C98.1609,55.4759 98.9349,55.9659 99.1919,56.6189 C99.9579,58.5729 98.6929,60.0419 98.6379,60.1039 L98.3779,60.3999 Z"/>
          <path fill="#F3E3FF" d="M97.8623,58.0198 C97.8623,58.0198 98.2583,57.5708 98.0253,56.9768 C97.9543,56.7958 97.7043,56.6428 97.7043,56.6428 C97.7043,56.6428 97.0813,56.7598 97.2173,57.1788 C97.4143,57.7838 97.8623,58.0198 97.8623,58.0198"/>
          <path fill="#FFF" d="M89.0176,68.9592 C89.0176,68.9592 87.9006,66.4962 90.4736,64.8272 C90.9536,64.5162 91.6346,64.2512 91.6346,64.2512 C91.6346,64.2512 94.1556,66.1942 92.8276,67.1352 C91.1956,68.2902 89.0176,68.9592 89.0176,68.9592"/>
          <path fill="#52267D" d="M91.5508,64.8284 C91.3248,64.9284 90.9998,65.0814 90.7458,65.2464 C89.1438,66.2864 89.1858,67.6404 89.3368,68.3214 C90.0478,68.0644 91.4358,67.5084 92.5378,66.7264 C92.6898,66.6194 92.7118,66.5304 92.7138,66.4504 C92.7228,66.0174 92.0868,65.2944 91.5508,64.8284 L91.5508,64.8284 Z M88.7438,69.5664 L88.5628,69.1664 C88.1138,68.1784 87.8808,65.9134 90.2008,64.4074 C90.7178,64.0724 91.4238,63.7974 91.4538,63.7854 L91.7168,63.6824 L91.9408,63.8554 C92.2398,64.0874 93.7378,65.3014 93.7138,66.4714 C93.7068,66.7714 93.5988,67.2014 93.1158,67.5434 C91.4388,68.7304 89.2568,69.4084 89.1638,69.4364 L88.7438,69.5664 Z"/>
          <path fill="#F3E3FF" d="M89.9092,68.0159 C89.9092,68.0159 89.2902,66.6499 90.7172,65.7249 C90.9832,65.5519 91.3602,65.4059 91.3602,65.4059 C91.3602,65.4059 92.7592,66.4829 92.0222,67.0039 C91.1172,67.6449 89.9092,68.0159 89.9092,68.0159"/>
          <path fill="#FFF" d="M96.833,60.7483 C96.833,60.7483 98.733,62.3763 96.949,63.8743 C96.187,64.5153 95.292,64.5643 95.292,64.5643 C95.292,64.5643 93.948,63.1643 94.609,62.5363 C95.763,61.4393 96.833,60.7483 96.833,60.7483"/>
          <path fill="#52267D" d="M96.7646,61.4026 C96.3686,61.6866 95.6746,62.2136 94.9536,62.8986 C94.9246,63.2266 95.2166,63.7006 95.4876,64.0306 C95.7546,63.9746 96.2186,63.8356 96.6276,63.4916 C97.0196,63.1626 97.2106,62.8256 97.2126,62.4616 C97.2146,62.0416 96.9676,61.6506 96.7646,61.4026 L96.7646,61.4026 Z M95.0896,65.0766 L94.9316,64.9106 C94.7596,64.7326 93.9076,63.7996 93.9266,62.9526 C93.9336,62.6466 94.0506,62.3776 94.2646,62.1736 C95.4386,61.0576 96.5166,60.3576 96.5616,60.3286 L96.8746,60.1266 L97.1586,60.3686 C97.2016,60.4056 98.2186,61.2906 98.2126,62.4656 C98.2096,63.1316 97.8926,63.7346 97.2706,64.2566 C96.3906,64.9966 95.3636,65.0616 95.3196,65.0636 L95.0896,65.0766 Z"/>
          <path fill="#F3E3FF" d="M96.5742,61.9221 C96.5742,61.9221 97.4162,62.6431 96.6252,63.3071 C96.2872,63.5901 95.8912,63.6121 95.8912,63.6121 C95.8912,63.6121 95.2962,62.9921 95.5892,62.7141 C96.0992,62.2281 96.5742,61.9221 96.5742,61.9221"/>
          <path fill="#FFF" d="M80.0127,70.3743 C80.0127,70.3743 79.3657,68.1783 81.7807,67.2723 C84.1957,66.3663 84.8567,67.0863 84.8567,67.0863 C84.8567,67.0863 86.2267,69.3283 85.0367,70.0703 C83.8467,70.8123 80.0127,70.3743 80.0127,70.3743"/>
          <path fill="#52267D" d="M80.4365,69.9153 C81.8865,70.0493 84.0765,70.0803 84.7725,69.6463 C85.3735,69.2713 84.7485,67.9093 84.4775,67.4283 C84.3215,67.3473 83.6525,67.1043 81.9565,67.7403 C80.4895,68.2903 80.3865,69.3753 80.4365,69.9153 M82.3175,71.0053 C81.1855,71.0053 80.1625,70.8943 79.9565,70.8713 L79.6265,70.8333 L79.5335,70.5163 C79.2635,69.6023 79.3495,67.6493 81.6045,66.8053 C84.2065,65.8273 85.0765,66.5853 85.2245,66.7483 C85.8875,67.8153 86.5725,69.7013 85.3015,70.4943 C84.6555,70.8973 83.4335,71.0053 82.3175,71.0053"/>
          <path fill="#F3E3FF" d="M81.1445,69.8596 C81.1445,69.8596 80.8085,68.7166 82.0645,68.2466 C83.3205,67.7756 83.6645,68.1496 83.6645,68.1496 C83.6645,68.1496 84.3765,69.3156 83.7575,69.7016 C83.1385,70.0876 81.1445,69.8596 81.1445,69.8596"/>
          <path fill="#FFF" d="M36.2646,19.802 C36.2646,19.802 40.1646,21.944 45.5846,19.899 C45.2326,21.592 44.5136,24.996 44.5136,24.996 C44.5136,24.996 39.4896,26.606 35.5676,24.207 C35.9386,21.961 36.2646,19.802 36.2646,19.802"/>
          <path fill="#52267D" d="M36.1172,23.9485 C39.2382,25.6685 43.0442,24.8655 44.0872,24.5965 C44.2362,23.8895 44.6222,22.0615 44.9162,20.6575 C40.9692,21.8865 37.9262,21.0275 36.6592,20.5275 C36.5442,21.2755 36.3422,22.5755 36.1172,23.9485 M40.7202,26.0305 C39.0492,26.0305 37.0822,25.7195 35.3062,24.6345 L35.0192,24.4585 L35.0742,24.1265 C35.4442,21.8845 35.7702,19.7285 35.7702,19.7275 L35.8772,19.0225 L36.5042,19.3635 C36.5422,19.3845 40.2902,21.3635 45.4082,19.4305 L46.2602,19.1095 L46.0742,20.0005 C45.7212,21.6945 45.0032,25.0995 45.0032,25.0995 L44.9432,25.3845 L44.6662,25.4725 C44.5462,25.5105 42.8802,26.0305 40.7202,26.0305"/>
          <path fill="#FFF" d="M65.1182,9.5979 C65.1182,9.5979 64.9192,7.7429 63.0642,7.0279 C62.4982,6.8099 60.9762,6.7679 60.9762,6.7679 C60.9762,6.7679 60.5742,8.7409 61.8272,9.3109 C63.6302,10.1319 65.1182,9.5979 65.1182,9.5979"/>
          <path fill="#52267D" d="M61.4219,7.2883 C61.3979,7.7903 61.4559,8.5933 62.0339,8.8553 C63.0819,9.3333 64.0039,9.3043 64.5179,9.2253 C64.3509,8.7183 63.9269,7.8953 62.8849,7.4943 C62.6149,7.3913 61.9629,7.3223 61.4219,7.2883 M63.9009,10.2683 C63.2729,10.2683 62.4779,10.1563 61.6199,9.7663 C60.0239,9.0393 60.4669,6.7643 60.4859,6.6683 L60.5699,6.2563 L60.9899,6.2673 C61.1549,6.2723 62.6149,6.3193 63.2439,6.5603 C65.3599,7.3763 65.6059,9.4563 65.6149,9.5443 L65.6569,9.9353 L65.2869,10.0683 C65.2479,10.0823 64.7129,10.2683 63.9009,10.2683"/>
          <path fill="#FFF" d="M60.4238,8.7083 C60.4238,8.7083 60.3388,6.1783 57.4868,5.8453 C56.9548,5.7823 56.2748,5.8433 56.2748,5.8433 C56.2748,5.8433 54.9648,8.5203 56.4698,8.7583 C58.3188,9.0513 60.4238,8.7083 60.4238,8.7083"/>
          <path fill="#52267D" d="M56.6064,6.3235 C56.3544,6.9305 56.1294,7.7765 56.3094,8.1225 C56.3304,8.1615 56.3694,8.2355 56.5474,8.2635 C57.7744,8.4585 59.1354,8.3585 59.8464,8.2795 C59.6764,7.6435 59.1364,6.5415 57.4294,6.3425 C57.1564,6.3085 56.8324,6.3135 56.6064,6.3235 M58.1414,9.3775 C57.5824,9.3775 56.9764,9.3445 56.3914,9.2525 C55.8324,9.1635 55.5554,8.8395 55.4214,8.5835 C54.9104,7.5975 55.6684,5.9445 55.8254,5.6235 L55.9494,5.3705 L56.2304,5.3445 C56.2574,5.3425 56.9664,5.2815 57.5454,5.3475 C60.1384,5.6515 60.8894,7.6675 60.9234,8.6915 L60.9384,9.1315 L60.5034,9.2015 C60.4424,9.2125 59.4064,9.3775 58.1414,9.3775"/>
          <path fill="#FFF" d="M55.0332,8.9592 C55.0332,8.9592 54.5522,6.1682 52.0602,7.0352 C50.9972,7.4052 50.4292,8.2462 50.4292,8.2462 C50.4292,8.2462 51.0122,10.3632 52.0062,10.0852 C53.7402,9.6002 55.0332,8.9592 55.0332,8.9592"/>
          <path fill="#52267D" d="M50.9863,8.3518 C51.1523,8.8288 51.4443,9.4178 51.7313,9.5808 C51.7993,9.6198 51.8373,9.6138 51.8713,9.6038 C53.0013,9.2878 53.9453,8.8998 54.4403,8.6818 C54.3183,8.3278 54.0713,7.8038 53.6183,7.5388 C53.2443,7.3198 52.7873,7.3108 52.2243,7.5078 C51.6163,7.7188 51.1933,8.1208 50.9863,8.3518 M51.8273,10.6108 C51.6263,10.6108 51.4263,10.5568 51.2393,10.4508 C50.4263,9.9918 50.0203,8.6448 49.9473,8.3788 L49.8863,8.1578 L50.0153,7.9668 C50.0423,7.9268 50.6893,6.9828 51.8963,6.5628 C52.7443,6.2698 53.4973,6.3058 54.1293,6.6788 C55.2503,7.3388 55.5153,8.8118 55.5263,8.8738 L55.5893,9.2418 L55.2553,9.4078 C55.2003,9.4338 53.9003,10.0748 52.1403,10.5668 C52.0363,10.5958 51.9313,10.6108 51.8273,10.6108"/>
          <path fill="#F3E3FF" d="M29.4297 4.4524C29.4297 4.4524 29.5107 3.4664 30.4847 3.0624 30.7817 2.9394 31.2507 3.0604 31.2507 3.0604 31.2507 3.0604 31.8267 3.9364 31.1697 4.2564 30.2257 4.7154 29.4297 4.4524 29.4297 4.4524M33.8994 3.7659C33.8994 3.7659 33.9144 1.9449 35.9594 1.6539 36.3394 1.5989 36.8314 1.6309 36.8314 1.6309 36.8314 1.6309 37.8214 3.5319 36.7434 3.7299 35.4194 3.9739 33.8994 3.7659 33.8994 3.7659M39.7578 4.5618C39.7578 4.5618 39.9928 2.9578 41.4318 3.4168 42.0468 3.6148 42.3828 4.0868 42.3828 4.0868 42.3828 4.0868 42.0798 5.3078 41.5068 5.1638 40.5068 4.9098 39.7578 4.5618 39.7578 4.5618M64.1953 9.135C64.1953 9.135 64.0903 8.155 63.1093 7.776 62.8103 7.66 62.0063 7.639 62.0063 7.639 62.0063 7.639 61.7933 8.682 62.4563 8.983 63.4093 9.417 64.1953 9.135 64.1953 9.135M59.3135 8.2756C59.3135 8.2756 59.2665 6.8776 57.6905 6.6926 57.3955 6.6586 57.0195 6.6916 57.0195 6.6916 57.0195 6.6916 56.2945 8.1716 57.1265 8.3026 58.1495 8.4646 59.3135 8.2756 59.3135 8.2756M54.0352 8.7815C54.0352 8.7815 53.7712 7.2555 52.4092 7.7295 51.8272 7.9315 51.5162 8.3915 51.5162 8.3915 51.5162 8.3915 51.8362 9.5505 52.3792 9.3975 53.3282 9.1325 54.0352 8.7815 54.0352 8.7815"/>
          <path fill="#FFF" d="M47.8984,24.4524 C47.8984,24.4524 52.7044,25.1394 57.2514,23.9634 C57.7264,26.4364 58.0354,28.3044 58.0354,28.3044 C58.0354,28.3044 54.8984,30.4924 49.0394,29.3194 C48.3094,26.1444 47.8984,24.4524 47.8984,24.4524"/>
          <path fill="#52267D" d="M49.4531,28.8899 C53.8901,29.6979 56.6531,28.4939 57.4851,28.0479 C57.3861,27.4649 57.1621,26.1779 56.8581,24.5739 C53.4291,25.3579 50.0091,25.1679 48.5511,25.0299 C48.7251,25.7619 49.0321,27.0629 49.4531,28.8899 M52.4001,30.1669 C51.3741,30.1669 50.2211,30.0659 48.9411,29.8099 L48.6241,29.7459 L48.5521,29.4319 C47.8231,26.2629 47.4131,24.5729 47.4121,24.5709 L47.2381,23.8539 L47.9691,23.9569 C48.0161,23.9649 52.7311,24.6169 57.1261,23.4789 L57.6411,23.3459 L57.7421,23.8689 C58.2191,26.3499 58.5281,28.2229 58.5281,28.2229 L58.5801,28.5339 L58.3211,28.7139 C58.2151,28.7879 56.1821,30.1669 52.4001,30.1669"/>
          <path fill="#F3E3FF" d="M55.7705,19.5364 L61.2145,19.4674 C61.1805,16.7244 58.9295,14.5294 56.1865,14.5634 L55.7085,14.5704 C54.3365,14.5874 53.2395,15.7134 53.2555,17.0844 C53.2735,18.4554 54.3985,19.5534 55.7705,19.5364"/>
          <path fill="#FFF" d="M56.3652,19.4348 L61.1202,19.3748 C61.0932,17.2208 59.3242,15.4968 57.1702,15.5228 L56.0412,15.5378 C55.0392,15.5498 54.2382,16.3718 54.2512,17.3728 C54.2642,18.5268 55.2122,19.4498 56.3652,19.4348"/>
          <path fill="#52267D" d="M57.2188,16.0227 L57.1758,16.0227 L56.0478,16.0377 C55.6968,16.0427 55.3678,16.1827 55.1228,16.4337 C54.8788,16.6847 54.7458,17.0157 54.7508,17.3677 C54.7558,17.7917 54.9258,18.1877 55.2298,18.4837 C55.5288,18.7757 55.9218,18.9347 56.3378,18.9347 L56.3518,18.9347 L60.5768,18.8817 C60.3168,17.2597 58.9058,16.0227 57.2188,16.0227 L57.2188,16.0227 Z M56.3378,19.9347 C55.6588,19.9347 55.0188,19.6747 54.5308,19.2007 C54.0358,18.7167 53.7588,18.0707 53.7508,17.3787 C53.7428,16.7617 53.9768,16.1777 54.4068,15.7357 C54.8388,15.2937 55.4168,15.0447 56.0348,15.0377 L57.1628,15.0227 L57.2178,15.0227 C59.6198,15.0227 61.5898,16.9607 61.6198,19.3697 L61.6258,19.8697 L56.3708,19.9347 L56.3718,19.9347 L56.3378,19.9347 Z"/>
          <path fill="#52267D" d="M58.3564,18.4963 C58.0854,17.9593 58.3034,17.3043 58.8404,17.0343 C59.3784,16.7643 60.0344,16.9813 60.3034,17.5183 C60.5744,18.0573 60.3564,18.7123 59.8184,18.9813 C59.2804,19.2523 58.6264,19.0343 58.3564,18.4963"/>
          <path fill="#F3E3FF" d="M36.8691,15.0647 L31.4251,15.1327 C31.3901,12.3907 33.5861,10.1387 36.3281,10.1047 L36.8071,10.0987 C38.1791,10.0817 39.3041,11.1787 39.3211,12.5507 C39.3391,13.9217 38.2411,15.0467 36.8691,15.0647"/>
          <path fill="#FFF" d="M36.4102,14.9768 L31.5162,15.0388 C31.4902,12.8838 33.2152,11.1158 35.3692,11.0878 L36.3612,11.0758 C37.4382,11.0628 38.3222,11.9248 38.3362,13.0018 C38.3492,14.0798 37.4872,14.9638 36.4102,14.9768"/>
          <path fill="#52267D" d="M36.3848,11.5754 L36.3668,11.5754 L35.3758,11.5884 C33.6698,11.6094 32.2698,12.8894 32.0468,14.5314 L36.4048,14.4764 C36.7908,14.4714 37.1538,14.3164 37.4238,14.0394 C37.6948,13.7624 37.8408,13.3954 37.8358,13.0094 C37.8258,12.2154 37.1768,11.5754 36.3848,11.5754 L36.3848,11.5754 Z M31.0228,15.5444 L31.0168,15.0444 C30.9878,12.6184 32.9368,10.6194 35.3628,10.5884 L36.3548,10.5754 L36.3838,10.5754 C37.7218,10.5754 38.8198,11.6554 38.8358,12.9964 C38.8438,13.6504 38.5968,14.2684 38.1398,14.7374 C37.6828,15.2064 37.0708,15.4694 36.4158,15.4764 L31.0228,15.5444 Z"/>
          <path fill="#52267D" d="M32.8809 13.9075C33.3489 14.2875 34.0339 14.2165 34.4139 13.7485 34.7929 13.2815 34.7219 12.5955 34.2549 12.2165 33.7869 11.8365 33.1019 11.9075 32.7219 12.3755 32.3429 12.8425 32.4139 13.5285 32.8809 13.9075M67.7891 20.5178L67.7891 20.5178C67.4781 20.4558 67.1991 20.2878 66.9991 20.0408L66.6291 19.5868 67.4441 19.7508 67.9241 19.8478C68.1091 19.8848 68.2291 20.0658 68.1911 20.2498 68.1541 20.4358 67.9751 20.5548 67.7891 20.5178M25.7227 15.9504L25.7227 15.9504C26.0317 15.8804 26.3067 15.7044 26.4997 15.4544L26.8597 14.9904 26.0487 15.1754 25.5717 15.2834C25.3867 15.3254 25.2717 15.5094 25.3137 15.6924 25.3557 15.8774 25.5387 15.9924 25.7227 15.9504"/>
          <path fill="#EAF3FB" d="M36.7383,20.5032 C36.7383,20.5032 40.8183,22.1822 44.8913,20.5502 C44.4933,22.9562 44.1263,24.1872 44.1263,24.1872 C44.1263,24.1872 41.6643,24.3622 40.0303,24.0622 C37.6953,23.6332 36.7643,22.5852 36.7383,20.5032"/>
          <path fill="#FFF" d="M42.4229,23.511 C42.4229,23.511 38.7349,23.865 35.8579,22.419"/>
          <path fill="#52267D" d="M41.3672,24.051 C40.0132,24.051 37.6522,23.881 35.6332,22.865 L36.0822,21.973 C38.7982,23.337 42.3402,23.016 42.3752,23.013 L42.4712,24.009 C42.4212,24.014 42.0062,24.051 41.3672,24.051"/>
          <path fill="#EAF3FB" d="M55.5049,24.8987 C55.5049,24.8987 51.9179,25.9667 48.7339,25.3717 C49.3639,27.7287 49.6919,28.4647 49.6919,28.4647 C49.6919,28.4647 54.4469,27.7707 55.5049,24.8987"/>
          <path fill="#F3E3FF" d="M53.9951,58.4993 C53.9951,58.4993 53.7791,58.6583 53.4731,58.8493"/>
          <path fill="#52267D" d="M53.6045,59.0608 L53.3405,58.6368 C53.6345,58.4538 53.8435,58.3008 53.8465,58.2978 L54.1435,58.7008 C54.1435,58.7008 53.9205,58.8648 53.6045,59.0608"/>
          <path fill="#FFF" d="M55.8691,26.2551 C55.8691,26.2551 52.2551,26.9871 48.4021,26.5761"/>
          <path fill="#52267D" d="M50.8828,27.2024 C50.0768,27.2024 49.2208,27.1664 48.3498,27.0734 L48.4548,26.0794 C52.1828,26.4744 55.7348,25.7724 55.7698,25.7654 L55.9688,26.7454 C55.8518,26.7684 53.6688,27.2024 50.8828,27.2024"/>
          <path fill="#FFF" d="M50.8682,100.8743 C50.8682,100.8743 49.8962,100.1033 48.6332,101.1683 C47.4772,102.1423 46.6182,103.6343 47.1432,103.7763 C47.6682,103.9193 48.5912,104.0523 49.5562,103.8623 C50.3952,103.6973 51.1402,103.8513 51.4562,102.0853 C51.6032,101.2633 50.8682,100.8743 50.8682,100.8743"/>
          <path fill="#52267D" d="M49.9932,100.8547 C49.6712,100.8547 49.2582,100.9677 48.7942,101.3597 C47.7732,102.2197 47.1582,103.3337 47.2392,103.5647 C47.4752,103.6067 48.4302,103.8287 49.5082,103.6177 C49.6232,103.5947 49.7372,103.5777 49.8482,103.5607 C50.5222,103.4607 50.9682,103.3947 51.2102,102.0417 C51.3222,101.4147 50.7732,101.1077 50.7502,101.0947 L50.7142,101.0717 C50.6952,101.0567 50.4242,100.8547 49.9932,100.8547 M48.5652,104.2067 C47.8462,104.2067 47.2812,104.0737 47.0782,104.0177 C46.9082,103.9717 46.7892,103.8447 46.7502,103.6687 C46.6132,103.0527 47.5482,101.7557 48.4722,100.9767 C49.7642,99.8867 50.8292,100.5427 51.0002,100.6617 C51.3122,100.8337 51.8422,101.3487 51.7022,102.1287 C51.3972,103.8367 50.6472,103.9487 49.9222,104.0557 C49.8182,104.0707 49.7122,104.0857 49.6032,104.1077 C49.2392,104.1797 48.8872,104.2067 48.5652,104.2067"/>
          <path fill="#EAF3FB" d="M50.6523,101.1624 C50.6523,101.1624 50.0483,100.6824 49.2613,101.3454 C48.5433,101.9514 48.0073,102.8804 48.3353,102.9684 C48.6613,103.0574 49.2353,103.1404 49.8363,103.0214 C50.3583,102.9194 50.8223,103.0154 51.0183,101.9164 C51.1103,101.4044 50.6523,101.1624 50.6523,101.1624"/>
          <path fill="#FFF" d="M52.2314,100.8391 C52.7394,100.7651 53.4834,101.8591 53.4044,102.1951 C53.3254,102.5331 53.2814,103.6451 52.4604,103.7761 C51.8564,103.8721 49.7004,104.1241 49.2224,103.6601 C48.7834,103.2341 49.6084,101.2251 52.2314,100.8391"/>
          <path fill="#52267D" d="M52.2676,101.0862 C50.4236,101.3572 49.6066,102.4392 49.4136,103.0342 C49.3286,103.3012 49.3656,103.4502 49.3966,103.4812 C49.7046,103.7792 51.3496,103.7012 52.4216,103.5282 C52.9026,103.4522 53.0356,102.8792 53.1216,102.3492 C53.1356,102.2652 53.1486,102.1922 53.1616,102.1392 C53.1706,102.0282 52.9656,101.6052 52.6456,101.3002 C52.4656,101.1292 52.3436,101.0922 52.2676,101.0862 M50.6006,104.1842 C49.9516,104.1842 49.3216,104.1052 49.0486,103.8402 C48.8446,103.6422 48.8046,103.2922 48.9386,102.8802 C49.2436,101.9352 50.3696,100.8602 52.1956,100.5922 C52.5416,100.5352 52.8816,100.8132 53.0996,101.0502 C53.3656,101.3392 53.7306,101.8982 53.6476,102.2532 C53.6366,102.2982 53.6266,102.3582 53.6166,102.4302 C53.5386,102.9012 53.3776,103.8822 52.4996,104.0232 C52.3376,104.0482 51.4516,104.1842 50.6006,104.1842"/>
          <g transform="translate(49.123 100.228)">
            <path fill="#FFF" d="M3.62063464,0.504645258 C4.12763464,0.430645258 4.87263464,1.52464526 4.79363464,1.86064526 C4.71463464,2.19864526 4.67063464,3.30964526 3.84963464,3.44064526 C3.24563464,3.53664526 1.08963464,3.78864526 0.611634636,3.32564526 C0.172634636,2.89864526 0.997634636,0.889645258 3.62063464,0.504645258"/>
            <path fill="#52267D" d="M3.66653464,1.00364526 C2.13953464,1.23464526 1.46153464,2.03864526 1.23953464,2.37464526 C1.02053464,2.70764526 0.985534636,2.96464526 1.00353464,3.02964526 C1.20153464,3.14764526 2.56853464,3.14064526 3.77053464,2.94564526 C4.08853464,2.89664526 4.19153464,2.41764526 4.26553464,1.97464526 C4.27953464,1.88364526 4.29353464,1.80564526 4.30653464,1.74664526 C4.27153464,1.60764526 3.87153464,1.06964526 3.66653464,1.00364526 M2.01653464,4.10064526 C1.29853464,4.10064526 0.594534636,4.00564526 0.264534636,3.68564526 C-0.0114653639,3.41764526 -0.0744653639,2.97364526 0.0895346361,2.46664526 C0.395534636,1.52264526 1.48453464,0.312645258 3.54853464,0.00964525804 C3.91853464,-0.046354742 4.30253464,0.142645258 4.67353464,0.546645258 C4.95153464,0.850645258 5.39353464,1.49264526 5.27953464,1.97564526 C5.27053464,2.01664526 5.26253464,2.07064526 5.25153464,2.13564526 C5.17153464,2.62364526 4.98453464,3.76564526 3.92953464,3.93464526 C3.57353464,3.99064526 2.78653464,4.10064526 2.01653464,4.10064526"/>
            <path fill="#EAF3FB" d="M3.76713464,0.808345258 C4.06613464,0.764345258 4.50513464,1.41034526 4.45813464,1.60934526 C4.41213464,1.80834526 4.38613464,2.46334526 3.90313464,2.54034526 C3.54513464,2.59734526 2.27313464,2.74634526 1.99213464,2.47334526 C1.73213464,2.22134526 2.21913464,1.03634526 3.76713464,0.808345258"/>
            <path fill="#FFF" d="M5.43113464,1.02414526 C5.43113464,1.02414526 5.04113464,0.827145258 4.27913464,1.27614526 C3.60513464,1.67214526 2.60013464,2.30514526 2.87613464,3.07414526 C3.15313464,3.84114526 5.29213464,3.52814526 5.76713464,3.35914526 C6.24213464,3.19014526 6.53513464,2.66714526 6.44513464,2.21314526 C6.24813464,1.22514526 5.43113464,1.02414526 5.43113464,1.02414526"/>
            <path fill="#52267D" d="M5.17823464,1.48124526 C5.07723464,1.48124526 4.86523464,1.51124526 4.53223464,1.70724526 C4.20223464,1.90124526 3.19923464,2.49224526 3.34723464,2.90524526 C3.53623464,3.16224526 5.05023464,3.08324526 5.59923464,2.88824526 C5.85023464,2.79824526 5.99323464,2.50924526 5.95423464,2.31124526 C5.82723464,1.67324526 5.35723464,1.52324526 5.30423464,1.50724526 L5.24023464,1.48624526 C5.23023464,1.48424526 5.20923464,1.48124526 5.17823464,1.48124526 M4.22123464,4.06624526 C3.43823464,4.06724526 2.63923464,3.88924526 2.40623464,3.24324526 C1.97723464,2.05024526 3.41223464,1.20624526 4.02523464,0.845245258 C4.84723464,0.362245258 5.38923464,0.474245258 5.58923464,0.548245258 C6.01423464,0.669245258 6.73823464,1.12124526 6.93523464,2.11624526 C7.07623464,2.82824526 6.63723464,3.58024526 5.93523464,3.83024526 C5.76123464,3.89224526 4.99823464,4.06624526 4.22123464,4.06624526"/>
            <path fill="#EAF3FB" d="M5.58053464,1.29564526 C5.58053464,1.29564526 5.34953464,1.17964526 4.89753464,1.44464526 C4.49953464,1.67964526 3.90353464,2.05464526 4.06753464,2.50964526 C4.23053464,2.96464526 5.49853464,2.77764526 5.77953464,2.67864526 C6.05953464,2.57764526 6.23353464,2.26864526 6.18053464,1.99964526 C6.06453464,1.41464526 5.58053464,1.29564526 5.58053464,1.29564526"/>
          </g>
          <path fill="#EAF3FB" d="M52.3779,101.1438 C52.6769,101.0998 53.1159,101.7448 53.0689,101.9438 C53.0239,102.1428 52.9969,102.7978 52.5139,102.8758 C52.1559,102.9328 50.8839,103.0808 50.6029,102.8078 C50.3429,102.5558 50.8299,101.3708 52.3779,101.1438"/>
          <path fill="#FFF" d="M54.3828,101.0266 C54.3828,101.0266 53.9418,100.8036 53.0788,101.3116 C52.3178,101.7596 51.1808,102.4756 51.4928,103.3436 C51.8058,104.2126 54.2258,103.8576 54.7628,103.6666 C55.2988,103.4746 55.6298,102.8836 55.5288,102.3716 C55.3068,101.2546 54.3828,101.0266 54.3828,101.0266"/>
          <path fill="#52267D" d="M54.0967,101.2288 C53.9237,101.2288 53.6257,101.2798 53.2057,101.5278 C52.3487,102.0318 51.5027,102.6318 51.7287,103.2588 C51.9427,103.8548 54.0507,103.6528 54.6787,103.4308 C55.0857,103.2858 55.3637,102.8228 55.2837,102.4198 C55.0967,101.4818 54.3527,101.2778 54.3217,101.2688 L54.2767,101.2528 C54.2687,101.2498 54.2087,101.2288 54.0967,101.2288 M53.0117,104.1578 C52.2297,104.1578 51.4607,103.9938 51.2577,103.4288 C50.8617,102.3268 52.2737,101.4958 52.9517,101.0958 C53.8137,100.5898 54.3327,100.7378 54.4657,100.7908 C54.6287,100.8368 55.5407,101.1528 55.7737,102.3228 C55.9007,102.9648 55.4857,103.6738 54.8467,103.9018 C54.5897,103.9938 53.7937,104.1578 53.0117,104.1578"/>
          <path fill="#EAF3FB" d="M54.5518,101.3342 C54.5518,101.3342 54.2898,101.2012 53.7798,101.5022 C53.3278,101.7682 52.6558,102.1912 52.8408,102.7062 C53.0258,103.2202 54.4578,103.0102 54.7768,102.8962 C55.0938,102.7832 55.2898,102.4342 55.2298,102.1302 C55.0988,101.4682 54.5518,101.3342 54.5518,101.3342"/>
          <path fill="#9452BA" d="M43.8965,73.343 C43.8965,73.343 44.4605,78.954 43.1435,87.802 C41.9175,96.037 39.5925,98.645 39.7925,100.774 C39.9475,102.422 40.6635,103.925 42.3185,103.905 L47.2585,103.842 C49.5655,103.814 51.5815,102.316 52.2945,100.122 C52.8705,98.356 53.4615,95.954 53.7935,92.924 C54.1225,88.804 53.9895,84.676 53.8905,82.253"/>
          <path fill="#52267D" d="M42.2842,104.9045 C40.3362,104.9045 39.0342,103.3995 38.7972,100.8665 C38.6912,99.7375 39.1072,98.6195 39.6842,97.0715 C40.4342,95.0575 41.4632,92.2995 42.1542,87.6545 C43.4342,79.0545 42.9072,73.4975 42.9012,73.4425 L44.8912,73.2435 C44.9152,73.4765 45.4532,79.0805 44.1332,87.9495 C43.4102,92.8005 42.2962,95.7915 41.5582,97.7695 C41.0562,99.1175 40.7252,100.0075 40.7882,100.6795 C40.8842,101.6965 41.2222,102.9045 42.2882,102.9045 L42.3052,102.9045 L47.2462,102.8415 C49.1152,102.8195 50.7622,101.6015 51.3442,99.8125 C52.0332,97.6955 52.5232,95.3415 52.8002,92.8145 C53.1432,88.4915 52.9612,83.9885 52.8912,82.2945 L54.8892,82.2125 C55.0002,84.9255 55.1102,88.9945 54.7912,93.0035 C54.4962,95.6955 53.9772,98.1845 53.2462,100.4315 C52.3982,103.0365 49.9972,104.8085 47.2712,104.8425 L42.3312,104.9045 L42.2842,104.9045 Z"/>
          <path fill="#9452BA" d="M69.2725,76.7415 C67.6545,78.1705 66.8345,80.4875 66.8745,82.6065 C66.9265,85.4355 68.6135,89.0175 67.6315,93.7325 C66.7575,97.9325 64.9215,98.6955 65.5245,102.4465 C65.6335,103.1235 66.2495,103.6035 66.9345,103.5955 L72.4395,103.5255 C74.9735,103.4945 77.1195,101.6305 77.5015,99.1255 C78.5245,92.4365 77.6005,86.1465 76.6505,81.3235"/>
          <path fill="#52267D" d="M66.916,104.595 C65.741,104.595 64.722,103.745 64.537,102.606 C64.127,100.054 64.731,98.691 65.432,97.113 C65.852,96.167 66.327,95.096 66.652,93.529 C67.26,90.613 66.772,88.139 66.343,85.956 C66.112,84.783 65.894,83.674 65.874,82.625 C65.826,80.067 66.874,77.525 68.61,75.991 L69.935,77.491 C68.626,78.647 67.836,80.599 67.874,82.588 C67.89,83.46 68.083,84.438 68.306,85.57 C68.749,87.822 69.301,90.623 68.611,93.937 C68.241,95.712 67.697,96.938 67.26,97.924 C66.619,99.368 66.196,100.323 66.512,102.288 C66.54,102.462 66.763,102.614 66.922,102.595 L72.427,102.526 C74.484,102.5 76.203,101.007 76.514,98.974 C77.519,92.401 76.59,86.192 75.669,81.517 L77.632,81.13 C78.584,85.964 79.542,92.396 78.49,99.277 C78.031,102.281 75.492,104.489 72.452,104.526 L66.947,104.595 L66.916,104.595 Z"/>
          <polygon fill="#52267D" points="70.669 83.992 68.779 83.09 70.627 81.575 71.421 81.829 71.269 82.305 70.734 82.133 69.705 82.978 70.63 83.419 71.163 83.069 70.812 82.995 70.581 83.165 70.284 82.763 70.694 82.46 72.442 82.829"/>
          <path fill="#FFF" d="M40.875,100.9993 C40.875,100.9993 39.903,100.2283 38.64,101.2943 C37.484,102.2673 36.625,103.7593 37.15,103.9013 C37.675,104.0443 38.598,104.1783 39.563,103.9873 C40.402,103.8233 41.147,103.9763 41.463,102.2113 C41.61,101.3893 40.875,100.9993 40.875,100.9993"/>
          <path fill="#52267D" d="M37.5371,103.4788 C37.9391,103.5608 38.6681,103.6528 39.4661,103.4978 C39.5861,103.4738 39.7031,103.4568 39.8171,103.4388 C40.4451,103.3468 40.7611,103.2998 40.9711,102.1238 C41.0531,101.6658 40.6451,101.4438 40.6411,101.4408 L40.5681,101.3948 C40.4901,101.3368 39.8571,100.9218 38.9621,101.6758 C38.2121,102.3078 37.6881,103.0908 37.5371,103.4788 M38.5641,104.5828 C37.8531,104.5828 37.2861,104.4568 37.0191,104.3838 C36.7611,104.3138 36.5711,104.1138 36.5131,103.8488 C36.3331,103.0338 37.4831,101.6148 38.3171,100.9118 C39.5301,99.8888 40.6771,100.2328 41.1481,100.5798 C41.5421,100.8058 42.1171,101.3978 41.9551,102.2988 C41.6431,104.0418 40.8691,104.2948 39.9641,104.4278 C39.8641,104.4438 39.7621,104.4578 39.6581,104.4778 C39.2721,104.5548 38.9021,104.5828 38.5641,104.5828"/>
          <path fill="#EAF3FB" d="M40.6592,101.2874 C40.6592,101.2874 40.0552,100.8084 39.2682,101.4714 C38.5502,102.0764 38.0142,103.0054 38.3422,103.0944 C38.6682,103.1834 39.2422,103.2654 39.8432,103.1474 C40.3652,103.0454 40.8292,103.1404 41.0252,102.0414 C41.1172,101.5304 40.6592,101.2874 40.6592,101.2874"/>
          <polygon fill="#52267D" points="48.699 89.184 46.355 89.043 46.009 86.814 48.171 86.11 48.325 86.584 46.567 87.158 46.787 88.569 48.478 88.67 49.124 87.905 48.271 87.446 47.758 87.602 48.131 88.006 47.763 88.346 46.849 87.356 48.324 86.907 49.903 87.756"/>
          <g fill="#F3E3FF" transform="translate(4 10.719)">
            <path d="M1.8633,16.7852 C1.5033,16.7852 1.2073,16.4942 1.2023,16.1332 L1.4523,16.1292 C1.4533,16.2392 1.4983,16.3422 1.5763,16.4182 C1.6533,16.4942 1.7553,16.5352 1.8633,16.5352 L1.8683,16.5352 C2.0943,16.5322 2.2763,16.3462 2.2733,16.1192 L2.5233,16.1152 C2.5253,16.2922 2.4593,16.4592 2.3363,16.5852 C2.2133,16.7122 2.0483,16.7832 1.8723,16.7852 L1.8633,16.7852 Z"/>
            <path d="M0.791,16.7988 C0.617,16.7988 0.454,16.7328 0.33,16.6118 C0.204,16.4868 0.133,16.3218 0.131,16.1468 L0.381,16.1428 C0.382,16.2528 0.427,16.3558 0.505,16.4328 C0.582,16.5078 0.684,16.5488 0.791,16.5488 L0.794,16.5488 C0.906,16.5478 1.009,16.5028 1.085,16.4248 C1.162,16.3458 1.203,16.2418 1.202,16.1328 L1.452,16.1288 C1.454,16.3058 1.388,16.4728 1.265,16.5988 C1.141,16.7258 0.976,16.7968 0.8,16.7988 L0.791,16.7988 Z"/>
            <path d="M1.333 17.3271C1.16 17.3271.997 17.2611.873 17.1401.746 17.0161.675 16.8511.673 16.6761L.923 16.6721C.924 16.7821.969 16.8851 1.047 16.9611 1.124 17.0361 1.226 17.0771 1.334 17.0771L1.339 17.0771C1.565 17.0751 1.747 16.8891 1.745 16.6611L1.995 16.6591C1.999 17.0231 1.706 17.3231 1.342 17.3271L1.333 17.3271zM22.2559 15.6094C22.0949 15.6094 21.9329 15.5674 21.7849 15.4784L21.9139 15.2634C22.0669 15.3554 22.2419 15.3824 22.4169 15.3404 22.5889 15.2974 22.7349 15.1904 22.8259 15.0394 22.9179 14.8864 22.9449 14.7094 22.9029 14.5364 22.8599 14.3644 22.7529 14.2184 22.6019 14.1274L22.7309 13.9124C22.9399 14.0394 23.0869 14.2394 23.1459 14.4764 23.2039 14.7134 23.1669 14.9594 23.0409 15.1684 22.8689 15.4524 22.5669 15.6094 22.2559 15.6094"/>
            <path d="M22.5234 16.6934C22.3624 16.6934 22.2004 16.6514 22.0524 16.5624L22.1814 16.3474C22.3344 16.4394 22.5084 16.4674 22.6844 16.4244 22.8564 16.3814 23.0024 16.2744 23.0934 16.1234 23.1854 15.9704 23.2124 15.7934 23.1704 15.6204 23.1274 15.4484 23.0204 15.3024 22.8694 15.2114L22.9984 14.9964C23.2074 15.1234 23.3544 15.3234 23.4134 15.5604 23.4714 15.7974 23.4344 16.0434 23.3084 16.2524 23.1364 16.5364 22.8344 16.6934 22.5234 16.6934M48.2197 33.8848C47.9977 33.8848 47.7887 33.7998 47.6307 33.6458 47.4687 33.4888 47.3787 33.2778 47.3757 33.0528L47.6257 33.0488C47.6277 33.2068 47.6917 33.3558 47.8047 33.4658 47.9167 33.5748 48.0637 33.6348 48.2197 33.6348L48.2247 33.6348C48.5547 33.6308 48.8177 33.3618 48.8137 33.0338L49.0637 33.0308C49.0697 33.4958 48.6957 33.8788 48.2307 33.8848L48.2197 33.8848z"/>
            <path d="M46.7832,33.9033 C46.3232,33.9033 45.9452,33.5323 45.9382,33.0703 L46.1882,33.0663 C46.1932,33.3913 46.4592,33.6533 46.7832,33.6533 L46.7902,33.6533 C46.9492,33.6513 47.0962,33.5883 47.2072,33.4743 C47.3182,33.3603 47.3782,33.2113 47.3762,33.0523 L47.6262,33.0493 C47.6292,33.2743 47.5442,33.4873 47.3872,33.6483 C47.2292,33.8103 47.0182,33.9003 46.7942,33.9033 L46.7832,33.9033 Z"/>
            <path d="M47.5107 34.6123C47.0497 34.6123 46.6727 34.2413 46.6667 33.7803L46.9167 33.7763C46.9207 34.1013 47.1867 34.3623 47.5107 34.3623L47.5157 34.3623C47.8447 34.3583 48.1077 34.0893 48.1037 33.7613L48.3537 33.7583C48.3597 34.2233 47.9857 34.6063 47.5217 34.6123L47.5107 34.6123zM27.3291 79.6826C27.1071 79.6826 26.8981 79.5976 26.7401 79.4436 26.5781 79.2856 26.4881 79.0756 26.4851 78.8496L26.7351 78.8456C26.7371 79.0046 26.8011 79.1536 26.9141 79.2636 27.0261 79.3726 27.1731 79.4326 27.3291 79.4326L27.3361 79.4326C27.4951 79.4306 27.6431 79.3676 27.7541 79.2536 27.8651 79.1396 27.9251 78.9906 27.9231 78.8316L28.1731 78.8286C28.1761 79.0536 28.0911 79.2666 27.9331 79.4276 27.7751 79.5896 27.5651 79.6796 27.3401 79.6826L27.3291 79.6826z"/>
            <path d="M25.8926,79.7002 C25.4316,79.7002 25.0536,79.3292 25.0476,78.8682 L25.2976,78.8642 C25.3016,79.1892 25.5676,79.4502 25.8926,79.4502 L25.8996,79.4502 C26.2266,79.4462 26.4896,79.1772 26.4856,78.8492 L26.7356,78.8462 C26.7416,79.3112 26.3676,79.6942 25.9036,79.7002 L25.8926,79.7002 Z"/>
            <path d="M26.6201 80.4102C26.3981 80.4102 26.1891 80.3252 26.0301 80.1712 25.8691 80.0142 25.7791 79.8032 25.7761 79.5772L26.0261 79.5732C26.0281 79.7322 26.0921 79.8812 26.2051 79.9912 26.3171 80.1012 26.4721 80.1762 26.6271 80.1602 26.7861 80.1582 26.9331 80.0952 27.0441 79.9812 27.1551 79.8672 27.2151 79.7182 27.2131 79.5592L27.4631 79.5562C27.4661 79.7812 27.3811 79.9942 27.2241 80.1552 27.0661 80.3172 26.8551 80.4072 26.6311 80.4102L26.6201 80.4102zM46.8906 11.0664C46.3916 11.0664 45.9816 10.6634 45.9746 10.1634L46.2246 10.1594C46.2296 10.5234 46.5276 10.8164 46.8906 10.8164L46.8956 10.8164C47.0756 10.8144 47.2416 10.7434 47.3656 10.6164 47.4896 10.4884 47.5556 10.3214 47.5536 10.1434L47.8036 10.1394C47.8066 10.3844 47.7146 10.6154 47.5446 10.7904 47.3736 10.9644 47.1456 11.0634 46.9016 11.0664L46.8906 11.0664z"/>
            <path d="M46.1094 11.8652C45.6114 11.8652 45.2024 11.4632 45.1954 10.9632L45.4454 10.9592C45.4474 11.1362 45.5184 11.3032 45.6454 11.4272 45.7704 11.5492 45.9344 11.6152 46.1094 11.6152L46.1154 11.6152C46.2964 11.6132 46.4624 11.5422 46.5864 11.4152 46.7104 11.2882 46.7764 11.1202 46.7744 10.9432L47.0244 10.9392C47.0274 11.1832 46.9354 11.4152 46.7644 11.5902 46.5934 11.7642 46.3654 11.8622 46.1214 11.8652L46.1094 11.8652zM37.1426 25.3066C36.8576 25.3066 36.5886 25.1976 36.3846 24.9976 36.1766 24.7956 36.0606 24.5256 36.0576 24.2356L36.3076 24.2336C36.3126 24.6896 36.6866 25.0566 37.1426 25.0566L37.1526 25.0566C37.6116 25.0506 37.9816 24.6716 37.9766 24.2106L38.2266 24.2086C38.2336 24.8066 37.7516 25.2986 37.1556 25.3066L37.1426 25.3066z"/>
            <path d="M36.1934 26.2773C35.9094 26.2773 35.6404 26.1683 35.4364 25.9683 35.2294 25.7663 35.1134 25.4963 35.1104 25.2063L35.3604 25.2043C35.3634 25.4263 35.4524 25.6343 35.6114 25.7903 35.7684 25.9433 35.9744 26.0273 36.1934 26.0273L36.2044 26.0273C36.4274 26.0243 36.6354 25.9353 36.7914 25.7763 36.9474 25.6173 37.0314 25.4063 37.0284 25.1833L37.2784 25.1793C37.2824 25.4693 37.1724 25.7443 36.9694 25.9513 36.7674 26.1583 36.4974 26.2743 36.2074 26.2773L36.1934 26.2773zM22.5859 1.3125C22.1689 1.3125 21.8259.9755 21.8199.5555L22.0699.5515C22.0719.6905 22.1279.8195 22.2269.9165 22.3249 1.0115 22.4519 1.0655 22.5939 1.0625 22.8789 1.0595 23.1069.8255 23.1049.5395L23.3549.5375C23.3569.7415 23.2789.9345 23.1369 1.0815 22.9929 1.2285 22.8019 1.3105 22.5969 1.3125L22.5859 1.3125z"/>
            <path d="M21.9551 1.9629C21.5351 1.9629 21.1921 1.6249 21.1871 1.2049L21.4371 1.2029C21.4391 1.3409 21.4941 1.4699 21.5931 1.5659 21.6901 1.6609 21.8181 1.7129 21.9551 1.7129L21.9611 1.7129C22.0991 1.7109 22.2271 1.6549 22.3241 1.5569 22.4211 1.4579 22.4731 1.3269 22.4711 1.1899L22.7211 1.1859C22.7261 1.6089 22.3871 1.9569 21.9641 1.9629L21.9551 1.9629zM83.7168 64.874C83.6968 64.874 83.6768 64.873 83.6558 64.872 83.4258 64.856 83.2158 64.752 83.0638 64.577L83.2528 64.413C83.3608 64.537 83.5098 64.611 83.6738 64.623 83.8208 64.634 83.9938 64.581 84.1178 64.474 84.2418 64.365 84.3168 64.217 84.3278 64.053 84.3398 63.89 84.2868 63.731 84.1788 63.607L84.3678 63.443C84.5198 63.617 84.5938 63.84 84.5768 64.07 84.5618 64.301 84.4558 64.511 84.2818 64.662 84.1238 64.8 83.9248 64.874 83.7168 64.874"/>
            <path d="M83.6436 65.916C83.4016 65.916 83.1616 65.815 82.9906 65.619L83.1796 65.455C83.4016 65.711 83.7906 65.738 84.0456 65.516 84.3006 65.294 84.3286 64.905 84.1056 64.649L84.2946 64.485C84.6066 64.846 84.5696 65.393 84.2096 65.705 84.0466 65.847 83.8446 65.916 83.6436 65.916M54.4482 55.2861C54.3352 55.2861 54.2212 55.2661 54.1122 55.2271 53.8622 55.1381 53.6632 54.9561 53.5502 54.7171L53.7762 54.6091C53.9512 54.9791 54.3932 55.1401 54.7632 54.9651 55.1342 54.7911 55.2932 54.3481 55.1182 53.9771L55.3442 53.8701C55.5772 54.3651 55.3652 54.9581 54.8712 55.1911 54.7362 55.2551 54.5932 55.2861 54.4482 55.2861"/>
            <path d="M52.8809,56.0244 C52.5089,56.0244 52.1519,55.8134 51.9829,55.4564 L52.2089,55.3484 C52.2929,55.5284 52.4429,55.6634 52.6289,55.7304 C52.8169,55.7974 53.0189,55.7894 53.1949,55.7034 C53.5659,55.5294 53.7249,55.0864 53.5499,54.7164 L53.7769,54.6094 C54.0089,55.1044 53.7969,55.6964 53.3029,55.9294 C53.1659,55.9944 53.0229,56.0244 52.8809,56.0244"/>
            <path d="M54.0342,56.4395 C53.9212,56.4395 53.8072,56.4195 53.6972,56.3805 C53.4482,56.2915 53.2492,56.1095 53.1362,55.8705 L53.3622,55.7625 C53.4462,55.9425 53.5962,56.0785 53.7822,56.1455 C53.9702,56.2125 54.1722,56.2035 54.3482,56.1185 C54.5282,56.0345 54.6642,55.8845 54.7312,55.6985 C54.7992,55.5115 54.7892,55.3105 54.7042,55.1315 L54.9302,55.0245 C55.0432,55.2645 55.0562,55.5335 54.9672,55.7835 C54.8772,56.0325 54.6952,56.2315 54.4562,56.3445 C54.3212,56.4085 54.1782,56.4395 54.0342,56.4395"/>
            <path d="M52.4658 57.1787C52.3528 57.1787 52.2388 57.1587 52.1298 57.1197 51.8798 57.0307 51.6808 56.8487 51.5678 56.6097L51.7938 56.5017C51.9678 56.8717 52.4128 57.0327 52.7808 56.8577 53.1518 56.6837 53.3108 56.2407 53.1358 55.8697L53.3618 55.7627C53.5948 56.2577 53.3828 56.8507 52.8888 57.0837 52.7538 57.1477 52.6108 57.1787 52.4658 57.1787M55.1885 56.8535C54.8155 56.8535 54.4585 56.6425 54.2895 56.2855L54.5155 56.1775C54.6895 56.5495 55.1345 56.7065 55.5025 56.5325 55.6825 56.4485 55.8175 56.2985 55.8845 56.1125 55.9525 55.9255 55.9425 55.7245 55.8575 55.5455L56.0845 55.4385C56.1965 55.6785 56.2095 55.9475 56.1205 56.1975 56.0305 56.4465 55.8495 56.6455 55.6105 56.7585 55.4735 56.8225 55.3305 56.8535 55.1885 56.8535M38.8428 7.8291C38.2968 7.8291 37.8498 7.3891 37.8428 6.8431L38.0928 6.8391C38.0978 7.2491 38.4338 7.5791 38.8428 7.5791L38.8518 7.5791C39.2648 7.5741 39.5968 7.2341 39.5918 6.8211L39.8418 6.8171C39.8488 7.3691 39.4058 7.8221 38.8558 7.8291L38.8428 7.8291zM38.9551 40.8828C38.4091 40.8828 37.9621 40.4428 37.9551 39.8968L38.2051 39.8928C38.2101 40.3028 38.5461 40.6328 38.9551 40.6328L38.9641 40.6328C39.3771 40.6278 39.7091 40.2868 39.7041 39.8738L39.9541 39.8698C39.9611 40.4218 39.5181 40.8758 38.9681 40.8828L38.9551 40.8828zM48.4268 22.3311C47.9958 22.3311 47.6438 21.9841 47.6378 21.5541L47.8878 21.5501C47.8918 21.8441 48.1328 22.0811 48.4268 22.0811L48.4328 22.0811C48.5748 22.0791 48.7098 22.0211 48.8108 21.9191 48.9108 21.8151 48.9648 21.6801 48.9628 21.5371L49.2128 21.5331C49.2158 21.7431 49.1368 21.9421 48.9888 22.0931 48.8428 22.2441 48.6458 22.3281 48.4358 22.3311L48.4268 22.3311zM63.8496 6.9131C63.6856 6.9131 63.5316 6.8511 63.4136 6.7361 63.2946 6.6201 63.2286 6.4641 63.2266 6.2981L63.4766 6.2961C63.4776 6.3941 63.5176 6.4871 63.5886 6.5571 63.6596 6.6261 63.7506 6.6631 63.8486 6.6631L63.8536 6.6631C64.0576 6.6601 64.2226 6.4911 64.2206 6.2861L64.4706 6.2841C64.4746 6.6261 64.1986 6.9081 63.8566 6.9131L63.8496 6.9131zM69.2627 80.1807C69.0637 80.1807 68.8677 80.1197 68.7007 80.0047 68.4797 79.8537 68.3317 79.6257 68.2837 79.3637L68.5297 79.3187C68.5657 79.5147 68.6767 79.6857 68.8417 79.7987 69.0067 79.9107 69.2047 79.9527 69.4027 79.9167 69.5997 79.8797 69.7707 79.7697 69.8837 79.6037 69.9967 79.4387 70.0387 79.2397 70.0017 79.0427L70.2477 78.9957C70.2967 79.2587 70.2417 79.5247 70.0897 79.7447 69.9397 79.9657 69.7117 80.1147 69.4497 80.1627 69.3867 80.1747 69.3247 80.1807 69.2627 80.1807M45.2861 87.1582C45.0021 87.1582 44.7331 87.0502 44.5301 86.8502 44.3221 86.6482 44.2061 86.3772 44.2021 86.0882L44.4521 86.0842C44.4551 86.3072 44.5451 86.5152 44.7041 86.6722 44.8611 86.8242 45.0671 86.9082 45.2861 86.9082L45.2971 86.9082C45.5201 86.9052 45.7281 86.8152 45.8851 86.6562 46.0401 86.4972 46.1241 86.2862 46.1211 86.0632L46.3711 86.0592C46.3751 86.3492 46.2651 86.6242 46.0631 86.8312 45.8611 87.0382 45.5901 87.1542 45.3011 87.1582L45.2861 87.1582z"/>
            <path d="M44.3389,88.1299 C43.7469,88.1299 43.2629,87.6519 43.2549,87.0599 L43.5049,87.0559 C43.5109,87.5129 43.8839,87.8799 44.3389,87.8799 L44.3469,87.8799 C44.5729,87.8769 44.7809,87.7869 44.9379,87.6279 C45.0929,87.4689 45.1769,87.2579 45.1739,87.0349 L45.4239,87.0309 C45.4279,87.3209 45.3179,87.5959 45.1159,87.8029 C44.9139,88.0099 44.6429,88.1259 44.3539,88.1299 L44.3389,88.1299 Z"/>
          </g>
          <path fill="#FFF" d="M42.2383,100.9651 C42.7453,100.8911 43.4903,101.9851 43.4113,102.3211 C43.3323,102.6591 43.2883,103.7701 42.4673,103.9011 C41.8633,103.9971 39.7073,104.2491 39.2293,103.7861 C38.7903,103.3591 39.6153,101.3501 42.2383,100.9651"/>
          <path fill="#52267D" d="M42.2842,101.4641 C40.7572,101.6951 40.0792,102.4991 39.8572,102.8351 C39.6382,103.1681 39.6032,103.4251 39.6212,103.4901 C39.8192,103.6081 41.1862,103.6011 42.3882,103.4061 C42.7062,103.3571 42.8092,102.8781 42.8832,102.4351 C42.8972,102.3441 42.9112,102.2661 42.9242,102.2071 C42.8892,102.0681 42.4892,101.5301 42.2842,101.4641 M40.6342,104.5611 C39.9162,104.5611 39.2122,104.4661 38.8822,104.1461 C38.6062,103.8781 38.5432,103.4341 38.7072,102.9271 C39.0132,101.9831 40.1022,100.7731 42.1662,100.4701 C42.5362,100.4141 42.9202,100.6031 43.2912,101.0071 C43.5692,101.3111 44.0112,101.9531 43.8972,102.4361 C43.8882,102.4771 43.8802,102.5311 43.8692,102.5961 C43.7892,103.0841 43.6022,104.2261 42.5472,104.3951 C42.1912,104.4511 41.4042,104.5611 40.6342,104.5611"/>
          <path fill="#EAF3FB" d="M42.3848,101.2688 C42.6838,101.2248 43.1228,101.8708 43.0758,102.0698 C43.0298,102.2688 43.0038,102.9238 42.5208,103.0008 C42.1628,103.0578 40.8908,103.2068 40.6098,102.9338 C40.3498,102.6818 40.8368,101.4968 42.3848,101.2688"/>
          <path fill="#FFF" d="M44.0488 101.4846C44.0488 101.4846 43.6588 101.2876 42.8968 101.7366 42.2228 102.1326 41.2178 102.7656 41.4938 103.5346 41.7708 104.3016 43.9098 103.9886 44.3848 103.8196 44.8598 103.6506 45.1528 103.1276 45.0628 102.6736 44.8658 101.6856 44.0488 101.4846 44.0488 101.4846M56.1036582 101.542462C56.1036582 101.542462 55.7136582 101.345462 54.9516582 101.794462 54.2776582 102.190462 53.2726582 102.823462 53.5486582 103.592462 53.8256582 104.359462 55.9646582 104.046462 56.4396582 103.877462 56.9146582 103.708462 57.2076582 103.185462 57.1176582 102.731462 56.9206582 101.743462 56.1036582 101.542462 56.1036582 101.542462"/>
          <path fill="#52267D" d="M43.7959 101.9417C43.6949 101.9417 43.4829 101.9717 43.1499 102.1677 42.8199 102.3617 41.8169 102.9527 41.9649 103.3657 42.1539 103.6227 43.6679 103.5437 44.2169 103.3487 44.4679 103.2587 44.6109 102.9697 44.5719 102.7717 44.4449 102.1337 43.9749 101.9837 43.9219 101.9677L43.8579 101.9467C43.8479 101.9447 43.8269 101.9417 43.7959 101.9417M42.8389 104.5267C42.0559 104.5277 41.2569 104.3497 41.0239 103.7037 40.5949 102.5107 42.0299 101.6667 42.6429 101.3057 43.4649 100.8227 44.0069 100.9347 44.2069 101.0087 44.6319 101.1297 45.3559 101.5817 45.5529 102.5767 45.6939 103.2887 45.2549 104.0407 44.5529 104.2907 44.3789 104.3527 43.6159 104.5267 42.8389 104.5267M55.8507582 101.999562C55.7497582 101.999562 55.5377582 102.029562 55.2047582 102.225562 54.8747582 102.419562 53.8717582 103.010562 54.0197582 103.423562 54.2087582 103.680562 55.7227582 103.601562 56.2717582 103.406562 56.5227582 103.316562 56.6657582 103.027562 56.6267582 102.829562 56.4997582 102.191562 56.0297582 102.041562 55.9767582 102.025562L55.9127582 102.004562C55.9027582 102.002562 55.8817582 101.999562 55.8507582 101.999562M54.8937582 104.584562C54.1107582 104.585562 53.3117582 104.407562 53.0787582 103.761562 52.6497582 102.568562 54.0847582 101.724562 54.6977582 101.363562 55.5197582 100.880562 56.0617582 100.992562 56.2617582 101.066562 56.6867582 101.187562 57.4107582 101.639562 57.6077582 102.634562 57.7487582 103.346562 57.3097582 104.098562 56.6077582 104.348562 56.4337582 104.410562 55.6707582 104.584562 54.8937582 104.584562"/>
          <path fill="#EAF3FB" d="M44.1982 101.7561C44.1982 101.7561 43.9672 101.6401 43.5152 101.9051 43.1172 102.1401 42.5212 102.5151 42.6852 102.9701 42.8482 103.4251 44.1162 103.2381 44.3972 103.1391 44.6772 103.0381 44.8512 102.7291 44.7982 102.4601 44.6822 101.8751 44.1982 101.7561 44.1982 101.7561M56.2530582 101.813962C56.2530582 101.813962 56.0220582 101.697962 55.5700582 101.962962 55.1720582 102.197962 54.5760582 102.572962 54.7400582 103.027962 54.9030582 103.482962 56.1710582 103.295962 56.4520582 103.196962 56.7320582 103.095962 56.9060582 102.786962 56.8530582 102.517962 56.7370582 101.932962 56.2530582 101.813962 56.2530582 101.813962"/>
          <path fill="#FFF" d="M67.875,100.9993 C67.875,100.9993 66.903,100.2283 65.64,101.2943 C64.484,102.2673 63.625,103.7593 64.15,103.9013 C64.675,104.0443 65.598,104.1783 66.563,103.9873 C67.402,103.8233 68.147,103.9763 68.463,102.2113 C68.61,101.3893 67.875,100.9993 67.875,100.9993"/>
          <path fill="#52267D" d="M64.5371,103.4788 C64.9391,103.5608 65.6681,103.6528 66.4661,103.4978 C66.5861,103.4738 66.7031,103.4568 66.8171,103.4388 C67.4451,103.3468 67.7611,103.2998 67.9711,102.1238 C68.0531,101.6658 67.6451,101.4438 67.6411,101.4408 L67.5681,101.3948 C67.4901,101.3368 66.8571,100.9218 65.9621,101.6758 C65.2121,102.3078 64.6881,103.0908 64.5371,103.4788 M65.5641,104.5828 C64.8531,104.5828 64.2861,104.4568 64.0191,104.3838 C63.7611,104.3138 63.5711,104.1138 63.5131,103.8488 C63.3331,103.0338 64.4831,101.6148 65.3171,100.9118 C66.5301,99.8888 67.6771,100.2328 68.1481,100.5798 C68.5421,100.8058 69.1171,101.3978 68.9551,102.2988 C68.6431,104.0418 67.8691,104.2948 66.9641,104.4278 C66.8641,104.4438 66.7621,104.4578 66.6581,104.4778 C66.2721,104.5548 65.9021,104.5828 65.5641,104.5828"/>
          <path fill="#EAF3FB" d="M67.6592,101.2874 C67.6592,101.2874 67.0552,100.8084 66.2682,101.4714 C65.5502,102.0764 65.0142,103.0054 65.3422,103.0944 C65.6682,103.1834 66.2422,103.2654 66.8432,103.1474 C67.3652,103.0454 67.8292,103.1404 68.0252,102.0414 C68.1172,101.5304 67.6592,101.2874 67.6592,101.2874"/>
          <path fill="#FFF" d="M69.2383,100.9651 C69.7453,100.8911 70.4903,101.9851 70.4113,102.3211 C70.3323,102.6591 70.2883,103.7701 69.4673,103.9011 C68.8633,103.9971 66.7073,104.2491 66.2293,103.7861 C65.7903,103.3591 66.6153,101.3501 69.2383,100.9651"/>
          <path fill="#52267D" d="M69.2842,101.4641 C67.7572,101.6951 67.0792,102.4991 66.8572,102.8351 C66.6382,103.1681 66.6032,103.4251 66.6212,103.4901 C66.8192,103.6081 68.1862,103.6011 69.3882,103.4061 C69.7062,103.3571 69.8092,102.8781 69.8832,102.4351 C69.8972,102.3441 69.9112,102.2661 69.9242,102.2071 C69.8892,102.0681 69.4892,101.5301 69.2842,101.4641 M67.6342,104.5611 C66.9162,104.5611 66.2122,104.4661 65.8822,104.1461 C65.6062,103.8781 65.5432,103.4341 65.7072,102.9271 C66.0132,101.9831 67.1022,100.7731 69.1662,100.4701 C69.5362,100.4141 69.9202,100.6031 70.2912,101.0071 C70.5692,101.3111 71.0112,101.9531 70.8972,102.4361 C70.8882,102.4771 70.8802,102.5311 70.8692,102.5961 C70.7892,103.0841 70.6022,104.2261 69.5472,104.3951 C69.1912,104.4511 68.4042,104.5611 67.6342,104.5611"/>
          <path fill="#EAF3FB" d="M69.3848,101.2688 C69.6838,101.2248 70.1228,101.8708 70.0758,102.0698 C70.0298,102.2688 70.0038,102.9238 69.5208,103.0008 C69.1628,103.0578 67.8908,103.2068 67.6098,102.9338 C67.3498,102.6818 67.8368,101.4968 69.3848,101.2688"/>
          <path fill="#FFF" d="M71.0488,101.4846 C71.0488,101.4846 70.6588,101.2876 69.8968,101.7366 C69.2228,102.1326 68.2178,102.7656 68.4938,103.5346 C68.7708,104.3016 70.9098,103.9886 71.3848,103.8196 C71.8598,103.6506 72.1528,103.1276 72.0628,102.6736 C71.8658,101.6856 71.0488,101.4846 71.0488,101.4846"/>
          <path fill="#52267D" d="M70.7959,101.9417 C70.6949,101.9417 70.4829,101.9717 70.1499,102.1677 C69.8199,102.3617 68.8169,102.9527 68.9649,103.3657 C69.1539,103.6227 70.6679,103.5437 71.2169,103.3487 C71.4679,103.2587 71.6109,102.9697 71.5719,102.7717 C71.4449,102.1337 70.9749,101.9837 70.9219,101.9677 L70.8579,101.9467 C70.8479,101.9447 70.8269,101.9417 70.7959,101.9417 M69.8389,104.5267 C69.0559,104.5277 68.2569,104.3497 68.0239,103.7037 C67.5949,102.5107 69.0299,101.6667 69.6429,101.3057 C70.4649,100.8227 71.0069,100.9347 71.2069,101.0087 C71.6319,101.1297 72.3559,101.5817 72.5529,102.5767 C72.6939,103.2887 72.2549,104.0407 71.5529,104.2907 C71.3789,104.3527 70.6159,104.5267 69.8389,104.5267"/>
          <path fill="#EAF3FB" d="M71.1982,101.7561 C71.1982,101.7561 70.9672,101.6401 70.5152,101.9051 C70.1172,102.1401 69.5212,102.5151 69.6852,102.9701 C69.8482,103.4251 71.1162,103.2381 71.3972,103.1391 C71.6772,103.0381 71.8512,102.7291 71.7982,102.4601 C71.6822,101.8751 71.1982,101.7561 71.1982,101.7561"/>
          <path fill="#FFF" d="M23.7754,101.9534 C23.7754,101.9534 23.3844,101.7564 22.6224,102.2054 C21.9484,102.6014 20.9434,103.2344 21.2194,104.0034 C21.4964,104.7704 23.6354,104.4574 24.1104,104.2884 C24.5854,104.1184 24.8784,103.5964 24.7884,103.1424 C24.5914,102.1544 23.7754,101.9534 23.7754,101.9534"/>
          <path fill="#52267D" d="M23.5215,102.4104 C23.4205,102.4104 23.2075,102.4404 22.8755,102.6364 C22.5455,102.8304 21.5425,103.4214 21.6905,103.8344 C21.8795,104.0924 23.3935,104.0134 23.9425,103.8174 C24.1935,103.7274 24.3365,103.4384 24.2975,103.2404 C24.1705,102.6024 23.7015,102.4514 23.6475,102.4364 L23.5835,102.4154 C23.5755,102.4134 23.5545,102.4104 23.5215,102.4104 M22.5645,104.9954 C21.7815,104.9954 20.9825,104.8184 20.7495,104.1724 C20.3205,102.9794 21.7555,102.1354 22.3685,101.7744 C23.1925,101.2894 23.7335,101.4044 23.9335,101.4774 C24.3575,101.5984 25.0815,102.0504 25.2785,103.0454 C25.4185,103.7554 24.9805,104.5084 24.2795,104.7594 C24.1045,104.8214 23.3415,104.9954 22.5645,104.9954"/>
          <path fill="#EAF3FB" d="M23.9238,102.2249 C23.9238,102.2249 23.6938,102.1079 23.2408,102.3739 C22.8428,102.6089 22.2468,102.9839 22.4108,103.4389 C22.5738,103.8929 23.8418,103.7069 24.1228,103.6069 C24.4038,103.5069 24.5768,103.1979 24.5248,102.9289 C24.4078,102.3439 23.9238,102.2249 23.9238,102.2249"/>
          <path fill="#FFF" d="M26.1133,101.3811 C26.6213,101.3071 27.3653,102.4011 27.2863,102.7381 C27.2073,103.0751 27.1633,104.1871 26.3423,104.3181 C25.7383,104.4141 23.5823,104.6661 23.1043,104.2021 C22.6653,103.7761 23.4903,101.7671 26.1133,101.3811"/>
          <path fill="#52267D" d="M26.1602,101.8801 C24.6332,102.1121 23.9542,102.9151 23.7332,103.2511 C23.5142,103.5841 23.4782,103.8411 23.4962,103.9061 C23.6932,104.0231 25.0622,104.0151 26.2642,103.8231 C26.5802,103.7741 26.6842,103.2951 26.7582,102.8521 C26.7722,102.7601 26.7862,102.6831 26.8002,102.6241 C26.7642,102.4841 26.3642,101.9461 26.1602,101.8801 M24.5102,104.9781 C23.7922,104.9781 23.0872,104.8831 22.7562,104.5611 C22.4822,104.2951 22.4182,103.8521 22.5822,103.3461 C22.8872,102.4011 23.9752,101.1901 26.0412,100.8861 C26.4042,100.8361 26.7952,101.0181 27.1652,101.4221 C27.4442,101.7261 27.8862,102.3681 27.7732,102.8531 C27.7642,102.8941 27.7552,102.9491 27.7442,103.0131 C27.6642,103.5011 27.4772,104.6431 26.4222,104.8121 C26.0662,104.8681 25.2802,104.9781 24.5102,104.9781"/>
          <path fill="#EAF3FB" d="M26.2598,101.6858 C26.5588,101.6418 26.9978,102.2868 26.9508,102.4858 C26.9058,102.6848 26.8788,103.3398 26.3958,103.4178 C26.0378,103.4748 24.7658,103.6228 24.4848,103.3498 C24.2248,103.0978 24.7118,101.9128 26.2598,101.6858"/>
          <path fill="#FFF" d="M32.7881,101.7727 C32.9451,101.6367 33.1351,101.5967 33.2921,101.6687 C33.8791,101.9367 35.3621,102.7007 35.0711,103.7627 C34.8451,104.5897 34.3381,104.3487 33.3751,104.3777 L32.6491,104.4007 C32.4991,104.4057 32.3641,104.3307 32.2801,104.1927 C31.8531,103.4997 32.0651,102.3987 32.7381,101.8157 L32.7881,101.7727 Z"/>
          <path fill="#52267D" d="M33.084,102.1233 L33.114,102.1513 L33.064,102.1943 C32.578,102.6163 32.406,103.4433 32.706,103.9313 L33.359,103.8783 C33.575,103.8723 33.77,103.8773 33.944,103.8833 C34.511,103.9013 34.516,103.9023 34.589,103.6313 C34.774,102.9553 33.483,102.3063 33.084,102.1233 L33.084,102.1233 Z M32.635,104.9003 C32.316,104.9003 32.025,104.7343 31.854,104.4533 C31.303,103.5593 31.558,102.1773 32.411,101.4373 L32.461,101.3943 C32.766,101.1313 33.164,101.0613 33.498,101.2133 C35.655,102.1993 35.712,103.3163 35.554,103.8943 C35.271,104.9273 34.511,104.9033 33.912,104.8833 C33.758,104.8783 33.583,104.8733 33.391,104.8783 L32.665,104.9003 L32.635,104.9003 Z"/>
          <path fill="#EAF3FB" d="M32.8662,102.009 C32.9802,101.909 33.1182,101.881 33.2322,101.933 C33.6592,102.128 34.7362,102.683 34.5252,103.454 C34.3602,104.056 33.9922,103.88 33.2932,103.903 L32.7642,103.918 C32.6562,103.922 32.5582,103.867 32.4972,103.768 C32.1862,103.264 32.3412,102.464 32.8302,102.04 L32.8662,102.009 Z"/>
          <path fill="#FFF" d="M29.375,101.4993 C29.375,101.4993 28.473,100.6483 27.123,101.6033 C25.89,102.4743 24.906,103.8883 25.417,104.0743 C25.929,104.2613 26.836,104.4723 27.813,104.3653 C28.664,104.2723 29.394,104.4883 29.858,102.7563 C30.074,101.9493 29.375,101.4993 29.375,101.4993"/>
          <path fill="#52267D" d="M25.8389,103.6858 C26.2339,103.8008 26.9529,103.9568 27.7599,103.8688 C27.8799,103.8558 27.9989,103.8478 28.1149,103.8398 C28.7479,103.8008 29.0659,103.7818 29.3749,102.6258 C29.4869,102.2068 29.1649,101.9608 29.0989,101.9158 L29.0379,101.8688 C28.9739,101.8118 28.3759,101.3318 27.4119,102.0108 C26.6109,102.5768 26.0229,103.3118 25.8389,103.6858 M27.2699,104.8948 C26.3239,104.8948 25.5649,104.6608 25.2459,104.5438 C24.9939,104.4528 24.8219,104.2368 24.7859,103.9678 C24.6759,103.1408 25.9429,101.8238 26.8349,101.1948 C28.1309,100.2798 29.2429,100.7188 29.6839,101.1038 C30.0559,101.3628 30.5779,102.0008 30.3419,102.8848 C29.8829,104.5958 29.0899,104.7818 28.1769,104.8378 C28.0759,104.8448 27.9729,104.8508 27.8679,104.8628 C27.6619,104.8848 27.4619,104.8948 27.2699,104.8948"/>
          <path fill="#EAF3FB" d="M29.1357,101.7678 C29.1357,101.7678 28.5737,101.2388 27.7347,101.8318 C26.9667,102.3748 26.3557,103.2548 26.6727,103.3718 C26.9907,103.4868 27.5557,103.6188 28.1637,103.5518 C28.6937,103.4938 29.1477,103.6278 29.4367,102.5498 C29.5717,102.0478 29.1357,101.7678 29.1357,101.7678"/>
        </g>
      </g>
    </g>
    <path fill="#ACD3EF" d="M83.6494 186.9488C77.0734 186.9488 73.9504 184.4008 72.7794 183.0918 65.7594 186.3768 60.2554 185.0348 60.0184 184.9728 59.4834 184.8378 59.1604 184.2928 59.2964 183.7578 59.4324 183.2228 59.9764 182.8978 60.5104 183.0348 60.6094 183.0598 65.9834 184.3158 72.6184 180.9448L73.4604 180.5168 73.9354 181.3338C74.0284 181.4848 76.4144 185.2308 84.5724 184.9308 93.0324 184.6128 97.3594 181.1038 97.4024 181.0688 97.8264 180.7148 98.4584 180.7748 98.8094 181.1968 99.1624 181.6198 99.1084 182.2478 98.6854 182.6018 98.4924 182.7648 93.8424 186.5838 84.6464 186.9288 84.3054 186.9418 83.9734 186.9488 83.6494 186.9488M74.9434 190.0933C74.8544 190.0933 74.7644 190.0813 74.6734 190.0563 74.4824 190.0023 72.7684 189.5053 71.6364 188.5633 71.2124 188.2093 71.1544 187.5783 71.5074 187.1553 71.8614 186.7323 72.4914 186.6733 72.9164 187.0263 73.5954 187.5923 74.8044 188.0153 75.2144 188.1303 75.7454 188.2803 76.0544 188.8323 75.9054 189.3643 75.7814 189.8053 75.3804 190.0933 74.9434 190.0933"/>
    <path fill="#5E63B6" d="M219.1797,102.9517 C218.6267,102.9517 218.1797,102.5047 218.1797,101.9517 L218.1797,94.9517 C218.1797,94.3987 218.6267,93.9517 219.1797,93.9517 C219.7327,93.9517 220.1797,94.3987 220.1797,94.9517 L220.1797,101.9517 C220.1797,102.5047 219.7327,102.9517 219.1797,102.9517"/>
    <path fill="#5E63B6" d="M222.6797 99.4517L215.6797 99.4517C215.1267 99.4517 214.6797 99.0047 214.6797 98.4517 214.6797 97.8987 215.1267 97.4517 215.6797 97.4517L222.6797 97.4517C223.2327 97.4517 223.6797 97.8987 223.6797 98.4517 223.6797 99.0047 223.2327 99.4517 222.6797 99.4517M54.1797 52.9517C53.6267 52.9517 53.1797 52.5047 53.1797 51.9517L53.1797 44.9517C53.1797 44.3987 53.6267 43.9517 54.1797 43.9517 54.7327 43.9517 55.1797 44.3987 55.1797 44.9517L55.1797 51.9517C55.1797 52.5047 54.7327 52.9517 54.1797 52.9517"/>
    <path fill="#5E63B6" d="M57.6797 49.4517L50.6797 49.4517C50.1267 49.4517 49.6797 49.0047 49.6797 48.4517 49.6797 47.8987 50.1267 47.4517 50.6797 47.4517L57.6797 47.4517C58.2327 47.4517 58.6797 47.8987 58.6797 48.4517 58.6797 49.0047 58.2327 49.4517 57.6797 49.4517M37.2822 118.4039C37.0062 118.4039 36.7822 118.1799 36.7822 117.9039L36.7822 113.9669C36.7822 113.6899 37.0062 113.4669 37.2822 113.4669 37.5582 113.4669 37.7822 113.6899 37.7822 113.9669L37.7822 117.9039C37.7822 118.1799 37.5582 118.4039 37.2822 118.4039"/>
    <path fill="#5E63B6" d="M39.251 116.4351L35.313 116.4351C35.037 116.4351 34.814 116.2111 34.814 115.9351 34.814 115.6591 35.037 115.4351 35.313 115.4351L39.251 115.4351C39.527 115.4351 39.751 115.6591 39.751 115.9351 39.751 116.2111 39.527 116.4351 39.251 116.4351M211.2822 162.4039C211.0062 162.4039 210.7822 162.1799 210.7822 161.9039L210.7822 157.9669C210.7822 157.6899 211.0062 157.4669 211.2822 157.4669 211.5582 157.4669 211.7822 157.6899 211.7822 157.9669L211.7822 161.9039C211.7822 162.1799 211.5582 162.4039 211.2822 162.4039"/>
    <path fill="#5E63B6" d="M213.251 160.4351L209.313 160.4351C209.037 160.4351 208.814 160.2111 208.814 159.9351 208.814 159.6591 209.037 159.4351 209.313 159.4351L213.251 159.4351C213.527 159.4351 213.751 159.6591 213.751 159.9351 213.751 160.2111 213.527 160.4351 213.251 160.4351M125.2617 130.9058C125.3937 130.9058 125.5107 130.9578 125.6137 131.0588L126.5677 132.0938C126.0387 132.7488 125.3897 133.2498 124.6177 133.5968 123.8477 133.9448 122.9217 134.1188 121.8417 134.1188 120.8757 134.1188 120.0077 133.9548 119.2367 133.6248 118.4657 133.2948 117.8067 132.8358 117.2607 132.2478 116.7147 131.6588 116.2967 130.9578 116.0057 130.1408 115.7147 129.3248 115.5697 128.4338 115.5697 127.4678 115.5697 126.4898 115.7247 125.5938 116.0367 124.7818 116.3487 123.9688 116.7877 123.2678 117.3557 122.6798 117.9227 122.0928 118.5987 121.6348 119.3847 121.3068 120.1707 120.9808 121.0407 120.8168 121.9947 120.8168 122.9437 120.8168 123.7837 120.9728 124.5197 121.2848 125.2537 121.5968 125.8797 122.0058 126.3957 122.5098L125.5857 123.6348C125.5377 123.7068 125.4767 123.7688 125.4017 123.8228 125.3257 123.8778 125.2227 123.9038 125.0907 123.9038 125.0007 123.9038 124.9077 123.8788 124.8117 123.8278 124.7157 123.7768 124.6117 123.7138 124.4967 123.6378 124.3827 123.5638 124.2507 123.4808 124.1007 123.3908 123.9507 123.3018 123.7777 123.2188 123.5787 123.1438 123.3807 123.0688 123.1517 123.0058 122.8907 122.9548 122.6297 122.9038 122.3277 122.8788 121.9867 122.8788 121.4047 122.8788 120.8707 122.9818 120.3887 123.1888 119.9057 123.3958 119.4907 123.6958 119.1417 124.0888 118.7937 124.4818 118.5247 124.9618 118.3317 125.5288 118.1397 126.0948 118.0437 126.7428 118.0437 127.4678 118.0437 128.1998 118.1477 128.8508 118.3547 129.4218 118.5617 129.9908 118.8417 130.4708 119.1967 130.8608 119.5497 131.2518 119.9667 131.5498 120.4477 131.7568 120.9267 131.9638 121.4437 132.0668 121.9947 132.0668 122.3247 132.0668 122.6227 132.0498 122.8907 132.0128 123.1577 131.9768 123.4037 131.9208 123.6287 131.8428 123.8537 131.7638 124.0667 131.6638 124.2677 131.5408 124.4687 131.4178 124.6677 131.2658 124.8657 131.0868 124.9257 131.0318 124.9897 130.9888 125.0547 130.9558 125.1207 130.9228 125.1907 130.9058 125.2617 130.9058M135.1621 123.3277C135.0901 123.4537 135.0141 123.5457 134.9331 123.6027 134.8511 123.6597 134.7511 123.6877 134.6311 123.6877 134.5051 123.6877 134.3691 123.6417 134.2221 123.5487 134.0741 123.4557 133.8991 123.3517 133.6951 123.2377 133.4911 123.1247 133.2531 123.0207 132.9791 122.9277 132.7071 122.8347 132.3841 122.7887 132.0121 122.7887 131.6761 122.7887 131.3821 122.8287 131.1301 122.9097 130.8781 122.9907 130.6671 123.1027 130.4961 123.2477 130.3241 123.3907 130.1971 123.5637 130.1131 123.7647 130.0291 123.9657 129.9871 124.1857 129.9871 124.4267 129.9871 124.7317 130.0721 124.9867 130.2441 125.1907 130.4151 125.3947 130.6411 125.5687 130.9231 125.7137 131.2051 125.8567 131.5261 125.9857 131.8861 126.0997 132.2461 126.2147 132.6151 126.3357 132.9931 126.4647 133.3711 126.5937 133.7401 126.7437 134.1001 126.9147 134.4601 127.0857 134.7811 127.3017 135.0631 127.5627 135.3451 127.8237 135.5711 128.1427 135.7431 128.5207 135.9141 128.8987 135.9991 129.3577 135.9991 129.8977 135.9991 130.4857 135.8981 131.0367 135.6971 131.5497 135.4971 132.0627 135.2031 132.5097 134.8151 132.8907 134.4291 133.2717 133.9561 133.5717 133.3981 133.7907 132.8401 134.0097 132.2011 134.1187 131.4811 134.1187 131.0671 134.1187 130.6591 134.0787 130.2571 133.9977 129.8551 133.9167 129.4701 133.8017 129.1001 133.6507 128.7311 133.5017 128.3851 133.3207 128.0611 133.1107 127.7371 132.9007 127.4491 132.6677 127.1971 132.4087L127.9081 131.2487C127.9681 131.1647 128.0461 131.0937 128.1421 131.0367 128.2381 130.9797 128.3401 130.9507 128.4481 130.9507 128.5981 130.9507 128.7601 131.0127 128.9341 131.1357 129.1081 131.2587 129.3151 131.3947 129.5561 131.5457 129.7951 131.6947 130.0751 131.8317 130.3961 131.9547 130.7181 132.0777 131.1031 132.1397 131.5531 132.1397 132.2431 132.1397 132.7771 131.9757 133.1551 131.6487 133.5331 131.3217 133.7231 130.8517 133.7231 130.2397 133.7231 129.8977 133.6371 129.6187 133.4661 129.4027 133.2951 129.1867 133.0681 129.0057 132.7861 128.8587 132.5041 128.7117 132.1831 128.5877 131.8231 128.4847 131.4631 128.3837 131.0971 128.2717 130.7251 128.1517 130.3531 128.0317 129.9871 127.8887 129.6271 127.7207 129.2671 127.5527 128.9461 127.3337 128.6641 127.0627 128.3821 126.7937 128.1551 126.4557 127.9841 126.0507 127.8131 125.6457 127.7281 125.1457 127.7281 124.5527 127.7281 124.0787 127.8221 123.6157 128.0121 123.1667 128.2011 122.7167 128.4751 122.3167 128.8351 121.9697 129.1951 121.6217 129.6391 121.3427 130.1671 121.1327 130.6951 120.9227 131.3011 120.8167 131.9851 120.8167 132.7531 120.8167 133.4611 120.9367 134.1091 121.1777 134.7571 121.4177 135.3091 121.7537 135.7661 122.1847L135.1621 123.3277zM148.9951 120.9615L143.7391 133.9755 141.5531 133.9755 136.2971 120.9615 138.2401 120.9615C138.4501 120.9615 138.6211 121.0125 138.7541 121.1135 138.8861 121.2165 138.9841 121.3485 139.0511 121.5105L142.1191 129.4475C142.2221 129.7065 142.3191 129.9895 142.4121 130.2985 142.5051 130.6075 142.5941 130.9305 142.6781 131.2665 142.7491 130.9305 142.8271 130.6075 142.9111 130.2985 142.9951 129.9895 143.0891 129.7065 143.1901 129.4475L146.2411 121.5105C146.2891 121.3725 146.3841 121.2465 146.5251 121.1325 146.6661 121.0185 146.8391 120.9615 147.0431 120.9615L148.9951 120.9615z"/>
  </g>
</svg>
