<?xml version="1.0" encoding="UTF-8"?>
<svg width="256px" height="256px" viewBox="0 0 256 256" version="1.1" xmlns="http://www.w3.org/2000/svg" xmlns:xlink="http://www.w3.org/1999/xlink">
    <!-- Generator: Sketch 52.5 (67469) - http://www.bohemiancoding.com/sketch -->
    <title>Common/Illustrations/NoResults</title>
    <desc>Created with Sketch.</desc>
    <defs>
        <polygon id="path-1" points="0.9019 0.692 2.9019 0.692 2.9019 9.6918 0.9019 9.6918"></polygon>
        <path d="M0.001,103.839 L207.12,103.839 C207.12,46.64 160.76,0.28 103.56,0.28 C46.36,0.28 0.001,46.64 0.001,103.839 Z" id="path-3"></path>
        <path d="M242.001,0.281 C241.45,0.281 241.001,0.73 241.001,1.281 C241.001,1.83 241.45,2.28 242.001,2.28 L250.97,2.28 C251.53,2.28 251.97,1.83 251.97,1.281 C251.97,0.73 251.53,0.281 250.97,0.281 L242.001,0.281 Z M18,0.281 C17.45,0.281 17.001,0.73 17.001,1.281 C17.001,1.83 17.45,2.28 18,2.28 L235.9,2.28 C236.449,2.28 236.9,1.83 236.9,1.281 C236.9,0.73 236.449,0.281 235.9,0.281 L18,0.281 Z M1,0.281 C0.449,0.281 0,0.73 0,1.281 C0,1.83 0.449,2.28 1,2.28 L9.971,2.28 C10.529,2.28 10.971,1.83 10.971,1.281 C10.971,0.73 10.529,0.281 9.971,0.281 L1,0.281 Z M79.33,9 C78.78,9 78.35,9.46 78.35,10 C78.35,10.56 78.8,11 79.35,11 L84.35,10.919 C84.921,10.919 85.35,10.46 85.35,9.92 C85.329,9.36 84.9,8.92 84.329,8.92 L79.33,9 Z M168.039,9 C167.48,9 167.039,9.45 167.039,10 C167.039,10.551 167.48,11 168.039,11 L177.18,11 C177.73,11 178.181,10.551 178.181,10 C178.181,9.45 177.73,9 177.18,9 L168.039,9 Z M92.22,9 C91.68,9 91.22,9.45 91.22,10 C91.22,10.551 91.68,11 92.22,11 L159.42,11 C159.97,11 160.42,10.551 160.42,10 C160.42,9.45 159.97,9 159.42,9 L92.22,9 Z" id="path-5"></path>
        <path d="M3.137,0.841 C1.48,0.841 0.137,2.183 0.137,3.84 L0.137,180.841 C0.137,182.497 1.48,183.84 3.137,183.84 L130.137,183.84 C131.793,183.84 133.137,182.497 133.137,180.841 L133.137,3.84 C133.137,2.183 131.793,0.841 130.137,0.841 L3.137,0.841 Z" id="path-7"></path>
        <path d="M0.466,30.491 C0.466,47.138 14.001,60.682 30.637,60.682 C47.273,60.682 60.808,47.138 60.808,30.491 C60.808,13.844 47.273,0.299 30.637,0.299 C14.001,0.299 0.466,13.844 0.466,30.491 Z" id="path-9"></path>
        <path d="M0.622,27.491 C0.622,42.398 12.741,54.525 27.637,54.525 C42.533,54.525 54.653,42.398 54.653,27.491 C54.653,12.585 42.533,0.458 27.637,0.458 C12.741,0.458 0.622,12.585 0.622,27.491 Z" id="path-11"></path>
        <path d="M8.116,0.156 C5.881,1.448 4.133,2.999 2.874,4.812 C1.615,6.624 0.985,8.726 0.985,11.122 C0.985,12.823 1.41,14.241 2.26,15.374 C3.109,16.509 4.244,17.077 5.658,17.077 C6.917,17.077 7.949,16.597 8.751,15.636 C9.555,14.676 9.956,13.611 9.956,12.447 C9.956,11.06 9.609,10.045 8.916,9.398 C8.225,8.751 7.421,8.428 6.508,8.428 C6.351,8.428 6.215,8.452 6.107,8.499 C5.998,8.547 5.895,8.57 5.8,8.57 C5.674,8.57 5.587,8.491 5.54,8.334 C5.492,8.177 5.469,7.906 5.469,7.53 C5.469,6.27 5.895,5.143 6.746,4.152 C7.595,3.159 8.476,2.379 9.391,1.811 C9.484,1.781 9.476,1.631 9.367,1.362 C9.258,1.094 9.156,0.899 9.06,0.772 C8.966,0.645 8.809,0.497 8.589,0.323 C8.426,0.195 8.298,0.133 8.204,0.133 C8.17,0.133 8.141,0.141 8.116,0.156 Z" id="path-13"></path>
        <path d="M7.208,0.156 C4.973,1.448 3.225,2.999 1.965,4.812 C0.705,6.626 0.075,8.728 0.075,11.122 C0.075,12.823 0.501,14.241 1.348,15.374 C2.199,16.509 3.334,17.077 4.75,17.077 C6.01,17.077 7.041,16.597 7.842,15.636 C8.647,14.676 9.048,13.611 9.048,12.447 C9.048,11.06 8.701,10.045 8.009,9.398 C7.317,8.751 6.514,8.428 5.6,8.428 C5.442,8.428 5.309,8.452 5.199,8.499 C5.09,8.547 4.987,8.57 4.892,8.57 C4.765,8.57 4.679,8.491 4.633,8.334 C4.585,8.177 4.561,7.906 4.561,7.53 C4.561,6.27 4.987,5.143 5.838,4.152 C6.687,3.159 7.568,2.379 8.483,1.811 C8.575,1.781 8.568,1.631 8.459,1.362 C8.352,1.094 8.248,0.899 8.152,0.772 C8.056,0.645 7.901,0.497 7.68,0.323 C7.518,0.195 7.389,0.133 7.295,0.133 C7.262,0.133 7.233,0.141 7.208,0.156 Z" id="path-15"></path>
        <path d="M1.502,1.793 C0.699,2.756 0.297,3.819 0.297,4.986 C0.297,6.375 0.644,7.392 1.339,8.036 C2.032,8.683 2.834,9.006 3.75,9.006 C3.907,9.006 4.039,8.983 4.152,8.935 C4.263,8.887 4.363,8.864 4.46,8.864 C4.587,8.864 4.674,8.943 4.719,9.101 C4.768,9.259 4.791,9.528 4.791,9.906 C4.791,11.482 4.404,12.651 3.633,13.406 C2.859,14.163 1.939,14.903 0.867,15.629 C0.771,15.693 0.771,15.843 0.867,16.078 C0.962,16.313 1.073,16.512 1.197,16.668 C1.321,16.827 1.488,16.977 1.694,17.117 C1.9,17.26 2.049,17.315 2.143,17.284 C4.317,16.053 6.049,14.516 7.342,12.672 C8.634,10.827 9.281,8.706 9.281,6.31 C9.281,4.607 8.855,3.189 8.006,2.054 C7.151,0.918 6.018,0.35 4.599,0.35 C3.339,0.35 2.307,0.831 1.502,1.793 Z" id="path-17"></path>
        <path d="M1.423,1.793 C0.618,2.756 0.219,3.819 0.219,4.986 C0.219,6.375 0.565,7.392 1.259,8.036 C1.954,8.683 2.756,9.006 3.669,9.006 C3.828,9.006 3.96,8.983 4.071,8.935 C4.181,8.887 4.285,8.864 4.378,8.864 C4.504,8.864 4.59,8.943 4.639,9.101 C4.686,9.259 4.709,9.528 4.709,9.906 C4.709,11.482 4.322,12.651 3.551,13.406 C2.777,14.163 1.858,14.903 0.786,15.629 C0.69,15.693 0.69,15.843 0.786,16.078 C0.88,16.313 0.991,16.512 1.116,16.668 C1.243,16.827 1.407,16.977 1.613,17.117 C1.818,17.26 1.967,17.315 2.061,17.284 C4.234,16.053 5.968,14.516 7.26,12.672 C8.554,10.829 9.2,8.708 9.2,6.31 C9.2,4.607 8.774,3.189 7.924,2.054 C7.072,0.918 5.937,0.35 4.52,0.35 C3.258,0.35 2.227,0.831 1.423,1.793 Z" id="path-19"></path>
        <path d="M18.47,7.962 C18.039,10.51 16.954,13.455 15.552,16.094 C12.568,15.698 9.57,14.851 7.223,13.715 C5.282,12.757 3.068,11.301 0.969,9.611 C0.986,9.826 1.004,10.062 1.021,10.277 C1.02,10.341 1.04,10.406 1.039,10.471 C1.058,10.621 1.055,10.793 1.074,10.943 C1.073,11.008 1.092,11.095 1.091,11.159 C1.11,11.31 1.13,11.482 1.148,11.633 C1.147,11.697 1.168,11.762 1.166,11.826 C1.184,12.02 1.202,12.235 1.241,12.428 C1.279,12.73 1.297,12.945 1.335,13.182 C1.375,13.441 1.394,13.634 1.432,13.828 C1.431,13.871 1.453,13.914 1.452,13.958 C1.491,14.151 1.51,14.324 1.549,14.517 C1.548,14.561 1.57,14.582 1.569,14.625 C1.608,14.84 1.648,15.056 1.687,15.251 C1.826,15.919 1.987,16.566 2.169,17.192 C2.474,18.25 2.823,19.223 3.239,20.067 C3.301,20.196 3.364,20.305 3.427,20.436 C3.488,20.565 3.529,20.673 3.592,20.781 C3.653,20.912 3.717,21.021 3.779,21.129 C3.885,21.302 3.968,21.433 4.051,21.563 C4.094,21.628 4.094,21.65 4.115,21.65 C4.22,21.78 4.325,21.933 4.43,22.064 C4.515,22.151 4.578,22.238 4.662,22.326 C4.705,22.369 4.726,22.391 4.769,22.435 C4.81,22.479 4.875,22.523 4.916,22.588 C4.958,22.632 4.98,22.653 5.022,22.697 C5.064,22.741 5.106,22.784 5.171,22.828 C5.212,22.85 5.255,22.894 5.276,22.916 C5.318,22.96 5.382,23.003 5.426,23.026 C5.467,23.048 5.51,23.07 5.531,23.114 C5.574,23.157 5.637,23.18 5.702,23.224 C5.743,23.246 5.786,23.269 5.808,23.29 C5.872,23.313 5.936,23.357 6,23.38 C6.021,23.401 6.064,23.402 6.085,23.425 C6.171,23.469 6.277,23.514 6.362,23.536 C6.427,23.559 6.492,23.581 6.533,23.604 C11.2,25.081 16.006,23.362 21.568,27.775 C21.197,20.66 25.355,17.918 26.899,13.284 C26.899,13.22 26.923,13.135 26.947,13.049 C26.971,12.942 27.015,12.836 27.016,12.728 C27.276,11.445 26.829,9.89 25.889,8.262 C25.784,8.111 25.701,7.981 25.618,7.829 C25.471,7.59 25.303,7.329 25.114,7.068 C25.093,7.046 25.072,7.024 25.051,6.981 C25.009,6.916 24.946,6.85 24.904,6.785 C24.862,6.72 24.799,6.632 24.757,6.568 C24.715,6.503 24.652,6.437 24.61,6.372 C24.546,6.307 24.505,6.219 24.442,6.155 C24.399,6.11 24.357,6.046 24.315,6.002 C22.821,4.085 20.852,2.183 18.772,0.513 C18.919,3.18 18.829,5.863 18.47,7.962 Z" id="path-21"></path>
    </defs>
    <g id="Common/Illustrations/NoResults" stroke="none" stroke-width="1" fill="none" fill-rule="evenodd">
        <g id="Group-89" transform="translate(2.000000, 37.000000)">
            <g id="Group-26" transform="translate(9.000000, 0.308000)">
                <g id="Group-3" transform="translate(208.000000, 0.000000)">
                    <mask id="mask-2" fill="white">
                        <use xlink:href="#path-1"></use>
                    </mask>
                    <g id="Clip-2"></g>
                    <path d="M1.9019,9.6918 C1.3489,9.6918 0.9019,9.2438 0.9019,8.6918 L0.9019,1.6918 C0.9019,1.1398 1.3489,0.6918 1.9019,0.6918 C2.4549,0.6918 2.9019,1.1398 2.9019,1.6918 L2.9019,8.6918 C2.9019,9.2438 2.4549,9.6918 1.9019,9.6918" id="Fill-1" fill="#5E63B6" mask="url(#mask-2)"></path>
                </g>
                <path d="M213.4019,4.1918 L206.4019,4.1918 C205.8489,4.1918 205.4019,3.7438 205.4019,3.1918 C205.4019,2.6398 205.8489,2.1918 206.4019,2.1918 L213.4019,2.1918 C213.9549,2.1918 214.4019,2.6398 214.4019,3.1918 C214.4019,3.7438 213.9549,4.1918 213.4019,4.1918" id="Fill-4" fill="#5E63B6"></path>
                <path d="M3.4272,161.8588 C3.1512,161.8588 2.9272,161.6348 2.9272,161.3588 L2.9272,157.4218 C2.9272,157.1448 3.1512,156.9218 3.4272,156.9218 C3.7032,156.9218 3.9272,157.1448 3.9272,157.4218 L3.9272,161.3588 C3.9272,161.6348 3.7032,161.8588 3.4272,161.8588" id="Fill-6" fill="#5E63B6"></path>
                <path d="M5.396,159.8901 L1.458,159.8901 C1.182,159.8901 0.959,159.6661 0.959,159.3901 C0.959,159.1141 1.182,158.8901 1.458,158.8901 L5.396,158.8901 C5.672,158.8901 5.896,159.1141 5.896,159.3901 C5.896,159.6661 5.672,159.8901 5.396,159.8901" id="Fill-8" fill="#5E63B6"></path>
                <path d="M231.4937,143.1415 C231.2177,143.1415 230.9937,142.9175 230.9937,142.6415 L230.9937,138.7045 C230.9937,138.4275 231.2177,138.2045 231.4937,138.2045 C231.7697,138.2045 231.9937,138.4275 231.9937,138.7045 L231.9937,142.6415 C231.9937,142.9175 231.7697,143.1415 231.4937,143.1415" id="Fill-10" fill="#5E63B6"></path>
                <path d="M233.4624,141.1728 L229.5244,141.1728 C229.2484,141.1728 229.0254,140.9488 229.0254,140.6728 C229.0254,140.3968 229.2484,140.1728 229.5244,140.1728 L233.4624,140.1728 C233.7384,140.1728 233.9624,140.3968 233.9624,140.6728 C233.9624,140.9488 233.7384,141.1728 233.4624,141.1728" id="Fill-12" fill="#5E63B6"></path>
                <path d="M33.0044,27.144 C32.7284,27.144 32.5044,26.92 32.5044,26.644 L32.5044,22.707 C32.5044,22.43 32.7284,22.207 33.0044,22.207 C33.2804,22.207 33.5044,22.43 33.5044,22.707 L33.5044,26.644 C33.5044,26.92 33.2804,27.144 33.0044,27.144" id="Fill-14" fill="#5E63B6"></path>
                <path d="M34.9731,25.1752 L31.0351,25.1752 C30.7591,25.1752 30.5361,24.9512 30.5361,24.6752 C30.5361,24.3992 30.7591,24.1752 31.0351,24.1752 L34.9731,24.1752 C35.2491,24.1752 35.4731,24.3992 35.4731,24.6752 C35.4731,24.9512 35.2491,25.1752 34.9731,25.1752" id="Fill-16" fill="#5E63B6"></path>
                <path d="M15.5562,69.2763 L15.5562,77.4013" id="Fill-18" fill="#FFFFFF"></path>
                <path d="M15.5562,78.4013 C15.0032,78.4013 14.5562,77.9533 14.5562,77.4013 L14.5562,69.2763 C14.5562,68.7243 15.0032,68.2763 15.5562,68.2763 C16.1092,68.2763 16.5562,68.7243 16.5562,69.2763 L16.5562,77.4013 C16.5562,77.9533 16.1092,78.4013 15.5562,78.4013" id="Fill-20" fill="#5E63B6"></path>
                <path d="M19.6187,73.3388 L11.4937,73.3388" id="Fill-22" fill="#FFFFFF"></path>
                <path d="M19.6187,74.3388 L11.4937,74.3388 C10.9407,74.3388 10.4937,73.8908 10.4937,73.3388 C10.4937,72.7868 10.9407,72.3388 11.4937,72.3388 L19.6187,72.3388 C20.1717,72.3388 20.6187,72.7868 20.6187,73.3388 C20.6187,73.8908 20.1717,74.3388 19.6187,74.3388" id="Fill-24" fill="#5E63B6"></path>
            </g>
            <g id="Group-29" transform="translate(22.000000, 94.308000)">
                <mask id="mask-4" fill="white">
                    <use xlink:href="#path-3"></use>
                </mask>
                <g id="Clip-28"></g>
                <polygon id="Fill-27" fill="#E1F2FF" mask="url(#mask-4)" points="-5 108.84 212.119 108.84 212.119 -4.72 -5 -4.72"></polygon>
            </g>
            <g id="Group-32" transform="translate(0.000000, 188.308000)">
                <mask id="mask-6" fill="white">
                    <use xlink:href="#path-5"></use>
                </mask>
                <g id="Clip-31"></g>
                <polygon id="Fill-30" fill="#5E63B6" mask="url(#mask-6)" points="-5 16 256.97 16 256.97 -4.72 -5 -4.72"></polygon>
            </g>
            <g id="Group-35" transform="translate(58.000000, 6.308000)">
                <mask id="mask-8" fill="white">
                    <use xlink:href="#path-7"></use>
                </mask>
                <g id="Clip-34"></g>
                <polygon id="Fill-33" fill="#FFFFFF" mask="url(#mask-8)" points="-4.863 188.84 138.137 188.84 138.137 -4.16 -4.863 -4.16"></polygon>
            </g>
            <g id="Group-40" transform="translate(58.000000, 6.308000)">
                <path d="M4.1372,2.8403 C3.0342,2.8403 2.1372,3.7373 2.1372,4.8403 L2.1372,179.8403 C2.1372,181.8403 2.1372,181.8403 4.1372,181.8403 L129.1372,181.8403 C131.1372,181.8403 131.1372,181.8403 131.1372,179.8403 L131.1372,4.8403 C131.1372,3.7373 130.2402,2.8403 129.1372,2.8403 L4.1372,2.8403 Z M129.1372,183.8403 L4.1372,183.8403 C0.8852,183.8403 0.1372,183.0923 0.1372,179.8403 L0.1372,4.8403 C0.1372,2.6343 1.9312,0.8403 4.1372,0.8403 L129.1372,0.8403 C131.3432,0.8403 133.1372,2.6343 133.1372,4.8403 L133.1372,179.8403 C133.1372,183.0553 132.3522,183.8403 129.1372,183.8403 Z" id="Fill-36" fill="#5E63B6"></path>
                <path d="M65.6372,20.2997 C49.0012,20.2997 35.4662,33.8437 35.4662,50.4907 C35.4662,67.1387 49.0012,80.6827 65.6372,80.6827 C82.2732,80.6827 95.8082,67.1387 95.8082,50.4907 C95.8082,33.8437 82.2732,20.2997 65.6372,20.2997" id="Fill-38" fill="#E1F2FF"></path>
            </g>
            <g id="Group-43" transform="translate(93.000000, 26.308000)">
                <mask id="mask-10" fill="white">
                    <use xlink:href="#path-9"></use>
                </mask>
                <g id="Clip-42"></g>
                <polygon id="Fill-41" fill="#E1F2FF" mask="url(#mask-10)" points="-4.534 65.683 65.808 65.683 65.808 -4.7 -4.534 -4.7"></polygon>
            </g>
            <g id="Group-46" transform="translate(97.000000, 27.308000)">
                <mask id="mask-12" fill="white">
                    <use xlink:href="#path-11"></use>
                </mask>
                <g id="Clip-45"></g>
                <polygon id="Fill-44" fill="#FFFFFF" mask="url(#mask-12)" points="-4.378 59.525 59.653 59.525 59.653 -4.543 -4.378 -4.543"></polygon>
            </g>
            <g id="Group-73" transform="translate(81.000000, 27.308000)">
                <path d="M43.6372,2.4574 C29.8432,2.4574 18.6212,13.6874 18.6212,27.4914 C18.6212,41.2944 29.8432,52.5254 43.6372,52.5254 C57.4312,52.5254 68.6532,41.2944 68.6532,27.4914 C68.6532,13.6874 57.4312,2.4574 43.6372,2.4574 M43.6372,54.5254 C28.7412,54.5254 16.6212,42.3974 16.6212,27.4914 C16.6212,12.5844 28.7412,0.4574 43.6372,0.4574 C58.5332,0.4574 70.6532,12.5844 70.6532,27.4914 C70.6532,42.3974 58.5332,54.5254 43.6372,54.5254" id="Fill-47" fill="#5E63B6"></path>
                <path d="M84.0581,91.8403 L36.4651,91.8403 C35.3611,91.8403 34.4651,90.9443 34.4651,89.8403 C34.4651,88.7363 35.3611,87.8403 36.4651,87.8403 L84.0581,87.8403 C85.1621,87.8403 86.0581,88.7363 86.0581,89.8403 C86.0581,90.9443 85.1621,91.8403 84.0581,91.8403" id="Fill-49" fill="#FFFFFF"></path>
                <path d="M84.0591,107.1733 L3.1731,107.1733 C2.0691,107.1733 1.1731,106.2773 1.1731,105.1733 C1.1731,104.0693 2.0691,103.1733 3.1731,103.1733 L84.0591,103.1733 C85.1631,103.1733 86.0591,104.0693 86.0591,105.1733 C86.0591,106.2773 85.1631,107.1733 84.0591,107.1733" id="Fill-51" fill="#FFFFFF"></path>
                <path d="M84.0591,124.1733 L3.1731,124.1733 C2.0691,124.1733 1.1731,123.2773 1.1731,122.1733 C1.1731,121.0693 2.0691,120.1733 3.1731,120.1733 L84.0591,120.1733 C85.1631,120.1733 86.0591,121.0693 86.0591,122.1733 C86.0591,123.2773 85.1631,124.1733 84.0591,124.1733" id="Fill-53" fill="#FFFFFF"></path>
                <path d="M54.0728,141.1733 L3.1738,141.1733 C2.0688,141.1733 1.1738,140.2773 1.1738,139.1733 C1.1738,138.0693 2.0688,137.1733 3.1738,137.1733 L54.0728,137.1733 C55.1768,137.1733 56.0728,138.0693 56.0728,139.1733 C56.0728,140.2773 55.1768,141.1733 54.0728,141.1733" id="Fill-55" fill="#FFFFFF"></path>
                <path d="M84.0581,90.6401 L36.4651,90.6401 C35.9121,90.6401 35.4651,90.1921 35.4651,89.6401 C35.4651,89.0881 35.9121,88.6401 36.4651,88.6401 L84.0581,88.6401 C84.6111,88.6401 85.0581,89.0881 85.0581,89.6401 C85.0581,90.1921 84.6111,90.6401 84.0581,90.6401" id="Fill-57" fill="#5E63B6"></path>
                <path d="M84.0591,106.5473 L3.1731,106.5473 C2.6211,106.5473 2.1731,106.0993 2.1731,105.5473 C2.1731,104.9953 2.6211,104.5473 3.1731,104.5473 L84.0591,104.5473 C84.6121,104.5473 85.0591,104.9953 85.0591,105.5473 C85.0591,106.0993 84.6121,106.5473 84.0591,106.5473" id="Fill-59" fill="#5E63B6"></path>
                <path d="M84.0591,123.7616 L3.1731,123.7616 C2.6211,123.7616 2.1731,123.3136 2.1731,122.7616 C2.1731,122.2096 2.6211,121.7616 3.1731,121.7616 L84.0591,121.7616 C84.6121,121.7616 85.0591,122.2096 85.0591,122.7616 C85.0591,123.3136 84.6121,123.7616 84.0591,123.7616" id="Fill-61" fill="#5E63B6"></path>
                <path d="M54.0728,140.9755 L3.1738,140.9755 C2.6208,140.9755 2.1738,140.5275 2.1738,139.9755 C2.1738,139.4235 2.6208,138.9755 3.1738,138.9755 L54.0728,138.9755 C54.6258,138.9755 55.0728,139.4235 55.0728,139.9755 C55.0728,140.5275 54.6258,140.9755 54.0728,140.9755" id="Fill-63" fill="#5E63B6"></path>
                <path d="M19.2095,81.1259 C19.1645,81.1259 19.1385,81.1429 19.1175,81.1559 C16.8845,82.4459 15.1265,84.0079 13.8745,85.8129 C12.6205,87.6149 11.9845,89.7379 11.9845,92.1219 C11.9845,93.8149 12.4145,95.2459 13.2615,96.3749 C14.1055,97.5049 15.2485,98.0779 16.6585,98.0779 C17.9115,98.0779 18.9515,97.5929 19.7505,96.6369 C20.5505,95.6809 20.9555,94.6079 20.9555,93.4469 C20.9555,92.0669 20.6055,91.0419 19.9175,90.3979 C19.2295,89.7549 18.4185,89.4289 17.5085,89.4289 C17.3715,89.4289 17.2525,89.4459 17.1535,89.4809 L16.5535,89.6929 L16.4905,89.0589 C16.4775,88.9279 16.4695,88.7499 16.4695,88.5309 C16.4695,87.2759 16.8975,86.1389 17.7445,85.1509 C18.5795,84.1779 19.4545,83.3999 20.3465,82.8389 L20.4245,82.7999 C20.4615,82.7849 20.4765,82.7729 20.4805,82.7699 C20.4765,82.7689 20.4905,82.6679 20.3675,82.3629 C20.2575,82.0939 20.1565,81.8999 20.0605,81.7719 C19.9705,81.6489 19.8165,81.5039 19.5885,81.3229 C19.3895,81.1669 19.2775,81.1259 19.2095,81.1259 M16.6585,99.0779 C14.9155,99.0779 13.5035,98.3699 12.4605,96.9739 C11.4815,95.6689 10.9845,94.0369 10.9845,92.1219 C10.9845,89.5299 11.6805,87.2149 13.0535,85.2419 C14.3905,83.3159 16.2555,81.6539 18.5965,80.3029 C19.0685,79.9989 19.6165,80.0739 20.2075,80.5379 C20.5185,80.7839 20.7195,80.9799 20.8625,81.1759 C21.0095,81.3699 21.1475,81.6289 21.2945,81.9859 C21.7215,83.0439 21.2985,83.5049 20.8465,83.7069 C20.0515,84.2119 19.2635,84.9169 18.5045,85.8019 C17.8305,86.5879 17.4915,87.4479 17.4705,88.4289 C18.6405,88.3739 19.7105,88.8369 20.6005,89.6679 C21.4995,90.5079 21.9555,91.7789 21.9555,93.4469 C21.9555,94.8499 21.4725,96.1389 20.5185,97.2779 C19.5215,98.4719 18.2225,99.0779 16.6585,99.0779" id="Fill-65" fill="#FFFFFF"></path>
                <path d="M8.3013,81.1259 C8.2563,81.1259 8.2303,81.1429 8.2093,81.1559 C5.9763,82.4459 4.2183,84.0079 2.9663,85.8129 C1.7103,87.6169 1.0743,89.7399 1.0743,92.1219 C1.0743,93.8139 1.5033,95.2439 2.3483,96.3749 C3.1943,97.5049 4.3383,98.0779 5.7503,98.0779 C7.0033,98.0779 8.0433,97.5929 8.8423,96.6369 C9.6433,95.6809 10.0483,94.6069 10.0483,93.4469 C10.0483,92.0679 9.6983,91.0429 9.0093,90.3979 C8.3213,89.7549 7.5103,89.4289 6.6003,89.4289 C6.4613,89.4289 6.3473,89.4459 6.2483,89.4809 L5.6513,89.6939 L5.5833,89.0629 C5.5693,88.9309 5.5613,88.7509 5.5613,88.5309 C5.5613,87.2769 5.9903,86.1399 6.8373,85.1509 C7.6713,84.1779 8.5463,83.3999 9.4383,82.8389 L9.5163,82.7999 C9.5533,82.7849 9.5683,82.7729 9.5723,82.7699 C9.5683,82.7689 9.5823,82.6679 9.4593,82.3629 C9.3553,82.1019 9.2513,81.9039 9.1533,81.7729 C9.0573,81.6459 8.9033,81.4989 8.6803,81.3229 C8.4813,81.1669 8.3693,81.1259 8.3013,81.1259 M5.7503,99.0779 C4.0063,99.0779 2.5923,98.3699 1.5473,96.9739 C0.5703,95.6669 0.0743,94.0339 0.0743,92.1219 C0.0743,89.5319 0.7713,87.2169 2.1453,85.2419 C3.4823,83.3159 5.3473,81.6539 7.6883,80.3029 C8.1613,79.9989 8.7093,80.0739 9.2993,80.5379 C9.5953,80.7719 9.8023,80.9729 9.9503,81.1699 C10.1053,81.3739 10.2473,81.6419 10.3873,81.9889 C10.8133,83.0439 10.3903,83.5049 9.9383,83.7069 C9.1423,84.2129 8.3553,84.9179 7.5973,85.8019 C6.9233,86.5879 6.5843,87.4489 6.5623,88.4289 C6.5743,88.4289 6.5873,88.4289 6.6003,88.4289 C7.7733,88.4289 8.8133,88.8459 9.6923,89.6679 C10.5913,90.5079 11.0483,91.7799 11.0483,93.4469 C11.0483,94.8489 10.5643,96.1379 9.6103,97.2779 C8.6133,98.4719 7.3143,99.0779 5.7503,99.0779" id="Fill-67" fill="#FFFFFF"></path>
                <path d="M68.7065,139.7431 L68.7685,140.3761 C68.7815,140.5081 68.7905,140.6861 68.7905,140.9061 C68.7905,142.4761 68.4005,143.6531 67.6325,144.4061 C66.8655,145.1571 65.9355,145.9051 64.8665,146.6291 C64.8125,146.6651 64.7235,146.7251 64.8665,147.0771 C64.9655,147.3191 65.0755,147.5181 65.1965,147.6691 C65.3205,147.8261 65.4865,147.9751 65.6935,148.1181 C66.0015,148.3291 66.0915,148.3001 66.1435,148.2841 C68.3055,147.0591 70.0345,145.5371 71.3425,143.6711 C72.6285,141.8361 73.2805,139.6961 73.2805,137.3101 C73.2805,135.6171 72.8525,134.1851 72.0055,133.0531 C71.1555,131.9241 70.0095,131.3501 68.5995,131.3501 C67.3445,131.3501 66.3025,131.8361 65.5025,132.7941 C64.7025,133.7501 64.2975,134.8251 64.2975,135.9861 C64.2975,137.3681 64.6475,138.3941 65.3385,139.0361 C66.0285,139.6801 66.8405,140.0051 67.7495,140.0051 C67.8885,140.0051 68.0045,139.9881 68.1055,139.9521 L68.7065,139.7431 Z M66.0615,149.2811 C65.6745,149.2811 65.3695,149.1081 65.1275,148.9421 C64.8385,148.7431 64.5985,148.5241 64.4135,148.2901 C64.2325,148.0641 64.0775,147.7901 63.9405,147.4551 C63.5495,146.4941 64.0025,146.0061 64.3075,145.8001 C65.3245,145.1111 66.2085,144.4011 66.9335,143.6921 C67.4865,143.1481 67.7755,142.2451 67.7895,141.0051 C67.7765,141.0051 67.7635,141.0051 67.7495,141.0051 C66.5785,141.0051 65.5385,140.5891 64.6575,139.7681 C63.7555,138.9311 63.2975,137.6581 63.2975,135.9861 C63.2975,134.5841 63.7805,133.2941 64.7345,132.1521 C65.7335,130.9571 67.0345,130.3501 68.5995,130.3501 C70.3405,130.3501 71.7555,131.0581 72.8055,132.4531 C73.7845,133.7631 74.2805,135.3961 74.2805,137.3101 C74.2805,139.9051 73.5675,142.2391 72.1605,144.2451 C70.7665,146.2371 68.9295,147.8551 66.5465,149.1941 C66.3715,149.2551 66.2105,149.2811 66.0615,149.2811 Z" id="Fill-69" fill="#FFFFFF"></path>
                <path d="M79.6245,139.7421 L79.6875,140.3751 C79.7005,140.5061 79.7085,140.6841 79.7085,140.9061 C79.7085,142.4761 79.3185,143.6541 78.5515,144.4061 C77.7815,145.1591 76.8515,145.9081 75.7855,146.6291 C75.7315,146.6651 75.6425,146.7251 75.7845,147.0781 C75.8825,147.3171 75.9935,147.5161 76.1155,147.6691 C76.2425,147.8271 76.4095,147.9791 76.6115,148.1171 C76.9265,148.3331 77.0145,148.3011 77.0615,148.2841 C79.2245,147.0591 80.9535,145.5381 82.2615,143.6711 C83.5475,141.8371 84.1995,139.6971 84.1995,137.3101 C84.1995,135.6171 83.7705,134.1841 82.9235,133.0541 C82.0755,131.9241 80.9315,131.3501 79.5205,131.3501 C78.2655,131.3501 77.2235,131.8361 76.4235,132.7931 C75.6235,133.7501 75.2185,134.8251 75.2185,135.9861 C75.2185,137.3681 75.5675,138.3951 76.2585,139.0361 C76.9485,139.6801 77.7605,140.0051 78.6695,140.0051 C78.8085,140.0051 78.9245,139.9881 79.0235,139.9531 L79.6245,139.7421 Z M76.9795,149.2801 C76.5935,149.2801 76.2885,149.1081 76.0465,148.9421 C75.7625,148.7471 75.5225,148.5291 75.3345,148.2931 C75.1525,148.0651 74.9925,147.7841 74.8585,147.4551 C74.4695,146.4931 74.9215,146.0061 75.2265,145.8001 C76.2405,145.1131 77.1245,144.4031 77.8525,143.6911 C78.4055,143.1491 78.6935,142.2451 78.7075,141.0051 C78.6945,141.0051 78.6825,141.0051 78.6695,141.0051 C77.4985,141.0051 76.4585,140.5891 75.5775,139.7681 C74.6765,138.9311 74.2185,137.6581 74.2185,135.9861 C74.2185,134.5841 74.7015,133.2941 75.6555,132.1521 C76.6545,130.9571 77.9545,130.3501 79.5205,130.3501 C81.2625,130.3501 82.6775,131.0581 83.7245,132.4541 C84.7035,133.7621 85.1995,135.3961 85.1995,137.3101 C85.1995,139.9061 84.4865,142.2401 83.0795,144.2451 C81.6845,146.2371 79.8475,147.8561 77.4645,149.1941 C77.2895,149.2551 77.1295,149.2801 76.9795,149.2801 Z" id="Fill-71" fill="#FFFFFF"></path>
            </g>
            <g id="Group-76" transform="translate(93.000000, 107.308000)">
                <mask id="mask-14" fill="white">
                    <use xlink:href="#path-13"></use>
                </mask>
                <g id="Clip-75"></g>
                <polygon id="Fill-74" fill="#9452BA" mask="url(#mask-14)" points="-4.015 22.078 14.956 22.078 14.956 -4.867 -4.015 -4.867"></polygon>
            </g>
            <g id="Group-79" transform="translate(83.000000, 107.308000)">
                <mask id="mask-16" fill="white">
                    <use xlink:href="#path-15"></use>
                </mask>
                <g id="Clip-78"></g>
                <polygon id="Fill-77" fill="#9452BA" mask="url(#mask-16)" points="-4.925 22.078 14.049 22.078 14.049 -4.867 -4.925 -4.867"></polygon>
            </g>
            <g id="Group-82" transform="translate(146.000000, 157.308000)">
                <mask id="mask-18" fill="white">
                    <use xlink:href="#path-17"></use>
                </mask>
                <g id="Clip-81"></g>
                <polygon id="Fill-80" fill="#9452BA" mask="url(#mask-18)" points="-4.703 22.292 14.28 22.292 14.28 -4.65 -4.703 -4.65"></polygon>
            </g>
            <g id="Group-85" transform="translate(157.000000, 157.308000)">
                <mask id="mask-20" fill="white">
                    <use xlink:href="#path-19"></use>
                </mask>
                <g id="Clip-84"></g>
                <polygon id="Fill-83" fill="#9452BA" mask="url(#mask-20)" points="-4.782 22.292 14.199 22.292 14.199 -4.65 -4.782 -4.65"></polygon>
            </g>
            <g id="Group-88" transform="translate(109.000000, 39.308000)">
                <mask id="mask-22" fill="white">
                    <use xlink:href="#path-21"></use>
                </mask>
                <g id="Clip-87"></g>
                <polygon id="Fill-86" fill="#9452BA" mask="url(#mask-22)" points="-8.2046 8.6479 23.4884 -7.5011 39.6324 24.1829 7.9394 40.3309"></polygon>
            </g>
        </g>
    </g>
</svg>