<svg xmlns="http://www.w3.org/2000/svg" xmlns:xlink="http://www.w3.org/1999/xlink" width="256" height="256" viewBox="0 0 256 256">
  <defs>
    <path id="noresults-a" d="M129.47,84.27 C129.039,86.818 127.954,89.763 126.552,92.402 L126.552,92.402 C123.568,92.006 120.57,91.159 118.223,90.023 L118.223,90.023 C116.282,89.065 114.068,87.609 111.969,85.919 L111.969,85.919 C111.986,86.134 112.004,86.37 112.021,86.585 L112.021,86.585 C112.02,86.649 112.04,86.714 112.039,86.779 L112.039,86.779 C112.058,86.929 112.055,87.101 112.074,87.251 L112.074,87.251 C112.073,87.316 112.092,87.403 112.091,87.467 L112.091,87.467 C112.11,87.618 112.13,87.79 112.148,87.941 L112.148,87.941 C112.147,88.005 112.168,88.07 112.166,88.134 L112.166,88.134 C112.184,88.328 112.202,88.543 112.241,88.736 L112.241,88.736 C112.279,89.038 112.297,89.253 112.335,89.49 L112.335,89.49 C112.375,89.749 112.394,89.942 112.432,90.136 L112.432,90.136 C112.431,90.179 112.453,90.222 112.452,90.266 L112.452,90.266 C112.491,90.459 112.51,90.632 112.549,90.825 L112.549,90.825 C112.548,90.869 112.57,90.89 112.569,90.933 L112.569,90.933 C112.608,91.148 112.648,91.364 112.687,91.559 L112.687,91.559 C112.826,92.227 112.987,92.874 113.169,93.5 L113.169,93.5 C113.474,94.558 113.823,95.531 114.239,96.375 L114.239,96.375 C114.301,96.504 114.364,96.613 114.427,96.744 L114.427,96.744 C114.488,96.873 114.529,96.981 114.592,97.089 L114.592,97.089 C114.653,97.22 114.717,97.329 114.779,97.437 L114.779,97.437 C114.885,97.61 114.968,97.741 115.051,97.871 L115.051,97.871 C115.094,97.936 115.094,97.958 115.115,97.958 L115.115,97.958 C115.22,98.088 115.325,98.241 115.43,98.372 L115.43,98.372 C115.515,98.459 115.578,98.546 115.662,98.634 L115.662,98.634 C115.705,98.677 115.726,98.699 115.769,98.743 L115.769,98.743 C115.81,98.787 115.875,98.831 115.916,98.896 L115.916,98.896 C115.958,98.94 115.98,98.961 116.022,99.005 L116.022,99.005 C116.064,99.049 116.106,99.092 116.171,99.136 L116.171,99.136 C116.212,99.158 116.255,99.202 116.276,99.224 L116.276,99.224 C116.318,99.268 116.382,99.311 116.426,99.334 L116.426,99.334 C116.467,99.356 116.51,99.378 116.531,99.422 L116.531,99.422 C116.574,99.465 116.637,99.488 116.702,99.532 L116.702,99.532 C116.743,99.554 116.786,99.577 116.808,99.598 L116.808,99.598 C116.872,99.621 116.936,99.665 117,99.688 L117,99.688 C117.021,99.709 117.064,99.71 117.085,99.733 L117.085,99.733 C117.171,99.777 117.277,99.822 117.362,99.844 L117.362,99.844 C117.427,99.867 117.492,99.889 117.533,99.912 L117.533,99.912 C122.2,101.389 127.006,99.67 132.568,104.083 L132.568,104.083 C132.197,96.968 136.355,94.226 137.899,89.592 L137.899,89.592 C137.899,89.528 137.923,89.443 137.947,89.357 L137.947,89.357 C137.971,89.25 138.015,89.144 138.016,89.036 L138.016,89.036 C138.276,87.753 137.829,86.198 136.889,84.57 L136.889,84.57 C136.784,84.419 136.701,84.289 136.618,84.137 L136.618,84.137 C136.471,83.898 136.303,83.637 136.114,83.376 L136.114,83.376 C136.093,83.354 136.072,83.332 136.051,83.289 L136.051,83.289 C136.009,83.224 135.946,83.158 135.904,83.093 L135.904,83.093 C135.862,83.028 135.799,82.94 135.757,82.876 L135.757,82.876 C135.715,82.811 135.652,82.745 135.61,82.68 L135.61,82.68 C135.546,82.615 135.505,82.527 135.442,82.463 L135.442,82.463 C135.399,82.418 135.357,82.354 135.315,82.31 L135.315,82.31 C133.821,80.393 131.852,78.491 129.772,76.821 L129.772,76.821 C129.919,79.488 129.829,82.171 129.47,84.27 L129.47,84.27 Z"/>
  </defs>
  <g fill="none" fill-rule="evenodd">
    <path fill="#5E63B6" d="M220.9019,44.9998 C220.3489,44.9998 219.9019,44.5518 219.9019,43.9998 L219.9019,36.9998 C219.9019,36.4478 220.3489,35.9998 220.9019,35.9998 C221.4549,35.9998 221.9019,36.4478 221.9019,36.9998 L221.9019,43.9998 C221.9019,44.5518 221.4549,44.9998 220.9019,44.9998"/>
    <path fill="#5E63B6" d="M224.4019 41.4998L217.4019 41.4998C216.8489 41.4998 216.4019 41.0518 216.4019 40.4998 216.4019 39.9478 216.8489 39.4998 217.4019 39.4998L224.4019 39.4998C224.9549 39.4998 225.4019 39.9478 225.4019 40.4998 225.4019 41.0518 224.9549 41.4998 224.4019 41.4998M14.4272 199.1668C14.1512 199.1668 13.9272 198.9428 13.9272 198.6668L13.9272 194.7298C13.9272 194.4528 14.1512 194.2298 14.4272 194.2298 14.7032 194.2298 14.9272 194.4528 14.9272 194.7298L14.9272 198.6668C14.9272 198.9428 14.7032 199.1668 14.4272 199.1668"/>
    <path fill="#5E63B6" d="M16.396 197.1981L12.458 197.1981C12.182 197.1981 11.959 196.9741 11.959 196.6981 11.959 196.4221 12.182 196.1981 12.458 196.1981L16.396 196.1981C16.672 196.1981 16.896 196.4221 16.896 196.6981 16.896 196.9741 16.672 197.1981 16.396 197.1981M242.4937 180.4495C242.2177 180.4495 241.9937 180.2255 241.9937 179.9495L241.9937 176.0125C241.9937 175.7355 242.2177 175.5125 242.4937 175.5125 242.7697 175.5125 242.9937 175.7355 242.9937 176.0125L242.9937 179.9495C242.9937 180.2255 242.7697 180.4495 242.4937 180.4495"/>
    <path fill="#5E63B6" d="M244.4624 178.4808L240.5244 178.4808C240.2484 178.4808 240.0254 178.2568 240.0254 177.9808 240.0254 177.7048 240.2484 177.4808 240.5244 177.4808L244.4624 177.4808C244.7384 177.4808 244.9624 177.7048 244.9624 177.9808 244.9624 178.2568 244.7384 178.4808 244.4624 178.4808M44.0044 64.452C43.7284 64.452 43.5044 64.228 43.5044 63.952L43.5044 60.015C43.5044 59.738 43.7284 59.515 44.0044 59.515 44.2804 59.515 44.5044 59.738 44.5044 60.015L44.5044 63.952C44.5044 64.228 44.2804 64.452 44.0044 64.452"/>
    <path fill="#5E63B6" d="M45.9731 62.4832L42.0351 62.4832C41.7591 62.4832 41.5361 62.2592 41.5361 61.9832 41.5361 61.7072 41.7591 61.4832 42.0351 61.4832L45.9731 61.4832C46.2491 61.4832 46.4731 61.7072 46.4731 61.9832 46.4731 62.2592 46.2491 62.4832 45.9731 62.4832M26.5562 115.7093C26.0032 115.7093 25.5562 115.2613 25.5562 114.7093L25.5562 106.5843C25.5562 106.0323 26.0032 105.5843 26.5562 105.5843 27.1092 105.5843 27.5562 106.0323 27.5562 106.5843L27.5562 114.7093C27.5562 115.2613 27.1092 115.7093 26.5562 115.7093"/>
    <path fill="#5E63B6" d="M30.6187,111.6468 L22.4937,111.6468 C21.9407,111.6468 21.4937,111.1988 21.4937,110.6468 C21.4937,110.0948 21.9407,109.6468 22.4937,109.6468 L30.6187,109.6468 C31.1717,109.6468 31.6187,110.0948 31.6187,110.6468 C31.6187,111.1988 31.1717,111.6468 30.6187,111.6468"/>
    <path fill="#E1F2FF" d="M24.001,235.147 L231.12,235.147 C231.12,177.948 184.76,131.588 127.56,131.588 L127.56,131.588 C70.36,131.588 24.001,177.948 24.001,235.147 L24.001,235.147 Z"/>
    <path fill="#5E63B6" d="M244.001,225.589 C243.45,225.589 243.001,226.038 243.001,226.589 L243.001,226.589 C243.001,227.138 243.45,227.588 244.001,227.588 L244.001,227.588 L252.97,227.588 C253.53,227.588 253.97,227.138 253.97,226.589 L253.97,226.589 C253.97,226.038 253.53,225.589 252.97,225.589 L252.97,225.589 L244.001,225.589 Z M20,225.589 C19.45,225.589 19.001,226.038 19.001,226.589 L19.001,226.589 C19.001,227.138 19.45,227.588 20,227.588 L20,227.588 L237.9,227.588 C238.449,227.588 238.9,227.138 238.9,226.589 L238.9,226.589 C238.9,226.038 238.449,225.589 237.9,225.589 L237.9,225.589 L20,225.589 Z M3,225.589 C2.449,225.589 2,226.038 2,226.589 L2,226.589 C2,227.138 2.449,227.588 3,227.588 L3,227.588 L11.971,227.588 C12.529,227.588 12.971,227.138 12.971,226.589 L12.971,226.589 C12.971,226.038 12.529,225.589 11.971,225.589 L11.971,225.589 L3,225.589 Z M81.33,234.308 C80.78,234.308 80.35,234.768 80.35,235.308 L80.35,235.308 C80.35,235.868 80.8,236.308 81.35,236.308 L81.35,236.308 L86.35,236.227 C86.921,236.227 87.35,235.768 87.35,235.228 L87.35,235.228 C87.329,234.668 86.9,234.228 86.329,234.228 L86.329,234.228 L81.33,234.308 Z M170.039,234.308 C169.48,234.308 169.039,234.758 169.039,235.308 L169.039,235.308 C169.039,235.859 169.48,236.308 170.039,236.308 L170.039,236.308 L179.18,236.308 C179.73,236.308 180.181,235.859 180.181,235.308 L180.181,235.308 C180.181,234.758 179.73,234.308 179.18,234.308 L179.18,234.308 L170.039,234.308 Z M94.22,234.308 C93.68,234.308 93.22,234.758 93.22,235.308 L93.22,235.308 C93.22,235.859 93.68,236.308 94.22,236.308 L94.22,236.308 L161.42,236.308 C161.97,236.308 162.42,235.859 162.42,235.308 L162.42,235.308 C162.42,234.758 161.97,234.308 161.42,234.308 L161.42,234.308 L94.22,234.308 Z"/>
    <path fill="#FFF" d="M63.137,44.149 C61.48,44.149 60.137,45.491 60.137,47.148 L60.137,47.148 L60.137,224.149 C60.137,225.805 61.48,227.148 63.137,227.148 L63.137,227.148 L190.137,227.148 C191.793,227.148 193.137,225.805 193.137,224.149 L193.137,224.149 L193.137,47.148 C193.137,45.491 191.793,44.149 190.137,44.149 L190.137,44.149 L63.137,44.149 Z"/>
    <path fill="#5E63B6" d="M64.1372,46.1483 C63.0342,46.1483 62.1372,47.0453 62.1372,48.1483 L62.1372,223.1483 C62.1372,225.1483 62.1372,225.1483 64.1372,225.1483 L189.1372,225.1483 C191.1372,225.1483 191.1372,225.1483 191.1372,223.1483 L191.1372,48.1483 C191.1372,47.0453 190.2402,46.1483 189.1372,46.1483 L64.1372,46.1483 Z M189.1372,227.1483 L64.1372,227.1483 C60.8852,227.1483 60.1372,226.4003 60.1372,223.1483 L60.1372,48.1483 C60.1372,45.9423 61.9312,44.1483 64.1372,44.1483 L189.1372,44.1483 C191.3432,44.1483 193.1372,45.9423 193.1372,48.1483 L193.1372,223.1483 C193.1372,226.3633 192.3522,227.1483 189.1372,227.1483 L189.1372,227.1483 Z"/>
    <path fill="#5E63B6" d="M167.0581 154.9481L119.4651 154.9481C118.9121 154.9481 118.4651 154.5001 118.4651 153.9481 118.4651 153.3961 118.9121 152.9481 119.4651 152.9481L167.0581 152.9481C167.6111 152.9481 168.0581 153.3961 168.0581 153.9481 168.0581 154.5001 167.6111 154.9481 167.0581 154.9481M167.0591 170.8553L86.1731 170.8553C85.6211 170.8553 85.1731 170.4073 85.1731 169.8553 85.1731 169.3033 85.6211 168.8553 86.1731 168.8553L167.0591 168.8553C167.6121 168.8553 168.0591 169.3033 168.0591 169.8553 168.0591 170.4073 167.6121 170.8553 167.0591 170.8553M167.0591 188.0696L86.1731 188.0696C85.6211 188.0696 85.1731 187.6216 85.1731 187.0696 85.1731 186.5176 85.6211 186.0696 86.1731 186.0696L167.0591 186.0696C167.6121 186.0696 168.0591 186.5176 168.0591 187.0696 168.0591 187.6216 167.6121 188.0696 167.0591 188.0696M137.0728 205.2835L86.1738 205.2835C85.6208 205.2835 85.1738 204.8355 85.1738 204.2835 85.1738 203.7315 85.6208 203.2835 86.1738 203.2835L137.0728 203.2835C137.6258 203.2835 138.0728 203.7315 138.0728 204.2835 138.0728 204.8355 137.6258 205.2835 137.0728 205.2835"/>
    <path fill="#9452BA" d="M103.116 144.464C100.881 145.756 99.133 147.307 97.874 149.12L97.874 149.12C96.615 150.932 95.985 153.034 95.985 155.43L95.985 155.43C95.985 157.131 96.41 158.549 97.26 159.682L97.26 159.682C98.109 160.817 99.244 161.385 100.658 161.385L100.658 161.385C101.917 161.385 102.949 160.905 103.751 159.944L103.751 159.944C104.555 158.984 104.956 157.919 104.956 156.755L104.956 156.755C104.956 155.368 104.609 154.353 103.916 153.706L103.916 153.706C103.225 153.059 102.421 152.736 101.508 152.736L101.508 152.736C101.351 152.736 101.215 152.76 101.107 152.807L101.107 152.807C100.998 152.855 100.895 152.878 100.8 152.878L100.8 152.878C100.674 152.878 100.587 152.799 100.54 152.642L100.54 152.642C100.492 152.485 100.469 152.214 100.469 151.838L100.469 151.838C100.469 150.578 100.895 149.451 101.746 148.46L101.746 148.46C102.595 147.467 103.476 146.687 104.391 146.119L104.391 146.119C104.484 146.089 104.476 145.939 104.367 145.67L104.367 145.67C104.258 145.402 104.156 145.207 104.06 145.08L104.06 145.08C103.966 144.953 103.809 144.805 103.589 144.631L103.589 144.631C103.426 144.503 103.298 144.441 103.204 144.441L103.204 144.441C103.17 144.441 103.141 144.449 103.116 144.464L103.116 144.464zM92.208 144.464C89.973 145.756 88.225 147.307 86.965 149.12L86.965 149.12C85.705 150.934 85.075 153.036 85.075 155.43L85.075 155.43C85.075 157.131 85.501 158.549 86.348 159.682L86.348 159.682C87.199 160.817 88.334 161.385 89.75 161.385L89.75 161.385C91.01 161.385 92.041 160.905 92.842 159.944L92.842 159.944C93.647 158.984 94.048 157.919 94.048 156.755L94.048 156.755C94.048 155.368 93.701 154.353 93.009 153.706L93.009 153.706C92.317 153.059 91.514 152.736 90.6 152.736L90.6 152.736C90.442 152.736 90.309 152.76 90.199 152.807L90.199 152.807C90.09 152.855 89.987 152.878 89.892 152.878L89.892 152.878C89.765 152.878 89.679 152.799 89.633 152.642L89.633 152.642C89.585 152.485 89.561 152.214 89.561 151.838L89.561 151.838C89.561 150.578 89.987 149.451 90.838 148.46L90.838 148.46C91.687 147.467 92.568 146.687 93.483 146.119L93.483 146.119C93.575 146.089 93.568 145.939 93.459 145.67L93.459 145.67C93.352 145.402 93.248 145.207 93.152 145.08L93.152 145.08C93.056 144.953 92.901 144.805 92.68 144.631L92.68 144.631C92.518 144.503 92.389 144.441 92.295 144.441L92.295 144.441C92.262 144.441 92.233 144.449 92.208 144.464L92.208 144.464zM149.502 196.101C148.699 197.064 148.297 198.127 148.297 199.294L148.297 199.294C148.297 200.683 148.644 201.7 149.339 202.344L149.339 202.344C150.032 202.991 150.834 203.314 151.75 203.314L151.75 203.314C151.907 203.314 152.039 203.291 152.152 203.243L152.152 203.243C152.263 203.195 152.363 203.172 152.46 203.172L152.46 203.172C152.587 203.172 152.674 203.251 152.719 203.409L152.719 203.409C152.768 203.567 152.791 203.836 152.791 204.214L152.791 204.214C152.791 205.79 152.404 206.959 151.633 207.714L151.633 207.714C150.859 208.471 149.939 209.211 148.867 209.937L148.867 209.937C148.771 210.001 148.771 210.151 148.867 210.386L148.867 210.386C148.962 210.621 149.073 210.82 149.197 210.976L149.197 210.976C149.321 211.135 149.488 211.285 149.694 211.425L149.694 211.425C149.9 211.568 150.049 211.623 150.143 211.592L150.143 211.592C152.317 210.361 154.049 208.824 155.342 206.98L155.342 206.98C156.634 205.135 157.281 203.014 157.281 200.618L157.281 200.618C157.281 198.915 156.855 197.497 156.006 196.362L156.006 196.362C155.151 195.226 154.018 194.658 152.599 194.658L152.599 194.658C151.339 194.658 150.307 195.139 149.502 196.101L149.502 196.101zM160.423 196.101C159.618 197.064 159.219 198.127 159.219 199.294L159.219 199.294C159.219 200.683 159.565 201.7 160.259 202.344L160.259 202.344C160.954 202.991 161.756 203.314 162.669 203.314L162.669 203.314C162.828 203.314 162.96 203.291 163.071 203.243L163.071 203.243C163.181 203.195 163.285 203.172 163.378 203.172L163.378 203.172C163.504 203.172 163.59 203.251 163.639 203.409L163.639 203.409C163.686 203.567 163.709 203.836 163.709 204.214L163.709 204.214C163.709 205.79 163.322 206.959 162.551 207.714L162.551 207.714C161.777 208.471 160.858 209.211 159.786 209.937L159.786 209.937C159.69 210.001 159.69 210.151 159.786 210.386L159.786 210.386C159.88 210.621 159.991 210.82 160.116 210.976L160.116 210.976C160.243 211.135 160.407 211.285 160.613 211.425L160.613 211.425C160.818 211.568 160.967 211.623 161.061 211.592L161.061 211.592C163.234 210.361 164.968 208.824 166.26 206.98L166.26 206.98C167.554 205.137 168.2 203.016 168.2 200.618L168.2 200.618C168.2 198.915 167.774 197.497 166.924 196.362L166.924 196.362C166.072 195.226 164.937 194.658 163.52 194.658L163.52 194.658C162.258 194.658 161.227 195.139 160.423 196.101L160.423 196.101z"/>
    <path fill="#E1F2FF" d="M125.6372,63.6077 C109.0012,63.6077 95.4662,77.1517 95.4662,93.7987 C95.4662,110.4467 109.0012,123.9907 125.6372,123.9907 C142.2732,123.9907 155.8082,110.4467 155.8082,93.7987 C155.8082,77.1517 142.2732,63.6077 125.6372,63.6077"/>
    <path fill="#FFF" d="M100.466,92.1074389 C100.466,106.719018 112.354154,118.607 126.966,118.607 L126.966,118.607 C141.577846,118.607 153.466,106.719018 153.466,92.1074389 L153.466,92.1074389 C153.466,77.4958594 141.577846,65.607 126.966,65.607 L126.966,65.607 C112.354154,65.607 100.466,77.4958594 100.466,92.1074389 L100.466,92.1074389 Z"/>
    <path fill="#5E63B6" d="M126.6372,66.7654 C112.8432,66.7654 101.6212,77.9954 101.6212,91.7994 C101.6212,105.6024 112.8432,116.8334 126.6372,116.8334 C140.4312,116.8334 151.6532,105.6024 151.6532,91.7994 C151.6532,77.9954 140.4312,66.7654 126.6372,66.7654 M126.6372,118.8334 C111.7412,118.8334 99.6212,106.7054 99.6212,91.7994 C99.6212,76.8924 111.7412,64.7654 126.6372,64.7654 C141.5332,64.7654 153.6532,76.8924 153.6532,91.7994 C153.6532,106.7054 141.5332,118.8334 126.6372,118.8334"/>
    <use fill="#9452BA" xlink:href="#noresults-a"/>
  </g>
</svg>
