<svg xmlns="http://www.w3.org/2000/svg" width="256" height="256" viewBox="0 0 256 256">
  <g fill="none" fill-rule="evenodd">
    <path fill="#E1F2FF" d="M22.2041,225.5328 C22.2041,168.3398 68.5681,121.9748 125.7621,121.9748 C182.9541,121.9748 229.3201,168.3398 229.3201,225.5328 L22.2041,225.5328 Z"/>
    <path fill="#FFF" d="M18.9775,216.5328 L54.9775,216.5328"/>
    <path fill="#5E63B6" d="M54.9775,217.5328 L18.9775,217.5328 C18.4255,217.5328 17.9775,217.0858 17.9775,216.5328 C17.9775,215.9798 18.4255,215.5328 18.9775,215.5328 L54.9775,215.5328 C55.5295,215.5328 55.9775,215.9798 55.9775,216.5328 C55.9775,217.0858 55.5295,217.5328 54.9775,217.5328"/>
    <path fill="#FFF" d="M194.3198,216.5328 L238.3198,216.5328"/>
    <path fill="#5E63B6" d="M238.3198,217.5328 L194.3198,217.5328 C193.7668,217.5328 193.3198,217.0858 193.3198,216.5328 C193.3198,215.9798 193.7668,215.5328 194.3198,215.5328 L238.3198,215.5328 C238.8728,215.5328 239.3198,215.9798 239.3198,216.5328 C239.3198,217.0858 238.8728,217.5328 238.3198,217.5328"/>
    <path fill="#9452BA" d="M164.2241,216.1588 L169.2031,216.1588 C170.9151,216.1588 172.4681,215.1108 173.0881,213.5148 C174.8561,208.9648 174.4151,204.7838 174.6261,201.2078 C175.0181,194.5828 173.9831,191.1878 172.9951,185.6468 L165.5211,185.8198 C165.5211,185.8198 166.1571,188.5728 166.5801,196.8318 C166.7111,199.3868 162.4891,209.6498 162.6871,214.6848 C162.7191,215.5108 163.3971,216.1588 164.2241,216.1588"/>
    <path fill="#52267D" d="M166.1226,186.3062 C166.3266,187.4982 166.7616,190.5992 167.0796,196.8062 C167.1396,197.9642 166.4466,200.3272 165.5696,203.3172 C164.4586,207.1092 163.0746,211.8272 163.1866,214.6652 C163.2086,215.2222 163.6646,215.6592 164.2246,215.6592 L169.2026,215.6592 C170.7076,215.6592 172.0816,214.7242 172.6226,213.3342 C173.9496,209.9172 174.0026,206.6522 174.0496,203.7712 C174.0636,202.8762 174.0786,202.0112 174.1276,201.1782 C174.4426,195.8362 173.8266,192.6512 173.0466,188.6192 C172.8936,187.8342 172.7366,187.0212 172.5796,186.1572 L166.1226,186.3062 Z M169.2026,216.6592 L164.2246,216.6592 C163.1246,216.6592 162.2296,215.8002 162.1866,214.7042 C162.0686,211.7032 163.4196,207.0992 164.6106,203.0352 C165.3936,200.3672 166.1326,197.8462 166.0816,196.8572 C165.6666,188.7662 165.0396,185.9592 165.0336,185.9322 L164.8966,185.3342 L173.4126,185.1372 L173.4876,185.5592 C173.6696,186.5772 173.8516,187.5232 174.0276,188.4292 C174.8216,192.5312 175.4486,195.7702 175.1256,201.2372 C175.0776,202.0562 175.0636,202.9072 175.0496,203.7862 C175.0006,206.7522 174.9456,210.1132 173.5546,213.6962 C172.8656,215.4682 171.1166,216.6592 169.2026,216.6592 L169.2026,216.6592 Z"/>
    <path fill="#9452BA" d="M149.729,192.4898 L143.717,185.6728 L140.005,185.8198 C140.005,185.8198 139.485,191.4908 139.271,193.8658 C138.895,198.0518 137.161,206.2538 136.095,209.8528 C135.749,211.0238 135.547,212.1178 135.491,213.1098 C135.397,214.7798 136.79,216.1588 138.461,216.1588 L142.873,216.1588 C145.442,216.1588 147.726,214.4438 148.358,211.9538 C150.324,204.1998 149.729,192.4898 149.729,192.4898"/>
    <path fill="#52267D" d="M140.4634,186.3023 C140.3374,187.6753 139.9464,191.9343 139.7694,193.9103 C139.4014,198.0023 137.7054,206.1753 136.5744,209.9943 C136.2414,211.1203 136.0444,212.1783 135.9894,213.1383 C135.9534,213.7793 136.1834,214.3953 136.6344,214.8723 C137.1074,215.3723 137.7734,215.6583 138.4614,215.6583 L142.8724,215.6583 C145.2444,215.6583 147.3014,214.0843 147.8734,211.8303 C149.6684,204.7483 149.2994,194.1663 149.2374,192.6883 L143.4994,186.1813 L140.4634,186.3023 Z M142.8724,216.6583 L138.4614,216.6583 C137.4984,216.6583 136.5674,216.2583 135.9074,215.5603 C135.2654,214.8803 134.9404,214.0003 134.9914,213.0813 C135.0504,212.0443 135.2614,210.9093 135.6154,209.7113 C136.7344,205.9343 138.4104,197.8603 138.7734,193.8213 C138.9864,191.4463 139.5074,185.7743 139.5074,185.7743 L139.5474,185.3373 L143.9354,185.1633 L150.2194,192.2893 L150.2284,192.4643 C150.2344,192.5823 150.8044,204.3393 148.8424,212.0763 C148.1574,214.7753 145.7024,216.6583 142.8724,216.6583 L142.8724,216.6583 Z"/>
    <polygon fill="#52267D" points="141.207 199.061 140.095 198.06 141.194 197.096 141.357 197.284 140.472 198.062 141.26 198.772 142.609 198.253 142.398 197.79 141.315 198.047 141.524 198.038 141.536 198.288 141.077 198.309 141.056 197.851 142.541 197.499 142.947 198.392"/>
    <path fill="#9452BA" d="M141.312,167.1031 C145.691,167.0131 149.795,163.9981 158.732,163.5851 C158.861,163.0011 159.018,162.4741 159.218,162.0411 C160.835,158.5401 163.118,148.4491 161.652,141.8191 L160.492,136.5741 C160.111,134.8531 159.919,133.0951 159.919,131.3321 C159.919,130.5981 159.994,129.8811 160.135,129.1891 C160.17,129.0161 160.21,128.8441 160.254,128.6741 C160.385,128.1651 160.553,127.6691 160.755,127.1931 C160.823,127.0341 160.893,126.8761 160.968,126.7211 C161.118,126.4121 161.282,126.1101 161.459,125.8171 C161.637,125.5251 161.829,125.2421 162.033,124.9691 C162.645,124.1491 163.373,123.4221 164.192,122.8091 C164.465,122.6051 164.749,122.4141 165.041,122.2361 C166.649,121.2591 168.537,120.6961 170.556,120.6961 L172.3,120.6961 C175.238,120.6961 177.897,121.8871 179.822,123.8111 C180.062,124.0521 180.291,124.3041 180.508,124.5671 C180.902,125.0441 181.252,125.5581 181.559,126.1001 C181.674,126.3031 181.786,126.5101 181.888,126.7211 C181.962,126.8761 182.034,127.0341 182.101,127.1931 C182.302,127.6691 182.471,128.1651 182.602,128.6741 C182.733,129.1841 182.828,129.7081 182.882,130.2461 C182.918,130.6031 182.937,130.9651 182.937,131.3321 C182.937,132.0651 182.64,132.7281 182.16,133.2071 C181.68,133.6881 181.017,133.9851 180.285,133.9851 L169.395,133.9851 L171.043,143.4371 C172.978,153.1471 172.396,159.6401 170.898,163.9691 C170.564,164.9341 168.662,168.3541 168.662,168.3541 C174.107,176.9471 182.458,180.7031 191.386,181.7921 C198.978,182.7201 215.365,175.7971 206.916,167.7901 C198.467,159.7821 208.676,164.7611 210.18,165.7751 C211.683,166.7881 220.373,174.2961 210.941,185.3131 C206.954,189.9721 202.436,194.2071 191.567,197.4541 C189.824,197.9741 180.311,198.6661 175.191,200.1351 C159.946,204.5121 147.551,199.7531 140.606,189.6901 C133.689,179.6661 139.583,167.1381 141.312,167.1031"/>
    <path fill="#52267D" d="M141.4767,168.0991 C140.9957,168.4751 139.6647,170.5551 138.8807,173.9681 C138.1417,177.1791 137.4917,183.4171 141.4297,189.1221 C148.6287,199.5531 160.8327,203.2181 174.9147,199.1741 C178.1807,198.2371 183.1717,197.6121 186.8157,197.1551 C188.8147,196.9051 190.7037,196.6671 191.2807,196.4961 C202.1667,193.2441 206.4327,189.0421 210.1807,184.6631 C213.2987,181.0221 214.6447,177.4541 214.1827,174.0571 C213.6467,170.1031 210.7087,167.3361 209.6217,166.6041 C208.8297,166.0711 206.5867,164.9911 205.1797,164.5301 C205.6037,165.0571 206.3377,165.8631 207.6037,167.0641 C210.8837,170.1711 210.5547,172.9821 209.7027,174.7921 C207.1837,180.1411 196.7387,183.4541 191.2647,182.7851 C180.7347,181.4991 172.8457,176.8251 167.8167,168.8891 L167.4987,168.3871 L167.7877,167.8681 C168.5077,166.5751 169.7307,164.2851 169.9527,163.6421 C171.6787,158.6571 171.7157,151.9251 170.0627,143.6321 L168.2057,132.9851 L180.2847,132.9851 C180.7257,132.9851 181.1397,132.8131 181.4517,132.5011 C181.7647,132.1881 181.9367,131.7741 181.9367,131.3321 C181.9367,130.9991 181.9207,130.6701 181.8877,130.3461 C181.8387,129.8691 181.7537,129.3901 181.6337,128.9231 C181.5177,128.4721 181.3647,128.0201 181.1797,127.5811 C181.1187,127.4371 181.0537,127.2941 180.9857,127.1531 C180.8957,126.9661 180.7947,126.7781 180.6887,126.5931 C180.4077,126.0961 180.0877,125.6291 179.7367,125.2031 C179.5407,124.9651 179.3317,124.7361 179.1137,124.5181 C177.2947,122.6991 174.8747,121.6961 172.3007,121.6961 L170.5557,121.6961 C168.7887,121.6961 167.0607,122.1781 165.5597,123.0901 C165.2957,123.2511 165.0387,123.4251 164.7907,123.6101 C164.0477,124.1661 163.3887,124.8251 162.8337,125.5671 C162.6487,125.8151 162.4747,126.0721 162.3137,126.3361 C162.1527,126.6011 162.0047,126.8751 161.8687,127.1561 C161.8007,127.2971 161.7367,127.4391 161.6767,127.5821 C161.4927,128.0161 161.3407,128.4661 161.2227,128.9231 C161.1827,129.0781 161.1467,129.2331 161.1147,129.3881 C160.9847,130.0241 160.9197,130.6771 160.9197,131.3321 C160.9197,133.0221 161.1037,134.7121 161.4687,136.3581 L162.6287,141.6031 C164.1437,148.4571 161.8047,158.8261 160.1267,162.4601 C159.9707,162.7951 159.8307,163.2461 159.7087,163.8011 L159.5437,164.5491 L158.7777,164.5841 C153.7497,164.8161 150.2317,165.9121 147.4047,166.7911 C145.2687,167.4561 143.4177,168.0341 141.4767,168.0991 L141.4767,168.0991 Z M164.2957,202.7411 C154.1577,202.7411 145.4037,198.4031 139.7827,190.2581 C134.2677,182.2661 136.4417,173.0141 138.5957,168.8071 C139.9677,166.1301 140.9647,166.1101 141.2917,166.1031 C143.0027,166.0681 144.6827,165.5441 146.8097,164.8821 C149.6067,164.0111 153.0547,162.9381 157.9427,162.6271 C158.0537,162.2481 158.1757,161.9141 158.3107,161.6221 C159.8467,158.2941 162.0747,148.3651 160.6757,142.0351 L159.5147,136.7891 C159.1197,135.0031 158.9197,133.1671 158.9197,131.3321 C158.9197,130.5431 158.9987,129.7541 159.1557,128.9891 C159.1937,128.7991 159.2377,128.6111 159.2867,128.4241 C159.4287,127.8721 159.6127,127.3271 159.8347,126.8021 C159.9087,126.6281 159.9857,126.4561 160.0677,126.2861 C160.2307,125.9481 160.4107,125.6181 160.6047,125.2981 C160.7997,124.9781 161.0087,124.6681 161.2317,124.3701 C161.9017,123.4741 162.6957,122.6791 163.5937,122.0081 C163.8917,121.7851 164.2017,121.5761 164.5207,121.3821 C166.3357,120.2791 168.4227,119.6961 170.5557,119.6961 L172.3007,119.6961 C175.4087,119.6961 178.3317,120.9071 180.5287,123.1041 C180.7927,123.3681 181.0427,123.6431 181.2797,123.9301 C181.7047,124.4471 182.0917,125.0111 182.4297,125.6081 C182.5547,125.8291 182.6757,126.0541 182.7877,126.2841 C182.8717,126.4581 182.9487,126.6301 183.0217,126.8031 C183.2457,127.3331 183.4297,127.8791 183.5707,128.4251 C183.7157,128.9891 183.8187,129.5681 183.8777,130.1441 C183.9167,130.5361 183.9367,130.9311 183.9367,131.3321 C183.9367,132.3091 183.5567,133.2261 182.8657,133.9151 C182.1787,134.6051 181.2617,134.9851 180.2847,134.9851 L170.5847,134.9851 L172.0287,143.2651 C173.7467,151.8871 173.6857,158.9711 171.8437,164.2961 C171.5617,165.1071 170.3917,167.2801 169.8267,168.3131 C174.5317,175.4171 181.8237,179.6181 191.5077,180.8001 C196.7067,181.4251 205.9347,178.0971 207.8927,173.9411 C208.7357,172.1511 208.1917,170.3761 206.2287,168.5151 C202.8847,165.3461 202.0437,163.9161 202.8967,162.8531 C204.3817,160.9971 210.6777,164.9041 210.7387,164.9461 C212.3477,166.0301 215.5527,169.2731 216.1657,173.7891 C216.7067,177.7751 215.2047,181.8711 211.7007,185.9631 C207.9077,190.3951 203.2517,195.0061 191.8527,198.4121 C191.1167,198.6311 189.4167,198.8441 187.0637,199.1391 C183.4847,199.5881 178.5837,200.2031 175.4667,201.0961 C171.6227,202.2001 167.8727,202.7411 164.2957,202.7411 L164.2957,202.7411 Z"/>
    <path fill="#9452BA" d="M150.771,152.6324 C151.121,141.3724 142.184,132.5234 132.027,130.6534 C129.918,130.2654 129.233,129.6034 126.926,129.6034 L125.159,129.6034 C119.208,129.6034 114.383,134.4284 114.383,140.3794 C114.383,141.8624 115.586,143.0664 117.069,143.0664 C117.069,143.0664 135.189,143.0614 135.274,143.0534 C135.275,143.0534 136.75,143.0544 136.75,143.0544 C136.749,143.0564 135.272,143.0574 135.27,143.0594 C139.277,144.7604 141.77,149.8804 142.21,152.6324 C142.836,156.5504 142.377,159.7824 141.041,162.3974 C140.15,164.1384 140.049,166.2364 140.187,167.9354 C140.187,167.9354 140.23,167.9494 140.29,167.9704 C140.353,168.8784 140.5,169.9114 140.77,171.0904 C142.477,169.9014 145.13,168.1114 145.615,167.8564 C146.662,167.3034 149.026,166.0454 150.084,165.4404 C156.842,161.5654 150.573,159.0364 150.771,152.6324"/>
    <path fill="#52267D" d="M140.6626,167.5699 L140.7656,167.6049 L140.7886,167.9349 C140.8396,168.6669 140.9446,169.4429 141.1026,170.2519 C142.7376,169.1239 144.9146,167.6609 145.3816,167.4139 C145.7076,167.2419 148.6056,165.7099 149.8356,165.0069 C153.6586,162.8139 152.9976,161.3509 151.7986,158.6969 C151.0836,157.1119 150.1926,155.1409 150.2706,152.6169 C150.6346,140.9289 141.0956,132.8309 131.9356,131.1449 C131.1026,130.9919 130.4736,130.7939 129.9176,130.6189 C129.0376,130.3419 128.2766,130.1029 126.9256,130.1029 L125.1596,130.1029 C119.4926,130.1029 114.8826,134.7139 114.8826,140.3799 C114.8826,141.5859 115.8636,142.5659 117.0696,142.5659 C123.2386,142.5639 134.9796,142.5589 135.2586,142.5529 L137.9566,142.5549 L137.1036,143.4079 C137.0786,143.4329 137.0586,143.4539 137.0356,143.4709 C140.2606,145.7059 142.2916,149.9719 142.7046,152.5529 C143.3256,156.4409 142.9156,159.8299 141.4856,162.6249 C140.6736,164.2139 140.5776,166.1349 140.6626,167.5699 L140.6626,167.5699 Z M140.4476,171.9239 L140.2826,171.2019 C140.0546,170.2039 139.8976,169.2419 139.8166,168.3379 L139.7156,168.3019 L139.6886,167.9749 C139.5596,166.3869 139.6126,164.0909 140.5956,162.1699 C141.9266,159.5669 142.3036,156.3839 141.7166,152.7119 C141.2616,149.8669 138.7326,145.1279 135.1556,143.5539 C134.6286,143.5559 131.8176,143.5619 117.0696,143.5659 C115.3126,143.5659 113.8826,142.1359 113.8826,140.3799 C113.8826,134.1619 118.9416,129.1029 125.1596,129.1029 L126.9256,129.1029 C128.4306,129.1029 129.2986,129.3759 130.2176,129.6649 C130.7706,129.8399 131.3446,130.0189 132.1176,130.1609 C141.6856,131.9239 151.6506,140.4029 151.2706,152.6479 C151.1996,154.9399 152.0026,156.7169 152.7106,158.2849 C153.9086,160.9379 154.9426,163.2299 150.3326,165.8739 C149.0886,166.5859 146.1766,168.1249 145.8486,168.2989 C145.4106,168.5289 142.8486,170.2529 141.0566,171.5009 L140.4476,171.9239 Z"/>
    <path fill="#F3E3FF" d="M145.0005,165.6432 C144.9115,163.9042 144.6465,163.0112 144.8405,162.3032 C145.9635,158.2302 146.3285,156.9452 146.3285,152.6322 C146.3285,148.3472 143.8465,144.1122 140.1805,141.8592 C139.9795,141.7362 137.3415,141.5492 135.2705,143.0592 C139.2765,144.7602 141.7705,149.8802 142.2105,152.6322 C142.8365,156.5502 142.3775,159.7832 141.0415,162.3972 C140.1505,164.1382 140.0495,166.2362 140.1875,167.9352 C140.1875,167.9352 145.1035,169.7812 145.0005,165.6432"/>
    <path fill="#52267D" d="M140.4243,167.7516 C140.9703,167.9266 142.8803,168.4616 143.9643,167.6896 C144.5093,167.3026 144.7743,166.6166 144.7503,165.6526 C144.7173,164.9996 144.6593,164.4776 144.6093,164.0166 C144.5263,163.2656 144.4663,162.7226 144.5993,162.2366 L144.6293,162.1266 C145.7133,158.1956 146.0783,156.8716 146.0783,152.6326 C146.0783,148.4686 143.7123,144.3226 140.0493,142.0716 C139.7873,141.9806 137.6203,141.8846 135.7793,143.0186 C139.5873,144.8966 142.0053,149.7716 142.4573,152.5936 C143.0703,156.4266 142.6683,159.7636 141.2643,162.5106 C140.3933,164.2136 140.3203,166.2706 140.4243,167.7516 M142.4193,168.5966 C141.2573,168.5966 140.1683,168.1946 140.0993,168.1696 L139.9503,168.1136 L139.9383,167.9556 C139.8123,166.3996 139.8623,164.1526 140.8193,162.2826 C142.1733,159.6316 142.5593,156.3976 141.9633,152.6716 C141.5133,149.8596 139.0433,144.9336 135.1723,143.2896 L134.7663,143.1166 L135.1223,142.8566 C137.2553,141.3036 139.9993,141.4546 140.3113,141.6466 C144.1183,143.9856 146.5783,148.2986 146.5783,152.6326 C146.5783,156.9396 146.2083,158.2796 145.1113,162.2596 L145.0813,162.3696 C144.9743,162.7626 145.0263,163.2386 145.1063,163.9616 C145.1543,164.4066 145.2163,164.9616 145.2503,165.6306 L145.2503,165.6376 C145.2783,166.7796 144.9433,167.6076 144.2533,168.0986 C143.7263,168.4746 143.0613,168.5966 142.4193,168.5966"/>
    <path fill="#FFF" d="M119.5044,131.4342 C119.5044,131.4342 119.5004,129.5522 121.3704,128.8042 C121.9414,128.5772 122.9834,128.1522 122.9834,128.1522 C122.9834,128.1522 124.0964,130.5072 122.8354,131.1022 C121.0184,131.9562 119.5044,131.4342 119.5044,131.4342"/>
    <path fill="#52267D" d="M119.7681,131.2457 C120.2081,131.3437 121.3861,131.5087 122.7281,130.8757 C123.1351,130.6837 123.2721,130.2067 123.1381,129.4567 C123.0671,129.0667 122.9371,128.6987 122.8491,128.4757 C122.5101,128.6147 121.8681,128.8747 121.4631,129.0367 C120.0951,129.5837 119.8221,130.7797 119.7681,131.2457 M120.6771,131.8447 C119.9401,131.8447 119.4581,131.6827 119.4231,131.6707 L119.2551,131.6127 L119.2541,131.4347 C119.2541,131.4147 119.2731,129.3737 121.2781,128.5717 C121.8481,128.3447 122.8891,127.9207 122.8891,127.9207 L123.1081,127.8307 L123.2091,128.0457 C123.2391,128.1087 123.9421,129.6157 123.5841,130.6127 C123.4671,130.9417 123.2501,131.1837 122.9411,131.3287 C122.0831,131.7317 121.2921,131.8447 120.6771,131.8447"/>
    <path fill="#FFF" d="M124.186,130.1109 C124.186,130.1109 124.239,127.5469 127.124,127.1729 C127.662,127.1029 129.066,127.1369 129.066,127.1369 C129.066,127.1369 129.713,129.8499 128.193,130.1109 C126.323,130.4309 124.186,130.1109 124.186,130.1109"/>
    <path fill="#52267D" d="M124.4575,129.8941 C125.0575,129.9631 126.6985,130.1141 128.1505,129.8651 C128.3875,129.8241 128.5645,129.7081 128.6955,129.5111 C129.0555,128.9661 128.9605,127.9211 128.8615,127.3831 C128.4585,127.3771 127.5515,127.3701 127.1555,127.4201 C124.9825,127.7021 124.5455,129.2961 124.4575,129.8941 M126.3155,130.5041 C125.1435,130.5041 124.2075,130.3671 124.1485,130.3581 L123.9315,130.3261 L123.9365,130.1061 C123.9365,130.0781 124.0295,127.3221 127.0915,126.9241 C127.6425,126.8541 129.0135,126.8851 129.0715,126.8871 L129.2645,126.8921 L129.3095,127.0801 C129.3265,127.1521 129.7245,128.8601 129.1125,129.7871 C128.9055,130.1011 128.6095,130.2921 128.2345,130.3571 C127.5915,130.4671 126.9225,130.5041 126.3155,130.5041"/>
    <path fill="#FFF" d="M129.9224,130.356 C129.9224,130.356 130.3024,127.512 132.8574,128.294 C133.9484,128.628 134.5544,129.458 134.5544,129.458 C134.5544,129.458 134.0454,131.624 133.0294,131.379 C131.2554,130.955 129.9224,130.356 129.9224,130.356"/>
    <path fill="#52267D" d="M130.2056,130.2047 C130.6256,130.3797 131.7306,130.8107 133.0886,131.1367 C133.2056,131.1627 133.3096,131.1437 133.4226,131.0757 C133.8516,130.8117 134.1616,129.9497 134.2806,129.5177 C134.0986,129.3087 133.5756,128.7757 132.7836,128.5337 C132.1356,128.3357 131.5906,128.3747 131.1576,128.6497 C130.5346,129.0507 130.2886,129.8457 130.2056,130.2047 M133.1896,131.6487 C133.1176,131.6487 133.0446,131.6407 132.9716,131.6227 C131.1946,131.1967 129.8756,130.6087 129.8196,130.5847 L129.6496,130.5077 L129.6746,130.3227 C129.6826,130.2647 129.8786,128.8767 130.8886,128.2287 C131.4466,127.8707 132.1336,127.8097 132.9306,128.0557 C134.0886,128.4097 134.7286,129.2737 134.7566,129.3097 L134.8236,129.4027 L134.7976,129.5157 C134.7616,129.6707 134.4186,131.0497 133.6846,131.5017 C133.5256,131.6007 133.3596,131.6487 133.1896,131.6487"/>
    <path fill="#FFF" d="M137.3413,144.1617 C137.3413,144.1617 143.2963,140.9247 142.1633,135.4757 C142.9543,136.1277 145.0693,138.1137 145.8353,139.1307 C145.8353,140.1967 146.0303,144.4327 140.1823,147.2687 C139.1533,146.2027 138.2873,144.8717 137.3413,144.1617"/>
    <path fill="#52267D" d="M137.7749,144.193 C138.2679,144.626 138.7369,145.194 139.2279,145.791 C139.5529,146.184 139.8869,146.589 140.2369,146.964 C143.8029,145.183 145.6019,142.584 145.5859,139.232 L145.5859,139.215 C144.9499,138.4 143.4719,136.964 142.5169,136.112 C142.9939,140.547 138.9499,143.449 137.7749,144.193 L137.7749,144.193 Z M140.1289,147.573 L140.0029,147.443 C139.5929,147.019 139.2119,146.556 138.8429,146.109 C138.2779,145.423 137.7439,144.776 137.1909,144.362 L136.8799,144.129 L137.2219,143.942 C137.2799,143.911 142.9999,140.727 141.9189,135.527 L141.7739,134.832 L142.3229,135.283 C143.1609,135.973 145.2579,137.95 146.0349,138.98 L146.0859,139.047 L146.0859,139.23 C146.1029,142.84 144.1539,145.621 140.2919,147.494 L140.1289,147.573 Z"/>
    <path fill="#F3E3FF" d="M120.0557 131.1334C120.0557 131.1334 120.0537 130.0344 121.1447 129.5984 121.4777 129.4654 122.0857 129.2174 122.0857 129.2174 122.0857 129.2174 122.7357 130.5924 121.9997 130.9394 120.9397 131.4384 120.0557 131.1334 120.0557 131.1334M125.0376 129.7564C125.0376 129.7564 125.0686 128.2554 126.7586 128.0354 127.0736 127.9954 127.8946 128.0154 127.8946 128.0154 127.8946 128.0154 128.2746 129.6044 127.3836 129.7564 126.2886 129.9434 125.0376 129.7564 125.0376 129.7564M130.5522 130.2711C130.5522 130.2711 130.7772 128.5881 132.2882 129.0511 132.9342 129.2491 133.2922 129.7391 133.2922 129.7391 133.2922 129.7391 132.9912 131.0201 132.3902 130.8761 131.3412 130.6251 130.5522 130.2711 130.5522 130.2711M130.5103 141.2623L123.8643 141.2623 123.8643 138.3973C123.8643 137.2373 124.8043 136.2953 125.9653 136.2953L130.5103 136.2953C131.2183 136.2953 131.7923 136.8693 131.7923 137.5773L131.7923 139.9803C131.7923 140.6883 131.2183 141.2623 130.5103 141.2623"/>
    <path fill="#FFF" d="M129.7944,141.1685 L123.9574,141.1685 L123.9574,139.2815 C123.9574,138.1695 124.8594,137.2675 125.9724,137.2675 L129.7944,137.2675 C130.3504,137.2675 130.8014,137.7185 130.8014,138.2745 L130.8014,140.1615 C130.8014,140.7175 130.3504,141.1685 129.7944,141.1685"/>
    <path fill="#52267D" d="M124.2075,140.9185 L129.7945,140.9185 C130.2115,140.9185 130.5515,140.5785 130.5515,140.1615 L130.5515,138.2745 C130.5515,137.8565 130.2115,137.5175 129.7945,137.5175 L125.9725,137.5175 C124.9995,137.5175 124.2075,138.3095 124.2075,139.2815 L124.2075,140.9185 Z M129.7945,141.4185 L123.7075,141.4185 L123.7075,139.2815 C123.7075,138.0325 124.7235,137.0175 125.9725,137.0175 L129.7945,137.0175 C130.4875,137.0175 131.0515,137.5815 131.0515,138.2745 L131.0515,140.1615 C131.0515,140.8555 130.4875,141.4185 129.7945,141.4185 L129.7945,141.4185 Z"/>
    <path fill="#52267D" d="M124.8438 139.1656C124.8438 139.7676 125.3318 140.2556 125.9338 140.2556 126.5348 140.2556 127.0228 139.7676 127.0228 139.1656 127.0228 138.5636 126.5348 138.0756 125.9338 138.0756 125.3318 138.0756 124.8438 138.5636 124.8438 139.1656M116.8203 142.2476L116.8203 142.2476C117.1303 142.1816 117.4063 142.0096 117.6043 141.7616L117.9693 141.3026 117.1553 141.4766 116.6763 141.5786C116.4923 141.6186 116.3753 141.8006 116.4143 141.9846 116.4543 142.1696 116.6353 142.2866 116.8203 142.2476"/>
    <path fill="#E1F2FF" d="M138.3472,144.2691 C138.3472,144.2691 142.9352,141.7991 142.8652,136.8231 C144.8362,138.2591 145.3692,139.1881 145.3692,139.1881 C145.3692,139.1881 145.0272,141.5561 143.9232,142.7521 C142.2292,144.5871 140.4642,145.1521 138.3472,144.2691"/>
    <path fill="#FFF" d="M142.6899,143.3961 C142.6899,143.3961 140.8809,145.2361 139.1169,146.1191"/>
    <path fill="#52267D" d="M139.229,146.3424 L139.004,145.8954 C140.71,145.0414 142.494,143.2384 142.511,143.2214 L142.869,143.5714 C142.793,143.6484 141.01,145.4504 139.229,146.3424"/>
    <path fill="#9452BA" d="M160.6812,162.7437 L159.6602,160.7267 C155.8422,151.3457 155.2532,145.8367 157.2342,136.8827 L158.3932,131.6377 C158.7742,129.9167 158.9662,128.1587 158.9662,126.3957 C158.9662,120.5217 154.2032,115.7597 148.3292,115.7597 L146.6122,115.7597 C140.8182,115.7597 136.1202,120.4567 136.1202,126.2507 L136.1202,126.5527 C136.1202,127.9307 137.2382,129.0487 138.6172,129.0487 L149.4902,129.0487 L147.8422,138.5007 C142.7952,163.8307 143.3012,174.1007 153.2322,171.9897"/>
    <path fill="#52267D" d="M150.9048,172.7594 C149.1588,172.7594 147.7768,172.2414 146.7188,171.1974 C143.1708,167.6934 143.3478,158.4984 147.3518,138.4034 L148.8948,129.5484 L138.6168,129.5484 C136.9648,129.5484 135.6208,128.2044 135.6208,126.5524 L135.6208,126.2504 C135.6208,120.1904 140.5508,115.2594 146.6118,115.2594 L148.3298,115.2594 C154.4698,115.2594 159.4668,120.2554 159.4668,126.3964 C159.4668,128.1924 159.2688,129.9914 158.8818,131.7454 L157.7218,136.9894 C155.7838,145.7524 156.3448,151.2544 160.1228,160.5384 L161.1278,162.5184 L160.2348,162.9694 L159.2138,160.9524 C155.3288,151.4094 154.7568,145.7694 156.7458,136.7744 L157.9048,131.5304 C158.2778,129.8464 158.4668,128.1184 158.4668,126.3964 C158.4668,120.8064 153.9198,116.2594 148.3298,116.2594 L146.6118,116.2594 C141.1028,116.2594 136.6208,120.7414 136.6208,126.2504 L136.6208,126.5524 C136.6208,127.6534 137.5158,128.5484 138.6168,128.5484 L150.0848,128.5484 L148.3348,138.5864 C144.4558,158.0584 144.1918,167.2964 147.4228,170.4854 C148.6708,171.7194 150.5388,172.0494 153.1288,171.5004 L153.3358,172.4794 C152.4578,172.6654 151.6478,172.7594 150.9048,172.7594"/>
    <path fill="#FFF" d="M141.3628,117.0182 C141.3628,117.0182 141.5378,115.1742 143.3698,114.4422 C143.9278,114.2182 144.8038,114.4562 144.8038,114.4562 C144.8038,114.4562 145.8618,116.1102 144.6258,116.6922 C142.8458,117.5302 141.3628,117.0182 141.3628,117.0182"/>
    <path fill="#52267D" d="M141.6489,116.8341 C142.0949,116.9301 143.2309,117.0731 144.5189,116.4661 C144.7449,116.3601 144.8829,116.2091 144.9419,116.0051 C145.0689,115.5641 144.8039,114.9581 144.6439,114.6741 C144.3649,114.6131 143.8079,114.5351 143.4619,114.6741 C142.1439,115.2011 141.7539,116.3601 141.6489,116.8341 M142.5109,117.4241 C141.7889,117.4241 141.3169,117.2671 141.2819,117.2541 L141.0949,117.1901 L141.1139,116.9951 C141.1219,116.9131 141.3259,114.9901 143.2769,114.2101 C143.9049,113.9581 144.8319,114.2041 144.8699,114.2151 L144.9619,114.2401 L145.0149,114.3211 C145.0419,114.3621 145.6549,115.3361 145.4219,116.1441 C145.3229,116.4891 145.0899,116.7501 144.7319,116.9181 C143.8909,117.3141 143.1139,117.4241 142.5109,117.4241"/>
    <path fill="#FFF" d="M145.7241,116.4102 C145.7241,116.4102 145.7851,113.5062 149.0521,113.0822 C149.6621,113.0032 150.4441,113.0632 150.4441,113.0632 C150.4441,113.0632 151.9851,116.1152 150.2621,116.4102 C148.1451,116.7732 145.7241,116.4102 145.7241,116.4102"/>
    <path fill="#52267D" d="M145.9937,116.193 C146.6427,116.271 148.5417,116.452 150.2207,116.164 C150.4697,116.121 150.6307,116.013 150.7257,115.824 C151.0407,115.199 150.5587,113.897 150.2827,113.304 C150.0367,113.292 149.5097,113.275 149.0847,113.331 C146.5467,113.659 146.0797,115.537 145.9937,116.193 M148.1377,116.823 C146.8117,116.823 145.7537,116.668 145.6867,116.657 L145.4697,116.625 L145.4737,116.405 C145.4747,116.374 145.5787,113.28 149.0197,112.835 C149.6447,112.754 150.4307,112.812 150.4637,112.815 L150.6027,112.825 L150.6677,112.951 C150.7727,113.16 151.6857,115.028 151.1727,116.048 C151.0067,116.378 150.7067,116.588 150.3047,116.657 C149.5777,116.781 148.8217,116.823 148.1377,116.823"/>
    <path fill="#FFF" d="M151.5698,117.0709 C151.5698,117.0709 152.0128,114.2949 154.4958,115.1239 C155.5558,115.4789 156.1288,116.3059 156.1288,116.3059 C156.1288,116.3059 155.5768,118.4139 154.5878,118.1509 C152.8598,117.6899 151.5698,117.0709 151.5698,117.0709"/>
    <path fill="#52267D" d="M151.8579,116.9273 C152.2669,117.1093 153.3369,117.5583 154.6519,117.9083 C154.7659,117.9393 154.8679,117.9223 154.9779,117.8583 C155.4019,117.6113 155.7259,116.7793 155.8529,116.3593 C155.6789,116.1483 155.1819,115.6173 154.4169,115.3613 C153.7879,115.1513 153.2539,115.1763 152.8279,115.4333 C152.2119,115.8043 151.9499,116.5743 151.8579,116.9273 M154.7589,118.4243 C154.6809,118.4243 154.6019,118.4133 154.5229,118.3923 C152.7929,117.9303 151.5149,117.3223 151.4619,117.2963 L151.2939,117.2153 L151.3229,117.0313 C151.3329,116.9743 151.5589,115.6173 152.5669,115.0073 C153.1239,114.6693 153.7999,114.6283 154.5749,114.8863 C155.7019,115.2633 156.3089,116.1273 156.3349,116.1633 L156.3989,116.2583 L156.3709,116.3693 C156.3309,116.5213 155.9619,117.8643 155.2289,118.2903 C155.0769,118.3793 154.9199,118.4243 154.7589,118.4243"/>
    <path fill="#F3E3FF" d="M141.5405,166.7672 C142.1595,166.3032 142.7875,166.0352 143.3275,165.9062"/>
    <path fill="#52267D" d="M141.6899,166.9674 L141.3909,166.5674 C142.1279,166.0144 142.8199,165.7704 143.2699,165.6624 L143.3849,166.1494 C142.9819,166.2454 142.3599,166.4654 141.6899,166.9674"/>
    <path fill="#F3E3FF" d="M145.1411,166.7105 C143.3641,159.4875 146.5701,145.6805 147.1591,142.2815 L149.4931,128.6665 L150.5171,128.6665 C151.8131,128.6665 152.7941,130.0755 152.6101,131.3605 L150.9181,143.1705 C150.3461,147.1695 149.7501,165.6855 156.6991,169.6615 C158.1811,170.5105 160.5901,169.9535 161.4981,169.5205 C164.8011,167.9425 165.7501,163.8255 166.4741,160.5065 C167.9721,153.6365 166.8051,148.2435 166.4731,142.8585 L166.1251,136.1215 C166.0631,134.9035 167.0311,133.6115 168.2481,133.6115 L169.4901,133.6115 L171.7261,147.2275 C172.3981,151.1045 174.1291,164.5495 166.2061,170.8525 C166.0631,170.9665 168.1331,171.4295 167.5331,172.4895 C165.1501,176.7015 158.2451,177.3675 156.9461,179.1715 C151.9381,186.1155 156.6281,200.9125 156.6281,200.9125 C156.6281,200.9125 151.0711,198.6945 147.6281,195.6095 C139.5821,188.3975 138.5611,177.9515 138.5241,174.8765 C138.4791,171.1975 139.4451,168.9155 140.6351,167.5535"/>
    <path fill="#52267D" d="M157.0259,201.3404 L156.5359,201.1454 C156.4799,201.1224 150.8969,198.8744 147.4619,195.7964 C138.6819,187.9264 138.2899,176.1924 138.2739,174.8794 C138.2349,171.6514 138.9859,169.0614 140.4469,167.3894 L140.8239,167.7174 C139.4449,169.2954 138.7359,171.7704 138.7739,174.8734 C138.7899,176.1634 139.1749,187.6964 147.7959,195.4234 C150.5769,197.9164 154.8119,199.8614 156.2359,200.4764 C155.4449,197.7624 152.1879,185.3424 156.7429,179.0254 C157.2879,178.2704 158.6079,177.7494 160.2799,177.0904 C162.7819,176.1044 165.8949,174.8764 167.3149,172.3664 C167.4169,172.1884 167.3969,172.0734 167.3749,172.0024 C167.2649,171.6634 166.6829,171.3964 166.3709,171.2514 C166.1049,171.1294 165.9719,171.0684 165.9519,170.8974 L165.9339,170.7584 L166.0509,170.6564 C168.0049,169.1014 174.1739,162.8194 171.4799,147.2704 L169.2779,133.8614 L168.2489,133.8614 C167.8059,133.8614 167.3689,134.0664 167.0159,134.4374 C166.5899,134.8844 166.3449,135.5254 166.3759,136.1094 L166.7229,142.8464 C166.7979,144.0714 166.9159,145.2774 167.0399,146.5534 C167.4539,150.8164 167.8809,155.2244 166.7179,160.5604 C166.0259,163.7364 165.0769,168.0884 161.6059,169.7454 C160.7069,170.1744 158.1909,170.8044 156.5749,169.8784 C152.7809,167.7074 151.3069,161.3794 150.7399,156.4524 C150.0749,150.6764 150.4059,144.9864 150.6719,143.1354 L152.3629,131.3254 C152.4489,130.7224 152.2409,130.0444 151.8189,129.5584 C151.4609,129.1444 150.9989,128.9164 150.5169,128.9164 L149.7039,128.9164 L147.4049,142.3234 C147.3259,142.7834 147.1979,143.4344 147.0419,144.2324 C146.0079,149.4974 143.8599,160.4554 145.3839,166.6514 L144.8979,166.7704 C143.3469,160.4684 145.5109,149.4374 146.5509,144.1354 C146.7069,143.3424 146.8339,142.6954 146.9129,142.2384 L149.2819,128.4164 L150.5169,128.4164 C151.1449,128.4164 151.7419,128.7054 152.1969,129.2314 C152.7179,129.8324 152.9649,130.6424 152.8569,131.3964 L151.1659,143.2054 C150.4949,147.8944 150.2069,165.6584 156.8229,169.4444 C158.1889,170.2284 160.4709,169.7334 161.3909,169.2944 C164.6409,167.7424 165.5589,163.5294 166.2299,160.4524 C167.3769,155.1944 166.9519,150.8254 166.5419,146.6014 C166.4179,145.3204 166.2999,144.1114 166.2229,142.8744 L165.8759,136.1344 C165.8389,135.4074 166.1299,134.6444 166.6539,134.0924 C167.1009,133.6214 167.6679,133.3614 168.2489,133.3614 L169.7019,133.3614 L169.7369,133.5714 L171.9729,147.1874 C172.3449,149.3354 172.9019,153.6204 172.4379,158.1554 C171.8589,163.8194 169.9079,168.0794 166.6359,170.8234 C167.0489,171.0144 167.6819,171.3254 167.8499,171.8494 C167.9299,172.0974 167.8969,172.3544 167.7509,172.6124 C166.2439,175.2774 163.0389,176.5404 160.4639,177.5554 C158.9299,178.1594 157.6069,178.6814 157.1489,179.3184 C152.2709,186.0814 156.8199,200.6904 156.8669,200.8374 L157.0259,201.3404 Z"/>
    <path fill="#FFF" d="M210.4546,172.734 C210.4546,172.734 211.5986,171.468 210.9556,169.768 C210.7596,169.25 210.0536,168.803 210.0536,168.803 C210.0536,168.803 208.2706,169.114 208.6446,170.316 C209.1836,172.046 210.4546,172.734 210.4546,172.734"/>
    <path fill="#52267D" d="M209.9497,169.3414 C209.6707,169.4224 209.2837,169.5864 209.1447,169.8154 C209.1037,169.8814 209.0647,169.9824 209.1227,170.1674 C209.4227,171.1294 209.9687,171.7244 210.3307,172.0314 C210.5647,171.6074 210.8307,170.8514 210.4877,169.9454 C210.4087,169.7374 210.1497,169.4954 209.9497,169.3414 L209.9497,169.3414 Z M210.5617,173.3614 L210.2167,173.1734 C210.1567,173.1414 208.7607,172.3664 208.1677,170.4644 C208.0367,170.0444 208.0797,169.6394 208.2917,169.2924 C208.7507,168.5424 209.8447,168.3324 209.9677,168.3114 L210.1577,168.2784 L210.3207,168.3804 C210.4067,168.4354 211.1757,168.9354 211.4237,169.5914 C212.1657,171.5544 210.8807,173.0084 210.8257,173.0694 L210.5617,173.3614 Z"/>
    <path fill="#F3E3FF" d="M210.0767,170.9752 C210.0767,170.9752 210.4777,170.5312 210.2527,169.9352 C210.1837,169.7522 209.9357,169.5962 209.9357,169.5962 C209.9357,169.5962 209.3107,169.7052 209.4417,170.1262 C209.6317,170.7332 210.0767,170.9752 210.0767,170.9752"/>
    <path fill="#FFF" d="M201.0942,181.8023 C201.0942,181.8023 200.0092,179.3253 202.6032,177.6893 C203.0862,177.3833 203.7712,177.1283 203.7712,177.1283 C203.7712,177.1283 206.2672,179.1023 204.9272,180.0263 C203.2812,181.1613 201.0942,181.8023 201.0942,181.8023"/>
    <path fill="#52267D" d="M203.6792,177.7047 C203.4532,177.8007 203.1262,177.9497 202.8702,178.1117 C201.2542,179.1317 201.2792,180.4847 201.4222,181.1697 C202.1362,180.9217 203.5312,180.3827 204.6432,179.6147 C204.7962,179.5097 204.8202,179.4207 204.8232,179.3407 C204.8362,178.9077 204.2102,178.1767 203.6792,177.7047 L203.6792,177.7047 Z M200.8132,182.4057 L200.6362,182.0027 C200.2012,181.0107 199.9962,178.7427 202.3362,177.2667 C202.8572,176.9367 203.5672,176.6717 203.5962,176.6597 L203.8602,176.5617 L204.0812,176.7357 C204.3782,176.9717 205.8602,178.2037 205.8222,179.3727 C205.8122,179.6737 205.6982,180.1017 205.2112,180.4377 C203.5182,181.6047 201.3272,182.2557 201.2352,182.2817 L200.8132,182.4057 Z"/>
    <path fill="#F3E3FF" d="M201.9985,180.8707 C201.9985,180.8707 201.3955,179.4967 202.8345,178.5897 C203.1025,178.4207 203.4825,178.2787 203.4825,178.2787 C203.4825,178.2787 204.8665,179.3737 204.1235,179.8857 C203.2105,180.5157 201.9985,180.8707 201.9985,180.8707"/>
    <path fill="#FFF" d="M209.0132,173.69 C209.0132,173.69 210.8932,175.341 209.0892,176.818 C208.3192,177.449 207.4242,177.487 207.4242,177.487 C207.4242,177.487 206.0982,176.07 206.7662,175.451 C207.9342,174.368 209.0132,173.69 209.0132,173.69"/>
    <path fill="#52267D" d="M208.937,174.3434 C208.538,174.6224 207.836,175.1404 207.106,175.8174 C207.074,176.1474 207.36,176.6224 207.626,176.9554 C207.894,176.9044 208.359,176.7704 208.773,176.4314 C209.169,176.1064 209.365,175.7714 209.372,175.4064 C209.378,174.9874 209.136,174.5944 208.937,174.3434 L208.937,174.3434 Z M207.216,177.9964 L207.059,177.8284 C206.89,177.6484 206.048,176.7044 206.079,175.8574 C206.089,175.5524 206.209,175.2844 206.426,175.0834 C207.615,173.9824 208.702,173.2954 208.748,173.2664 L209.063,173.0684 L209.343,173.3144 C209.386,173.3524 210.392,174.2494 210.372,175.4244 C210.36,176.0914 210.035,176.6904 209.406,177.2044 C208.517,177.9334 207.489,177.9854 207.446,177.9874 L207.216,177.9964 Z"/>
    <path fill="#F3E3FF" d="M208.7388,174.8609 C208.7388,174.8609 209.5718,175.5919 208.7728,176.2459 C208.4318,176.5249 208.0358,176.5429 208.0358,176.5429 C208.0358,176.5429 207.4478,175.9149 207.7448,175.6399 C208.2608,175.1609 208.7388,174.8609 208.7388,174.8609"/>
    <path fill="#FFF" d="M192.0728,183.1051 C192.0728,183.1051 191.4528,180.9001 193.8798,180.0251 C196.3058,179.1501 196.9578,179.8771 196.9578,179.8771 C196.9578,179.8771 198.3008,182.1371 197.1008,182.8641 C195.9008,183.5911 192.0728,183.1051 192.0728,183.1051"/>
    <path fill="#52267D" d="M192.5024,182.651 C193.9484,182.803 196.1404,182.863 196.8424,182.436 C197.4464,182.07 196.8404,180.7 196.5734,180.214 C196.4194,180.131 195.7504,179.88 194.0494,180.496 C192.5754,181.027 192.4594,182.111 192.5024,182.651 M194.5784,183.765 C193.3664,183.765 192.2294,183.629 192.0094,183.601 L191.6814,183.559 L191.5914,183.241 C191.3334,182.323 191.4434,180.372 193.7094,179.554 C196.3214,178.614 197.1834,179.38 197.3294,179.544 C197.9804,180.62 198.6414,182.515 197.3594,183.292 C196.7494,183.662 195.6364,183.765 194.5784,183.765"/>
    <path fill="#F3E3FF" d="M193.2114,182.6041 C193.2114,182.6041 192.8894,181.4581 194.1504,181.0021 C195.4124,180.5471 195.7524,180.9261 195.7524,180.9261 C195.7524,180.9261 196.4494,182.1011 195.8264,182.4791 C195.2024,182.8571 193.2114,182.6041 193.2114,182.6041"/>
    <path fill="#FFF" d="M148.9634,131.9869 C148.9634,131.9869 152.8374,134.1769 158.2824,132.1999 C157.9084,133.8889 157.1474,137.2839 157.1474,137.2839 C157.1474,137.2839 152.1024,138.8309 148.2114,136.3829 C148.6094,134.1409 148.9634,131.9869 148.9634,131.9869"/>
    <path fill="#52267D" d="M148.4878,136.2584 C151.8628,138.2794 156.1208,137.2984 156.9358,137.0834 C157.0718,136.4774 157.5998,134.1184 157.9418,132.5824 C153.4848,134.0524 150.1648,132.8254 149.1548,132.3624 C149.0448,133.0294 148.7798,134.6064 148.4878,136.2584 M153.5088,138.0244 C151.8418,138.0244 149.8538,137.7114 148.0788,136.5944 L147.9358,136.5044 L147.9658,136.3384 C148.3638,134.0994 148.7168,131.9464 148.7168,131.9464 L148.7748,131.5944 L149.0868,131.7694 C149.1238,131.7904 152.9288,133.8794 158.1978,131.9644 L158.6258,131.8094 L158.5268,132.2534 C158.1528,133.9444 157.3908,137.3384 157.3908,137.3384 L157.3588,137.4804 L157.2198,137.5234 C157.1048,137.5584 155.5458,138.0244 153.5088,138.0244"/>
    <path fill="#FFF" d="M177.9429,122.1456 C177.9429,122.1456 177.7669,120.2886 175.9219,119.5496 C175.3579,119.3246 173.8379,119.2636 173.8379,119.2636 C173.8379,119.2636 173.4109,121.2306 174.6559,121.8176 C176.4489,122.6616 177.9429,122.1456 177.9429,122.1456"/>
    <path fill="#52267D" d="M174.0483,119.525 C173.9873,120.009 173.9303,121.199 174.7623,121.591 C176.0633,122.204 177.2093,122.058 177.6583,121.962 C177.5553,121.483 177.1713,120.319 175.8283,119.782 C175.4613,119.635 174.5603,119.555 174.0483,119.525 M176.7853,122.553 C176.1793,122.553 175.3973,122.442 174.5493,122.044 C173.1403,121.38 173.5733,119.299 173.5933,119.211 L173.6373,119.005 L173.8473,119.014 C173.9113,119.017 175.4173,119.08 176.0143,119.318 C177.9793,120.104 178.1843,122.04 178.1923,122.122 L178.2103,122.318 L178.0253,122.382 C177.9883,122.394 177.5133,122.553 176.7853,122.553"/>
    <path fill="#FFF" d="M173.2603,121.1974 C173.2603,121.1974 173.2073,118.6664 170.3603,118.2974 C169.8293,118.2284 169.1473,118.2804 169.1473,118.2804 C169.1473,118.2804 167.8043,120.9394 169.3053,121.1974 C171.1513,121.5134 173.2603,121.1974 173.2603,121.1974"/>
    <path fill="#52267D" d="M169.3081,118.5211 C169.0691,119.0411 168.6641,120.1441 168.9301,120.6721 C169.0081,120.8271 169.1411,120.9161 169.3471,120.9511 C170.7791,121.1971 172.3951,121.0501 172.9891,120.9801 C172.9011,120.3891 172.4671,118.8221 170.3281,118.5451 C169.9701,118.4981 169.5311,118.5111 169.3081,118.5211 M171.1581,121.5891 C170.5591,121.5891 169.8981,121.5531 169.2631,121.4441 C168.9021,121.3821 168.6321,121.1921 168.4841,120.8961 C168.0291,119.9931 168.8301,118.3521 168.9231,118.1671 L168.9881,118.0421 L169.1271,118.0311 C169.1571,118.0291 169.8431,117.9781 170.3921,118.0491 C173.4181,118.4411 173.5091,121.1651 173.5101,121.1921 L173.5151,121.4121 L173.2971,121.4441 C173.2401,121.4531 172.3151,121.5891 171.1581,121.5891"/>
    <path fill="#FFF" d="M167.8667,121.3805 C167.8667,121.3805 167.4207,118.5845 164.9197,119.4195 C163.8497,119.7765 163.2727,120.6095 163.2727,120.6095 C163.2727,120.6095 163.8297,122.7345 164.8267,122.4685 C166.5667,122.0045 167.8667,121.3805 167.8667,121.3805"/>
    <path fill="#52267D" d="M163.5483,120.6627 C163.6763,121.0857 164.0033,121.9267 164.4323,122.1757 C164.5443,122.2407 164.6513,122.2577 164.7623,122.2267 C166.0913,121.8727 167.1673,121.4197 167.5783,121.2367 C167.4863,120.8827 167.2223,120.1047 166.6013,119.7287 C166.1703,119.4697 165.6313,119.4447 164.9983,119.6567 C164.2203,119.9167 163.7223,120.4507 163.5483,120.6627 M164.6533,122.7417 C164.4923,122.7417 164.3333,122.6967 164.1803,122.6077 C163.4443,122.1787 163.0703,120.8267 163.0303,120.6737 L163.0023,120.5617 L163.0683,120.4677 C163.0933,120.4307 163.7043,119.5607 164.8403,119.1827 C165.6213,118.9217 166.3003,118.9627 166.8613,119.3027 C167.8753,119.9177 168.1043,121.2837 168.1133,121.3407 L168.1433,121.5247 L167.9753,121.6057 C167.9213,121.6317 166.6343,122.2457 164.8913,122.7097 C164.8113,122.7307 164.7323,122.7417 164.6533,122.7417"/>
    <path fill="#F3E3FF" d="M142.2026 116.6349C142.2026 116.6349 142.3016 115.5929 143.3366 115.1789 143.6526 115.0519 144.1466 115.1869 144.1466 115.1869 144.1466 115.1869 144.7456 116.1219 144.0466 116.4509 143.0406 116.9239 142.2026 116.6349 142.2026 116.6349M146.6392 116.023C146.6392 116.023 146.6792 114.115 148.8262 113.837 149.2262 113.785 149.7402 113.825 149.7402 113.825 149.7402 113.825 150.7512 115.829 149.6202 116.023 148.2292 116.262 146.6392 116.023 146.6392 116.023M152.3706 116.898C152.3706 116.898 152.6526 115.132 154.2316 115.659 154.9066 115.885 155.2716 116.411 155.2716 116.411 155.2716 116.411 154.9206 117.753 154.2906 117.585 153.1916 117.292 152.3706 116.898 152.3706 116.898M177.146 121.7535C177.146 121.7535 177.047 120.7185 176.019 120.3075 175.706 120.1815 174.858 120.1475 174.858 120.1475 174.858 120.1475 174.62 121.2435 175.314 121.5705 176.313 122.0405 177.146 121.7535 177.146 121.7535M172.2788 120.8287C172.2788 120.8287 172.2488 119.3617 170.5988 119.1477 170.2918 119.1087 169.8958 119.1387 169.8958 119.1387 169.8958 119.1387 169.1178 120.6797 169.9878 120.8287 171.0568 121.0117 172.2788 120.8287 172.2788 120.8287M167.0806 121.2711C167.0806 121.2711 166.8166 119.6171 165.3376 120.1111 164.7056 120.3221 164.3636 120.8151 164.3636 120.8151 164.3636 120.8151 164.6926 122.0721 165.2826 121.9151 166.3116 121.6401 167.0806 121.2711 167.0806 121.2711"/>
    <path fill="#FFF" d="M160.5376,136.7828 C160.5376,136.7828 165.3346,137.5308 169.8956,136.4118 C170.3406,138.8898 170.6256,140.7618 170.6256,140.7618 C170.6256,140.7618 167.4626,142.9098 161.6176,141.6638 C160.9286,138.4798 160.5376,136.7828 160.5376,136.7828"/>
    <path fill="#52267D" d="M161.8276,141.4517 C166.7366,142.4577 169.7086,140.9997 170.3526,140.6347 C170.2766,140.1457 170.0356,138.6247 169.6966,136.7167 C165.9366,137.5797 162.0466,137.2207 160.8606,137.0777 C161.0056,137.7117 161.3386,139.1957 161.8276,141.4517 M165.1706,142.3057 C164.1116,142.3057 162.9096,142.1947 161.5656,141.9077 L161.4076,141.8747 L161.3736,141.7167 C160.6836,138.5357 160.2946,136.8397 160.2946,136.8387 L160.2116,136.4787 L160.5756,136.5357 C160.6236,136.5417 165.3786,137.2627 169.8366,136.1687 L170.0956,136.1047 L170.1416,136.3677 C170.5816,138.8207 170.8696,140.7047 170.8726,140.7227 L170.8956,140.8797 L170.7656,140.9687 C170.6636,141.0377 168.7436,142.3057 165.1706,142.3057"/>
    <path fill="#F3E3FF" d="M167.27,131.9654 L173.916,131.9654 L173.916,129.1004 C173.916,127.9404 172.976,126.9994 171.815,126.9994 L167.27,126.9994 C166.562,126.9994 165.988,127.5734 165.988,128.2814 L165.988,130.6834 C165.988,131.3914 166.562,131.9654 167.27,131.9654"/>
    <path fill="#FFF" d="M167.9858,131.8726 L173.8228,131.8726 L173.8228,129.9856 C173.8228,128.8726 172.9208,127.9706 171.8078,127.9706 L167.9858,127.9706 C167.4298,127.9706 166.9788,128.4216 166.9788,128.9776 L166.9788,130.8646 C166.9788,131.4216 167.4298,131.8726 167.9858,131.8726"/>
    <path fill="#52267D" d="M167.9858,128.2203 C167.5688,128.2203 167.2288,128.5603 167.2288,128.9783 L167.2288,130.8653 C167.2288,131.2833 167.5688,131.6223 167.9858,131.6223 L173.5728,131.6223 L173.5728,129.9863 C173.5728,129.0123 172.7808,128.2203 171.8078,128.2203 L167.9858,128.2203 Z M174.0728,132.1223 L167.9858,132.1223 C167.2928,132.1223 166.7288,131.5583 166.7288,130.8653 L166.7288,128.9783 C166.7288,128.2843 167.2928,127.7203 167.9858,127.7203 L171.8078,127.7203 C173.0568,127.7203 174.0728,128.7373 174.0728,129.9863 L174.0728,132.1223 Z"/>
    <path fill="#52267D" d="M172.937,130.7164 C172.937,131.3184 172.449,131.8064 171.847,131.8064 C171.246,131.8064 170.757,131.3184 170.757,130.7164 C170.757,130.1134 171.246,129.6264 171.847,129.6264 C172.449,129.6264 172.937,130.1134 172.937,130.7164"/>
    <path fill="#F3E3FF" d="M150.8286,127.2574 L144.1826,127.2574 L144.1826,124.3924 C144.1826,123.2324 145.1236,122.2914 146.2836,122.2914 L150.8286,122.2914 C151.5376,122.2914 152.1106,122.8654 152.1106,123.5734 L152.1106,125.9754 C152.1106,126.6834 151.5376,127.2574 150.8286,127.2574"/>
    <path fill="#FFF" d="M150.1128,127.1637 L144.2768,127.1637 L144.2768,125.2767 C144.2768,124.1637 145.1778,123.2627 146.2918,123.2627 L150.1128,123.2627 C150.6698,123.2627 151.1208,123.7137 151.1208,124.2697 L151.1208,126.1567 C151.1208,126.7127 150.6698,127.1637 150.1128,127.1637"/>
    <path fill="#52267D" d="M144.5269,126.9137 L150.1129,126.9137 C150.5309,126.9137 150.8709,126.5737 150.8709,126.1567 L150.8709,124.2697 C150.8709,123.8517 150.5309,123.5127 150.1129,123.5127 L146.2919,123.5127 C145.3189,123.5127 144.5269,124.3037 144.5269,125.2767 L144.5269,126.9137 Z M150.1129,127.4137 L144.0269,127.4137 L144.0269,125.2767 C144.0269,124.0287 145.0429,123.0127 146.2919,123.0127 L150.1129,123.0127 C150.8059,123.0127 151.3709,123.5767 151.3709,124.2697 L151.3709,126.1567 C151.3709,126.8507 150.8059,127.4137 150.1129,127.4137 L150.1129,127.4137 Z"/>
    <path fill="#52267D" d="M145.1626 126.0074C145.1626 126.6104 145.6506 127.0974 146.2526 127.0974 146.8536 127.0974 147.3426 126.6104 147.3426 126.0074 147.3426 125.4054 146.8536 124.9184 146.2526 124.9184 145.6506 124.9184 145.1626 125.4054 145.1626 126.0074M180.4771 133.0982L180.4771 133.0982C180.1671 133.0322 179.8901 132.8602 179.6931 132.6132L179.3281 132.1532 180.1411 132.3272 180.6211 132.4302C180.8051 132.4692 180.9221 132.6522 180.8821 132.8362 180.8431 133.0212 180.6621 133.1382 180.4771 133.0982M138.4712 128.0025L138.4712 128.0025C138.7812 127.9365 139.0582 127.7645 139.2552 127.5165L139.6192 127.0575 138.8072 127.2315 138.3272 127.3345C138.1432 127.3735 138.0262 127.5555 138.0652 127.7395 138.1052 127.9245 138.2862 128.0425 138.4712 128.0025"/>
    <path fill="#E1F2FF" d="M149.4282,132.6939 C149.4282,132.6939 153.4872,134.4229 157.5802,132.8429 C157.1522,135.2449 156.7692,136.4699 156.7692,136.4699 C156.7692,136.4699 154.3062,136.6149 152.6752,136.2939 C150.3462,135.8349 149.4282,134.7759 149.4282,132.6939"/>
    <path fill="#FFF" d="M155.0747,135.773 C155.0747,135.773 151.3827,136.081 148.5227,134.598"/>
    <path fill="#52267D" d="M154.2085,136.0514 C152.9215,136.0514 150.4725,135.8904 148.4075,134.8204 L148.6385,134.3764 C151.3985,135.8084 155.0165,135.5284 155.0545,135.5244 L155.0955,136.0224 C155.0515,136.0264 154.7235,136.0514 154.2085,136.0514"/>
    <path fill="#E1F2FF" d="M168.1382,137.3238 C168.1382,137.3238 164.5382,138.3468 161.3632,137.7128 C161.9622,140.0768 162.2812,140.8178 162.2812,140.8178 C162.2812,140.8178 167.0442,140.1828 168.1382,137.3238"/>
    <path fill="#F3E3FF" d="M166.2065,170.9029 C166.2065,170.9029 165.9885,171.0599 165.6805,171.2469"/>
    <path fill="#52267D" d="M165.8091,171.4605 L165.5511,171.0325 C165.8471,170.8545 166.0571,170.7025 166.0601,170.6995 L166.3531,171.1065 C166.3531,171.1065 166.1281,171.2685 165.8091,171.4605"/>
    <path fill="#FFF" d="M168.4858,138.6851 C168.4858,138.6851 164.8618,139.3721 161.0148,138.9141"/>
    <path fill="#52267D" d="M163.7896,139.3199 C162.9016,139.3199 161.9496,139.2769 160.9856,139.1619 L161.0446,138.6659 C164.8096,139.1129 168.4036,138.4469 168.4386,138.4389 L168.5326,138.9309 C168.5056,138.9359 166.4386,139.3199 163.7896,139.3199"/>
    <path fill="#FFF" d="M162.5474,213.2359 C162.5474,213.2359 161.5864,212.4529 160.3084,213.5019 C159.1414,214.4609 158.2634,215.9419 158.7864,216.0909 C159.3104,216.2399 160.2314,216.3839 161.1974,216.2079 C162.0394,216.0529 162.7824,216.2149 163.1204,214.4549 C163.2774,213.6339 162.5474,213.2359 162.5474,213.2359"/>
    <path fill="#52267D" d="M161.6558,213.2057 C161.3358,213.2057 160.9268,213.3167 160.4668,213.6947 C159.4348,214.5427 158.8058,215.6487 158.8848,215.8807 C159.1228,215.9277 160.0768,216.1627 161.1528,215.9617 C161.2678,215.9397 161.3828,215.9257 161.4938,215.9097 C162.1698,215.8177 162.6158,215.7577 162.8758,214.4077 C162.9948,213.7817 162.4498,213.4677 162.4268,213.4547 L162.3908,213.4317 C162.3718,213.4157 162.0958,213.2057 161.6558,213.2057 M160.2788,216.5387 C159.5238,216.5387 158.9278,216.3917 158.7178,216.3317 C158.5498,216.2837 158.4308,216.1547 158.3938,215.9787 C158.2658,215.3607 159.2168,214.0757 160.1488,213.3087 C161.4578,212.2347 162.5128,212.9037 162.6818,213.0247 C162.9918,213.2007 163.5148,213.7237 163.3658,214.5017 C163.0398,216.2047 162.2878,216.3077 161.5608,216.4047 C161.4578,216.4197 161.3508,216.4347 161.2428,216.4537 C160.9058,216.5157 160.5798,216.5387 160.2788,216.5387"/>
    <path fill="#E1F2FF" d="M162.3286,213.5211 C162.3286,213.5211 161.7296,213.0341 160.9346,213.6871 C160.2096,214.2841 159.6626,215.2061 159.9876,215.2981 C160.3136,215.3901 160.8876,215.4811 161.4886,215.3711 C162.0126,215.2741 162.4746,215.3751 162.6846,214.2801 C162.7826,213.7691 162.3286,213.5211 162.3286,213.5211"/>
    <path fill="#FFF" d="M163.9116,213.2184 C164.4196,213.1504 165.1506,214.2534 165.0666,214.5894 C164.9836,214.9254 164.9256,216.0354 164.1036,216.1564 C163.4986,216.2454 161.3396,216.4704 160.8676,216.0014 C160.4326,215.5694 161.2836,213.5704 163.9116,213.2184"/>
    <path fill="#52267D" d="M163.9575,213.4654 C163.9535,213.4654 163.9485,213.4654 163.9445,213.4664 C162.0985,213.7134 161.2665,214.7834 161.0665,215.3764 C160.9775,215.6424 161.0135,215.7934 161.0445,215.8244 C161.3455,216.1244 162.9935,216.0674 164.0675,215.9094 C164.5495,215.8384 164.6895,215.2684 164.7835,214.7374 C164.7985,214.6544 164.8115,214.5824 164.8235,214.5294 C164.8355,214.4194 164.6365,213.9924 164.3185,213.6844 C164.1515,213.5214 164.0235,213.4654 163.9575,213.4654 M162.3435,216.5414 C161.6575,216.5414 160.9765,216.4614 160.6915,216.1794 C160.4895,215.9784 160.4545,215.6274 160.5925,215.2174 C160.9105,214.2754 162.0495,213.2154 163.8785,212.9704 C164.2265,212.9294 164.5615,213.1984 164.7775,213.4404 C165.0395,213.7334 165.3975,214.2974 165.3095,214.6504 C165.2985,214.6944 165.2875,214.7544 165.2755,214.8254 C165.1925,215.2954 165.0195,216.2754 164.1405,216.4034 C163.9835,216.4274 163.1615,216.5414 162.3435,216.5414"/>
    <path fill="#E1F2FF" d="M164.0542,213.524 C164.3542,213.484 164.7842,214.134 164.7362,214.333 C164.6862,214.532 164.6522,215.187 164.1672,215.258 C163.8102,215.31 162.5352,215.443 162.2572,215.167 C162.0012,214.911 162.5032,213.732 164.0542,213.524"/>
    <path fill="#FFF" d="M166.0601,213.4332 C166.0601,213.4332 165.6221,213.2042 164.7521,213.7012 C163.9861,214.1392 162.8401,214.8412 163.1421,215.7132 C163.4431,216.5852 165.8681,216.2612 166.4071,216.0772 C166.9461,215.8922 167.2841,215.3052 167.1881,214.7912 C166.9811,213.6712 166.0601,213.4332 166.0601,213.4332"/>
    <path fill="#52267D" d="M165.7583,213.6314 C165.5833,213.6314 165.2903,213.6814 164.8763,213.9174 C164.0133,214.4114 163.1603,215.0014 163.3783,215.6314 C163.5843,216.2304 165.6963,216.0564 166.3253,215.8404 C166.7353,215.6994 167.0173,215.2404 166.9423,214.8374 C166.7683,213.8964 166.0273,213.6834 165.9953,213.6744 L165.9503,213.6574 C165.9433,213.6544 165.8783,213.6314 165.7583,213.6314 M164.7213,216.5464 C163.9143,216.5464 163.1083,216.3804 162.9053,215.7944 C162.5233,214.6884 163.9453,213.8744 164.6283,213.4844 C165.4963,212.9854 166.0133,213.1424 166.1463,213.1974 C166.3093,213.2474 167.2173,213.5734 167.4343,214.7454 C167.5543,215.3904 167.1293,216.0934 166.4873,216.3134 C166.2373,216.3994 165.4803,216.5464 164.7213,216.5464"/>
    <path fill="#E1F2FF" d="M166.2251,213.7418 C166.2251,213.7418 165.9651,213.6058 165.4511,213.8998 C164.9961,214.1608 164.3181,214.5758 164.4961,215.0928 C164.6751,215.6088 166.1111,215.4168 166.4301,215.3068 C166.7491,215.1978 166.9501,214.8498 166.8931,214.5468 C166.7701,213.8838 166.2251,213.7418 166.2251,213.7418"/>
    <path fill="#9452BA" d="M155.9224,185.6197 C155.9224,185.6197 156.4164,191.2367 154.9874,200.0667 C153.6584,208.2867 151.3014,210.8647 151.4744,212.9967 C151.6094,214.6467 152.3054,216.1587 153.9614,216.1587 L158.9014,216.1587 C161.2084,216.1587 163.2424,214.6857 163.9844,212.5017 C164.5814,210.7427 165.2024,208.3487 165.5734,205.3227 C165.9534,201.2067 165.8714,197.0787 165.8034,194.6537"/>
    <path fill="#52267D" d="M158.9019,216.6588 L153.9619,216.6588 C152.2769,216.6588 151.1609,215.3048 150.9759,213.0378 C150.8929,212.0198 151.2859,211.0078 151.8789,209.4748 C152.6629,207.4498 153.7359,204.6758 154.4949,199.9868 C155.8949,191.3318 155.4289,185.7198 155.4239,185.6638 L156.4209,185.5758 C156.4249,185.6328 156.9039,191.3568 155.4809,200.1468 C154.7069,204.9388 153.5659,207.8868 152.8109,209.8358 C152.2679,211.2398 151.9089,212.1678 151.9719,212.9568 C152.0549,213.9658 152.4229,215.6588 153.9619,215.6588 L158.9019,215.6588 C160.9849,215.6588 162.8379,214.3258 163.5099,212.3408 C164.2359,210.2058 164.7629,207.8238 165.0779,205.2628 C165.4329,201.4028 165.3849,197.5718 165.3029,194.6678 L166.3029,194.6398 C166.3849,197.5718 166.4339,201.4408 166.0719,205.3688 C165.7479,208.0128 165.2049,210.4628 164.4579,212.6628 C163.6459,215.0528 161.4139,216.6588 158.9019,216.6588"/>
    <path fill="#9452BA" d="M181.2544,189.3355 C179.6174,190.7445 178.7694,193.0515 178.7814,195.1705 C178.7994,198.0005 180.4414,201.6035 179.4004,206.3055 C178.4734,210.4945 176.6274,211.2335 177.1834,214.9915 C177.2834,215.6705 177.8934,216.1585 178.5784,216.1585 L184.0844,216.1585 C186.6174,216.1585 188.7874,214.3205 189.2014,211.8215 C190.3084,205.1465 189.4634,198.8455 188.5734,194.0105"/>
    <path fill="#52267D" d="M184.0845,216.6588 L178.5785,216.6588 C177.6355,216.6588 176.8225,215.9728 176.6885,215.0648 C176.3325,212.6558 176.9255,211.3628 177.6115,209.8658 C178.0545,208.9038 178.5545,207.8118 178.9115,206.1968 C179.5775,203.1898 179.1115,200.6568 178.7005,198.4218 C178.4885,197.2678 178.2875,196.1788 178.2815,195.1738 C178.2675,192.7568 179.2815,190.3748 180.9285,188.9568 L181.5805,189.7148 C180.1495,190.9458 179.2695,193.0358 179.2815,195.1678 C179.2875,196.0838 179.4805,197.1318 179.6845,198.2408 C180.0915,200.4538 180.5985,203.2078 179.8885,206.4138 C179.5085,208.1328 178.9835,209.2748 178.5215,210.2838 C177.8505,211.7458 177.3645,212.8028 177.6775,214.9188 C177.7405,215.3408 178.1275,215.6588 178.5785,215.6588 L184.0845,215.6588 C186.3875,215.6588 188.3325,214.0108 188.7085,211.7398 C189.8085,205.1018 188.9515,198.8268 188.0815,194.1008 L189.0655,193.9198 C189.9495,198.7248 190.8205,205.1128 189.6945,211.9038 C189.2385,214.6588 186.8785,216.6588 184.0845,216.6588"/>
    <polygon fill="#52267D" points="182.551 196.46 180.912 195.653 182.572 194.325 183.298 194.569 183.218 194.805 182.621 194.607 181.375 195.602 182.535 196.173 183.385 195.631 182.686 195.474 182.408 195.673 182.262 195.47 182.631 195.206 184.026 195.519"/>
    <path fill="#FFF" d="M152.5532,213.2359 C152.5532,213.2359 151.5922,212.4529 150.3152,213.5019 C149.1472,214.4609 148.2692,215.9419 148.7922,216.0909 C149.3162,216.2399 150.2372,216.3839 151.2032,216.2079 C152.0452,216.0529 152.7882,216.2149 153.1262,214.4549 C153.2832,213.6339 152.5532,213.2359 152.5532,213.2359"/>
    <path fill="#52267D" d="M151.6626,213.2057 C151.3426,213.2057 150.9336,213.3167 150.4736,213.6947 C149.4416,214.5417 148.8116,215.6487 148.8906,215.8807 C149.1276,215.9277 150.0816,216.1627 151.1586,215.9617 C151.2736,215.9397 151.3886,215.9257 151.4996,215.9097 C152.1756,215.8177 152.6216,215.7577 152.8816,214.4077 C153.0006,213.7817 152.4556,213.4677 152.4326,213.4547 L152.3966,213.4317 C152.3776,213.4157 152.1016,213.2057 151.6626,213.2057 M150.2846,216.5387 C149.5296,216.5387 148.9336,216.3917 148.7246,216.3317 C148.5546,216.2837 148.4366,216.1547 148.3996,215.9787 C148.2716,215.3597 149.2226,214.0747 150.1566,213.3087 C151.4616,212.2347 152.5186,212.9037 152.6876,213.0247 C152.9976,213.2007 153.5206,213.7237 153.3716,214.5017 C153.0456,216.2047 152.2936,216.3077 151.5666,216.4047 C151.4636,216.4197 151.3566,216.4347 151.2486,216.4537 C150.9116,216.5157 150.5856,216.5387 150.2846,216.5387"/>
    <path fill="#E1F2FF" d="M152.3345,213.5211 C152.3345,213.5211 151.7355,213.0341 150.9405,213.6871 C150.2155,214.2841 149.6685,215.2061 149.9945,215.2981 C150.3195,215.3901 150.8935,215.4811 151.4945,215.3711 C152.0185,215.2741 152.4805,215.3751 152.6905,214.2801 C152.7885,213.7691 152.3345,213.5211 152.3345,213.5211"/>
    <polygon fill="#52267D" points="160.472 201.389 160.41 201.385 158.293 201.231 158.003 199.202 160.073 198.558 160.147 198.796 158.281 199.378 158.512 200.996 160.365 201.131 161.161 200.21 160.135 199.641 159.377 199.861 159.879 200.418 159.694 200.586 158.926 199.732 160.164 199.371 161.552 200.142"/>
    <path fill="#FFF" d="M153.9175,213.2184 C154.4255,213.1504 155.1565,214.2534 155.0725,214.5894 C154.9895,214.9254 154.9315,216.0354 154.1095,216.1564 C153.5045,216.2454 151.3455,216.4704 150.8735,216.0014 C150.4385,215.5694 151.2895,213.5704 153.9175,213.2184"/>
    <path fill="#52267D" d="M153.9634,213.4654 C153.9594,213.4654 153.9544,213.4654 153.9504,213.4664 C152.1044,213.7134 151.2724,214.7834 151.0724,215.3764 C150.9834,215.6424 151.0194,215.7934 151.0504,215.8244 C151.3514,216.1244 152.9994,216.0674 154.0734,215.9094 C154.5554,215.8384 154.6954,215.2684 154.7894,214.7374 C154.8044,214.6544 154.8174,214.5824 154.8294,214.5294 C154.8414,214.4194 154.6424,213.9924 154.3244,213.6844 C154.1574,213.5214 154.0294,213.4654 153.9634,213.4654 M152.3494,216.5414 C151.6634,216.5414 150.9824,216.4614 150.6974,216.1794 C150.4954,215.9784 150.4604,215.6274 150.5984,215.2174 C150.9164,214.2754 152.0554,213.2154 153.8844,212.9704 C154.2314,212.9294 154.5674,213.1984 154.7834,213.4404 C155.0454,213.7334 155.4034,214.2974 155.3154,214.6504 C155.3044,214.6944 155.2934,214.7544 155.2814,214.8254 C155.1984,215.2954 155.0254,216.2754 154.1464,216.4034 C153.9894,216.4274 153.1674,216.5414 152.3494,216.5414"/>
    <path fill="#E1F2FF" d="M154.0601,213.524 C154.3601,213.484 154.7901,214.134 154.7421,214.333 C154.6931,214.532 154.6581,215.187 154.1731,215.258 C153.8161,215.31 152.5411,215.443 152.2641,215.167 C152.0071,214.911 152.5091,213.732 154.0601,213.524"/>
    <path fill="#FFF" d="M155.7212,213.7613 C155.7212,213.7613 155.3332,213.5583 154.5662,213.9973 C153.8872,214.3863 152.8742,215.0063 153.1412,215.7783 C153.4082,216.5493 155.5512,216.2623 156.0282,216.0993 C156.5042,215.9363 156.8042,215.4173 156.7192,214.9623 C156.5352,213.9723 155.7212,213.7613 155.7212,213.7613"/>
    <path fill="#52267D" d="M155.4546,213.9654 C155.3056,213.9654 155.0516,214.0084 154.6896,214.2144 C153.9366,214.6464 153.1916,215.1594 153.3776,215.6954 C153.5516,216.2014 155.4136,216.0464 155.9466,215.8624 C156.2966,215.7424 156.5376,215.3524 156.4736,215.0084 C156.3206,214.1844 155.6656,214.0054 155.6586,214.0034 L155.6116,213.9864 C155.6006,213.9824 155.5486,213.9654 155.4546,213.9654 M154.5456,216.5414 C153.8196,216.5414 153.0886,216.3904 152.9046,215.8604 C152.5586,214.8594 153.8306,214.1304 154.4416,213.7804 C155.2146,213.3384 155.6826,213.4754 155.8076,213.5264 C155.9596,213.5724 156.7706,213.8674 156.9656,214.9164 C157.0736,215.5004 156.6896,216.1374 156.1086,216.3354 C155.8876,216.4114 155.2186,216.5414 154.5456,216.5414"/>
    <path fill="#E1F2FF" d="M155.8677,214.0338 C155.8677,214.0338 155.6387,213.9148 155.1827,214.1748 C154.7807,214.4038 154.1807,214.7718 154.3397,215.2278 C154.4967,215.6848 155.7657,215.5148 156.0487,215.4188 C156.3307,215.3218 156.5087,215.0148 156.4587,214.7458 C156.3487,214.1588 155.8677,214.0338 155.8677,214.0338"/>
    <path fill="#FFF" d="M135.4429,213.9752 C135.4429,213.9752 135.0549,213.7722 134.2869,214.2112 C133.6089,214.6002 132.5949,215.2202 132.8619,215.9922 C133.1289,216.7632 135.2729,216.4762 135.7499,216.3132 C136.2259,216.1502 136.5249,215.6312 136.4409,215.1762 C136.2569,214.1862 135.4429,213.9752 135.4429,213.9752"/>
    <path fill="#52267D" d="M135.1763,214.1793 C135.0273,214.1793 134.7723,214.2223 134.4103,214.4283 C133.6573,214.8603 132.9123,215.3743 133.0983,215.9093 C133.2723,216.4153 135.1343,216.2593 135.6683,216.0763 C136.0173,215.9573 136.2583,215.5663 136.1953,215.2213 C136.0423,214.3983 135.3873,214.2193 135.3803,214.2173 L135.3333,214.2003 C135.3223,214.1963 135.2703,214.1793 135.1763,214.1793 M134.2673,216.7553 C133.5403,216.7553 132.8093,216.6043 132.6253,216.0743 C132.2803,215.0743 133.5513,214.3453 134.1623,213.9943 C134.9343,213.5533 135.4043,213.6883 135.5293,213.7403 C135.6803,213.7863 136.4923,214.0813 136.6873,215.1303 C136.7943,215.7143 136.4103,216.3513 135.8303,216.5493 C135.6093,216.6253 134.9403,216.7553 134.2673,216.7553"/>
    <path fill="#E1F2FF" d="M135.5884,214.2476 C135.5884,214.2476 135.3594,214.1286 134.9044,214.3886 C134.5024,214.6186 133.9024,214.9856 134.0614,215.4416 C134.2184,215.8986 135.4874,215.7286 135.7704,215.6326 C136.0524,215.5356 136.2304,215.2286 136.1804,214.9596 C136.0704,214.3726 135.5884,214.2476 135.5884,214.2476"/>
    <path fill="#FFF" d="M137.7886,213.4322 C138.2966,213.3642 139.0276,214.4672 138.9436,214.8032 C138.8606,215.1392 138.8026,216.2492 137.9806,216.3702 C137.3756,216.4592 135.2166,216.6842 134.7446,216.2152 C134.3096,215.7832 135.1606,213.7842 137.7886,213.4322"/>
    <path fill="#52267D" d="M137.8345,213.6793 C137.8305,213.6793 137.8255,213.6793 137.8215,213.6803 C135.9755,213.9273 135.1435,214.9973 134.9435,215.5903 C134.8545,215.8563 134.8905,216.0073 134.9215,216.0383 C135.2225,216.3373 136.8705,216.2813 137.9445,216.1233 C138.4265,216.0523 138.5665,215.4823 138.6605,214.9513 C138.6755,214.8683 138.6885,214.7963 138.7005,214.7433 C138.7125,214.6333 138.5135,214.2063 138.1955,213.8983 C138.0285,213.7353 137.9005,213.6793 137.8345,213.6793 M136.2205,216.7553 C135.5345,216.7553 134.8535,216.6753 134.5685,216.3933 C134.3665,216.1923 134.3315,215.8413 134.4695,215.4313 C134.7875,214.4893 135.9265,213.4293 137.7555,213.1843 C138.0995,213.1413 138.4385,213.4133 138.6545,213.6543 C138.9165,213.9473 139.2745,214.5113 139.1865,214.8643 C139.1755,214.9083 139.1645,214.9683 139.1525,215.0393 C139.0695,215.5093 138.8965,216.4893 138.0175,216.6173 C137.8605,216.6413 137.0385,216.7553 136.2205,216.7553"/>
    <path fill="#E1F2FF" d="M137.9312,213.7379 C138.2312,213.6979 138.6612,214.3479 138.6132,214.5469 C138.5632,214.7459 138.5292,215.4009 138.0442,215.4719 C137.6872,215.5239 136.4122,215.6569 136.1352,215.3809 C135.8782,215.1249 136.3802,213.9459 137.9312,213.7379"/>
    <path fill="#FFF" d="M179.2827,213.2359 C179.2827,213.2359 178.3217,212.4529 177.0447,213.5019 C175.8777,214.4609 174.9997,215.9419 175.5217,216.0909 C176.0457,216.2399 176.9667,216.3839 177.9327,216.2079 C178.7747,216.0529 179.5177,216.2149 179.8557,214.4549 C180.0127,213.6339 179.2827,213.2359 179.2827,213.2359"/>
    <path fill="#52267D" d="M178.3921,213.2057 C178.0721,213.2057 177.6631,213.3167 177.2031,213.6947 C176.1721,214.5417 175.5421,215.6497 175.6211,215.8807 C175.8581,215.9277 176.8141,216.1607 177.8881,215.9617 C178.0031,215.9397 178.1181,215.9257 178.2291,215.9097 C178.9051,215.8177 179.3511,215.7577 179.6111,214.4077 C179.7301,213.7817 179.1851,213.4677 179.1621,213.4547 L179.1261,213.4317 C179.1071,213.4157 178.8311,213.2057 178.3921,213.2057 M177.0141,216.5387 C176.2591,216.5387 175.6631,216.3917 175.4541,216.3317 C175.2851,216.2837 175.1661,216.1547 175.1301,215.9787 C175.0011,215.3607 175.9531,214.0757 176.8851,213.3087 C178.1921,212.2347 179.2471,212.9037 179.4171,213.0247 C179.7271,213.2007 180.2501,213.7237 180.1011,214.5017 C179.7751,216.2047 179.0231,216.3077 178.2961,216.4047 C178.1931,216.4197 178.0861,216.4347 177.9781,216.4537 C177.6411,216.5157 177.3151,216.5387 177.0141,216.5387"/>
    <path fill="#E1F2FF" d="M179.064,213.5211 C179.064,213.5211 178.466,213.0341 177.671,213.6871 C176.945,214.2841 176.398,215.2061 176.724,215.2981 C177.049,215.3901 177.623,215.4811 178.224,215.3711 C178.748,215.2741 179.21,215.3751 179.42,214.2801 C179.518,213.7691 179.064,213.5211 179.064,213.5211"/>
    <path fill="#FFF" d="M180.647,213.2184 C181.155,213.1504 181.886,214.2534 181.802,214.5894 C181.719,214.9254 181.662,216.0354 180.839,216.1564 C180.234,216.2454 178.075,216.4704 177.603,216.0014 C177.168,215.5694 178.02,213.5704 180.647,213.2184"/>
    <path fill="#52267D" d="M180.6929,213.4654 C180.6889,213.4654 180.6839,213.4654 180.6799,213.4664 C178.8339,213.7134 178.0029,214.7834 177.8019,215.3774 C177.7129,215.6434 177.7489,215.7934 177.7799,215.8244 C178.0809,216.1244 179.7289,216.0674 180.8029,215.9094 C181.2859,215.8384 181.4249,215.2684 181.5189,214.7384 C181.5339,214.6544 181.5469,214.5834 181.5589,214.5294 C181.5709,214.4194 181.3719,213.9924 181.0539,213.6844 C180.8869,213.5214 180.7589,213.4654 180.6929,213.4654 M179.0789,216.5414 C178.3929,216.5414 177.7119,216.4614 177.4269,216.1794 C177.2259,215.9784 177.1899,215.6284 177.3289,215.2174 C177.6459,214.2754 178.7849,213.2154 180.6139,212.9704 C180.9579,212.9294 181.2969,213.1984 181.5129,213.4404 C181.7749,213.7334 182.1329,214.2974 182.0449,214.6504 C182.0339,214.6944 182.0229,214.7554 182.0109,214.8254 C181.9279,215.2954 181.7549,216.2754 180.8759,216.4034 C180.7189,216.4274 179.8969,216.5414 179.0789,216.5414"/>
    <path fill="#E1F2FF" d="M180.7896,213.524 C181.0896,213.484 181.5206,214.134 181.4716,214.333 C181.4226,214.532 181.3886,215.187 180.9026,215.258 C180.5456,215.31 179.2716,215.443 178.9936,215.167 C178.7366,214.911 179.2386,213.732 180.7896,213.524"/>
    <path fill="#FFF" d="M182.4517,213.7613 C182.4517,213.7613 182.0627,213.5583 181.2957,213.9973 C180.6167,214.3863 179.6037,215.0063 179.8707,215.7783 C180.1377,216.5493 182.2807,216.2623 182.7577,216.0993 C183.2337,215.9363 183.5337,215.4173 183.4497,214.9623 C183.2657,213.9723 182.4517,213.7613 182.4517,213.7613"/>
    <path fill="#52267D" d="M182.1841,213.9654 C182.0351,213.9654 181.7801,214.0084 181.4191,214.2144 C180.6661,214.6464 179.9211,215.1594 180.1071,215.6954 C180.2811,216.2014 182.1431,216.0464 182.6761,215.8624 C183.0261,215.7424 183.2671,215.3524 183.2041,215.0074 C183.0511,214.1844 182.3961,214.0054 182.3891,214.0034 L182.3421,213.9864 C182.3311,213.9824 182.2791,213.9654 182.1841,213.9654 M181.2751,216.5414 C180.5491,216.5414 179.8181,216.3904 179.6341,215.8604 C179.2881,214.8594 180.5601,214.1304 181.1711,213.7804 C181.9441,213.3384 182.4131,213.4754 182.5381,213.5264 C182.6891,213.5724 183.5011,213.8674 183.6961,214.9164 C183.8031,215.5004 183.4181,216.1374 182.8381,216.3354 C182.6171,216.4114 181.9481,216.5414 181.2751,216.5414"/>
    <path fill="#E1F2FF" d="M182.5972,214.0338 C182.5972,214.0338 182.3682,213.9148 181.9122,214.1748 C181.5112,214.4038 180.9102,214.7718 181.0692,215.2278 C181.2272,215.6848 182.4962,215.5148 182.7792,215.4188 C183.0612,215.3218 183.2382,215.0148 183.1882,214.7458 C183.0792,214.1588 182.5972,214.0338 182.5972,214.0338"/>
    <path fill="#FFF" d="M144.4575,213.9068 C144.6165,213.7728 144.8065,213.7358 144.9635,213.8088 C145.5465,214.0848 147.0205,214.8668 146.7155,215.9258 C146.4785,216.7508 145.9755,216.5028 145.0125,216.5198 L144.2855,216.5338 C144.1355,216.5368 144.0025,216.4588 143.9195,216.3208 C143.5015,215.6228 143.7275,214.5238 144.4075,213.9498 L144.4575,213.9068 Z"/>
    <path fill="#52267D" d="M145.1147,216.2691 C145.2827,216.2691 145.4357,216.2761 145.5767,216.2821 C146.2097,216.3111 146.3467,216.3001 146.4747,215.8561 C146.7077,215.0471 145.5607,214.3681 144.8567,214.0351 C144.7917,214.0041 144.7027,214.0281 144.6197,214.0971 L144.5707,214.1391 C143.9797,214.6371 143.7767,215.5961 144.1347,216.1931 C144.1587,216.2341 144.2187,216.2841 144.2807,216.2841 L145.0077,216.2701 C145.0447,216.2691 145.0797,216.2691 145.1147,216.2691 M145.8737,216.7911 C145.7707,216.7911 145.6637,216.7871 145.5537,216.7821 C145.3947,216.7751 145.2167,216.7651 145.0167,216.7701 L144.2907,216.7841 L144.2777,216.7841 C144.0457,216.7841 143.8317,216.6601 143.7057,216.4501 C143.2227,215.6451 143.4707,214.4131 144.2467,213.7581 L144.2967,213.7151 C144.5337,213.5161 144.8217,213.4661 145.0687,213.5821 C146.5347,214.2751 147.2037,215.1311 146.9557,215.9951 C146.7567,216.6861 146.3567,216.7911 145.8737,216.7911"/>
    <path fill="#E1F2FF" d="M144.5327,214.1441 C144.6477,214.0461 144.7867,214.0191 144.8997,214.0731 C145.3237,214.2731 146.3947,214.8411 146.1737,215.6111 C146.0017,216.2101 145.6357,216.0301 144.9357,216.0421 L144.4077,216.0521 C144.2987,216.0541 144.2017,215.9981 144.1417,215.8981 C143.8377,215.3901 144.0027,214.5921 144.4967,214.1751 L144.5327,214.1441 Z"/>
    <path fill="#FFF" d="M141.0483,213.5904 C141.0483,213.5904 140.1563,212.7294 138.7953,213.6654 C137.5503,214.5224 136.5503,215.9234 137.0593,216.1164 C137.5673,216.3094 138.4723,216.5314 139.4513,216.4374 C140.3023,216.3554 141.0293,216.5794 141.5163,214.8544 C141.7413,214.0504 141.0483,213.5904 141.0483,213.5904"/>
    <path fill="#52267D" d="M140.0435,213.4801 C139.7425,213.4801 139.3685,213.5751 138.9375,213.8721 C137.8375,214.6281 137.1165,215.6781 137.1745,215.9151 C137.4055,215.9811 138.3385,216.2971 139.4275,216.1881 C139.5445,216.1771 139.6595,216.1711 139.7715,216.1661 C140.4525,216.1321 140.9025,216.1101 141.2755,214.7871 C141.4495,214.1661 140.9155,213.8021 140.9095,213.7981 L140.8755,213.7711 C140.8535,213.7501 140.5525,213.4801 140.0435,213.4801 M138.9805,216.7091 C138.0045,216.7091 137.2155,216.4431 136.9705,216.3501 C136.8065,216.2881 136.6985,216.1501 136.6785,215.9711 C136.6025,215.3441 137.6585,214.1441 138.6535,213.4591 C140.0445,212.5021 141.0435,213.2581 141.2005,213.3911 C141.4945,213.5941 141.9715,214.1601 141.7565,214.9211 C141.2865,216.5911 140.5285,216.6281 139.7965,216.6651 C139.6915,216.6701 139.5845,216.6751 139.4765,216.6861 C139.3065,216.7031 139.1415,216.7091 138.9805,216.7091"/>
    <path fill="#E1F2FF" d="M140.8062,213.857 C140.8062,213.857 140.2512,213.32 139.4042,213.904 C138.6292,214.436 138.0062,215.308 138.3242,215.428 C138.6402,215.548 139.2022,215.687 139.8122,215.628 C140.3422,215.577 140.7942,215.716 141.0972,214.643 C141.2382,214.142 140.8062,213.857 140.8062,213.857"/>
    <path fill="#FFF" d="M187.8286,216.5328 L63.6946,216.5328 C62.4496,216.5328 61.4396,215.5228 61.4396,214.2778 L61.4396,32.2548 C61.4396,31.0098 62.4496,29.9998 63.6946,29.9998 L187.8286,29.9998 C189.0736,29.9998 190.0836,31.0098 190.0836,32.2548 L190.0836,214.2778 C190.0836,215.5228 189.0736,216.5328 187.8286,216.5328"/>
    <path fill="#5E63B6" d="M63.6948,31.0001 C63.0028,31.0001 62.4398,31.5631 62.4398,32.2551 L62.4398,214.2781 C62.4398,214.9701 63.0028,215.5331 63.6948,215.5331 L187.8288,215.5331 C188.5208,215.5331 189.0838,214.9701 189.0838,214.2781 L189.0838,32.2551 C189.0838,31.5631 188.5208,31.0001 187.8288,31.0001 L63.6948,31.0001 Z M187.8288,217.5331 L63.6948,217.5331 C61.8998,217.5331 60.4398,216.0731 60.4398,214.2781 L60.4398,32.2551 C60.4398,30.4601 61.8998,29.0001 63.6948,29.0001 L187.8288,29.0001 C189.6238,29.0001 191.0838,30.4601 191.0838,32.2551 L191.0838,214.2781 C191.0838,216.0731 189.6238,217.5331 187.8288,217.5331 L187.8288,217.5331 Z"/>
    <path fill="#E1F2FF" d="M146.8511,88.8092 C146.8511,102.4692 135.7781,113.5412 122.1191,113.5412 C108.4591,113.5412 97.3861,102.4692 97.3861,88.8092 C97.3861,75.1502 108.4591,64.0772 122.1191,64.0772 C135.7781,64.0772 146.8511,75.1502 146.8511,88.8092"/>
    <path fill="#FFF" d="M149.8511,83.8092 C149.8511,97.4692 138.7781,108.5412 125.1191,108.5412 C111.4591,108.5412 100.3861,97.4692 100.3861,83.8092 C100.3861,70.1502 111.4591,59.0772 125.1191,59.0772 C138.7781,59.0772 149.8511,70.1502 149.8511,83.8092"/>
    <path fill="#5E63B6" d="M125.1187,60.0768 C112.0327,60.0768 101.3867,70.7228 101.3867,83.8088 C101.3867,96.8948 112.0327,107.5418 125.1187,107.5418 C138.2047,107.5418 148.8507,96.8948 148.8507,83.8088 C148.8507,70.7228 138.2047,60.0768 125.1187,60.0768 M125.1187,109.5418 C110.9297,109.5418 99.3867,97.9978 99.3867,83.8088 C99.3867,69.6198 110.9297,58.0768 125.1187,58.0768 C139.3067,58.0768 150.8507,69.6198 150.8507,83.8088 C150.8507,97.9978 139.3067,109.5418 125.1187,109.5418"/>
    <path fill="#9452BA" d="M131.2661,96.0074 C131.3701,96.3154 131.4611,96.5254 131.4891,96.5954 C131.4971,96.6024 131.4801,96.5914 131.4891,96.5954 C131.4891,96.5954 131.4891,96.5974 131.4891,96.5954 C131.4901,96.5964 131.4881,96.5954 131.4881,96.5954 C130.7891,89.8544 134.6121,87.0464 135.8401,82.5694 C135.8461,82.5024 135.8591,82.4304 135.8791,82.3484 C135.9051,82.2484 135.9251,82.1454 135.9411,82.0414 C136.1231,80.8034 135.6161,79.3614 134.6551,77.8604 C134.6511,77.8514 134.6441,77.8434 134.6391,77.8364 C134.5611,77.7104 134.4761,77.5864 134.3911,77.4614 C134.3911,77.4614 134.3881,77.4594 134.3871,77.4564 C134.2301,77.2284 134.0611,76.9984 133.8841,76.7674 C133.8661,76.7434 133.8491,76.7184 133.8301,76.6954 C133.7811,76.6324 133.7291,76.5704 133.6811,76.5074 C133.6291,76.4414 133.5791,76.3764 133.5281,76.3134 C133.4741,76.2494 133.4221,76.1864 133.3701,76.1244 C133.3151,76.0584 133.2611,75.9944 133.2051,75.9294 C133.1681,75.8854 133.1271,75.8394 133.0871,75.7934 C131.5771,74.0534 129.6111,72.3344 127.5591,70.8394 C127.5591,70.8394 127.5441,70.8164 127.5591,70.8394 C127.8311,73.3754 127.8651,75.9124 127.6251,77.9404 C127.3351,80.3854 126.4601,83.2324 125.2461,85.8124 C122.4041,85.5804 119.4991,84.9214 117.2341,83.9544 C115.3411,83.1464 113.1711,81.8694 111.0971,80.3564 C111.1201,80.5674 111.1451,80.7754 111.1691,80.9854 C111.1771,81.0484 111.1861,81.1104 111.1941,81.1734 C111.2141,81.3234 111.2321,81.4714 111.2551,81.6224 C111.2641,81.6914 111.2741,81.7604 111.2851,81.8294 C111.3071,81.9804 111.3291,82.1294 111.3541,82.2784 C111.3631,82.3384 111.3731,82.3994 111.3831,82.4604 C111.4141,82.6504 111.4461,82.8374 111.4811,83.0254 C111.4831,83.0444 111.4851,83.0634 111.4901,83.0804 C111.5281,83.2994 111.5701,83.5154 111.6131,83.7314 C111.6151,83.7474 111.6201,83.7624 111.6231,83.7804 C111.6631,83.9744 111.7021,84.1654 111.7441,84.3574 C111.7531,84.3974 111.7621,84.4354 111.7691,84.4744 C111.8081,84.6494 111.8491,84.8234 111.8901,84.9974 C111.8991,85.0304 111.9081,85.0634 111.9151,85.0994 C111.9651,85.2994 112.0141,85.4994 112.0651,85.6954 C112.0671,85.6964 112.0671,85.6984 112.0671,85.6984 C112.2351,86.3314 112.4191,86.9424 112.6181,87.5284 C112.6201,87.5364 112.6231,87.5424 112.6251,87.5494 C112.9621,88.5284 113.3461,89.4304 113.7751,90.2194 C113.8381,90.3334 113.9021,90.4464 113.9671,90.5564 C113.9701,90.5604 113.9701,90.5654 113.9731,90.5694 L113.9741,90.5694 C114.0331,90.6694 114.0931,90.7684 114.1521,90.8624 L114.1541,90.8644 C114.1541,90.8644 114.1591,90.8714 114.1611,90.8754 C114.2251,90.9784 114.2911,91.0794 114.3581,91.1744 L114.3581,91.1754 C114.3681,91.1894 114.3761,91.2004 114.3871,91.2144 C114.3881,91.2144 114.3861,91.2164 114.3871,91.2174 C114.4741,91.3424 114.5631,91.4634 114.6511,91.5784 C114.6681,91.5974 114.6831,91.6164 114.6961,91.6344 C114.7011,91.6414 114.7071,91.6474 114.7121,91.6564 C114.8141,91.7854 114.9191,91.9104 115.0281,92.0274 C115.1021,92.1104 115.1791,92.1874 115.2561,92.2644 C115.2881,92.2974 115.3231,92.3264 115.3551,92.3574 C115.4031,92.4034 115.4521,92.4454 115.5001,92.4894 C115.5371,92.5214 115.5741,92.5494 115.6121,92.5804 C115.6581,92.6194 115.7061,92.6554 115.7531,92.6934 C115.7901,92.7204 115.8281,92.7474 115.8671,92.7744 C115.9161,92.8084 115.9641,92.8414 116.0131,92.8754 C116.0501,92.8984 116.0891,92.9224 116.1271,92.9444 C116.1801,92.9754 116.2331,93.0044 116.2841,93.0344 C116.3211,93.0534 116.3571,93.0724 116.3931,93.0904 C116.4531,93.1184 116.5131,93.1444 116.5751,93.1714 C116.6031,93.1814 116.6351,93.1974 116.6651,93.2084 C116.7581,93.2464 116.8511,93.2774 116.9441,93.3034 C117.0081,93.3224 117.0611,93.3414 117.1121,93.3614 C121.6121,94.5494 125.9941,92.6664 131.4891,96.5954"/>
    <path fill="#FFF" d="M94.376,136.6754 L158.144,136.6754"/>
    <path fill="#5E63B6" d="M158.144,137.6754 L94.376,137.6754 C93.824,137.6754 93.376,137.2284 93.376,136.6754 C93.376,136.1224 93.824,135.6754 94.376,135.6754 L158.144,135.6754 C158.697,135.6754 159.144,136.1224 159.144,136.6754 C159.144,137.2284 158.697,137.6754 158.144,137.6754"/>
    <path fill="#FFF" d="M94.376,157.235 L158.144,157.235"/>
    <path fill="#5E63B6" d="M158.144,158.235 L94.376,158.235 C93.824,158.235 93.376,157.788 93.376,157.235 C93.376,156.682 93.824,156.235 94.376,156.235 L158.144,156.235 C158.697,156.235 159.144,156.682 159.144,157.235 C159.144,157.788 158.697,158.235 158.144,158.235"/>
    <path fill="#FFF" d="M94.376,178.4859 L158.144,178.4859"/>
    <path fill="#5E63B6" d="M158.144 179.4859L94.376 179.4859C93.824 179.4859 93.376 179.0389 93.376 178.4859 93.376 177.9329 93.824 177.4859 94.376 177.4859L158.144 177.4859C158.697 177.4859 159.144 177.9329 159.144 178.4859 159.144 179.0389 158.697 179.4859 158.144 179.4859M205.978 71.5416C205.425 71.5416 204.978 71.0936 204.978 70.5416L204.978 63.5416C204.978 62.9896 205.425 62.5416 205.978 62.5416 206.531 62.5416 206.978 62.9896 206.978 63.5416L206.978 70.5416C206.978 71.0936 206.531 71.5416 205.978 71.5416"/>
    <path fill="#5E63B6" d="M209.478 68.0416L202.478 68.0416C201.925 68.0416 201.478 67.5936 201.478 67.0416 201.478 66.4896 201.925 66.0416 202.478 66.0416L209.478 66.0416C210.031 66.0416 210.478 66.4896 210.478 67.0416 210.478 67.5936 210.031 68.0416 209.478 68.0416M41.7275 188.2603C41.4515 188.2603 41.2275 188.0363 41.2275 187.7603L41.2275 183.8233C41.2275 183.5463 41.4515 183.3233 41.7275 183.3233 42.0035 183.3233 42.2275 183.5463 42.2275 183.8233L42.2275 187.7603C42.2275 188.0363 42.0035 188.2603 41.7275 188.2603"/>
    <path fill="#5E63B6" d="M43.6963 186.2916L39.7583 186.2916C39.4823 186.2916 39.2593 186.0676 39.2593 185.7916 39.2593 185.5156 39.4823 185.2916 39.7583 185.2916L43.6963 185.2916C43.9723 185.2916 44.1963 185.5156 44.1963 185.7916 44.1963 186.0676 43.9723 186.2916 43.6963 186.2916M216.728 128.2603C216.452 128.2603 216.228 128.0363 216.228 127.7603L216.228 123.8233C216.228 123.5463 216.452 123.3233 216.728 123.3233 217.004 123.3233 217.228 123.5463 217.228 123.8233L217.228 127.7603C217.228 128.0363 217.004 128.2603 216.728 128.2603"/>
    <path fill="#5E63B6" d="M218.6968 126.2916L214.7588 126.2916C214.4828 126.2916 214.2598 126.0676 214.2598 125.7916 214.2598 125.5156 214.4828 125.2916 214.7588 125.2916L218.6968 125.2916C218.9728 125.2916 219.1968 125.5156 219.1968 125.7916 219.1968 126.0676 218.9728 126.2916 218.6968 126.2916M47.7275 88.2603C47.4515 88.2603 47.2275 88.0363 47.2275 87.7603L47.2275 83.8233C47.2275 83.5463 47.4515 83.3233 47.7275 83.3233 48.0035 83.3233 48.2275 83.5463 48.2275 83.8233L48.2275 87.7603C48.2275 88.0363 48.0035 88.2603 47.7275 88.2603"/>
    <path fill="#5E63B6" d="M49.6963,86.2916 L45.7583,86.2916 C45.4823,86.2916 45.2593,86.0676 45.2593,85.7916 C45.2593,85.5156 45.4823,85.2916 45.7583,85.2916 L49.6963,85.2916 C49.9723,85.2916 50.1963,85.5156 50.1963,85.7916 C50.1963,86.0676 49.9723,86.2916 49.6963,86.2916"/>
    <path fill="#FFF" d="M25.415,122.4166 L25.415,130.5416"/>
    <path fill="#5E63B6" d="M25.415,131.5416 C24.863,131.5416 24.415,131.0946 24.415,130.5416 L24.415,122.4166 C24.415,121.8646 24.863,121.4166 25.415,121.4166 C25.967,121.4166 26.415,121.8646 26.415,122.4166 L26.415,130.5416 C26.415,131.0946 25.967,131.5416 25.415,131.5416"/>
    <path fill="#FFF" d="M29.4775,126.4791 L21.3525,126.4791"/>
    <path fill="#5E63B6" d="M29.4775,127.4791 L21.3525,127.4791 C20.8005,127.4791 20.3525,127.0321 20.3525,126.4791 C20.3525,125.9261 20.8005,125.4791 21.3525,125.4791 L29.4775,125.4791 C30.0295,125.4791 30.4775,125.9261 30.4775,126.4791 C30.4775,127.0321 30.0295,127.4791 29.4775,127.4791"/>
    <path fill="#FFF" d="M245.1665,216.2916 L252.1405,216.2916"/>
    <path fill="#5E63B6" d="M252.1401,217.2916 L245.1661,217.2916 C244.6141,217.2916 244.1661,216.8446 244.1661,216.2916 C244.1661,215.7386 244.6141,215.2916 245.1661,215.2916 L252.1401,215.2916 C252.6931,215.2916 253.1401,215.7386 253.1401,216.2916 C253.1401,216.8446 252.6931,217.2916 252.1401,217.2916"/>
    <path fill="#FFF" d="M2,216.2916 L10.973,216.2916"/>
    <path fill="#5E63B6" d="M10.9731,217.2916 L2.0001,217.2916 C1.4481,217.2916 1.0001,216.8446 1.0001,216.2916 C1.0001,215.7386 1.4481,215.2916 2.0001,215.2916 L10.9731,215.2916 C11.5251,215.2916 11.9731,215.7386 11.9731,216.2916 C11.9731,216.8446 11.5251,217.2916 10.9731,217.2916"/>
    <path fill="#FFF" d="M94.3823,225.608 L161.5683,225.608"/>
    <path fill="#5E63B6" d="M161.5679,226.608 L94.3819,226.608 C93.8299,226.608 93.3819,226.161 93.3819,225.608 C93.3819,225.055 93.8299,224.608 94.3819,224.608 L161.5679,224.608 C162.1209,224.608 162.5679,225.055 162.5679,225.608 C162.5679,226.161 162.1209,226.608 161.5679,226.608"/>
    <path fill="#FFF" d="M170.187,225.608 L179.328,225.608"/>
    <path fill="#5E63B6" d="M179.3276,226.608 L170.1866,226.608 C169.6346,226.608 169.1866,226.161 169.1866,225.608 C169.1866,225.055 169.6346,224.608 170.1866,224.608 L179.3276,224.608 C179.8806,224.608 180.3276,225.055 180.3276,225.608 C180.3276,226.161 179.8806,226.608 179.3276,226.608"/>
    <path fill="#FFF" d="M86.5,225.5328 L81.5,225.6078"/>
    <path fill="#5E63B6" d="M81.4995,226.608 C80.9545,226.608 80.5085,226.171 80.4995,225.623 C80.4915,225.071 80.9325,224.617 81.4845,224.608 L86.4845,224.533 C87.0595,224.518 87.4915,224.965 87.4995,225.518 C87.5085,226.07 87.0675,226.524 86.5155,226.533 L81.5155,226.608 L81.4995,226.608 Z"/>
  </g>
</svg>
