<svg width="256" height="256" xmlns="http://www.w3.org/2000/svg" xmlns:xlink="http://www.w3.org/1999/xlink"><defs><path d="M.36 103.653h207.117C207.477 46.461 161.111.096 103.919.096 46.725.096.36 46.461.36 103.653z" id="a"/><path d="M69.278.334a1.928 1.928 0 0 0-1.924 1.922v4.627a1.93 1.93 0 0 0 1.924 1.921h4.639a1.927 1.927 0 0 0 1.923-1.921V2.256A1.927 1.927 0 0 0 73.917.334h-4.639zm.378 6.171h3.885V2.634h-3.885v3.871zM56.904.334a1.926 1.926 0 0 0-1.921 1.922v4.627c0 1.056.864 1.921 1.921 1.921h4.643a1.928 1.928 0 0 0 1.922-1.921V2.256A1.927 1.927 0 0 0 61.547.334h-4.643zm.378 6.171h3.886V2.634h-3.886v3.871zm11.996 2.54a1.93 1.93 0 0 0-1.924 1.923v1.542c0 .478-.195.729-.653.925-.393.169-.88.237-1.291.237-.408 0-.894-.068-1.288-.236-.457-.197-.653-.448-.653-.926v-1.542a1.93 1.93 0 0 0-1.922-1.923h-4.643a1.927 1.927 0 0 0-1.921 1.923v1.542c0 3.843 2.13 7.057 5.566 8.622v5.771H39.988c-14.233 0-26.69 9.444-30.737 22.816a5.642 5.642 0 0 0-.582-.029c-4.622 0-8.152 5.28-8.152 11.624 0 6.345 3.53 11.625 8.152 11.625.483 0 .961-.06 1.429-.177 4.78 12.14 16.593 20.39 29.89 20.39h49.741c13.435 0 25.337-8.419 30.022-20.728.77.338 1.577.515 2.404.515 4.624 0 8.152-5.28 8.152-11.625 0-6.344-3.528-11.624-8.152-11.624a5.84 5.84 0 0 0-1.627.234c-3.975-13.466-16.48-23.021-30.799-23.021H69.673v-5.52c3.773-1.444 6.167-4.796 6.167-8.873v-1.542a1.928 1.928 0 0 0-1.923-1.923h-4.639zm-1.674 6.506c1.25-.534 2.052-1.564 2.052-3.041v-1.164h3.885v1.164c0 3.329-2.059 5.979-5.342 6.946l-.826.242v9.506h22.356c13.705 0 25.629 9.438 28.916 22.556l.362 1.44 1.303-.709c.611-.332 1.228-.501 1.845-.501 3.112 0 5.853 4.101 5.853 9.324 0 5.224-2.741 9.325-5.853 9.325-.803 0-1.597-.279-2.353-.826l-1.272-.918-.494 1.489c-4.006 12.087-15.398 20.469-28.307 20.469H39.988c-12.703 0-23.954-8.119-28.124-19.935l-.424-1.204-1.153.547a3.745 3.745 0 0 1-1.618.378c-3.11 0-5.852-4.101-5.852-9.325 0-5.223 2.742-9.324 5.852-9.324.357 0 .714.054 1.065.161l1.14.344.305-1.15C14.617 38.43 26.44 29.204 39.988 29.204h22.86v-9.647l-.755-.276c-2.98-1.091-4.811-3.632-4.811-6.771v-1.164h3.887v1.164c0 1.477.802 2.507 2.05 3.041.732.313 1.499.422 2.191.422.693 0 1.461-.109 2.194-.422z" id="c"/><path d="M6.282 7.631C1.101 12.736.666 24.29.666 34.719c0 23.285 17.808 51.726 39.962 52.122h2.419c22.114-.396 39.92-28.837 39.92-52.122 0-10.429-.435-21.984-5.614-27.088C70.992 1.363 60.276.639 52.772.639c-2.301 0-4.509.073-6.522.136-1.634.054-3.137.103-4.448.103-1.402 0-3.02-.069-4.784-.139C34.88.65 32.454.552 29.958.552c-7.078 0-17.234.733-23.676 7.079z" id="e"/><path d="M39.724 4.419c-9.286-.228-25.015-9.737-34.084.009C1.089 9.318.666 21.136.666 29.267c0 21.69 16.828 48.22 37.864 48.586h2.392c21.033-.366 37.861-26.896 37.861-48.586 0-8.131-.423-19.949-4.971-24.839C70.752 1.14 66.932.043 62.859.043c-8-.001-16.981 4.225-23.135 4.376z" id="g"/><path d="M5.631 4.892C1.442 9.355.757 19.649.675 27.536c5.351 23.229 20.786 40.015 38.992 40.015 18.206 0 33.641-16.786 38.991-40.015-.081-7.887-.765-18.181-4.957-22.644C70.647 1.637 66.832.554 62.765.554 54.779.551 45.809 4.733 39.664 4.88 33.522 4.732 24.553.553 16.567.552c-4.068 0-7.88 1.084-10.936 4.34z" id="i"/><path d="M20.364.552C9.524.552.667 9.558.667 20.563v4.978c0 11.005 8.857 20.011 19.697 20.011h47.604v-1 1c10.84 0 19.699-9.006 19.699-20.011v-4.978C87.667 9.558 78.808.552 67.968.552H20.364z" id="k"/><path d="M18.364.552C8.637.552.666 8.655.666 18.563v4.978c0 9.908 7.971 18.011 17.698 18.011h47.604v1-1c9.729 0 17.699-8.103 17.699-18.011v-4.978c0-9.908-7.97-18.011-17.699-18.011H18.364z" id="m"/><path d="M18.207.552C8.561.552.667 8.708.667 18.678v4.747c0 9.97 7.894 18.127 17.54 18.127h33.918c9.648 0 17.542-8.157 17.542-18.127v-4.747c0-9.97-7.894-18.126-17.542-18.126H18.207z" id="o"/><path d="M10.475.687C7.147.934 4.564 1.812 2.735 3.64.799 5.576.362 8.887.362 15.218c0 10.75 7.929 22.167 16.828 22.261.258.002.762.002 1.016 0 8.899-.079 16.831-11.504 16.831-22.261 0-6.338-.437-9.642-2.373-11.578C30.868 1.847 28.238.985 24.8.732c-1.483-.11-2.786-.106-5.034-.033-1.314.043-1.589.051-2.072.051-.52 0-.815-.011-2.235-.07a69.191 69.191 0 0 0-2.803-.071c-.773 0-1.456.024-2.181.078z" id="q"/><path d="M8.709.682c-2.926.215-5.1.946-6.542 2.372C.781 4.428.361 7.566.361 13.218c0 9.774 7.304 20.181 15.002 20.262h.99c7.698-.069 15.002-10.482 15.002-20.262 0-5.658-.419-8.79-1.807-10.164-1.4-1.384-3.627-2.106-6.664-2.327-1.406-.103-2.67-.1-4.871-.029-1.358.044-1.64.052-2.161.052-.564 0-.869-.01-2.341-.071a68.699 68.699 0 0 0-2.746-.07c-.736 0-1.38.023-2.056.073z" id="s"/><path d="M25.97.827l-1.586.014c-.413.005-.743.541-.735 1.197l.181 20.121a23.62 23.62 0 0 0 3.037-4.704l-.14-15.444c-.007-.656-.342-1.184-.753-1.184h-.004zm-5.878.054c-.414.004-.743.54-.736 1.196l.216 23.815c.505-.303 1-.645 1.483-1.022l-.206-22.806c-.007-.654-.342-1.183-.752-1.183h-.005zm-3.981.035l-.093.002c-.412.004-.741.54-.735 1.196l.228 25.249c.342-.04.681-.097 1.017-.173.19-.049.379-.103.567-.163L16.87 2.101c-.005-.656-.343-1.185-.753-1.185h-.006zm-3.857.035l-1.589.016c-.412.001-.739.539-.735 1.195l.224 24.625c.995.369 2.026.588 3.084.632l-.229-25.283c-.004-.656-.34-1.185-.75-1.185h-.005zM7.12.998L7.027 1c-.412.003-.742.537-.737 1.195l.205 22.462c.516.417 1.049.794 1.597 1.126L7.879 2.182C7.873 1.525 7.535.998 7.125.998H7.12zm-4.571.043l-1.587.014c-.414.003-.742.539-.737 1.197l.128 14.062c.852 1.895 1.909 3.679 3.129 5.241L3.306 2.223c-.006-.654-.342-1.182-.751-1.182h-.006z" id="u"/><path d="M1.336 4.6a1.25 1.25 0 0 0 1.777 1.759c4.231-4.275 11.119-4.31 15.394-.08a1.25 1.25 0 1 0 1.759-1.776A13.344 13.344 0 0 0 10.85.629 13.345 13.345 0 0 0 1.336 4.6z" id="w"/><path d="M.436 4.6a1.25 1.25 0 0 0 1.777 1.759c4.231-4.275 11.118-4.31 15.395-.08a1.248 1.248 0 1 0 1.757-1.776A13.341 13.341 0 0 0 9.95.629 13.345 13.345 0 0 0 .436 4.6z" id="y"/><path d="M1.611.261c-.554 0-1 .447-1 .999 0 .554.446 1 1 1h22.332c.554 0 1-.446 1-1a.998.998 0 0 0-1-.999H1.611z" id="A"/><path d="M1.22.798a1 1 0 1 0 0 2h4.999a1 1 0 1 0 0-2H1.22z" id="C"/><path d="M1.348.261a1 1 0 1 0 0 1.999h55.726a1 1 0 1 0 0-1.999H1.348z" id="E"/><path d="M19.707 3.459s-23.309 9.669-18.45 27.254C6.116 48.298 15.562 54.133 22 53.218c9.167-1.3 14.514-.211 17.673.879 2.7.93 3.801 1.862 4.321 1.302 2.13 2.404 19.436 21.137 22.041 15.413 1.305-2.867 16.75-17.227 16.75-17.227l5.625-11.71-3.118-27.24L32.675.022" id="G"/><path d="M19.707 3.459s-23.309 9.669-18.45 27.254C6.116 48.298 15.562 54.133 22 53.218c9.167-1.3 14.514-.211 17.673.879 2.7.93 3.801 1.862 4.321 1.302 2.13 2.404 19.436 21.137 22.041 15.413 1.305-2.867 16.75-17.227 16.75-17.227l5.625-11.71-3.118-27.24L32.675.022 19.707 3.459z" id="I"/><path d="M19.707 3.459s-23.309 9.669-18.45 27.254C6.116 48.298 15.562 54.133 22 53.218c9.167-1.3 14.514-.211 17.673.879 2.7.93 3.801 1.862 4.321 1.302 2.13 2.404 19.436 21.137 22.041 15.413 1.305-2.867 16.75-17.227 16.75-17.227l5.625-11.71-3.118-27.24L32.675.022" id="K"/><path d="M19.707 3.459s-23.309 9.669-18.45 27.254C6.116 48.298 15.562 54.133 22 53.218c9.167-1.3 14.514-.211 17.673.879 2.7.93 3.801 1.862 4.321 1.302 2.13 2.404 19.436 21.137 22.041 15.413 1.305-2.867 16.75-17.227 16.75-17.227l5.625-11.71-3.118-27.24L32.675.022 19.707 3.459z" id="M"/><path d="M19.707 3.459s-23.309 9.669-18.45 27.254C6.116 48.298 15.562 54.133 22 53.218c9.167-1.3 14.514-.211 17.673.879 2.7.93 3.801 1.862 4.321 1.302 2.13 2.404 19.436 21.137 22.041 15.413 1.305-2.867 16.75-17.227 16.75-17.227l5.625-11.71-3.118-27.24L32.675.022" id="O"/><path d="M19.707 3.459s-23.309 9.669-18.45 27.254C6.116 48.298 15.562 54.133 22 53.218c9.167-1.3 14.514-.211 17.673.879 2.7.93 3.801 1.862 4.321 1.302 2.13 2.404 19.436 21.137 22.041 15.413 1.305-2.867 16.75-17.227 16.75-17.227l5.625-11.71-3.118-27.24L32.675.022" id="Q"/><path d="M19.707 3.459s-23.309 9.669-18.45 27.254C6.116 48.298 15.562 54.133 22 53.218c9.167-1.3 14.514-.211 17.673.879 2.7.93 3.801 1.862 4.321 1.302 2.13 2.404 19.436 21.137 22.041 15.413 1.305-2.867 16.75-17.227 16.75-17.227l5.625-11.71-3.118-27.24L32.675.022 19.707 3.459z" id="S"/><path d="M19.707 3.459s-23.309 9.669-18.45 27.254C6.116 48.298 15.562 54.133 22 53.218c9.167-1.3 14.514-.211 17.673.879 2.7.93 3.801 1.862 4.321 1.302 2.13 2.404 19.436 21.137 22.041 15.413 1.305-2.867 16.75-17.227 16.75-17.227l5.625-11.71-3.118-27.24L32.675.022" id="U"/><path d="M19.707 3.459s-23.309 9.669-18.45 27.254C6.116 48.298 15.562 54.133 22 53.218c9.167-1.3 14.514-.211 17.673.879 2.7.93 3.801 1.862 4.321 1.302 2.13 2.404 19.436 21.137 22.041 15.413 1.305-2.867 16.75-17.227 16.75-17.227l5.625-11.71-3.118-27.24L32.675.022 19.707 3.459z" id="W"/><path d="M19.707 3.459s-23.309 9.669-18.45 27.254C6.116 48.298 15.562 54.133 22 53.218c9.167-1.3 14.514-.211 17.673.879 2.7.93 3.801 1.862 4.321 1.302 2.13 2.404 19.436 21.137 22.041 15.413 1.305-2.867 16.75-17.227 16.75-17.227l5.625-11.71-3.118-27.24L32.675.022" id="Y"/><path d="M19.707 3.459s-23.309 9.669-18.45 27.254C6.116 48.298 15.562 54.133 22 53.218c9.167-1.3 14.514-.211 17.673.879 2.7.93 3.801 1.862 4.321 1.302 2.13 2.404 19.436 21.137 22.041 15.413 1.305-2.867 16.75-17.227 16.75-17.227l5.625-11.71-3.118-27.24L32.675.022" id="aa"/><path d="M19.707 3.459s-23.309 9.669-18.45 27.254C6.116 48.298 15.562 54.133 22 53.218c9.167-1.3 14.514-.211 17.673.879 2.7.93 3.801 1.862 4.321 1.302 2.13 2.404 19.436 21.137 22.041 15.413 1.305-2.867 16.75-17.227 16.75-17.227l5.625-11.71-3.118-27.24L32.675.022 19.707 3.459z" id="ac"/><path d="M19.707 3.459s-23.309 9.669-18.45 27.254C6.116 48.298 15.562 54.133 22 53.218c9.167-1.3 14.514-.211 17.673.879 2.7.93 3.801 1.862 4.321 1.302 2.13 2.404 19.436 21.137 22.041 15.413 1.305-2.867 16.75-17.227 16.75-17.227l5.625-11.71-3.118-27.24L32.675.022" id="ae"/><path d="M19.707 3.459s-23.309 9.669-18.45 27.254C6.116 48.298 15.562 54.133 22 53.218c9.167-1.3 14.514-.211 17.673.879 2.7.93 3.801 1.862 4.321 1.302 2.13 2.404 19.436 21.137 22.041 15.413 1.305-2.867 16.75-17.227 16.75-17.227l5.625-11.71-3.118-27.24L32.675.022 19.707 3.459z" id="ag"/><path d="M19.707 3.459s-23.309 9.669-18.45 27.254C6.116 48.298 15.562 54.133 22 53.218c9.167-1.3 14.514-.211 17.673.879 2.7.93 3.801 1.862 4.321 1.302 2.13 2.404 19.436 21.137 22.041 15.413 1.305-2.867 16.75-17.227 16.75-17.227l5.625-11.71-3.118-27.24L32.675.022" id="ai"/><path d="M19.707 3.459s-23.309 9.669-18.45 27.254C6.116 48.298 15.562 54.133 22 53.218c9.167-1.3 14.514-.211 17.673.879 2.7.93 3.801 1.862 4.321 1.302 2.13 2.404 19.436 21.137 22.041 15.413 1.305-2.867 16.75-17.227 16.75-17.227l5.625-11.71-3.118-27.24L32.675.022 19.707 3.459z" id="ak"/><path d="M19.707 3.459s-23.309 9.669-18.45 27.254C6.116 48.298 15.562 54.133 22 53.218c9.167-1.3 14.514-.211 17.673.879 2.7.93 3.801 1.862 4.321 1.302 2.13 2.404 19.436 21.137 22.041 15.413 1.305-2.867 16.75-17.227 16.75-17.227l5.625-11.71-3.118-27.24L32.675.022" id="am"/><path d="M19.707 3.459s-23.309 9.669-18.45 27.254C6.116 48.298 15.562 54.133 22 53.218c9.167-1.3 14.514-.211 17.673.879 2.7.93 3.801 1.862 4.321 1.302 2.13 2.404 19.436 21.137 22.041 15.413 1.305-2.867 16.75-17.227 16.75-17.227l5.625-11.71-3.118-27.24L32.675.022 19.707 3.459z" id="ao"/><path d="M19.707 3.459s-23.309 9.669-18.45 27.254C6.116 48.298 15.562 54.133 22 53.218c9.167-1.3 14.514-.211 17.673.879 2.7.93 3.801 1.862 4.321 1.302 2.13 2.404 19.436 21.137 22.041 15.413 1.305-2.867 16.75-17.227 16.75-17.227l5.625-11.71-3.118-27.24L32.675.022" id="aq"/><path d="M19.707 3.459s-23.309 9.669-18.45 27.254C6.116 48.298 15.562 54.133 22 53.218c9.167-1.3 14.514-.211 17.673.879 2.7.93 3.801 1.862 4.321 1.302 2.13 2.404 19.436 21.137 22.041 15.413 1.305-2.867 16.75-17.227 16.75-17.227l5.625-11.71-3.118-27.24L32.675.022" id="as"/><path d="M19.707 3.459s-23.309 9.669-18.45 27.254C6.116 48.298 15.562 54.133 22 53.218c9.167-1.3 14.514-.211 17.673.879 2.7.93 3.801 1.862 4.321 1.302 2.13 2.404 19.436 21.137 22.041 15.413 1.305-2.867 16.75-17.227 16.75-17.227l5.625-11.71-3.118-27.24L32.675.022" id="au"/><path d="M19.707 3.459s-23.309 9.669-18.45 27.254C6.116 48.298 15.562 54.133 22 53.218c9.167-1.3 14.514-.211 17.673.879 2.7.93 3.801 1.862 4.321 1.302 2.13 2.404 19.436 21.137 22.041 15.413 1.305-2.867 16.75-17.227 16.75-17.227l5.625-11.71-3.118-27.24L32.675.022" id="aw"/><path d="M19.707 3.459s-23.309 9.669-18.45 27.254C6.116 48.298 15.562 54.133 22 53.218c9.167-1.3 14.514-.211 17.673.879 2.7.93 3.801 1.862 4.321 1.302 2.13 2.404 19.436 21.137 22.041 15.413 1.305-2.867 16.75-17.227 16.75-17.227l5.625-11.71-3.118-27.24L32.675.022" id="ay"/><path d="M19.707 3.459s-23.309 9.669-18.45 27.254C6.116 48.298 15.562 54.133 22 53.218c9.167-1.3 14.514-.211 17.673.879 2.7.93 3.801 1.862 4.321 1.302 2.13 2.404 19.436 21.137 22.041 15.413 1.305-2.867 16.75-17.227 16.75-17.227l5.625-11.71-3.118-27.24L32.675.022 19.707 3.459z" id="aA"/><path d="M19.707 3.459s-23.309 9.669-18.45 27.254C6.116 48.298 15.562 54.133 22 53.218c9.167-1.3 14.514-.211 17.673.879 2.7.93 3.801 1.862 4.321 1.302 2.13 2.404 19.436 21.137 22.041 15.413 1.305-2.867 16.75-17.227 16.75-17.227l5.625-11.71-3.118-27.24L32.675.022" id="aC"/><path d="M19.707 3.459s-23.309 9.669-18.45 27.254C6.116 48.298 15.562 54.133 22 53.218c9.167-1.3 14.514-.211 17.673.879 2.7.93 3.801 1.862 4.321 1.302 2.13 2.404 19.436 21.137 22.041 15.413 1.305-2.867 16.75-17.227 16.75-17.227l5.625-11.71-3.118-27.24L32.675.022" id="aE"/><path d="M19.707 3.459s-23.309 9.669-18.45 27.254C6.116 48.298 15.562 54.133 22 53.218c9.167-1.3 14.514-.211 17.673.879 2.7.93 3.801 1.862 4.321 1.302 2.13 2.404 19.436 21.137 22.041 15.413 1.305-2.867 16.75-17.227 16.75-17.227l5.625-11.71-3.118-27.24L32.675.022" id="aG"/><path d="M19.707 3.459s-23.309 9.669-18.45 27.254C6.116 48.298 15.562 54.133 22 53.218c9.167-1.3 14.514-.211 17.673.879 2.7.93 3.801 1.862 4.321 1.302 2.13 2.404 19.436 21.137 22.041 15.413 1.305-2.867 16.75-17.227 16.75-17.227l5.625-11.71-3.118-27.24L32.675.022" id="aI"/><path d="M19.707 3.459s-23.309 9.669-18.45 27.254C6.116 48.298 15.562 54.133 22 53.218c9.167-1.3 14.514-.211 17.673.879 2.7.93 3.801 1.862 4.321 1.302 2.13 2.404 19.436 21.137 22.041 15.413 1.305-2.867 16.75-17.227 16.75-17.227l5.625-11.71-3.118-27.24L32.675.022" id="aK"/><path d="M19.707 3.459s-23.309 9.669-18.45 27.254C6.116 48.298 15.562 54.133 22 53.218c9.167-1.3 14.514-.211 17.673.879 2.7.93 3.801 1.862 4.321 1.302 2.13 2.404 19.436 21.137 22.041 15.413 1.305-2.867 16.75-17.227 16.75-17.227l5.625-11.71-3.118-27.24L32.675.022" id="aM"/><path d="M19.707 3.459s-23.309 9.669-18.45 27.254C6.116 48.298 15.562 54.133 22 53.218c9.167-1.3 14.514-.211 17.673.879 2.7.93 3.801 1.862 4.321 1.302 2.13 2.404 19.436 21.137 22.041 15.413 1.305-2.867 16.75-17.227 16.75-17.227l5.625-11.71-3.118-27.24L32.675.022 19.707 3.459z" id="aO"/><path d="M19.707 3.459s-23.309 9.669-18.45 27.254C6.116 48.298 15.562 54.133 22 53.218c9.167-1.3 14.514-.211 17.673.879 2.7.93 3.801 1.862 4.321 1.302 2.13 2.404 19.436 21.137 22.041 15.413 1.305-2.867 16.75-17.227 16.75-17.227l5.625-11.71-3.118-27.24L32.675.022" id="aQ"/><path d="M19.707 3.459s-23.309 9.669-18.45 27.254C6.116 48.298 15.562 54.133 22 53.218c9.167-1.3 14.514-.211 17.673.879 2.7.93 3.801 1.862 4.321 1.302 2.13 2.404 19.436 21.137 22.041 15.413 1.305-2.867 16.75-17.227 16.75-17.227l5.625-11.71-3.118-27.24L32.675.022 19.707 3.459z" id="aS"/><path d="M19.707 3.459s-23.309 9.669-18.45 27.254C6.116 48.298 15.562 54.133 22 53.218c9.167-1.3 14.514-.211 17.673.879 2.7.93 3.801 1.862 4.321 1.302 2.13 2.404 19.436 21.137 22.041 15.413 1.305-2.867 16.75-17.227 16.75-17.227l5.625-11.71-3.118-27.24L32.675.022" id="aU"/><path d="M19.707 3.459s-23.309 9.669-18.45 27.254C6.116 48.298 15.562 54.133 22 53.218c9.167-1.3 14.514-.211 17.673.879 2.7.93 3.801 1.862 4.321 1.302 2.13 2.404 19.436 21.137 22.041 15.413 1.305-2.867 16.75-17.227 16.75-17.227l5.625-11.71-3.118-27.24L32.675.022 19.707 3.459z" id="aW"/><path d="M19.707 3.459s-23.309 9.669-18.45 27.254C6.116 48.298 15.562 54.133 22 53.218c9.167-1.3 14.514-.211 17.673.879 2.7.93 3.801 1.862 4.321 1.302 2.13 2.404 19.436 21.137 22.041 15.413 1.305-2.867 16.75-17.227 16.75-17.227l5.625-11.71-3.118-27.24L32.675.022" id="aY"/><path d="M19.707 3.459s-23.309 9.669-18.45 27.254C6.116 48.298 15.562 54.133 22 53.218c9.167-1.3 14.514-.211 17.673.879 2.7.93 3.801 1.862 4.321 1.302 2.13 2.404 19.436 21.137 22.041 15.413 1.305-2.867 16.75-17.227 16.75-17.227l5.625-11.71-3.118-27.24L32.675.022" id="ba"/><path d="M19.707 3.459s-23.309 9.669-18.45 27.254C6.116 48.298 15.562 54.133 22 53.218c9.167-1.3 14.514-.211 17.673.879 2.7.93 3.801 1.862 4.321 1.302 2.13 2.404 19.436 21.137 22.041 15.413 1.305-2.867 16.75-17.227 16.75-17.227l5.625-11.71-3.118-27.24L32.675.022" id="bc"/><path d="M19.707 3.459s-23.309 9.669-18.45 27.254C6.116 48.298 15.562 54.133 22 53.218c9.167-1.3 14.514-.211 17.673.879 2.7.93 3.801 1.862 4.321 1.302 2.13 2.404 19.436 21.137 22.041 15.413 1.305-2.867 16.75-17.227 16.75-17.227l5.625-11.71-3.118-27.24L32.675.022 19.707 3.459z" id="be"/><path d="M19.707 3.459s-23.309 9.669-18.45 27.254C6.116 48.298 15.562 54.133 22 53.218c9.167-1.3 14.514-.211 17.673.879 2.7.93 3.801 1.862 4.321 1.302 2.13 2.404 19.436 21.137 22.041 15.413 1.305-2.867 16.75-17.227 16.75-17.227l5.625-11.71-3.118-27.24L32.675.022" id="bg"/><path d="M19.707 3.459s-23.309 9.669-18.45 27.254C6.116 48.298 15.562 54.133 22 53.218c9.167-1.3 14.514-.211 17.673.879 2.7.93 3.801 1.862 4.321 1.302 2.13 2.404 19.436 21.137 22.041 15.413 1.305-2.867 16.75-17.227 16.75-17.227l5.625-11.71-3.118-27.24L32.675.022" id="bi"/><path d="M19.707 3.459s-23.309 9.669-18.45 27.254C6.116 48.298 15.562 54.133 22 53.218c9.167-1.3 14.514-.211 17.673.879 2.7.93 3.801 1.862 4.321 1.302 2.13 2.404 19.436 21.137 22.041 15.413 1.305-2.867 16.75-17.227 16.75-17.227l5.625-11.71-3.118-27.24L32.675.022 19.707 3.459z" id="bk"/><path d="M19.707 3.459s-23.309 9.669-18.45 27.254C6.116 48.298 15.562 54.133 22 53.218c9.167-1.3 14.514-.211 17.673.879 2.7.93 3.801 1.862 4.321 1.302 2.13 2.404 19.436 21.137 22.041 15.413 1.305-2.867 16.75-17.227 16.75-17.227l5.625-11.71-3.118-27.24L32.675.022" id="bm"/><path d="M19.707 3.459s-23.309 9.669-18.45 27.254C6.116 48.298 15.562 54.133 22 53.218c9.167-1.3 14.514-.211 17.673.879 2.7.93 3.801 1.862 4.321 1.302 2.13 2.404 19.436 21.137 22.041 15.413 1.305-2.867 16.75-17.227 16.75-17.227l5.625-11.71-3.118-27.24L32.675.022" id="bo"/><path d="M19.707 3.459s-23.309 9.669-18.45 27.254C6.116 48.298 15.562 54.133 22 53.218c9.167-1.3 14.514-.211 17.673.879 2.7.93 3.801 1.862 4.321 1.302 2.13 2.404 19.436 21.137 22.041 15.413 1.305-2.867 16.75-17.227 16.75-17.227l5.625-11.71-3.118-27.24L32.675.022 19.707 3.459z" id="bq"/><path d="M19.707 3.459s-23.309 9.669-18.45 27.254C6.116 48.298 15.562 54.133 22 53.218c9.167-1.3 14.514-.211 17.673.879 2.7.93 3.801 1.862 4.321 1.302 2.13 2.404 19.436 21.137 22.041 15.413 1.305-2.867 16.75-17.227 16.75-17.227l5.625-11.71-3.118-27.24L32.675.022" id="bs"/><path d="M19.707 3.459s-23.309 9.669-18.45 27.254C6.116 48.298 15.562 54.133 22 53.218c9.167-1.3 14.514-.211 17.673.879 2.7.93 3.801 1.862 4.321 1.302 2.13 2.404 19.436 21.137 22.041 15.413 1.305-2.867 16.75-17.227 16.75-17.227l5.625-11.71-3.118-27.24L32.675.022" id="bu"/><path d="M19.707 3.459s-23.309 9.669-18.45 27.254C6.116 48.298 15.562 54.133 22 53.218c9.167-1.3 14.514-.211 17.673.879 2.7.93 3.801 1.862 4.321 1.302 2.13 2.404 19.436 21.137 22.041 15.413 1.305-2.867 16.75-17.227 16.75-17.227l5.625-11.71-3.118-27.24L32.675.022 19.707 3.459z" id="bw"/><path d="M19.707 3.459s-23.309 9.669-18.45 27.254C6.116 48.298 15.562 54.133 22 53.218c9.167-1.3 14.514-.211 17.673.879 2.7.93 3.801 1.862 4.321 1.302 2.13 2.404 19.436 21.137 22.041 15.413 1.305-2.867 16.75-17.227 16.75-17.227l5.625-11.71-3.118-27.24L32.675.022" id="by"/><path d="M19.707 3.459s-23.309 9.669-18.45 27.254C6.116 48.298 15.562 54.133 22 53.218c9.167-1.3 14.514-.211 17.673.879 2.7.93 3.801 1.862 4.321 1.302 2.13 2.404 19.436 21.137 22.041 15.413 1.305-2.867 16.75-17.227 16.75-17.227l5.625-11.71-3.118-27.24L32.675.022" id="bA"/><path d="M19.707 3.459s-23.309 9.669-18.45 27.254C6.116 48.298 15.562 54.133 22 53.218c9.167-1.3 14.514-.211 17.673.879 2.7.93 3.801 1.862 4.321 1.302 2.13 2.404 19.436 21.137 22.041 15.413 1.305-2.867 16.75-17.227 16.75-17.227l5.625-11.71-3.118-27.24L32.675.022 19.707 3.459z" id="bC"/><path d="M19.707 3.459s-23.309 9.669-18.45 27.254C6.116 48.298 15.562 54.133 22 53.218c9.167-1.3 14.514-.211 17.673.879 2.7.93 3.801 1.862 4.321 1.302 2.13 2.404 19.436 21.137 22.041 15.413 1.305-2.867 16.75-17.227 16.75-17.227l5.625-11.71-3.118-27.24L32.675.022" id="bE"/><path d="M19.707 3.459s-23.309 9.669-18.45 27.254C6.116 48.298 15.562 54.133 22 53.218c9.167-1.3 14.514-.211 17.673.879 2.7.93 3.801 1.862 4.321 1.302 2.13 2.404 19.436 21.137 22.041 15.413 1.305-2.867 16.75-17.227 16.75-17.227l5.625-11.71-3.118-27.24L32.675.022 19.707 3.459z" id="bG"/><path d="M19.707 3.459s-23.309 9.669-18.45 27.254C6.116 48.298 15.562 54.133 22 53.218c9.167-1.3 14.514-.211 17.673.879 2.7.93 3.801 1.862 4.321 1.302 2.13 2.404 19.436 21.137 22.041 15.413 1.305-2.867 16.75-17.227 16.75-17.227l5.625-11.71-3.118-27.24L32.675.022" id="bI"/><path d="M19.707 3.459s-23.309 9.669-18.45 27.254C6.116 48.298 15.562 54.133 22 53.218c9.167-1.3 14.514-.211 17.673.879 2.7.93 3.801 1.862 4.321 1.302 2.13 2.404 19.436 21.137 22.041 15.413 1.305-2.867 16.75-17.227 16.75-17.227l5.625-11.71-3.118-27.24L32.675.022 19.707 3.459z" id="bK"/><path d="M19.707 3.459s-23.309 9.669-18.45 27.254C6.116 48.298 15.562 54.133 22 53.218c9.167-1.3 14.514-.211 17.673.879 2.7.93 3.801 1.862 4.321 1.302 2.13 2.404 19.436 21.137 22.041 15.413 1.305-2.867 16.75-17.227 16.75-17.227l5.625-11.71-3.118-27.24L32.675.022" id="bM"/><path d="M19.707 3.459s-23.309 9.669-18.45 27.254C6.116 48.298 15.562 54.133 22 53.218c9.167-1.3 14.514-.211 17.673.879 2.7.93 3.801 1.862 4.321 1.302 2.13 2.404 19.436 21.137 22.041 15.413 1.305-2.867 16.75-17.227 16.75-17.227l5.625-11.71-3.118-27.24L32.675.022 19.707 3.459z" id="bO"/><path d="M19.707 3.459s-23.309 9.669-18.45 27.254C6.116 48.298 15.562 54.133 22 53.218c9.167-1.3 14.514-.211 17.673.879 2.7.93 3.801 1.862 4.321 1.302 2.13 2.404 19.436 21.137 22.041 15.413 1.305-2.867 16.75-17.227 16.75-17.227l5.625-11.71-3.118-27.24L32.675.022" id="bQ"/><path d="M19.707 3.459s-23.309 9.669-18.45 27.254C6.116 48.298 15.562 54.133 22 53.218c9.167-1.3 14.514-.211 17.673.879 2.7.93 3.801 1.862 4.321 1.302 2.13 2.404 19.436 21.137 22.041 15.413 1.305-2.867 16.75-17.227 16.75-17.227l5.625-11.71-3.118-27.24L32.675.022" id="bS"/><path d="M19.707 3.459s-23.309 9.669-18.45 27.254C6.116 48.298 15.562 54.133 22 53.218c9.167-1.3 14.514-.211 17.673.879 2.7.93 3.801 1.862 4.321 1.302 2.13 2.404 19.436 21.137 22.041 15.413 1.305-2.867 16.75-17.227 16.75-17.227l5.625-11.71-3.118-27.24L32.675.022" id="bU"/><path d="M19.707 3.459s-23.309 9.669-18.45 27.254C6.116 48.298 15.562 54.133 22 53.218c9.167-1.3 14.514-.211 17.673.879 2.7.93 3.801 1.862 4.321 1.302 2.13 2.404 19.436 21.137 22.041 15.413 1.305-2.867 16.75-17.227 16.75-17.227l5.625-11.71-3.118-27.24L32.675.022" id="bW"/><path d="M19.707 3.459s-23.309 9.669-18.45 27.254C6.116 48.298 15.562 54.133 22 53.218c9.167-1.3 14.514-.211 17.673.879 2.7.93 3.801 1.862 4.321 1.302 2.13 2.404 19.436 21.137 22.041 15.413 1.305-2.867 16.75-17.227 16.75-17.227l5.625-11.71-3.118-27.24L32.675.022" id="bY"/><path d="M19.707 3.459s-23.309 9.669-18.45 27.254C6.116 48.298 15.562 54.133 22 53.218c9.167-1.3 14.514-.211 17.673.879 2.7.93 3.801 1.862 4.321 1.302 2.13 2.404 19.436 21.137 22.041 15.413 1.305-2.867 16.75-17.227 16.75-17.227l5.625-11.71-3.118-27.24L32.675.022" id="ca"/><path d="M19.707 3.459s-23.309 9.669-18.45 27.254C6.116 48.298 15.562 54.133 22 53.218c9.167-1.3 14.514-.211 17.673.879 2.7.93 3.801 1.862 4.321 1.302 2.13 2.404 19.436 21.137 22.041 15.413 1.305-2.867 16.75-17.227 16.75-17.227l5.625-11.71-3.118-27.24L32.675.022" id="cc"/><path d="M19.707 3.459s-23.309 9.669-18.45 27.254C6.116 48.298 15.562 54.133 22 53.218c9.167-1.3 14.514-.211 17.673.879 2.7.93 3.801 1.862 4.321 1.302 2.13 2.404 19.436 21.137 22.041 15.413 1.305-2.867 16.75-17.227 16.75-17.227l5.625-11.71-3.118-27.24L32.675.022 19.707 3.459z" id="ce"/><path d="M19.707 3.459s-23.309 9.669-18.45 27.254C6.116 48.298 15.562 54.133 22 53.218c9.167-1.3 14.514-.211 17.673.879 2.7.93 3.801 1.862 4.321 1.302 2.13 2.404 19.436 21.137 22.041 15.413 1.305-2.867 16.75-17.227 16.75-17.227l5.625-11.71-3.118-27.24L32.675.022" id="cg"/><path d="M19.707 3.459s-23.309 9.669-18.45 27.254C6.116 48.298 15.562 54.133 22 53.218c9.167-1.3 14.514-.211 17.673.879 2.7.93 3.801 1.862 4.321 1.302 2.13 2.404 19.436 21.137 22.041 15.413 1.305-2.867 16.75-17.227 16.75-17.227l5.625-11.71-3.118-27.24L32.675.022" id="ci"/><path d="M19.707 3.459s-23.309 9.669-18.45 27.254C6.116 48.298 15.562 54.133 22 53.218c9.167-1.3 14.514-.211 17.673.879 2.7.93 3.801 1.862 4.321 1.302 2.13 2.404 19.436 21.137 22.041 15.413 1.305-2.867 16.75-17.227 16.75-17.227l5.625-11.71-3.118-27.24L32.675.022 19.707 3.459z" id="ck"/><path d="M19.707 3.459s-23.309 9.669-18.45 27.254C6.116 48.298 15.562 54.133 22 53.218c9.167-1.3 14.514-.211 17.673.879 2.7.93 3.801 1.862 4.321 1.302 2.13 2.404 19.436 21.137 22.041 15.413 1.305-2.867 16.75-17.227 16.75-17.227l5.625-11.71-3.118-27.24L32.675.022" id="cm"/><path d="M19.707 3.459s-23.309 9.669-18.45 27.254C6.116 48.298 15.562 54.133 22 53.218c9.167-1.3 14.514-.211 17.673.879 2.7.93 3.801 1.862 4.321 1.302 2.13 2.404 19.436 21.137 22.041 15.413 1.305-2.867 16.75-17.227 16.75-17.227l5.625-11.71-3.118-27.24L32.675.022" id="co"/><path d="M19.707 3.459s-23.309 9.669-18.45 27.254C6.116 48.298 15.562 54.133 22 53.218c9.167-1.3 14.514-.211 17.673.879 2.7.93 3.801 1.862 4.321 1.302 2.13 2.404 19.436 21.137 22.041 15.413 1.305-2.867 16.75-17.227 16.75-17.227l5.625-11.71-3.118-27.24L32.675.022" id="cq"/><path d="M19.707 3.459s-23.309 9.669-18.45 27.254C6.116 48.298 15.562 54.133 22 53.218c9.167-1.3 14.514-.211 17.673.879 2.7.93 3.801 1.862 4.321 1.302 2.13 2.404 19.436 21.137 22.041 15.413 1.305-2.867 16.75-17.227 16.75-17.227l5.625-11.71-3.118-27.24L32.675.022 19.707 3.459z" id="cs"/><path d="M19.707 3.459s-23.309 9.669-18.45 27.254C6.116 48.298 15.562 54.133 22 53.218c9.167-1.3 14.514-.211 17.673.879 2.7.93 3.801 1.862 4.321 1.302 2.13 2.404 19.436 21.137 22.041 15.413 1.305-2.867 16.75-17.227 16.75-17.227l5.625-11.71-3.118-27.24L32.675.022" id="cu"/><path d="M19.707 3.459s-23.309 9.669-18.45 27.254C6.116 48.298 15.562 54.133 22 53.218c9.167-1.3 14.514-.211 17.673.879 2.7.93 3.801 1.862 4.321 1.302 2.13 2.404 19.436 21.137 22.041 15.413 1.305-2.867 16.75-17.227 16.75-17.227l5.625-11.71-3.118-27.24L32.675.022" id="cw"/><path d="M19.707 3.459s-23.309 9.669-18.45 27.254C6.116 48.298 15.562 54.133 22 53.218c9.167-1.3 14.514-.211 17.673.879 2.7.93 3.801 1.862 4.321 1.302 2.13 2.404 19.436 21.137 22.041 15.413 1.305-2.867 16.75-17.227 16.75-17.227l5.625-11.71-3.118-27.24L32.675.022" id="cy"/><path d="M19.707 3.459s-23.309 9.669-18.45 27.254C6.116 48.298 15.562 54.133 22 53.218c9.167-1.3 14.514-.211 17.673.879 2.7.93 3.801 1.862 4.321 1.302 2.13 2.404 19.436 21.137 22.041 15.413 1.305-2.867 16.75-17.227 16.75-17.227l5.625-11.71-3.118-27.24L32.675.022" id="cA"/><path d="M19.707 3.459s-23.309 9.669-18.45 27.254C6.116 48.298 15.562 54.133 22 53.218c9.167-1.3 14.514-.211 17.673.879 2.7.93 3.801 1.862 4.321 1.302 2.13 2.404 19.436 21.137 22.041 15.413 1.305-2.867 16.75-17.227 16.75-17.227l5.625-11.71-3.118-27.24L32.675.022" id="cC"/><path d="M19.707 3.459s-23.309 9.669-18.45 27.254C6.116 48.298 15.562 54.133 22 53.218c9.167-1.3 14.514-.211 17.673.879 2.7.93 3.801 1.862 4.321 1.302 2.13 2.404 19.436 21.137 22.041 15.413 1.305-2.867 16.75-17.227 16.75-17.227l5.625-11.71-3.118-27.24L32.675.022" id="cE"/><path d="M19.707 3.459s-23.309 9.669-18.45 27.254C6.116 48.298 15.562 54.133 22 53.218c9.167-1.3 14.514-.211 17.673.879 2.7.93 3.801 1.862 4.321 1.302 2.13 2.404 19.436 21.137 22.041 15.413 1.305-2.867 16.75-17.227 16.75-17.227l5.625-11.71-3.118-27.24L32.675.022" id="cG"/><path d="M19.707 3.459s-23.309 9.669-18.45 27.254C6.116 48.298 15.562 54.133 22 53.218c9.167-1.3 14.514-.211 17.673.879 2.7.93 3.801 1.862 4.321 1.302 2.13 2.404 19.436 21.137 22.041 15.413 1.305-2.867 16.75-17.227 16.75-17.227l5.625-11.71-3.118-27.24L32.675.022" id="cI"/><path d="M19.707 3.459s-23.309 9.669-18.45 27.254C6.116 48.298 15.562 54.133 22 53.218c9.167-1.3 14.514-.211 17.673.879 2.7.93 3.801 1.862 4.321 1.302 2.13 2.404 19.436 21.137 22.041 15.413 1.305-2.867 16.75-17.227 16.75-17.227l5.625-11.71-3.118-27.24L32.675.022" id="cK"/><path d="M19.707 3.459s-23.309 9.669-18.45 27.254C6.116 48.298 15.562 54.133 22 53.218c9.167-1.3 14.514-.211 17.673.879 2.7.93 3.801 1.862 4.321 1.302 2.13 2.404 19.436 21.137 22.041 15.413 1.305-2.867 16.75-17.227 16.75-17.227l5.625-11.71-3.118-27.24L32.675.022" id="cM"/><path d="M19.707 3.459s-23.309 9.669-18.45 27.254C6.116 48.298 15.562 54.133 22 53.218c9.167-1.3 14.514-.211 17.673.879 2.7.93 3.801 1.862 4.321 1.302 2.13 2.404 19.436 21.137 22.041 15.413 1.305-2.867 16.75-17.227 16.75-17.227l5.625-11.71-3.118-27.24L32.675.022" id="cO"/><path d="M19.707 3.459s-23.309 9.669-18.45 27.254C6.116 48.298 15.562 54.133 22 53.218c9.167-1.3 14.514-.211 17.673.879 2.7.93 3.801 1.862 4.321 1.302 2.13 2.404 19.436 21.137 22.041 15.413 1.305-2.867 16.75-17.227 16.75-17.227l5.625-11.71-3.118-27.24L32.675.022" id="cQ"/><path d="M19.707 3.459s-23.309 9.669-18.45 27.254C6.116 48.298 15.562 54.133 22 53.218c9.167-1.3 14.514-.211 17.673.879 2.7.93 3.801 1.862 4.321 1.302 2.13 2.404 19.436 21.137 22.041 15.413 1.305-2.867 16.75-17.227 16.75-17.227l5.625-11.71-3.118-27.24L32.675.022" id="cS"/><path d="M19.707 3.459s-23.309 9.669-18.45 27.254C6.116 48.298 15.562 54.133 22 53.218c9.167-1.3 14.514-.211 17.673.879 2.7.93 3.801 1.862 4.321 1.302 2.13 2.404 19.436 21.137 22.041 15.413 1.305-2.867 16.75-17.227 16.75-17.227l5.625-11.71-3.118-27.24L32.675.022" id="cU"/><path d="M19.707 3.459s-23.309 9.669-18.45 27.254C6.116 48.298 15.562 54.133 22 53.218c9.167-1.3 14.514-.211 17.673.879 2.7.93 3.801 1.862 4.321 1.302 2.13 2.404 19.436 21.137 22.041 15.413 1.305-2.867 16.75-17.227 16.75-17.227l5.625-11.71-3.118-27.24L32.675.022" id="cW"/><path d="M19.707 3.459s-23.309 9.669-18.45 27.254C6.116 48.298 15.562 54.133 22 53.218c9.167-1.3 14.514-.211 17.673.879 2.7.93 3.801 1.862 4.321 1.302 2.13 2.404 19.436 21.137 22.041 15.413 1.305-2.867 16.75-17.227 16.75-17.227l5.625-11.71-3.118-27.24L32.675.022" id="cY"/><path d="M19.707 3.459s-23.309 9.669-18.45 27.254C6.116 48.298 15.562 54.133 22 53.218c9.167-1.3 14.514-.211 17.673.879 2.7.93 3.801 1.862 4.321 1.302 2.13 2.404 19.436 21.137 22.041 15.413 1.305-2.867 16.75-17.227 16.75-17.227l5.625-11.71-3.118-27.24L32.675.022" id="da"/><path d="M19.707 3.459s-23.309 9.669-18.45 27.254C6.116 48.298 15.562 54.133 22 53.218c9.167-1.3 14.514-.211 17.673.879 2.7.93 3.801 1.862 4.321 1.302 2.13 2.404 19.436 21.137 22.041 15.413 1.305-2.867 16.75-17.227 16.75-17.227l5.625-11.71-3.118-27.24L32.675.022" id="dc"/><path d="M19.707 3.459s-23.309 9.669-18.45 27.254C6.116 48.298 15.562 54.133 22 53.218c9.167-1.3 14.514-.211 17.673.879 2.7.93 3.801 1.862 4.321 1.302 2.13 2.404 19.436 21.137 22.041 15.413 1.305-2.867 16.75-17.227 16.75-17.227l5.625-11.71-3.118-27.24L32.675.022" id="de"/><path d="M19.707 3.459s-23.309 9.669-18.45 27.254C6.116 48.298 15.562 54.133 22 53.218c9.167-1.3 14.514-.211 17.673.879 2.7.93 3.801 1.862 4.321 1.302 2.13 2.404 19.436 21.137 22.041 15.413 1.305-2.867 16.75-17.227 16.75-17.227l5.625-11.71-3.118-27.24L32.675.022" id="dg"/><path d="M19.707 3.459s-23.309 9.669-18.45 27.254C6.116 48.298 15.562 54.133 22 53.218c9.167-1.3 14.514-.211 17.673.879 2.7.93 3.801 1.862 4.321 1.302 2.13 2.404 19.436 21.137 22.041 15.413 1.305-2.867 16.75-17.227 16.75-17.227l5.625-11.71-3.118-27.24L32.675.022" id="di"/><path d="M19.707 3.459s-23.309 9.669-18.45 27.254C6.116 48.298 15.562 54.133 22 53.218c9.167-1.3 14.514-.211 17.673.879 2.7.93 3.801 1.862 4.321 1.302 2.13 2.404 19.436 21.137 22.041 15.413 1.305-2.867 16.75-17.227 16.75-17.227l5.625-11.71-3.118-27.24L32.675.022" id="dk"/><path d="M19.707 3.459s-23.309 9.669-18.45 27.254C6.116 48.298 15.562 54.133 22 53.218c9.167-1.3 14.514-.211 17.673.879 2.7.93 3.801 1.862 4.321 1.302 2.13 2.404 19.436 21.137 22.041 15.413 1.305-2.867 16.75-17.227 16.75-17.227l5.625-11.71-3.118-27.24L32.675.022" id="dm"/><path d="M19.707 3.459s-23.309 9.669-18.45 27.254C6.116 48.298 15.562 54.133 22 53.218c9.167-1.3 14.514-.211 17.673.879 2.7.93 3.801 1.862 4.321 1.302 2.13 2.404 19.436 21.137 22.041 15.413 1.305-2.867 16.75-17.227 16.75-17.227l5.625-11.71-3.118-27.24L32.675.022" id="do"/><path d="M19.707 3.459s-23.309 9.669-18.45 27.254C6.116 48.298 15.562 54.133 22 53.218c9.167-1.3 14.514-.211 17.673.879 2.7.93 3.801 1.862 4.321 1.302 2.13 2.404 19.436 21.137 22.041 15.413 1.305-2.867 16.75-17.227 16.75-17.227l5.625-11.71-3.118-27.24L32.675.022" id="dq"/><path d="M19.707 3.459s-23.309 9.669-18.45 27.254C6.116 48.298 15.562 54.133 22 53.218c9.167-1.3 14.514-.211 17.673.879 2.7.93 3.801 1.862 4.321 1.302 2.13 2.404 19.436 21.137 22.041 15.413 1.305-2.867 16.75-17.227 16.75-17.227l5.625-11.71-3.118-27.24L32.675.022" id="ds"/><path d="M19.707 3.459s-23.309 9.669-18.45 27.254C6.116 48.298 15.562 54.133 22 53.218c9.167-1.3 14.514-.211 17.673.879 2.7.93 3.801 1.862 4.321 1.302 2.13 2.404 19.436 21.137 22.041 15.413 1.305-2.867 16.75-17.227 16.75-17.227l5.625-11.71-3.118-27.24L32.675.022" id="du"/><path d="M19.707 3.459s-23.309 9.669-18.45 27.254C6.116 48.298 15.562 54.133 22 53.218c9.167-1.3 14.514-.211 17.673.879 2.7.93 3.801 1.862 4.321 1.302 2.13 2.404 19.436 21.137 22.041 15.413 1.305-2.867 16.75-17.227 16.75-17.227l5.625-11.71-3.118-27.24L32.675.022" id="dw"/><path d="M19.707 3.459s-23.309 9.669-18.45 27.254C6.116 48.298 15.562 54.133 22 53.218c9.167-1.3 14.514-.211 17.673.879 2.7.93 3.801 1.862 4.321 1.302 2.13 2.404 19.436 21.137 22.041 15.413 1.305-2.867 16.75-17.227 16.75-17.227l5.625-11.71-3.118-27.24L32.675.022" id="dy"/><path d="M19.707 3.459s-23.309 9.669-18.45 27.254C6.116 48.298 15.562 54.133 22 53.218c9.167-1.3 14.514-.211 17.673.879 2.7.93 3.801 1.862 4.321 1.302 2.13 2.404 19.436 21.137 22.041 15.413 1.305-2.867 16.75-17.227 16.75-17.227l5.625-11.71-3.118-27.24L32.675.022" id="dA"/><path d="M19.707 3.459s-23.309 9.669-18.45 27.254C6.116 48.298 15.562 54.133 22 53.218c9.167-1.3 14.514-.211 17.673.879 2.7.93 3.801 1.862 4.321 1.302 2.13 2.404 19.436 21.137 22.041 15.413 1.305-2.867 16.75-17.227 16.75-17.227l5.625-11.71-3.118-27.24L32.675.022" id="dC"/><path d="M19.707 3.459s-23.309 9.669-18.45 27.254C6.116 48.298 15.562 54.133 22 53.218c9.167-1.3 14.514-.211 17.673.879 2.7.93 3.801 1.862 4.321 1.302 2.13 2.404 19.436 21.137 22.041 15.413 1.305-2.867 16.75-17.227 16.75-17.227l5.625-11.71-3.118-27.24L32.675.022" id="dE"/><path d="M19.707 3.459s-23.309 9.669-18.45 27.254C6.116 48.298 15.562 54.133 22 53.218c9.167-1.3 14.514-.211 17.673.879 2.7.93 3.801 1.862 4.321 1.302 2.13 2.404 19.436 21.137 22.041 15.413 1.305-2.867 16.75-17.227 16.75-17.227l5.625-11.71-3.118-27.24L32.675.022" id="dG"/><path d="M19.707 3.459s-23.309 9.669-18.45 27.254C6.116 48.298 15.562 54.133 22 53.218c9.167-1.3 14.514-.211 17.673.879 2.7.93 3.801 1.862 4.321 1.302 2.13 2.404 19.436 21.137 22.041 15.413 1.305-2.867 16.75-17.227 16.75-17.227l5.625-11.71-3.118-27.24L32.675.022" id="dI"/><path d="M19.707 3.459s-23.309 9.669-18.45 27.254C6.116 48.298 15.562 54.133 22 53.218c9.167-1.3 14.514-.211 17.673.879 2.7.93 3.801 1.862 4.321 1.302 2.13 2.404 19.436 21.137 22.041 15.413 1.305-2.867 16.75-17.227 16.75-17.227l5.625-11.71-3.118-27.24L32.675.022" id="dK"/><path d="M19.707 3.459s-23.309 9.669-18.45 27.254C6.116 48.298 15.562 54.133 22 53.218c9.167-1.3 14.514-.211 17.673.879 2.7.93 3.801 1.862 4.321 1.302 2.13 2.404 19.436 21.137 22.041 15.413 1.305-2.867 16.75-17.227 16.75-17.227l5.625-11.71-3.118-27.24L32.675.022" id="dM"/><path d="M19.707 3.459s-23.309 9.669-18.45 27.254C6.116 48.298 15.562 54.133 22 53.218c9.167-1.3 14.514-.211 17.673.879 2.7.93 3.801 1.862 4.321 1.302 2.13 2.404 19.436 21.137 22.041 15.413 1.305-2.867 16.75-17.227 16.75-17.227l5.625-11.71-3.118-27.24L32.675.022" id="dO"/><path d="M19.707 3.459s-23.309 9.669-18.45 27.254C6.116 48.298 15.562 54.133 22 53.218c9.167-1.3 14.514-.211 17.673.879 2.7.93 3.801 1.862 4.321 1.302 2.13 2.404 19.436 21.137 22.041 15.413 1.305-2.867 16.75-17.227 16.75-17.227l5.625-11.71-3.118-27.24L32.675.022" id="dQ"/><path d="M19.707 3.459s-23.309 9.669-18.45 27.254C6.116 48.298 15.562 54.133 22 53.218c9.167-1.3 14.514-.211 17.673.879 2.7.93 3.801 1.862 4.321 1.302 2.13 2.404 19.436 21.137 22.041 15.413 1.305-2.867 16.75-17.227 16.75-17.227l5.625-11.71-3.118-27.24L32.675.022" id="dS"/><path d="M19.707 3.459s-23.309 9.669-18.45 27.254C6.116 48.298 15.562 54.133 22 53.218c9.167-1.3 14.514-.211 17.673.879 2.7.93 3.801 1.862 4.321 1.302 2.13 2.404 19.436 21.137 22.041 15.413 1.305-2.867 16.75-17.227 16.75-17.227l5.625-11.71-3.118-27.24L32.675.022" id="dU"/><path d="M1.719.261a1 1 0 1 0 0 1.999h11.334a.998.998 0 1 0 0-1.999H1.719z" id="dW"/><path d="M1.552.261a.999.999 0 1 0 0 1.999H5.22a.998.998 0 1 0 0-1.999H1.552z" id="dY"/><path d="M1.214.261a.999.999 0 1 0 0 1.999H14.88a.999.999 0 1 0 0-1.999H1.214z" id="ea"/><path d="M.253 1.792v7.001a1 1 0 1 0 2 0V1.792a.999.999 0 0 0-1-.999c-.553 0-1 .446-1 .999z" id="ec"/><path d="M1.753.293a.998.998 0 1 0 0 1.999h7a1 1 0 1 0 0-1.999h-7z" id="ee"/><path d="M.786 1.803v7c0 .554.447 1 .999 1 .554 0 1-.446 1-1v-7a.998.998 0 1 0-1.999 0z" id="eg"/><path d="M1.285.303a1 1 0 1 0 0 2h7.001a.998.998 0 0 0 .999-1c0-.553-.446-1-.999-1H1.285z" id="ei"/><path d="M.296.719v3.936a.5.5 0 1 0 1 0V.719a.5.5 0 1 0-1 0z" id="ek"/><path d="M.826.187a.5.5 0 0 0 0 1h3.939a.5.5 0 0 0 0-1H.826z" id="em"/><path d="M.908.594v3.937a.5.5 0 0 0 1 0V.594a.499.499 0 1 0-1 0z" id="eo"/><path d="M1.439.062a.5.5 0 0 0 0 1h3.938a.5.5 0 0 0 0-1H1.439z" id="eq"/><path d="M.977 1.566v7.001a1 1 0 1 0 2 0V1.566a1 1 0 0 0-2 0z" id="es"/><path d="M1.477.067a1 1 0 1 0 0 1.999h7a.999.999 0 1 0 0-1.999h-7z" id="eu"/><path d="M1 .798a1 1 0 1 0 0 2h5.334a1 1 0 1 0 0-2H1z" id="ew"/><path d="M103.081 26.894c-9.451 1.062-16.856 8.82-17.403 18.418l114.777.019c.399-1.822.613-3.712.613-5.653 0-14.602-11.838-26.441-26.44-26.441-2.228 0-4.389.28-6.453.797C162.229 6.063 145.728.902 135.019.902c-15.744 0-28.878 11.156-31.938 25.992zM15.458 38.849c0 2.241.334 4.401.933 6.449H.334l81.145.013-2.519-.013c-.605-7.938-7.226-14.196-15.321-14.196-1.157 0-2.282.13-3.364.373-3.076-9.093-11.671-15.642-21.8-15.642-12.712 0-23.017 10.304-23.017 23.016zm70.219 6.485l.001-.022-4.199-.001 4.198.023zm114.777 0h16.261l-16.26-.003-.001.003z" id="ey"/><path d="M103.254 26.992a20.579 20.579 0 0 0-17.5 18.339l-4.893-.032c-1.076-8.033-8.029-14.198-16.222-14.198-.906 0-1.814.077-2.713.227a24.002 24.002 0 0 0-22.451-15.495c-13.244 0-24.017 10.774-24.017 24.016 0 1.822.214 3.649.635 5.449H1.334c-.554 0-1 .447-1 1 0 .553.446 1 1 1h17.391l-.374-1.279a21.988 21.988 0 0 1-.893-6.17c0-12.14 9.877-22.016 22.017-22.016a22.003 22.003 0 0 1 20.853 14.961l.287.852.878-.197a14.47 14.47 0 0 1 3.146-.347c7.463 0 13.756 5.83 14.324 13.272l.071.922 8.588.041.053-.947c.51-9.124 7.456-16.485 16.517-17.501l.723-.081.146-.711C108.07 13.496 121.09 2.9 136.019 2.9c10.079 0 26.32 4.641 32.353 12.732l.399.534.646-.162a25.526 25.526 0 0 1 6.211-.767c14.027 0 25.44 11.414 25.44 25.442 0 1.815-.199 3.646-.59 5.441l-.265 1.213h17.502a1 1 0 1 0 0-1.999h-15.046c.266-1.543.4-3.104.4-4.655 0-15.132-12.31-27.442-27.441-27.442a27.62 27.62 0 0 0-6.053.673C163.156 5.634 146.515.901 136.019.901c-15.633 0-29.298 10.93-32.765 26.091z" id="eA"/></defs><g fill="none" fill-rule="evenodd"><g transform="translate(25 121.781)"><mask id="b" fill="#fff"><use xlink:href="#a"/></mask><path fill="#E1F2FF" mask="url(#b)" d="M-4.64 108.653h217.116V-4.905H-4.64z"/></g><g transform="translate(64 29.781)"><mask id="d" fill="#fff"><use xlink:href="#c"/></mask><path fill="#5E63B6" mask="url(#d)" d="M-4.483 98.152h139.791V-4.666H-4.483z"/></g><g transform="translate(88 126.781)"><mask id="f" fill="#fff"><use xlink:href="#e"/></mask><path fill="#5E63B6" mask="url(#f)" d="M-4.333 91.841h92.3V-4.448h-92.3z"/></g><g transform="translate(90 132.781)"><mask id="h" fill="#fff"><use xlink:href="#g"/></mask><path fill="#E1F2FF" mask="url(#h)" d="M-4.333 82.852h88.117v-87.81H-4.333z"/></g><g transform="translate(90 131.781)"><mask id="j" fill="#fff"><use xlink:href="#i"/></mask><path fill="#FFF" mask="url(#j)" d="M-6.333 72.552h92v-126h-92z"/></g><g transform="translate(86 66.781)"><mask id="l" fill="#fff"><use xlink:href="#k"/></mask><path fill="#9ACDED" mask="url(#l)" d="M-4.333 50.552h97v-55h-97z"/></g><g transform="translate(88 68.781)"><mask id="n" fill="#fff"><use xlink:href="#m"/></mask><path fill="#E1F2FF" mask="url(#n)" d="M-4.333 47.552h93v-52h-93z"/></g><g transform="translate(95 68.781)"><mask id="p" fill="#fff"><use xlink:href="#o"/></mask><path fill="#FFF" mask="url(#p)" d="M-4.333 46.552h79v-51h-79z"/></g><g transform="translate(112 151.781)"><mask id="r" fill="#fff"><use xlink:href="#q"/></mask><path fill="#5E63B6" mask="url(#r)" d="M-4.639 42.481h44.676V-4.391H-4.639z"/></g><g transform="translate(114 153.781)"><mask id="t" fill="#fff"><use xlink:href="#s"/></mask><path fill="#E1F2FF" mask="url(#t)" d="M-4.69 38.481h41.097V-4.391H-4.69z"/></g><g transform="translate(116 159.781)"><mask id="v" fill="#fff"><use xlink:href="#u"/></mask><path fill="#9ACDED" mask="url(#v)" d="M-10.944 44.048h49.327V-4.229h-49.327z"/></g><g transform="translate(103 86.781)"><mask id="x" fill="#fff"><use xlink:href="#w"/></mask><path fill="#5E63B6" mask="url(#x)" d="M-4.025 11.729h29.662v-16.1H-4.025z"/></g><g transform="translate(137 86.781)"><mask id="z" fill="#fff"><use xlink:href="#y"/></mask><path fill="#5E63B6" mask="url(#z)" d="M-4.926 11.729h29.662v-16.1H-4.926z"/></g><g transform="translate(32 235.781)"><mask id="B" fill="#fff"><use xlink:href="#A"/></mask><path fill="#9ACDED" mask="url(#B)" d="M-4.39 7.261h34.333v-12H-4.39z"/></g><g transform="translate(242 224.781)"><mask id="D" fill="#fff"><use xlink:href="#C"/></mask><path fill="#9ACDED" mask="url(#D)" d="M-4.78 7.798h17v-12h-17z"/></g><g transform="translate(98 235.781)"><mask id="F" fill="#fff"><use xlink:href="#E"/></mask><path fill="#9ACDED" mask="url(#F)" d="M-4.653 7.261h67.727v-12H-4.653z"/></g><g transform="translate(122 127.781)"><mask id="H" fill="#fff"><use xlink:href="#G"/></mask><path d="M43.588 125.54l4.859 1.087a4.172 4.172 0 0 0 4.369-1.732c2.718-4.055 3.2-8.232 4.187-11.675 1.828-6.38 1.559-9.918 1.805-15.541l-7.332-1.462s.019 2.824-1.37 10.976c-.43 2.523-6.79 11.617-7.697 16.574a1.535 1.535 0 0 0 1.179 1.773" fill="#9452BA" mask="url(#H)"/></g><g transform="translate(122 127.781)"><mask id="J" fill="#fff"><use xlink:href="#I"/></mask><path d="M50.468 94.996l9.376 1.87-.037.857c-.04.897-.056 1.426-.105 3.106a104.641 104.641 0 0 1-.13 3.3c-.188 3.225-.633 5.963-1.608 9.366-.154.54-.298 1.1-.499 1.927-1.082 4.463-1.51 5.873-2.73 8.199a19.82 19.82 0 0 1-1.089 1.831 5.172 5.172 0 0 1-5.417 2.15l-4.86-1.086a2.535 2.535 0 0 1-1.944-2.929c.336-1.834 1.313-4.156 2.934-7.263.298-.57.617-1.167.978-1.83.07-.13 2.077-3.763 2.542-4.647.753-1.43 1.163-2.363 1.241-2.822.597-3.504.98-6.28 1.19-8.406.074-.744.12-1.354.146-1.838.015-.29.02-.472.02-.558l-.008-1.227zm-1.803 30.655a3.171 3.171 0 0 0 3.32-1.313c.357-.532.682-1.08.98-1.646 1.116-2.128 1.514-3.445 2.557-7.741.206-.851.356-1.435.52-2.006.933-3.257 1.353-5.85 1.534-8.933.053-.896.082-1.689.127-3.241.032-1.117.05-1.729.071-2.278l-5.353-1.068c-.028.385-.067.847-.12 1.391-.216 2.174-.605 4.997-1.21 8.545-.126.746-.585 1.789-1.442 3.418-.476.904-2.494 4.557-2.556 4.671-.355.654-.67 1.24-.961 1.8-1.533 2.936-2.45 5.118-2.74 6.696a.535.535 0 0 0 .415.618l4.858 1.087z" fill="#52267D" fill-rule="nonzero" mask="url(#J)"/></g><g transform="translate(122 127.781)"><mask id="L" fill="#fff"><use xlink:href="#K"/></mask><path d="M34.61 99.278l-4.38-7.966-3.655-.666s-1.746 5.421-2.473 7.693c-1.28 4.002-4.764 11.627-6.589 14.908-.593 1.066-1.029 2.091-1.3 3.046-.457 1.61.602 3.258 2.234 3.624l4.305.963c2.506.56 5.11-.614 6.27-2.907 3.61-7.137 5.587-18.695 5.587-18.695" fill="#9452BA" mask="url(#L)"/></g><g transform="translate(122 127.781)"><mask id="N" fill="#fff"><use xlink:href="#M"/></mask><path d="M35.654 99.103l-.059.344-.05.281c-.04.225-.09.486-.146.779-.16.835-.351 1.765-.573 2.766-.632 2.863-1.379 5.727-2.238 8.405-.827 2.58-1.718 4.856-2.674 6.746-1.36 2.69-4.414 4.095-7.38 3.432l-4.305-.963c-2.2-.493-3.59-2.718-2.978-4.873.295-1.037.762-2.133 1.388-3.259 1.987-3.571 5.347-11.088 6.511-14.726a2802.042 2802.042 0 0 1 2.038-6.344l.316-.98.12-.371.268-.835 4.986.909 4.776 8.689zm-6.07-6.892l-2.325-.424a29526.432 29526.432 0 0 0-1.124 3.492 2809.35 2809.35 0 0 0-1.08 3.365c-1.207 3.773-4.62 11.409-6.668 15.09-.554.997-.962 1.952-1.212 2.833-.292 1.03.393 2.128 1.49 2.374l4.305.963c2.081.465 4.216-.517 5.16-2.382.902-1.785 1.756-3.967 2.554-6.455.838-2.613 1.57-5.418 2.19-8.225a101.977 101.977 0 0 0 .689-3.391l-3.98-7.24z" fill="#52267D" fill-rule="nonzero" mask="url(#N)"/></g><g transform="translate(122 127.781)"><mask id="P" fill="#fff"><use xlink:href="#O"/></mask><path d="M24.542 102.738l.229.323.085-.495-.314.172zm.487.688l1.224-.181-.057-.268-.82.01-.05.284-.465-.082.168.237zm1.57-.954l.254 1.19-2.054.303-.99-1.396 1.405-.768.24.439-.46.251 1.606-.02z" fill="#52267D" fill-rule="nonzero" mask="url(#P)"/></g><g transform="translate(122 127.781)"><mask id="R" fill="#fff"><use xlink:href="#Q"/></mask><path d="M31.936 72.666c4.292.869 8.956-1.179 17.767.37.253-.542.522-1.022.811-1.401 2.343-3.065 6.773-12.414 6.79-19.203l.012-5.372c.005-1.763.2-3.52.585-5.24a10.645 10.645 0 0 1 2.03-4.271 10.683 10.683 0 0 1 1.422-1.479 10.694 10.694 0 0 1 3.532-2.009 10.573 10.573 0 0 1 5.718-.299l1.703.38a10.605 10.605 0 0 1 7.165 5.569 10.759 10.759 0 0 1 .876 2.403 10.7 10.7 0 0 1 .271 2.063 10.671 10.671 0 0 1-.254 2.667 2.644 2.644 0 0 1-1.166 1.66 2.643 2.643 0 0 1-2 .349L66.57 46.476l-.456 9.584c-.231 9.898-2.215 16.108-4.622 20.005-.538.87-3.14 3.792-3.14 3.792 3.438 9.574 10.768 15.062 19.244 18.075 7.206 2.561 24.709-.618 18.212-10.277-6.498-9.659 2.379-2.571 3.624-1.254 1.245 1.318 8.086 10.541-3.522 19.235-4.909 3.676-10.242 6.822-21.558 7.618-1.813.128-11.247-1.274-16.564-.957-15.834.943-26.892-6.405-31.473-17.743-4.563-11.29 3.925-22.231 5.62-21.888" fill="#9452BA" mask="url(#R)"/></g><g transform="translate(122 127.781)"><mask id="T" fill="#fff"><use xlink:href="#S"/></mask><path d="M31.62 73.846c-.326.243-.726.639-1.151 1.148-.995 1.192-1.99 2.829-2.771 4.648-2.02 4.702-2.372 9.791-.454 14.537 4.634 11.47 15.703 18 30.485 17.12 1.742-.104 3.966-.04 6.74.161 1.087.079 2.22.175 3.57.3.246.023 3.29.314 4.005.376 1.192.103 1.92.143 2.24.12 9.582-.674 14.816-2.769 21.028-7.42 4.86-3.64 6.648-7.519 6.187-11.468-.303-2.593-1.604-5.022-2.793-6.28-.696-.736-2.608-2.237-3.88-2.985.35.705.95 1.711 1.812 2.994 3.357 4.99 1.234 9.076-4.444 11.215-4.59 1.729-11.02 1.953-14.932.562-9.693-3.446-16.57-9.543-19.85-18.679l-.202-.56.396-.443.5-.567c.376-.43.752-.864 1.102-1.277.795-.943 1.27-1.545 1.434-1.808 2.659-4.305 4.267-10.688 4.475-19.527l.511-10.773 1.16.26 10.628 2.377c.434.097.877.017 1.246-.217.368-.234.63-.6.726-1.034a9.665 9.665 0 0 0 .081-3.82 9.362 9.362 0 0 0-.264-1.077 9.76 9.76 0 0 0-1.084-2.37 9.603 9.603 0 0 0-6.033-4.241l-1.703-.38a9.573 9.573 0 0 0-6.045.61 9.693 9.693 0 0 0-3.622 2.819 9.564 9.564 0 0 0-1.225 2.018 9.646 9.646 0 0 0-.616 1.853 23.24 23.24 0 0 0-.56 5.024l-.014 5.372c-.014 6.058-3.748 15.562-6.993 19.807-.227.298-.461.705-.7 1.218l-.325.695-.755-.133c-3.95-.694-6.773-.72-11.184-.36-3.698.3-4.821.332-6.463.014a1.909 1.909 0 0 0-.264.17zm.294-.188a.066.066 0 0 0 .009-.002l-.009.002zM77.931 96.99c3.45 1.225 9.395 1.019 13.558-.55 4.598-1.732 6.019-4.467 3.49-8.227-1.626-2.416-2.428-3.967-2.516-4.922-.162-1.751 1.236-1.957 2.677-1.285 1.443.674 4.056 2.689 5.02 3.708 1.464 1.55 2.968 4.358 3.326 7.423.545 4.677-1.56 9.244-6.975 13.3-6.508 4.872-12.103 7.112-22.087 7.815-.466.032-1.244-.01-2.552-.123-.726-.063-3.78-.355-4.017-.377-1.339-.124-2.459-.22-3.53-.297-2.694-.195-4.842-.257-6.477-.16-15.615.93-27.493-6.077-32.459-18.366-2.135-5.285-1.746-10.916.471-16.076 1.774-4.127 4.594-7.507 6.274-7.167 1.465.296 2.454.273 6.05-.02 4.293-.348 7.182-.346 10.96.262.185-.339.376-.638.576-.9 2.997-3.92 6.57-13.015 6.584-18.598l.013-5.372a25.24 25.24 0 0 1 .609-5.456 11.64 11.64 0 0 1 2.22-4.673 11.69 11.69 0 0 1 1.556-1.619 11.69 11.69 0 0 1 3.862-2.196 11.57 11.57 0 0 1 6.257-.328l1.703.38a11.603 11.603 0 0 1 7.838 6.093 11.758 11.758 0 0 1 .959 2.629 11.705 11.705 0 0 1 .296 2.259 11.672 11.672 0 0 1-.277 2.915 3.644 3.644 0 0 1-1.607 2.287 3.642 3.642 0 0 1-2.754.48l-9.466-2.117-.398 8.371c-.214 9.148-1.909 15.873-4.772 20.507-.234.38-.74 1.02-1.478 1.895-.49.578-.872 1.02-1.255 1.457 3.026 8.35 9.358 13.861 18.321 17.048z" fill="#52267D" fill-rule="nonzero" mask="url(#T)"/></g><g transform="translate(122 127.781)"><mask id="V" fill="#fff"><use xlink:href="#U"/></mask><path d="M44.325 60.61c2.8-10.913-3.99-21.5-13.495-25.54-1.973-.84-2.498-1.636-4.749-2.14l-1.725-.384c-5.807-1.3-11.569 2.355-12.868 8.164a2.688 2.688 0 0 0 2.036 3.208s17.683 3.95 17.768 3.96l1.441.324c-.003.001-1.443-.32-1.446-.319 3.54 2.535 4.854 8.077 4.684 10.858-.245 3.96-1.398 7.014-3.273 9.273-1.249 1.505-1.806 3.531-2.042 5.218l.093.058c-.137.9-.219 1.94-.212 3.15 1.924-.789 4.904-1.956 5.434-2.1 1.141-.31 3.723-1.022 4.887-1.383 7.442-2.306 1.875-6.14 3.467-12.348" fill="#9452BA" mask="url(#V)"/></g><g transform="translate(122 127.781)"><mask id="X" fill="#fff"><use xlink:href="#W"/></mask><path d="M22.19 46.877l-6.112-1.364-2.01-.449-.763-.17a3.689 3.689 0 0 1-2.793-4.402c1.42-6.348 7.716-10.342 14.061-8.922l1.727.384c1.166.262 1.928.579 2.928 1.149.107.06.517.298.458.264.181.105.32.183.461.26.359.196.697.362 1.074.522 10.495 4.462 16.868 15.812 14.073 26.709-.427 1.662-.347 3.025.12 5.301.954 4.654.39 6.313-4.26 7.753-.973.302-3.073.891-4.92 1.393-.427.116-3.21 1.196-5.318 2.06l-1.37.561-.009-1.48c-.005-.947.041-1.829.136-2.652l-.097-.06.09-.64c.314-2.243 1.026-4.228 2.263-5.718 1.781-2.147 2.817-5.033 3.044-8.696.198-3.24-1.463-7.85-4.121-9.875-.76-.166-3.061-.678-8.661-1.928zM35.71 73.375c1.824-.495 3.91-1.08 4.853-1.373 3.46-1.072 3.665-1.674 2.892-5.44-.522-2.55-.617-4.175-.097-6.201 2.537-9.894-3.294-20.28-12.918-24.371-.44-.188-.837-.382-1.25-.607a23.906 23.906 0 0 1-.502-.283c.054.03-.349-.202-.45-.26-.839-.478-1.42-.72-2.373-.934l-1.726-.384c-5.268-1.18-10.496 2.137-11.674 7.406-.203.909.37 1.81 1.278 2.014l.762.17 2.01.45 6.099 1.36c3.979.888 8.823 1.967 8.808 1.965l.429.21c-.404-.235-.392-.23-.275-.18l.162.037.495.11.495.112.164.037c-.028-.033-.028-.033.55.282l-.19.805c2.515 2.722 3.924 7.144 3.718 10.503-.251 4.067-1.433 7.358-3.501 9.85-.853 1.028-1.416 2.443-1.718 4.08l.087.054-.1.654a17.23 17.23 0 0 0-.158 1.498c1.852-.74 3.697-1.446 4.13-1.564z" fill="#52267D" fill-rule="nonzero" mask="url(#X)"/></g><g transform="translate(122 127.781)"><mask id="Z" fill="#fff"><use xlink:href="#Y"/></mask><path d="M35.853 72.046c.294-1.716.23-2.646.573-3.293 1.985-3.73 2.622-4.905 3.563-9.113.936-4.182-.563-8.857-3.648-11.856-.17-.165-2.703-.922-5.053.1 3.539 2.534 4.854 8.076 4.683 10.857-.244 3.96-1.397 7.015-3.272 9.274-1.25 1.505-1.806 3.53-2.042 5.218 0 0 4.393 2.874 5.196-1.187" fill="#F3E3FF" mask="url(#Z)"/><path d="M35.514 70.906c.026-.212.098-.863.098-.858.088-.765.172-1.152.373-1.53 1.241-2.332 1.598-3.033 2.017-4.01.392-.914.7-1.814 1.006-2.949.158-.587.32-1.249.494-2.028.887-3.97-.517-8.48-3.51-11.39-.263-.256-2.111-.452-3.681-.07 2.767 2.518 4.372 7.225 4.159 10.7-.245 3.966-1.39 7.158-3.387 9.563-.974 1.174-1.583 2.787-1.882 4.642.16.09.36.191.59.294.545.243 1.081.402 1.566.44 1.061.085 1.734-.394 2.005-1.755.06-.35.107-.685.152-1.049zm.83 1.237c-.371 1.876-1.51 2.689-3.066 2.565-.614-.05-1.254-.24-1.894-.525a8.414 8.414 0 0 1-1.001-.532l-.266-.173.044-.314c.302-2.16.984-4.06 2.153-5.469 1.853-2.232 2.926-5.22 3.157-8.985.213-3.456-1.574-8.343-4.475-10.42l-.717-.513.81-.352c2.006-.872 4.969-.616 5.6 0 3.24 3.148 4.753 8.01 3.788 12.324a49.156 49.156 0 0 1-.504 2.07 22.237 22.237 0 0 1-1.052 3.083c-.434 1.013-.797 1.726-2.053 4.086-.124.232-.188.53-.263 1.175.001-.01-.072.646-.099.864-.046.381-.097.734-.16 1.103l-.492-.084.49.097z" fill="#52267D" fill-rule="nonzero" mask="url(#Z)"/></g><g transform="translate(122 127.781)"><mask id="ab" fill="#fff"><use xlink:href="#aa"/></mask><path d="M18.44 33.098s.405-1.837 2.394-2.16c.607-.097 1.715-.283 1.715-.283s.575 2.542-.787 2.845c-1.96.438-3.323-.402-3.323-.402" fill="#FFF" mask="url(#ab)"/></g><g transform="translate(122 127.781)"><mask id="ad" fill="#fff"><use xlink:href="#ac"/></mask><path d="M19.199 32.89a4.447 4.447 0 0 0 2.454.122c.295-.066.465-.38.507-.957.02-.26.008-.542-.024-.824l-.534.088-.02.004c-.266.044-.493.08-.668.11-.668.107-1.162.417-1.523.872-.147.184-.256.37-.332.533.043.017.09.034.14.051zm-1.248.1c.076-.344.274-.825.656-1.307.51-.642 1.222-1.088 2.148-1.238l.663-.109.021-.003.708-.118.32-.054.466-.078.104.461c.018.08.043.21.067.381.058.401.082.811.054 1.203-.071.967-.456 1.675-1.287 1.86a5.437 5.437 0 0 1-3-.154 3.685 3.685 0 0 1-.694-.31l-.302-.187.076-.347z" fill="#52267D" fill-rule="nonzero" mask="url(#ad)"/></g><g transform="translate(122 127.781)"><mask id="af" fill="#fff"><use xlink:href="#ae"/></mask><path d="M23.297 32.828s.61-2.49 3.508-2.226c.54.05 1.903.39 1.903.39s.04 2.788-1.502 2.711c-1.894-.096-3.91-.875-3.91-.875" fill="#FFF" mask="url(#af)"/></g><g transform="translate(122 127.781)"><mask id="ah" fill="#fff"><use xlink:href="#ag"/></mask><path d="M24.82 32.788a12.47 12.47 0 0 0 2.107.394c.104.01.205.017.304.022.382.019.653-.307.827-.981a4.91 4.91 0 0 0 .136-.841 32.996 32.996 0 0 0-.438-.1l-.211-.045a7.988 7.988 0 0 0-.785-.137c-1.151-.105-1.942.253-2.482.92-.141.174-.25.349-.331.506.27.09.564.178.873.262zm-2.009-.08c.085-.345.296-.831.69-1.317.744-.92 1.856-1.423 3.349-1.287.21.02.515.073.9.154l.22.047a34.196 34.196 0 0 1 .859.201l.373.093.006.385c.003.41-.042.947-.181 1.489-.279 1.078-.863 1.779-1.846 1.73a9.045 9.045 0 0 1-.342-.024 13.437 13.437 0 0 1-2.279-.426 17.381 17.381 0 0 1-1.443-.459l-.41-.158.104-.427z" fill="#52267D" fill-rule="nonzero" mask="url(#ah)"/></g><g transform="translate(122 127.781)"><mask id="aj" fill="#fff"><use xlink:href="#ai"/></mask><path d="M28.84 34.32s.992-2.692 3.315-1.372a3.56 3.56 0 0 1 1.403 1.505s-.97 2.003-1.908 1.544c-1.64-.803-2.81-1.677-2.81-1.677" fill="#FFF" mask="url(#aj)"/></g><g transform="translate(122 127.781)"><mask id="al" fill="#fff"><use xlink:href="#ak"/></mask><path d="M29.795 34.368a20.107 20.107 0 0 0 2.098 1.19c.144.048.438-.152.769-.597.132-.178.245-.357.332-.51a3.188 3.188 0 0 0-.478-.602 2.852 2.852 0 0 0-.608-.466c-.945-.537-1.615-.33-2.173.378-.105.135-.193.27-.263.393.093.063.201.135.323.214zm-.846-1.225c.84-1.067 2.034-1.436 3.452-.63.306.173.579.386.822.628.41.41.666.82.793 1.113l.092.21-.1.207a5.994 5.994 0 0 1-.544.887c-.568.764-1.184 1.184-1.889.948a1.2 1.2 0 0 1-.145-.06 21.099 21.099 0 0 1-2.18-1.24 14.255 14.255 0 0 1-.708-.485l-.3-.223.13-.35c.096-.263.284-.632.577-1.005z" fill="#52267D" fill-rule="nonzero" mask="url(#al)"/></g><g transform="translate(122 127.781)"><mask id="an" fill="#fff"><use xlink:href="#am"/></mask><path d="M33.067 49.411s6.52-1.859 6.603-7.424c.628.81 2.258 3.21 2.785 4.368-.233 1.041-.967 5.218-7.293 6.71-.77-1.266-1.326-2.754-2.095-3.654" fill="#FFF" mask="url(#an)"/></g><g transform="translate(122 127.781)"><mask id="ap" fill="#fff"><use xlink:href="#ao"/></mask><path d="M34.554 50.863c.073.14.377.74.457.895.145.28.271.517.393.731 2.327-.607 3.967-1.627 5.057-2.95a6.838 6.838 0 0 0 1.13-1.95c.158-.42.207-.594.339-1.175-.365-.739-1.184-2.04-1.9-3.079-.397 1.973-1.604 3.576-3.37 4.835a12.647 12.647 0 0 1-2.786 1.49c.209.32.423.704.68 1.203zM32.93 48.93c.187-.053.529-.171.973-.361a11.66 11.66 0 0 0 2.176-1.213c1.913-1.364 3.058-3.134 3.091-5.376l.022-1.425.873 1.126c.852 1.096 2.374 3.43 2.846 4.467l.069.153-.037.163c-.172.768-.221.961-.417 1.478a7.834 7.834 0 0 1-1.293 2.233c-1.288 1.563-3.23 2.733-5.956 3.376l-.353.083-.189-.31a17.6 17.6 0 0 1-.613-1.108l-.457-.895c-.396-.769-.675-1.23-.978-1.585l-.506-.592.75-.214z" fill="#52267D" fill-rule="nonzero" mask="url(#ap)"/></g><g transform="translate(122 127.781)"><mask id="ar" fill="#fff"><use xlink:href="#aq"/></mask><path d="M19.344 32.77s.21-.952 1.239-1.118l.888-.148s.297 1.317-.407 1.473c-1.015.228-1.72-.207-1.72-.207" fill="#F3E3FF" mask="url(#ar)"/></g><g transform="translate(122 127.781)"><mask id="at" fill="#fff"><use xlink:href="#as"/></mask><path d="M24.625 32.531s.312-1.27 1.789-1.136c.275.026.97.2.97.2s.02 1.421-.766 1.381c-.966-.049-1.993-.445-1.993-.445" fill="#F3E3FF" mask="url(#at)"/></g><g transform="translate(122 127.781)"><mask id="av" fill="#fff"><use xlink:href="#au"/></mask><path d="M29.782 34.32s.525-1.429 1.758-.728c.527.3.744.8.744.8s-.514 1.062-1.012.818c-.87-.425-1.49-.89-1.49-.89" fill="#F3E3FF" mask="url(#av)"/></g><g transform="translate(122 127.781)"><mask id="ax" fill="#fff"><use xlink:href="#aw"/></mask><path d="M25.862 44.829l-5.314-1.189a4.965 4.965 0 0 1 5.93-3.762l.468.104a2.483 2.483 0 1 1-1.084 4.847" fill="#F3E3FF" mask="url(#ax)"/></g><g transform="translate(122 127.781)"><mask id="az" fill="#fff"><use xlink:href="#ay"/></mask><path d="M25.436 44.638L20.66 43.57a3.901 3.901 0 0 1 4.66-2.956l.968.216a1.952 1.952 0 0 1-.852 3.808" fill="#FFF" mask="url(#az)"/></g><g transform="translate(122 127.781)"><mask id="aB" fill="#fff"><use xlink:href="#aA"/></mask><path d="M27.277 43.05a1.452 1.452 0 0 0-1.098-1.732l-.969-.216a3.402 3.402 0 0 0-3.917 2.097l4.252.95a1.45 1.45 0 0 0 1.732-1.1zm-1.95 2.076l-5.263-1.178.109-.487a4.401 4.401 0 0 1 5.255-3.335l.97.216a2.452 2.452 0 0 1-1.072 4.784z" fill="#52267D" fill-rule="nonzero" mask="url(#aB)"/></g><g transform="translate(122 127.781)"><mask id="aD" fill="#fff"><use xlink:href="#aC"/></mask><path d="M21.976 41.747a1.09 1.09 0 1 0 2.126.475 1.09 1.09 0 0 0-2.126-.475" fill="#52267D" mask="url(#aD)"/></g><g transform="translate(122 127.781)"><mask id="aF" fill="#fff"><use xlink:href="#aE"/></mask><path d="M13.459 43.064a1.36 1.36 0 0 0 .871-.304l.457-.368-.832-.008-.489-.004a.343.343 0 0 0-.007.684" fill="#52267D" mask="url(#aF)"/></g><g transform="translate(122 127.781)"><mask id="aH" fill="#fff"><use xlink:href="#aG"/></mask><path d="M34.025 49.736s5.017-1.409 6.034-6.28c1.611 1.831 1.93 2.853 1.93 2.853s-.853 2.238-2.19 3.163c-2.054 1.421-3.9 1.587-5.774.264" fill="#E1F2FF" mask="url(#aH)"/></g><g transform="translate(122 127.781)"><mask id="aJ" fill="#fff"><use xlink:href="#aI"/></mask><path d="M38.455 49.832s-2.167 1.4-4.082 1.877" fill="#FFF" mask="url(#aJ)"/><path d="M38.184 49.412l.542.84a20.534 20.534 0 0 1-1.884 1.047c-.588.286-1.162.527-1.707.708a8.77 8.77 0 0 1-.641.187l-.242-.97c.182-.045.371-.1.568-.166.5-.166 1.033-.39 1.585-.659a19.545 19.545 0 0 0 1.779-.987z" fill="#52267D" fill-rule="nonzero" mask="url(#aJ)"/></g><g transform="translate(122 127.781)"><mask id="aL" fill="#fff"><use xlink:href="#aK"/></mask><path d="M51.79 72.64l-.558-2.191c-1.677-9.99-1.049-15.493 2.837-23.8l2.277-4.864a24.298 24.298 0 0 0 1.703-4.991c1.282-5.732-2.326-11.42-8.059-12.701l-1.677-.375c-5.654-1.265-11.262 2.294-12.527 7.948l-.065.294a2.495 2.495 0 0 0 1.89 2.98l10.612 2.374-3.672 8.865c-10.453 23.618-12.2 33.75-2.049 33.858" fill="#9452BA" mask="url(#aL)"/><path d="M37.393 35.916a3.494 3.494 0 0 1-2.648-4.172l.065-.297c1.386-6.193 7.529-10.09 13.721-8.705l1.677.375c6.272 1.402 10.22 7.624 8.817 13.895a25.298 25.298 0 0 1-1.773 5.197l-2.277 4.864c-3.782 8.084-4.408 13.375-2.774 23.13l.557 2.19-1.938.493-.574-2.272c-1.716-10.223-1.042-15.925 2.917-24.388l2.277-4.865a23.298 23.298 0 0 0 1.633-4.786c1.162-5.193-2.107-10.345-7.301-11.507l-1.677-.375c-5.115-1.144-10.189 2.075-11.332 7.188l-.066.298a1.495 1.495 0 0 0 1.132 1.786l11.773 2.632-.455 1.1-3.681 8.886c-5.495 12.414-8.23 20.34-8.67 25.427-.427 4.946 1.25 6.98 5.717 7.027l-.021 2c-5.676-.06-8.212-3.135-7.689-9.199.465-5.38 3.251-13.45 8.824-26.042l3.217-7.766-9.451-2.114z" fill="#52267D" fill-rule="nonzero" mask="url(#aL)"/></g><g transform="translate(122 127.781)"><mask id="aN" fill="#fff"><use xlink:href="#aM"/></mask><path d="M42.917 23.8s.573-1.761 2.521-2.076c.593-.096 1.396.327 1.396.327s.672 1.846-.662 2.144c-1.919.428-3.255-.395-3.255-.395" fill="#FFF" mask="url(#aN)"/></g><g transform="translate(122 127.781)"><mask id="aP" fill="#fff"><use xlink:href="#aO"/></mask><path d="M43.665 23.586a4.35 4.35 0 0 0 2.398.12c.296-.065.416-.243.437-.594a2.3 2.3 0 0 0-.08-.703 3.634 3.634 0 0 0-.152-.06 2.335 2.335 0 0 0-.505-.13.893.893 0 0 0-.245-.002c-.66.107-1.178.41-1.578.855-.15.167-.27.334-.36.484l.085.03zm-.468-1.183a3.623 3.623 0 0 1 2.161-1.173c.167-.027.344-.027.528-.004.238.03.482.095.726.185.198.072.356.145.455.197l.17.09.067.182c.027.075.065.196.101.35.074.314.112.633.094.943-.047.758-.436 1.335-1.218 1.51-1.08.24-2.077.149-2.944-.152a3.626 3.626 0 0 1-.682-.306l-.335-.206.122-.374c.106-.327.343-.785.755-1.242z" fill="#52267D" fill-rule="nonzero" mask="url(#aP)"/></g><g transform="translate(122 127.781)"><mask id="aR" fill="#fff"><use xlink:href="#aQ"/></mask><path d="M47.307 24.16s.692-2.822 3.974-2.522c.61.055 1.362.285 1.362.285s.837 3.314-.908 3.226c-2.146-.108-4.428-.99-4.428-.99" fill="#FFF" mask="url(#aR)"/></g><g transform="translate(122 127.781)"><mask id="aT" fill="#fff"><use xlink:href="#aS"/></mask><path d="M49.013 24.177c.83.223 1.646.382 2.403.449.116.01.231.018.344.024.395.02.58-.32.583-1.115a6.199 6.199 0 0 0-.125-1.212c-.076-.02-.16-.04-.251-.061a6.876 6.876 0 0 0-.47-.093 3.978 3.978 0 0 0-.262-.033c-1.326-.121-2.244.294-2.869 1.066-.169.209-.305.432-.412.656.326.109.682.217 1.06.319zm-2.192-.137c.094-.383.329-.925.768-1.467.83-1.024 2.068-1.585 3.736-1.433.104.01.214.023.329.042a9.258 9.258 0 0 1 1.135.263l.27.083.068.273c.029.111.069.298.109.537.068.406.109.814.107 1.2-.005 1.289-.484 2.168-1.634 2.11a10.172 10.172 0 0 1-.381-.026 15.14 15.14 0 0 1-2.575-.48 19.598 19.598 0 0 1-1.627-.517l-.41-.158.105-.427z" fill="#52267D" fill-rule="nonzero" mask="url(#aT)"/></g><g transform="translate(122 127.781)"><mask id="aV" fill="#fff"><use xlink:href="#aU"/></mask><path d="M52.866 26.079s1.038-2.612 3.28-1.261a3.5 3.5 0 0 1 1.336 1.51s-.999 1.937-1.907 1.464c-1.585-.827-2.709-1.713-2.709-1.713" fill="#FFF" mask="url(#aV)"/></g><g transform="translate(122 127.781)"><mask id="aX" fill="#fff"><use xlink:href="#aW"/></mask><path d="M53.822 26.153a19.592 19.592 0 0 0 1.984 1.196c.02.01.036.015.053.017.146.016.428-.19.73-.576.13-.167.242-.335.329-.478a3.127 3.127 0 0 0-.466-.614 2.783 2.783 0 0 0-.564-.452c-.912-.55-1.57-.36-2.133.326-.1.122-.185.244-.253.357.092.067.2.142.32.224zm-1.42-.259c.099-.25.288-.601.58-.956.852-1.04 2.04-1.382 3.422-.548.285.171.54.378.767.613.404.418.653.838.774 1.137l.087.213-.105.204a5.9 5.9 0 0 1-.549.848c-.5.64-1.024 1.021-1.629.955a1.145 1.145 0 0 1-.405-.125 20.584 20.584 0 0 1-2.088-1.257 14.053 14.053 0 0 1-.7-.506l-.292-.231.138-.347z" fill="#52267D" fill-rule="nonzero" mask="url(#aX)"/></g><g transform="translate(122 127.781)"><mask id="aZ" fill="#fff"><use xlink:href="#aY"/></mask><path d="M32.231 72.389a4.918 4.918 0 0 1 1.932-.45" fill="#F3E3FF" mask="url(#aZ)"/><path d="M32.437 72.844l-.41-.911a5.418 5.418 0 0 1 2.13-.494l.014 1a4.42 4.42 0 0 0-1.734.405z" fill="#52267D" fill-rule="nonzero" mask="url(#aZ)"/></g><g transform="translate(122 127.781)"><mask id="bb" fill="#fff"><use xlink:href="#ba"/></mask><path d="M35.758 73.12c-.158-7.438 5.984-20.212 7.302-23.4l5.249-12.778.999.224c1.264.283 1.915 1.872 1.455 3.086l-4.23 11.156c-1.43 3.777-6.053 21.716-.14 27.114 1.26 1.152 3.734 1.134 4.715.91 3.567-.819 5.392-4.63 6.823-7.71 2.96-6.378 3-11.896 3.85-17.224l1.132-6.65c.204-1.203 1.432-2.252 2.62-1.987l1.21.272-.788 13.775c-.19 3.931-1.436 17.43-10.543 21.851-.165.08 1.753.983.937 1.887-3.245 3.591-10.128 2.734-11.79 4.21-6.403 5.684-5.056 21.147-5.056 21.147s-4.94-3.377-7.625-7.139c-6.278-8.794-4.995-19.21-4.36-22.22.76-3.6 2.2-5.617 3.659-6.686" fill="#F3E3FF" mask="url(#bb)"/><path d="M43.522 49.911c-.193.466-1.424 3.273-1.428 3.282a148.107 148.107 0 0 0-2.098 5.048 86.159 86.159 0 0 0-2.022 5.683c-1.157 3.696-1.767 6.806-1.716 9.184l-1 .022c-.053-2.51.575-5.714 1.762-9.505a87.137 87.137 0 0 1 2.045-5.749c.648-1.65 1.32-3.26 2.112-5.082.01-.02 1.233-2.81 1.42-3.264l5.41-13.168.411.092.999.224c1.542.346 2.39 2.228 1.813 3.751l-4.229 11.156c-1.008 2.66-2.298 8.126-2.794 12.825-.695 6.566.044 11.48 2.523 13.743.912.833 2.97 1.088 4.266.79 2.73-.625 4.276-2.684 6.481-7.432 1.89-4.069 2.514-6.982 3.33-13.565.207-1.671.323-2.54.482-3.532l1.13-6.65c.258-1.515 1.777-2.713 3.223-2.39l1.625.364-.024.424-.789 13.77c-.167 3.467-.738 7.233-1.953 10.876-1.69 5.07-4.36 8.929-8.212 11.06.777.673 1.078 1.397.43 2.113-1.265 1.401-3.054 2.242-5.484 2.796-.538.123-1.098.23-1.755.34a77.78 77.78 0 0 1-.839.136l-.794.126c-1.75.28-2.563.502-2.956.851-2.141 1.9-3.55 5.108-4.322 9.26-.655 3.52-.79 7.252-.626 10.553.022.44.044.753.058.917l.092 1.052-.872-.596a41.024 41.024 0 0 1-1.48-1.09 41.93 41.93 0 0 1-3.241-2.77c-1.205-1.146-2.233-2.286-3.03-3.401-5.068-7.1-5.885-15.77-4.441-22.615.71-3.369 2.061-5.673 3.852-6.985l.591.806c-1.579 1.157-2.802 3.245-3.465 6.385-1.392 6.597-.6 14.995 4.278 21.828.755 1.057 1.742 2.152 2.904 3.258a40.947 40.947 0 0 0 3.75 3.147c-.159-3.344-.018-7.103.647-10.673.81-4.349 2.301-7.747 4.64-9.824.6-.531 1.492-.775 3.462-1.09l.798-.126.828-.134c.639-.108 1.182-.212 1.699-.33 2.247-.513 3.863-1.272 4.965-2.49.139-.155.064-.335-.329-.676a4.961 4.961 0 0 0-.211-.172l-.197-.151a1.442 1.442 0 0 1-.183-.161.545.545 0 0 1-.137-.24.515.515 0 0 1 .272-.603c3.93-1.907 6.652-5.696 8.36-10.818 1.181-3.542 1.739-7.224 1.903-10.611l.764-13.352-.796-.179c-.85-.19-1.852.6-2.018 1.583l-1.13 6.645c-.156.972-.27 1.832-.476 3.492-.828 6.68-1.47 9.673-3.416 13.863-2.337 5.032-4.012 7.264-7.164 7.986-1.585.364-3.965.069-5.164-1.027-2.791-2.548-3.57-7.724-2.844-14.586.506-4.784 1.816-10.333 2.854-13.074l4.23-11.156c.372-.983-.184-2.216-1.098-2.421l-.587-.132-5.09 12.39z" fill="#52267D" fill-rule="nonzero" mask="url(#bb)"/></g><g transform="translate(122 127.781)"><mask id="bd" fill="#fff"><use xlink:href="#bc"/></mask><path d="M98.183 93.253s1.392-.985 1.136-2.785c-.078-.55-.671-1.14-.671-1.14s-1.807-.084-1.703 1.17c.148 1.806 1.238 2.755 1.238 2.755" fill="#FFF" mask="url(#bd)"/></g><g transform="translate(122 127.781)"><mask id="bf" fill="#fff"><use xlink:href="#be"/></mask><path d="M98.471 93.661l-.32.227-.297-.258c-.195-.17-.465-.479-.73-.928a5.029 5.029 0 0 1-.678-2.163c-.07-.839.434-1.363 1.21-1.587.35-.101.698-.13.986-.124l.03.001.192.01.136.135c.104.104.25.27.396.477.183.26.318.52.386.786.013.054.024.107.032.16.14.984-.124 1.841-.645 2.549a3.25 3.25 0 0 1-.698.715zm-.107-1.308a2.394 2.394 0 0 0 .449-1.87 1.5 1.5 0 0 0-.235-.456 3.075 3.075 0 0 0-.15-.196 2.29 2.29 0 0 0-.495.081c-.366.106-.514.26-.49.545a4.033 4.033 0 0 0 .771 2.083c.049-.056.1-.118.15-.187z" fill="#52267D" fill-rule="nonzero" mask="url(#bf)"/></g><g transform="translate(122 127.781)"><mask id="bh" fill="#fff"><use xlink:href="#bg"/></mask><path d="M98.197 91.454s.488-.346.398-.978c-.027-.192-.235-.399-.235-.399s-.634-.029-.598.41c.053.634.435.967.435.967" fill="#F3E3FF" mask="url(#bh)"/></g><g transform="translate(122 127.781)"><mask id="bj" fill="#fff"><use xlink:href="#bi"/></mask><path d="M87.068 100.06s-.519-2.654 2.37-3.686c.538-.191 1.262-.292 1.262-.292s2.005 2.472.496 3.082c-1.855.748-4.128.895-4.128.895" fill="#FFF" mask="url(#bj)"/></g><g transform="translate(122 127.781)"><mask id="bl" fill="#fff"><use xlink:href="#bk"/></mask><path d="M88.011 99.451a15.1 15.1 0 0 0 2.158-.46c.298-.089.579-.186.84-.291.277-.112.326-.346.152-.845a4.217 4.217 0 0 0-.361-.747c-.11-.184-.22-.35-.316-.484a7.477 7.477 0 0 0-.57.127c-.114.03-.217.062-.308.094-.875.313-1.436.795-1.756 1.404a2.81 2.81 0 0 0-.32 1.265c.142-.017.304-.037.481-.063zm-1.458.534a3.811 3.811 0 0 1 .412-2.203c.438-.832 1.196-1.482 2.305-1.878.118-.043.247-.082.384-.119a8.506 8.506 0 0 1 .977-.199l.28-.039.178.22a7.925 7.925 0 0 1 .57.83c.189.316.341.627.446.928.328.94.16 1.746-.722 2.102-.292.118-.602.225-.928.322-.736.22-1.52.38-2.302.492a17.508 17.508 0 0 1-1.052.117l-.439.029-.084-.432a2.162 2.162 0 0 1-.025-.17z" fill="#52267D" fill-rule="nonzero" mask="url(#bl)"/></g><g transform="translate(122 127.781)"><mask id="bn" fill="#fff"><use xlink:href="#bm"/></mask><path d="M88.154 99.348s-.288-1.472 1.313-2.044c.3-.106.701-.162.701-.162s1.111 1.37.275 1.709c-1.028.415-2.289.497-2.289.497" fill="#F3E3FF" mask="url(#bn)"/></g><g transform="translate(122 127.781)"><mask id="bp" fill="#fff"><use xlink:href="#bo"/></mask><path d="M96.566 93.871s1.475 2.022-.608 3.069c-.889.448-1.77.29-1.77.29s-.986-1.672-.198-2.131a17.11 17.11 0 0 1 2.576-1.228" fill="#FFF" mask="url(#bp)"/></g><g transform="translate(122 127.781)"><mask id="br" fill="#fff"><use xlink:href="#bq"/></mask><path d="M95.995 94.643a17.27 17.27 0 0 0-1.753.888c-.06.035-.087.174-.022.467.036.162.097.342.176.528.036.084.072.162.106.23.385.015.82-.056 1.232-.263.492-.247.737-.544.813-.889.07-.322-.004-.697-.18-1.076a3.113 3.113 0 0 0-.018-.036c-.104.043-.223.093-.354.15zm1.278-.538c.26.56.376 1.142.25 1.714-.143.65-.587 1.19-1.34 1.568a3.522 3.522 0 0 1-2.084.335l-.226-.04-.116-.198a5.096 5.096 0 0 1-.28-.567 4.058 4.058 0 0 1-.233-.702c-.15-.67-.038-1.238.495-1.548a18.26 18.26 0 0 1 1.854-.94c.366-.16.645-.27.806-.327l.351-.125.22.301c.081.111.193.293.303.53z" fill="#52267D" fill-rule="nonzero" mask="url(#br)"/></g><g transform="translate(122 127.781)"><mask id="bt" fill="#fff"><use xlink:href="#bs"/></mask><path d="M96.044 94.954s.652.896-.27 1.359c-.393.199-.784.128-.784.128s-.436-.74-.088-.943c.61-.356 1.142-.544 1.142-.544" fill="#F3E3FF" mask="url(#bt)"/></g><g transform="translate(122 127.781)"><mask id="bv" fill="#fff"><use xlink:href="#bu"/></mask><path d="M77.98 99.361s-.124-2.286 2.435-2.61c2.56-.326 3.036.527 3.036.527s.818 2.498-.512 2.946c-1.33.448-4.96-.863-4.96-.863" fill="#FFF" mask="url(#bv)"/></g><g transform="translate(122 127.781)"><mask id="bx" fill="#fff"><use xlink:href="#bw"/></mask><path d="M78.479 99.337v-.003l-.33-.443c.069.025.189.066.35.12a1.858 1.858 0 0 0-.02.323v.003zm.095-.301c.335.11.694.22 1.063.322.404.112.794.208 1.162.283.916.187 1.624.23 1.98.11.28-.095.422-.41.42-.964a4.49 4.49 0 0 0-.112-.928c-.042-.195-.085-.345-.072-.337.005.008-.039-.035-.167-.102-.433-.227-1.195-.323-2.37-.174-.886.113-1.426.482-1.73 1.033a2.197 2.197 0 0 0-.248.732l.074.025zm-1.095.326a3.095 3.095 0 0 1 .393-1.567c.459-.83 1.276-1.388 2.48-1.54 1.364-.174 2.327-.052 2.96.28.303.158.487.34.615.588.036.11.087.292.137.523.084.384.135.77.136 1.138.002.936-.319 1.65-1.102 1.914-.575.194-1.418.144-2.5-.077-.391-.08-.804-.182-1.228-.3a25.027 25.027 0 0 1-1.56-.49l-.312-.112-.018-.33v-.027z" fill="#52267D" fill-rule="nonzero" mask="url(#bx)"/></g><g transform="translate(122 127.781)"><mask id="bz" fill="#fff"><use xlink:href="#by"/></mask><path d="M79.2 99.121s-.064-1.188 1.267-1.357c1.331-.169 1.58.274 1.58.274s.424 1.299-.268 1.532c-.69.233-2.579-.449-2.579-.449" fill="#F3E3FF" mask="url(#bz)"/></g><g transform="translate(122 127.781)"><mask id="bB" fill="#fff"><use xlink:href="#bA"/></mask><path d="M47.067 40.067s3.302 2.982 9.047 2.241c-.733 1.568-2.217 4.714-2.217 4.714s-5.26.408-8.523-2.83c.878-2.1 1.693-4.125 1.693-4.125" fill="#FFF" mask="url(#bB)"/></g><g transform="translate(122 127.781)"><mask id="bD" fill="#fff"><use xlink:href="#bC"/></mask><path d="M47.013 41.531a365.64 365.64 0 0 1-1.045 2.536c.738.67 1.61 1.196 2.591 1.592 1.016.41 2.107.664 3.218.79.687.078 1.3.1 1.797.087a3280.325 3280.325 0 0 0 1.714-3.643c-2.48.174-4.675-.295-6.553-1.195a10.578 10.578 0 0 1-1.45-.836l-.272.67zm.39-1.835c.066.06.21.176.43.33.376.261.821.524 1.334.77 1.933.926 4.237 1.358 6.883 1.016l.903-.116-.386.824a978.985 978.985 0 0 1-1.808 3.848l-.41.868-.123.262-.29.023-.17.01c-.57.023-1.29.004-2.103-.088a13.334 13.334 0 0 1-3.478-.857c-1.208-.487-2.276-1.159-3.163-2.039l-.239-.237.13-.31a354.484 354.484 0 0 0 1.55-3.771l.14-.348.268-.665.532.48z" fill="#52267D" fill-rule="nonzero" mask="url(#bD)"/></g><g transform="translate(122 127.781)"><mask id="bF" fill="#fff"><use xlink:href="#bE"/></mask><path d="M77.496 36.788s.233-1.851-1.406-2.975c-.5-.342-1.972-.733-1.972-.733s-.846 1.826.241 2.67c1.566 1.215 3.137 1.038 3.137 1.038" fill="#FFF" mask="url(#bF)"/></g><g transform="translate(122 127.781)"><mask id="bH" fill="#fff"><use xlink:href="#bG"/></mask><path d="M77.992 36.85l-.049.39-.39.045-.085.007c-.337.02-.77-.008-1.265-.121a5.467 5.467 0 0 1-2.134-1.013l-.017-.013c-.47-.365-.704-.885-.742-1.49a3.69 3.69 0 0 1 .173-1.291c.066-.22.133-.39.181-.494l.177-.381.406.108a15.614 15.614 0 0 1 1.106.341c.302.106.56.21.763.313.097.05.182.098.257.15.494.338.87.756 1.14 1.233.414.734.53 1.49.488 2.123l-.009.093zm-1.35-1.725a2.68 2.68 0 0 0-.834-.899 1.332 1.332 0 0 0-.144-.082 5.65 5.65 0 0 0-.643-.263c-.188-.066-.389-.13-.592-.192a2.697 2.697 0 0 0-.12.904c.02.337.133.589.357.762l.013.01c.805.62 1.627.882 2.32.927a2.852 2.852 0 0 0-.357-1.167z" fill="#52267D" fill-rule="nonzero" mask="url(#bH)"/></g><g transform="translate(122 127.781)"><mask id="bJ" fill="#fff"><use xlink:href="#bI"/></mask><path d="M73.134 34.84s.5-2.481-2.197-3.463c-.504-.182-1.181-.28-1.181-.28s-1.891 2.302-.482 2.88c1.732.712 3.86.864 3.86.864" fill="#FFF" mask="url(#bJ)"/></g><g transform="translate(122 127.781)"><mask id="bL" fill="#fff"><use xlink:href="#bK"/></mask><path d="M73.624 34.94l-.087.43-.439-.03a16.428 16.428 0 0 1-.983-.116 15.106 15.106 0 0 1-2.152-.473 9.913 9.913 0 0 1-.88-.31c-.838-.345-.997-1.116-.683-2.005.1-.284.246-.577.426-.875a7.445 7.445 0 0 1 .543-.782l.18-.217.278.04a8.04 8.04 0 0 1 .919.192c.13.035.25.072.362.113 1.037.377 1.746.991 2.156 1.773a3.6 3.6 0 0 1 .36 2.26zm-1.245-1.795c-.294-.56-.809-1.006-1.612-1.298-.084-.03-.18-.06-.284-.088a7.008 7.008 0 0 0-.513-.119 6.524 6.524 0 0 0-.288.437c-.147.244-.264.48-.34.692-.158.45-.117.648.122.746.246.101.51.194.79.28a14.13 14.13 0 0 0 2.008.44c.15.022.287.04.41.056a2.593 2.593 0 0 0-.293-1.146z" fill="#52267D" fill-rule="nonzero" mask="url(#bL)"/></g><g transform="translate(122 127.781)"><mask id="bN" fill="#fff"><use xlink:href="#bM"/></mask><path d="M67.83 33.842s.174-2.826-2.449-2.557c-1.12.116-1.866.803-1.866.803s.08 2.194 1.11 2.152c1.8-.073 3.204-.398 3.204-.398" fill="#FFF" mask="url(#bN)"/></g><g transform="translate(122 127.781)"><mask id="bP" fill="#fff"><use xlink:href="#bO"/></mask><path d="M68.328 33.873l-.023.372-.363.084a18.936 18.936 0 0 1-1.197.214 20.45 20.45 0 0 1-2.1.196c-.767.032-1.208-.555-1.448-1.445a5.58 5.58 0 0 1-.15-.813 5.162 5.162 0 0 1-.032-.375l-.008-.23.17-.156c.14-.13.38-.308.71-.483.439-.235.922-.396 1.443-.45 1.429-.146 2.347.49 2.763 1.59.194.513.251 1.03.237 1.453l-.002.043zm-1.17-1.142c-.263-.695-.77-1.047-1.725-.949-.382.04-.744.16-1.076.337a3.266 3.266 0 0 0-.323.196l.006.052c.026.23.066.458.122.667.131.486.301.712.443.706a19.457 19.457 0 0 0 2.713-.305 2.773 2.773 0 0 0-.16-.704z" fill="#52267D" fill-rule="nonzero" mask="url(#bP)"/></g><g transform="translate(122 127.781)"><mask id="bR" fill="#fff"><use xlink:href="#bQ"/></mask><path d="M43.955 23.555s.306-.94 1.346-1.11c.318-.05.747.175.747.175s.358.987-.355 1.146c-1.025.228-1.738-.211-1.738-.211" fill="#F3E3FF" mask="url(#bR)"/></g><g transform="translate(122 127.781)"><mask id="bT" fill="#fff"><use xlink:href="#bS"/></mask><path d="M48.462 23.917s.435-1.77 2.49-1.58c.385.035.856.179.856.179s.525 2.077-.57 2.022c-1.344-.067-2.776-.621-2.776-.621" fill="#F3E3FF" mask="url(#bT)"/></g><g transform="translate(122 127.781)"><mask id="bV" fill="#fff"><use xlink:href="#bU"/></mask><path d="M53.98 26.042s.599-1.507 1.893-.728c.552.333.77.872.77.872s-.577 1.118-1.1.844c-.916-.476-1.563-.988-1.563-.988" fill="#F3E3FF" mask="url(#bV)"/></g><g transform="translate(122 127.781)"><mask id="bX" fill="#fff"><use xlink:href="#bW"/></mask><path d="M76.705 36.125s.123-.98-.743-1.572c-.265-.182-1.042-.39-1.042-.39s-.448.967.127 1.413c.828.643 1.658.549 1.658.549" fill="#F3E3FF" mask="url(#bX)"/></g><g transform="translate(122 127.781)"><mask id="bZ" fill="#fff"><use xlink:href="#bY"/></mask><path d="M72.152 34.164s.277-1.372-1.215-1.915a3.83 3.83 0 0 0-.652-.155s-1.046 1.272-.267 1.592c.958.394 2.134.478 2.134.478" fill="#F3E3FF" mask="url(#bZ)"/></g><g transform="translate(122 127.781)"><mask id="cb" fill="#fff"><use xlink:href="#ca"/></mask><path d="M66.9 33.44s.095-1.547-1.34-1.4a1.924 1.924 0 0 0-1.02.44s.042 1.2.606 1.177c.984-.04 1.753-.218 1.753-.218" fill="#F3E3FF" mask="url(#cb)"/></g><g transform="translate(122 127.781)"><mask id="cd" fill="#fff"><use xlink:href="#cc"/></mask><path d="M57.315 47.273s4.52 1.777 9.214 1.68c-.108 2.516-.237 4.405-.237 4.405s-3.557 1.406-8.989-1.086c.023-3.257.012-4.999.012-4.999" fill="#FFF" mask="url(#cd)"/></g><g transform="translate(122 127.781)"><mask id="cf" fill="#fff"><use xlink:href="#ce"/></mask><path d="M57.806 51.95c3.031 1.33 5.632 1.545 7.665 1.117a6.71 6.71 0 0 0 .345-.082l.037-.604a206.6 206.6 0 0 0 .154-2.924c-1.99-.015-4.062-.333-6.105-.857a29.528 29.528 0 0 1-2.084-.616c.001 1.019-.002 2.345-.012 3.966zm-.308-5.142c.126.05.37.139.716.254.58.194 1.23.388 1.936.569 2.146.55 4.32.865 6.37.823l.532-.011-.023.532a205.214 205.214 0 0 1-.238 4.417l-.021.315-.294.116c-.15.06-.42.142-.799.222-2.3.485-5.222.223-8.582-1.318l-.294-.135.002-.323c.014-1.994.017-3.564.014-4.685l-.002-.307-.004-.74.687.271z" fill="#52267D" fill-rule="nonzero" mask="url(#cf)"/></g><g transform="translate(122 127.781)"><mask id="ch" fill="#fff"><use xlink:href="#cg"/></mask><path d="M66.11 44.304l5.312 1.188a4.964 4.964 0 0 0-3.762-5.93l-.467-.105a2.484 2.484 0 0 0-1.084 4.847" fill="#F3E3FF" mask="url(#ch)"/></g><g transform="translate(122 127.781)"><mask id="cj" fill="#fff"><use xlink:href="#ci"/></mask><path d="M66.712 44.343l4.64 1.038a3.904 3.904 0 0 0-2.955-4.66l-1.103-.245a1.812 1.812 0 0 0-2.165 1.373 2.088 2.088 0 0 0 1.583 2.494" fill="#FFF" mask="url(#cj)"/></g><g transform="translate(122 127.781)"><mask id="cl" fill="#fff"><use xlink:href="#ck"/></mask><path d="M64.641 41.74a2.312 2.312 0 0 1 2.762-1.752l1.103.246a4.404 4.404 0 0 1 3.335 5.256l-.109.488-5.13-1.147a2.588 2.588 0 0 1-1.961-3.092zm3.647-.53l-1.103-.246a1.312 1.312 0 0 0-1.568.994 1.588 1.588 0 0 0 1.204 1.897l4.117.92a3.405 3.405 0 0 0-2.65-3.565z" fill="#52267D" fill-rule="nonzero" mask="url(#cl)"/></g><g transform="translate(122 127.781)"><mask id="cn" fill="#fff"><use xlink:href="#cm"/></mask><path d="M68.107 42.694a1.09 1.09 0 1 1 0 0" fill="#52267D" mask="url(#cn)"/></g><g transform="translate(122 127.781)"><mask id="cp" fill="#fff"><use xlink:href="#co"/></mask><path d="M48.748 35.597l-5.314-1.188a4.965 4.965 0 0 1 5.93-3.763l.468.104a2.482 2.482 0 1 1-1.084 4.847" fill="#F3E3FF" mask="url(#cp)"/></g><g transform="translate(122 127.781)"><mask id="cr" fill="#fff"><use xlink:href="#cq"/></mask><path d="M48.321 35.405l-4.775-1.068a3.9 3.9 0 0 1 4.66-2.956l.967.216a1.95 1.95 0 1 1-.852 3.808" fill="#FFF" mask="url(#cr)"/></g><g transform="translate(122 127.781)"><mask id="ct" fill="#fff"><use xlink:href="#cs"/></mask><path d="M50.162 33.818a1.452 1.452 0 0 0-1.098-1.733l-.968-.216a3.402 3.402 0 0 0-3.917 2.097l4.251.951a1.45 1.45 0 0 0 1.732-1.099zm-1.95 2.075l-5.262-1.177.108-.488a4.4 4.4 0 0 1 5.256-3.335l.969.216a2.45 2.45 0 1 1-1.07 4.784z" fill="#52267D" fill-rule="nonzero" mask="url(#ct)"/></g><g transform="translate(122 127.781)"><mask id="cv" fill="#fff"><use xlink:href="#cu"/></mask><path d="M45.788 32.354a1.09 1.09 0 1 0 2.127.476 1.09 1.09 0 0 0-2.127-.476" fill="#52267D" mask="url(#cv)"/></g><g transform="translate(122 127.781)"><mask id="cx" fill="#fff"><use xlink:href="#cw"/></mask><path d="M77.578 48.03a1.365 1.365 0 0 1-.659-.646l-.256-.528.756.348.445.205a.342.342 0 0 1-.286.621" fill="#52267D" mask="url(#cx)"/></g><g transform="translate(122 127.781)"><mask id="cz" fill="#fff"><use xlink:href="#cy"/></mask><path d="M37.697 33.889c.316.003.625-.104.871-.304l.456-.368-.83-.008-.49-.004a.343.343 0 0 0-.007.684" fill="#52267D" mask="url(#cz)"/></g><g transform="translate(122 127.781)"><mask id="cB" fill="#fff"><use xlink:href="#cA"/></mask><path d="M47.366 40.858s3.584 2.573 7.924 1.925c-.944 2.25-1.584 3.362-1.584 3.362s-2.436-.396-3.957-1.065c-2.173-.956-2.837-2.19-2.383-4.222" fill="#E1F2FF" mask="url(#cB)"/></g><g transform="translate(122 127.781)"><mask id="cD" fill="#fff"><use xlink:href="#cC"/></mask><path d="M52.205 45.096s-3.67-.506-6.138-2.576" fill="#FFF" mask="url(#cD)"/><path d="M52.273 44.6l-.136.99a8.514 8.514 0 0 1-.382-.064 15.591 15.591 0 0 1-.975-.218 15.32 15.32 0 0 1-2.96-1.076c-.772-.381-1.47-.822-2.074-1.33l.642-.765c.54.452 1.17.85 1.875 1.198.877.432 1.82.763 2.765 1.005a14.596 14.596 0 0 0 1.245.26z" fill="#52267D" fill-rule="nonzero" mask="url(#cD)"/></g><g transform="translate(122 127.781)"><mask id="cF" fill="#fff"><use xlink:href="#cE"/></mask><path d="M64.615 49.46s-3.736.214-6.697-1.1c.07 2.439.218 3.232.218 3.232s4.788.42 6.48-2.131" fill="#E1F2FF" mask="url(#cF)"/></g><g transform="translate(122 127.781)"><mask id="cH" fill="#fff"><use xlink:href="#cG"/></mask><path d="M55.4 81.808s-.246.105-.589.22" fill="#F3E3FF" mask="url(#cH)"/><path d="M55.302 81.579l.197.46a8.588 8.588 0 0 1-.608.227l-.16-.475c.251-.083.454-.162.571-.212z" fill="#52267D" fill-rule="nonzero" mask="url(#cH)"/></g><g transform="translate(122 127.781)"><mask id="cJ" fill="#fff"><use xlink:href="#cI"/></mask><path d="M64.657 50.865s-3.687-.12-7.34-1.408" fill="#FFF" mask="url(#cJ)"/><path d="M64.674 50.365l-.033 1a15.75 15.75 0 0 1-.645-.04 28.601 28.601 0 0 1-1.67-.18c-1.729-.238-3.457-.62-5.076-1.181l-.1-.035.332-.943.095.033c1.55.537 3.217.905 4.885 1.135.584.08 1.126.137 1.611.175.29.022.495.033.6.036z" fill="#52267D" fill-rule="nonzero" mask="url(#cJ)"/></g><g transform="translate(122 127.781)"><mask id="cL" fill="#fff"><use xlink:href="#cK"/></mask><path d="M42.151 93.926s-.743 5.59-4.064 13.895c-3.092 7.73-5.955 9.733-6.25 11.85-.23 1.64.12 3.268 1.735 3.629l4.822 1.078a5.364 5.364 0 0 0 5.757-2.46c.968-1.585 2.097-3.785 3.118-6.657 1.27-3.935 2.091-7.981 2.554-10.361" fill="#9452BA" mask="url(#cL)"/><path d="M41.16 93.794l1.983.263a29.786 29.786 0 0 1-.176 1.054 51.287 51.287 0 0 1-.631 2.887c-.762 3.089-1.85 6.516-3.32 10.194-1.309 3.272-2.581 5.635-4.198 8.103-2.081 3.177-1.861 2.813-1.978 3.435-.218 1.544.125 2.41.95 2.594l4.823 1.078a4.364 4.364 0 0 0 4.685-2.004c1.105-1.812 2.138-3.965 3.02-6.444 1.023-3.172 1.757-6.305 2.524-10.245l1.963.382c-.78 4.012-1.53 7.211-2.593 10.505-.938 2.638-2.03 4.916-3.207 6.843a6.364 6.364 0 0 1-6.829 2.915l-4.822-1.078c-2.08-.466-2.84-2.377-2.508-4.743.008-.057.017-.114.028-.172.117-.623.382-1.22.839-1.974.171-.284.362-.58.655-1.019l.374-.56c.155-.232.28-.42.403-.609 1.548-2.363 2.758-4.61 4.014-7.75 1.435-3.589 2.495-6.929 3.235-9.93.258-1.046.458-1.974.606-2.773.088-.473.14-.794.16-.952z" fill="#52267D" fill-rule="nonzero" mask="url(#cL)"/></g><g transform="translate(122 127.781)"><mask id="cN" fill="#fff"><use xlink:href="#cM"/></mask><path d="M66.061 103.081c-1.903 1.018-3.235 3.083-3.686 5.154-.6 2.766.215 6.64-1.827 11.002-1.819 3.886-3.78 4.204-4.059 7.993-.05.684.438 1.293 1.108 1.443l5.372 1.202a5.193 5.193 0 0 0 5.941-3.115c2.537-6.274 3.088-12.607 3.275-17.519" fill="#9452BA" mask="url(#cN)"/><path d="M65.59 102.2l.943 1.763c-1.548.828-2.765 2.579-3.18 4.484-.151.695-.205 1.367-.264 2.917-.147 3.837-.44 5.743-1.635 8.297a16.896 16.896 0 0 1-1.685 2.835c-.189.26-.891 1.184-1.047 1.4-.79 1.099-1.128 1.948-1.235 3.407-.013.172.124.349.328.394l5.373 1.202a4.193 4.193 0 0 0 4.795-2.514c2.1-5.194 2.947-10.476 3.202-17.182l1.999.076c-.264 6.917-1.144 12.407-3.347 17.856a6.193 6.193 0 0 1-7.086 3.716l-5.373-1.202c-1.153-.258-1.972-1.312-1.886-2.492.136-1.85.612-3.046 1.606-4.428.176-.244.883-1.174 1.054-1.41a14.927 14.927 0 0 0 1.49-2.506c1.05-2.243 1.311-3.94 1.449-7.526.063-1.67.123-2.413.307-3.265.535-2.453 2.099-4.703 4.192-5.823z" fill="#52267D" fill-rule="nonzero" mask="url(#cN)"/></g><g transform="translate(122 127.781)"><mask id="cP" fill="#fff"><use xlink:href="#cO"/></mask><path fill="#52267D" fill-rule="nonzero" mask="url(#cP)" d="M65.854 109.633l-.196-.46.367-.156.205.004 1.513.715-1.994.721-1.632-1.312 2.15-1.05.713.431-.258.428-.48-.29-1.198.585.799.642.6-.216-.325-.154z"/></g><g transform="translate(122 127.781)"><mask id="cR" fill="#fff"><use xlink:href="#cQ"/></mask><path d="M42.893 109.17l-.436.246-.662-1.174 1.436-.091.182.062 1.262 1.122-1.501 1.112-2.248-.678.175-2.249 2.267-.187.041.498-1.843.153-.11 1.423 1.622.488.804-.596-.723-.643-.537.034.27.48zm.305.762l-.221.038.1-.075.12.037z" fill="#52267D" fill-rule="nonzero" mask="url(#cR)"/></g><g transform="translate(122 127.781)"><mask id="cT" fill="#fff"><use xlink:href="#cS"/></mask><path d="M15.217 39.767l.244.054c-.05.221.09.441.31.49.222.05.441-.09.492-.312l.244.056a.664.664 0 0 1-.79.5.662.662 0 0 1-.5-.788z" fill="#F3E3FF" fill-rule="nonzero" mask="url(#cT)"/></g><g transform="translate(122 127.781)"><mask id="cV" fill="#fff"><use xlink:href="#cU"/></mask><path d="M14.171 39.532l.244.055a.411.411 0 0 0 .802.179l.244.055a.662.662 0 0 1-1.29-.289z" fill="#F3E3FF" fill-rule="nonzero" mask="url(#cV)"/></g><g transform="translate(122 127.781)"><mask id="cX" fill="#fff"><use xlink:href="#cW"/></mask><path d="M14.577 40.172l.244.055a.411.411 0 1 0 .801.179l.244.055a.661.661 0 0 1-1.289-.289z" fill="#F3E3FF" fill-rule="nonzero" mask="url(#cX)"/></g><g transform="translate(122 127.781)"><mask id="cZ" fill="#fff"><use xlink:href="#cY"/></mask><path d="M35.396 43.874l.175-.178a.665.665 0 1 0 .93-.95l.176-.178a.915.915 0 1 1-1.281 1.306z" fill="#F3E3FF" fill-rule="nonzero" mask="url(#cZ)"/></g><g transform="translate(122 127.781)"><mask id="db" fill="#fff"><use xlink:href="#da"/></mask><path d="M35.407 44.99l.175-.178a.664.664 0 1 0 .93-.949l.176-.178a.913.913 0 1 1-1.281 1.306z" fill="#F3E3FF" fill-rule="nonzero" mask="url(#db)"/></g><g transform="translate(122 127.781)"><mask id="dd" fill="#fff"><use xlink:href="#dc"/></mask><path d="M56.247 66.873l.244.055a.593.593 0 1 0 1.158.26l.244.053a.842.842 0 1 1-1.646-.368z" fill="#F3E3FF" fill-rule="nonzero" mask="url(#dd)"/></g><g transform="translate(122 127.781)"><mask id="df" fill="#fff"><use xlink:href="#de"/></mask><path d="M54.845 66.56l.244.054a.592.592 0 1 0 1.158.259l.244.054a.843.843 0 1 1-1.646-.367z" fill="#F3E3FF" fill-rule="nonzero" mask="url(#df)"/></g><g transform="translate(122 127.781)"><mask id="dh" fill="#fff"><use xlink:href="#dg"/></mask><path d="M55.389 67.418l.244.055a.593.593 0 1 0 1.158.258l.244.054a.843.843 0 1 1-1.646-.367z" fill="#F3E3FF" fill-rule="nonzero" mask="url(#dh)"/></g><g transform="translate(122 127.781)"><mask id="dj" fill="#fff"><use xlink:href="#di"/></mask><path d="M25.362 106.622l.244.055a.593.593 0 1 0 1.158.258l.244.054a.843.843 0 1 1-1.646-.367z" fill="#F3E3FF" fill-rule="nonzero" mask="url(#dj)"/></g><g transform="translate(122 127.781)"><mask id="dl" fill="#fff"><use xlink:href="#dk"/></mask><path d="M23.96 106.308l.244.055a.593.593 0 1 0 1.158.259l.244.054a.844.844 0 1 1-1.646-.368z" fill="#F3E3FF" fill-rule="nonzero" mask="url(#dl)"/></g><g transform="translate(122 127.781)"><mask id="dn" fill="#fff"><use xlink:href="#dm"/></mask><path d="M24.504 107.167l.244.055a.593.593 0 0 0 1.16.258l.243.055a.843.843 0 0 1-1.647-.368z" fill="#F3E3FF" fill-rule="nonzero" mask="url(#dn)"/></g><g transform="translate(122 127.781)"><mask id="dp" fill="#fff"><use xlink:href="#do"/></mask><path d="M60.16 44.278l.243.055a.664.664 0 0 0 1.298.29l.244.055a.914.914 0 0 1-1.786-.4z" fill="#F3E3FF" fill-rule="nonzero" mask="url(#dp)"/></g><g transform="translate(122 127.781)"><mask id="dr" fill="#fff"><use xlink:href="#dq"/></mask><path d="M59.217 44.876l.244.055a.664.664 0 1 0 1.297.29l.244.055a.915.915 0 1 1-1.785-.4z" fill="#F3E3FF" fill-rule="nonzero" mask="url(#dr)"/></g><g transform="translate(122 127.781)"><mask id="dt" fill="#fff"><use xlink:href="#ds"/></mask><path d="M47.266 55.685l.244.055a.834.834 0 1 0 1.628.365l.244.054a1.085 1.085 0 1 1-2.116-.474z" fill="#F3E3FF" fill-rule="nonzero" mask="url(#dt)"/></g><g transform="translate(122 127.781)"><mask id="dv" fill="#fff"><use xlink:href="#du"/></mask><path d="M46.12 56.412l.243.054a.835.835 0 0 0 1.63.365l.243.055a1.084 1.084 0 1 1-2.117-.474z" fill="#F3E3FF" fill-rule="nonzero" mask="url(#dv)"/></g><g transform="translate(122 127.781)"><mask id="dx" fill="#fff"><use xlink:href="#dw"/></mask><path d="M38.87 29.361l.244.055a.517.517 0 0 0 1.009.226l.244.054a.768.768 0 1 1-1.497-.335z" fill="#F3E3FF" fill-rule="nonzero" mask="url(#dx)"/></g><g transform="translate(122 127.781)"><mask id="dz" fill="#fff"><use xlink:href="#dy"/></mask><path d="M38.105 29.847l.244.055a.517.517 0 1 0 1.008.226l.244.054a.768.768 0 1 1-1.496-.335z" fill="#F3E3FF" fill-rule="nonzero" mask="url(#dz)"/></g><g transform="translate(122 127.781)"><mask id="dB" fill="#fff"><use xlink:href="#dA"/></mask><path d="M83.707 105.776l.221-.116a.615.615 0 0 0 1.089-.571l.221-.116a.865.865 0 0 1-1.532.803z" fill="#F3E3FF" fill-rule="nonzero" mask="url(#dB)"/></g><g transform="translate(122 127.781)"><mask id="dD" fill="#fff"><use xlink:href="#dC"/></mask><path d="M83.395 106.773l.222-.116a.615.615 0 0 0 1.088-.57l.222-.116a.866.866 0 0 1-1.532.802z" fill="#F3E3FF" fill-rule="nonzero" mask="url(#dD)"/></g><g transform="translate(122 127.781)"><mask id="dF" fill="#fff"><use xlink:href="#dE"/></mask><path d="M57.262 89.378l.244-.051a.742.742 0 0 0 1.452-.307l.244-.051a.992.992 0 0 1-1.94.41z" fill="#F3E3FF" fill-rule="nonzero" mask="url(#dF)"/></g><g transform="translate(122 127.781)"><mask id="dH" fill="#fff"><use xlink:href="#dG"/></mask><path d="M55.565 89.736l.245-.052a.74.74 0 1 0 1.451-.305l.245-.052a.991.991 0 0 1-1.94.409z" fill="#F3E3FF" fill-rule="nonzero" mask="url(#dH)"/></g><g transform="translate(122 127.781)"><mask id="dJ" fill="#fff"><use xlink:href="#dI"/></mask><path d="M56.592 90.405l.244-.052a.742.742 0 0 0 1.452-.305l.244-.052a.992.992 0 1 1-1.94.409z" fill="#F3E3FF" fill-rule="nonzero" mask="url(#dJ)"/></g><g transform="translate(122 127.781)"><mask id="dL" fill="#fff"><use xlink:href="#dK"/></mask><path d="M54.895 90.763l.245-.052a.743.743 0 0 0 1.451-.306l.245-.052a.99.99 0 1 1-1.94.41z" fill="#F3E3FF" fill-rule="nonzero" mask="url(#dL)"/></g><g transform="translate(122 127.781)"><mask id="dN" fill="#fff"><use xlink:href="#dM"/></mask><path d="M57.619 91.075l.244-.052a.742.742 0 0 0 1.452-.306l.244-.052a.992.992 0 0 1-1.94.41z" fill="#F3E3FF" fill-rule="nonzero" mask="url(#dN)"/></g><g transform="translate(122 127.781)"><mask id="dP" fill="#fff"><use xlink:href="#dO"/></mask><path d="M53.012 39.172l.244.054a.75.75 0 0 0 1.463.328l.244.054a1 1 0 1 1-1.951-.436z" fill="#F3E3FF" fill-rule="nonzero" mask="url(#dP)"/></g><g transform="translate(122 127.781)"><mask id="dR" fill="#fff"><use xlink:href="#dQ"/></mask><path d="M45.502 71.361l.244.055a.75.75 0 0 0 1.463.327l.244.055a1 1 0 0 1-1.951-.437z" fill="#F3E3FF" fill-rule="nonzero" mask="url(#dR)"/></g><g transform="translate(122 127.781)"><mask id="dT" fill="#fff"><use xlink:href="#dS"/></mask><path d="M59.152 55.744l.244.055a.538.538 0 0 0 1.05.234l.243.054a.788.788 0 1 1-1.537-.343z" fill="#F3E3FF" fill-rule="nonzero" mask="url(#dT)"/></g><g transform="translate(122 127.781)"><mask id="dV" fill="#fff"><use xlink:href="#dU"/></mask><path d="M77.837 44.494l.244.055a.372.372 0 1 0 .727.162l.244.055a.622.622 0 1 1-1.215-.272z" fill="#F3E3FF" fill-rule="nonzero" mask="url(#dV)"/></g><g transform="translate(160 235.781)"><mask id="dX" fill="#fff"><use xlink:href="#dW"/></mask><path fill="#9ACDED" mask="url(#dX)" d="M-4.28 7.261h23.333v-12H-4.28z"/></g><g transform="translate(21 235.781)"><mask id="dZ" fill="#fff"><use xlink:href="#dY"/></mask><path fill="#9ACDED" mask="url(#dZ)" d="M-4.447 7.261H11.22v-12H-4.447z"/></g><g transform="translate(219 235.781)"><mask id="eb" fill="#fff"><use xlink:href="#ea"/></mask><path fill="#9ACDED" mask="url(#eb)" d="M-4.786 7.261h25.667v-12H-4.786z"/></g><g transform="translate(210 63.781)"><mask id="ed" fill="#fff"><use xlink:href="#ec"/></mask><path fill="#5E63B6" mask="url(#ed)" d="M-4.747 14.792h12v-19h-12z"/></g><g transform="translate(206 67.781)"><mask id="ef" fill="#fff"><use xlink:href="#ee"/></mask><path fill="#5E63B6" mask="url(#ef)" d="M-4.247 7.292h19v-12h-19z"/></g><g transform="translate(31 68.781)"><mask id="eh" fill="#fff"><use xlink:href="#eg"/></mask><path fill="#5E63B6" mask="url(#eh)" d="M-4.214 14.803h12v-19h-12z"/></g><g transform="translate(28 72.781)"><mask id="ej" fill="#fff"><use xlink:href="#ei"/></mask><path fill="#5E63B6" mask="url(#ej)" d="M-4.714 7.303h19v-12h-19z"/></g><g transform="translate(175 18.781)"><mask id="el" fill="#fff"><use xlink:href="#ek"/></mask><path fill="#5E63B6" mask="url(#el)" d="M-4.704 10.156h11V-4.781h-11z"/></g><g transform="translate(173 20.781)"><mask id="en" fill="#fff"><use xlink:href="#em"/></mask><path fill="#5E63B6" mask="url(#en)" d="M-4.673 6.187h14.938v-11H-4.673z"/></g><g transform="translate(22 177.781)"><mask id="ep" fill="#fff"><use xlink:href="#eo"/></mask><path fill="#5E63B6" mask="url(#ep)" d="M-4.092 10.03h11V-4.907h-11z"/></g><g transform="translate(20 179.781)"><mask id="er" fill="#fff"><use xlink:href="#eq"/></mask><path fill="#5E63B6" mask="url(#er)" d="M-4.06 6.061h14.937v-11H-4.06z"/></g><g transform="translate(233 163.781)"><mask id="et" fill="#fff"><use xlink:href="#es"/></mask><path fill="#5E63B6" mask="url(#et)" d="M-4.023 14.566h12v-19h-12z"/></g><g transform="translate(230 167.781)"><mask id="ev" fill="#fff"><use xlink:href="#eu"/></mask><path fill="#5E63B6" mask="url(#ev)" d="M-4.523 7.066h19v-12h-19z"/></g><g transform="translate(7 224.781)"><mask id="ex" fill="#fff"><use xlink:href="#ew"/></mask><path fill="#9ACDED" mask="url(#ex)" d="M-5 7.798h17.334v-12H-5z"/></g><g transform="translate(21 180.781)"><mask id="ez" fill="#fff"><use xlink:href="#ey"/></mask><path fill="#FFF" mask="url(#ez)" d="M-4.666 50.334h226.382V-4.099H-4.666z"/></g><g transform="translate(20 179.781)"><mask id="eB" fill="#fff"><use xlink:href="#eA"/></mask><path fill="#9ACDED" mask="url(#eB)" d="M-4.666 52.337h228.382V-4.1H-4.666z"/></g></g></svg>