<svg xmlns="http://www.w3.org/2000/svg" xmlns:xlink="http://www.w3.org/1999/xlink" width="256" height="256" viewBox="0 0 256 256">
  <defs>
    <path id="userdefault-a" d="M39.471,137.5 C39.471,187.073 79.657,227.259 129.229,227.259 L129.229,227.259 C178.802,227.259 218.988,187.073 218.988,137.5 L218.988,137.5 C218.988,87.928 178.802,47.741 129.229,47.741 L129.229,47.741 C79.657,47.741 39.471,87.928 39.471,137.5"/>
  </defs>
  <g fill="none" fill-rule="evenodd">
    <path fill="#E1F2FF" d="M219.7295,137.4997 C219.7295,187.4817 179.2115,227.9997 129.2295,227.9997 C79.2485,227.9997 38.7295,187.4817 38.7295,137.4997 C38.7295,87.5187 79.2485,46.9997 129.2295,46.9997 C179.2115,46.9997 219.7295,87.5187 219.7295,137.4997"/>
    <path fill="#5E63B6" d="M210.9971 177.3346C210.8531 177.3346 210.7071 177.3036 210.5681 177.2376 210.0691 177.0006 209.8571 176.4036 210.0951 175.9046 215.8241 163.8616 218.7291 150.9396 218.7291 137.4996 218.7291 134.2466 218.5541 130.9726 218.2071 127.7666 218.1471 127.2176 218.5451 126.7246 219.0941 126.6646 219.6251 126.6056 220.1361 127.0016 220.1951 127.5516 220.5501 130.8276 220.7291 134.1756 220.7291 137.4996 220.7291 151.2396 217.7591 164.4496 211.9011 176.7646 211.7291 177.1246 211.3711 177.3346 210.9971 177.3346M111.4111 227.2456C111.3471 227.2456 111.2801 227.2396 111.2141 227.2266 94.6151 223.9116 79.2671 216.0246 66.8261 204.4186 66.4231 204.0416 66.4001 203.4086 66.7771 203.0046 67.1541 202.6016 67.7871 202.5796 68.1911 202.9556 80.3591 214.3096 95.3711 222.0226 111.6061 225.2656 112.1471 225.3736 112.4991 225.8996 112.3911 226.4416 112.2961 226.9166 111.8781 227.2456 111.4111 227.2456M141.2561 228.2066C140.7621 228.2066 140.3321 227.8416 140.2661 227.3386 140.1921 226.7906 140.5781 226.2876 141.1251 226.2156 160.7661 223.6066 179.2541 214.3366 193.1831 200.1116 193.5711 199.7176 194.2041 199.7106 194.5971 200.0966 194.9921 200.4826 194.9981 201.1156 194.6121 201.5106 180.3711 216.0546 161.4701 225.5316 141.3891 228.1976 141.3441 228.2036 141.3001 228.2066 141.2561 228.2066M239.9795 79.4977C239.4265 79.4977 238.9795 79.0507 238.9795 78.4977L238.9795 71.4977C238.9795 70.9447 239.4265 70.4977 239.9795 70.4977 240.5325 70.4977 240.9795 70.9447 240.9795 71.4977L240.9795 78.4977C240.9795 79.0507 240.5325 79.4977 239.9795 79.4977"/>
    <path fill="#5E63B6" d="M243.4795 75.9977L236.4795 75.9977C235.9265 75.9977 235.4795 75.5507 235.4795 74.9977 235.4795 74.4447 235.9265 73.9977 236.4795 73.9977L243.4795 73.9977C244.0325 73.9977 244.4795 74.4447 244.4795 74.9977 244.4795 75.5507 244.0325 75.9977 243.4795 75.9977M68.6768 37.9997C68.1238 37.9997 67.6768 37.5527 67.6768 36.9997L67.6768 29.9997C67.6768 29.4467 68.1238 28.9997 68.6768 28.9997 69.2298 28.9997 69.6768 29.4467 69.6768 29.9997L69.6768 36.9997C69.6768 37.5527 69.2298 37.9997 68.6768 37.9997"/>
    <path fill="#5E63B6" d="M72.1768 34.4997L65.1768 34.4997C64.6238 34.4997 64.1768 34.0527 64.1768 33.4997 64.1768 32.9467 64.6238 32.4997 65.1768 32.4997L72.1768 32.4997C72.7298 32.4997 73.1768 32.9467 73.1768 33.4997 73.1768 34.0527 72.7298 34.4997 72.1768 34.4997M13.4687 130.1276C13.1927 130.1276 12.9687 129.9036 12.9687 129.6276L12.9687 125.6906C12.9687 125.4136 13.1927 125.1906 13.4687 125.1906 13.7447 125.1906 13.9687 125.4136 13.9687 125.6906L13.9687 129.6276C13.9687 129.9036 13.7447 130.1276 13.4687 130.1276"/>
    <path fill="#5E63B6" d="M15.4375 128.1588L11.4995 128.1588C11.2235 128.1588 11.0005 127.9348 11.0005 127.6588 11.0005 127.3828 11.2235 127.1588 11.4995 127.1588L15.4375 127.1588C15.7135 127.1588 15.9375 127.3828 15.9375 127.6588 15.9375 127.9348 15.7135 128.1588 15.4375 128.1588M35.7109 215.1833C35.4349 215.1833 35.2109 214.9593 35.2109 214.6833L35.2109 210.7463C35.2109 210.4693 35.4349 210.2463 35.7109 210.2463 35.9869 210.2463 36.2109 210.4693 36.2109 210.7463L36.2109 214.6833C36.2109 214.9593 35.9869 215.1833 35.7109 215.1833"/>
    <path fill="#5E63B6" d="M37.6797,213.2145 L33.7417,213.2145 C33.4657,213.2145 33.2427,212.9905 33.2427,212.7145 C33.2427,212.4385 33.4657,212.2145 33.7417,212.2145 L37.6797,212.2145 C37.9557,212.2145 38.1797,212.4385 38.1797,212.7145 C38.1797,212.9905 37.9557,213.2145 37.6797,213.2145"/>
    <mask id="userdefault-b" fill="#fff">
      <use xlink:href="#userdefault-a"/>
    </mask>
    <path fill="#ACD3EF" d="M190.666,306.1491 C181.65,287.8461 168.242,234.7901 175.111,199.5421 L180.548,171.6501 C182.331,162.5001 183.113,153.1811 182.879,143.8621 L182.879,143.8611 C182.781,139.9781 182.293,136.1981 181.451,132.5551 C181.241,131.6441 181.009,130.7421 180.755,129.8491 C179.993,127.1711 179.039,124.5761 177.908,122.0801 C177.532,121.2481 177.136,120.4261 176.72,119.6161 C175.889,117.9971 174.981,116.4231 174.003,114.9011 C173.024,113.3781 171.976,111.9071 170.859,110.4901 C167.512,106.2401 163.566,102.4881 159.153,99.3581 C157.683,98.3151 156.16,97.3401 154.59,96.4401 C145.956,91.4861 135.898,88.7611 125.221,89.0301 L115.999,89.2611 C100.467,89.6521 86.563,96.3001 76.642,106.7351 C75.401,108.0391 74.223,109.4021 73.112,110.8201 C71.092,113.3971 69.306,116.1611 67.755,119.0671 C67.172,120.1591 66.611,121.2631 66.101,122.3961 C65.727,123.2251 65.372,124.0661 65.037,124.9161 C64.033,127.4651 63.21,130.1061 62.585,132.8191 C61.959,135.5321 61.529,138.3181 61.312,141.1621 C61.168,143.0571 61.118,144.9781 61.167,146.9201 C61.265,150.7921 62.922,154.2571 65.523,156.7311 C68.124,159.2051 71.669,160.6861 75.541,160.5891 L133.126,159.1421 L125.666,209.3421 C116.727,260.9431 120.664,295.2031 129.163,317.8931 C131.058,322.9521 191.78,308.4101 190.666,306.1491" mask="url(#userdefault-b)"/>
    <path fill="#5E63B6" d="M189.7666,306.5866 C189.7676,306.5886 189.7686,306.5896 189.7686,306.5916 L189.7686,306.5906 C189.7686,306.5896 189.7676,306.5876 189.7666,306.5866 L189.7666,306.5866 Z M134.2896,158.1126 L126.6556,209.4896 C118.8836,254.3496 120.0436,290.6956 130.0996,317.5426 C130.8556,318.2926 138.1426,318.6166 160.0316,313.9596 C174.6106,310.8576 186.9386,307.3606 189.4716,305.9786 C180.3446,286.8966 167.2836,234.4806 174.1296,199.3506 L179.5666,171.4586 C181.3326,162.3926 182.1116,153.1156 181.8786,143.8876 C181.7856,140.1356 181.3136,136.3996 180.4766,132.7806 C180.2726,131.8936 180.0416,130.9996 179.7926,130.1226 C179.0526,127.5206 178.1126,124.9526 176.9966,122.4926 C176.6316,121.6836 176.2396,120.8696 175.8296,120.0726 C175.0196,118.4936 174.1216,116.9366 173.1626,115.4416 C172.2046,113.9526 171.1656,112.4946 170.0746,111.1086 C166.7826,106.9296 162.9126,103.2506 158.5756,100.1736 C157.1276,99.1486 155.6206,98.1836 154.0926,97.3076 C145.3506,92.2916 135.3886,89.7696 125.2456,90.0296 L116.0246,90.2616 C101.2666,90.6326 87.5376,96.7276 77.3666,107.4246 C76.1486,108.7046 74.9816,110.0546 73.8996,111.4366 C71.9476,113.9266 70.1766,116.6516 68.6366,119.5376 C67.9756,120.7756 67.4586,121.8156 67.0126,122.8076 C66.6446,123.6216 66.2966,124.4476 65.9676,125.2826 C64.9756,127.8016 64.1656,130.4126 63.5596,133.0436 C62.9396,135.7286 62.5196,138.4846 62.3096,141.2376 C62.1666,143.1046 62.1196,145.0076 62.1666,146.8946 C62.2546,150.3726 63.6916,153.6086 66.2126,156.0066 C68.7326,158.4026 72.0126,159.6816 75.5156,159.5896 L134.2896,158.1126 Z M133.2566,319.9436 C132.4166,319.9436 131.6886,319.9056 131.0846,319.8256 C130.0616,319.6906 128.6516,319.3786 128.2266,318.2436 C118.0446,291.0606 116.8516,254.3626 124.6806,209.1716 L131.9616,160.1716 L75.5666,161.5896 C71.5366,161.6676 67.7426,160.2226 64.8336,157.4556 C61.9256,154.6906 60.2686,150.9576 60.1666,146.9446 C60.1186,144.9896 60.1676,143.0196 60.3156,141.0856 C60.5336,138.2326 60.9686,135.3766 61.6106,132.5946 C62.2396,129.8666 63.0786,127.1596 64.1066,124.5496 C64.4496,123.6806 64.8136,122.8176 65.1896,121.9846 C65.6556,120.9516 66.1906,119.8746 66.8726,118.5966 C68.4666,115.6076 70.3016,112.7836 72.3256,110.2026 C73.4466,108.7716 74.6556,107.3726 75.9166,106.0456 C86.4556,94.9626 100.6816,88.6466 115.9736,88.2616 L125.1956,88.0296 C135.7066,87.7836 146.0296,90.3756 155.0876,95.5726 C156.6696,96.4806 158.2336,97.4796 159.7316,98.5426 C164.2266,101.7306 168.2346,105.5416 171.6446,109.8706 C172.7766,111.3076 173.8526,112.8176 174.8436,114.3596 C175.8396,115.9086 176.7696,117.5236 177.6096,119.1586 C178.0346,119.9856 178.4406,120.8296 178.8196,121.6676 C179.9746,124.2176 180.9496,126.8786 181.7166,129.5756 C181.9756,130.4846 182.2136,131.4116 182.4256,132.3306 C183.2916,136.0796 183.7816,139.9506 183.8786,143.8356 C184.1146,153.2106 183.3246,162.6326 181.5296,171.8416 L176.0926,199.7326 C169.2566,234.8126 182.5306,287.3696 191.5636,305.7076 L191.5636,305.7066 C191.7566,306.0996 191.7096,306.5596 191.4396,306.9376 C189.2666,309.9646 146.8516,319.9426 133.2566,319.9436 L133.2566,319.9436 Z" mask="url(#userdefault-b)"/>
    <path fill="#FFF" d="M86.3516,97.6764 C86.3516,97.6764 87.0366,87.8304 96.6976,83.6824 C99.6456,82.4154 107.6776,81.8914 107.6776,81.8914 C107.6776,81.8914 110.1996,92.2384 103.6906,95.5034 C94.3226,100.2034 86.3516,97.6764 86.3516,97.6764" mask="url(#userdefault-b)"/>
    <path fill="#5E63B6" d="M87.457,96.9186 C89.648,97.3756 96.047,98.2196 103.242,94.6096 C107.971,92.2366 107.27,85.3466 106.867,82.9556 C104.736,83.1306 99.296,83.6536 97.092,84.6016 C89.616,87.8116 87.852,94.5536 87.457,96.9186 M91.863,99.3656 C88.444,99.3656 86.225,98.6856 86.049,98.6296 L85.3,98.3926 L85.353,97.6066 C85.384,97.1806 86.197,87.1036 96.303,82.7636 C99.373,81.4436 107.277,80.9156 107.612,80.8936 L108.45,80.8386 L108.649,81.6546 C108.76,82.1076 111.277,92.8156 104.139,96.3976 C99.449,98.7506 95.114,99.3656 91.863,99.3656" mask="url(#userdefault-b)"/>
    <path fill="#FFF" d="M110.9863,92.0378 C110.9863,92.0378 110.9283,78.6468 125.9373,76.3168 C128.7363,75.8828 132.3493,76.0688 132.3493,76.0688 C132.3493,76.0688 139.8033,89.9518 131.8993,91.5128 C122.1823,93.4318 110.9863,92.0378 110.9863,92.0378" mask="url(#userdefault-b)"/>
    <path fill="#5E63B6" d="M112.0381,91.1432 C114.8991,91.4182 123.8561,92.0802 131.7061,90.5312 C132.8871,90.2982 133.6721,89.7392 134.1051,88.8222 C135.5241,85.8212 133.0741,79.7272 131.7291,77.0472 C130.6221,77.0112 128.1121,76.9912 126.0911,77.3052 C114.1751,79.1552 112.3241,88.2222 112.0381,91.1432 M120.1171,93.5332 C115.0011,93.5332 111.1341,93.0642 110.8631,93.0302 L109.9901,92.9212 L109.9861,92.0412 C109.9851,91.8992 110.1061,77.7622 125.7841,75.3292 C128.6531,74.8832 132.2501,75.0632 132.4011,75.0702 L132.9641,75.0992 L133.2301,75.5962 C133.4341,75.9732 138.1711,84.9002 135.9141,89.6752 C135.2001,91.1852 133.9151,92.1332 132.0931,92.4942 C128.0331,93.2952 123.7591,93.5332 120.1171,93.5332" mask="url(#userdefault-b)"/>
    <path fill="#FFF" d="M139.5322,92.2917 C139.5322,92.2917 141.5212,77.4447 154.8582,81.5297 C160.5562,83.2747 163.7192,87.6057 163.7192,87.6057 C163.7192,87.6057 161.0592,98.9127 155.7542,97.6397 C146.4902,95.4177 139.5322,92.2917 139.5322,92.2917" mask="url(#userdefault-b)"/>
    <path fill="#5E63B6" d="M140.6602,91.6881 C142.6572,92.5251 148.6142,94.8991 155.9872,96.6671 C156.6712,96.8321 157.3172,96.7141 157.9702,96.3131 C160.3512,94.8461 162.0322,90.0791 162.6282,87.8441 C161.7592,86.8191 158.9342,83.8241 154.5652,82.4861 C151.0902,81.4201 148.1472,81.6361 145.8232,83.1271 C142.3252,85.3701 141.0412,89.9101 140.6602,91.6881 M156.5862,98.7411 C156.2342,98.7411 155.8792,98.6981 155.5202,98.6121 C146.2722,96.3941 139.1922,93.2351 139.1222,93.2041 L138.4422,92.8981 L138.5412,92.1591 C138.5812,91.8581 139.5882,84.7501 144.7432,81.4441 C147.5852,79.6231 151.0852,79.3291 155.1512,80.5741 C161.0992,82.3951 164.3892,86.8291 164.5262,87.0161 L164.7982,87.3871 L164.6922,87.8341 C164.6172,88.1541 162.8092,95.6811 159.0182,98.0161 C158.2362,98.4991 157.4212,98.7411 156.5862,98.7411" mask="url(#userdefault-b)"/>
    <path fill="#E1F2FF" d="M91.1357 95.0446C91.1357 95.0446 91.4977 89.8406 96.6047 87.6476 98.1627 86.9776 102.4087 86.6996 102.4087 86.6996 102.4087 86.6996 103.7417 92.1696 100.3017 93.8966 95.3497 96.3806 91.1357 95.0446 91.1357 95.0446M116.7695 89.5309C116.7695 89.5309 116.7385 82.1279 125.0355 80.8399 126.5825 80.5989 128.5815 80.7029 128.5815 80.7029 128.5815 80.7029 132.7025 88.3779 128.3325 89.2409 122.9595 90.3019 116.7695 89.5309 116.7695 89.5309M144.7705 91.1549C144.7705 91.1549 145.8585 83.0319 153.1565 85.2669 156.2735 86.2219 158.0035 88.5919 158.0035 88.5919 158.0035 88.5919 156.5485 94.7769 153.6455 94.0809 148.5775 92.8649 144.7705 91.1549 144.7705 91.1549" mask="url(#userdefault-b)"/>
    <path fill="#FFF" d="M180.3311,172.7614 C180.3311,172.7614 155.2571,177.3494 131.1701,172.0324 C129.1651,185.1984 127.9171,195.1314 127.9171,195.1314 C127.9171,195.1314 144.8081,206.0744 175.3151,198.7144 C178.5121,181.7894 180.3311,172.7614 180.3311,172.7614" mask="url(#userdefault-b)"/>
    <path fill="#5E63B6" d="M128.9932,194.6012 C132.0462,196.2892 148.0872,204.0702 174.4532,197.8912 C176.8382,185.2762 178.4502,177.0912 179.0682,173.9782 C173.4582,174.8292 152.4012,177.4912 131.9992,173.2332 C130.3952,183.8402 129.2952,192.2532 128.9932,194.6012 M154.7952,202.2832 C137.3822,202.2832 127.8972,196.3102 127.3732,195.9702 L126.8472,195.6292 L126.9252,195.0062 C126.9372,194.9072 128.1972,184.9102 130.1812,171.8812 L130.3422,170.8252 L131.3862,171.0552 C154.9862,176.2652 179.9022,171.8232 180.1512,171.7782 L181.6022,171.5122 L181.3112,172.9582 C181.2932,173.0492 179.4562,182.1762 176.2982,198.9002 L176.1782,199.5352 L175.5502,199.6862 C167.7222,201.5752 160.7872,202.2832 154.7952,202.2832" mask="url(#userdefault-b)"/>
    <path fill="#E1F2FF" d="M137.7432,148.3434 L108.9492,149.0674 C108.5842,134.5634 120.0462,122.5114 134.5492,122.1464 L137.0832,122.0824 C144.3352,121.9014 150.3612,127.6314 150.5432,134.8834 C150.7252,142.1344 144.9942,148.1604 137.7432,148.3434" mask="url(#userdefault-b)"/>
    <path fill="#FFF" d="M135.1836,147.9137 L109.4316,148.5607 C109.1456,137.1667 118.1506,127.6977 129.5446,127.4117 L134.9096,127.2767 C140.5386,127.1357 145.2176,131.5847 145.3586,137.2147 C145.5036,142.9787 140.9486,147.7687 135.1836,147.9137" mask="url(#userdefault-b)"/>
    <path fill="#5E63B6" d="M135.1719,128.2741 C135.0929,128.2741 135.0139,128.2751 134.9349,128.2771 L129.5699,128.4121 C124.3259,128.5441 119.4469,130.7091 115.8329,134.5101 C112.4479,138.0691 110.5509,142.6611 110.4309,147.5361 L135.1579,146.9141 C137.6799,146.8511 140.0259,145.8101 141.7629,143.9821 C143.4999,142.1551 144.4219,139.7601 144.3589,137.2401 C144.2979,134.7841 143.2829,132.4991 141.5029,130.8061 C139.7799,129.1681 137.5399,128.2741 135.1719,128.2741 L135.1719,128.2741 Z M108.4569,149.5861 L108.4319,148.5861 C108.1329,136.6591 117.5929,126.7121 129.5199,126.4121 L134.8839,126.2771 C137.8939,126.2331 140.7149,127.2951 142.8819,129.3571 C145.0489,131.4181 146.2829,134.2001 146.3589,137.1891 C146.4359,140.2451 145.3179,143.1461 143.2119,145.3611 C141.1069,147.5751 138.2639,148.8361 135.2089,148.9141 L108.4569,149.5861 Z" mask="url(#userdefault-b)"/>
    <path fill="#5E63B6" d="M115.8027 136.5182C115.8817 139.7002 118.5267 142.2142 121.7087 142.1352 124.8917 142.0552 127.4067 139.4112 127.3257 136.2282 127.2457 133.0462 124.6017 130.5312 121.4197 130.6112 118.2377 130.6912 115.7227 133.3352 115.8027 136.5182M74.4092 155.9294L74.4092 155.9294C76.0382 155.5374 77.4792 154.5914 78.4892 153.2544L80.3582 150.7784 76.0812 151.8074 73.5622 152.4144C72.5922 152.6484 71.9942 153.6244 72.2272 154.5954 72.4622 155.5664 73.4382 156.1634 74.4092 155.9294" mask="url(#userdefault-b)"/>
    <path fill="#E1F2FF" d="M140.2129,176.6354 C140.2129,176.6354 159.3839,181.5684 176.0939,177.7874 C173.2359,190.3694 171.6549,194.3314 171.6549,194.3314 C171.6549,194.3314 146.3779,191.6054 140.2129,176.6354" mask="url(#userdefault-b)"/>
    <path fill="#ACD3EF" d="M158.1406,184.7389 C146.2916,184.7389 138.4306,182.8759 138.3216,182.8489 C137.7856,182.7189 137.4556,182.1779 137.5856,181.6419 C137.7166,181.1039 138.2596,180.7719 138.7926,180.9059 C138.9426,180.9419 153.9646,184.4929 173.8016,181.6209 C174.3426,181.5319 174.8566,181.9199 174.9346,182.4669 C175.0136,183.0129 174.6346,183.5199 174.0886,183.5989 C168.2926,184.4389 162.8956,184.7389 158.1406,184.7389" mask="url(#userdefault-b)"/>
    <path fill="#E1F2FF" d="M163.8037,159.1022 C162.5987,159.1022 161.4597,158.6482 160.5827,157.8142 C159.6777,156.9542 159.1617,155.7912 159.1307,154.5422 C159.1237,154.2662 159.3427,154.0372 159.6177,154.0302 L159.6307,154.0302 C159.9017,154.0302 160.1237,154.2462 160.1307,154.5172 C160.1557,155.4992 160.5607,156.4132 161.2727,157.0892 C161.9837,157.7662 162.9197,158.1262 163.8987,158.1012 C165.9257,158.0492 167.5327,156.3592 167.4817,154.3322 C167.4747,154.0562 167.6927,153.8272 167.9687,153.8202 C168.2687,153.8192 168.4747,154.0322 168.4817,154.3072 C168.5467,156.8852 166.5017,159.0362 163.9237,159.1012 C163.8837,159.1022 163.8437,159.1022 163.8037,159.1022" mask="url(#userdefault-b)"/>
    <path fill="#E1F2FF" d="M168.084 163.1725C166.88 163.1725 165.74 162.7185 164.863 161.8855 163.958 161.0245 163.442 159.8615 163.411 158.6135 163.404 158.3375 163.623 158.1085 163.898 158.1015L163.911 158.1015C164.182 158.1015 164.404 158.3175 164.411 158.5885 164.436 159.5695 164.841 160.4835 165.553 161.1595 166.264 161.8365 167.2 162.1935 168.179 162.1715 169.161 162.1475 170.074 161.7415 170.751 161.0295 171.428 160.3185 171.787 159.3855 171.762 158.4035 171.755 158.1275 171.973 157.8985 172.249 157.8915 172.522 157.9355 172.755 158.1045 172.762 158.3785 172.793 159.6275 172.337 160.8135 171.476 161.7195 170.615 162.6245 169.453 163.1405 168.204 163.1715 168.164 163.1725 168.124 163.1725 168.084 163.1725M157.9561 218.9489C156.9241 218.9489 155.9481 218.5589 155.1981 217.8459 154.4231 217.1089 153.9811 216.1139 153.9541 215.0439 153.9471 214.7669 154.1651 214.5379 154.4411 214.5309 154.7541 214.5339 154.9471 214.7429 154.9541 215.0179 154.9751 215.8209 155.3061 216.5679 155.8881 217.1219 156.4701 217.6759 157.2381 217.9859 158.0341 217.9479 158.8371 217.9279 159.5841 217.5959 160.1371 217.0149 160.6901 216.4329 160.9841 215.6709 160.9641 214.8679 160.9571 214.5919 161.1751 214.3619 161.4511 214.3549L161.4641 214.3549C161.7341 214.3549 161.9571 214.5709 161.9641 214.8429 161.9901 215.9119 161.6001 216.9279 160.8621 217.7039 160.1241 218.4789 159.1291 218.9219 158.0601 218.9479 158.0241 218.9489 157.9901 218.9489 157.9561 218.9489M73.3945 140.528C72.5885 140.528 71.8275 140.224 71.2415 139.667 70.6355 139.091 70.2905 138.313 70.2685 137.477 70.2615 137.201 70.4795 136.971 70.7555 136.965L70.7685 136.965C71.0395 136.965 71.2615 137.18 71.2685 137.452 71.2985 138.627 72.2845 139.594 73.4515 139.527 74.0195 139.513 74.5485 139.278 74.9405 138.866 75.3325 138.454 75.5405 137.914 75.5265 137.345 75.5195 137.069 75.7385 136.84 76.0135 136.833L76.0265 136.833C76.2965 136.833 76.5195 137.049 76.5265 137.32 76.5465 138.156 76.2415 138.949 75.6655 139.555 75.0885 140.161 74.3115 140.507 73.4765 140.527 73.4495 140.528 73.4215 140.528 73.3945 140.528" mask="url(#userdefault-b)"/>
    <path fill="#5E63B6" d="M190.2197,83.7409 C189.9437,83.7409 189.7197,83.5169 189.7197,83.2409 L189.7197,79.7599 C189.7197,79.4829 189.9437,79.2599 190.2197,79.2599 C190.4957,79.2599 190.7197,79.4829 190.7197,79.7599 L190.7197,83.2409 C190.7197,83.5169 190.4957,83.7409 190.2197,83.7409" mask="url(#userdefault-b)"/>
    <path fill="#5E63B6" d="M191.96,81.9997 L188.479,81.9997 C188.202,81.9997 187.979,81.7757 187.979,81.4997 C187.979,81.2237 188.202,80.9997 188.479,80.9997 L191.96,80.9997 C192.236,80.9997 192.46,81.2237 192.46,81.4997 C192.46,81.7757 192.236,81.9997 191.96,81.9997" mask="url(#userdefault-b)"/>
  </g>
</svg>
