<?xml version="1.0" encoding="UTF-8"?>
<svg width="256px" height="256px" viewBox="0 0 256 256" version="1.1" xmlns="http://www.w3.org/2000/svg" xmlns:xlink="http://www.w3.org/1999/xlink">
    <!-- Generator: Sketch Beta 47 (45392) - http://www.bohemiancoding.com/sketch -->
    <title>User-roles</title>
    <desc>Created with Sketch Beta.</desc>
    <defs>
        <polygon id="path-1" points="9.479 0.0537 9.479 2.0537 0.4795 2.0537 0.4795 0.0537 9.479 0.0537"></polygon>
        <polygon id="path-3" points="0.6768 0.056 2.6768 0.056 2.6768 9.0557 0.6768 9.0557 0.6768 0.056"></polygon>
        <path d="M129.681114,113.980474 C113.62153,129.070814 92.004704,138.315 68.229,138.315 C41.003785,138.315 16.6096381,126.19383 0.148734105,107.0535 L0.148734105,0.0679035388 L129.681114,0.0679035388 L129.681114,113.980474 Z" id="path-5"></path>
        <path d="M0.148880179,106.870509 C16.6131274,126.693019 41.4470439,139.315 69.229,139.315 C93.5019269,139.315 115.524734,129.680123 131.681357,114.026079 L131.681357,0.0690394444 L0.148880179,0.0690394444 L0.148880179,106.870509 L0.148880179,106.870509 Z" id="path-7"></path>
    </defs>
    <g id="Illustrations" stroke="none" stroke-width="1" fill="none" fill-rule="evenodd">
        <g id="User-roles">
            <g id="Page-1" transform="translate(11.000000, 18.000000)">
                <g id="Group-23" transform="translate(0.000000, 0.944000)">
                    <path d="M208.7295,104.5557 C208.7295,154.5377 168.2105,195.0557 118.2295,195.0557 C68.2485,195.0557 27.7295,154.5377 27.7295,104.5557 C27.7295,54.5747 68.2485,14.0557 118.2295,14.0557 C168.2105,14.0557 208.7295,54.5747 208.7295,104.5557" id="Fill-1" fill="#E1F2FF"></path>
                    <path d="M195.2119,153.1602 C195.0319,153.1602 194.8509,153.1122 194.6869,153.0102 C194.2169,152.7202 194.0719,152.1022 194.3629,151.6342 C203.1079,137.5212 207.7299,121.2422 207.7299,104.5562 C207.7299,101.3082 207.5539,98.0342 207.2059,94.8222 C207.1469,94.2732 207.5439,93.7802 208.0929,93.7212 C208.6289,93.6642 209.1339,94.0572 209.1939,94.6072 C209.5499,97.8902 209.7299,101.2372 209.7299,104.5562 C209.7299,121.6152 205.0039,138.2592 196.0629,152.6862 C195.8739,152.9922 195.5469,153.1602 195.2119,153.1602 L195.2119,153.1602 Z M90.7389,191.8052 C90.6389,191.8052 90.5369,191.7902 90.4359,191.7582 C71.1329,185.6112 54.1699,172.9752 42.6719,156.1802 C42.3599,155.7242 42.4769,155.1012 42.9329,154.7902 C43.3889,154.4792 44.0119,154.5962 44.3219,155.0512 C55.5689,171.4802 72.1619,183.8402 91.0429,189.8512 C91.5689,190.0192 91.8589,190.5822 91.6919,191.1082 C91.5569,191.5332 91.1629,191.8052 90.7389,191.8052 L90.7389,191.8052 Z M120.2989,196.0312 C119.7569,196.0312 119.3119,195.5982 119.2989,195.0542 C119.2869,194.5022 119.7249,194.0442 120.2759,194.0312 C140.4239,193.5802 159.3109,186.5972 174.8939,173.8362 C175.3219,173.4842 175.9519,173.5492 176.3009,173.9752 C176.6509,174.4032 176.5879,175.0332 176.1609,175.3832 C160.2289,188.4302 140.9199,195.5702 120.3209,196.0312 L120.2989,196.0312 Z" id="Fill-3" fill="#375D81"></path>
                    <path d="M228.9795,50.5537 C228.4265,50.5537 227.9795,50.1067 227.9795,49.5537 L227.9795,42.5537 C227.9795,42.0007 228.4265,41.5537 228.9795,41.5537 C229.5325,41.5537 229.9795,42.0007 229.9795,42.5537 L229.9795,49.5537 C229.9795,50.1067 229.5325,50.5537 228.9795,50.5537" id="Fill-5" fill="#375D81"></path>
                    <g id="Group-9" transform="translate(224.000000, 45.000000)">
                        <mask id="mask-2" fill="white">
                            <use xlink:href="#path-1"></use>
                        </mask>
                        <g id="Clip-8"></g>
                        <path d="M8.4795,2.0537 L1.4795,2.0537 C0.9265,2.0537 0.4795,1.6067 0.4795,1.0537 C0.4795,0.5007 0.9265,0.0537 1.4795,0.0537 L8.4795,0.0537 C9.0325,0.0537 9.4795,0.5007 9.4795,1.0537 C9.4795,1.6067 9.0325,2.0537 8.4795,2.0537" id="Fill-7" fill="#375D81" mask="url(#mask-2)"></path>
                    </g>
                    <g id="Group-12" transform="translate(56.000000, 0.000000)">
                        <mask id="mask-4" fill="white">
                            <use xlink:href="#path-3"></use>
                        </mask>
                        <g id="Clip-11"></g>
                        <path d="M1.6768,9.0557 C1.1238,9.0557 0.6768,8.6087 0.6768,8.0557 L0.6768,1.0557 C0.6768,0.5027 1.1238,0.0557 1.6768,0.0557 C2.2298,0.0557 2.6768,0.5027 2.6768,1.0557 L2.6768,8.0557 C2.6768,8.6087 2.2298,9.0557 1.6768,9.0557" id="Fill-10" fill="#375D81" mask="url(#mask-4)"></path>
                    </g>
                    <path d="M61.1768,5.5557 L54.1768,5.5557 C53.6238,5.5557 53.1768,5.1087 53.1768,4.5557 C53.1768,4.0027 53.6238,3.5557 54.1768,3.5557 L61.1768,3.5557 C61.7298,3.5557 62.1768,4.0027 62.1768,4.5557 C62.1768,5.1087 61.7298,5.5557 61.1768,5.5557" id="Fill-13" fill="#375D81"></path>
                    <path d="M2.4687,101.1836 C2.1927,101.1836 1.9687,100.9596 1.9687,100.6836 L1.9687,96.7466 C1.9687,96.4696 2.1927,96.2466 2.4687,96.2466 C2.7447,96.2466 2.9687,96.4696 2.9687,96.7466 L2.9687,100.6836 C2.9687,100.9596 2.7447,101.1836 2.4687,101.1836" id="Fill-15" fill="#375D81"></path>
                    <path d="M4.4375,99.2148 L0.4995,99.2148 C0.2235,99.2148 0.0005,98.9908 0.0005,98.7148 C0.0005,98.4388 0.2235,98.2148 0.4995,98.2148 L4.4375,98.2148 C4.7135,98.2148 4.9375,98.4388 4.9375,98.7148 C4.9375,98.9908 4.7135,99.2148 4.4375,99.2148" id="Fill-17" fill="#375D81"></path>
                    <path d="M24.7109,186.2393 C24.4349,186.2393 24.2109,186.0153 24.2109,185.7393 L24.2109,181.8023 C24.2109,181.5253 24.4349,181.3023 24.7109,181.3023 C24.9869,181.3023 25.2109,181.5253 25.2109,181.8023 L25.2109,185.7393 C25.2109,186.0153 24.9869,186.2393 24.7109,186.2393" id="Fill-19" fill="#375D81"></path>
                    <path d="M26.6797,184.2705 L22.7417,184.2705 C22.4657,184.2705 22.2427,184.0465 22.2427,183.7705 C22.2427,183.4945 22.4657,183.2705 22.7417,183.2705 L26.6797,183.2705 C26.9557,183.2705 27.1797,183.4945 27.1797,183.7705 C27.1797,184.0465 26.9557,184.2705 26.6797,184.2705" id="Fill-21" fill="#375D81"></path>
                </g>
                <g id="Group-74" transform="translate(49.000000, 42.944000)">
                    <g id="Group-26" transform="translate(1.000000, 14.000000)">
                        <mask id="mask-6" fill="white">
                            <use xlink:href="#path-5"></use>
                        </mask>
                        <g id="Clip-25"></g>
                        <path d="M129.666,217.2051 C120.65,198.9021 107.241,145.8461 114.111,110.5981 L119.548,82.7061 C121.331,73.5561 122.112,64.2371 121.878,54.9181 L121.878,54.9171 C121.781,51.0341 121.292,47.2541 120.451,43.6111 C120.24,42.7001 120.009,41.7981 119.755,40.9051 C118.993,38.2271 118.039,35.6321 116.908,33.1361 C116.531,32.3041 116.135,31.4821 115.72,30.6721 C114.889,29.0531 113.981,27.4791 113.003,25.9571 C112.024,24.4341 110.975,22.9631 109.859,21.5461 C106.511,17.2961 102.565,13.5441 98.153,10.4141 C96.683,9.3711 95.16,8.3961 93.59,7.4961 C84.956,2.5421 74.898,-0.1829 64.221,0.0861 L54.998,0.3171 C39.467,0.7081 25.563,7.3561 15.641,17.7911 C14.4,19.0951 13.223,20.4581 12.111,21.8761 C10.092,24.4531 8.306,27.2171 6.754,30.1231 C6.172,31.2151 5.611,32.3191 5.101,33.4521 C4.726,34.2811 4.371,35.1221 4.037,35.9721 C3.032,38.5211 2.21,41.1621 1.584,43.8751 C0.958,46.5881 0.529,49.3741 0.312,52.2181 C0.168,54.1131 0.118,56.0341 0.167,57.9761 C0.264,61.8481 1.922,65.3131 4.522,67.7871 C7.124,70.2611 10.669,71.7421 14.541,71.6451 L72.125,70.1981 L64.665,120.3981 C55.727,171.9991 59.663,206.2591 68.162,228.9491 C70.057,234.0081 130.779,219.4661 129.666,217.2051" id="Fill-24" fill="#9ACDED" mask="url(#mask-6)"></path>
                    </g>
                    <g id="Group-29" transform="translate(0.000000, 13.000000)">
                        <mask id="mask-8" fill="white">
                            <use xlink:href="#path-7"></use>
                        </mask>
                        <g id="Clip-28"></g>
                        <path d="M74.2891,70.1689 L66.6541,121.5459 C58.8841,166.4069 60.0431,202.7539 70.0991,229.5989 C70.8541,230.3489 78.1421,230.6729 100.0301,226.0159 C114.6091,222.9139 126.9381,219.4169 129.4721,218.0339 C120.3451,198.9509 107.2831,146.5349 114.1301,111.4059 L119.5661,83.5149 C121.3331,74.4509 122.1101,65.1749 121.8781,55.9429 C121.7851,52.1979 121.3131,48.4609 120.4771,44.8359 C120.2681,43.9319 120.0371,43.0379 119.7931,42.1789 C119.0531,39.5759 118.1121,37.0089 116.9971,34.5489 C116.6271,33.7309 116.2371,32.9239 115.8301,32.1279 C115.0191,30.5499 114.1221,28.9919 113.1621,27.4979 C112.2091,26.0159 111.1701,24.5579 110.0731,23.1639 C106.7811,18.9849 102.9121,15.3069 98.5751,12.2299 C97.1281,11.2039 95.6201,10.2389 94.0931,9.3629 C85.3501,4.3489 75.3781,1.8319 65.2461,2.0859 L56.0231,2.3169 C41.2671,2.6889 27.5371,8.7829 17.3651,19.4809 C16.1521,20.7549 14.9861,22.1059 13.8981,23.4929 C11.9471,25.9819 10.1771,28.7079 8.6361,31.5939 C7.9731,32.8379 7.4571,33.8769 7.0131,34.8629 C6.6481,35.6679 6.2971,36.4999 5.9681,37.3379 C4.9771,39.8499 4.1671,42.4609 3.5591,45.0999 C2.9391,47.7799 2.5191,50.5369 2.3101,53.2939 C2.1671,55.1599 2.1191,57.0639 2.1671,58.9499 C2.2541,62.4279 3.6901,65.6639 6.2121,68.0629 C8.7341,70.4599 12.0691,71.7309 15.5161,71.6459 L74.2891,70.1689 Z M73.2561,231.9999 C72.4161,231.9999 71.6861,231.9619 71.0831,231.8819 C70.0601,231.7459 68.6501,231.4339 68.2261,230.2999 C58.0441,203.1179 56.8521,166.4209 64.6801,121.2279 L71.9611,72.2279 L15.5661,73.6459 C11.5291,73.7419 7.7421,72.2779 4.8331,69.5119 C1.9251,66.7449 0.2681,63.0119 0.1671,59.0009 C0.1181,57.0459 0.1681,55.0749 0.3151,53.1419 C0.5331,50.2849 0.9691,47.4279 1.6091,44.6499 C2.2411,41.9149 3.0811,39.2079 4.1061,36.6059 C4.4481,35.7369 4.8121,34.8739 5.1891,34.0399 C5.6521,33.0139 6.1861,31.9369 6.8711,30.6519 C8.4681,27.6639 10.3021,24.8399 12.3241,22.2589 C13.4511,20.8209 14.6591,19.4229 15.9161,18.1019 C26.4561,7.0189 40.6821,0.7019 55.9731,0.3169 L65.1951,0.0859 C75.7121,-0.1671 86.0281,2.4309 95.0881,7.6289 C96.6701,8.5359 98.2331,9.5349 99.7311,10.5989 C104.2261,13.7859 108.2331,17.5979 111.6441,21.9269 C112.7811,23.3699 113.8571,24.8809 114.8441,26.4159 C115.8401,27.9649 116.7691,29.5789 117.6091,31.2149 C118.0321,32.0409 118.4351,32.8769 118.8191,33.7229 C119.9751,36.2729 120.9491,38.9349 121.7171,41.6319 C121.9701,42.5229 122.2091,43.4489 122.4261,44.3859 C123.2931,48.1429 123.7811,52.0139 123.8781,55.8929 C124.1131,65.2699 123.3231,74.6909 121.5291,83.8979 L116.0931,111.7889 C109.2561,146.8669 122.5301,199.4249 131.5631,217.7639 C131.7571,218.1559 131.7101,218.6149 131.4391,218.9929 C129.2651,222.0219 86.8501,231.9999 73.2561,231.9999 L73.2561,231.9999 Z" id="Fill-27" fill="#375D81" mask="url(#mask-8)"></path>
                    </g>
                    <path d="M26.3516,22.7324 C26.3516,22.7324 27.0356,12.8864 36.6966,8.7384 C39.6446,7.4714 47.6776,6.9474 47.6776,6.9474 C47.6776,6.9474 50.1996,17.2944 43.6896,20.5594 C34.3216,25.2594 26.3516,22.7324 26.3516,22.7324" id="Fill-30" fill="#FFFFFF"></path>
                    <path d="M27.4639,21.9756 C29.6629,22.4366 36.0549,23.2716 43.2409,19.6656 C47.9709,17.2926 47.2709,10.4026 46.8669,8.0116 C44.7359,8.1866 39.2949,8.7096 37.0909,9.6576 C29.6889,12.8356 27.8769,19.6206 27.4639,21.9756 M31.8629,24.4216 C28.4439,24.4216 26.2249,23.7416 26.0489,23.6856 L25.2999,23.4486 L25.3539,22.6626 C25.3839,22.2366 26.1959,12.1596 36.3019,7.8196 C39.3719,6.4996 47.2769,5.9716 47.6119,5.9496 L48.4499,5.8946 L48.6499,6.7106 C48.7599,7.1646 51.2769,17.8716 44.1379,21.4536 C39.4479,23.8066 35.1139,24.4216 31.8629,24.4216" id="Fill-32" fill="#375D81"></path>
                    <path d="M50.9863,17.0938 C50.9863,17.0938 50.9283,3.7028 65.9363,1.3728 C68.7363,0.9388 72.3493,1.1248 72.3493,1.1248 C72.3493,1.1248 79.8033,15.0078 71.8993,16.5688 C62.1813,18.4878 50.9863,17.0938 50.9863,17.0938" id="Fill-34" fill="#FFFFFF"></path>
                    <path d="M52.0352,16.1992 C54.8912,16.4742 63.8522,17.1382 71.7062,15.5872 C72.8872,15.3542 73.6722,14.7952 74.1052,13.8782 C75.5242,10.8772 73.0742,4.7832 71.7292,2.1032 C70.6242,2.0682 68.1112,2.0472 66.0902,2.3612 C54.1312,4.2182 52.3102,13.2812 52.0352,16.1992 M60.1172,18.5892 C55.0012,18.5892 51.1342,18.1202 50.8632,18.0862 L49.9902,17.9772 L49.9862,17.0972 C49.9852,16.9552 50.1062,2.8182 65.7832,0.3852 C68.6532,-0.0618 72.2502,0.1202 72.4012,0.1262 L72.9642,0.1552 L73.2302,0.6522 C73.4332,1.0292 78.1712,9.9562 75.9142,14.7312 C75.2002,16.2412 73.9152,17.1892 72.0932,17.5502 C68.0332,18.3512 63.7592,18.5892 60.1172,18.5892" id="Fill-36" fill="#375D81"></path>
                    <path d="M79.5322,17.3477 C79.5322,17.3477 81.5212,2.5007 94.8582,6.5857 C100.5562,8.3307 103.7192,12.6617 103.7192,12.6617 C103.7192,12.6617 101.0592,23.9687 95.7542,22.6957 C86.4902,20.4737 79.5322,17.3477 79.5322,17.3477" id="Fill-38" fill="#FFFFFF"></path>
                    <path d="M80.6602,16.7441 C82.6572,17.5811 88.6142,19.9551 95.9872,21.7231 C96.6722,21.8881 97.3182,21.7701 97.9702,21.3691 C100.3512,19.9021 102.0322,15.1351 102.6282,12.9001 C101.7592,11.8751 98.9342,8.8801 94.5652,7.5421 C91.0902,6.4761 88.1482,6.6931 85.8232,8.1831 C82.3252,10.4261 81.0412,14.9661 80.6602,16.7441 M96.5862,23.7971 C96.2342,23.7971 95.8792,23.7541 95.5202,23.6681 C86.2722,21.4501 79.1922,18.2911 79.1222,18.2601 L78.4422,17.9541 L78.5412,17.2151 C78.5812,16.9141 79.5882,9.8061 84.7432,6.5001 C87.5852,4.6791 91.0852,4.3851 95.1512,5.6301 C101.0992,7.4511 104.3892,11.8851 104.5262,12.0721 L104.7982,12.4431 L104.6922,12.8901 C104.6172,13.2101 102.8092,20.7371 99.0182,23.0721 C98.2362,23.5551 97.4212,23.7971 96.5862,23.7971" id="Fill-40" fill="#375D81"></path>
                    <path d="M31.1357,20.1006 C31.1357,20.1006 31.4967,14.8966 36.6047,12.7036 C38.1627,12.0336 42.4087,11.7556 42.4087,11.7556 C42.4087,11.7556 43.7417,17.2256 40.3017,18.9526 C35.3487,21.4366 31.1357,20.1006 31.1357,20.1006" id="Fill-42" fill="#E1F2FF"></path>
                    <path d="M56.7695,14.5869 C56.7695,14.5869 56.7385,7.1839 65.0355,5.8959 C66.5825,5.6549 68.5805,5.7589 68.5805,5.7589 C68.5805,5.7589 72.7025,13.4339 68.3315,14.2969 C62.9585,15.3579 56.7695,14.5869 56.7695,14.5869" id="Fill-44" fill="#E1F2FF"></path>
                    <path d="M84.7705,16.2109 C84.7705,16.2109 85.8585,8.0879 93.1555,10.3229 C96.2735,11.2779 98.0025,13.6479 98.0025,13.6479 C98.0025,13.6479 96.5475,19.8329 93.6455,19.1369 C88.5775,17.9209 84.7705,16.2109 84.7705,16.2109" id="Fill-46" fill="#E1F2FF"></path>
                    <path d="M120.3311,97.8174 C120.3311,97.8174 95.2571,102.4054 71.1701,97.0884 C69.1651,110.2544 67.9161,120.1874 67.9161,120.1874 C67.9161,120.1874 84.8071,131.1304 115.3151,123.7704 C118.5111,106.8454 120.3311,97.8174 120.3311,97.8174" id="Fill-48" fill="#FFFFFF"></path>
                    <path d="M68.9922,119.6572 C72.0452,121.3452 88.0822,129.1262 114.4532,122.9472 C116.8372,110.3322 118.4492,102.1472 119.0682,99.0342 C113.4582,99.8862 92.4002,102.5472 71.9992,98.2892 C70.3942,108.8982 69.2942,117.3092 68.9922,119.6572 M94.7942,127.3392 C77.3812,127.3392 67.8962,121.3662 67.3722,121.0262 L66.8462,120.6852 L66.9242,120.0622 C66.9362,119.9632 68.1972,109.9662 70.1812,96.9372 L70.3422,95.8812 L71.3862,96.1112 C94.9862,101.3222 119.9022,96.8792 120.1512,96.8342 L121.6022,96.5682 L121.3112,98.0142 C121.2932,98.1052 119.4552,107.2322 116.2982,123.9562 L116.1782,124.5912 L115.5502,124.7422 C107.7212,126.6312 100.7872,127.3392 94.7942,127.3392" id="Fill-50" fill="#375D81"></path>
                    <path d="M77.7432,73.3994 L48.9482,74.1234 C48.5842,59.6194 60.0462,47.5674 74.5492,47.2024 L77.0832,47.1384 C84.3342,46.9574 90.3602,52.6874 90.5432,59.9394 C90.7242,67.1904 84.9942,73.2164 77.7432,73.3994" id="Fill-52" fill="#E1F2FF"></path>
                    <path d="M75.1836,72.9697 L49.4316,73.6167 C49.1456,62.2227 58.1496,52.7537 69.5436,52.4677 L74.9086,52.3327 C80.5376,52.1917 85.2166,56.6407 85.3586,62.2707 C85.5026,68.0347 80.9486,72.8247 75.1836,72.9697" id="Fill-54" fill="#FFFFFF"></path>
                    <path d="M75.168,53.3301 C75.09,53.3301 75.012,53.3311 74.934,53.3331 L69.569,53.4681 C59.08,53.7301 50.693,62.2161 50.432,72.5921 L75.158,71.9701 C77.68,71.9071 80.024,70.8661 81.763,69.0381 C83.5,67.2111 84.422,64.8161 84.358,62.2961 C84.233,57.3051 80.133,53.3301 75.168,53.3301 L75.168,53.3301 Z M48.457,74.6421 L48.432,73.6421 C48.287,67.8641 50.4,62.3761 54.383,58.1871 C58.365,54.0001 63.741,51.6131 69.519,51.4681 L74.883,51.3331 C81.068,51.2131 86.202,56.0741 86.358,62.2451 C86.435,65.3011 85.317,68.2021 83.212,70.4171 C81.105,72.6311 78.264,73.8921 75.209,73.9701 L48.457,74.6421 Z" id="Fill-56" fill="#375D81"></path>
                    <path d="M55.8018,61.5742 C55.8818,64.7562 58.5268,67.2702 61.7088,67.1912 C64.8908,67.1112 67.4058,64.4672 67.3258,61.2842 C67.2458,58.1022 64.6018,55.5872 61.4188,55.6672 C58.2378,55.7472 55.7218,58.3912 55.8018,61.5742" id="Fill-58" fill="#375D81"></path>
                    <path d="M14.4082,80.9854 L14.4082,80.9854 C16.0372,80.5934 17.4792,79.6474 18.4882,78.3104 L20.3582,75.8344 L16.0812,76.8634 L13.5612,77.4704 C12.5912,77.7044 11.9942,78.6804 12.2272,79.6514 C12.4612,80.6224 13.4372,81.2194 14.4082,80.9854" id="Fill-60" fill="#375D81"></path>
                    <path d="M80.2119,101.6914 C80.2119,101.6914 99.3829,106.6244 116.0939,102.8434 C113.2349,115.4254 111.6539,119.3874 111.6539,119.3874 C111.6539,119.3874 86.3769,116.6614 80.2119,101.6914" id="Fill-62" fill="#E1F2FF"></path>
                    <path d="M98.1396,109.7949 C86.2916,109.7949 78.4306,107.9319 78.3216,107.9049 C77.7856,107.7749 77.4556,107.2339 77.5856,106.6979 C77.7166,106.1599 78.2576,105.8309 78.7926,105.9619 C78.9426,105.9969 93.9716,109.5499 113.8006,106.6769 C114.3466,106.5899 114.8546,106.9759 114.9336,107.5229 C115.0126,108.0689 114.6336,108.5759 114.0876,108.6549 C108.2916,109.4949 102.8946,109.7949 98.1396,109.7949" id="Fill-64" fill="#9ACDED"></path>
                    <path d="M103.8057,84.1582 C101.2807,84.1582 99.1947,82.1372 99.1297,79.5982 C99.1227,79.3222 99.3407,79.0932 99.6177,79.0862 C99.9427,79.0862 100.1227,79.2982 100.1297,79.5732 C100.1817,81.6002 101.9097,83.2232 103.8987,83.1572 C105.9247,83.1052 107.5327,81.4152 107.4817,79.3882 C107.4747,79.1122 107.6937,78.8832 107.9687,78.8762 L107.9817,78.8762 C108.2517,78.8762 108.4747,79.0922 108.4817,79.3632 C108.5457,81.9412 106.5007,84.0922 103.9237,84.1572 C103.8847,84.1582 103.8447,84.1582 103.8057,84.1582" id="Fill-66" fill="#E1F2FF"></path>
                    <path d="M108.085,88.2285 C105.56,88.2295 103.475,86.2075 103.411,83.6695 C103.404,83.3935 103.623,83.1645 103.898,83.1575 L103.911,83.1575 C104.182,83.1575 104.404,83.3735 104.411,83.6445 C104.461,85.6395 106.101,87.2285 108.086,87.2285 C108.117,87.2285 108.147,87.2285 108.179,87.2275 C109.16,87.2035 110.073,86.7975 110.75,86.0855 C111.427,85.3745 111.786,84.4415 111.762,83.4595 C111.755,83.1835 111.974,82.9545 112.249,82.9475 L112.262,82.9475 C112.532,82.9475 112.755,83.1635 112.762,83.4345 C112.826,86.0125 110.781,88.1635 108.204,88.2275 C108.164,88.2285 108.125,88.2285 108.085,88.2285" id="Fill-68" fill="#E1F2FF"></path>
                    <path d="M97.9561,144.0049 C96.9241,144.0049 95.9481,143.6149 95.1971,142.9019 C94.4221,142.1649 93.9801,141.1699 93.9531,140.0999 C93.9461,139.8229 94.1641,139.5939 94.4401,139.5869 C94.7281,139.5949 94.9461,139.7989 94.9531,140.0739 C94.9941,141.7059 96.3351,143.0049 97.9571,143.0049 C97.9831,143.0049 98.0091,143.0049 98.0341,143.0039 C98.8371,142.9839 99.5831,142.6519 100.1371,142.0709 C100.6891,141.4889 100.9831,140.7269 100.9631,139.9239 C100.9561,139.6479 101.1741,139.4179 101.4501,139.4109 L101.4631,139.4109 C101.7331,139.4109 101.9561,139.6269 101.9631,139.8989 C101.9891,140.9679 101.5991,141.9839 100.8611,142.7599 C100.1241,143.5349 99.1291,143.9779 98.0601,144.0039 C98.0241,144.0049 97.9901,144.0049 97.9561,144.0049" id="Fill-70" fill="#E1F2FF"></path>
                    <path d="M13.3936,65.584 C12.5876,65.584 11.8266,65.28 11.2406,64.723 C10.6346,64.147 10.2896,63.369 10.2686,62.533 C10.2616,62.257 10.4806,62.027 10.7556,62.021 L10.7686,62.021 C11.0396,62.021 11.2616,62.236 11.2686,62.508 C11.2826,63.077 11.5176,63.605 11.9296,63.998 C12.3426,64.39 12.9006,64.627 13.4506,64.583 C14.0196,64.569 14.5476,64.334 14.9406,63.922 C15.3316,63.51 15.5396,62.97 15.5256,62.401 C15.5186,62.125 15.7366,61.896 16.0126,61.889 L16.0256,61.889 C16.2956,61.889 16.5186,62.105 16.5256,62.376 C16.5466,63.211 16.2416,64.005 15.6646,64.611 C15.0886,65.217 14.3116,65.563 13.4756,65.583 C13.4486,65.584 13.4206,65.584 13.3936,65.584" id="Fill-72" fill="#E1F2FF"></path>
                </g>
                <g id="Group-93" transform="translate(154.000000, 50.944000)">
                    <path d="M25.2187,4.7969 C24.9427,4.7969 24.7187,4.5729 24.7187,4.2969 L24.7187,0.8159 C24.7187,0.5389 24.9427,0.3159 25.2187,0.3159 C25.4947,0.3159 25.7187,0.5389 25.7187,0.8159 L25.7187,4.2969 C25.7187,4.5729 25.4947,4.7969 25.2187,4.7969" id="Fill-75" fill="#375D81"></path>
                    <path d="M26.96,3.0557 L23.479,3.0557 C23.202,3.0557 22.979,2.8317 22.979,2.5557 C22.979,2.2797 23.202,2.0557 23.479,2.0557 L26.96,2.0557 C27.236,2.0557 27.46,2.2797 27.46,2.5557 C27.46,2.8317 27.236,3.0557 26.96,3.0557" id="Fill-77" fill="#375D81"></path>
                    <path d="M59.918,139.0039 C59.918,155.2149 46.777,168.3559 30.566,168.3559 C14.356,168.3559 1.215,155.2149 1.215,139.0039 C1.215,122.7939 14.356,109.6519 30.566,109.6519 C46.777,109.6519 59.918,122.7939 59.918,139.0039" id="Fill-79" fill="#FFFFFF"></path>
                    <path d="M30.5664,110.6523 C14.9334,110.6523 2.2144,123.3713 2.2144,139.0043 C2.2144,154.6363 14.9334,167.3553 30.5664,167.3553 C46.1994,167.3553 58.9184,154.6363 58.9184,139.0043 C58.9184,123.3713 46.1994,110.6523 30.5664,110.6523 M30.5664,169.3553 C13.8304,169.3553 0.2144,155.7403 0.2144,139.0043 C0.2144,122.2673 13.8304,108.6523 30.5664,108.6523 C47.3024,108.6523 60.9184,122.2673 60.9184,139.0043 C60.9184,155.7403 47.3024,169.3553 30.5664,169.3553" id="Fill-81" fill="#375D81"></path>
                    <path d="M43.5557,144.458 L43.5557,139.458 L39.6157,138.67 C39.3347,137.642 38.9307,136.666 38.4127,135.762 L40.6407,132.42 L37.1057,128.885 L33.7637,131.112 C32.8587,130.594 31.8827,130.19 30.8547,129.91 L30.0667,125.969 L25.0667,125.969 L24.2787,129.91 C23.2497,130.19 22.2747,130.594 21.3687,131.112 L18.0287,128.885 L14.4927,132.42 L16.7197,135.762 C16.2017,136.666 15.7987,137.642 15.5187,138.67 L11.5767,139.458 L11.5767,144.458 L15.5187,145.247 C15.7987,146.275 16.2017,147.251 16.7197,148.155 L14.4927,151.497 L18.0287,155.032 L21.3687,152.805 C22.2747,153.323 23.2497,153.727 24.2787,154.007 L25.0667,157.948 L30.0667,157.948 L30.8547,154.007 C31.8827,153.727 32.8587,153.323 33.7637,152.805 L37.1057,155.032 L40.6407,151.497 L38.4127,148.155 C38.9307,147.251 39.3347,146.275 39.6157,145.247 L43.5557,144.458 Z" id="Fill-83" fill="#EFEFF6"></path>
                    <path d="M30.5664,143.125 C28.2654,143.125 26.3994,141.26 26.3994,138.958 C26.3994,136.657 28.2654,134.792 30.5664,134.792 C32.8674,134.792 34.7334,136.657 34.7334,138.958 C34.7334,141.26 32.8674,143.125 30.5664,143.125 L30.5664,143.125 Z M46.5554,141.458 L46.5554,136.458 L42.6154,135.67 C42.3354,134.642 41.9304,133.666 41.4134,132.762 L43.6404,129.42 L40.1054,125.885 L36.7634,128.112 C35.8584,127.594 34.8824,127.19 33.8544,126.91 L33.0664,122.969 L28.0664,122.969 L27.2784,126.91 C26.2504,127.19 25.2744,127.594 24.3694,128.112 L21.0284,125.885 L17.4924,129.42 L19.7194,132.762 C19.2024,133.666 18.7984,134.642 18.5184,135.67 L14.5774,136.458 L14.5774,141.458 L18.5184,142.247 C18.7984,143.275 19.2024,144.251 19.7194,145.155 L17.4924,148.497 L21.0284,152.032 L24.3694,149.805 C25.2744,150.323 26.2504,150.727 27.2784,151.007 L28.0664,154.948 L33.0664,154.948 L33.8544,151.007 C34.8824,150.727 35.8584,150.323 36.7634,149.805 L40.1054,152.032 L43.6404,148.497 L41.4134,145.155 C41.9304,144.251 42.3354,143.275 42.6154,142.247 L46.5554,141.458 Z" id="Fill-85" fill="#FFFFFF"></path>
                    <path d="M30.5664,135.792 C28.8204,135.792 27.3994,137.212 27.3994,138.958 C27.3994,140.704 28.8204,142.125 30.5664,142.125 C32.3124,142.125 33.7334,140.704 33.7334,138.958 C33.7334,137.212 32.3124,135.792 30.5664,135.792 L30.5664,135.792 Z M30.5664,144.125 C27.7174,144.125 25.3994,141.807 25.3994,138.958 C25.3994,136.109 27.7174,133.792 30.5664,133.792 C33.4154,133.792 35.7334,136.109 35.7334,138.958 C35.7334,141.807 33.4154,144.125 30.5664,144.125 L30.5664,144.125 Z M46.5554,141.458 L46.5654,141.458 L46.5554,141.458 Z M28.8864,153.948 L32.2464,153.948 L32.8744,150.811 C32.9484,150.439 33.2254,150.142 33.5914,150.042 C34.5364,149.785 35.4354,149.413 36.2664,148.937 C36.5944,148.749 37.0024,148.763 37.3184,148.973 L39.9774,150.745 L42.3534,148.369 L40.5814,145.71 C40.3714,145.395 40.3564,144.987 40.5454,144.658 C41.0214,143.825 41.3934,142.926 41.6504,141.984 C41.7504,141.619 42.0474,141.341 42.4194,141.267 L45.5554,140.639 L45.5554,137.277 L42.4194,136.65 C42.0474,136.576 41.7504,136.299 41.6504,135.933 C41.3934,134.991 41.0214,134.092 40.5454,133.259 C40.3564,132.93 40.3714,132.522 40.5814,132.207 L42.3534,129.548 L39.9774,127.172 L37.3184,128.944 C37.0024,129.153 36.5944,129.167 36.2664,128.98 C35.4354,128.504 34.5364,128.132 33.5914,127.875 C33.2254,127.775 32.9484,127.478 32.8744,127.106 L32.2464,123.969 L28.8864,123.969 L28.2584,127.106 C28.1844,127.478 27.9074,127.775 27.5414,127.875 C26.5964,128.132 25.6974,128.504 24.8664,128.98 C24.5374,129.167 24.1294,129.153 23.8144,128.944 L21.1554,127.172 L18.7794,129.548 L20.5514,132.207 C20.7614,132.522 20.7764,132.93 20.5874,133.259 C20.1124,134.089 19.7404,134.989 19.4834,135.933 C19.3834,136.299 19.0864,136.576 18.7144,136.65 L15.5774,137.278 L15.5774,140.639 L18.7144,141.267 C19.0864,141.341 19.3834,141.619 19.4834,141.984 C19.7404,142.928 20.1124,143.828 20.5874,144.658 C20.7764,144.987 20.7614,145.395 20.5514,145.71 L18.7794,148.369 L21.1554,150.745 L23.8144,148.973 C24.1294,148.763 24.5374,148.749 24.8664,148.937 C25.6974,149.413 26.5964,149.785 27.5414,150.042 C27.9074,150.142 28.1844,150.439 28.2584,150.811 L28.8864,153.948 Z M33.0664,155.948 L28.0664,155.948 C27.5894,155.948 27.1794,155.611 27.0864,155.145 L26.4164,151.794 C25.7264,151.571 25.0594,151.296 24.4224,150.971 L21.5834,152.864 C21.1864,153.128 20.6594,153.076 20.3214,152.739 L16.7854,149.204 C16.4484,148.867 16.3954,148.339 16.6604,147.942 L18.5534,145.102 C18.2284,144.465 17.9544,143.798 17.7314,143.109 L14.3804,142.438 C13.9134,142.345 13.5774,141.935 13.5774,141.458 L13.5774,136.458 C13.5774,135.981 13.9144,135.571 14.3804,135.478 L17.7314,134.808 C17.9544,134.119 18.2284,133.452 18.5534,132.815 L16.6604,129.975 C16.3954,129.578 16.4484,129.05 16.7854,128.713 L20.3214,125.178 C20.6594,124.84 21.1874,124.788 21.5834,125.053 L24.4224,126.946 C25.0594,126.621 25.7264,126.346 26.4164,126.123 L27.0864,122.772 C27.1794,122.306 27.5894,121.969 28.0664,121.969 L33.0664,121.969 C33.5434,121.969 33.9534,122.306 34.0464,122.772 L34.7164,126.123 C35.4064,126.346 36.0734,126.621 36.7104,126.946 L39.5504,125.053 C39.9454,124.787 40.4744,124.84 40.8124,125.178 L44.3474,128.713 C44.6844,129.05 44.7374,129.578 44.4724,129.975 L42.5794,132.815 C42.9044,133.453 43.1794,134.119 43.4014,134.808 L46.7524,135.478 C47.2184,135.571 47.5554,135.981 47.5554,136.458 L47.5554,141.458 C47.5554,141.935 47.2194,142.345 46.7524,142.438 L43.4014,143.109 C43.1794,143.797 42.9044,144.464 42.5794,145.102 L44.4724,147.942 C44.7374,148.339 44.6844,148.867 44.3474,149.204 L40.8124,152.739 C40.4744,153.077 39.9464,153.129 39.5504,152.864 L36.7104,150.971 C36.0734,151.296 35.4064,151.571 34.7164,151.794 L34.0464,155.145 C33.9534,155.611 33.5434,155.948 33.0664,155.948 L33.0664,155.948 Z" id="Fill-87" fill="#9ACDED"></path>
                    <path d="M22.5166,136.8555 C22.3966,136.8555 22.2756,136.8345 22.1566,136.7885 C21.6416,136.5895 21.3846,136.0105 21.5836,135.4955 C22.6226,132.8015 24.8836,130.6685 27.6306,129.7905 C28.1596,129.6205 28.7196,129.9125 28.8876,130.4375 C29.0566,130.9635 28.7666,131.5265 28.2406,131.6945 C26.0636,132.3905 24.2736,134.0815 23.4496,136.2155 C23.2966,136.6125 22.9176,136.8555 22.5166,136.8555" id="Fill-89" fill="#E1F2FF"></path>
                    <path d="M34.0244,147.8633 C33.6384,147.8633 33.2714,147.6393 33.1074,147.2643 C32.8854,146.7593 33.1164,146.1693 33.6224,145.9473 C36.3974,144.7313 38.1914,141.9873 38.1914,138.9583 C38.1914,137.7223 37.9064,136.5453 37.3424,135.4573 C37.0884,134.9673 37.2804,134.3633 37.7704,134.1093 C38.2634,133.8523 38.8644,134.0473 39.1184,134.5373 C39.8204,135.8933 40.1914,137.4223 40.1914,138.9583 C40.1914,142.7813 37.9274,146.2443 34.4244,147.7793 C34.2944,147.8373 34.1584,147.8633 34.0244,147.8633" id="Fill-91" fill="#E1F2FF"></path>
                </g>
            </g>
        </g>
    </g>
</svg>