<svg xmlns="http://www.w3.org/2000/svg" xmlns:xlink="http://www.w3.org/1999/xlink" width="256" height="256" viewBox="0 0 256 256">
  <defs>
    <path id="userrole-a" d="M0.322119821,90.4714721 C0.322119821,140.044472 40.5081198,180.230472 90.0801198,180.230472 L90.0801198,180.230472 C139.65212,180.230472 179.83912,140.044472 179.83912,90.4714721 L179.83912,90.4714721 C179.83912,40.8994721 139.65212,0.712472086 90.0801198,0.712472086 L90.0801198,0.712472086 C40.5081198,0.712472086 0.322119821,40.8994721 0.322119821,90.4714721"/>
  </defs>
  <g fill="none" fill-rule="evenodd">
    <g transform="translate(12 19)">
      <path fill="#E1F2FF" d="M208.7299,104.4997 C208.7299,154.4817 168.2109,194.9997 118.2299,194.9997 C68.2489,194.9997 27.7299,154.4817 27.7299,104.4997 C27.7299,54.5187 68.2489,13.9997 118.2299,13.9997 C168.2109,13.9997 208.7299,54.5187 208.7299,104.4997"/>
      <path fill="#5E63B6" fill-rule="nonzero" d="M227.9799,42.4977 C227.9799,41.9454153 228.427615,41.4977 228.9799,41.4977 C229.532185,41.4977 229.9799,41.9454153 229.9799,42.4977 L229.9799,49.4977 C229.9799,50.0499847 229.532185,50.4977 228.9799,50.4977 C228.427615,50.4977 227.9799,50.0499847 227.9799,49.4977 L227.9799,42.4977 Z"/>
      <path fill="#5E63B6" fill-rule="nonzero" d="M232.4799 44.9977C233.032185 44.9977 233.4799 45.4454153 233.4799 45.9977 233.4799 46.5499847 233.032185 46.9977 232.4799 46.9977L225.4799 46.9977C224.927615 46.9977 224.4799 46.5499847 224.4799 45.9977 224.4799 45.4454153 224.927615 44.9977 225.4799 44.9977L232.4799 44.9977zM56.6772.9997C56.6772.44741525 57.1249153-.0003 57.6772-.0003 58.2294847-.0003 58.6772.44741525 58.6772.9997L58.6772 7.9997C58.6772 8.55198475 58.2294847 8.9997 57.6772 8.9997 57.1249153 8.9997 56.6772 8.55198475 56.6772 7.9997L56.6772.9997z"/>
      <path fill="#5E63B6" fill-rule="nonzero" d="M61.1772 3.4997C61.7294847 3.4997 62.1772 3.94741525 62.1772 4.4997 62.1772 5.05198475 61.7294847 5.4997 61.1772 5.4997L54.1772 5.4997C53.6249153 5.4997 53.1772 5.05198475 53.1772 4.4997 53.1772 3.94741525 53.6249153 3.4997 54.1772 3.4997L61.1772 3.4997zM1.9692 96.6901C1.9692 96.4139576 2.19305763 96.1901 2.4692 96.1901 2.74534237 96.1901 2.9692 96.4139576 2.9692 96.6901L2.9692 100.6281C2.9692 100.904242 2.74534237 101.1281 2.4692 101.1281 2.19305763 101.1281 1.9692 100.904242 1.9692 100.6281L1.9692 96.6901z"/>
      <path fill="#5E63B6" fill-rule="nonzero" d="M4.438 98.1589C4.71414237 98.1589 4.938 98.3827576 4.938 98.6589 4.938 98.9350424 4.71414237 99.1589 4.438 99.1589L.5 99.1589C.223857625 99.1589 0 98.9350424 0 98.6589 0 98.3827576.223857625 98.1589.5 98.1589L4.438 98.1589zM24.2114 181.7458C24.2114 181.469658 24.4352576 181.2458 24.7114 181.2458 24.9875424 181.2458 25.2114 181.469658 25.2114 181.7458L25.2114 185.6838C25.2114 185.959942 24.9875424 186.1838 24.7114 186.1838 24.4352576 186.1838 24.2114 185.959942 24.2114 185.6838L24.2114 181.7458z"/>
      <path fill="#5E63B6" fill-rule="nonzero" d="M26.6801 183.2145C26.9562424 183.2145 27.1801 183.438358 27.1801 183.7145 27.1801 183.990642 26.9562424 184.2145 26.6801 184.2145L22.7421 184.2145C22.4659576 184.2145 22.2421 183.990642 22.2421 183.7145 22.2421 183.438358 22.4659576 183.2145 22.7421 183.2145L26.6801 183.2145zM178.7192 50.7595C178.7192 50.4833576 178.943058 50.2595 179.2192 50.2595 179.495342 50.2595 179.7192 50.4833576 179.7192 50.7595L179.7192 54.2405C179.7192 54.5166424 179.495342 54.7405 179.2192 54.7405 178.943058 54.7405 178.7192 54.5166424 178.7192 54.2405L178.7192 50.7595z"/>
      <path fill="#5E63B6" fill-rule="nonzero" d="M180.9604,51.9997 C181.236542,51.9997 181.4604,52.2235576 181.4604,52.4997 C181.4604,52.7758424 181.236542,52.9997 180.9604,52.9997 L177.4794,52.9997 C177.203258,52.9997 176.9794,52.7758424 176.9794,52.4997 C176.9794,52.2235576 177.203258,51.9997 177.4794,51.9997 L180.9604,51.9997 Z"/>
      <path fill="#FFF" d="M213.9184,188.9479 C213.9184,205.1589 200.7774,218.2999 184.5664,218.2999 C168.3564,218.2999 155.2154,205.1589 155.2154,188.9479 C155.2154,172.7379 168.3564,159.5959 184.5664,159.5959 C200.7774,159.5959 213.9184,172.7379 213.9184,188.9479"/>
      <path fill="#E1F2FF" d="M197.5561,194.402 L197.5561,189.402 L193.6161,188.614 C193.3351,187.586 192.9311,186.61 192.4131,185.706 L194.6411,182.364 L191.1061,178.829 L187.7641,181.056 C186.8591,180.538 185.8831,180.134 184.8551,179.854 L184.0671,175.913 L179.0671,175.913 L178.2791,179.854 C177.2501,180.134 176.2751,180.538 175.3691,181.056 L172.0291,178.829 L168.4931,182.364 L170.7201,185.706 C170.2021,186.61 169.7991,187.586 169.5191,188.614 L165.5771,189.402 L165.5771,194.402 L169.5191,195.191 C169.7991,196.219 170.2021,197.195 170.7201,198.099 L168.4931,201.441 L172.0291,204.976 L175.3691,202.749 C176.2751,203.267 177.2501,203.671 178.2791,203.951 L179.0671,207.892 L184.0671,207.892 L184.8551,203.951 C185.8831,203.671 186.8591,203.267 187.7641,202.749 L191.1061,204.976 L194.6411,201.441 L192.4131,198.099 C192.9311,197.195 193.3351,196.219 193.6161,195.191 L197.5561,194.402 Z"/>
      <path fill="#FFF" d="M184.5669,193.069 C182.2659,193.069 180.3999,191.204 180.3999,188.902 C180.3999,186.601 182.2659,184.736 184.5669,184.736 C186.8679,184.736 188.7339,186.601 188.7339,188.902 C188.7339,191.204 186.8679,193.069 184.5669,193.069 L184.5669,193.069 Z M200.5559,191.402 L200.5559,186.402 L196.6159,185.614 C196.3359,184.586 195.9309,183.61 195.4139,182.706 L197.6409,179.364 L194.1059,175.829 L190.7639,178.056 C189.8589,177.538 188.8829,177.134 187.8549,176.854 L187.0669,172.913 L182.0669,172.913 L181.2789,176.854 C180.2509,177.134 179.2749,177.538 178.3699,178.056 L175.0289,175.829 L171.4929,179.364 L173.7199,182.706 C173.2029,183.61 172.7989,184.586 172.5189,185.614 L168.5779,186.402 L168.5779,191.402 L172.5189,192.191 C172.7989,193.219 173.2029,194.195 173.7199,195.099 L171.4929,198.441 L175.0289,201.976 L178.3699,199.749 C179.2749,200.267 180.2509,200.671 181.2789,200.951 L182.0669,204.892 L187.0669,204.892 L187.8549,200.951 C188.8829,200.671 189.8589,200.267 190.7639,199.749 L194.1059,201.976 L197.6409,198.441 L195.4139,195.099 C195.9309,194.195 196.3359,193.219 196.6159,192.191 L200.5559,191.402 Z"/>
      <path fill="#ACD3EF" fill-rule="nonzero" d="M184.5669,192.069 C186.315998,192.069 187.7339,190.651333 187.7339,188.902 C187.7339,187.15355 186.31588,185.736 184.5669,185.736 C182.81792,185.736 181.3999,187.15355 181.3999,188.902 C181.3999,190.651333 182.817802,192.069 184.5669,192.069 Z M184.5669,194.069 C181.713307,194.069 179.3999,191.755977 179.3999,188.902 C179.3999,186.048832 181.713499,183.736 184.5669,183.736 C187.420301,183.736 189.7339,186.048832 189.7339,188.902 C189.7339,191.755977 187.420493,194.069 184.5669,194.069 Z M200.752016,185.421419 C201.21944,185.514904 201.5559,185.925319 201.5559,186.402 L201.5559,191.402 C201.5559,191.878589 201.219567,192.288952 200.752255,192.382533 L197.402608,193.053313 C197.180915,193.741123 196.905703,194.40703 196.579687,195.045129 L198.473065,197.886472 C198.737355,198.283085 198.685016,198.811097 198.348007,199.148107 L194.813007,202.683107 C194.475997,203.020116 193.947985,203.072455 193.551372,202.808165 L190.710143,200.914862 C190.072277,201.240813 189.406195,201.515885 188.717387,201.737735 L188.04749,205.088068 C187.954025,205.555515 187.543599,205.892 187.0669,205.892 L182.0669,205.892 C181.590201,205.892 181.179775,205.555515 181.08631,205.088068 L180.416413,201.737735 C179.727635,201.515895 179.061582,201.240837 178.423742,200.914906 L175.583543,202.808089 C175.186968,203.072432 174.658949,203.020168 174.321893,202.683207 L170.785893,199.148207 C170.448799,198.811208 170.396416,198.283129 170.660735,197.886472 L172.554165,195.045052 C172.228661,194.407572 171.953808,193.741736 171.732109,193.053326 L168.381592,192.382542 C167.914258,192.288981 167.5779,191.878608 167.5779,191.402 L167.5779,186.402 C167.5779,185.925301 167.914385,185.514875 168.381832,185.42141 L171.732161,184.751514 C171.95385,184.063161 172.228686,183.397379 172.554165,182.759948 L170.660735,179.918528 C170.396416,179.521871 170.448799,178.993792 170.785893,178.656793 L174.321893,175.121793 C174.658949,174.784832 175.186968,174.732568 175.583543,174.996911 L178.423742,176.890094 C179.061582,176.564163 179.727635,176.289105 180.416413,176.067265 L181.08631,172.716932 C181.179775,172.249485 181.590201,171.913 182.0669,171.913 L187.0669,171.913 C187.543599,171.913 187.954025,172.249485 188.04749,172.716932 L188.717387,176.067265 C189.406195,176.289115 190.072277,176.564187 190.710143,176.890138 L193.551372,174.996835 C193.947985,174.732545 194.475997,174.784884 194.813007,175.121893 L198.348007,178.656893 C198.685016,178.993903 198.737355,179.521915 198.473065,179.918528 L196.579687,182.759871 C196.905678,183.39792 197.180872,184.063773 197.402556,184.751527 L200.752016,185.421419 Z M199.5559,187.221804 L196.419784,186.594581 C196.048251,186.520274 195.750622,186.242373 195.65105,185.8768 C195.394395,184.93451 195.022882,184.03659 194.545834,183.202449 C194.357766,182.873603 194.371665,182.466718 194.581735,182.151472 L196.354227,179.49154 L193.97836,177.115673 L191.318428,178.888165 C191.003075,179.098306 190.596032,179.112138 190.267142,178.923889 C189.434281,178.44718 188.536708,178.076136 187.5921,177.81885 C187.22651,177.719273 186.948602,177.421622 186.87431,177.050068 L186.247055,173.913 L182.886745,173.913 L182.25949,177.050068 C182.185198,177.421622 181.90729,177.719273 181.5417,177.81885 C180.597092,178.076136 179.699519,178.44718 178.866658,178.923889 C178.537725,179.112162 178.130622,179.098301 177.815257,178.888089 L175.15626,177.115689 L172.779639,179.491639 L174.552065,182.151472 C174.762135,182.466718 174.776034,182.873603 174.587966,183.202449 C174.111896,184.034881 173.74092,184.932618 173.48375,185.8768 C173.384173,186.24239 173.086522,186.520298 172.714968,186.59459 L169.5779,187.221845 L169.5779,190.582359 L172.715208,191.210458 C173.086657,191.284823 173.384197,191.562695 173.48375,191.9282 C173.74092,192.872382 174.111896,193.770119 174.587966,194.602551 C174.776034,194.931397 174.762135,195.338282 174.552065,195.653528 L172.779639,198.313361 L175.15626,200.689311 L177.815257,198.916911 C178.130622,198.706699 178.537725,198.692838 178.866658,198.881111 C179.699519,199.35782 180.597092,199.728864 181.5417,199.98615 C181.90729,200.085727 182.185198,200.383378 182.25949,200.754932 L182.886745,203.892 L186.247055,203.892 L186.87431,200.754932 C186.948602,200.383378 187.22651,200.085727 187.5921,199.98615 C188.536708,199.728864 189.434281,199.35782 190.267142,198.881111 C190.596032,198.692862 191.003075,198.706694 191.318428,198.916835 L193.97836,200.689327 L196.354227,198.31346 L194.581735,195.653528 C194.371665,195.338282 194.357766,194.931397 194.545834,194.602551 C195.022882,193.76841 195.394395,192.87049 195.65105,191.9282 C195.750599,191.562712 196.048116,191.284847 196.419545,191.210467 L199.5559,190.5824 L199.5559,187.221804 Z"/>
      <path fill="#E1F2FF" fill-rule="nonzero" d="M177.450048 186.159511C177.25122 186.674764 176.672342 186.931277 176.157089 186.732448 175.641836 186.53362 175.385323 185.954742 175.584152 185.439489 176.630356 182.72831 178.861004 180.6204 181.63138 179.734058 182.157399 179.565766 182.72025 179.855761 182.888542 180.38178 183.056834 180.907799 182.766839 181.47065 182.24082 181.638942 180.047718 182.340594 178.278598 184.01237 177.450048 186.159511zM191.342693 185.400543C191.088949 184.91 191.280913 184.306636 191.771457 184.052893 192.262 183.799149 192.865364 183.991113 193.119107 184.481657 193.820672 185.83794 194.1919 187.344136 194.1919 188.9021 194.1919 192.760983 191.899121 196.200779 188.425256 197.723022 187.919406 197.944685 187.32964 197.714306 187.107978 197.208456 186.886315 196.702606 187.116694 196.11284 187.622544 195.891178 190.375402 194.684879 192.1919 191.959634 192.1919 188.9021 192.1919 187.66596 191.898268 186.474594 191.342693 185.400543z"/>
    </g>
    <path fill="#E1F2FF" d="M219.7295,123.4997 C219.7295,173.4817 179.2105,213.9997 129.2295,213.9997 C79.2485,213.9997 38.7295,173.4817 38.7295,123.4997 C38.7295,73.5187 79.2485,32.9997 129.2295,32.9997 C179.2105,32.9997 219.7295,73.5187 219.7295,123.4997"/>
    <path fill="#5E63B6" d="M206.2119,172.1042 C206.0319,172.1042 205.8509,172.0562 205.6869,171.9542 C205.2169,171.6642 205.0719,171.0462 205.3629,170.5782 C214.1079,156.4652 218.7299,140.1862 218.7299,123.5002 C218.7299,120.2522 218.5539,116.9782 218.2059,113.7662 C218.1469,113.2172 218.5439,112.7242 219.0929,112.6652 C219.6289,112.6082 220.1339,113.0012 220.1939,113.5512 C220.5499,116.8342 220.7299,120.1812 220.7299,123.5002 C220.7299,140.5592 216.0039,157.2032 207.0629,171.6302 C206.8739,171.9362 206.5469,172.1042 206.2119,172.1042 L206.2119,172.1042 Z M101.7389,210.7492 C101.6389,210.7492 101.5369,210.7342 101.4359,210.7022 C82.1329,204.5552 65.1699,191.9192 53.6719,175.1242 C53.3599,174.6682 53.4769,174.0452 53.9329,173.7342 C54.3889,173.4232 55.0119,173.5402 55.3219,173.9952 C66.5689,190.4242 83.1619,202.7842 102.0429,208.7952 C102.5689,208.9632 102.8589,209.5262 102.6919,210.0522 C102.5569,210.4772 102.1629,210.7492 101.7389,210.7492 L101.7389,210.7492 Z M131.2989,214.9752 C130.7569,214.9752 130.3119,214.5422 130.2989,213.9982 C130.2869,213.4462 130.7249,212.9882 131.2759,212.9752 C151.4239,212.5242 170.3109,205.5412 185.8939,192.7802 C186.3219,192.4282 186.9519,192.4932 187.3009,192.9192 C187.6509,193.3472 187.5879,193.9772 187.1609,194.3272 C171.2289,207.3742 151.9199,214.5142 131.3209,214.9752 L131.2989,214.9752 Z"/>
    <g transform="translate(39.149 33.029)">
      <mask id="userrole-b" fill="#fff">
        <use xlink:href="#userrole-a"/>
      </mask>
      <path fill="#ACD3EF" d="M151.51712,259.120572 C142.50112,240.817572 129.09212,187.761572 135.96212,152.513572 L141.39912,124.621572 C143.18212,115.471572 143.96312,106.152572 143.72912,96.8335721 L143.72912,96.8325721 C143.63212,92.9495721 143.14312,89.1695721 142.30212,85.5265721 C142.09112,84.6155721 141.86012,83.7135721 141.60612,82.8205721 C140.84412,80.1425721 139.89012,77.5475721 138.75912,75.0515721 C138.38212,74.2195721 137.98612,73.3975721 137.57112,72.5875721 C136.74012,70.9685721 135.83212,69.3945721 134.85412,67.8725721 C133.87512,66.3495721 132.82612,64.8785721 131.71012,63.4615721 C128.36212,59.2115721 124.41612,55.4595721 120.00412,52.3295721 C118.53412,51.2865721 117.01112,50.3115721 115.44112,49.4115721 C106.80712,44.4575721 96.7491198,41.7325721 86.0721198,42.0015721 L76.8491198,42.2325721 C61.3181198,42.6235721 47.4141198,49.2715721 37.4921198,59.7065721 C36.2511198,61.0105721 35.0741198,62.3735721 33.9621198,63.7915721 C31.9431198,66.3685721 30.1571198,69.1325721 28.6051198,72.0385721 C28.0231198,73.1305721 27.4621198,74.2345721 26.9521198,75.3675721 C26.5771198,76.1965721 26.2221198,77.0375721 25.8881198,77.8875721 C24.8831198,80.4365721 24.0611198,83.0775721 23.4351198,85.7905721 C22.8091198,88.5035721 22.3801198,91.2895721 22.1631198,94.1335721 C22.0191198,96.0285721 21.9691198,97.9495721 22.0181198,99.8915721 C22.1151198,103.763572 23.7731198,107.228572 26.3731198,109.702572 C28.9751198,112.176572 32.5201198,113.657572 36.3921198,113.560572 L93.9761198,112.113572 L86.5161198,162.313572 C77.5781198,213.914572 81.5141198,248.174572 90.0131198,270.864572 C91.9081198,275.923572 152.63012,261.381572 151.51712,259.120572" mask="url(#userrole-b)"/>
      <path fill="#5E63B6" d="M95.1402198,111.084372 L87.5052198,162.461372 C79.7352198,207.322372 80.8942198,243.669372 90.9502198,270.514372 C91.7052198,271.264372 98.9932198,271.588372 120.88122,266.931372 C135.46022,263.829372 147.78922,260.332372 150.32322,258.949372 C141.19622,239.866372 128.13422,187.450372 134.98122,152.321372 L140.41722,124.430372 C142.18422,115.366372 142.96122,106.090372 142.72922,96.8583721 C142.63622,93.1133721 142.16422,89.3763721 141.32822,85.7513721 C141.11922,84.8473721 140.88822,83.9533721 140.64422,83.0943721 C139.90422,80.4913721 138.96322,77.9243721 137.84822,75.4643721 C137.47822,74.6463721 137.08822,73.8393721 136.68122,73.0433721 C135.87022,71.4653721 134.97322,69.9073721 134.01322,68.4133721 C133.06022,66.9313721 132.02122,65.4733721 130.92422,64.0793721 C127.63222,59.9003721 123.76322,56.2223721 119.42622,53.1453721 C117.97922,52.1193721 116.47122,51.1543721 114.94422,50.2783721 C106.20122,45.2643721 96.2292198,42.7473721 86.0972198,43.0013721 L76.8742198,43.2323721 C62.1182198,43.6043721 48.3882198,49.6983721 38.2162198,60.3963721 C37.0032198,61.6703721 35.8372198,63.0213721 34.7492198,64.4083721 C32.7982198,66.8973721 31.0282198,69.6233721 29.4872198,72.5093721 C28.8242198,73.7533721 28.3082198,74.7923721 27.8642198,75.7783721 C27.4992198,76.5833721 27.1482198,77.4153721 26.8192198,78.2533721 C25.8282198,80.7653721 25.0182198,83.3763721 24.4102198,86.0153721 C23.7902198,88.6953721 23.3702198,91.4523721 23.1612198,94.2093721 C23.0182198,96.0753721 22.9702198,97.9793721 23.0182198,99.8653721 C23.1052198,103.343372 24.5412198,106.579372 27.0632198,108.978372 C29.5852198,111.375372 32.9202198,112.646372 36.3672198,112.561372 L95.1402198,111.084372 Z M94.1072198,272.915372 C93.2672198,272.915372 92.5372198,272.877372 91.9342198,272.797372 C90.9112198,272.661372 89.5012198,272.349372 89.0772198,271.215372 C78.8952198,244.033372 77.7032198,207.336372 85.5312198,162.143372 L92.8122198,113.143372 L36.4172198,114.561372 C32.3802198,114.657372 28.5932198,113.193372 25.6842198,110.427372 C22.7762198,107.660372 21.1192198,103.927372 21.0182198,99.9163721 C20.9692198,97.9613721 21.0192198,95.9903721 21.1662198,94.0573721 C21.3842198,91.2003721 21.8202198,88.3433721 22.4602198,85.5653721 C23.0922198,82.8303721 23.9322198,80.1233721 24.9572198,77.5213721 C25.2992198,76.6523721 25.6632198,75.7893721 26.0402198,74.9553721 C26.5032198,73.9293721 27.0372198,72.8523721 27.7222198,71.5673721 C29.3192198,68.5793721 31.1532198,65.7553721 33.1752198,63.1743721 C34.3022198,61.7363721 35.5102198,60.3383721 36.7672198,59.0173721 C47.3072198,47.9343721 61.5332198,41.6173721 76.8242198,41.2323721 L86.0462198,41.0013721 C96.5632198,40.7483721 106.87922,43.3463721 115.93922,48.5443721 C117.52122,49.4513721 119.08422,50.4503721 120.58222,51.5143721 C125.07722,54.7013721 129.08422,58.5133721 132.49522,62.8423721 C133.63222,64.2853721 134.70822,65.7963721 135.69522,67.3313721 C136.69122,68.8803721 137.62022,70.4943721 138.46022,72.1303721 C138.88322,72.9563721 139.28622,73.7923721 139.67022,74.6383721 C140.82622,77.1883721 141.80022,79.8503721 142.56822,82.5473721 C142.82122,83.4383721 143.06022,84.3643721 143.27722,85.3013721 C144.14422,89.0583721 144.63222,92.9293721 144.72922,96.8083721 C144.96422,106.185372 144.17422,115.606372 142.38022,124.813372 L136.94422,152.704372 C130.10722,187.782372 143.38122,240.340372 152.41422,258.679372 C152.60822,259.071372 152.56122,259.530372 152.29022,259.908372 C150.11622,262.937372 107.70122,272.915372 94.1072198,272.915372 L94.1072198,272.915372 Z" mask="url(#userrole-b)"/>
      <path fill="#FFF" d="M47.2027198,50.6478721 C47.2027198,50.6478721 47.8867198,40.8018721 57.5477198,36.6538721 C60.4957198,35.3868721 68.5287198,34.8628721 68.5287198,34.8628721 C68.5287198,34.8628721 71.0507198,45.2098721 64.5407198,48.4748721 C55.1727198,53.1748721 47.2027198,50.6478721 47.2027198,50.6478721" mask="url(#userrole-b)"/>
      <path fill="#5E63B6" d="M48.3150198,49.8910721 C50.5140198,50.3520721 56.9060198,51.1870721 64.0920198,47.5810721 C68.8220198,45.2080721 68.1220198,38.3180721 67.7180198,35.9270721 C65.5870198,36.1020721 60.1460198,36.6250721 57.9420198,37.5730721 C50.5400198,40.7510721 48.7280198,47.5360721 48.3150198,49.8910721 M52.7140198,52.3370721 C49.2950198,52.3370721 47.0760198,51.6570721 46.9000198,51.6010721 L46.1510198,51.3640721 L46.2050198,50.5780721 C46.2350198,50.1520721 47.0470198,40.0750721 57.1530198,35.7350721 C60.2230198,34.4150721 68.1280198,33.8870721 68.4630198,33.8650721 L69.3010198,33.8100721 L69.5010198,34.6260721 C69.6110198,35.0800721 72.1280198,45.7870721 64.9890198,49.3690721 C60.2990198,51.7220721 55.9650198,52.3370721 52.7140198,52.3370721" mask="url(#userrole-b)"/>
      <path fill="#FFF" d="M71.8374198,45.0092721 C71.8374198,45.0092721 71.7794198,31.6182721 86.7874198,29.2882721 C89.5874198,28.8542721 93.2004198,29.0402721 93.2004198,29.0402721 C93.2004198,29.0402721 100.65442,42.9232721 92.7504198,44.4842721 C83.0324198,46.4032721 71.8374198,45.0092721 71.8374198,45.0092721" mask="url(#userrole-b)"/>
      <path fill="#5E63B6" d="M72.8863198,44.1146721 C75.7423198,44.3896721 84.7033198,45.0536721 92.5573198,43.5026721 C93.7383198,43.2696721 94.5233198,42.7106721 94.9563198,41.7936721 C96.3753198,38.7926721 93.9253198,32.6986721 92.5803198,30.0186721 C91.4753198,29.9836721 88.9623198,29.9626721 86.9413198,30.2766721 C74.9823198,32.1336721 73.1613198,41.1966721 72.8863198,44.1146721 M80.9683198,46.5046721 C75.8523198,46.5046721 71.9853198,46.0356721 71.7143198,46.0016721 L70.8413198,45.8926721 L70.8373198,45.0126721 C70.8363198,44.8706721 70.9573198,30.7336721 86.6343198,28.3006721 C89.5043198,27.8536721 93.1013198,28.0356721 93.2523198,28.0416721 L93.8153198,28.0706721 L94.0813198,28.5676721 C94.2843198,28.9446721 99.0223198,37.8716721 96.7653198,42.6466721 C96.0513198,44.1566721 94.7663198,45.1046721 92.9443198,45.4656721 C88.8843198,46.2666721 84.6103198,46.5046721 80.9683198,46.5046721" mask="url(#userrole-b)"/>
      <path fill="#FFF" d="M100.38332,45.2631721 C100.38332,45.2631721 102.37232,30.4161721 115.70932,34.5011721 C121.40732,36.2461721 124.57032,40.5771721 124.57032,40.5771721 C124.57032,40.5771721 121.91032,51.8841721 116.60532,50.6111721 C107.34132,48.3891721 100.38332,45.2631721 100.38332,45.2631721" mask="url(#userrole-b)"/>
      <path fill="#5E63B6" d="M101.51132,44.6595721 C103.50832,45.4965721 109.46532,47.8705721 116.83832,49.6385721 C117.52332,49.8035721 118.16932,49.6855721 118.82132,49.2845721 C121.20232,47.8175721 122.88332,43.0505721 123.47932,40.8155721 C122.61032,39.7905721 119.78532,36.7955721 115.41632,35.4575721 C111.94132,34.3915721 108.99932,34.6085721 106.67432,36.0985721 C103.17632,38.3415721 101.89232,42.8815721 101.51132,44.6595721 M117.43732,51.7125721 C117.08532,51.7125721 116.73032,51.6695721 116.37132,51.5835721 C107.12332,49.3655721 100.04332,46.2065721 99.9733198,46.1755721 L99.2933198,45.8695721 L99.3923198,45.1305721 C99.4323198,44.8295721 100.43932,37.7215721 105.59432,34.4155721 C108.43632,32.5945721 111.93632,32.3005721 116.00232,33.5455721 C121.95032,35.3665721 125.24032,39.8005721 125.37732,39.9875721 L125.64932,40.3585721 L125.54332,40.8055721 C125.46832,41.1255721 123.66032,48.6525721 119.86932,50.9875721 C119.08732,51.4705721 118.27232,51.7125721 117.43732,51.7125721" mask="url(#userrole-b)"/>
      <path fill="#E1F2FF" d="M51.9868198 48.0160721C51.9868198 48.0160721 52.3478198 42.8120721 57.4558198 40.6190721 59.0138198 39.9490721 63.2598198 39.6710721 63.2598198 39.6710721 63.2598198 39.6710721 64.5928198 45.1410721 61.1528198 46.8680721 56.1998198 49.3520721 51.9868198 48.0160721 51.9868198 48.0160721M77.6206198 42.5023721C77.6206198 42.5023721 77.5896198 35.0993721 85.8866198 33.8113721 87.4336198 33.5703721 89.4316198 33.6743721 89.4316198 33.6743721 89.4316198 33.6743721 93.5536198 41.3493721 89.1826198 42.2123721 83.8096198 43.2733721 77.6206198 42.5023721 77.6206198 42.5023721M105.62162 44.1263721C105.62162 44.1263721 106.70962 36.0033721 114.00662 38.2383721 117.12462 39.1933721 118.85362 41.5633721 118.85362 41.5633721 118.85362 41.5633721 117.39862 47.7483721 114.49662 47.0523721 109.42862 45.8363721 105.62162 44.1263721 105.62162 44.1263721" mask="url(#userrole-b)"/>
      <path fill="#FFF" d="M141.18222,125.732872 C141.18222,125.732872 116.10822,130.320872 92.0212198,125.003872 C90.0162198,138.169872 88.7672198,148.102872 88.7672198,148.102872 C88.7672198,148.102872 105.65822,159.045872 136.16622,151.685872 C139.36222,134.760872 141.18222,125.732872 141.18222,125.732872" mask="url(#userrole-b)"/>
      <path fill="#5E63B6" d="M89.8433198,147.572672 C92.8963198,149.260672 108.93332,157.041672 135.30432,150.862672 C137.68832,138.247672 139.30032,130.062672 139.91932,126.949672 C134.30932,127.801672 113.25132,130.462672 92.8503198,126.204672 C91.2453198,136.813672 90.1453198,145.224672 89.8433198,147.572672 M115.64532,155.254672 C98.2323198,155.254672 88.7473198,149.281672 88.2233198,148.941672 L87.6973198,148.600672 L87.7753198,147.977672 C87.7873198,147.878672 89.0483198,137.881672 91.0323198,124.852672 L91.1933198,123.796672 L92.2373198,124.026672 C115.83732,129.237672 140.75332,124.794672 141.00232,124.749672 L142.45332,124.483672 L142.16232,125.929672 C142.14432,126.020672 140.30632,135.147672 137.14932,151.871672 L137.02932,152.506672 L136.40132,152.657672 C128.57232,154.546672 121.63832,155.254672 115.64532,155.254672" mask="url(#userrole-b)"/>
      <path fill="#E1F2FF" d="M98.5943198,101.314872 L69.7993198,102.038872 C69.4353198,87.5348721 80.8973198,75.4828721 95.4003198,75.1178721 L97.9343198,75.0538721 C105.18532,74.8728721 111.21132,80.6028721 111.39432,87.8548721 C111.57532,95.1058721 105.84532,101.131872 98.5943198,101.314872" mask="url(#userrole-b)"/>
      <path fill="#FFF" d="M96.0347198,100.885172 L70.2827198,101.532172 C69.9967198,90.1381721 79.0007198,80.6691721 90.3947198,80.3831721 L95.7597198,80.2481721 C101.38872,80.1071721 106.06772,84.5561721 106.20972,90.1861721 C106.35372,95.9501721 101.79972,100.740172 96.0347198,100.885172" mask="url(#userrole-b)"/>
      <path fill="#5E63B6" d="M96.0191198,81.2455721 C95.9411198,81.2455721 95.8631198,81.2465721 95.7851198,81.2485721 L90.4201198,81.3835721 C79.9311198,81.6455721 71.5441198,90.1315721 71.2831198,100.507572 L96.0091198,99.8855721 C98.5311198,99.8225721 100.87512,98.7815721 102.61412,96.9535721 C104.35112,95.1265721 105.27312,92.7315721 105.20912,90.2115721 C105.08412,85.2205721 100.98412,81.2455721 96.0191198,81.2455721 L96.0191198,81.2455721 Z M69.3081198,102.557572 L69.2831198,101.557572 C69.1381198,95.7795721 71.2511198,90.2915721 75.2341198,86.1025721 C79.2161198,81.9155721 84.5921198,79.5285721 90.3701198,79.3835721 L95.7341198,79.2485721 C101.91912,79.1285721 107.05312,83.9895721 107.20912,90.1605721 C107.28612,93.2165721 106.16812,96.1175721 104.06312,98.3325721 C101.95612,100.546572 99.1151198,101.807572 96.0601198,101.885572 L69.3081198,102.557572 Z" mask="url(#userrole-b)"/>
      <path fill="#5E63B6" d="M76.6529198 89.4896721C76.7329198 92.6716721 79.3779198 95.1856721 82.5599198 95.1066721 85.7419198 95.0266721 88.2569198 92.3826721 88.1769198 89.1996721 88.0969198 86.0176721 85.4529198 83.5026721 82.2699198 83.5826721 79.0889198 83.6626721 76.5729198 86.3066721 76.6529198 89.4896721M35.2593198 108.900872L35.2593198 108.900872C36.8883198 108.508872 38.3303198 107.562872 39.3393198 106.225872L41.2093198 103.749872 36.9323198 104.778872 34.4123198 105.385872C33.4423198 105.619872 32.8453198 106.595872 33.0783198 107.566872 33.3123198 108.537872 34.2883198 109.134872 35.2593198 108.900872" mask="url(#userrole-b)"/>
      <path fill="#E1F2FF" d="M101.06302,129.606872 C101.06302,129.606872 120.23402,134.539872 136.94502,130.758872 C134.08602,143.340872 132.50502,147.302872 132.50502,147.302872 C132.50502,147.302872 107.22802,144.576872 101.06302,129.606872" mask="url(#userrole-b)"/>
      <path fill="#ACD3EF" d="M118.99072,137.710372 C107.14272,137.710372 99.2817198,135.847372 99.1727198,135.820372 C98.6367198,135.690372 98.3067198,135.149372 98.4367198,134.613372 C98.5677198,134.075372 99.1087198,133.746372 99.6437198,133.877372 C99.7937198,133.912372 114.82272,137.465372 134.65172,134.592372 C135.19772,134.505372 135.70572,134.891372 135.78472,135.438372 C135.86372,135.984372 135.48472,136.491372 134.93872,136.570372 C129.14272,137.410372 123.74572,137.710372 118.99072,137.710372" mask="url(#userrole-b)"/>
      <path fill="#E1F2FF" d="M124.65682,112.073672 C122.13182,112.073672 120.04582,110.052672 119.98082,107.513672 C119.97382,107.237672 120.19182,107.008672 120.46882,107.001672 C120.79382,107.001672 120.97382,107.213672 120.98082,107.488672 C121.03282,109.515672 122.76082,111.138672 124.74982,111.072672 C126.77582,111.020672 128.38382,109.330672 128.33282,107.303672 C128.32582,107.027672 128.54482,106.798672 128.81982,106.791672 L128.83282,106.791672 C129.10282,106.791672 129.32582,107.007672 129.33282,107.278672 C129.39682,109.856672 127.35182,112.007672 124.77482,112.072672 C124.73582,112.073672 124.69582,112.073672 124.65682,112.073672" mask="url(#userrole-b)"/>
      <path fill="#E1F2FF" d="M128.93612 116.143972C126.41112 116.144972 124.32612 114.122972 124.26212 111.584972 124.25512 111.308972 124.47412 111.079972 124.74912 111.072972L124.76212 111.072972C125.03312 111.072972 125.25512 111.288972 125.26212 111.559972 125.31212 113.554972 126.95212 115.143972 128.93712 115.143972 128.96812 115.143972 128.99812 115.143972 129.03012 115.142972 130.01112 115.118972 130.92412 114.712972 131.60112 114.000972 132.27812 113.289972 132.63712 112.356972 132.61312 111.374972 132.60612 111.098972 132.82512 110.869972 133.10012 110.862972L133.11312 110.862972C133.38312 110.862972 133.60612 111.078972 133.61312 111.349972 133.67712 113.927972 131.63212 116.078972 129.05512 116.142972 129.01512 116.143972 128.97612 116.143972 128.93612 116.143972M118.80722 171.920372C117.77522 171.920372 116.79922 171.530372 116.04822 170.817372 115.27322 170.080372 114.83122 169.085372 114.80422 168.015372 114.79722 167.738372 115.01522 167.509372 115.29122 167.502372 115.57922 167.510372 115.79722 167.714372 115.80422 167.989372 115.84522 169.621372 117.18622 170.920372 118.80822 170.920372 118.83422 170.920372 118.86022 170.920372 118.88522 170.919372 119.68822 170.899372 120.43422 170.567372 120.98822 169.986372 121.54022 169.404372 121.83422 168.642372 121.81422 167.839372 121.80722 167.563372 122.02522 167.333372 122.30122 167.326372L122.31422 167.326372C122.58422 167.326372 122.80722 167.542372 122.81422 167.814372 122.84022 168.883372 122.45022 169.899372 121.71222 170.675372 120.97522 171.450372 119.98022 171.893372 118.91122 171.919372 118.87522 171.920372 118.84122 171.920372 118.80722 171.920372M34.2447198 93.4994721C33.4387198 93.4994721 32.6777198 93.1954721 32.0917198 92.6384721 31.4857198 92.0624721 31.1407198 91.2844721 31.1197198 90.4484721 31.1127198 90.1724721 31.3317198 89.9424721 31.6067198 89.9364721L31.6197198 89.9364721C31.8907198 89.9364721 32.1127198 90.1514721 32.1197198 90.4234721 32.1337198 90.9924721 32.3687198 91.5204721 32.7807198 91.9134721 33.1937198 92.3054721 33.7517198 92.5424721 34.3017198 92.4984721 34.8707198 92.4844721 35.3987198 92.2494721 35.7917198 91.8374721 36.1827198 91.4254721 36.3907198 90.8854721 36.3767198 90.3164721 36.3697198 90.0404721 36.5877198 89.8114721 36.8637198 89.8044721L36.8767198 89.8044721C37.1467198 89.8044721 37.3697198 90.0204721 37.3767198 90.2914721 37.3977198 91.1264721 37.0927198 91.9204721 36.5157198 92.5264721 35.9397198 93.1324721 35.1627198 93.4784721 34.3267198 93.4984721 34.2997198 93.4994721 34.2717198 93.4994721 34.2447198 93.4994721" mask="url(#userrole-b)"/>
    </g>
    <path fill="#FFF" d="M224.918,207.9479 C224.918,224.1589 211.777,237.2999 195.566,237.2999 C179.356,237.2999 166.215,224.1589 166.215,207.9479 C166.215,191.7379 179.356,178.5959 195.566,178.5959 C211.777,178.5959 224.918,191.7379 224.918,207.9479"/>
    <path fill="#5E63B6" d="M195.5664,179.5963 C179.9334,179.5963 167.2144,192.3153 167.2144,207.9483 C167.2144,223.5803 179.9334,236.2993 195.5664,236.2993 C211.1994,236.2993 223.9184,223.5803 223.9184,207.9483 C223.9184,192.3153 211.1994,179.5963 195.5664,179.5963 M195.5664,238.2993 C178.8304,238.2993 165.2144,224.6843 165.2144,207.9483 C165.2144,191.2113 178.8304,177.5963 195.5664,177.5963 C212.3024,177.5963 225.9184,191.2113 225.9184,207.9483 C225.9184,224.6843 212.3024,238.2993 195.5664,238.2993"/>
    <path fill="#E1F2FF" d="M208.5557,213.402 L208.5557,208.402 L204.6157,207.614 C204.3347,206.586 203.9307,205.61 203.4127,204.706 L205.6407,201.364 L202.1057,197.829 L198.7637,200.056 C197.8587,199.538 196.8827,199.134 195.8547,198.854 L195.0667,194.913 L190.0667,194.913 L189.2787,198.854 C188.2497,199.134 187.2747,199.538 186.3687,200.056 L183.0287,197.829 L179.4927,201.364 L181.7197,204.706 C181.2017,205.61 180.7987,206.586 180.5187,207.614 L176.5767,208.402 L176.5767,213.402 L180.5187,214.191 C180.7987,215.219 181.2017,216.195 181.7197,217.099 L179.4927,220.441 L183.0287,223.976 L186.3687,221.749 C187.2747,222.267 188.2497,222.671 189.2787,222.951 L190.0667,226.892 L195.0667,226.892 L195.8547,222.951 C196.8827,222.671 197.8587,222.267 198.7637,221.749 L202.1057,223.976 L205.6407,220.441 L203.4127,217.099 C203.9307,216.195 204.3347,215.219 204.6157,214.191 L208.5557,213.402 Z"/>
    <path fill="#FFF" d="M195.5664,212.069 C193.2654,212.069 191.3994,210.204 191.3994,207.902 C191.3994,205.601 193.2654,203.736 195.5664,203.736 C197.8674,203.736 199.7334,205.601 199.7334,207.902 C199.7334,210.204 197.8674,212.069 195.5664,212.069 L195.5664,212.069 Z M211.5554,210.402 L211.5554,205.402 L207.6154,204.614 C207.3354,203.586 206.9304,202.61 206.4134,201.706 L208.6404,198.364 L205.1054,194.829 L201.7634,197.056 C200.8584,196.538 199.8824,196.134 198.8544,195.854 L198.0664,191.913 L193.0664,191.913 L192.2784,195.854 C191.2504,196.134 190.2744,196.538 189.3694,197.056 L186.0284,194.829 L182.4924,198.364 L184.7194,201.706 C184.2024,202.61 183.7984,203.586 183.5184,204.614 L179.5774,205.402 L179.5774,210.402 L183.5184,211.191 C183.7984,212.219 184.2024,213.195 184.7194,214.099 L182.4924,217.441 L186.0284,220.976 L189.3694,218.749 C190.2744,219.267 191.2504,219.671 192.2784,219.951 L193.0664,223.892 L198.0664,223.892 L198.8544,219.951 C199.8824,219.671 200.8584,219.267 201.7634,218.749 L205.1054,220.976 L208.6404,217.441 L206.4134,214.099 C206.9304,213.195 207.3354,212.219 207.6154,211.191 L211.5554,210.402 Z"/>
    <path fill="#ACD3EF" d="M195.5664,204.736 C193.8204,204.736 192.3994,206.156 192.3994,207.902 C192.3994,209.648 193.8204,211.069 195.5664,211.069 C197.3124,211.069 198.7334,209.648 198.7334,207.902 C198.7334,206.156 197.3124,204.736 195.5664,204.736 L195.5664,204.736 Z M195.5664,213.069 C192.7174,213.069 190.3994,210.751 190.3994,207.902 C190.3994,205.053 192.7174,202.736 195.5664,202.736 C198.4154,202.736 200.7334,205.053 200.7334,207.902 C200.7334,210.751 198.4154,213.069 195.5664,213.069 L195.5664,213.069 Z M211.5554,210.402 L211.5654,210.402 L211.5554,210.402 Z M193.8864,222.892 L197.2464,222.892 L197.8744,219.755 C197.9484,219.383 198.2254,219.086 198.5914,218.986 C199.5364,218.729 200.4354,218.357 201.2664,217.881 C201.5944,217.693 202.0024,217.707 202.3184,217.917 L204.9774,219.689 L207.3534,217.313 L205.5814,214.654 C205.3714,214.339 205.3564,213.931 205.5454,213.602 C206.0214,212.769 206.3934,211.87 206.6504,210.928 C206.7504,210.563 207.0474,210.285 207.4194,210.211 L210.5554,209.583 L210.5554,206.221 L207.4194,205.594 C207.0474,205.52 206.7504,205.243 206.6504,204.877 C206.3934,203.935 206.0214,203.036 205.5454,202.203 C205.3564,201.874 205.3714,201.466 205.5814,201.151 L207.3534,198.492 L204.9774,196.116 L202.3184,197.888 C202.0024,198.097 201.5944,198.111 201.2664,197.924 C200.4354,197.448 199.5364,197.076 198.5914,196.819 C198.2254,196.719 197.9484,196.422 197.8744,196.05 L197.2464,192.913 L193.8864,192.913 L193.2584,196.05 C193.1844,196.422 192.9074,196.719 192.5414,196.819 C191.5964,197.076 190.6974,197.448 189.8664,197.924 C189.5374,198.111 189.1294,198.097 188.8144,197.888 L186.1554,196.116 L183.7794,198.492 L185.5514,201.151 C185.7614,201.466 185.7764,201.874 185.5874,202.203 C185.1124,203.033 184.7404,203.933 184.4834,204.877 C184.3834,205.243 184.0864,205.52 183.7144,205.594 L180.5774,206.222 L180.5774,209.583 L183.7144,210.211 C184.0864,210.285 184.3834,210.563 184.4834,210.928 C184.7404,211.872 185.1124,212.772 185.5874,213.602 C185.7764,213.931 185.7614,214.339 185.5514,214.654 L183.7794,217.313 L186.1554,219.689 L188.8144,217.917 C189.1294,217.707 189.5374,217.693 189.8664,217.881 C190.6974,218.357 191.5964,218.729 192.5414,218.986 C192.9074,219.086 193.1844,219.383 193.2584,219.755 L193.8864,222.892 Z M198.0664,224.892 L193.0664,224.892 C192.5894,224.892 192.1794,224.555 192.0864,224.089 L191.4164,220.738 C190.7264,220.515 190.0594,220.24 189.4224,219.915 L186.5834,221.808 C186.1864,222.072 185.6594,222.02 185.3214,221.683 L181.7854,218.148 C181.4484,217.811 181.3954,217.283 181.6604,216.886 L183.5534,214.046 C183.2284,213.409 182.9544,212.742 182.7314,212.053 L179.3804,211.382 C178.9134,211.289 178.5774,210.879 178.5774,210.402 L178.5774,205.402 C178.5774,204.925 178.9144,204.515 179.3804,204.422 L182.7314,203.752 C182.9544,203.063 183.2284,202.396 183.5534,201.759 L181.6604,198.919 C181.3954,198.522 181.4484,197.994 181.7854,197.657 L185.3214,194.122 C185.6594,193.784 186.1874,193.732 186.5834,193.997 L189.4224,195.89 C190.0594,195.565 190.7264,195.29 191.4164,195.067 L192.0864,191.716 C192.1794,191.25 192.5894,190.913 193.0664,190.913 L198.0664,190.913 C198.5434,190.913 198.9534,191.25 199.0464,191.716 L199.7164,195.067 C200.4064,195.29 201.0734,195.565 201.7104,195.89 L204.5504,193.997 C204.9454,193.731 205.4744,193.784 205.8124,194.122 L209.3474,197.657 C209.6844,197.994 209.7374,198.522 209.4724,198.919 L207.5794,201.759 C207.9044,202.397 208.1794,203.063 208.4014,203.752 L211.7524,204.422 C212.2184,204.515 212.5554,204.925 212.5554,205.402 L212.5554,210.402 C212.5554,210.879 212.2194,211.289 211.7524,211.382 L208.4014,212.053 C208.1794,212.741 207.9044,213.408 207.5794,214.046 L209.4724,216.886 C209.7374,217.283 209.6844,217.811 209.3474,218.148 L205.8124,221.683 C205.4744,222.021 204.9464,222.073 204.5504,221.808 L201.7104,219.915 C201.0734,220.24 200.4064,220.515 199.7164,220.738 L199.0464,224.089 C198.9534,224.555 198.5434,224.892 198.0664,224.892 L198.0664,224.892 Z"/>
    <path fill="#E1F2FF" d="M187.5166 205.7995C187.3966 205.7995 187.2756 205.7785 187.1566 205.7325 186.6416 205.5335 186.3846 204.9545 186.5836 204.4395 187.6226 201.7455 189.8836 199.6125 192.6306 198.7345 193.1596 198.5645 193.7196 198.8565 193.8876 199.3815 194.0566 199.9075 193.7666 200.4705 193.2406 200.6385 191.0636 201.3345 189.2736 203.0255 188.4496 205.1595 188.2966 205.5565 187.9176 205.7995 187.5166 205.7995M199.0244 216.8073C198.6384 216.8073 198.2714 216.5833 198.1074 216.2083 197.8854 215.7033 198.1164 215.1133 198.6224 214.8913 201.3974 213.6753 203.1914 210.9313 203.1914 207.9023 203.1914 206.6663 202.9064 205.4893 202.3424 204.4013 202.0884 203.9113 202.2804 203.3073 202.7704 203.0533 203.2634 202.7963 203.8644 202.9913 204.1184 203.4813 204.8204 204.8373 205.1914 206.3663 205.1914 207.9023 205.1914 211.7253 202.9274 215.1883 199.4244 216.7233 199.2944 216.7813 199.1584 216.8073 199.0244 216.8073"/>
    <path fill="#5E63B6" d="M190.2187,73.7409 C189.9427,73.7409 189.7187,73.5169 189.7187,73.2409 L189.7187,69.7599 C189.7187,69.4829 189.9427,69.2599 190.2187,69.2599 C190.4947,69.2599 190.7187,69.4829 190.7187,69.7599 L190.7187,73.2409 C190.7187,73.5169 190.4947,73.7409 190.2187,73.7409"/>
    <path fill="#5E63B6" d="M191.96,71.9997 L188.479,71.9997 C188.202,71.9997 187.979,71.7757 187.979,71.4997 C187.979,71.2237 188.202,70.9997 188.479,70.9997 L191.96,70.9997 C192.236,70.9997 192.46,71.2237 192.46,71.4997 C192.46,71.7757 192.236,71.9997 191.96,71.9997"/>
  </g>
</svg>
