<svg xmlns="http://www.w3.org/2000/svg" width="256" height="256" viewBox="0 0 256 256">
  <g fill="none" fill-rule="evenodd">
    <path fill="#E1F2FF" d="M22.2041,225.5328 C22.2041,168.3398 68.5681,121.9748 125.7621,121.9748 C182.9541,121.9748 229.3201,168.3398 229.3201,225.5328 L22.2041,225.5328 Z"/>
    <path fill="#FFF" d="M18.9775,216.5328 L54.9775,216.5328"/>
    <path fill="#5E63B6" d="M54.9775,217.5328 L18.9775,217.5328 C18.4255,217.5328 17.9775,217.0848 17.9775,216.5328 C17.9775,215.9808 18.4255,215.5328 18.9775,215.5328 L54.9775,215.5328 C55.5295,215.5328 55.9775,215.9808 55.9775,216.5328 C55.9775,217.0848 55.5295,217.5328 54.9775,217.5328"/>
    <path fill="#FFF" d="M194.3198,216.5328 L238.3198,216.5328"/>
    <path fill="#5E63B6" d="M238.3198,217.5328 L194.3198,217.5328 C193.7668,217.5328 193.3198,217.0848 193.3198,216.5328 C193.3198,215.9808 193.7668,215.5328 194.3198,215.5328 L238.3198,215.5328 C238.8728,215.5328 239.3198,215.9808 239.3198,216.5328 C239.3198,217.0848 238.8728,217.5328 238.3198,217.5328"/>
    <path fill="#9452BA" d="M164.2241,216.1583 L169.2031,216.1583 C170.9151,216.1583 172.4681,215.1113 173.0881,213.5143 C174.8561,208.9643 174.4151,204.7833 174.6261,201.2073 C175.0181,194.5823 173.9831,191.1873 172.9951,185.6473 L165.5211,185.8203 C165.5211,185.8203 166.1571,188.5733 166.5801,196.8313 C166.7111,199.3863 162.4891,209.6503 162.6871,214.6843 C162.7191,215.5103 163.3971,216.1583 164.2241,216.1583"/>
    <path fill="#52267D" d="M166.1226,186.3062 C166.3266,187.4982 166.7616,190.5992 167.0796,196.8062 C167.1396,197.9642 166.4466,200.3272 165.5696,203.3182 C164.4586,207.1092 163.0746,211.8282 163.1866,214.6652 C163.2086,215.2222 163.6646,215.6582 164.2246,215.6582 L169.2026,215.6582 C170.7076,215.6582 172.0826,214.7242 172.6226,213.3332 C173.9496,209.9172 174.0026,206.6522 174.0496,203.7702 C174.0636,202.8752 174.0786,202.0102 174.1276,201.1782 C174.4426,195.8352 173.8266,192.6512 173.0466,188.6192 C172.8936,187.8342 172.7366,187.0212 172.5796,186.1572 L166.1226,186.3062 Z M169.2026,216.6582 L164.2246,216.6582 C163.1246,216.6582 162.2296,215.8002 162.1866,214.7042 C162.0686,211.7032 163.4196,207.0992 164.6096,203.0362 C165.3936,200.3672 166.1326,197.8462 166.0816,196.8562 C165.6666,188.7662 165.0396,185.9592 165.0336,185.9312 L164.8966,185.3342 L173.4126,185.1372 L173.4876,185.5592 C173.6696,186.5772 173.8516,187.5222 174.0276,188.4292 C174.8216,192.5302 175.4486,195.7692 175.1256,201.2362 C175.0776,202.0562 175.0636,202.9072 175.0496,203.7862 C175.0006,206.7522 174.9456,210.1132 173.5546,213.6962 C172.8656,215.4682 171.1176,216.6582 169.2026,216.6582 L169.2026,216.6582 Z"/>
    <path fill="#9452BA" d="M149.729,192.4893 L143.717,185.6723 L140.005,185.8193 C140.005,185.8193 139.485,191.4903 139.271,193.8653 C138.895,198.0513 137.161,206.2533 136.095,209.8523 C135.749,211.0233 135.547,212.1173 135.491,213.1093 C135.397,214.7793 136.79,216.1583 138.461,216.1583 L142.873,216.1583 C145.442,216.1583 147.726,214.4443 148.358,211.9533 C150.324,204.1993 149.729,192.4893 149.729,192.4893"/>
    <path fill="#52267D" d="M140.4634,186.3018 C140.3374,187.6758 139.9464,191.9338 139.7694,193.9108 C139.4014,198.0018 137.7054,206.1748 136.5744,209.9948 C136.2414,211.1198 136.0444,212.1768 135.9894,213.1378 C135.9534,213.7788 136.1834,214.3948 136.6344,214.8718 C137.1074,215.3718 137.7734,215.6578 138.4614,215.6578 L142.8724,215.6578 C145.2444,215.6578 147.3014,214.0848 147.8734,211.8308 C149.6684,204.7478 149.2994,194.1668 149.2374,192.6878 L143.4994,186.1808 L140.4634,186.3018 Z M142.8724,216.6578 L138.4614,216.6578 C137.4984,216.6578 136.5674,216.2578 135.9074,215.5588 C135.2654,214.8798 134.9404,213.9998 134.9914,213.0818 C135.0514,212.0438 135.2614,210.9098 135.6154,209.7108 C136.7344,205.9338 138.4104,197.8598 138.7734,193.8208 C138.9864,191.4458 139.5074,185.7738 139.5074,185.7738 L139.5474,185.3368 L143.9354,185.1628 L150.2194,192.2898 L150.2284,192.4638 C150.2344,192.5818 150.8044,204.3388 148.8424,212.0768 C148.1574,214.7738 145.7034,216.6578 142.8724,216.6578 L142.8724,216.6578 Z"/>
    <polygon fill="#52267D" points="141.207 199.06 140.095 198.059 141.194 197.096 141.357 197.283 140.472 198.062 141.26 198.772 142.609 198.253 142.398 197.79 141.315 198.047 141.524 198.037 141.536 198.287 141.077 198.309 141.056 197.851 142.541 197.499 142.947 198.391"/>
    <path fill="#9452BA" d="M141.312,167.1031 C145.691,167.0131 149.795,163.9981 158.732,163.5851 C158.861,163.0011 159.018,162.4741 159.218,162.0411 C160.835,158.5391 163.118,148.4481 161.652,141.8191 L160.492,136.5731 C160.111,134.8531 159.919,133.0951 159.919,131.3321 C159.919,130.5981 159.994,129.8811 160.135,129.1891 C160.17,129.0161 160.21,128.8441 160.254,128.6741 C160.385,128.1651 160.553,127.6691 160.755,127.1921 C160.823,127.0331 160.893,126.8761 160.968,126.7211 C161.118,126.4111 161.282,126.1091 161.459,125.8171 C161.637,125.5241 161.829,125.2421 162.033,124.9681 C162.645,124.1491 163.373,123.4211 164.192,122.8091 C164.465,122.6051 164.749,122.4141 165.041,122.2361 C166.649,121.2591 168.537,120.6961 170.556,120.6961 L172.3,120.6961 C175.238,120.6961 177.897,121.8861 179.822,123.8111 C180.062,124.0521 180.291,124.3041 180.508,124.5671 C180.902,125.0441 181.252,125.5581 181.559,126.1001 C181.674,126.3031 181.786,126.5101 181.888,126.7211 C181.962,126.8761 182.034,127.0331 182.101,127.1921 C182.302,127.6691 182.471,128.1651 182.602,128.6741 C182.733,129.1841 182.828,129.7081 182.882,130.2451 C182.918,130.6031 182.937,130.9651 182.937,131.3321 C182.937,132.0651 182.64,132.7281 182.16,133.2071 C181.68,133.6871 181.017,133.9841 180.285,133.9841 L169.395,133.9841 L171.043,143.4361 C172.978,153.1461 172.396,159.6401 170.898,163.9691 C170.564,164.9341 168.662,168.3541 168.662,168.3541 C174.107,176.9471 182.458,180.7031 191.386,181.7931 C198.978,182.7201 215.365,175.7971 206.916,167.7901 C198.467,159.7811 208.676,164.7611 210.18,165.7741 C211.683,166.7881 220.373,174.2971 210.941,185.3131 C206.954,189.9721 202.436,194.2071 191.567,197.4531 C189.824,197.9741 180.311,198.6661 175.191,200.1361 C159.946,204.5121 147.551,199.7531 140.606,189.6891 C133.689,179.6661 139.583,167.1381 141.312,167.1031"/>
    <path fill="#52267D" d="M141.4771,168.0992 C140.9961,168.4752 139.6651,170.5552 138.8801,173.9682 C138.1421,177.1792 137.4931,183.4172 141.4291,189.1212 C148.6281,199.5532 160.8361,203.2192 174.9151,199.1742 C178.1811,198.2372 183.1711,197.6122 186.8151,197.1552 C188.8141,196.9042 190.7041,196.6672 191.2811,196.4952 C202.1651,193.2442 206.4321,189.0432 210.1811,184.6622 C213.2971,181.0232 214.6441,177.4552 214.1841,174.0582 C213.6471,170.1042 210.7081,167.3362 209.6221,166.6032 C208.8301,166.0702 206.5861,164.9902 205.1791,164.5292 C205.6041,165.0562 206.3371,165.8632 207.6041,167.0642 C210.8831,170.1712 210.5551,172.9822 209.7031,174.7922 C207.1841,180.1402 196.7361,183.4512 191.2651,182.7862 C180.7351,181.4992 172.8451,176.8242 167.8171,168.8892 L167.4981,168.3872 L167.7881,167.8682 C168.5061,166.5752 169.7311,164.2842 169.9531,163.6412 C171.6781,158.6572 171.7151,151.9252 170.0631,143.6322 L168.2061,132.9842 L180.2851,132.9842 C180.7261,132.9842 181.1411,132.8122 181.4531,132.5012 C181.7651,132.1882 181.9371,131.7732 181.9371,131.3322 C181.9371,130.9992 181.9201,130.6702 181.8871,130.3462 C181.8381,129.8692 181.7531,129.3902 181.6331,128.9232 C181.5181,128.4722 181.3651,128.0202 181.1791,127.5812 C181.1191,127.4372 181.0541,127.2942 180.9871,127.1532 C180.8951,126.9652 180.7941,126.7782 180.6891,126.5942 C180.4081,126.0952 180.0871,125.6282 179.7371,125.2032 C179.5401,124.9652 179.3321,124.7362 179.1151,124.5182 C177.2941,122.6982 174.8741,121.6962 172.3001,121.6962 L170.5561,121.6962 C168.7891,121.6962 167.0621,122.1782 165.5601,123.0902 C165.2951,123.2512 165.0391,123.4252 164.7901,123.6102 C164.0481,124.1652 163.3901,124.8232 162.8331,125.5672 C162.6491,125.8142 162.4751,126.0712 162.3141,126.3362 C162.1531,126.6012 162.0041,126.8742 161.8691,127.1552 C161.8001,127.2972 161.7371,127.4392 161.6761,127.5822 C161.4931,128.0162 161.3401,128.4672 161.2231,128.9232 C161.1831,129.0782 161.1471,129.2322 161.1161,129.3882 C160.9851,130.0242 160.9191,130.6782 160.9191,131.3322 C160.9191,133.0222 161.1041,134.7122 161.4681,136.3572 L162.6281,141.6032 C164.1441,148.4572 161.8051,158.8252 160.1261,162.4602 C159.9711,162.7942 159.8311,163.2452 159.7081,163.8012 L159.5431,164.5492 L158.7781,164.5842 C153.7491,164.8162 150.2321,165.9112 147.4051,166.7922 C145.2691,167.4572 143.4171,168.0332 141.4771,168.0992 M164.2961,202.7402 C154.1591,202.7412 145.4041,198.4022 139.7831,190.2572 C134.2681,182.2662 136.4421,173.0142 138.5961,168.8072 C139.9661,166.1312 140.9631,166.1102 141.2911,166.1032 C143.0021,166.0682 144.6821,165.5452 146.8101,164.8822 C149.6071,164.0122 153.0551,162.9382 157.9431,162.6272 C158.0531,162.2472 158.1751,161.9142 158.3111,161.6212 C159.8471,158.2942 162.0751,148.3642 160.6751,142.0352 L159.5151,136.7892 C159.1201,135.0032 158.9191,133.1672 158.9191,131.3322 C158.9191,130.5432 158.9981,129.7542 159.1561,128.9892 C159.1941,128.7992 159.2381,128.6112 159.2871,128.4242 C159.4271,127.8732 159.6131,127.3272 159.8341,126.8022 C159.9091,126.6272 159.9861,126.4542 160.0691,126.2842 C160.2311,125.9482 160.4111,125.6182 160.6051,125.2972 C160.7991,124.9782 161.0081,124.6692 161.2311,124.3702 C161.9031,123.4722 162.6981,122.6782 163.5931,122.0082 C163.8921,121.7852 164.2021,121.5762 164.5211,121.3822 C166.3361,120.2792 168.4231,119.6962 170.5561,119.6962 L172.3001,119.6962 C175.4091,119.6962 178.3311,120.9062 180.5291,123.1042 C180.7911,123.3672 181.0421,123.6432 181.2801,123.9302 C181.7041,124.4452 182.0901,125.0092 182.4291,125.6082 C182.5541,125.8282 182.6761,126.0542 182.7881,126.2852 C182.8711,126.4572 182.9491,126.6292 183.0221,126.8032 C183.2461,127.3342 183.4301,127.8792 183.5711,128.4262 C183.7151,128.9892 183.8191,129.5672 183.8771,130.1432 C183.9161,130.5352 183.9371,130.9312 183.9371,131.3322 C183.9371,132.3082 183.5571,133.2252 182.8671,133.9152 C182.1781,134.6042 181.2601,134.9842 180.2851,134.9842 L170.5841,134.9842 L172.0291,143.2652 C173.7471,151.8872 173.6861,158.9712 171.8431,164.2962 C171.5621,165.1062 170.3921,167.2802 169.8271,168.3122 C174.5321,175.4172 181.8231,179.6182 191.5071,180.8002 C196.7141,181.4362 205.9371,178.0962 207.8931,173.9402 C208.7361,172.1502 208.1921,170.3762 206.2291,168.5152 C202.8841,165.3462 202.0431,163.9162 202.8971,162.8522 C204.3811,160.9972 210.6771,164.9042 210.7391,164.9452 C212.3481,166.0302 215.5531,169.2742 216.1651,173.7902 C216.7061,177.7762 215.2041,181.8712 211.7011,185.9632 C207.9081,190.3952 203.2501,195.0072 191.8531,198.4112 C191.1171,198.6312 189.4161,198.8442 187.0631,199.1402 C183.4851,199.5882 178.5831,200.2022 175.4671,201.0972 C171.6231,202.2002 167.8731,202.7402 164.2961,202.7402"/>
    <path fill="#9452BA" d="M150.771,152.6324 C151.121,141.3724 142.184,132.5234 132.027,130.6534 C129.918,130.2644 129.233,129.6034 126.926,129.6034 L125.159,129.6034 C119.208,129.6034 114.383,134.4274 114.383,140.3794 C114.383,141.8624 115.586,143.0654 117.069,143.0654 C117.069,143.0654 135.189,143.0604 135.274,143.0524 C135.275,143.0534 136.75,143.0534 136.75,143.0544 C136.749,143.0564 135.272,143.0574 135.27,143.0584 C139.277,144.7594 141.77,149.8804 142.21,152.6324 C142.836,156.5504 142.377,159.7824 141.041,162.3964 C140.15,164.1384 140.049,166.2364 140.187,167.9344 C140.187,167.9344 140.23,167.9494 140.29,167.9704 C140.353,168.8784 140.5,169.9114 140.77,171.0904 C142.477,169.9014 145.13,168.1114 145.615,167.8564 C146.662,167.3034 149.026,166.0454 150.084,165.4394 C156.842,161.5644 150.573,159.0364 150.771,152.6324"/>
    <path fill="#52267D" d="M140.6626,167.5699 L140.7656,167.6049 L140.7886,167.9359 C140.8396,168.6669 140.9446,169.4429 141.1026,170.2509 C142.7386,169.1229 144.9166,167.6589 145.3816,167.4139 C145.7076,167.2409 148.6086,165.7089 149.8346,165.0059 C153.6576,162.8139 152.9976,161.3509 151.7986,158.6959 C151.0836,157.1119 150.1926,155.1409 150.2706,152.6169 C150.6346,140.9299 141.0956,132.8309 131.9356,131.1449 C131.1026,130.9909 130.4746,130.7939 129.9186,130.6189 C129.0376,130.3419 128.2776,130.1029 126.9256,130.1029 L125.1596,130.1029 C119.4926,130.1029 114.8826,134.7129 114.8826,140.3799 C114.8826,141.5849 115.8636,142.5659 117.0696,142.5659 C123.2386,142.5639 134.9796,142.5589 135.2586,142.5529 L136.0126,142.5539 C136.2736,142.5539 136.4556,142.5539 136.5846,142.5549 C136.6646,142.5549 136.7196,142.5549 136.7356,142.5549 L136.7356,142.5589 C136.8906,142.5649 136.9156,142.5779 136.9746,142.6069 L137.5946,142.9169 L137.1036,143.4079 C137.0786,143.4329 137.0586,143.4539 137.0356,143.4709 C140.2606,145.7049 142.2916,149.9729 142.7046,152.5529 C143.3256,156.4409 142.9156,159.8289 141.4856,162.6239 C140.6736,164.2139 140.5776,166.1349 140.6626,167.5699 L140.6626,167.5699 Z M140.4476,171.9239 L140.2826,171.2009 C140.0546,170.2019 139.8976,169.2389 139.8166,168.3349 L139.7156,168.2989 L139.6886,167.9749 C139.5596,166.3869 139.6126,164.0909 140.5956,162.1689 C141.9266,159.5669 142.3036,156.3849 141.7166,152.7119 C141.2616,149.8659 138.7306,145.1249 135.1526,143.5529 C134.5396,143.5559 131.5926,143.5619 117.0696,143.5659 C115.3126,143.5659 113.8826,142.1359 113.8826,140.3799 C113.8826,134.1619 118.9416,129.1029 125.1596,129.1029 L126.9256,129.1029 C128.4316,129.1029 129.2996,129.3759 130.2186,129.6649 C130.7716,129.8389 131.3446,130.0189 132.1176,130.1609 C141.6856,131.9229 151.6506,140.4029 151.2706,152.6479 C151.1996,154.9409 152.0026,156.7169 152.7106,158.2849 C153.9086,160.9379 154.9426,163.2299 150.3326,165.8729 C149.0916,166.5849 146.1766,168.1249 145.8486,168.2989 C145.4136,168.5279 142.8496,170.2509 141.0566,171.4999 L140.4476,171.9239 Z"/>
    <path fill="#F3E3FF" d="M145.0005,165.6427 C144.9115,163.9037 144.6465,163.0107 144.8405,162.3037 C145.9635,158.2297 146.3285,156.9447 146.3285,152.6327 C146.3285,148.3467 143.8465,144.1117 140.1805,141.8587 C139.9795,141.7357 137.3415,141.5497 135.2705,143.0587 C139.2765,144.7597 141.7705,149.8807 142.2105,152.6327 C142.8365,156.5507 142.3775,159.7837 141.0415,162.3967 C140.1505,164.1387 140.0495,166.2357 140.1875,167.9347 C140.1875,167.9347 145.1035,169.7807 145.0005,165.6427"/>
    <path fill="#52267D" d="M140.4243,167.7511 C140.9703,167.9271 142.8803,168.4601 143.9643,167.6901 C144.5093,167.3021 144.7743,166.6161 144.7503,165.6521 C144.7173,165.0001 144.6593,164.4771 144.6093,164.0161 C144.5263,163.2651 144.4663,162.7211 144.5993,162.2371 L144.6293,162.1281 C145.7133,158.1961 146.0783,156.8721 146.0783,152.6321 C146.0783,148.4681 143.7123,144.3231 140.0493,142.0721 C139.7873,141.9781 137.6203,141.8841 135.7793,143.0181 C139.5873,144.8961 142.0053,149.7711 142.4573,152.5931 C143.0703,156.4271 142.6683,159.7631 141.2643,162.5101 C140.3933,164.2131 140.3203,166.2701 140.4243,167.7511 M142.4193,168.5961 C141.2573,168.5961 140.1683,168.1951 140.0993,168.1681 L139.9503,168.1131 L139.9383,167.9551 C139.8123,166.4001 139.8623,164.1531 140.8193,162.2831 C142.1743,159.6321 142.5593,156.3981 141.9633,152.6721 C141.5133,149.8591 139.0433,144.9331 135.1723,143.2891 L134.7663,143.1161 L135.1223,142.8561 C137.2563,141.3011 139.9983,141.4541 140.3113,141.6461 C144.1183,143.9861 146.5783,148.2981 146.5783,152.6321 C146.5783,156.9391 146.2083,158.2811 145.1113,162.2611 L145.0813,162.3701 C144.9743,162.7621 145.0263,163.2391 145.1063,163.9611 C145.1543,164.4071 145.2163,164.9611 145.2503,165.6301 L145.2503,165.6361 C145.2783,166.7791 144.9433,167.6071 144.2533,168.0981 C143.7263,168.4731 143.0613,168.5961 142.4193,168.5961"/>
    <path fill="#FFF" d="M119.5044,131.4342 C119.5044,131.4342 119.5004,129.5522 121.3704,128.8042 C121.9414,128.5762 122.9834,128.1522 122.9834,128.1522 C122.9834,128.1522 124.0964,130.5072 122.8354,131.1012 C121.0184,131.9562 119.5044,131.4342 119.5044,131.4342"/>
    <path fill="#52267D" d="M119.7681,131.2452 C120.2061,131.3432 121.3861,131.5062 122.7281,130.8752 C122.9151,130.7872 123.0411,130.6462 123.1141,130.4442 C123.3181,129.8762 123.0471,128.9692 122.8511,128.4752 C122.5111,128.6142 121.8691,128.8742 121.4631,129.0362 C120.0951,129.5842 119.8221,130.7792 119.7681,131.2452 M120.6771,131.8442 C119.9401,131.8442 119.4591,131.6822 119.4231,131.6702 L119.2551,131.6122 L119.2541,131.4342 C119.2541,131.4142 119.2731,129.3742 121.2781,128.5722 C121.8481,128.3442 122.8891,127.9202 122.8891,127.9202 L123.1081,127.8312 L123.2091,128.0452 C123.2391,128.1092 123.9421,129.6162 123.5841,130.6132 C123.4671,130.9422 123.2501,131.1822 122.9411,131.3282 C122.0831,131.7312 121.2911,131.8442 120.6771,131.8442"/>
    <path fill="#FFF" d="M124.186,130.1109 C124.186,130.1109 124.239,127.5469 127.124,127.1729 C127.662,127.1029 129.066,127.1369 129.066,127.1369 C129.066,127.1369 129.713,129.8499 128.193,130.1109 C126.323,130.4309 124.186,130.1109 124.186,130.1109"/>
    <path fill="#52267D" d="M124.4575,129.8936 C125.0575,129.9636 126.6985,130.1136 128.1505,129.8646 C128.3875,129.8236 128.5655,129.7076 128.6955,129.5106 C129.0565,128.9646 128.9605,127.9206 128.8615,127.3826 C128.4605,127.3776 127.5515,127.3696 127.1555,127.4206 C124.9825,127.7026 124.5455,129.2956 124.4575,129.8936 M126.3155,130.5046 C125.1435,130.5046 124.2075,130.3666 124.1485,130.3576 L123.9315,130.3256 L123.9365,130.1056 C123.9365,130.0776 124.0295,127.3216 127.0915,126.9246 C127.6425,126.8536 129.0145,126.8856 129.0715,126.8866 L129.2645,126.8916 L129.3095,127.0786 C129.3265,127.1506 129.7245,128.8596 129.1125,129.7866 C128.9055,130.1016 128.6095,130.2926 128.2345,130.3576 C127.5915,130.4676 126.9225,130.5046 126.3155,130.5046"/>
    <path fill="#FFF" d="M129.9224,130.356 C129.9224,130.356 130.3024,127.513 132.8574,128.294 C133.9484,128.628 134.5544,129.457 134.5544,129.457 C134.5544,129.457 134.0454,131.623 133.0294,131.379 C131.2554,130.955 129.9224,130.356 129.9224,130.356"/>
    <path fill="#52267D" d="M130.2065,130.2052 C130.6265,130.3792 131.7315,130.8112 133.0885,131.1362 C133.2055,131.1642 133.3105,131.1442 133.4235,131.0762 C133.8525,130.8102 134.1625,129.9492 134.2805,129.5182 C134.0985,129.3082 133.5755,128.7752 132.7835,128.5332 C132.1385,128.3342 131.5905,128.3732 131.1595,128.6482 C130.5385,129.0462 130.2895,129.8452 130.2065,130.2052 M133.1885,131.6492 C133.1175,131.6492 133.0445,131.6402 132.9715,131.6222 C131.1945,131.1972 129.8755,130.6092 129.8195,130.5842 L129.6495,130.5082 L129.6745,130.3232 C129.6825,130.2642 129.8785,128.8772 130.8885,128.2292 C131.4465,127.8692 132.1355,127.8122 132.9305,128.0552 C134.0885,128.4092 134.7285,129.2732 134.7565,129.3092 L134.8235,129.4022 L134.7975,129.5142 C134.7615,129.6702 134.4185,131.0492 133.6855,131.5012 C133.5255,131.6002 133.3595,131.6492 133.1885,131.6492"/>
    <path fill="#FFF" d="M137.3413,144.1617 C137.3413,144.1617 143.2963,140.9237 142.1633,135.4757 C142.9543,136.1267 145.0693,138.1137 145.8353,139.1307 C145.8353,140.1967 146.0303,144.4327 140.1823,147.2687 C139.1533,146.2027 138.2873,144.8717 137.3413,144.1617"/>
    <path fill="#52267D" d="M137.7739,144.1925 C138.2679,144.6265 138.7379,145.1945 139.2289,145.7915 C139.5529,146.1845 139.8869,146.5895 140.2369,146.9635 C143.8029,145.1835 145.6019,142.5835 145.5859,139.2325 L145.5859,139.2155 C144.9489,138.3995 143.4709,136.9635 142.5169,136.1105 C142.9939,140.5465 138.9499,143.4485 137.7739,144.1925 L137.7739,144.1925 Z M140.1279,147.5735 L140.0029,147.4425 C139.5929,147.0185 139.2119,146.5565 138.8439,146.1095 C138.2779,145.4235 137.7439,144.7765 137.1909,144.3615 L136.8799,144.1285 L137.2219,143.9425 C137.2799,143.9105 142.9999,140.7265 141.9189,135.5265 L141.7739,134.8315 L142.3229,135.2825 C143.1599,135.9725 145.2569,137.9485 146.0349,138.9805 L146.0859,139.0465 L146.0859,139.2295 C146.1029,142.8405 144.1539,145.6215 140.2919,147.4945 L140.1279,147.5735 Z"/>
    <path fill="#F3E3FF" d="M120.0557 131.1329C120.0557 131.1329 120.0537 130.0349 121.1447 129.5979 121.4777 129.4649 122.0857 129.2169 122.0857 129.2169 122.0857 129.2169 122.7357 130.5919 121.9997 130.9389 120.9397 131.4379 120.0557 131.1329 120.0557 131.1329M125.0376 129.7564C125.0376 129.7564 125.0686 128.2554 126.7586 128.0354 127.0736 127.9954 127.8946 128.0144 127.8946 128.0144 127.8946 128.0144 128.2746 129.6034 127.3836 129.7564 126.2886 129.9434 125.0376 129.7564 125.0376 129.7564M130.5522 130.2706C130.5522 130.2706 130.7772 128.5886 132.2882 129.0506 132.9342 129.2486 133.2922 129.7386 133.2922 129.7386 133.2922 129.7386 132.9912 131.0206 132.3902 130.8756 131.3412 130.6246 130.5522 130.2706 130.5522 130.2706M130.5103 141.2618L123.8643 141.2618 123.8643 138.3968C123.8643 137.2368 124.8043 136.2958 125.9653 136.2958L130.5103 136.2958C131.2183 136.2958 131.7923 136.8698 131.7923 137.5778L131.7923 139.9798C131.7923 140.6878 131.2183 141.2618 130.5103 141.2618"/>
    <path fill="#FFF" d="M129.7944,141.1685 L123.9574,141.1685 L123.9574,139.2815 C123.9574,138.1685 124.8594,137.2665 125.9724,137.2665 L129.7944,137.2665 C130.3504,137.2665 130.8014,137.7175 130.8014,138.2745 L130.8014,140.1615 C130.8014,140.7175 130.3504,141.1685 129.7944,141.1685"/>
    <path fill="#52267D" d="M124.2075,140.9185 L129.7945,140.9185 C130.2115,140.9185 130.5515,140.5785 130.5515,140.1615 L130.5515,138.2745 C130.5515,137.8565 130.2115,137.5165 129.7945,137.5165 L125.9725,137.5165 C124.9995,137.5165 124.2075,138.3085 124.2075,139.2815 L124.2075,140.9185 Z M129.7945,141.4185 L123.7075,141.4185 L123.7075,139.2815 C123.7075,138.0325 124.7235,137.0165 125.9725,137.0165 L129.7945,137.0165 C130.4875,137.0165 131.0515,137.5815 131.0515,138.2745 L131.0515,140.1615 C131.0515,140.8545 130.4875,141.4185 129.7945,141.4185 L129.7945,141.4185 Z"/>
    <path fill="#52267D" d="M124.8438 139.1651C124.8438 139.7671 125.3318 140.2551 125.9338 140.2551 126.5348 140.2551 127.0228 139.7671 127.0228 139.1651 127.0228 138.5631 126.5348 138.0761 125.9338 138.0761 125.3318 138.0761 124.8438 138.5631 124.8438 139.1651M116.8203 142.2472L116.8203 142.2472C117.1303 142.1812 117.4063 142.0092 117.6043 141.7612L117.9693 141.3022 117.1553 141.4762 116.6763 141.5792C116.4923 141.6182 116.3753 141.8002 116.4143 141.9852 116.4543 142.1692 116.6353 142.2872 116.8203 142.2472"/>
    <path fill="#E1F2FF" d="M138.3472,144.2691 C138.3472,144.2691 142.9352,141.7991 142.8652,136.8231 C144.8362,138.2591 145.3692,139.1871 145.3692,139.1871 C145.3692,139.1871 145.0272,141.5561 143.9232,142.7521 C142.2292,144.5871 140.4642,145.1511 138.3472,144.2691"/>
    <path fill="#FFF" d="M142.6899,143.3956 C142.6899,143.3956 140.8809,145.2356 139.1169,146.1186"/>
    <path fill="#52267D" d="M139.228,146.3419 L139.005,145.8949 C140.712,145.0409 142.494,143.2379 142.511,143.2199 L142.869,143.5709 C142.793,143.6469 141.01,145.4509 139.228,146.3419"/>
    <path fill="#9452BA" d="M160.6812,162.7433 L159.6602,160.7263 C155.8422,151.3453 155.2532,145.8363 157.2342,136.8823 L158.3932,131.6373 C158.7742,129.9163 158.9662,128.1593 158.9662,126.3963 C158.9662,120.5213 154.2032,115.7593 148.3292,115.7593 L146.6122,115.7593 C140.8182,115.7593 136.1202,120.4563 136.1202,126.2503 L136.1202,126.5523 C136.1202,127.9303 137.2382,129.0483 138.6172,129.0483 L149.4902,129.0483 L147.8422,138.5003 C142.7952,163.8303 143.3012,174.1003 153.2322,171.9903"/>
    <path fill="#52267D" d="M150.9058,172.7594 C149.1588,172.7594 147.7768,172.2414 146.7188,171.1974 C143.1708,167.6934 143.3478,158.4984 147.3518,138.4024 L148.8948,129.5484 L138.6168,129.5484 C136.9648,129.5484 135.6208,128.2034 135.6208,126.5514 L135.6208,126.2504 C135.6208,120.1904 140.5518,115.2594 146.6118,115.2594 L148.3298,115.2594 C154.4698,115.2594 159.4668,120.2554 159.4668,126.3964 C159.4668,128.1914 159.2688,129.9904 158.8818,131.7444 L157.7218,136.9904 C155.7838,145.7524 156.3448,151.2544 160.1228,160.5384 L161.1278,162.5174 L160.2348,162.9694 L159.2138,160.9524 C155.3288,151.4094 154.7568,145.7694 156.7458,136.7744 L157.9048,131.5294 C158.2778,129.8454 158.4668,128.1184 158.4668,126.3964 C158.4668,120.8064 153.9198,116.2594 148.3298,116.2594 L146.6118,116.2594 C141.1028,116.2594 136.6208,120.7414 136.6208,126.2504 L136.6208,126.5514 C136.6208,127.6524 137.5158,128.5484 138.6168,128.5484 L150.0848,128.5484 L148.3348,138.5864 C144.4558,158.0574 144.1918,167.2964 147.4218,170.4854 C148.6728,171.7194 150.5388,172.0514 153.1288,171.5004 L153.3358,172.4794 C152.4578,172.6654 151.6478,172.7594 150.9058,172.7594"/>
    <path fill="#FFF" d="M141.3628,117.0182 C141.3628,117.0182 141.5378,115.1742 143.3698,114.4412 C143.9278,114.2182 144.8038,114.4562 144.8038,114.4562 C144.8038,114.4562 145.8618,116.1102 144.6258,116.6922 C142.8458,117.5292 141.3628,117.0182 141.3628,117.0182"/>
    <path fill="#52267D" d="M141.647,116.8336 C142.097,116.9306 143.231,117.0726 144.519,116.4656 C144.745,116.3596 144.882,116.2096 144.942,116.0056 C145.069,115.5666 144.803,114.9586 144.643,114.6746 C144.364,114.6126 143.808,114.5356 143.462,114.6736 C142.132,115.2056 141.751,116.3586 141.647,116.8336 M142.51,117.4246 C141.789,117.4246 141.317,117.2666 141.282,117.2546 L141.095,117.1906 L141.114,116.9946 C141.122,116.9136 141.326,114.9896 143.277,114.2096 C143.905,113.9586 144.832,114.2036 144.87,114.2146 L144.962,114.2406 L145.015,114.3216 C145.042,114.3626 145.655,115.3366 145.422,116.1436 C145.323,116.4886 145.09,116.7496 144.732,116.9176 C143.89,117.3146 143.114,117.4246 142.51,117.4246"/>
    <path fill="#FFF" d="M145.7241,116.4098 C145.7241,116.4098 145.7851,113.5058 149.0521,113.0818 C149.6621,113.0028 150.4441,113.0638 150.4441,113.0638 C150.4441,113.0638 151.9851,116.1148 150.2621,116.4098 C148.1451,116.7728 145.7241,116.4098 145.7241,116.4098"/>
    <path fill="#52267D" d="M145.9946,116.193 C146.6446,116.271 148.5426,116.453 150.2206,116.163 C150.4696,116.121 150.6306,116.012 150.7256,115.823 C151.0406,115.198 150.5586,113.897 150.2826,113.304 C150.0356,113.291 149.5106,113.274 149.0846,113.33 C146.5566,113.658 146.0826,115.536 145.9946,116.193 M148.1376,116.822 C146.8116,116.822 145.7536,116.667 145.6866,116.657 L145.4696,116.625 L145.4736,116.404 C145.4746,116.373 145.5786,113.28 149.0196,112.834 C149.6476,112.755 150.4316,112.812 150.4636,112.815 L150.6036,112.825 L150.6666,112.951 C150.7726,113.16 151.6856,115.028 151.1726,116.048 C151.0066,116.377 150.7066,116.587 150.3046,116.656 C149.5776,116.781 148.8216,116.822 148.1376,116.822"/>
    <path fill="#FFF" d="M151.5698,117.0704 C151.5698,117.0704 152.0128,114.2954 154.4958,115.1244 C155.5558,115.4784 156.1288,116.3054 156.1288,116.3054 C156.1288,116.3054 155.5768,118.4144 154.5878,118.1504 C152.8598,117.6894 151.5698,117.0704 151.5698,117.0704"/>
    <path fill="#52267D" d="M151.8569,116.9268 C152.2659,117.1088 153.3359,117.5578 154.6519,117.9078 C154.7619,117.9378 154.8669,117.9218 154.9779,117.8578 C155.4039,117.6108 155.7269,116.7788 155.8529,116.3588 C155.6789,116.1478 155.1819,115.6168 154.4169,115.3618 C153.7879,115.1508 153.2519,115.1768 152.8259,115.4348 C152.2089,115.8088 151.9479,116.5748 151.8569,116.9268 M154.7589,118.4238 C154.6809,118.4238 154.6019,118.4128 154.5229,118.3918 C152.7929,117.9298 151.5149,117.3218 151.4609,117.2958 L151.2939,117.2148 L151.3229,117.0308 C151.3329,116.9738 151.5589,115.6178 152.5659,115.0068 C153.1249,114.6688 153.8009,114.6278 154.5749,114.8868 C155.7019,115.2628 156.3089,116.1268 156.3349,116.1638 L156.3989,116.2578 L156.3709,116.3688 C156.3309,116.5208 155.9609,117.8638 155.2289,118.2898 C155.0769,118.3788 154.9199,118.4238 154.7589,118.4238"/>
    <path fill="#F3E3FF" d="M141.5405,166.7672 C142.1595,166.3032 142.7875,166.0352 143.3275,165.9062"/>
    <path fill="#52267D" d="M141.6909,166.9674 L141.3899,166.5674 C142.1279,166.0144 142.8189,165.7704 143.2699,165.6624 L143.3849,166.1494 C142.9809,166.2454 142.3589,166.4664 141.6909,166.9674"/>
    <path fill="#F3E3FF" d="M145.1411,166.7101 C143.3641,159.4881 146.5701,145.6801 147.1591,142.2821 L149.4931,128.6671 L150.5171,128.6671 C151.8131,128.6671 152.7941,130.0751 152.6101,131.3611 L150.9181,143.1701 C150.3461,147.1691 149.7501,165.6851 156.6991,169.6621 C158.1811,170.5101 160.5901,169.9541 161.4981,169.5211 C164.8011,167.9431 165.7501,163.8251 166.4741,160.5061 C167.9721,153.6361 166.8051,148.2431 166.4731,142.8581 L166.1251,136.1221 C166.0631,134.9041 167.0311,133.6111 168.2481,133.6111 L169.4901,133.6111 L171.7261,147.2271 C172.3981,151.1041 174.1291,164.5491 166.2061,170.8521 C166.0631,170.9661 168.1331,171.4291 167.5331,172.4901 C165.1501,176.7021 158.2451,177.3681 156.9461,179.1711 C151.9381,186.1161 156.6281,200.9121 156.6281,200.9121 C156.6281,200.9121 151.0711,198.6941 147.6281,195.6091 C139.5821,188.3971 138.5611,177.9511 138.5241,174.8761 C138.4791,171.1971 139.4451,168.9151 140.6351,167.5531"/>
    <path fill="#52267D" d="M157.0259,201.3399 L156.5359,201.1449 C156.4799,201.1219 150.8969,198.8749 147.4619,195.7959 C138.6819,187.9259 138.2899,176.1919 138.2739,174.8789 C138.2349,171.6509 138.9859,169.0599 140.4469,167.3879 L140.8239,167.7169 C139.4449,169.2949 138.7359,171.7699 138.7739,174.8729 C138.7899,176.1629 139.1749,187.6959 147.7959,195.4229 C150.5769,197.9159 154.8119,199.8609 156.2359,200.4759 C155.4449,197.7619 152.1879,185.3419 156.7429,179.0249 C157.2879,178.2699 158.6079,177.7489 160.2789,177.0899 C162.7809,176.1039 165.8949,174.8769 167.3149,172.3669 C167.4169,172.1889 167.3969,172.0739 167.3749,172.0029 C167.2649,171.6639 166.6829,171.3959 166.3709,171.2519 C166.1049,171.1289 165.9719,171.0679 165.9519,170.8969 L165.9339,170.7579 L166.0509,170.6559 C168.0049,169.1009 174.1739,162.8189 171.4799,147.2689 L169.2779,133.8609 L168.2489,133.8609 C167.8059,133.8609 167.3689,134.0659 167.0159,134.4369 C166.5899,134.8839 166.3449,135.5249 166.3759,136.1089 L166.7229,142.8459 C166.7979,144.0719 166.9159,145.2769 167.0399,146.5519 C167.4539,150.8159 167.8809,155.2239 166.7179,160.5589 C166.0259,163.7359 165.0769,168.0889 161.6059,169.7459 C160.7069,170.1749 158.1879,170.8039 156.5749,169.8789 C152.7809,167.7069 151.3069,161.3789 150.7399,156.4529 C150.0749,150.6759 150.4059,144.9859 150.6719,143.1349 L152.3629,131.3249 C152.4489,130.7219 152.2409,130.0449 151.8189,129.5579 C151.4609,129.1439 150.9989,128.9169 150.5169,128.9169 L149.7039,128.9169 L147.4049,142.3239 C147.3259,142.7839 147.1979,143.4339 147.0419,144.2319 C146.0079,149.4979 143.8599,160.4559 145.3839,166.6509 L144.8979,166.7699 C143.3469,160.4679 145.5109,149.4369 146.5509,144.1349 C146.7069,143.3419 146.8339,142.6959 146.9129,142.2389 L149.2819,128.4169 L150.5169,128.4169 C151.1449,128.4169 151.7419,128.7059 152.1969,129.2309 C152.7179,129.8329 152.9649,130.6419 152.8569,131.3969 L151.1659,143.2059 C150.4949,147.8939 150.2079,165.6579 156.8229,169.4449 C158.1889,170.2259 160.4709,169.7329 161.3909,169.2949 C164.6399,167.7429 165.5589,163.5289 166.2299,160.4529 C167.3769,155.1939 166.9519,150.8259 166.5419,146.6009 C166.4179,145.3199 166.2999,144.1109 166.2229,142.8739 L165.8759,136.1339 C165.8389,135.4069 166.1299,134.6439 166.6539,134.0919 C167.1009,133.6209 167.6679,133.3609 168.2489,133.3609 L169.7019,133.3609 L169.7369,133.5709 L171.9729,147.1859 C172.3449,149.3349 172.9009,153.6209 172.4379,158.1549 C171.8589,163.8189 169.9079,168.0789 166.6359,170.8229 C167.0489,171.0149 167.6819,171.3259 167.8499,171.8489 C167.9299,172.0969 167.8969,172.3549 167.7509,172.6129 C166.2429,175.2769 163.0379,176.5409 160.4629,177.5559 C158.9299,178.1589 157.6069,178.6809 157.1489,179.3169 C152.2709,186.0819 156.8199,200.6899 156.8669,200.8369 L157.0259,201.3399 Z"/>
    <path fill="#FFF" d="M210.4546,172.734 C210.4546,172.734 211.5986,171.468 210.9556,169.768 C210.7596,169.249 210.0536,168.803 210.0536,168.803 C210.0536,168.803 208.2706,169.114 208.6446,170.316 C209.1836,172.046 210.4546,172.734 210.4546,172.734"/>
    <path fill="#52267D" d="M209.9487,169.3414 C209.6697,169.4224 209.2827,169.5864 209.1447,169.8154 C209.1037,169.8814 209.0647,169.9824 209.1227,170.1674 C209.4227,171.1294 209.9677,171.7234 210.3307,172.0314 C210.5647,171.6074 210.8307,170.8514 210.4877,169.9454 C210.4097,169.7384 210.1497,169.4974 209.9487,169.3414 L209.9487,169.3414 Z M210.5617,173.3614 L210.2167,173.1734 C210.1567,173.1414 208.7607,172.3664 208.1677,170.4644 C208.0367,170.0444 208.0797,169.6394 208.2917,169.2924 C208.7507,168.5424 209.8447,168.3314 209.9677,168.3104 L210.1577,168.2774 L210.3207,168.3804 C210.4067,168.4354 211.1757,168.9344 211.4237,169.5914 C212.1657,171.5534 210.8807,173.0084 210.8257,173.0694 L210.5617,173.3614 Z"/>
    <path fill="#F3E3FF" d="M210.0767,170.9747 C210.0767,170.9747 210.4777,170.5307 210.2527,169.9347 C210.1837,169.7527 209.9357,169.5957 209.9357,169.5957 C209.9357,169.5957 209.3107,169.7047 209.4417,170.1267 C209.6317,170.7327 210.0767,170.9747 210.0767,170.9747"/>
    <path fill="#FFF" d="M201.0942,181.8018 C201.0942,181.8018 200.0092,179.3248 202.6032,177.6888 C203.0862,177.3838 203.7712,177.1278 203.7712,177.1278 C203.7712,177.1278 206.2672,179.1018 204.9272,180.0258 C203.2812,181.1608 201.0942,181.8018 201.0942,181.8018"/>
    <path fill="#52267D" d="M203.6792,177.7042 C203.4532,177.8002 203.1252,177.9502 202.8692,178.1112 C201.2542,179.1312 201.2792,180.4842 201.4222,181.1682 C202.1362,180.9212 203.5312,180.3812 204.6432,179.6142 C204.7962,179.5092 204.8202,179.4202 204.8232,179.3402 C204.8362,178.9072 204.2102,178.1762 203.6792,177.7042 L203.6792,177.7042 Z M200.8132,182.4052 L200.6362,182.0022 C200.2012,181.0102 199.9962,178.7422 202.3362,177.2662 C202.8572,176.9362 203.5662,176.6702 203.5962,176.6602 L203.8602,176.5612 L204.0812,176.7362 C204.3782,176.9712 205.8602,178.2042 205.8222,179.3722 C205.8122,179.6732 205.6982,180.1012 205.2112,180.4372 C203.5182,181.6052 201.3272,182.2542 201.2352,182.2822 L200.8132,182.4052 Z"/>
    <path fill="#F3E3FF" d="M201.9985,180.8702 C201.9985,180.8702 201.3955,179.4962 202.8345,178.5892 C203.1025,178.4202 203.4825,178.2782 203.4825,178.2782 C203.4825,178.2782 204.8665,179.3732 204.1235,179.8852 C203.2105,180.5152 201.9985,180.8702 201.9985,180.8702"/>
    <path fill="#FFF" d="M209.0132,173.69 C209.0132,173.69 210.8932,175.342 209.0892,176.818 C208.3192,177.448 207.4242,177.487 207.4242,177.487 C207.4242,177.487 206.0982,176.07 206.7662,175.45 C207.9342,174.368 209.0132,173.69 209.0132,173.69"/>
    <path fill="#52267D" d="M208.937,174.3434 C208.537,174.6224 207.836,175.1394 207.106,175.8174 C207.074,176.1464 207.36,176.6224 207.625,176.9554 C207.894,176.9034 208.359,176.7694 208.773,176.4304 C209.169,176.1064 209.365,175.7714 209.372,175.4074 C209.379,174.9874 209.136,174.5944 208.937,174.3434 L208.937,174.3434 Z M207.216,177.9964 L207.059,177.8284 C206.89,177.6484 206.049,176.7044 206.079,175.8574 C206.089,175.5514 206.209,175.2844 206.426,175.0834 C207.615,173.9824 208.702,173.2954 208.748,173.2664 L209.063,173.0684 L209.343,173.3144 C209.386,173.3524 210.392,174.2494 210.372,175.4254 C210.36,176.0914 210.035,176.6904 209.406,177.2044 C208.517,177.9324 207.489,177.9844 207.446,177.9864 L207.216,177.9964 Z"/>
    <path fill="#F3E3FF" d="M208.7388,174.8604 C208.7388,174.8604 209.5718,175.5914 208.7728,176.2454 C208.4318,176.5254 208.0358,176.5424 208.0358,176.5424 C208.0358,176.5424 207.4478,175.9144 207.7448,175.6404 C208.2608,175.1604 208.7388,174.8604 208.7388,174.8604"/>
    <path fill="#FFF" d="M192.0728,183.1046 C192.0728,183.1046 191.4528,180.8996 193.8798,180.0246 C196.3058,179.1496 196.9578,179.8776 196.9578,179.8776 C196.9578,179.8776 198.3008,182.1366 197.1008,182.8636 C195.9008,183.5906 192.0728,183.1046 192.0728,183.1046"/>
    <path fill="#52267D" d="M192.5024,182.651 C193.9484,182.802 196.1404,182.862 196.8424,182.436 C197.4464,182.069 196.8404,180.699 196.5734,180.214 C196.4194,180.131 195.7504,179.88 194.0494,180.495 C192.5754,181.026 192.4564,182.102 192.5024,182.651 M194.5794,183.765 C193.3664,183.765 192.2294,183.629 192.0094,183.601 L191.6814,183.559 L191.5914,183.24 C191.3334,182.322 191.4434,180.372 193.7094,179.555 C196.3214,178.613 197.1844,179.38 197.3304,179.544 C197.9804,180.619 198.6414,182.515 197.3594,183.292 C196.7494,183.661 195.6364,183.765 194.5794,183.765"/>
    <path fill="#F3E3FF" d="M193.2114,182.6036 C193.2114,182.6036 192.8894,181.4576 194.1504,181.0016 C195.4124,180.5466 195.7524,180.9256 195.7524,180.9256 C195.7524,180.9256 196.4494,182.1006 195.8264,182.4786 C195.2024,182.8566 193.2114,182.6036 193.2114,182.6036"/>
    <path fill="#FFF" d="M148.9634,131.9869 C148.9634,131.9869 152.8374,134.1769 158.2824,132.1999 C157.9084,133.8889 157.1474,137.2839 157.1474,137.2839 C157.1474,137.2839 152.1024,138.8299 148.2114,136.3819 C148.6094,134.1409 148.9634,131.9869 148.9634,131.9869"/>
    <path fill="#52267D" d="M148.4878,136.2579 C151.8588,138.2779 156.1198,137.2989 156.9358,137.0829 C157.0718,136.4769 157.5998,134.1189 157.9418,132.5829 C153.4848,134.0509 150.1648,132.8259 149.1548,132.3619 C149.0448,133.0289 148.7798,134.6059 148.4878,136.2579 M153.5098,138.0239 C151.8418,138.0239 149.8538,137.7109 148.0788,136.5929 L147.9358,136.5039 L147.9658,136.3379 C148.3638,134.0989 148.7168,131.9469 148.7168,131.9459 L148.7748,131.5939 L149.0868,131.7689 C149.1238,131.7909 152.9318,133.8779 158.1978,131.9649 L158.6258,131.8099 L158.5268,132.2539 C158.1528,133.9439 157.3908,137.3389 157.3908,137.3389 L157.3588,137.4799 L157.2198,137.5229 C157.1048,137.5579 155.5458,138.0239 153.5098,138.0239"/>
    <path fill="#FFF" d="M177.9429,122.1456 C177.9429,122.1456 177.7669,120.2886 175.9219,119.5496 C175.3579,119.3246 173.8379,119.2636 173.8379,119.2636 C173.8379,119.2636 173.4109,121.2306 174.6559,121.8176 C176.4489,122.6606 177.9429,122.1456 177.9429,122.1456"/>
    <path fill="#52267D" d="M174.0483,119.5245 C173.9873,120.0085 173.9303,121.1995 174.7623,121.5915 C176.0633,122.2025 177.2063,122.0575 177.6583,121.9615 C177.5553,121.4835 177.1713,120.3185 175.8283,119.7815 C175.4613,119.6345 174.5593,119.5545 174.0483,119.5245 M176.7853,122.5525 C176.1793,122.5525 175.3973,122.4425 174.5493,122.0435 C173.1403,121.3795 173.5733,119.2985 173.5933,119.2105 L173.6373,119.0045 L173.8473,119.0135 C173.9113,119.0165 175.4173,119.0795 176.0143,119.3175 C177.9793,120.1035 178.1843,122.0405 178.1923,122.1225 L178.2103,122.3175 L178.0243,122.3815 C177.9883,122.3945 177.5133,122.5525 176.7853,122.5525"/>
    <path fill="#FFF" d="M173.2603,121.1969 C173.2603,121.1969 173.2073,118.6659 170.3603,118.2969 C169.8293,118.2279 169.1473,118.2799 169.1473,118.2799 C169.1473,118.2799 167.8043,120.9399 169.3053,121.1969 C171.1513,121.5129 173.2603,121.1969 173.2603,121.1969"/>
    <path fill="#52267D" d="M169.3081,118.5211 C169.0691,119.0411 168.6641,120.1441 168.9301,120.6711 C169.0081,120.8261 169.1411,120.9151 169.3471,120.9501 C170.7791,121.1971 172.3951,121.0491 172.9891,120.9791 C172.9011,120.3881 172.4671,118.8221 170.3281,118.5441 C169.9691,118.4971 169.5311,118.5101 169.3081,118.5211 M171.1581,121.5881 C170.5591,121.5881 169.8981,121.5521 169.2631,121.4431 C168.9021,121.3811 168.6321,121.1921 168.4841,120.8961 C168.0291,119.9931 168.8301,118.3521 168.9231,118.1671 L168.9871,118.0421 L169.1271,118.0311 C169.1581,118.0291 169.8411,117.9781 170.3921,118.0481 C173.4181,118.4411 173.5091,121.1641 173.5101,121.1911 L173.5151,121.4121 L173.2971,121.4441 C173.2401,121.4531 172.3151,121.5881 171.1581,121.5881"/>
    <path fill="#FFF" d="M167.8667,121.3805 C167.8667,121.3805 167.4207,118.5835 164.9197,119.4195 C163.8497,119.7765 163.2727,120.6095 163.2727,120.6095 C163.2727,120.6095 163.8297,122.7345 164.8267,122.4685 C166.5667,122.0045 167.8667,121.3805 167.8667,121.3805"/>
    <path fill="#52267D" d="M163.5474,120.6627 C163.6764,121.0857 164.0034,121.9267 164.4324,122.1757 C164.5444,122.2407 164.6514,122.2577 164.7624,122.2267 C166.0894,121.8727 167.1674,121.4197 167.5784,121.2367 C167.4864,120.8827 167.2224,120.1037 166.6014,119.7287 C166.1704,119.4697 165.6314,119.4447 164.9984,119.6567 C164.2204,119.9157 163.7224,120.4507 163.5474,120.6627 M164.6534,122.7417 C164.4924,122.7417 164.3334,122.6967 164.1804,122.6077 C163.4434,122.1787 163.0704,120.8267 163.0304,120.6737 L163.0024,120.5617 L163.0674,120.4677 C163.0934,120.4307 163.7044,119.5607 164.8404,119.1817 C165.6214,118.9207 166.3004,118.9617 166.8614,119.3027 C167.8754,119.9177 168.1044,121.2837 168.1134,121.3407 L168.1434,121.5247 L167.9754,121.6057 C167.9204,121.6317 166.6344,122.2447 164.8914,122.7097 C164.8114,122.7307 164.7324,122.7417 164.6534,122.7417"/>
    <path fill="#F3E3FF" d="M142.2026 116.6344C142.2026 116.6344 142.3016 115.5924 143.3366 115.1784 143.6526 115.0524 144.1466 115.1864 144.1466 115.1864 144.1466 115.1864 144.7456 116.1214 144.0466 116.4504 143.0406 116.9234 142.2026 116.6344 142.2026 116.6344M146.6392 116.023C146.6392 116.023 146.6792 114.115 148.8262 113.836 149.2262 113.785 149.7402 113.824 149.7402 113.824 149.7402 113.824 150.7512 115.829 149.6202 116.023 148.2292 116.261 146.6392 116.023 146.6392 116.023M152.3706 116.8976C152.3706 116.8976 152.6526 115.1316 154.2316 115.6596 154.9066 115.8846 155.2716 116.4116 155.2716 116.4116 155.2716 116.4116 154.9206 117.7526 154.2906 117.5846 153.1916 117.2916 152.3706 116.8976 152.3706 116.8976M177.146 121.753C177.146 121.753 177.047 120.718 176.019 120.307 175.706 120.181 174.858 120.148 174.858 120.148 174.858 120.148 174.62 121.244 175.314 121.57 176.313 122.041 177.146 121.753 177.146 121.753M172.2788 120.8282C172.2788 120.8282 172.2488 119.3622 170.5988 119.1482 170.2918 119.1082 169.8958 119.1392 169.8958 119.1392 169.8958 119.1392 169.1178 120.6792 169.9878 120.8282 171.0568 121.0122 172.2788 120.8282 172.2788 120.8282M167.0806 121.2711C167.0806 121.2711 166.8166 119.6171 165.3376 120.1111 164.7056 120.3221 164.3636 120.8151 164.3636 120.8151 164.3636 120.8151 164.6926 122.0711 165.2826 121.9141 166.3116 121.6401 167.0806 121.2711 167.0806 121.2711"/>
    <path fill="#FFF" d="M160.5376,136.7828 C160.5376,136.7828 165.3346,137.5308 169.8956,136.4108 C170.3406,138.8898 170.6256,140.7618 170.6256,140.7618 C170.6256,140.7618 167.4626,142.9098 161.6176,141.6638 C160.9286,138.4798 160.5376,136.7828 160.5376,136.7828"/>
    <path fill="#52267D" d="M161.8276,141.4522 C166.7366,142.4532 169.7086,140.9992 170.3526,140.6342 C170.2766,140.1452 170.0356,138.6242 169.6966,136.7152 C165.9346,137.5792 162.0466,137.2202 160.8606,137.0772 C161.0056,137.7122 161.3386,139.1962 161.8276,141.4522 M165.1706,142.3062 C164.1116,142.3062 162.9096,142.1952 161.5656,141.9082 L161.4076,141.8742 L161.3736,141.7162 C160.6836,138.5352 160.2946,136.8402 160.2946,136.8392 L160.2116,136.4792 L160.5756,136.5352 C160.6236,136.5432 165.3766,137.2622 169.8366,136.1682 L170.0956,136.1052 L170.1416,136.3672 C170.5816,138.8202 170.8696,140.7042 170.8726,140.7232 L170.8956,140.8792 L170.7656,140.9682 C170.6636,141.0372 168.7436,142.3062 165.1706,142.3062"/>
    <path fill="#F3E3FF" d="M167.27,131.9654 L173.916,131.9654 L173.916,129.1004 C173.916,127.9404 172.976,126.9994 171.815,126.9994 L167.27,126.9994 C166.562,126.9994 165.988,127.5734 165.988,128.2814 L165.988,130.6834 C165.988,131.3914 166.562,131.9654 167.27,131.9654"/>
    <path fill="#FFF" d="M167.9858,131.8722 L173.8228,131.8722 L173.8228,129.9852 C173.8228,128.8722 172.9208,127.9702 171.8078,127.9702 L167.9858,127.9702 C167.4298,127.9702 166.9788,128.4212 166.9788,128.9772 L166.9788,130.8652 C166.9788,131.4212 167.4298,131.8722 167.9858,131.8722"/>
    <path fill="#52267D" d="M167.9858,128.2203 C167.5688,128.2203 167.2288,128.5603 167.2288,128.9773 L167.2288,130.8653 C167.2288,131.2823 167.5688,131.6223 167.9858,131.6223 L173.5728,131.6223 L173.5728,129.9853 C173.5728,129.0123 172.7808,128.2203 171.8078,128.2203 L167.9858,128.2203 Z M174.0728,132.1223 L167.9858,132.1223 C167.2928,132.1223 166.7288,131.5583 166.7288,130.8653 L166.7288,128.9773 C166.7288,128.2843 167.2928,127.7203 167.9858,127.7203 L171.8078,127.7203 C173.0568,127.7203 174.0728,128.7363 174.0728,129.9853 L174.0728,132.1223 Z"/>
    <path fill="#52267D" d="M172.937,130.7159 C172.937,131.3179 172.449,131.8059 171.847,131.8059 C171.246,131.8059 170.757,131.3179 170.757,130.7159 C170.757,130.1139 171.246,129.6259 171.847,129.6259 C172.449,129.6259 172.937,130.1139 172.937,130.7159"/>
    <path fill="#F3E3FF" d="M150.8286,127.2569 L144.1826,127.2569 L144.1826,124.3919 C144.1826,123.2319 145.1236,122.2909 146.2836,122.2909 L150.8286,122.2909 C151.5376,122.2909 152.1106,122.8649 152.1106,123.5729 L152.1106,125.9749 C152.1106,126.6829 151.5376,127.2569 150.8286,127.2569"/>
    <path fill="#FFF" d="M150.1128,127.1637 L144.2768,127.1637 L144.2768,125.2767 C144.2768,124.1637 145.1778,123.2627 146.2918,123.2627 L150.1128,123.2627 C150.6698,123.2627 151.1208,123.7127 151.1208,124.2697 L151.1208,126.1567 C151.1208,126.7127 150.6698,127.1637 150.1128,127.1637"/>
    <path fill="#52267D" d="M144.5269,126.9137 L150.1129,126.9137 C150.5309,126.9137 150.8709,126.5737 150.8709,126.1567 L150.8709,124.2697 C150.8709,123.8517 150.5309,123.5127 150.1129,123.5127 L146.2919,123.5127 C145.3189,123.5127 144.5269,124.3037 144.5269,125.2767 L144.5269,126.9137 Z M150.1129,127.4137 L144.0269,127.4137 L144.0269,125.2767 C144.0269,124.0287 145.0429,123.0127 146.2919,123.0127 L150.1129,123.0127 C150.8059,123.0127 151.3709,123.5767 151.3709,124.2697 L151.3709,126.1567 C151.3709,126.8497 150.8059,127.4137 150.1129,127.4137 L150.1129,127.4137 Z"/>
    <path fill="#52267D" d="M145.1626 126.0074C145.1626 126.6094 145.6506 127.0974 146.2526 127.0974 146.8536 127.0974 147.3426 126.6094 147.3426 126.0074 147.3426 125.4054 146.8536 124.9184 146.2526 124.9184 145.6506 124.9184 145.1626 125.4054 145.1626 126.0074M180.4771 133.0982L180.4771 133.0982C180.1671 133.0322 179.8901 132.8602 179.6931 132.6122L179.3281 132.1532 180.1411 132.3272 180.6211 132.4302C180.8051 132.4702 180.9221 132.6512 180.8821 132.8362 180.8431 133.0202 180.6621 133.1382 180.4771 133.0982M138.4712 128.0025L138.4712 128.0025C138.7812 127.9365 139.0582 127.7645 139.2552 127.5165L139.6192 127.0565 138.8072 127.2315 138.3272 127.3345C138.1432 127.3735 138.0262 127.5555 138.0652 127.7395 138.1052 127.9245 138.2862 128.0425 138.4712 128.0025"/>
    <path fill="#E1F2FF" d="M149.4282,132.6939 C149.4282,132.6939 153.4872,134.4229 157.5802,132.8429 C157.1522,135.2439 156.7692,136.4699 156.7692,136.4699 C156.7692,136.4699 154.3062,136.6149 152.6752,136.2939 C150.3462,135.8349 149.4282,134.7759 149.4282,132.6939"/>
    <path fill="#FFF" d="M155.0747,135.7726 C155.0747,135.7726 151.3827,136.0806 148.5227,134.5986"/>
    <path fill="#52267D" d="M154.2075,136.0509 C152.9215,136.0509 150.4725,135.8899 148.4075,134.8209 L148.6385,134.3759 C151.4005,135.8089 155.0175,135.5269 155.0545,135.5239 L155.0955,136.0219 C155.0515,136.0259 154.7235,136.0509 154.2075,136.0509"/>
    <path fill="#E1F2FF" d="M168.1382,137.3243 C168.1382,137.3243 164.5382,138.3473 161.3632,137.7123 C161.9622,140.0763 162.2812,140.8183 162.2812,140.8183 C162.2812,140.8183 167.0442,140.1823 168.1382,137.3243"/>
    <path fill="#F3E3FF" d="M166.2065,170.9029 C166.2065,170.9029 165.9885,171.0599 165.6805,171.2459"/>
    <path fill="#52267D" d="M165.8091,171.4601 L165.5511,171.0321 C165.8471,170.8541 166.0561,170.7031 166.0601,170.7001 L166.3531,171.1061 C166.3531,171.1061 166.1281,171.2681 165.8091,171.4601"/>
    <path fill="#FFF" d="M168.4858,138.6851 C168.4858,138.6851 164.8618,139.3721 161.0148,138.9131"/>
    <path fill="#52267D" d="M163.7915,139.3194 C162.9025,139.3194 161.9495,139.2764 160.9855,139.1614 L161.0445,138.6654 C164.8125,139.1154 168.4045,138.4454 168.4385,138.4394 L168.5325,138.9304 C168.5055,138.9364 166.4395,139.3194 163.7915,139.3194"/>
    <path fill="#FFF" d="M162.5474,213.2354 C162.5474,213.2354 161.5864,212.4524 160.3084,213.5014 C159.1414,214.4604 158.2634,215.9424 158.7864,216.0904 C159.3104,216.2394 160.2314,216.3844 161.1974,216.2074 C162.0394,216.0524 162.7824,216.2154 163.1204,214.4544 C163.2774,213.6334 162.5474,213.2354 162.5474,213.2354"/>
    <path fill="#52267D" d="M161.6567,213.2052 C161.3357,213.2052 160.9277,213.3162 160.4667,213.6952 C159.4357,214.5422 158.8057,215.6492 158.8847,215.8802 C159.1227,215.9272 160.0767,216.1602 161.1527,215.9612 C161.2687,215.9402 161.3827,215.9242 161.4947,215.9092 C162.1697,215.8182 162.6157,215.7572 162.8757,214.4072 C162.9947,213.7822 162.4497,213.4672 162.4267,213.4542 L162.3907,213.4302 C162.3717,213.4152 162.0967,213.2052 161.6567,213.2052 M160.2777,216.5382 C159.5227,216.5382 158.9277,216.3912 158.7187,216.3312 C158.5497,216.2832 158.4307,216.1552 158.3937,215.9792 C158.2657,215.3612 159.2167,214.0752 160.1487,213.3082 C161.4577,212.2352 162.5127,212.9042 162.6817,213.0242 C162.9917,213.2012 163.5147,213.7232 163.3657,214.5012 C163.0397,216.2052 162.2877,216.3072 161.5607,216.4052 C161.4577,216.4192 161.3507,216.4332 161.2427,216.4532 C160.9057,216.5152 160.5787,216.5382 160.2777,216.5382"/>
    <path fill="#E1F2FF" d="M162.3286,213.5211 C162.3286,213.5211 161.7296,213.0331 160.9346,213.6871 C160.2096,214.2831 159.6626,215.2051 159.9876,215.2981 C160.3136,215.3901 160.8876,215.4801 161.4886,215.3701 C162.0126,215.2741 162.4746,215.3751 162.6846,214.2791 C162.7826,213.7691 162.3286,213.5211 162.3286,213.5211"/>
    <path fill="#FFF" d="M163.9116,213.2179 C164.4196,213.1499 165.1506,214.2529 165.0666,214.5899 C164.9836,214.9259 164.9256,216.0359 164.1036,216.1559 C163.4986,216.2459 161.3396,216.4699 160.8676,216.0009 C160.4326,215.5689 161.2836,213.5699 163.9116,213.2179"/>
    <path fill="#52267D" d="M163.9448,213.4654 C162.0968,213.7134 161.2658,214.7834 161.0668,215.3764 C160.9768,215.6424 161.0128,215.7924 161.0448,215.8234 C161.3478,216.1244 162.9928,216.0674 164.0678,215.9084 C164.5488,215.8384 164.6898,215.2674 164.7838,214.7384 C164.7988,214.6544 164.8108,214.5834 164.8238,214.5294 C164.8358,214.4204 164.6358,213.9934 164.3198,213.6844 C164.1398,213.5094 164.0028,213.4574 163.9448,213.4654 M162.3418,216.5424 C161.6578,216.5424 160.9758,216.4614 160.6908,216.1784 C160.4898,215.9784 160.4548,215.6274 160.5918,215.2164 C160.9098,214.2754 162.0488,213.2154 163.8788,212.9704 C164.2428,212.9174 164.5628,213.2004 164.7778,213.4404 C165.0398,213.7334 165.3978,214.2974 165.3088,214.6504 C165.2988,214.6944 165.2878,214.7554 165.2758,214.8254 C165.1928,215.2954 165.0198,216.2744 164.1398,216.4034 C163.9838,216.4264 163.1608,216.5424 162.3418,216.5424"/>
    <path fill="#E1F2FF" d="M164.0542,213.5235 C164.3542,213.4835 164.7842,214.1345 164.7362,214.3325 C164.6862,214.5315 164.6522,215.1865 164.1672,215.2575 C163.8102,215.3105 162.5352,215.4425 162.2572,215.1665 C162.0012,214.9105 162.5032,213.7315 164.0542,213.5235"/>
    <path fill="#FFF" d="M166.0601,213.4327 C166.0601,213.4327 165.6221,213.2037 164.7521,213.7007 C163.9861,214.1397 162.8401,214.8407 163.1421,215.7137 C163.4431,216.5857 165.8681,216.2607 166.4071,216.0767 C166.9461,215.8917 167.2841,215.3057 167.1881,214.7917 C166.9811,213.6717 166.0601,213.4327 166.0601,213.4327"/>
    <path fill="#52267D" d="M165.7593,213.6309 C165.5843,213.6309 165.2903,213.6809 164.8763,213.9179 C164.0133,214.4119 163.1603,215.0009 163.3783,215.6319 C163.5843,216.2299 165.6963,216.0559 166.3253,215.8399 C166.7353,215.6999 167.0173,215.2409 166.9423,214.8379 C166.7683,213.8969 166.0273,213.6829 165.9953,213.6739 L165.9503,213.6579 C165.9433,213.6539 165.8793,213.6309 165.7593,213.6309 M164.7223,216.5459 C163.9153,216.5459 163.1073,216.3799 162.9053,215.7949 C162.5233,214.6879 163.9453,213.8749 164.6283,213.4839 C165.4973,212.9869 166.0133,213.1409 166.1463,213.1969 C166.3093,213.2469 167.2173,213.5729 167.4343,214.7459 C167.5543,215.3899 167.1293,216.0929 166.4883,216.3129 C166.2383,216.3989 165.4813,216.5459 164.7223,216.5459"/>
    <path fill="#E1F2FF" d="M166.2251,213.7413 C166.2251,213.7413 165.9651,213.6063 165.4511,213.9003 C164.9961,214.1603 164.3181,214.5753 164.4961,215.0923 C164.6751,215.6083 166.1111,215.4163 166.4301,215.3073 C166.7491,215.1983 166.9501,214.8503 166.8931,214.5463 C166.7701,213.8833 166.2251,213.7413 166.2251,213.7413"/>
    <path fill="#9452BA" d="M155.9224,185.6192 C155.9224,185.6192 156.4164,191.2372 154.9874,200.0672 C153.6584,208.2862 151.3014,210.8652 151.4744,212.9962 C151.6094,214.6462 152.3054,216.1582 153.9614,216.1582 L158.9014,216.1582 C161.2084,216.1582 163.2424,214.6852 163.9844,212.5012 C164.5814,210.7422 165.2024,208.3492 165.5734,205.3232 C165.9534,201.2062 165.8714,197.0782 165.8034,194.6542"/>
    <path fill="#52267D" d="M158.9019,216.6583 L153.9619,216.6583 C152.2769,216.6583 151.1609,215.3043 150.9759,213.0363 C150.8929,212.0203 151.2859,211.0083 151.8789,209.4753 C152.6629,207.4503 153.7359,204.6763 154.4949,199.9873 C155.8949,191.3313 155.4289,185.7183 155.4239,185.6623 L156.4209,185.5753 C156.4249,185.6323 156.9039,191.3573 155.4809,200.1473 C154.7069,204.9393 153.5659,207.8863 152.8109,209.8363 C152.2679,211.2403 151.9089,212.1673 151.9719,212.9553 C152.0549,213.9653 152.4229,215.6583 153.9619,215.6583 L158.9019,215.6583 C160.9849,215.6583 162.8379,214.3253 163.5099,212.3413 C164.2359,210.2043 164.7629,207.8233 165.0779,205.2623 C165.4329,201.4023 165.3849,197.5723 165.3029,194.6683 L166.3029,194.6393 C166.3849,197.5723 166.4339,201.4413 166.0719,205.3683 C165.7479,208.0123 165.2059,210.4613 164.4579,212.6623 C163.6459,215.0523 161.4139,216.6583 158.9019,216.6583"/>
    <path fill="#9452BA" d="M181.2544,189.3355 C179.6174,190.7445 178.7694,193.0505 178.7814,195.1705 C178.7994,198.0005 180.4414,201.6025 179.4004,206.3055 C178.4734,210.4945 176.6274,211.2335 177.1834,214.9915 C177.2834,215.6705 177.8934,216.1585 178.5784,216.1585 L184.0844,216.1585 C186.6174,216.1585 188.7874,214.3205 189.2014,211.8215 C190.3084,205.1465 189.4634,198.8455 188.5734,194.0105"/>
    <path fill="#52267D" d="M184.0845,216.6583 L178.5785,216.6583 C177.6355,216.6583 176.8225,215.9733 176.6885,215.0653 C176.3325,212.6553 176.9255,211.3633 177.6115,209.8663 C178.0545,208.9033 178.5545,207.8123 178.9115,206.1973 C179.5775,203.1893 179.1115,200.6563 178.7005,198.4213 C178.4885,197.2673 178.2875,196.1783 178.2815,195.1733 C178.2675,192.7563 179.2815,190.3743 180.9285,188.9563 L181.5805,189.7143 C180.1495,190.9463 179.2695,193.0353 179.2815,195.1673 C179.2875,196.0833 179.4805,197.1313 179.6845,198.2403 C180.0915,200.4533 180.5985,203.2073 179.8885,206.4133 C179.5085,208.1323 178.9835,209.2753 178.5215,210.2833 C177.8505,211.7453 177.3645,212.8023 177.6775,214.9183 C177.7395,215.3403 178.1275,215.6583 178.5785,215.6583 L184.0845,215.6583 C186.3875,215.6583 188.3325,214.0103 188.7085,211.7403 C189.8095,205.1023 188.9515,198.8263 188.0815,194.1003 L189.0655,193.9203 C189.9495,198.7253 190.8205,205.1133 189.6945,211.9033 C189.2385,214.6583 186.8795,216.6583 184.0845,216.6583"/>
    <polygon fill="#52267D" points="182.551 196.46 180.912 195.653 182.572 194.326 183.298 194.568 183.218 194.806 182.621 194.606 181.375 195.602 182.535 196.174 183.385 195.631 182.686 195.474 182.408 195.674 182.262 195.471 182.631 195.206 184.026 195.519"/>
    <path fill="#FFF" d="M152.5532,213.2354 C152.5532,213.2354 151.5922,212.4524 150.3152,213.5014 C149.1472,214.4604 148.2692,215.9424 148.7922,216.0904 C149.3162,216.2394 150.2372,216.3844 151.2032,216.2074 C152.0452,216.0524 152.7882,216.2154 153.1262,214.4544 C153.2832,213.6334 152.5532,213.2354 152.5532,213.2354"/>
    <path fill="#52267D" d="M151.6626,213.2052 C151.3426,213.2052 150.9336,213.3162 150.4746,213.6952 C149.4416,214.5412 148.8116,215.6492 148.8906,215.8802 C149.1286,215.9272 150.0816,216.1602 151.1586,215.9612 C151.2746,215.9402 151.3886,215.9242 151.5006,215.9092 C152.1756,215.8182 152.6216,215.7572 152.8816,214.4072 C153.0006,213.7822 152.4556,213.4672 152.4326,213.4542 L152.3966,213.4302 C152.3776,213.4152 152.1026,213.2052 151.6626,213.2052 M150.2836,216.5382 C149.5286,216.5382 148.9336,216.3912 148.7246,216.3312 C148.5556,216.2832 148.4366,216.1552 148.3996,215.9792 C148.2716,215.3602 149.2226,214.0752 150.1566,213.3082 C151.4576,212.2362 152.5176,212.9032 152.6876,213.0242 C152.9976,213.2012 153.5206,213.7232 153.3716,214.5012 C153.0456,216.2052 152.2936,216.3072 151.5666,216.4052 C151.4636,216.4192 151.3566,216.4332 151.2486,216.4532 C150.9116,216.5152 150.5846,216.5382 150.2836,216.5382"/>
    <path fill="#E1F2FF" d="M152.3345,213.5211 C152.3345,213.5211 151.7355,213.0331 150.9405,213.6871 C150.2155,214.2831 149.6685,215.2051 149.9945,215.2981 C150.3195,215.3901 150.8935,215.4801 151.4945,215.3701 C152.0185,215.2741 152.4805,215.3751 152.6905,214.2791 C152.7885,213.7691 152.3345,213.5211 152.3345,213.5211"/>
    <polygon fill="#52267D" points="160.472 201.39 158.293 201.231 158.003 199.202 160.073 198.557 160.147 198.796 158.281 199.378 158.512 200.996 160.365 201.131 161.161 200.21 160.135 199.641 159.378 199.861 159.879 200.418 159.694 200.585 158.925 199.732 160.164 199.371 161.552 200.141"/>
    <path fill="#FFF" d="M153.9175,213.2179 C154.4255,213.1499 155.1565,214.2529 155.0725,214.5899 C154.9895,214.9259 154.9315,216.0359 154.1095,216.1559 C153.5045,216.2459 151.3455,216.4699 150.8735,216.0009 C150.4385,215.5689 151.2895,213.5699 153.9175,213.2179"/>
    <path fill="#52267D" d="M153.9507,213.4654 C152.1027,213.7134 151.2717,214.7834 151.0727,215.3764 C150.9827,215.6424 151.0187,215.7924 151.0507,215.8234 C151.3537,216.1244 152.9997,216.0674 154.0737,215.9084 C154.5547,215.8384 154.6957,215.2674 154.7897,214.7384 C154.8047,214.6544 154.8167,214.5834 154.8297,214.5294 C154.8417,214.4204 154.6417,213.9934 154.3257,213.6844 C154.1457,213.5094 154.0077,213.4574 153.9507,213.4654 M152.3477,216.5424 C151.6637,216.5424 150.9817,216.4614 150.6967,216.1784 C150.4957,215.9784 150.4607,215.6274 150.5977,215.2164 C150.9157,214.2754 152.0547,213.2154 153.8847,212.9704 C154.2467,212.9174 154.5697,213.2004 154.7837,213.4404 C155.0457,213.7334 155.4037,214.2974 155.3147,214.6504 C155.3047,214.6944 155.2937,214.7554 155.2817,214.8254 C155.1987,215.2954 155.0257,216.2744 154.1457,216.4034 C153.9897,216.4264 153.1667,216.5424 152.3477,216.5424"/>
    <path fill="#E1F2FF" d="M154.0601,213.5235 C154.3601,213.4835 154.7901,214.1345 154.7421,214.3325 C154.6931,214.5315 154.6581,215.1865 154.1731,215.2575 C153.8161,215.3105 152.5411,215.4425 152.2641,215.1665 C152.0071,214.9105 152.5091,213.7315 154.0601,213.5235"/>
    <path fill="#FFF" d="M155.7212,213.7608 C155.7212,213.7608 155.3332,213.5578 154.5662,213.9978 C153.8872,214.3858 152.8742,215.0068 153.1412,215.7778 C153.4082,216.5488 155.5512,216.2618 156.0282,216.0988 C156.5042,215.9358 156.8042,215.4168 156.7192,214.9628 C156.5352,213.9718 155.7212,213.7608 155.7212,213.7608"/>
    <path fill="#52267D" d="M155.4556,213.9649 C155.3066,213.9649 155.0516,214.0079 154.6896,214.2149 C153.9366,214.6459 153.1916,215.1579 153.3776,215.6959 C153.5516,216.1999 155.4136,216.0459 155.9466,215.8629 C156.2966,215.7429 156.5376,215.3519 156.4736,215.0079 C156.3226,214.1949 155.6846,214.0099 155.6566,214.0029 L155.6126,213.9859 C155.6046,213.9829 155.5526,213.9649 155.4556,213.9649 M154.5456,216.5409 C153.8196,216.5409 153.0886,216.3909 152.9046,215.8599 C152.5596,214.8579 153.8306,214.1309 154.4416,213.7809 C155.2146,213.3389 155.6826,213.4739 155.8076,213.5259 C155.9586,213.5719 156.7706,213.8669 156.9656,214.9169 C157.0736,215.4999 156.6896,216.1369 156.1086,216.3359 C155.8876,216.4119 155.2196,216.5409 154.5456,216.5409"/>
    <path fill="#E1F2FF" d="M155.8677,214.0338 C155.8677,214.0338 155.6387,213.9138 155.1827,214.1748 C154.7807,214.4048 154.1807,214.7718 154.3397,215.2278 C154.4967,215.6848 155.7657,215.5148 156.0487,215.4188 C156.3307,215.3218 156.5087,215.0148 156.4587,214.7458 C156.3487,214.1588 155.8677,214.0338 155.8677,214.0338"/>
    <path fill="#FFF" d="M135.4429,213.9747 C135.4429,213.9747 135.0549,213.7717 134.2869,214.2117 C133.6089,214.5997 132.5949,215.2207 132.8619,215.9917 C133.1289,216.7627 135.2729,216.4757 135.7499,216.3127 C136.2259,216.1497 136.5249,215.6307 136.4409,215.1767 C136.2569,214.1857 135.4429,213.9747 135.4429,213.9747"/>
    <path fill="#52267D" d="M135.1763,214.1788 C135.0273,214.1788 134.7723,214.2218 134.4103,214.4288 C133.6573,214.8598 132.9123,215.3728 133.0983,215.9098 C133.2723,216.4138 135.1343,216.2588 135.6683,216.0768 C136.0173,215.9568 136.2583,215.5658 136.1953,215.2218 C136.0443,214.4088 135.4053,214.2238 135.3783,214.2168 L135.3343,214.1998 C135.3263,214.1968 135.2743,214.1788 135.1763,214.1788 M134.2673,216.7548 C133.5403,216.7548 132.8093,216.6048 132.6253,216.0738 C132.2803,215.0728 133.5513,214.3448 134.1623,213.9948 C134.9363,213.5538 135.4043,213.6888 135.5293,213.7398 C135.6803,213.7858 136.4923,214.0808 136.6873,215.1308 C136.7943,215.7148 136.4103,216.3508 135.8303,216.5498 C135.6093,216.6258 134.9403,216.7548 134.2673,216.7548"/>
    <path fill="#E1F2FF" d="M135.5884,214.2476 C135.5884,214.2476 135.3594,214.1276 134.9044,214.3886 C134.5024,214.6186 133.9024,214.9856 134.0614,215.4416 C134.2184,215.8986 135.4874,215.7286 135.7704,215.6326 C136.0524,215.5356 136.2304,215.2286 136.1804,214.9596 C136.0704,214.3726 135.5884,214.2476 135.5884,214.2476"/>
    <path fill="#FFF" d="M137.7886,213.4317 C138.2966,213.3637 139.0276,214.4667 138.9436,214.8037 C138.8606,215.1397 138.8026,216.2497 137.9806,216.3697 C137.3756,216.4597 135.2166,216.6837 134.7446,216.2147 C134.3096,215.7827 135.1606,213.7837 137.7886,213.4317"/>
    <path fill="#52267D" d="M137.8218,213.6793 C135.9738,213.9273 135.1428,214.9973 134.9438,215.5903 C134.8538,215.8563 134.8898,216.0063 134.9218,216.0373 C135.2248,216.3393 136.8708,216.2813 137.9448,216.1223 C138.4258,216.0523 138.5668,215.4813 138.6608,214.9523 C138.6758,214.8683 138.6878,214.7973 138.7008,214.7433 C138.7128,214.6343 138.5128,214.2073 138.1968,213.8983 C138.0178,213.7233 137.8828,213.6713 137.8218,213.6793 M136.2188,216.7563 C135.5348,216.7563 134.8528,216.6753 134.5678,216.3923 C134.3668,216.1923 134.3318,215.8413 134.4688,215.4303 C134.7868,214.4893 135.9258,213.4293 137.7558,213.1843 C138.1198,213.1373 138.4398,213.4143 138.6548,213.6543 C138.9168,213.9473 139.2748,214.5113 139.1858,214.8643 C139.1758,214.9083 139.1648,214.9693 139.1528,215.0393 C139.0698,215.5093 138.8968,216.4883 138.0168,216.6173 C137.8608,216.6403 137.0378,216.7563 136.2188,216.7563"/>
    <path fill="#E1F2FF" d="M137.9312,213.7374 C138.2312,213.6974 138.6612,214.3484 138.6132,214.5464 C138.5632,214.7454 138.5292,215.4004 138.0442,215.4714 C137.6872,215.5244 136.4122,215.6564 136.1352,215.3804 C135.8782,215.1244 136.3802,213.9454 137.9312,213.7374"/>
    <path fill="#FFF" d="M179.2827,213.2354 C179.2827,213.2354 178.3217,212.4524 177.0447,213.5014 C175.8777,214.4604 174.9997,215.9424 175.5217,216.0904 C176.0457,216.2394 176.9667,216.3844 177.9327,216.2074 C178.7747,216.0524 179.5177,216.2154 179.8557,214.4544 C180.0127,213.6334 179.2827,213.2354 179.2827,213.2354"/>
    <path fill="#52267D" d="M178.3921,213.2052 C178.0721,213.2052 177.6631,213.3162 177.2041,213.6952 C176.1721,214.5412 175.5421,215.6492 175.6211,215.8802 C175.8581,215.9272 176.8111,216.1602 177.8881,215.9612 C178.0041,215.9402 178.1181,215.9242 178.2301,215.9092 C178.9051,215.8182 179.3511,215.7572 179.6111,214.4072 C179.7301,213.7822 179.1851,213.4672 179.1621,213.4542 L179.1261,213.4302 C179.1071,213.4152 178.8321,213.2052 178.3921,213.2052 M177.0131,216.5382 C176.2581,216.5382 175.6631,216.3912 175.4541,216.3312 C175.2851,216.2832 175.1661,216.1552 175.1301,215.9792 C175.0011,215.3612 175.9531,214.0762 176.8851,213.3082 C178.1891,212.2372 179.2471,212.9032 179.4171,213.0242 C179.7271,213.2012 180.2501,213.7232 180.1011,214.5012 C179.7751,216.2052 179.0231,216.3072 178.2961,216.4052 C178.1931,216.4192 178.0861,216.4332 177.9781,216.4532 C177.6411,216.5152 177.3141,216.5382 177.0131,216.5382"/>
    <path fill="#E1F2FF" d="M179.064,213.5211 C179.064,213.5211 178.466,213.0331 177.671,213.6871 C176.945,214.2831 176.398,215.2051 176.724,215.2981 C177.049,215.3901 177.623,215.4801 178.224,215.3701 C178.748,215.2741 179.21,215.3751 179.42,214.2791 C179.518,213.7691 179.064,213.5211 179.064,213.5211"/>
    <path fill="#FFF" d="M180.647,213.2179 C181.155,213.1499 181.886,214.2529 181.802,214.5899 C181.719,214.9259 181.662,216.0359 180.839,216.1559 C180.234,216.2459 178.075,216.4699 177.603,216.0009 C177.168,215.5689 178.02,213.5699 180.647,213.2179"/>
    <path fill="#52267D" d="M180.6802,213.4654 C178.8332,213.7134 178.0012,214.7834 177.8022,215.3774 C177.7122,215.6424 177.7482,215.7924 177.7802,215.8234 C178.0832,216.1244 179.7282,216.0674 180.8032,215.9084 C181.2852,215.8384 181.4252,215.2674 181.5192,214.7384 C181.5342,214.6544 181.5462,214.5834 181.5592,214.5294 C181.5712,214.4204 181.3712,213.9934 181.0552,213.6844 C180.8762,213.5094 180.7412,213.4574 180.6802,213.4654 M179.0772,216.5424 C178.3932,216.5424 177.7112,216.4614 177.4262,216.1784 C177.2262,215.9784 177.1902,215.6284 177.3272,215.2174 C177.6452,214.2754 178.7842,213.2154 180.6142,212.9704 C180.9792,212.9174 181.2982,213.2004 181.5132,213.4404 C181.7752,213.7334 182.1332,214.2974 182.0442,214.6504 C182.0342,214.6944 182.0232,214.7554 182.0112,214.8254 C181.9282,215.2964 181.7552,216.2744 180.8752,216.4034 C180.7192,216.4264 179.8962,216.5424 179.0772,216.5424"/>
    <path fill="#E1F2FF" d="M180.7896,213.5235 C181.0896,213.4835 181.5206,214.1345 181.4716,214.3325 C181.4226,214.5315 181.3886,215.1865 180.9026,215.2575 C180.5456,215.3105 179.2716,215.4425 178.9936,215.1665 C178.7366,214.9105 179.2386,213.7315 180.7896,213.5235"/>
    <path fill="#FFF" d="M182.4517,213.7608 C182.4517,213.7608 182.0627,213.5578 181.2957,213.9978 C180.6167,214.3858 179.6037,215.0068 179.8707,215.7778 C180.1377,216.5488 182.2807,216.2618 182.7577,216.0988 C183.2337,215.9358 183.5337,215.4168 183.4497,214.9628 C183.2657,213.9718 182.4517,213.7608 182.4517,213.7608"/>
    <path fill="#52267D" d="M182.1851,213.9649 C182.0361,213.9649 181.7811,214.0079 181.4191,214.2149 C180.6661,214.6459 179.9211,215.1579 180.1071,215.6959 C180.2811,216.1999 182.1431,216.0459 182.6761,215.8629 C183.0261,215.7429 183.2671,215.3519 183.2041,215.0079 C183.0531,214.1949 182.4141,214.0099 182.3871,214.0029 L182.3431,213.9859 C182.3351,213.9839 182.2831,213.9649 182.1851,213.9649 M181.2751,216.5409 C180.5491,216.5409 179.8181,216.3909 179.6341,215.8599 C179.2891,214.8579 180.5601,214.1309 181.1711,213.7809 C181.9441,213.3389 182.4131,213.4739 182.5381,213.5259 C182.6891,213.5719 183.5011,213.8669 183.6961,214.9169 C183.8031,215.5009 183.4181,216.1369 182.8381,216.3359 C182.6171,216.4119 181.9491,216.5409 181.2751,216.5409"/>
    <path fill="#E1F2FF" d="M182.5972,214.0338 C182.5972,214.0338 182.3682,213.9138 181.9122,214.1748 C181.5112,214.4048 180.9102,214.7718 181.0692,215.2278 C181.2272,215.6848 182.4962,215.5148 182.7792,215.4188 C183.0612,215.3218 183.2382,215.0148 183.1882,214.7458 C183.0792,214.1588 182.5972,214.0338 182.5972,214.0338"/>
    <path fill="#FFF" d="M144.4575,213.9068 C144.6165,213.7728 144.8065,213.7358 144.9635,213.8088 C145.5465,214.0848 147.0205,214.8668 146.7155,215.9258 C146.4785,216.7498 145.9755,216.5018 145.0125,216.5198 L144.2855,216.5328 C144.1355,216.5358 144.0025,216.4588 143.9195,216.3208 C143.5015,215.6218 143.7275,214.5238 144.4075,213.9488 L144.4575,213.9068 Z"/>
    <path fill="#52267D" d="M145.1147,216.2686 C145.2827,216.2686 145.4367,216.2756 145.5767,216.2816 C146.2047,216.3096 146.3467,216.3016 146.4747,215.8556 C146.7077,215.0466 145.5607,214.3676 144.8567,214.0356 C144.7897,214.0056 144.7027,214.0276 144.6197,214.0976 L144.5697,214.1396 C143.9797,214.6376 143.7767,215.5956 144.1347,216.1916 C144.1707,216.2536 144.1977,216.2786 144.2807,216.2836 L145.0077,216.2696 C145.0447,216.2686 145.0797,216.2686 145.1147,216.2686 M145.8737,216.7906 C145.7707,216.7906 145.6637,216.7866 145.5537,216.7816 C145.3947,216.7746 145.2167,216.7676 145.0167,216.7696 L144.2907,216.7836 L144.2777,216.7836 C144.0447,216.7836 143.8317,216.6596 143.7057,216.4496 C143.2227,215.6446 143.4707,214.4126 144.2467,213.7586 L144.2967,213.7156 C144.5337,213.5176 144.8187,213.4676 145.0697,213.5826 C146.5347,214.2746 147.2037,215.1316 146.9557,215.9946 C146.7567,216.6856 146.3567,216.7906 145.8737,216.7906"/>
    <path fill="#E1F2FF" d="M144.5327,214.1441 C144.6477,214.0461 144.7867,214.0191 144.8997,214.0731 C145.3237,214.2731 146.3947,214.8411 146.1737,215.6111 C146.0017,216.2101 145.6357,216.0301 144.9357,216.0421 L144.4077,216.0521 C144.2987,216.0541 144.2017,215.9981 144.1417,215.8971 C143.8377,215.3901 144.0027,214.5921 144.4967,214.1751 L144.5327,214.1441 Z"/>
    <path fill="#FFF" d="M141.0483,213.5904 C141.0483,213.5904 140.1563,212.7284 138.7953,213.6654 C137.5503,214.5224 136.5503,215.9234 137.0593,216.1164 C137.5673,216.3094 138.4723,216.5314 139.4513,216.4374 C140.3023,216.3544 141.0293,216.5794 141.5163,214.8534 C141.7413,214.0494 141.0483,213.5904 141.0483,213.5904"/>
    <path fill="#52267D" d="M140.0435,213.4796 C139.7425,213.4796 139.3685,213.5746 138.9375,213.8716 C137.8375,214.6276 137.1165,215.6776 137.1745,215.9146 C137.4065,215.9806 138.3405,216.2956 139.4275,216.1876 C139.5445,216.1766 139.6595,216.1706 139.7725,216.1656 C140.4525,216.1316 140.9025,216.1086 141.2755,214.7856 C141.4475,214.1726 140.9315,213.8126 140.9085,213.7976 L140.8755,213.7716 C140.8555,213.7526 140.5555,213.4796 140.0435,213.4796 M138.9805,216.7096 C138.0035,216.7096 137.2145,216.4426 136.9705,216.3506 C136.8065,216.2876 136.6995,216.1496 136.6785,215.9716 C136.6025,215.3446 137.6585,214.1446 138.6535,213.4596 C140.0445,212.5006 141.0435,213.2586 141.2005,213.3916 C141.4945,213.5936 141.9715,214.1586 141.7565,214.9206 C141.2865,216.5906 140.5285,216.6286 139.7975,216.6646 C139.6915,216.6696 139.5855,216.6756 139.4765,216.6866 C139.3065,216.7026 139.1415,216.7096 138.9805,216.7096"/>
    <path fill="#E1F2FF" d="M140.8062,213.8565 C140.8062,213.8565 140.2512,213.3195 139.4042,213.9035 C138.6292,214.4365 138.0062,215.3085 138.3242,215.4285 C138.6402,215.5475 139.2022,215.6865 139.8122,215.6275 C140.3422,215.5765 140.7942,215.7165 141.0972,214.6425 C141.2382,214.1425 140.8062,213.8565 140.8062,213.8565"/>
    <path fill="#FFF" d="M187.8286,216.5328 L63.6946,216.5328 C62.4496,216.5328 61.4396,215.5228 61.4396,214.2778 L61.4396,32.2548 C61.4396,31.0098 62.4496,29.9998 63.6946,29.9998 L187.8286,29.9998 C189.0736,29.9998 190.0836,31.0098 190.0836,32.2548 L190.0836,214.2778 C190.0836,215.5228 189.0736,216.5328 187.8286,216.5328"/>
    <path fill="#5E63B6" d="M63.6948,31.0001 C63.0028,31.0001 62.4398,31.5631 62.4398,32.2551 L62.4398,214.2781 C62.4398,214.9701 63.0028,215.5331 63.6948,215.5331 L187.8288,215.5331 C188.5208,215.5331 189.0838,214.9701 189.0838,214.2781 L189.0838,32.2551 C189.0838,31.5631 188.5208,31.0001 187.8288,31.0001 L63.6948,31.0001 Z M187.8288,217.5331 L63.6948,217.5331 C61.8998,217.5331 60.4398,216.0731 60.4398,214.2781 L60.4398,32.2551 C60.4398,30.4601 61.8998,29.0001 63.6948,29.0001 L187.8288,29.0001 C189.6238,29.0001 191.0838,30.4601 191.0838,32.2551 L191.0838,214.2781 C191.0838,216.0731 189.6238,217.5331 187.8288,217.5331 L187.8288,217.5331 Z"/>
    <path fill="#E1F2FF" d="M146.8511,88.8092 C146.8511,102.4682 135.7781,113.5412 122.1191,113.5412 C108.4591,113.5412 97.3861,102.4682 97.3861,88.8092 C97.3861,75.1502 108.4591,64.0772 122.1191,64.0772 C135.7781,64.0772 146.8511,75.1502 146.8511,88.8092"/>
    <path fill="#FFF" d="M149.8511,83.8092 C149.8511,97.4682 138.7781,108.5412 125.1191,108.5412 C111.4591,108.5412 100.3861,97.4682 100.3861,83.8092 C100.3861,70.1502 111.4591,59.0772 125.1191,59.0772 C138.7781,59.0772 149.8511,70.1502 149.8511,83.8092"/>
    <path fill="#5E63B6" d="M125.1187,60.0768 C112.0327,60.0768 101.3867,70.7228 101.3867,83.8088 C101.3867,96.8948 112.0327,107.5418 125.1187,107.5418 C138.2047,107.5418 148.8507,96.8948 148.8507,83.8088 C148.8507,70.7228 138.2047,60.0768 125.1187,60.0768 M125.1187,109.5418 C110.9297,109.5418 99.3867,97.9978 99.3867,83.8088 C99.3867,69.6198 110.9297,58.0768 125.1187,58.0768 C139.3067,58.0768 150.8507,69.6198 150.8507,83.8088 C150.8507,97.9978 139.3067,109.5418 125.1187,109.5418"/>
    <path fill="#9452BA" d="M131.2661,96.0069 C131.3701,96.3159 131.4611,96.5259 131.4891,96.5949 C131.4971,96.6019 131.4801,96.5909 131.4891,96.5949 C131.4891,96.5949 131.4891,96.5969 131.4891,96.5949 C131.4901,96.5959 131.4881,96.5949 131.4881,96.5949 C130.7891,89.8549 134.6121,87.0459 135.8401,82.5689 C135.8461,82.5029 135.8591,82.4299 135.8791,82.3479 C135.9051,82.2479 135.9251,82.1449 135.9411,82.0419 C136.1231,80.8029 135.6161,79.3609 134.6551,77.8599 C134.6511,77.8509 134.6441,77.8429 134.6391,77.8359 C134.5611,77.7109 134.4761,77.5859 134.3911,77.4609 C134.3911,77.4609 134.3881,77.4589 134.3871,77.4559 C134.2301,77.2279 134.0611,76.9979 133.8841,76.7669 C133.8661,76.7429 133.8491,76.7179 133.8301,76.6949 C133.7811,76.6319 133.7291,76.5699 133.6811,76.5069 C133.6291,76.4409 133.5791,76.3759 133.5281,76.3129 C133.4741,76.2489 133.4221,76.1869 133.3701,76.1249 C133.3151,76.0589 133.2611,75.9949 133.2051,75.9289 C133.1681,75.8849 133.1271,75.8389 133.0871,75.7929 C131.5771,74.0529 129.6111,72.3349 127.5591,70.8389 C127.5591,70.8389 127.5441,70.8159 127.5591,70.8389 C127.8311,73.3749 127.8651,75.9119 127.6251,77.9409 C127.3351,80.3859 126.4601,83.2329 125.2461,85.8129 C122.4041,85.5799 119.4991,84.9219 117.2341,83.9549 C115.3411,83.1459 113.1711,81.8699 111.0971,80.3559 C111.1201,80.5669 111.1451,80.7749 111.1691,80.9859 C111.1771,81.0479 111.1861,81.1099 111.1941,81.1729 C111.2141,81.3229 111.2321,81.4719 111.2551,81.6219 C111.2641,81.6909 111.2741,81.7599 111.2851,81.8289 C111.3071,81.9799 111.3291,82.1289 111.3541,82.2779 C111.3631,82.3379 111.3731,82.3999 111.3831,82.4609 C111.4141,82.6499 111.4461,82.8379 111.4811,83.0249 C111.4831,83.0449 111.4851,83.0629 111.4901,83.0809 C111.5281,83.2989 111.5701,83.5149 111.6131,83.7309 C111.6151,83.7479 111.6201,83.7629 111.6231,83.7799 C111.6631,83.9749 111.7021,84.1649 111.7441,84.3569 C111.7531,84.3969 111.7621,84.4349 111.7691,84.4739 C111.8081,84.6489 111.8491,84.8229 111.8901,84.9969 C111.8991,85.0299 111.9081,85.0639 111.9151,85.0989 C111.9651,85.2989 112.0141,85.4989 112.0651,85.6949 C112.0671,85.6959 112.0671,85.6979 112.0671,85.6979 C112.2351,86.3309 112.4191,86.9419 112.6181,87.5279 C112.6201,87.5359 112.6231,87.5419 112.6251,87.5489 C112.9621,88.5279 113.3461,89.4299 113.7751,90.2189 C113.8381,90.3339 113.9021,90.4459 113.9671,90.5559 C113.9701,90.5599 113.9701,90.5649 113.9731,90.5689 L113.9741,90.5699 C114.0331,90.6699 114.0931,90.7679 114.1521,90.8619 L114.1541,90.8639 C114.1541,90.8639 114.1591,90.8709 114.1611,90.8749 C114.2251,90.9779 114.2911,91.0789 114.3581,91.1739 L114.3581,91.1749 C114.3681,91.1889 114.3761,91.1999 114.3871,91.2139 C114.3881,91.2139 114.3861,91.2159 114.3871,91.2169 C114.4741,91.3419 114.5631,91.4629 114.6511,91.5779 C114.6681,91.5969 114.6831,91.6159 114.6961,91.6339 C114.7011,91.6409 114.7071,91.6469 114.7121,91.6559 C114.8141,91.7849 114.9191,91.9099 115.0281,92.0269 C115.1021,92.1099 115.1791,92.1879 115.2561,92.2639 C115.2881,92.2969 115.3231,92.3259 115.3551,92.3569 C115.4031,92.4029 115.4521,92.4449 115.5001,92.4889 C115.5371,92.5209 115.5741,92.5489 115.6121,92.5799 C115.6581,92.6189 115.7061,92.6549 115.7531,92.6929 C115.7901,92.7209 115.8281,92.7469 115.8671,92.7739 C115.9161,92.8089 115.9641,92.8409 116.0131,92.8749 C116.0501,92.8979 116.0891,92.9219 116.1271,92.9449 C116.1801,92.9759 116.2331,93.0039 116.2841,93.0339 C116.3211,93.0539 116.3571,93.0719 116.3931,93.0899 C116.4531,93.1189 116.5131,93.1449 116.5751,93.1709 C116.6031,93.1809 116.6351,93.1979 116.6651,93.2089 C116.7581,93.2459 116.8511,93.2769 116.9441,93.3029 C117.0081,93.3219 117.0611,93.3409 117.1121,93.3609 C121.6121,94.5499 125.9941,92.6659 131.4891,96.5949"/>
    <polygon fill="#ACD3EF" points="106.469 131.12 103.5 128.15 95.367 136.284 90.312 131.229 87.343 134.199 95.341 142.197 95.367 142.171 95.392 142.197"/>
    <path fill="#FFF" d="M112.376,137.1734 L164.283,137.1734"/>
    <path fill="#5E63B6" d="M164.2827,138.1734 L112.3757,138.1734 C111.8237,138.1734 111.3757,137.7254 111.3757,137.1734 C111.3757,136.6214 111.8237,136.1734 112.3757,136.1734 L164.2827,136.1734 C164.8357,136.1734 165.2827,136.6214 165.2827,137.1734 C165.2827,137.7254 164.8357,138.1734 164.2827,138.1734"/>
    <polygon fill="#ACD3EF" points="106.469 150.738 103.5 147.768 95.367 155.902 90.312 150.847 87.343 153.817 95.341 161.815 95.367 161.789 95.392 161.815"/>
    <path fill="#FFF" d="M112.376,157.732 L164.283,157.732"/>
    <path fill="#5E63B6" d="M164.2827,158.732 L112.3757,158.732 C111.8237,158.732 111.3757,158.284 111.3757,157.732 C111.3757,157.18 111.8237,156.732 112.3757,156.732 L164.2827,156.732 C164.8357,156.732 165.2827,157.18 165.2827,157.732 C165.2827,158.284 164.8357,158.732 164.2827,158.732"/>
    <path fill="#FFF" d="M112.376,178.9835 L164.283,178.9835"/>
    <path fill="#5E63B6" d="M164.2827 179.9835L112.3757 179.9835C111.8237 179.9835 111.3757 179.5355 111.3757 178.9835 111.3757 178.4315 111.8237 177.9835 112.3757 177.9835L164.2827 177.9835C164.8357 177.9835 165.2827 178.4315 165.2827 178.9835 165.2827 179.5355 164.8357 179.9835 164.2827 179.9835M205.978 71.5416C205.425 71.5416 204.978 71.0936 204.978 70.5416L204.978 63.5416C204.978 62.9896 205.425 62.5416 205.978 62.5416 206.531 62.5416 206.978 62.9896 206.978 63.5416L206.978 70.5416C206.978 71.0936 206.531 71.5416 205.978 71.5416"/>
    <path fill="#5E63B6" d="M209.478 68.0416L202.478 68.0416C201.925 68.0416 201.478 67.5936 201.478 67.0416 201.478 66.4896 201.925 66.0416 202.478 66.0416L209.478 66.0416C210.031 66.0416 210.478 66.4896 210.478 67.0416 210.478 67.5936 210.031 68.0416 209.478 68.0416M41.7275 188.2603C41.4515 188.2603 41.2275 188.0363 41.2275 187.7603L41.2275 183.8233C41.2275 183.5463 41.4515 183.3233 41.7275 183.3233 42.0035 183.3233 42.2275 183.5463 42.2275 183.8233L42.2275 187.7603C42.2275 188.0363 42.0035 188.2603 41.7275 188.2603"/>
    <path fill="#5E63B6" d="M43.6963 186.2916L39.7583 186.2916C39.4823 186.2916 39.2593 186.0676 39.2593 185.7916 39.2593 185.5156 39.4823 185.2916 39.7583 185.2916L43.6963 185.2916C43.9723 185.2916 44.1963 185.5156 44.1963 185.7916 44.1963 186.0676 43.9723 186.2916 43.6963 186.2916M216.728 128.2603C216.452 128.2603 216.228 128.0363 216.228 127.7603L216.228 123.8233C216.228 123.5463 216.452 123.3233 216.728 123.3233 217.004 123.3233 217.228 123.5463 217.228 123.8233L217.228 127.7603C217.228 128.0363 217.004 128.2603 216.728 128.2603"/>
    <path fill="#5E63B6" d="M218.6968 126.2916L214.7588 126.2916C214.4828 126.2916 214.2598 126.0676 214.2598 125.7916 214.2598 125.5156 214.4828 125.2916 214.7588 125.2916L218.6968 125.2916C218.9728 125.2916 219.1968 125.5156 219.1968 125.7916 219.1968 126.0676 218.9728 126.2916 218.6968 126.2916M47.7275 88.2603C47.4515 88.2603 47.2275 88.0363 47.2275 87.7603L47.2275 83.8233C47.2275 83.5463 47.4515 83.3233 47.7275 83.3233 48.0035 83.3233 48.2275 83.5463 48.2275 83.8233L48.2275 87.7603C48.2275 88.0363 48.0035 88.2603 47.7275 88.2603"/>
    <path fill="#5E63B6" d="M49.6963,86.2916 L45.7583,86.2916 C45.4823,86.2916 45.2593,86.0676 45.2593,85.7916 C45.2593,85.5156 45.4823,85.2916 45.7583,85.2916 L49.6963,85.2916 C49.9723,85.2916 50.1963,85.5156 50.1963,85.7916 C50.1963,86.0676 49.9723,86.2916 49.6963,86.2916"/>
    <path fill="#FFF" d="M25.415,122.4166 L25.415,130.5416"/>
    <path fill="#5E63B6" d="M25.415,131.5416 C24.863,131.5416 24.415,131.0936 24.415,130.5416 L24.415,122.4166 C24.415,121.8646 24.863,121.4166 25.415,121.4166 C25.967,121.4166 26.415,121.8646 26.415,122.4166 L26.415,130.5416 C26.415,131.0936 25.967,131.5416 25.415,131.5416"/>
    <path fill="#FFF" d="M29.4775,126.4791 L21.3525,126.4791"/>
    <path fill="#5E63B6" d="M29.4775,127.4791 L21.3525,127.4791 C20.8005,127.4791 20.3525,127.0311 20.3525,126.4791 C20.3525,125.9271 20.8005,125.4791 21.3525,125.4791 L29.4775,125.4791 C30.0295,125.4791 30.4775,125.9271 30.4775,126.4791 C30.4775,127.0311 30.0295,127.4791 29.4775,127.4791"/>
    <path fill="#FFF" d="M245.1665,216.2911 L252.1405,216.2911"/>
    <path fill="#5E63B6" d="M252.1401,217.2911 L245.1661,217.2911 C244.6141,217.2911 244.1661,216.8431 244.1661,216.2911 C244.1661,215.7391 244.6141,215.2911 245.1661,215.2911 L252.1401,215.2911 C252.6931,215.2911 253.1401,215.7391 253.1401,216.2911 C253.1401,216.8431 252.6931,217.2911 252.1401,217.2911"/>
    <path fill="#FFF" d="M2,216.2911 L10.973,216.2911"/>
    <path fill="#5E63B6" d="M10.9731,217.2911 L2.0001,217.2911 C1.4481,217.2911 1.0001,216.8431 1.0001,216.2911 C1.0001,215.7391 1.4481,215.2911 2.0001,215.2911 L10.9731,215.2911 C11.5251,215.2911 11.9731,215.7391 11.9731,216.2911 C11.9731,216.8431 11.5251,217.2911 10.9731,217.2911"/>
    <path fill="#FFF" d="M94.3823,225.608 L161.5683,225.608"/>
    <path fill="#5E63B6" d="M161.5679,226.608 L94.3819,226.608 C93.8299,226.608 93.3819,226.16 93.3819,225.608 C93.3819,225.056 93.8299,224.608 94.3819,224.608 L161.5679,224.608 C162.1209,224.608 162.5679,225.056 162.5679,225.608 C162.5679,226.16 162.1209,226.608 161.5679,226.608"/>
    <path fill="#FFF" d="M170.187,225.608 L179.328,225.608"/>
    <path fill="#5E63B6" d="M179.3276,226.608 L170.1866,226.608 C169.6346,226.608 169.1866,226.16 169.1866,225.608 C169.1866,225.056 169.6346,224.608 170.1866,224.608 L179.3276,224.608 C179.8806,224.608 180.3276,225.056 180.3276,225.608 C180.3276,226.16 179.8806,226.608 179.3276,226.608"/>
    <path fill="#FFF" d="M86.5,225.5328 L81.5,225.6078"/>
    <path fill="#5E63B6" d="M81.4995,226.608 C80.9545,226.608 80.5085,226.17 80.4995,225.623 C80.4915,225.071 80.9325,224.616 81.4845,224.608 L86.4845,224.533 C87.0595,224.566 87.4915,224.965 87.4995,225.518 C87.5085,226.07 87.0675,226.525 86.5155,226.533 L81.5155,226.608 L81.4995,226.608 Z"/>
    <path fill="#FFF" d="M100.2095,184.0289 L92.4655,184.0289 C91.3615,184.0289 90.4655,183.1329 90.4655,182.0289 L90.4655,174.2849 C90.4655,173.1809 91.3615,172.2849 92.4655,172.2849 L100.2095,172.2849 C101.3135,172.2849 102.2095,173.1809 102.2095,174.2849 L102.2095,182.0289 C102.2095,183.1329 101.3135,184.0289 100.2095,184.0289"/>
    <path fill="#5E63B6" d="M92.4658,173.2852 C91.9148,173.2852 91.4658,173.7342 91.4658,174.2852 L91.4658,182.0292 C91.4658,182.5802 91.9148,183.0292 92.4658,183.0292 L100.2098,183.0292 C100.7608,183.0292 101.2098,182.5802 101.2098,182.0292 L101.2098,174.2852 C101.2098,173.7342 100.7608,173.2852 100.2098,173.2852 L92.4658,173.2852 Z M100.2098,185.0292 L92.4658,185.0292 C90.8118,185.0292 89.4658,183.6832 89.4658,182.0292 L89.4658,174.2852 C89.4658,172.6312 90.8118,171.2852 92.4658,171.2852 L100.2098,171.2852 C101.8638,171.2852 103.2098,172.6312 103.2098,174.2852 L103.2098,182.0292 C103.2098,183.6832 101.8638,185.0292 100.2098,185.0292 L100.2098,185.0292 Z"/>
  </g>
</svg>
