<?xml version="1.0" encoding="UTF-8" standalone="no"?>
<!DOCTYPE svg PUBLIC "-//W3C//DTD SVG 1.0//EN" "http://www.w3.org/TR/2001/PR-SVG-20010719/DTD/svg10.dtd">
<svg width="80cm" height="40cm" viewBox="-303 117 1587 791" xmlns="http://www.w3.org/2000/svg" xmlns:xlink="http://www.w3.org/1999/xlink">
  <g id="Background">
    <g>
      <rect style="fill: #6ab6ea; fill-opacity: 1; stroke-opacity: 1; stroke-width: 4; stroke: #52267d" x="640" y="817.448" width="226" height="89" rx="0" ry="0"/>
      <text font-size="22.5778" style="fill: #52267d; fill-opacity: 1; stroke: none;text-anchor:middle;font-family:Lato;font-style:normal;font-weight:700" x="753" y="856.026">
        <tspan x="753" y="856.026">Teamwork</tspan>
        <tspan x="753" y="884.248">Assistant</tspan>
      </text>
    </g>
    <g>
      <rect style="fill: #ffffff; fill-opacity: 1; stroke-opacity: 1; stroke-width: 4; stroke: #52267d" x="340" y="120" width="226" height="89" rx="0" ry="0"/>
      <text font-size="22.5778" style="fill: #52267d; fill-opacity: 1; stroke: none;text-anchor:middle;font-family:Lato;font-style:normal;font-weight:700" x="453" y="172.689">
        <tspan x="453" y="172.689">Asset</tspan>
      </text>
    </g>
    <g>
      <rect style="fill: #ffffff; fill-opacity: 1; stroke-opacity: 1; stroke-width: 4; stroke: #52267d" x="740" y="120" width="226" height="89" rx="0" ry="0"/>
      <text font-size="22.5778" style="fill: #52267d; fill-opacity: 1; stroke: none;text-anchor:middle;font-family:Lato;font-style:normal;font-weight:700" x="853" y="158.578">
        <tspan x="853" y="158.578">Reference</tspan>
        <tspan x="853" y="186.8">Entity</tspan>
      </text>
    </g>
    <g>
      <rect style="fill: #e1f2ff; fill-opacity: 1; stroke-opacity: 1; stroke-width: 4; stroke: #52267d" x="560" y="400" width="226" height="89" rx="0" ry="0"/>
      <text font-size="22.5778" style="fill: #52267d; fill-opacity: 1; stroke: none;text-anchor:middle;font-family:Lato;font-style:normal;font-weight:700" x="673" y="452.689">
        <tspan x="673" y="452.689">Enrichment</tspan>
      </text>
    </g>
    <g>
      <rect style="fill: #acd3ef; fill-opacity: 1; stroke-opacity: 1; stroke-width: 4; stroke: #52267d" x="280" y="600" width="226" height="89" rx="0" ry="0"/>
      <text font-size="22.5778" style="fill: #52267d; fill-opacity: 1; stroke: none;text-anchor:middle;font-family:Lato;font-style:normal;font-weight:700" x="393" y="638.578">
        <tspan x="393" y="638.578">Franklin</tspan>
        <tspan x="393" y="666.8">Insights</tspan>
      </text>
    </g>
    <g>
      <rect style="fill: #acd3ef; fill-opacity: 1; stroke-opacity: 1; stroke-width: 4; stroke: #52267d" x="-20" y="600" width="226" height="89" rx="0" ry="0"/>
      <text font-size="22.5778" style="fill: #52267d; fill-opacity: 1; stroke: none;text-anchor:middle;font-family:Lato;font-style:normal;font-weight:700" x="93" y="638.578">
        <tspan x="93" y="638.578">Rule</tspan>
        <tspan x="93" y="666.8">Engine</tspan>
      </text>
    </g>
    <g>
      <rect style="fill: #e1f2ff; fill-opacity: 1; stroke-opacity: 1; stroke-width: 4; stroke: #52267d" x="840" y="280" width="226" height="89" rx="0" ry="0"/>
      <text font-size="22.5778" style="fill: #52267d; fill-opacity: 1; stroke: none;text-anchor:middle;font-family:Lato;font-style:normal;font-weight:700" x="953" y="332.689">
        <tspan x="953" y="332.689">Structure</tspan>
      </text>
    </g>
    <g>
      <rect style="fill: #e1f2ff; fill-opacity: 1; stroke-opacity: 1; stroke-width: 4; stroke: #52267d" x="900" y="600" width="226" height="89" rx="0" ry="0"/>
      <text font-size="22.5778" style="fill: #52267d; fill-opacity: 1; stroke: none;text-anchor:middle;font-family:Lato;font-style:normal;font-weight:700" x="1013" y="652.689">
        <tspan x="1013" y="652.689">Permission</tspan>
      </text>
    </g>
    <g>
      <rect style="fill: #6ab6ea; fill-opacity: 1; stroke-opacity: 1; stroke-width: 4; stroke: #52267d" x="600" y="600" width="226" height="89" rx="0" ry="0"/>
      <text font-size="22.5778" style="fill: #52267d; fill-opacity: 1; stroke: none;text-anchor:middle;font-family:Lato;font-style:normal;font-weight:700" x="713" y="652.689">
        <tspan x="713" y="652.689">Workflow</tspan>
      </text>
    </g>
    <g>
      <rect style="fill: #6ab6ea; fill-opacity: 1; stroke-opacity: 1; stroke-width: 4; stroke: #ff0000" x="-300" y="600" width="226" height="89" rx="0" ry="0"/>
      <text font-size="22.5778" style="fill: #52267d; fill-opacity: 1; stroke: none;text-anchor:middle;font-family:Lato;font-style:normal;font-weight:700" x="-187" y="638.578">
        <tspan x="-187" y="638.578">Product</tspan>
        <tspan x="-187" y="666.8">Revert</tspan>
      </text>
    </g>
    <g>
      <rect style="fill: #ffffff; fill-opacity: 1; stroke-opacity: 1; stroke-width: 4; stroke: #52267d" x="80" y="120" width="226" height="89" rx="0" ry="0"/>
      <text font-size="22.5778" style="fill: #52267d; fill-opacity: 1; stroke: none;text-anchor:middle;font-family:Lato;font-style:normal;font-weight:700" x="193" y="172.689">
        <tspan x="193" y="172.689">Channel</tspan>
      </text>
    </g>
    <g>
      <rect style="fill: #ffffff; fill-opacity: 1; stroke-opacity: 1; stroke-width: 4; stroke: #52267d" x="-280" y="120" width="226" height="89" rx="0" ry="0"/>
      <text font-size="22.5778" style="fill: #52267d; fill-opacity: 1; stroke: none;text-anchor:middle;font-family:Lato;font-style:normal;font-weight:700" x="-167" y="158.578">
        <tspan x="-167" y="158.578">User</tspan>
        <tspan x="-167" y="186.8">Management</tspan>
      </text>
    </g>
    <text font-size="22.5778" style="fill: #000000; fill-opacity: 1; stroke: none;text-anchor:start;font-family:Lato;font-style:normal;font-weight:700" x="41.0904" y="188.724">
      <tspan x="41.0904" y="188.724">u</tspan>
      <tspan x="41.0904" y="216.946"></tspan>
      <tspan x="41.0904" y="245.168">d</tspan>
    </text>
    <g>
      <rect style="fill: #ffffff; fill-opacity: 0; stroke-opacity: 1; stroke-width: 2; stroke: #000000" x="-80" y="260" width="208.35" height="78.4444" rx="0" ry="0"/>
      <text font-size="22.5778" style="fill: #000000; fill-opacity: 1; stroke: none;text-anchor:middle;font-family:Lato;font-style:italic;font-weight:500" x="24.175" y="293.3">
        <tspan x="24.175" y="293.3">*</tspan>
        <tspan x="24.175" y="321.522">(almost all contexts)</tspan>
      </text>
    </g>
    <polyline style="fill: none; stroke-opacity: 1; stroke-width: 2; stroke: #000000" points="508,644.5 535.47,644.5 535.47,644.5 598.002,644.5 "/>
    <polyline style="fill: none; stroke-opacity: 1; stroke-width: 2; stroke: #000000" points="560,444.5 93.8166,444.5 93.8166,600 93,600 "/>
    <polyline style="fill: none; stroke-opacity: 1; stroke-width: 2; stroke: #000000" points="-187,600 -180,600 -180,444.5 558.019,444.5 "/>
    <polyline style="fill: none; stroke-opacity: 1; stroke-width: 2; stroke: #000000" points="393,600 392.614,600 392.614,444.5 560,444.5 "/>
    <polyline style="fill: none; stroke-opacity: 1; stroke-width: 2; stroke: #000000" points="560,444.5 243.336,444.5 243.336,732.798 956.5,732.798 956.5,689 "/>
    <polyline style="fill: none; stroke-opacity: 1; stroke-width: 2; stroke: #000000" points="769.5,600 769.5,540 1157.17,540 1157.17,324.5 1068,324.5 "/>
    <polyline style="fill: none; stroke-opacity: 1; stroke-width: 2; stroke: #000000" points="558.012,444.5 500,444.5 500,540 656.5,540 656.5,600 "/>
    <polyline style="fill: none; stroke-opacity: 1; stroke-width: 2; stroke: #000000" points="616.5,400 616.5,164.5 566,164.5 "/>
    <polyline style="fill: none; stroke-opacity: 1; stroke-width: 2; stroke: #000000" points="673,400 673,164.5 740,164.5 "/>
    <polyline style="fill: none; stroke-opacity: 1; stroke-width: 2; stroke: #000000" points="729.5,400 729.5,324.5 840,324.5 "/>
    <polyline style="fill: none; stroke-opacity: 1; stroke-width: 2; stroke: #000000" points="1069.5,600 1069.5,567.99 1220,567.99 1220,324.5 1066,324.5 "/>
    <polyline style="fill: none; stroke-opacity: 1; stroke-width: 2; stroke: #000000" points="753,817.448 753,763.188 1218.24,763.188 1218.24,644.5 1126,644.5 "/>
    <polyline style="fill: none; stroke-opacity: 1; stroke-width: 2; stroke: #000000" points="696.5,817.448 696.5,763.188 243.336,763.188 243.336,444.5 560,444.5 "/>
    <polyline style="fill: none; stroke-opacity: 1; stroke-width: 2; stroke: #000000" points="809.5,817.448 809.5,789.36 1283.67,789.36 1283.67,324.5 1066,324.5 "/>
    <polyline style="fill: none; stroke-opacity: 1; stroke-width: 2; stroke: #000000" points="24.175,260 24.175,164.5 80,164.5 "/>
    <text font-size="22.5778" style="fill: #000000; fill-opacity: 1; stroke: none;text-anchor:start;font-family:Lato;font-style:normal;font-weight:700" x="-200.324" y="590.99">
      <tspan x="-200.324" y="590.99">d</tspan>
    </text>
    <text font-size="22.5778" style="fill: #000000; fill-opacity: 1; stroke: none;text-anchor:start;font-family:Lato;font-style:normal;font-weight:700" x="76.9752" y="590.548">
      <tspan x="76.9752" y="590.548">d</tspan>
    </text>
    <text font-size="22.5778" style="fill: #000000; fill-opacity: 1; stroke: none;text-anchor:start;font-family:Lato;font-style:normal;font-weight:700" x="375.366" y="589.814">
      <tspan x="375.366" y="589.814">d</tspan>
    </text>
    <text font-size="22.5778" style="fill: #000000; fill-opacity: 1; stroke: none;text-anchor:start;font-family:Lato;font-style:normal;font-weight:700" x="638.91" y="589.082">
      <tspan x="638.91" y="589.082">d</tspan>
    </text>
    <text font-size="22.5778" style="fill: #000000; fill-opacity: 1; stroke: none;text-anchor:start;font-family:Lato;font-style:normal;font-weight:700" x="752.092" y="590.528">
      <tspan x="752.092" y="590.528">d</tspan>
    </text>
    <text font-size="22.5778" style="fill: #000000; fill-opacity: 1; stroke: none;text-anchor:start;font-family:Lato;font-style:normal;font-weight:700" x="1049.92" y="591.282">
      <tspan x="1049.92" y="591.282">d</tspan>
    </text>
    <text font-size="22.5778" style="fill: #000000; fill-opacity: 1; stroke: none;text-anchor:start;font-family:Lato;font-style:normal;font-weight:700" x="597.844" y="390.168">
      <tspan x="597.844" y="390.168">d</tspan>
    </text>
    <text font-size="22.5778" style="fill: #000000; fill-opacity: 1; stroke: none;text-anchor:start;font-family:Lato;font-style:normal;font-weight:700" x="679.272" y="805.31">
      <tspan x="679.272" y="805.31">d</tspan>
    </text>
    <text font-size="22.5778" style="fill: #000000; fill-opacity: 1; stroke: none;text-anchor:start;font-family:Lato;font-style:normal;font-weight:700" x="733.742" y="803.658">
      <tspan x="733.742" y="803.658">d</tspan>
    </text>
    <text font-size="22.5778" style="fill: #000000; fill-opacity: 1; stroke: none;text-anchor:start;font-family:Lato;font-style:normal;font-weight:700" x="792.796" y="804.758">
      <tspan x="792.796" y="804.758">d</tspan>
    </text>
    <text font-size="22.5778" style="fill: #000000; fill-opacity: 1; stroke: none;text-anchor:start;font-family:Lato;font-style:normal;font-weight:700" x="653.804" y="390.778">
      <tspan x="653.804" y="390.778">d</tspan>
    </text>
    <text font-size="22.5778" style="fill: #000000; fill-opacity: 1; stroke: none;text-anchor:start;font-family:Lato;font-style:normal;font-weight:700" x="937.002" y="712.898">
      <tspan x="937.002" y="712.898">d</tspan>
    </text>
    <text font-size="22.5778" style="fill: #000000; fill-opacity: 1; stroke: none;text-anchor:start;font-family:Lato;font-style:normal;font-weight:700" x="710.504" y="389.736">
      <tspan x="710.504" y="389.736">d</tspan>
    </text>
    <text font-size="22.5778" style="fill: #000000; fill-opacity: 1; stroke: none;text-anchor:start;font-family:Lato;font-style:normal;font-weight:700" x="573.324" y="152.748">
      <tspan x="573.324" y="152.748">u</tspan>
    </text>
    <text font-size="22.5778" style="fill: #000000; fill-opacity: 1; stroke: none;text-anchor:start;font-family:Lato;font-style:normal;font-weight:700" x="716.322" y="154.748">
      <tspan x="716.322" y="154.748">u</tspan>
    </text>
    <text font-size="22.5778" style="fill: #000000; fill-opacity: 1; stroke: none;text-anchor:start;font-family:Lato;font-style:normal;font-weight:700" x="819.72" y="312.946">
      <tspan x="819.72" y="312.946">u</tspan>
    </text>
    <text font-size="22.5778" style="fill: #000000; fill-opacity: 1; stroke: none;text-anchor:start;font-family:Lato;font-style:normal;font-weight:700" x="1079.12" y="313.146">
      <tspan x="1079.12" y="313.146">u</tspan>
    </text>
    <text font-size="22.5778" style="fill: #000000; fill-opacity: 1; stroke: none;text-anchor:start;font-family:Lato;font-style:normal;font-weight:700" x="540.924" y="435.244">
      <tspan x="540.924" y="435.244">u</tspan>
    </text>
    <text font-size="22.5778" style="fill: #000000; fill-opacity: 1; stroke: none;text-anchor:start;font-family:Lato;font-style:normal;font-weight:700" x="1135.92" y="634.542">
      <tspan x="1135.92" y="634.542">u</tspan>
    </text>
    <text font-size="22.5778" style="fill: #000000; fill-opacity: 1; stroke: none;text-anchor:start;font-family:Lato;font-style:normal;font-weight:700" x="514.004" y="632.742">
      <tspan x="514.004" y="632.742">d</tspan>
    </text>
    <text font-size="22.5778" style="fill: #000000; fill-opacity: 1; stroke: none;text-anchor:start;font-family:Lato;font-style:normal;font-weight:700" x="581.004" y="632.742">
      <tspan x="581.004" y="632.742">u</tspan>
    </text>
  </g>
</svg>
