<?xml version="1.0" encoding="UTF-8" standalone="no"?>
<!-- Created with Inkscape (http://www.inkscape.org/) -->

<svg
   xmlns:dc="http://purl.org/dc/elements/1.1/"
   xmlns:cc="http://creativecommons.org/ns#"
   xmlns:rdf="http://www.w3.org/1999/02/22-rdf-syntax-ns#"
   xmlns:svg="http://www.w3.org/2000/svg"
   xmlns="http://www.w3.org/2000/svg"
   xmlns:sodipodi="http://sodipodi.sourceforge.net/DTD/sodipodi-0.dtd"
   xmlns:inkscape="http://www.inkscape.org/namespaces/inkscape"
   width="210mm"
   height="297mm"
   viewBox="0 0 210 297"
   version="1.1"
   id="svg8"
   inkscape:version="0.92.3 (2405546, 2018-03-11)"
   sodipodi:docname="subdomains.svg"
   inkscape:export-xdpi="426"
   inkscape:export-ydpi="426">
  <defs
     id="defs2">
    <marker
       style="overflow:visible"
       id="marker5499"
       refX="0.0"
       refY="0.0"
       orient="auto"
       inkscape:stockid="DistanceStart"
       inkscape:isstock="true">
      <g
         id="g5497"
         style="stroke:#000000;stroke-opacity:1;fill:#000000;fill-opacity:1">
        <path
           style="fill:#000000;stroke:#000000;stroke-width:1.15;stroke-linecap:square;stroke-opacity:1;fill-opacity:1"
           d="M 0,0 L 2,0"
           id="path5491" />
        <path
           style="fill:#000000;fill-rule:evenodd;stroke:#000000;stroke-opacity:1;fill-opacity:1"
           d="M 0,0 L 13,4 L 9,0 13,-4 L 0,0 z "
           id="path5493" />
        <path
           style="fill:#000000;stroke:#000000;stroke-width:1;stroke-linecap:square;stroke-opacity:1;fill-opacity:1"
           d="M 0,-4 L 0,40"
           id="path5495" />
      </g>
    </marker>
    <marker
       style="overflow:visible"
       id="DistanceStart"
       refX="0.0"
       refY="0.0"
       orient="auto"
       inkscape:stockid="DistanceStart"
       inkscape:isstock="true">
      <g
         id="g2300"
         style="stroke:#000000;stroke-opacity:1;fill:#000000;fill-opacity:1">
        <path
           style="fill:#000000;stroke:#000000;stroke-width:1.15;stroke-linecap:square;stroke-opacity:1;fill-opacity:1"
           d="M 0,0 L 2,0"
           id="path2306" />
        <path
           style="fill:#000000;fill-rule:evenodd;stroke:#000000;stroke-opacity:1;fill-opacity:1"
           d="M 0,0 L 13,4 L 9,0 13,-4 L 0,0 z "
           id="path2302" />
        <path
           style="fill:#000000;stroke:#000000;stroke-width:1;stroke-linecap:square;stroke-opacity:1;fill-opacity:1"
           d="M 0,-4 L 0,40"
           id="path2304" />
      </g>
    </marker>
    <linearGradient
       id="SVGID_1_-2"
       gradientUnits="userSpaceOnUse"
       x1="484.91681"
       y1="549.52478"
       x2="794.36432"
       y2="549.52478"
       gradientTransform="matrix(0.43544469,-0.2329318,0.2329318,0.43544469,-273.96666,138.21639)">
      <stop
         offset="4.294480e-02"
         style="stop-color:#5E2583"
         id="stop4646-0" />
      <stop
         offset="0.9693"
         style="stop-color:#83549E"
         id="stop4648-5" />
    </linearGradient>
    <linearGradient
       id="SVGID_2_-5"
       gradientUnits="userSpaceOnUse"
       x1="716.9928"
       y1="691.62689"
       x2="716.9928"
       y2="395.0545"
       gradientTransform="matrix(0.8818,-0.4717,0.4717,0.8818,-384.5852,84.5439)">
      <stop
         offset="4.294480e-02"
         style="stop-color:#5E2583"
         id="stop4653-2" />
      <stop
         offset="1"
         style="stop-color:#FFFFFF"
         id="stop4655-9" />
    </linearGradient>
    <linearGradient
       id="SVGID_3_-0"
       gradientUnits="userSpaceOnUse"
       x1="562.26678"
       y1="691.61493"
       x2="562.26678"
       y2="395.04129"
       gradientTransform="matrix(0.8818,-0.4717,0.4717,0.8818,-384.5852,84.5439)">
      <stop
         offset="4.294480e-02"
         style="stop-color:#5E2583"
         id="stop4660-2" />
      <stop
         offset="1"
         style="stop-color:#FFFFFF"
         id="stop4662-8" />
    </linearGradient>
    <linearGradient
       id="SVGID_4_-3"
       gradientUnits="userSpaceOnUse"
       x1="562.27802"
       y1="448.4035"
       x2="562.27802"
       y2="679.29681"
       gradientTransform="matrix(0.8818,-0.4717,0.4717,0.8818,-384.5852,84.5439)">
      <stop
         offset="0.2331"
         style="stop-color:#4B2770"
         id="stop4669-8" />
      <stop
         offset="0.8405"
         style="stop-color:#5E2583"
         id="stop4671-0" />
    </linearGradient>
    <linearGradient
       id="linearGradient4880"
       gradientUnits="userSpaceOnUse"
       x1="716.98468"
       y1="448.4162"
       x2="716.98468"
       y2="679.30609"
       gradientTransform="matrix(0.8818,-0.4717,0.4717,0.8818,-384.5852,84.5439)">
      <stop
         offset="0.2331"
         style="stop-color:#4B2770"
         id="stop4676-4" />
      <stop
         offset="0.8405"
         style="stop-color:#5E2583"
         id="stop4678-0" />
    </linearGradient>
    <linearGradient
       gradientTransform="matrix(0.8818,-0.4717,0.4717,0.8818,-384.5852,84.5439)"
       y2="549.52478"
       x2="794.36432"
       y1="549.52478"
       x1="484.91681"
       gradientUnits="userSpaceOnUse"
       id="linearGradient4788">
      <stop
         id="stop4784"
         style="stop-color:#5E2583"
         offset="4.294480e-02" />
      <stop
         id="stop4786"
         style="stop-color:#83549E"
         offset="0.9693" />
    </linearGradient>
  </defs>
  <sodipodi:namedview
     id="base"
     pagecolor="#ffffff"
     bordercolor="#666666"
     borderopacity="1.0"
     inkscape:pageopacity="0.0"
     inkscape:pageshadow="2"
     inkscape:zoom="0.98994949"
     inkscape:cx="50.908354"
     inkscape:cy="470.71581"
     inkscape:document-units="mm"
     inkscape:current-layer="layer1"
     showgrid="false"
     inkscape:window-width="1920"
     inkscape:window-height="1051"
     inkscape:window-x="0"
     inkscape:window-y="0"
     inkscape:window-maximized="1"
     showguides="false" />
  <metadata
     id="metadata5">
    <rdf:RDF>
      <cc:Work
         rdf:about="">
        <dc:format>image/svg+xml</dc:format>
        <dc:type
           rdf:resource="http://purl.org/dc/dcmitype/StillImage" />
        <dc:title />
      </cc:Work>
    </rdf:RDF>
  </metadata>
  <g
     inkscape:label="Layer 1"
     inkscape:groupmode="layer"
     id="layer1">
    <path
       style="color:#000000;font-style:normal;font-variant:normal;font-weight:normal;font-stretch:normal;font-size:medium;line-height:normal;font-family:sans-serif;font-variant-ligatures:normal;font-variant-position:normal;font-variant-caps:normal;font-variant-numeric:normal;font-variant-alternates:normal;font-feature-settings:normal;text-indent:0;text-align:start;text-decoration:none;text-decoration-line:none;text-decoration-style:solid;text-decoration-color:#000000;letter-spacing:normal;word-spacing:normal;text-transform:none;writing-mode:lr-tb;direction:ltr;text-orientation:mixed;dominant-baseline:auto;baseline-shift:baseline;text-anchor:start;white-space:normal;shape-padding:0;clip-rule:nonzero;display:inline;overflow:visible;visibility:visible;opacity:1;isolation:auto;mix-blend-mode:normal;color-interpolation:sRGB;color-interpolation-filters:linearRGB;solid-color:#000000;solid-opacity:1;vector-effect:none;fill:#6e3a8f;fill-opacity:1;fill-rule:evenodd;stroke:none;stroke-width:0.86500001;stroke-linecap:butt;stroke-linejoin:miter;stroke-miterlimit:4;stroke-dasharray:1.73, 1.73;stroke-dashoffset:0;stroke-opacity:1;color-rendering:auto;image-rendering:auto;shape-rendering:auto;text-rendering:auto;enable-background:accumulate"
       d="m 120.96875,52.453125 v 0 l -0.0215,0.01563 c -0.0349,0.02304 -0.16993,0.111328 -0.16993,0.111328 l -0.002,0.002 h -0.002 c -0.0915,0.06103 -0.25044,0.180471 -0.28723,0.205073 l 0.83801,0.175787 v 0 l -0.55078,-0.38086 -0.43368,0.611269 0.37238,-0.121029 -0.35277,0.07617 0.35277,-0.07617 c 0,0 -0.22093,-0.290077 -0.22193,-0.289067 -10e-4,10e-4 -0.003,0.0032 -0.004,0.0039 l 0.28723,-0.205073 -0.44744,0.36723 v 0.390625 l 0.0117,0.01953 c 1.16395,15.883334 0.81731,31.759599 -1.08789,44.314453 v 0.002 C 116.9704,112.70945 110.95867,130.1564 102.92547,145.95522 85.355574,143.85669 67.527712,139.17936 53.704768,132.72866 42.027538,127.28255 28.684797,118.81595 16.034846,108.87319 l -1.419922,-1.11133 0.136719,1.79687 c 0.09812,1.3247 0.196946,2.65789 0.345703,4.00196 v 0.002 l 0.002,0.0156 c 2.17e-4,0.002 -2.17e-4,0.004 0,0.006 l 0.002,0.0117 c 0.0494,0.39522 0.09375,0.76044 0.09375,1.08789 v 0.0586 l 0.0039,0.0234 c 0.0987,0.93766 0.196098,1.87757 0.294922,2.81641 v 0.002 c 0.04937,0.44436 0.09999,0.89173 0.15039,1.29493 0.09769,0.92797 0.198708,1.86856 0.347657,2.86523 h -0.002 c 0.04899,0.39197 0.09841,0.78375 0.148438,1.13477 6.04e-4,0.004 0.0013,0.009 0.002,0.0137 0.14762,1.18091 0.295844,2.37271 0.496094,3.57422 l 0.01367,-0.002 c -0.0018,0.0622 0.03745,0.18772 0.0625,0.32422 l -0.0293,0.006 c 0.197481,1.38236 0.395436,2.7752 0.646484,4.13086 h 0.0059 c 0.0077,0.0677 0.0097,0.1475 0.02148,0.19531 0.0033,0.0132 0.0066,0.0179 0.0098,0.0293 0.0012,0.004 7.95e-4,0.008 0.002,0.0117 l 0.01172,0.0605 c 0.196943,1.23046 0.393745,2.4199 0.642579,3.66406 0.04949,0.24745 0.09916,0.49386 0.148437,0.74023 0.198122,1.0881 0.440568,2.20209 0.632813,3.25391 v 0.0195 l 0.01758,0.0742 c 0.04163,0.16654 0.09178,0.416 0.148437,0.64258 0.243622,1.26023 0.531216,2.46353 0.816406,3.69726 v 0.0664 l 0.02734,0.0996 c 0.940246,4.00633 1.979547,7.91674 3.119141,11.63281 l 0.01367,-0.004 v 0.0449 l 0.03906,0.11914 c 1.935093,6.25029 4.168835,12.06227 6.710938,17.14648 l 0.0098,0.0195 c 0.369094,0.69205 0.708044,1.40889 1.105469,2.11328 0.01043,0.0332 0.01395,0.0631 0.02734,0.0899 0.01989,0.0398 0.02923,0.0444 0.05859,0.082 0.343977,0.63881 0.694114,1.28394 1.046874,1.88867 l 0.07227,-0.0312 c 0.01202,0.0138 0.01397,0.0432 0.02539,0.0547 l -0.04102,0.043 c 0.385687,0.62674 0.785966,1.32347 1.203125,1.94922 0.05248,0.0901 0.105285,0.17541 0.09766,0.16015 l 0.01563,0.0293 0.02539,0.0469 0.01367,0.0176 c 0.524087,0.76231 1.018653,1.54939 1.576172,2.3125 6.43e-4,9.7e-4 0.0013,9.9e-4 0.002,0.002 0.120586,0.18032 0.235154,0.29578 0.332031,0.39453 0.0055,0.008 0.0092,0.0149 0.01758,0.0254 0.0043,0.005 0.01078,0.0121 0.01953,0.0215 0.01626,0.0277 0.03577,0.0501 0.0625,0.0859 l -0.0098,0.008 c 0.0099,0.0129 0.02141,0.0242 0.03125,0.0371 0.624514,0.81714 1.216436,1.60738 1.916016,2.4082 0.0025,0.003 0.0053,0.005 0.0078,0.008 0.0016,0.002 0.0023,0.004 0.0039,0.006 0.460626,0.56025 0.944634,1.04581 1.357422,1.50195 l 0.04492,0.0684 0.05469,0.0371 c 0.185036,0.18503 0.369528,0.36954 0.554687,0.55469 0.280707,0.2807 0.577412,0.57393 0.892578,0.84179 0.0057,0.005 0.0099,0.0108 0.01563,0.0156 l 0.002,0.002 c 0.002,0.002 0.0038,0.004 0.0059,0.006 0.234235,0.23037 0.489256,0.43555 0.728515,0.62695 0.290885,0.24245 0.570505,0.47677 0.775391,0.68164 l 0.02734,0.0273 0.03516,0.0293 0.002,0.002 c 0.257104,0.20569 0.454878,0.35374 0.691406,0.54297 0.329304,0.2732 0.622206,0.47293 0.875,0.68359 l 0.01172,0.008 0.04297,0.0332 0.03906,0.0254 0.0078,0.004 c 0.203382,0.12203 0.401753,0.26782 0.679687,0.43555 0.324188,0.21474 0.675127,0.41593 1.013672,0.60937 0.25523,0.1524 0.446526,0.25086 0.652344,0.37305 l 0.01953,0.0137 0.05469,0.0293 h 0.002 c 0.418863,0.20943 0.766102,0.35767 1.136718,0.54297 h 0.002 l 0.06641,0.0332 0.08398,0.0254 0.01172,0.002 c -0.122518,-0.0306 0.15452,0.11855 0.484375,0.22851 0.590223,0.24422 1.138969,0.44672 1.726562,0.64258 0.411869,0.1532 0.742881,0.25621 0.933594,0.35156 l 0.05859,0.0293 0.06641,0.0215 h 0.002 c 14.1846,4.27036 28.244087,3.6304 42.878907,5.17188 14.542043,1.53171 29.665463,5.19197 46.277343,17.83594 l 0.0527,0.16406 0.1211,0.12109 0.002,0.002 0.0117,0.0117 0.0137,0.0137 0.002,0.002 1.48243,1.48242 -0.14453,-2.11328 c -1.47038,-21.12451 3.87295,-35.776 10.70117,-48.73242 6.82803,-12.95608 15.18887,-24.19775 19.58398,-38.33203 l 0.0234,-0.0605 0.008,-0.0762 v -0.002 c 0.0433,-0.34533 0.13444,-0.80527 0.26758,-1.25 v -0.002 -0.002 l 0.002,-0.004 0.0215,-0.0703 v -0.0234 c 0.19053,-0.6352 0.34194,-1.27127 0.4414,-1.91015 1.48722,-8.05149 -1.52559,-17.39905 -7.30664,-27.117192 l -0.0254,0.0098 c -0.0232,-0.0407 -0.0373,-0.133731 -0.0527,-0.154297 -0.0254,-0.03373 -0.0389,-0.045 -0.0606,-0.06836 -0.41421,-0.72913 -0.88883,-1.471197 -1.33008,-2.173829 v -0.05859 l -0.12304,-0.191407 -0.004,-0.0039 c -0.94133,-1.485972 -1.9725,-2.960713 -2.99805,-4.425781 -0.001,-0.0019 -0.003,-0.0039 -0.004,-0.0059 l -0.0195,-0.0293 c -0.001,-0.0018 -0.005,-0.0041 -0.006,-0.0059 -0.0966,-0.144642 -0.22266,-0.32889 -0.40625,-0.519531 l 0.043,0.05078 c -0.29588,-0.394522 -0.58177,-0.778917 -0.86328,-1.201172 -0.33341,-0.500126 -0.69298,-0.90769 -0.96289,-1.267578 l -0.006,-0.0078 -0.0195,-0.02539 -0.0117,-0.01563 c -0.29886,-0.341552 -0.58579,-0.766092 -0.90039,-1.185547 l -0.01,-0.01172 c -0.005,-0.0064 -0.009,-0.01312 -0.0137,-0.01953 l -0.006,-0.0059 c -0.33153,-0.42688 -0.6224,-0.816948 -0.9668,-1.259766 l -0.0762,-0.09766 -0.0137,-0.0078 -0.66406,-0.798829 -0.0176,-0.02148 -0.0195,-0.01953 c -9.06652,-11.175889 -21.02711,-22.31039 -33.48828,-32.09961 z m 0.6543,0.02539 c -0.003,-0.0022 0.0356,0.02972 0.0351,0.0293 -1e-4,-9.1e-5 0.0169,0.02181 0.0254,0.0332 -0.002,-0.0014 -0.004,-0.0025 -0.006,-0.0039 -0.0193,-0.01773 -0.0522,-0.05667 -0.0547,-0.05859 z m -1.28321,0.621093 c -0.002,0.01366 -0.002,0.01748 -0.004,0.02734 -2e-5,-3.46e-4 0,-0.0059 0,-0.0059 0,1.4e-5 0.002,-0.01454 0.004,-0.02148 z m 0,0.09375 c 0.005,0.02653 0.008,0.0515 0.0176,0.101563 h -0.002 l 0.006,0.01953 c 0.005,0.0268 0.009,0.04066 0.0117,0.05664 -0.003,-0.0079 -0.005,-0.01109 -0.008,-0.01758 l -0.0215,-0.08203 c -10e-4,-0.02546 -0.002,-0.0414 -0.004,-0.07813 z M 122,54.853516 c 12.00516,9.531726 23.48335,20.267004 32.18164,30.998046 l 0.16406,0.201172 h 0.008 l 0.57812,0.695313 c 0.33333,0.429046 0.62602,0.818564 0.9707,1.261719 0.27436,0.366791 0.57902,0.828307 0.9668,1.271484 0.30861,0.407056 0.62668,0.779853 0.875,1.152344 0.31156,0.467332 0.61813,0.872999 0.91406,1.267578 l 0.0352,0.04687 0.0391,0.03906 c 0.0833,0.08325 0.1458,0.174083 0.23828,0.3125 0.003,0.005 0.004,0.0066 0.008,0.01172 l 0.01,0.01563 c 0.004,0.0054 0.008,0.0102 0.0117,0.01563 l 0.008,0.01367 c 0.9875,1.410771 1.9606,2.810969 2.84961,4.203125 v 0.0293 l 0.11914,0.195312 v 0.002 c 0.49862,0.797805 1.03834,1.630435 1.46485,2.388671 l 0.0527,0.09961 0.0391,0.03711 0.0176,0.02734 c 5.66197,9.51868 8.46681,18.5219 7.11133,25.96485 l -0.0117,0.0254 v 0.0762 c -0.0727,0.46596 -0.19396,0.93289 -0.32227,1.40039 h -0.11523 v 0.49414 c -0.1308,0.45666 -0.21978,0.8946 -0.27344,1.2793 -4.2964,13.81238 -12.57385,24.96629 -19.47265,38.05664 -6.39554,12.13543 -11.44752,26.05553 -10.97657,45.08593 l 0.31752,3.27661 -1.04994,-1.12036 c 0.19592,0.65308 -0.14268,-0.41018 0,0 -16.15253,-11.73534 -31.08531,-15.37647 -45.238279,-16.86718 -14.783722,-1.55716 -28.724282,-0.93955 -42.58789,-5.11328 -0.329621,-0.15015 -0.647096,-0.25162 -0.958985,-0.36719 -0.0032,-0.001 -0.0066,-0.003 -0.0098,-0.004 l -0.01758,-0.006 -0.02734,-0.01 h -0.002 c -0.572164,-0.19072 -1.087856,-0.37773 -1.650391,-0.61133 l -0.03516,-0.0195 -0.04102,-0.0117 c 0.07905,0.0264 0.04615,0.0171 0.01563,0 -0.03053,-0.017 -0.07978,-0.0432 -0.138672,-0.0742 -0.07792,-0.0411 -0.201669,-0.0848 -0.316406,-0.12695 v -0.002 c -0.411851,-0.20592 -0.754419,-0.35545 -1.119141,-0.53711 -0.23042,-0.13646 -0.411968,-0.23178 -0.599609,-0.34179 l -0.111328,-0.11133 h -0.07813 c -0.283961,-0.16272 -0.561003,-0.32273 -0.783203,-0.46875 l -0.04687,-0.0488 -0.06836,-0.0234 c -0.178112,-0.11005 -0.362065,-0.23979 -0.601562,-0.38671 -9.04e-4,-5.6e-4 -10e-4,-0.001 -0.002,-0.002 -0.0018,-0.001 -0.0052,-0.004 -0.0078,-0.006 -5.55e-4,-3.4e-4 -0.0014,3.4e-4 -0.002,0 -0.298645,-0.24288 -0.569975,-0.433 -0.804687,-0.62695 -0.0019,-0.002 -0.004,-0.004 -0.0059,-0.006 l -0.02344,-0.0195 c -0.249296,-0.19944 -0.445615,-0.34495 -0.671875,-0.52539 l -0.0039,-0.004 -0.002,-0.002 -0.0039,-0.002 -0.002,-0.002 c 0.0067,0.005 -0.0048,-0.004 -0.01172,-0.01 -0.0069,-0.006 0.0095,0.006 -0.01172,-0.01 -0.249704,-0.24196 -0.516146,-0.46938 -0.77539,-0.68555 l -0.0039,-0.004 -0.158204,-0.1582 h -0.02734 c -0.180625,-0.14716 -0.362739,-0.2948 -0.480469,-0.41211 l -0.0039,-0.004 -0.05078,-0.0527 L 41.261719,186 c -0.24976,-0.21058 -0.522274,-0.48126 -0.810547,-0.76953 -0.191017,-0.19101 -0.383146,-0.38315 -0.574219,-0.57422 l -0.0059,-0.006 -0.0039,-0.004 -0.0059,-0.006 c -0.443928,-0.49151 -0.902125,-0.95777 -1.298828,-1.4375 l -0.05078,-0.10156 -0.06055,-0.0312 c -0.640846,-0.73894 -1.209251,-1.48968 -1.833984,-2.30664 l -0.0078,-0.01 -0.02734,-0.0312 c -2.98e-4,-4.1e-4 -0.0035,-0.003 -0.0039,-0.004 -4.45e-4,-5.1e-4 -0.0012,-0.003 -0.002,-0.004 l -0.0039,-0.004 c -0.03167,-0.0553 -0.04443,-0.0952 -0.123047,-0.17383 l -0.002,-0.002 c -0.08172,-0.0809 -0.119065,-0.12559 -0.164063,-0.1875 l 0.002,0.006 -0.01367,-0.0195 c -0.0048,-0.007 -0.01265,-0.0121 -0.01758,-0.0195 l -0.0293,-0.043 0.0059,0.006 c -0.518184,-0.70718 -1.008204,-1.48867 -1.5625,-2.29492 l 0.02734,0.0488 c -0.07438,-0.13608 -0.12886,-0.21476 -0.121093,-0.19922 l -0.0059,-0.0137 -0.01563,-0.0254 -0.01758,-0.0312 -0.0098,-0.0156 c -0.372201,-0.55831 -0.765385,-1.24497 -1.169922,-1.90234 l -0.203125,-0.32813 c -0.284558,-0.49872 -0.571481,-1.02029 -0.861328,-1.55859 l -0.002,-0.004 -0.05664,-0.10156 0.01367,0.0137 -0.01367,-0.0234 -0.0039,-0.006 c -0.363104,-0.63618 -0.700882,-1.35353 -1.095704,-2.09766 l -0.01758,-0.0352 c -2.54e-4,-5e-4 2.55e-4,-0.001 0,-0.002 -0.0012,-0.002 -0.0027,-0.004 -0.0039,-0.006 C 28.620558,166.71153 26.414294,160.97565 24.5,154.79102 l -0.01367,0.004 v -0.041 l -0.03711,-0.10743 -0.002,-0.01 -0.002,-0.004 c -1.120112,-3.65385 -2.141679,-7.50922 -3.07022,-11.46071 v -0.0352 l -0.01953,-0.0879 v -0.004 c -0.297309,-1.28834 -0.591525,-2.51264 -0.833985,-3.77344 l -0.0078,-0.0351 -0.0059,-0.0215 c -0.03816,-0.15468 -0.08473,-0.37859 -0.136718,-0.59179 l -0.002,-0.006 c -0.0026,-0.0105 -0.0033,-0.0189 -0.0059,-0.0293 -0.19678,-1.07579 -0.433001,-2.17848 -0.623047,-3.21875 l -0.0078,-0.0391 -0.0039,-0.0137 c -0.04938,-0.24691 -0.09906,-0.49529 -0.148438,-0.74219 -0.243627,-1.21812 -0.437692,-2.39329 -0.634766,-3.625 h -0.0059 c -0.0076,-0.0765 -0.01242,-0.16225 -0.02539,-0.21484 -0.0049,-0.02 -0.0072,-0.0294 -0.01172,-0.0449 l -0.0098,-0.0508 v -0.004 c -0.242834,-1.31131 -0.439212,-2.68387 -0.636719,-4.06641 v -0.002 l -0.01953,-0.1211 -0.01563,-0.0352 c -0.0028,-0.0279 -0.0059,-0.0606 -0.0059,-0.0742 v -0.0684 l -0.01172,-0.0625 -0.002,-0.008 c -0.191838,-1.15235 -0.335778,-2.31517 -0.482422,-3.48829 -8.1e-5,-6.4e-4 8.1e-5,-0.001 0,-0.002 l -0.0039,-0.0254 -0.002,-0.0137 c -0.04673,-0.32709 -0.09454,-0.70975 -0.142579,-1.09375 -3.37e-4,-0.003 3.38e-4,-0.005 0,-0.008 l -0.0039,-0.0215 -0.002,-0.0195 c -0.14385,-0.959 -0.241765,-1.87874 -0.339844,-2.81055 v -0.004 c -5.45e-4,-0.005 -0.0014,-0.0104 -0.002,-0.0156 l -0.002,-0.0137 c -0.04691,-0.37526 -0.09453,-0.80542 -0.142578,-1.23828 -1.5e-4,-0.001 1.5e-4,-0.003 0,-0.004 l -0.0039,-0.0293 c -0.09787,-0.92977 -0.197181,-1.85855 -0.294922,-2.78711 -0.0046,-0.42014 -0.05217,-0.813 -0.09766,-1.17578 -4.51e-4,-0.004 4.49e-4,-0.008 0,-0.0117 l -0.0039,-0.0254 v -0.004 c -0.08146,-0.73339 -0.133271,-1.47733 -0.191406,-2.21875 12.305136,9.52796 25.157418,17.66468 36.546875,22.97656 14.177633,6.61624 32.364361,11.37021 50.267579,13.45313 l 0.54688,0.0625 0.25195,-0.49024 c 8.23233,-16.0679 14.38022,-33.85481 16.71875,-49.277341 v -0.002 C 122.68358,85.617572 123.03314,70.291325 122,54.853516 Z m 42.36914,43.541015 0.004,0.002 0.004,0.0078 c -6.1e-4,-7.44e-4 -0.005,-0.0069 -0.008,-0.0098 z m -148.083984,16.238279 0.0039,0.0176 v 0.0195 c -6.84e-4,-0.007 -0.0013,-0.013 -0.002,-0.0195 z m 155.458984,10.67188 v 0.082 l -0.0215,0.043 0.0137,-0.0742 v -0.002 c 4e-4,-0.003 0.002,-0.005 0.002,-0.008 z m -151.853515,13.43554 0.0078,0.0254 v 0.01 z m 12.992187,37.27735 c -0.01294,-0.0124 0.0099,0.0499 0.01172,0.0488 l -0.01953,0.002 0.01563,-0.006 c -0.0057,-0.01 -0.01183,-0.0214 -0.01758,-0.0312 z m -0.40039,0.5332 0.0059,0.01 h 0.002 l -0.06445,0.0664 z m 1.11914,1.7793 c 0.0034,0.007 0.0045,0.006 0.0078,0.0117 l -0.0078,-0.008 z m 2.5625,2.20117 0.185547,0.0332 0.03516,0.0137 c 0,0 -0.148862,0.33999 -0.191407,0.4375 -0.0021,-0.004 -0.0041,-0.009 -0.0078,-0.0156 l -0.002,-0.002 c 0,0 -0.05188,0.0293 -0.05859,0.0332 -0.0052,0.003 -0.03607,0.0222 -0.04492,0.0273 -4.99e-4,-1.2e-4 -0.0014,1.3e-4 -0.002,0 -0.01172,0.007 -0.04157,0.0254 -0.05859,0.0352 -4.2e-4,2.4e-4 -0.0015,-2.4e-4 -0.002,0 -0.07269,0.0416 -0.126245,0.0753 -0.25,0.14648 l 0.0078,-0.008 c -0.03891,0.0226 -0.0404,0.022 -0.08008,0.0449 l 0.164063,-0.16992 c 0.01923,-0.002 0.01953,-0.002 0.03906,-0.004 l 0.06836,-0.0723 0.08398,-0.0879 c -0.0075,-0.009 -0.0096,-0.0102 -0.01758,-0.0195 l 0.04883,-0.0508 c -1.74e-4,-1.6e-4 0.01098,0.0127 0.01758,0.0195 l 0.002,-0.002 c -0.08089,-0.0809 -0.147664,-0.16148 -0.216796,-0.25585 0.09106,-0.0336 0.279296,-0.10352 0.279296,-0.10352 z m -0.935546,1 c 5.3e-4,0.001 0.0072,0.008 0.0078,0.01 -2e-5,-1e-5 -0.0019,0.002 -0.002,0.002 -0.0037,-0.006 -0.0047,-0.01 -0.0059,-0.0117 z m 2.414062,2.2793 0.03906,0.0469 c 0.0022,0.003 0.0037,0.005 0.0059,0.008 l 0.06836,0.0781 -0.0625,-0.0312 z m 1.837891,1.14648 0.03516,0.0234 0.02539,0.0391 c -0.0068,-0.007 -0.01464,-0.0127 -0.02148,-0.0195 -0.0034,-0.004 -0.0064,-0.008 -0.0098,-0.0117 z m 1.103515,1.9043 0.03125,0.0254 -0.01563,-0.01 z m 0.705078,0.60547 c 0.04551,0.0379 0.08199,0.0735 0.126954,0.11132 h -0.01758 z m 3.076172,2.39453 c 0.003,0.002 0.0048,0.004 0.0078,0.006 l 0.03906,0.0254 c 0.005,0.003 0.0086,0.005 0.01367,0.008 0.003,0.002 0.0067,0.004 0.0098,0.006 l 0.03906,0.0254 -0.0625,-0.0215 z m 0.990235,0.59765 0.05859,0.0332 c 0.0021,0.001 0.0038,0.003 0.0059,0.004 l 0.125,0.0723 h -0.07813 z m 5.4375,1.71485 0.0098,0.004 c -0.0034,-0.001 -0.0064,-0.003 -0.0098,-0.004 z"
       id="path4651-1"
       inkscape:connector-curvature="0"
       sodipodi:nodetypes="ccccccccccccccccccccccccccccccccscccccccccccccccccccccccccccccccccccccccccccccccccccccccccccccccscccccccccccccccccccccccccccccscccccccccscccccccccccccccccccccccccccccccccccccccccccccccccccccccccccccccccccccccccccccccccccccccccccccsccccscccccccccccccccccccccccccccccccccccccccccccccccccccccccccccccccccccccccccccccccccccccccccccccccccccccccccccccccccsccccccccccccccccccccccccccccccccccccccccccccccccccccccccccccccccccccccccccccccccccccccccccccccccccccccccccccccccccccccccccccccccccccc" />
    <text
       xml:space="preserve"
       style="font-style:normal;font-weight:normal;font-size:4.23333311px;line-height:125%;font-family:Sans;letter-spacing:0px;word-spacing:0px;fill:#6e3a8f;fill-opacity:1;fill-rule:evenodd;stroke:none;stroke-width:0.86500001;stroke-linecap:butt;stroke-linejoin:miter;stroke-miterlimit:4;stroke-dasharray:1.73, 1.73;stroke-dashoffset:0;stroke-opacity:1"
       x="142.44737"
       y="134.55392"
       id="text4935"><tspan
         sodipodi:role="line"
         id="tspan4933"
         x="143.12433"
         y="134.55392"
         style="font-style:normal;font-variant:normal;font-weight:normal;font-stretch:normal;font-size:5.29166651px;line-height:0px;font-family:Lato;-inkscape-font-specification:Lato;text-align:center;writing-mode:lr-tb;text-anchor:middle;fill:#6e3a8f;fill-opacity:1;fill-rule:evenodd;stroke-width:0.86500001;stroke-miterlimit:4;stroke-dasharray:1.73, 1.73;stroke-dashoffset:0">Work </tspan><tspan
         sodipodi:role="line"
         x="142.44737"
         y="139.8456"
         style="font-style:normal;font-variant:normal;font-weight:normal;font-stretch:normal;font-size:5.29166651px;line-height:0px;font-family:Lato;-inkscape-font-specification:Lato;text-align:center;writing-mode:lr-tb;text-anchor:middle;fill:#6e3a8f;fill-opacity:1;fill-rule:evenodd;stroke-width:0.86500001;stroke-miterlimit:4;stroke-dasharray:1.73, 1.73;stroke-dashoffset:0"
         id="tspan4937">Organization</tspan></text>
    <text
       xml:space="preserve"
       style="font-style:normal;font-weight:normal;font-size:4.23333311px;line-height:125%;font-family:Sans;letter-spacing:0px;word-spacing:0px;fill:#6e3a8f;fill-opacity:1;fill-rule:evenodd;stroke:none;stroke-width:0.86500001;stroke-linecap:butt;stroke-linejoin:miter;stroke-miterlimit:4;stroke-dasharray:1.73, 1.73;stroke-dashoffset:0;stroke-opacity:1"
       x="31.588322"
       y="135.47437"
       id="text4935-7"><tspan
         sodipodi:role="line"
         x="31.588322"
         y="135.47437"
         style="font-style:normal;font-variant:normal;font-weight:normal;font-stretch:normal;font-size:5.29166651px;line-height:0px;font-family:Lato;-inkscape-font-specification:Lato;text-align:center;writing-mode:lr-tb;text-anchor:middle;fill:#6e3a8f;fill-opacity:1;fill-rule:evenodd;stroke-width:0.86500001;stroke-miterlimit:4;stroke-dasharray:1.73, 1.73;stroke-dashoffset:0"
         id="tspan4937-6">Asset</tspan></text>
    <text
       xml:space="preserve"
       style="font-style:normal;font-weight:normal;font-size:4.23333311px;line-height:125%;font-family:Sans;letter-spacing:0px;word-spacing:0px;fill:#6e3a8f;fill-opacity:1;fill-rule:evenodd;stroke:none;stroke-width:0.86500001;stroke-linecap:butt;stroke-linejoin:miter;stroke-miterlimit:4;stroke-dasharray:1.73, 1.73;stroke-dashoffset:0;stroke-opacity:1"
       x="66.066093"
       y="184.10129"
       id="text4935-5"><tspan
         sodipodi:role="line"
         x="66.066093"
         y="184.10129"
         style="font-style:normal;font-variant:normal;font-weight:normal;font-stretch:normal;font-size:5.29166651px;line-height:0px;font-family:Lato;-inkscape-font-specification:Lato;text-align:center;writing-mode:lr-tb;text-anchor:middle;fill:#6e3a8f;fill-opacity:1;fill-rule:evenodd;stroke-width:0.86500001;stroke-miterlimit:4;stroke-dasharray:1.73, 1.73;stroke-dashoffset:0"
         id="tspan4937-0">Automation</tspan></text>
    <text
       xml:space="preserve"
       style="font-style:normal;font-weight:normal;font-size:4.23333311px;line-height:125%;font-family:Sans;letter-spacing:0px;word-spacing:0px;fill:#6e3a8f;fill-opacity:1;fill-rule:evenodd;stroke:none;stroke-width:0.86500001;stroke-linecap:butt;stroke-linejoin:miter;stroke-miterlimit:4;stroke-dasharray:1.73, 1.73;stroke-dashoffset:0;stroke-opacity:1"
       x="103.48385"
       y="157.90887"
       id="text4935-6"><tspan
         sodipodi:role="line"
         x="103.48385"
         y="157.90887"
         style="font-style:normal;font-variant:normal;font-weight:normal;font-stretch:normal;font-size:5.29166651px;line-height:0px;font-family:Lato;-inkscape-font-specification:Lato;text-align:center;writing-mode:lr-tb;text-anchor:middle;fill:#6e3a8f;fill-opacity:1;fill-rule:evenodd;stroke-width:0.86500001;stroke-miterlimit:4;stroke-dasharray:1.73, 1.73;stroke-dashoffset:0"
         id="tspan4988">Enrichment</tspan></text>
    <text
       xml:space="preserve"
       style="font-style:normal;font-weight:normal;font-size:4.23333311px;line-height:125%;font-family:Sans;letter-spacing:0px;word-spacing:0px;fill:#6e3a8f;fill-opacity:1;fill-rule:evenodd;stroke:none;stroke-width:0.86500001;stroke-linecap:butt;stroke-linejoin:miter;stroke-miterlimit:4;stroke-dasharray:1.73, 1.73;stroke-dashoffset:0;stroke-opacity:1"
       x="120.26807"
       y="173.97194"
       id="text4935-79"><tspan
         sodipodi:role="line"
         x="120.26807"
         y="173.97194"
         style="font-style:normal;font-variant:normal;font-weight:normal;font-stretch:normal;font-size:5.29166651px;line-height:0px;font-family:Lato;-inkscape-font-specification:Lato;text-align:center;writing-mode:lr-tb;text-anchor:middle;fill:#6e3a8f;fill-opacity:1;fill-rule:evenodd;stroke-width:0.86500001;stroke-miterlimit:4;stroke-dasharray:1.73, 1.73;stroke-dashoffset:0"
         id="tspan4937-03">Structure</tspan></text>
    <text
       xml:space="preserve"
       style="font-style:normal;font-weight:normal;font-size:4.23333311px;line-height:125%;font-family:Sans;letter-spacing:0px;word-spacing:0px;fill:#6e3a8f;fill-opacity:1;fill-rule:evenodd;stroke:none;stroke-width:0.86500001;stroke-linecap:butt;stroke-linejoin:miter;stroke-miterlimit:4;stroke-dasharray:1.73, 1.73;stroke-dashoffset:0;stroke-opacity:1"
       x="125.6672"
       y="195.05936"
       id="text4935-4"><tspan
         sodipodi:role="line"
         x="125.6672"
         y="195.05936"
         style="font-style:normal;font-variant:normal;font-weight:normal;font-stretch:normal;font-size:5.29166651px;line-height:0px;font-family:Lato;-inkscape-font-specification:Lato;text-align:center;writing-mode:lr-tb;text-anchor:middle;fill:#6e3a8f;fill-opacity:1;fill-rule:evenodd;stroke-width:0.86500001;stroke-miterlimit:4;stroke-dasharray:1.73, 1.73;stroke-dashoffset:0"
         id="tspan4937-7">Channel</tspan></text>
    <text
       xml:space="preserve"
       style="font-style:normal;font-weight:normal;font-size:4.23333311px;line-height:125%;font-family:Sans;letter-spacing:0px;word-spacing:0px;fill:#6e3a8f;fill-opacity:1;fill-rule:evenodd;stroke:none;stroke-width:0.86500001;stroke-linecap:butt;stroke-linejoin:miter;stroke-miterlimit:4;stroke-dasharray:1.73, 1.73;stroke-dashoffset:0;stroke-opacity:1"
       x="145.97969"
       y="111.42545"
       id="text4935-2"><tspan
         sodipodi:role="line"
         x="145.97969"
         y="111.42545"
         style="font-style:normal;font-variant:normal;font-weight:normal;font-stretch:normal;font-size:5.29166651px;line-height:0px;font-family:Lato;-inkscape-font-specification:Lato;text-align:center;writing-mode:lr-tb;text-anchor:middle;fill:#6e3a8f;fill-opacity:1;fill-rule:evenodd;stroke-width:0.86500001;stroke-miterlimit:4;stroke-dasharray:1.73, 1.73;stroke-dashoffset:0"
         id="tspan4937-64">User</tspan><tspan
         sodipodi:role="line"
         x="145.97969"
         y="116.71712"
         style="font-style:normal;font-variant:normal;font-weight:normal;font-stretch:normal;font-size:5.29166651px;line-height:0px;font-family:Lato;-inkscape-font-specification:Lato;text-align:center;writing-mode:lr-tb;text-anchor:middle;fill:#6e3a8f;fill-opacity:1;fill-rule:evenodd;stroke-width:0.86500001;stroke-miterlimit:4;stroke-dasharray:1.73, 1.73;stroke-dashoffset:0"
         id="tspan5030">Management</tspan></text>
    <text
       xml:space="preserve"
       style="font-style:normal;font-weight:normal;font-size:4.23333311px;line-height:125%;font-family:Sans;letter-spacing:0px;word-spacing:0px;fill:#6e3a8f;fill-opacity:1;fill-rule:evenodd;stroke:none;stroke-width:0.86500001;stroke-linecap:butt;stroke-linejoin:miter;stroke-miterlimit:4;stroke-dasharray:1.73, 1.73;stroke-dashoffset:0;stroke-opacity:1"
       x="137.15977"
       y="86.280647"
       id="text4935-26"><tspan
         sodipodi:role="line"
         x="137.15977"
         y="86.280647"
         style="font-style:normal;font-variant:normal;font-weight:normal;font-stretch:normal;font-size:5.29166651px;line-height:0px;font-family:Lato;-inkscape-font-specification:Lato;text-align:center;writing-mode:lr-tb;text-anchor:middle;fill:#6e3a8f;fill-opacity:1;fill-rule:evenodd;stroke-width:0.86500001;stroke-miterlimit:4;stroke-dasharray:1.73, 1.73;stroke-dashoffset:0"
         id="tspan4937-5">Reference</tspan><tspan
         sodipodi:role="line"
         x="137.15977"
         y="91.572311"
         style="font-style:normal;font-variant:normal;font-weight:normal;font-stretch:normal;font-size:5.29166651px;line-height:0px;font-family:Lato;-inkscape-font-specification:Lato;text-align:center;writing-mode:lr-tb;text-anchor:middle;fill:#6e3a8f;fill-opacity:1;fill-rule:evenodd;stroke-width:0.86500001;stroke-miterlimit:4;stroke-dasharray:1.73, 1.73;stroke-dashoffset:0"
         id="tspan5063">Entity</tspan></text>
    <text
       xml:space="preserve"
       style="font-style:normal;font-weight:normal;font-size:4.23333311px;line-height:125%;font-family:Sans;letter-spacing:0px;word-spacing:0px;fill:#6e3a8f;fill-opacity:1;fill-rule:evenodd;stroke:none;stroke-width:0.86500001;stroke-linecap:butt;stroke-linejoin:miter;stroke-miterlimit:4;stroke-dasharray:1.73, 1.73;stroke-dashoffset:0;stroke-opacity:1"
       x="50.564457"
       y="155.27385"
       id="text4935-22"><tspan
         sodipodi:role="line"
         x="50.564457"
         y="155.27385"
         style="font-style:normal;font-variant:normal;font-weight:normal;font-stretch:normal;font-size:5.29166651px;line-height:0px;font-family:Lato;-inkscape-font-specification:Lato;text-align:center;writing-mode:lr-tb;text-anchor:middle;fill:#6e3a8f;fill-opacity:1;fill-rule:evenodd;stroke-width:0.86500001;stroke-miterlimit:4;stroke-dasharray:1.73, 1.73;stroke-dashoffset:0"
         id="tspan4937-63">Permission</tspan></text>
    <path
       style="fill:none;fill-rule:evenodd;stroke:#6e3a8f;stroke-width:0.86500001;stroke-linecap:butt;stroke-linejoin:miter;stroke-miterlimit:4;stroke-dasharray:1.73, 1.73;stroke-dashoffset:0;stroke-opacity:1"
       d="m 20.827569,143.23808 c 5.195825,4.27915 13.156241,1.62054 17.942576,-2.0294 3.454659,-3.1347 5.511222,-7.82256 5.26408,-12.50258"
       id="path5623"
       inkscape:connector-curvature="0" />
    <path
       style="opacity:1;vector-effect:none;fill:none;fill-opacity:1;fill-rule:evenodd;stroke:#6e3a8f;stroke-width:0.86500001;stroke-linecap:butt;stroke-linejoin:miter;stroke-miterlimit:4;stroke-dasharray:1.73, 1.73;stroke-dashoffset:0;stroke-opacity:1"
       d="m 32.80419,176.01383 c 8.189232,-16.88882 35.880549,-0.99422 41.747697,-20.74517 1.677934,-4.15129 2.272999,-8.62872 2.744244,-13.04991"
       id="path5666"
       inkscape:connector-curvature="0" />
    <path
       style="opacity:1;vector-effect:none;fill:none;fill-opacity:1;fill-rule:evenodd;stroke:#6e3a8f;stroke-width:0.86500001;stroke-linecap:butt;stroke-linejoin:miter;stroke-miterlimit:4;stroke-dasharray:1.73, 1.73;stroke-dashoffset:0;stroke-opacity:1"
       d="m 66.523808,164.51934 c 9.000303,10.51771 29.449693,14.67215 26.58673,32.12684 l 0.06059,0.37911"
       id="path5695"
       inkscape:connector-curvature="0" />
    <path
       style="opacity:1;vector-effect:none;fill:none;fill-opacity:1;fill-rule:evenodd;stroke:#6e3a8f;stroke-width:0.86500001;stroke-linecap:butt;stroke-linejoin:miter;stroke-miterlimit:4;stroke-dasharray:1.73, 1.73;stroke-dashoffset:0;stroke-opacity:1"
       d="m 100.91964,198.15922 c 3.40215,-9.44303 13.58904,-14.35018 23.06784,-15.11948 6.55014,-0.71747 13.16127,-0.0676 19.64347,0.94538"
       id="path5718"
       inkscape:connector-curvature="0" />
    <path
       style="color:#000000;font-style:normal;font-variant:normal;font-weight:normal;font-stretch:normal;font-size:medium;line-height:normal;font-family:sans-serif;font-variant-ligatures:normal;font-variant-position:normal;font-variant-caps:normal;font-variant-numeric:normal;font-variant-alternates:normal;font-feature-settings:normal;text-indent:0;text-align:start;text-decoration:none;text-decoration-line:none;text-decoration-style:solid;text-decoration-color:#000000;letter-spacing:normal;word-spacing:normal;text-transform:none;writing-mode:lr-tb;direction:ltr;text-orientation:mixed;dominant-baseline:auto;baseline-shift:baseline;text-anchor:start;white-space:normal;shape-padding:0;clip-rule:nonzero;display:inline;overflow:visible;visibility:visible;opacity:1;isolation:auto;mix-blend-mode:normal;color-interpolation:sRGB;color-interpolation-filters:linearRGB;solid-color:#000000;solid-opacity:1;vector-effect:none;fill:#6e3a8f;fill-opacity:1;fill-rule:evenodd;stroke:none;stroke-width:0.86500001;stroke-linecap:butt;stroke-linejoin:miter;stroke-miterlimit:4;stroke-dasharray:1.73, 1.73;stroke-dashoffset:0;stroke-opacity:1;color-rendering:auto;image-rendering:auto;shape-rendering:auto;text-rendering:auto;enable-background:accumulate"
       d="m 120.47852,95.863281 1.12607,0.947266 0.008,0.0059 0.0105,0.0078 0.2432,0.183593 0.56201,-0.679687 -0.24524,-0.183594 -1.10768,-0.93164 z m 41.22749,1.548828 -0.004,0.002 -0.0122,0.0078 -0.57836,0.322266 0.45779,0.746093 0.59267,-0.332031 0.008,-0.0039 0.008,-0.0039 0.94418,-0.580079 -0.48845,-0.728515 z m -38.37858,0.654297 0.69077,0.464844 0.008,0.0078 0.0105,0.0059 0.81748,0.492187 0.48231,-0.732421 -0.79703,-0.480469 -0.68874,-0.464844 z m 35.85666,0.69336 -0.0105,0.0059 -0.006,0.002 -1.22825,0.566406 0.39239,0.779298 1.24461,-0.57422 0.008,-0.0039 0.008,-0.0039 0.37808,-0.193359 -0.42509,-0.763672 z m -32.74411,1.15625 0.13693,0.07227 0.0105,0.0059 0.0105,0.0059 1.30797,0.62109 0.0105,0.004 0.0105,0.004 0.17576,0.0742 0.36174,-0.793012 -0.15533,-0.06445 -0.0204,-0.0098 -1.2671,-0.601563 h -0.002 l -0.0184,-0.0098 -0.1165,-0.0625 z m 28.74664,0.505864 -0.006,0.002 -0.0105,0.004 -0.53953,0.17774 0.29633,0.81836 0.55384,-0.1836 0.008,-0.004 0.008,-0.002 1.14039,-0.42383 -0.32904,-0.80664 z m -25.39703,0.95898 0.85223,0.31055 0.0105,0.004 0.0105,0.002 0.85426,0.26757 0.28204,-0.82226 -0.85427,-0.26758 -0.83178,-0.30273 z m 22.61964,-0.0977 -0.0163,0.004 -1.19557,0.30078 0.2289,0.83594 1.21191,-0.30274 0.008,-0.002 0.008,-0.004 0.5334,-0.15429 -0.26364,-0.82813 z m -19.13717,1.17383 0.20027,0.0547 0.0105,0.002 0.0105,0.002 1.42241,0.3125 0.0105,0.002 0.0105,0.002 0.13897,0.0254 0.16349,-0.85156 -0.12057,-0.0195 -0.0163,-0.004 h -0.002 l -1.40401,-0.31054 -0.17985,-0.0469 z m 14.85562,-0.26562 -0.42917,0.0586 0.12671,0.85742 0.42918,-0.0586 0.008,-0.002 0.0105,-0.002 1.35292,-0.23437 -0.16144,-0.85157 z m -11.25054,0.96289 0.96667,0.1289 h 0.008 l 0.0105,0.002 0.83178,0.0781 0.0879,-0.86133 -0.81339,-0.0762 h -0.006 l -0.0122,-0.002 -0.94623,-0.12695 z m 8.3485,-0.6211 -0.0163,0.002 -1.07703,0.0644 0.0592,0.86328 1.09339,-0.0664 h 0.008 l 0.008,-0.002 0.71121,-0.0703 -0.094,-0.85938 z m -4.70868,0.95118 0.29225,0.0156 0.0105,0.002 h 0.008 l 1.4735,0.0215 h 0.008 0.008 l 0.047,-0.002 -0.0225,-0.86523 -0.0287,0.002 h -0.0143 -0.004 l -1.43467,-0.0215 h -0.0184 l -0.27386,-0.0156 z"
       id="path5744"
       inkscape:connector-curvature="0" />
    <path
       style="opacity:1;vector-effect:none;fill:none;fill-opacity:1;fill-rule:evenodd;stroke:#6e3a8f;stroke-width:0.86500001;stroke-linecap:butt;stroke-linejoin:miter;stroke-miterlimit:4;stroke-dasharray:1.73, 1.73;stroke-dashoffset:0;stroke-opacity:1"
       d="m 111.88095,128.6116 c 15.17689,-7.79284 33.11556,-8.68404 49.57778,-5.06775 2.7235,0.4774 5.35527,1.5254 8.05759,1.95723 0.56502,-0.0439 1.11619,-0.18883 1.68046,-0.23878"
       id="path5764"
       inkscape:connector-curvature="0" />
    <path
       style="opacity:1;vector-effect:none;fill:none;fill-opacity:1;fill-rule:evenodd;stroke:#6e3a8f;stroke-width:0.86500001;stroke-linecap:butt;stroke-linejoin:miter;stroke-miterlimit:4;stroke-dasharray:1.73, 1.73;stroke-dashoffset:0;stroke-opacity:1"
       d="m 109.23512,135.98214 c 12.37765,12.79426 30.43929,18.98867 48.00297,19.0878"
       id="path5782"
       inkscape:connector-curvature="0" />
    <path
       style="opacity:1;vector-effect:none;fill:none;fill-opacity:1;fill-rule:evenodd;stroke:#6e3a8f;stroke-width:0.86500001;stroke-linecap:butt;stroke-linejoin:miter;stroke-miterlimit:4;stroke-dasharray:1.73, 1.73;stroke-dashoffset:0;stroke-opacity:1"
       d="m 86.328056,179.66868 c 9.73775,-7.8046 19.785574,-17.99219 33.284494,-17.3443 6.01974,-0.90709 12.04194,-5.01439 13.35404,-11.25355"
       id="path5801"
       inkscape:connector-curvature="0" />
  </g>
  <style
     id="style4630"
     type="text/css">
	.st0{fill:url(#SVGID_1_);}
	.st1{opacity:0.8;}
	.st2{opacity:0.51;fill:url(#SVGID_2_);}
	.st3{opacity:0.51;fill:url(#SVGID_3_);}
	.st4{opacity:0.7;}
	.st5{fill:url(#SVGID_4_);}
	.st6{fill:url(#SVGID_5_);}
	.st7{fill:none;}
</style>
</svg>
