<?xml version="1.0" encoding="UTF-8"?>
<svg width="512px" height="512px" viewBox="0 0 512 512" version="1.1" xmlns="http://www.w3.org/2000/svg" xmlns:xlink="http://www.w3.org/1999/xlink">
    <!-- Generator: Sketch 46.2 (44496) - http://www.bohemiancoding.com/sketch -->
    <title>icon-price</title>
    <desc>Created with Sketch.</desc>
    <defs></defs>
    <g id="24x24" stroke="none" stroke-width="1" fill="none" fill-rule="evenodd">
        <g id="icon-price" fill="#67768A">
            <path d="M266,94.0113322 L266,40 L246,40 L246,95.2854389 C238.506166,96.4037289 231.526692,98.2516792 225.061507,100.829302 C213.641961,105.382193 204.051179,111.427744 196.288874,118.966137 C188.526568,126.50453 182.63029,135.199674 178.599862,145.051831 C174.569434,154.903988 172.55425,165.12918 172.55425,175.727713 C172.55425,189.311747 174.830661,200.619167 179.383552,209.650311 C183.936443,218.681455 189.944676,226.219735 197.408431,232.265377 C204.872187,238.311018 213.343422,243.274341 222.822391,247.155494 C232.30136,251.036647 242.041415,254.544559 252.042847,257.679337 C262.044279,260.814114 271.784334,264.02348 281.263303,267.307533 C290.742273,270.591585 299.213508,274.659271 306.677263,279.510712 C314.141019,284.362153 320.149252,290.407704 324.702142,297.647547 C329.255033,304.887389 331.531444,314.104989 331.531444,325.300622 C331.531444,335.600604 329.74017,345.266023 326.157567,354.297167 C322.574965,363.328311 317.387733,371.127818 310.595715,377.695923 C303.803698,384.264027 295.481736,389.451259 285.629578,393.257775 C275.777421,397.06429 264.581956,398.967519 252.042847,398.967519 C242.937066,398.967519 234.801694,398.071882 227.636489,396.280581 C220.471284,394.489279 214.127187,392.287504 208.604008,389.67519 C203.080829,387.062876 198.229461,384.226691 194.049758,381.166551 C189.870055,378.106412 186.287506,375.270227 183.302004,372.657913 C180.316502,370.045599 177.778863,367.843824 175.689012,366.052522 C173.59916,364.261221 171.882522,363.365584 170.539046,363.365584 C168.150645,363.365584 166.060824,364.48513 164.269523,366.724257 L158,376.576365 C169.344908,389.414024 182.555557,399.527261 197.632343,406.916379 C211.346504,413.637675 227.468921,417.30201 246,417.909466 L246,472 L266,472 L266,417.286543 C276.385452,416.21994 285.914085,413.957422 294.58604,410.498963 C307.125149,405.498247 317.723523,398.669014 326.381479,390.011057 C335.039435,381.353101 341.64476,371.165228 346.19765,359.447132 C350.750541,347.729036 353.026952,335.227433 353.026952,321.941949 C353.026952,308.955015 350.750541,298.095413 346.19765,289.36282 C341.64476,280.630226 335.636527,273.278537 328.172771,267.307533 C320.709016,261.336529 312.237781,256.373206 302.758811,252.417415 C293.279842,248.461625 283.539787,244.841758 273.538355,241.557706 C263.536923,238.273653 253.796868,234.952332 244.317899,231.593642 C234.83893,228.234952 226.367695,224.09263 218.903939,219.166551 C211.440184,214.240473 205.431951,208.269558 200.87906,201.253628 C196.326169,194.237698 194.049758,185.355963 194.049758,174.608155 C194.049758,166.398024 195.579805,158.561198 198.639945,151.097443 C201.700084,143.633688 206.17827,137.065681 212.074637,131.393227 C217.971004,125.720773 225.285374,121.242587 234.017968,117.958535 C242.750562,114.674483 252.863799,113.032481 264.357982,113.032481 C275.852165,113.032481 285.517583,114.450573 293.354527,117.2868 C301.19147,120.123027 307.722158,123.220439 312.946786,126.579129 C318.171415,129.937819 322.313737,132.997913 325.373877,135.759502 C328.434017,138.521092 330.934337,139.901866 332.874914,139.901866 C335.41259,139.901866 337.353138,138.633047 338.696614,136.09537 L344.070491,125.795439 C333.322683,115.047631 321.418172,107.061533 308.3566,101.836904 C295.791714,96.8109496 281.672979,94.2024489 266,94.0113322 Z" id="Combined-Shape"></path>
        </g>
    </g>
</svg>