<?xml version="1.0" encoding="UTF-8"?>
<svg width="24px" height="24px" viewBox="0 0 24 24" version="1.1" xmlns="http://www.w3.org/2000/svg" xmlns:xlink="http://www.w3.org/1999/xlink">
    <!-- Generator: Sketch 52.5 (67469) - http://www.bohemiancoding.com/sketch -->
    <title>Icons / grey / entitiesmulti</title>
    <desc>Created with Sketch.</desc>
    <g id="Icons-/-grey-/-entitiesmulti" stroke="none" stroke-width="1" fill="none" fill-rule="evenodd" stroke-linecap="round" stroke-linejoin="round">
        <g id="icon" transform="translate(4.000000, 2.000000)" stroke="#67768A">
            <path d="M16,6.073602 L16,19 C16,19.5522847 15.5522847,20 15,20 L1,20 C0.44771525,20 5.39670589e-15,19.5522847 5.32907052e-15,19 L5.32907052e-15,1 C5.26143514e-15,0.44771525 0.44771525,1.01453063e-16 1,0 L10,0 M10.4133916,9 L12,9 C12.5522847,9 13,9.44771525 13,10 L13,16 C13,16.5522847 12.5522847,17 12,17 L10.4133916,17 C9.86110681,17 9.41339156,16.5522847 9.41339156,16 L9.41339156,10 C9.41339156,9.44771525 9.86110681,9 10.4133916,9 Z M4.41339156,12 L5.91339156,12 C6.46567631,12 6.91339156,12.4477153 6.91339156,13 L6.91339156,16 C6.91339156,16.5522847 6.46567631,17 5.91339156,17 L4.41339156,17 C3.86110681,17 3.41339156,16.5522847 3.41339156,16 L3.41339156,13 C3.41339156,12.4477153 3.86110681,12 4.41339156,12 Z M4.41339156,3 L5.91339156,3 C6.46567631,3 6.91339156,3.44771525 6.91339156,4 L6.91339156,9 C6.91339156,9.55228475 6.46567631,10 5.91339156,10 L4.41339156,10 C3.86110681,10 3.41339156,9.55228475 3.41339156,9 L3.41339156,4 C3.41339156,3.44771525 3.86110681,3 4.41339156,3 Z M13,0 L13,6 M10,3 L16,3" id="Combined-Shape"></path>
        </g>
    </g>
</svg>
