<?xml version="1.0" encoding="UTF-8"?>
<svg width="512px" height="512px" viewBox="0 0 512 512" version="1.1" xmlns="http://www.w3.org/2000/svg" xmlns:xlink="http://www.w3.org/1999/xlink">
    <!-- Generator: Sketch 46.2 (44496) - http://www.bohemiancoding.com/sketch -->
    <title>icon-assetCollection</title>
    <desc>Created with Sketch.</desc>
    <defs></defs>
    <g id="24x24" stroke="none" stroke-width="1" fill="none" fill-rule="evenodd">
        <g id="icon-assetCollection" fill="#67768A">
            <path d="M60,338.015175 L60,452 L412,452 L412,348.239601 L305.727161,303.979759 L242.288655,358.471422 L147.808099,260.238486 L60,338.015175 Z M60,306.268961 L147.384701,230.160004 L243.497201,330.089698 L305.509306,276.82327 L412,324.19546 L412,100 L60,100 L60,306.268961 Z M50,472 L40,472 L40,80 L50,80 L432,80 L432,90 L432,462 L432,472 L50,472 Z M472,50 L472,432 L452,432 L452,60 L80,60 L80,40 L472,40 L472,50 Z M312,256 C281.624339,256 257,231.375661 257,201 C257,170.624339 281.624339,146 312,146 C342.375661,146 367,170.624339 367,201 C367,231.375661 342.375661,256 312,256 Z M312,236 C331.329966,236 347,220.329966 347,201 C347,181.670034 331.329966,166 312,166 C292.670034,166 277,181.670034 277,201 C277,220.329966 292.670034,236 312,236 Z" id="Combined-Shape"></path>
        </g>
    </g>
</svg>