<?xml version="1.0" encoding="UTF-8"?>
<svg width="512px" height="512px" viewBox="0 0 512 512" version="1.1" xmlns="http://www.w3.org/2000/svg" xmlns:xlink="http://www.w3.org/1999/xlink">
    <!-- Generator: Sketch 46.2 (44496) - http://www.bohemiancoding.com/sketch -->
    <title>icon-text</title>
    <desc>Created with Sketch.</desc>
    <defs>
        <path d="M309.885512,305.421201 L237.529329,133.231802 L166.089046,305.421201 L309.885512,305.421201 Z M40,466.009187 L40,454.713074 C56.0792323,452.881263 68.1384757,446.775317 76.1780919,436.395053 C84.217708,426.014789 98.0069694,397.825672 117.54629,351.826855 L247.909541,45 L260.121555,45 L415.824735,399.45371 C426.204999,423.063722 434.498909,437.66711 440.706714,443.264311 C446.914519,448.861512 457.34551,452.677728 472,454.713074 L472,466.009187 L312.938516,466.009187 L312.938516,454.713074 C331.256629,453.084798 343.061458,451.100365 348.353357,448.759717 C353.645256,446.41907 356.291166,440.669304 356.291166,431.510247 C356.291166,428.457229 355.273508,423.063643 353.238163,415.329329 C351.202817,407.595014 348.353375,399.453753 344.689753,390.9053 L318.739223,330.761131 L155.098233,330.761131 C138.815466,371.671583 129.096836,396.655078 125.942049,405.712367 C122.787263,414.769657 121.209894,421.944143 121.209894,427.236042 C121.209894,437.819841 125.484056,445.146976 134.032509,449.217668 C139.324408,451.660083 149.297453,453.491867 163.951943,454.713074 L163.951943,466.009187 L40,466.009187 Z" id="path-1"></path>
    </defs>
    <g id="24x24" stroke="none" stroke-width="1" fill="none" fill-rule="evenodd">
        <g id="icon-text">
            <mask id="mask-2" fill="white">
                <use xlink:href="#path-1"></use>
            </mask>
            <use id="A" fill="#67768A" xlink:href="#path-1"></use>
        </g>
    </g>
</svg>