<?xml version="1.0" encoding="UTF-8"?>
<svg width="512px" height="512px" viewBox="0 0 512 512" version="1.1" xmlns="http://www.w3.org/2000/svg" xmlns:xlink="http://www.w3.org/1999/xlink">
    <!-- Generator: Sketch 46.2 (44496) - http://www.bohemiancoding.com/sketch -->
    <title>icon-multiselect</title>
    <desc>Created with Sketch.</desc>
    <defs></defs>
    <g id="24x24" stroke="none" stroke-width="1" fill="none" fill-rule="evenodd">
        <g id="icon-multiselect" fill="#67768A">
            <path d="M372,140 L412,140 L412,160 L372,160 L372,200 L352,200 L352,160 L312,160 L312,140 L352,140 L352,100 L372,100 L372,140 Z M60,40 L452,40 C463.045695,40 472,48.954305 472,60 L472,452 C472,463.045695 463.045695,472 452,472 L60,472 C48.954305,472 40,463.045695 40,452 L40,60 C40,48.954305 48.954305,40 60,40 Z M60,50 C54.4771525,50 50,54.4771525 50,60 L50,452 C50,457.522847 54.4771525,462 60,462 L452,462 C457.522847,462 462,457.522847 462,452 L462,60 C462,54.4771525 457.522847,50 452,50 L60,50 Z M279.711674,285.456683 L311.614726,340.714391 L252.542678,374.819654 L220.639625,319.561946 L165.191343,382.091631 L150,129 L361.58811,268.701904 L279.711674,285.456683 Z M224.085874,285.531025 L259.863186,347.499146 L284.294218,333.393883 L248.516907,271.425761 L310.274512,258.787998 L172.36068,167.729833 L182.262447,332.695799 L224.085874,285.531025 Z" id="Combined-Shape"></path>
        </g>
    </g>
</svg>