<?xml version="1.0" encoding="UTF-8"?>
<svg width="512px" height="512px" viewBox="0 0 512 512" version="1.1" xmlns="http://www.w3.org/2000/svg" xmlns:xlink="http://www.w3.org/1999/xlink">
    <!-- Generator: Sketch 46.2 (44496) - http://www.bohemiancoding.com/sketch -->
    <title>icon-file</title>
    <desc>Created with Sketch.</desc>
    <defs></defs>
    <g id="24x24" stroke="none" stroke-width="1" fill="none" fill-rule="evenodd">
        <g id="icon-file" fill="#67768A">
            <path d="M90,472 L80,472 L80,40 L90,40 L432,40 L432,50 L432,462 L432,472 L90,472 Z M100,452 L411,452 L411,60 L100,60 L100,452 Z M148,280 L363,280 L363,300 L148,300 L148,280 Z M148,196 L363,196 L363,216 L148,216 L148,196 Z M148,108 L212,108 L212,128 L148,128 L148,108 Z M148,364 L363,364 L363,384 L148,384 L148,364 Z" id="Combined-Shape"></path>
        </g>
    </g>
</svg>