<?xml version="1.0" encoding="UTF-8" standalone="no"?>
<svg width="1440px" height="1024px" viewBox="0 0 1440 1024" version="1.1" xmlns="http://www.w3.org/2000/svg" xmlns:xlink="http://www.w3.org/1999/xlink" xmlns:sketch="http://www.bohemiancoding.com/sketch/ns">
    <!-- Generator: Sketch 3.3 (11970) - http://www.bohemiancoding.com/sketch -->
    <title>LOGIN</title>
    <desc>Created with Sketch.</desc>
    <defs></defs>
    <g id="LOGIN" stroke="none" stroke-width="1" fill="none" fill-rule="evenodd" sketch:type="MSPage">
        <g sketch:type="MSArtboardGroup">
            <g id="Imported-Layers" sketch:type="MSLayerGroup" transform="translate(-30.000000, 479.000000)" fill="#F9FAFC">
                <path d="M347.407753,337.264307 C347.182029,338.481773 347.09357,339.351681 347.05595,339.631149 C347.069168,339.671799 347.034597,339.60371 347.05595,339.631149 C347.05595,339.631149 347.051883,339.638263 347.05595,339.631149 C347.054933,339.638263 347.051883,339.629117 347.05595,339.631149 C357.266377,315.933258 375.19309,313.701578 387.602796,301.10823 C387.749211,300.898883 387.926129,300.682422 388.144735,300.449702 C388.415197,300.164136 388.676507,299.858245 388.919516,299.543208 C391.831552,295.767846 392.824938,290.033158 392.420263,283.255799 C392.423313,283.22023 392.416196,283.181613 392.415179,283.148077 C392.387726,282.586092 392.337904,282.013944 392.286049,281.44078 C392.289099,281.430617 392.280965,281.428585 392.285032,281.420455 C392.183355,280.370671 392.050158,279.288366 391.893575,278.193867 C391.87629,278.083096 391.868156,277.967244 391.84782,277.85444 C391.800032,277.554647 391.744109,277.249773 391.701405,276.952012 C391.650566,276.639007 391.603795,276.326003 391.550923,276.021129 C391.492967,275.710157 391.436027,275.408331 391.377055,275.103456 C391.319099,274.782322 391.259109,274.47135 391.198103,274.149199 C391.155398,273.932739 391.102526,273.703066 391.054738,273.476443 C389.270302,264.88813 385.933256,255.522387 381.895653,246.743019 C381.895653,246.743019 381.89667,246.746068 381.895653,246.743019 C381.895653,246.743019 381.884468,246.637329 381.895653,246.743019 C378.080723,255.67584 373.475761,264.169643 368.906387,270.462251 C363.395481,278.04956 355.193178,285.881784 346.360477,292.200815 C337.346791,286.147025 328.916732,278.5587 323.186203,271.139072 C318.396189,264.931829 313.558386,256.660585 309.480112,247.775527 C309.161863,248.517388 308.858864,249.257217 308.548749,250.002127 C308.458256,250.221637 308.372847,250.445211 308.282355,250.671835 C308.067816,251.207397 307.85226,251.733814 307.649922,252.27649 C307.551295,252.52039 307.455719,252.769371 307.365226,253.019368 C307.156788,253.562044 306.95445,254.09964 306.75923,254.639267 C306.677888,254.856744 306.596546,255.079303 306.516221,255.298812 C306.266095,255.988845 306.024103,256.669731 305.790246,257.357731 C305.760759,257.42582 305.73534,257.492892 305.716021,257.558948 C305.439459,258.356703 305.175098,259.154458 304.917855,259.95018 C304.893452,260.009123 304.882268,260.069081 304.859899,260.134121 C304.630108,260.851592 304.406419,261.558901 304.189846,262.27434 C304.143075,262.421696 304.10037,262.567019 304.055632,262.71031 C303.859395,263.36579 303.671292,264.017205 303.481156,264.671669 C303.452686,264.799716 303.420149,264.925731 303.377445,265.057843 C303.17104,265.814948 302.960568,266.569004 302.768398,267.317979 C302.770432,267.325093 302.766365,267.331191 302.763314,267.332207 C302.149184,269.745796 301.62453,272.118736 301.196468,274.436798 C301.190368,274.466269 301.188334,274.491675 301.178166,274.52013 C300.480661,278.399149 300.079036,282.108455 300.035314,285.52813 C300.034298,286.024059 300.037348,286.521004 300.047516,287.005755 C300.051583,287.024047 300.042432,287.040307 300.044465,287.059616 C300.049549,287.061648 300.048532,287.062665 300.049549,287.065713 C300.056667,287.5027 300.070901,287.943752 300.091237,288.367527 C300.09327,288.373625 300.096321,288.375657 300.096321,288.375657 C300.09327,288.391917 300.100388,288.408177 300.099371,288.425453 C300.12174,288.88683 300.151226,289.344142 300.199015,289.78621 L300.199015,289.789258 C300.204099,289.850233 300.211216,289.905111 300.220367,289.969134 C300.2224,289.972183 300.214266,289.977264 300.215283,289.982346 C300.270189,290.557542 300.343396,291.127657 300.419654,291.673383 C300.43999,291.766877 300.454225,291.855291 300.468459,291.940656 C300.469476,291.975208 300.478627,292.004679 300.478627,292.045329 C300.579288,292.663208 300.696216,293.272957 300.839581,293.863397 C300.931091,294.275994 301.042936,294.678428 301.154781,295.073749 C301.203586,295.243462 301.262559,295.40403 301.31238,295.568662 C301.387622,295.808496 301.468963,296.041217 301.549288,296.278003 C301.610295,296.450765 301.683502,296.611332 301.751626,296.787143 C301.830934,297.000555 301.923461,297.211935 302.010903,297.422298 C302.084111,297.587947 302.157318,297.7414 302.23866,297.905016 C302.335253,298.111315 302.432863,298.309483 302.536574,298.511716 C302.617916,298.656024 302.703325,298.808461 302.7867,298.956833 C302.903629,299.155001 303.026659,299.350121 303.141554,299.543208 C303.225946,299.677353 303.314405,299.808449 303.398797,299.934464 C303.546229,300.140762 303.695695,300.334866 303.852278,300.539131 C303.927519,300.626529 304.000726,300.740349 304.084102,300.833843 C304.32101,301.129572 304.575203,301.404975 304.835496,301.666151 C305.010381,301.846027 305.152729,302.011675 305.285927,302.17021 C318.032184,314.483072 336.098195,316.365164 347.05595,339.631149" id="Fill-1" sketch:type="MSShapeGroup"></path>
                <path d="M514.859984,343.160579 C515.6551,345.510145 516.349555,347.114801 516.556977,347.64325 C516.621034,347.701176 516.490887,347.614795 516.556977,347.64325 C516.556977,347.64325 516.557994,347.660526 516.556977,347.64325 C516.564094,347.655445 516.545793,347.644266 516.556977,347.64325 C511.277895,296.250564 540.444009,274.868703 549.847119,240.74309 C549.899991,240.236999 549.998618,239.683143 550.152151,239.063232 C550.347371,238.297997 550.50192,237.509388 550.620883,236.724845 C552.029112,227.281867 548.166394,216.286062 540.84055,204.827864 C540.814114,204.762824 540.765309,204.704898 540.730739,204.644939 C540.13491,203.692715 539.487226,202.738458 538.834458,201.786233 C538.835475,201.767941 538.816156,201.767941 538.816156,201.752697 C537.612298,200.014913 536.325064,198.255787 534.980891,196.494629 C534.84566,196.31577 534.715514,196.122682 534.570115,195.945855 C534.193909,195.468219 533.800419,194.989566 533.433364,194.510913 C533.036823,194.008886 532.651466,193.510925 532.263059,193.029223 C531.85635,192.541424 531.459809,192.06582 531.062251,191.591232 C530.645374,191.08514 530.240699,190.601406 529.814671,190.098363 C529.530992,189.761985 529.212742,189.414428 528.908727,189.06179 C517.404965,175.787557 502.426892,162.665761 486.798085,151.249229 C486.798085,151.249229 486.801135,151.251261 486.798085,151.249229 C486.798085,151.249229 486.676072,151.077483 486.798085,151.249229 C488.845865,170.589448 489.08989,189.932715 487.239364,205.391882 C485.008566,224.030889 478.315154,245.725755 469.038123,265.38914 C447.367655,263.59343 425.222354,258.547758 407.956544,251.161666 C393.522444,244.97678 376.990743,235.23096 361.181967,223.674186 C361.351768,225.281891 361.543938,226.86927 361.731024,228.47291 C361.786947,228.947498 361.856087,229.423102 361.919127,229.90582 C362.066559,231.050115 362.203824,232.184248 362.376675,233.328544 C362.446832,233.851911 362.52004,234.38036 362.606465,234.903728 C362.772199,236.05717 362.943017,237.196384 363.129086,238.331533 C363.196193,238.788845 363.272451,239.257335 363.344642,239.718712 C363.580533,241.165849 363.826592,242.597743 364.086886,244.02862 C364.102137,244.172928 364.12349,244.316219 364.15501,244.450363 C364.448857,246.113962 364.765073,247.767397 365.091457,249.409654 C365.108742,249.536685 365.147379,249.652538 365.170765,249.786682 C365.467663,251.268372 365.766594,252.72364 366.087894,254.185004 C366.1489,254.48683 366.218041,254.782558 366.280064,255.079303 C366.576961,256.41262 366.881993,257.736792 367.192108,259.068077 C367.263283,259.320106 367.330389,259.574168 367.386312,259.845507 C367.760484,261.368863 368.130589,262.891202 368.526114,264.389152 C368.537298,264.397282 368.537298,264.412526 368.532214,264.41964 C369.814364,269.238688 371.211409,273.89717 372.728434,278.366629 C372.745719,278.42862 372.768088,278.473335 372.775205,278.533294 C375.343572,285.99662 378.264759,292.874588 381.524531,298.894842 C382.009531,299.763734 382.498599,300.629578 382.988683,301.46595 C383.011052,301.495421 383.013086,301.533022 383.036471,301.56351 C383.044605,301.562493 383.046639,301.568591 383.048673,301.568591 C383.488935,302.331793 383.944449,303.083817 384.394879,303.805353 C384.399963,303.814499 384.410131,303.814499 384.410131,303.814499 C384.421315,303.848035 384.448768,303.872425 384.465036,303.899864 C384.956137,304.681359 385.451306,305.452691 385.966809,306.182357 L385.969859,306.187439 C386.039,306.291096 386.10509,306.377477 386.182365,306.480118 C386.189482,306.485199 386.180331,306.502476 386.185415,306.505524 C386.847334,307.460798 387.529588,308.3866 388.194557,309.263622 C388.323687,309.410978 388.433499,309.55122 388.544327,309.68943 C388.575847,309.744307 388.621602,309.790038 388.660239,309.857111 C389.44417,310.842871 390.242337,311.798145 391.064905,312.684313 C391.631248,313.319468 392.219959,313.910925 392.800536,314.495267 C393.051679,314.746281 393.308922,314.966806 393.559048,315.205625 C393.926103,315.553182 394.294174,315.880414 394.66733,316.215775 C394.940841,316.460691 395.226554,316.665973 395.516335,316.909873 C395.862037,317.202552 396.231126,317.485069 396.590046,317.768603 C396.878809,317.984047 397.158422,318.185264 397.45837,318.385465 C397.830508,318.651722 398.19553,318.907817 398.573769,319.157814 C398.854398,319.332609 399.155363,319.518582 399.444126,319.693377 C399.841684,319.926097 400.245343,320.144591 400.637817,320.373247 C400.913362,320.521619 401.198058,320.665926 401.466486,320.805152 C401.928101,321.020597 402.379548,321.216733 402.853364,321.420999 C403.069936,321.503315 403.309894,321.627297 403.544769,321.708597 C404.247358,321.997211 404.959099,322.230948 405.671856,322.433182 C406.153806,322.575456 406.563566,322.724845 406.951973,322.87525 C441.25482,331.974736 474.68426,317.64462 516.556977,347.64325" id="Fill-2" sketch:type="MSShapeGroup"></path>
                <path d="M153.7594,296.293247 C154.554516,298.642812 155.248972,300.249501 155.456393,300.778966 C155.52045,300.833843 155.390303,300.748479 155.456393,300.778966 C155.456393,300.778966 155.45741,300.795226 155.456393,300.778966 C155.46351,300.789129 155.445209,300.778966 155.456393,300.778966 C150.177311,249.383232 179.343425,228.000355 188.747552,193.876774 C188.799407,193.370682 188.898034,192.815811 189.051567,192.197932 C189.246787,191.432697 189.401337,190.643072 189.520299,189.859545 C190.928529,180.416567 187.064794,169.419746 179.739966,157.961548 C179.71353,157.897524 179.665742,157.838582 179.631171,157.77964 C179.034326,156.827415 178.387659,155.872142 177.734891,154.919917 C177.734891,154.901625 177.716589,154.901625 177.716589,154.886381 C176.511714,153.149613 175.223463,151.389471 173.880307,149.628313 C173.745077,149.449453 173.61493,149.256366 173.469531,149.079539 C173.094342,148.601903 172.699835,148.12325 172.33278,147.644597 C171.936239,147.14257 171.550882,146.643592 171.162475,146.163923 C170.756783,145.676124 170.359225,145.20052 169.961667,144.724916 C169.54479,144.21984 169.140115,143.73509 168.714087,143.232047 C168.430408,142.895669 168.113175,142.548112 167.80916,142.195474 C156.304381,128.921241 141.326308,115.799445 125.697501,104.382913 C125.697501,104.382913 125.700552,104.384945 125.697501,104.382913 C125.697501,104.382913 125.575489,104.211167 125.697501,104.382913 C127.745281,123.723131 127.988289,143.066399 126.13878,158.526582 C123.908999,177.164573 117.21457,198.860455 107.937539,218.52384 C86.2670712,216.727114 64.1217703,211.682458 46.8559598,204.29535 C32.4218601,198.110464 15.8891424,188.364644 0.0813833775,176.80787 C0.251184353,178.415575 0.443354319,180.00397 0.630440423,181.60761 C0.6863629,182.081182 0.756520189,182.556786 0.8185433,183.04052 C0.965975284,184.184815 1.10323955,185.317932 1.27710761,186.462227 C1.34624813,186.986612 1.41945573,187.515061 1.50588138,188.038428 C1.67161526,189.19187 1.84243301,190.330068 2.02850234,191.464201 C2.09560932,191.922529 2.17186724,192.391019 2.24405807,192.853412 C2.48096602,194.300549 2.72600815,195.731427 2.98630186,197.162304 C3.00155344,197.307628 3.02290566,197.450919 3.0544256,197.584047 C3.3482728,199.248662 3.66448899,200.901081 3.9908729,202.544355 C4.00815802,202.670369 4.0457786,202.786222 4.07018114,202.920366 C4.36606188,204.402056 4.66600971,205.857323 4.98730976,207.318688 C5.04831609,207.620514 5.11745661,207.916242 5.17846295,208.212987 C5.47637723,209.547321 5.78039215,210.871492 6.09254125,212.202777 C6.16269854,212.45379 6.22878874,212.707852 6.28572799,212.979191 C6.6599002,214.502547 7.03102209,216.025903 7.42552975,217.523852 C7.43569747,217.530966 7.43671424,217.547226 7.43163038,217.55434 C8.71378026,222.371356 10.1108254,227.030854 11.6278497,231.501329 C11.6451348,231.562304 11.6675038,231.608035 11.675638,231.666978 C14.2429881,239.130304 17.1641749,246.007256 20.4239469,252.029542 C20.9089473,252.896402 21.3980148,253.763261 21.8870823,254.598617 C21.910468,254.630121 21.9125016,254.666706 21.9358873,254.697194 C21.9450383,254.697194 21.9450383,254.703291 21.9491054,254.703291 C22.3893678,255.465477 22.843865,256.217501 23.2942951,256.940053 C23.299379,256.949199 23.3095467,256.948183 23.3095467,256.948183 C23.3207312,256.981719 23.3481841,257.005093 23.3644524,257.032532 C23.8555534,257.814027 24.3507216,258.587391 24.8662251,259.316041 L24.8682587,259.322139 C24.938416,259.423764 25.0045062,259.512177 25.0817808,259.614818 C25.089915,259.618883 25.0797473,259.635143 25.0848312,259.641241 C25.7467499,260.596514 26.4290042,261.520284 27.0939732,262.397306 C27.2231033,262.545678 27.3339315,262.682871 27.4437429,262.822097 C27.4752629,262.880024 27.5210176,262.924739 27.559655,262.991811 C28.3435864,263.976555 29.1417527,264.931829 29.9643215,265.819013 C30.5316804,266.453152 31.1193748,267.043592 31.7009686,267.628951 C31.9510945,267.878948 32.2093547,268.101507 32.4594807,268.340325 C32.8255187,268.687882 33.1935903,269.015114 33.5677625,269.350476 C33.8412743,269.594375 34.1259705,269.80169 34.4157506,270.043557 C34.7614532,270.336236 35.1295248,270.617737 35.4894622,270.90127 C35.7782255,271.116715 36.0578379,271.318948 36.3577857,271.520165 C36.7299244,271.785406 37.0949456,272.041501 37.4742017,272.292514 C37.7538141,272.466292 38.0547787,272.653282 38.343542,272.827061 C38.7411,273.061814 39.1447586,273.278275 39.5372327,273.508963 C39.812778,273.656319 40.0974743,273.800626 40.3659022,273.93782 C40.8275168,274.153264 41.2789637,274.350417 41.7517628,274.555699 C41.9693521,274.638015 42.2093103,274.760981 42.4441847,274.842281 C43.1467744,275.129879 43.8595318,275.364632 44.5712724,275.566866 C45.0532225,275.710157 45.4629817,275.858529 45.8513887,276.010966 C80.154236,285.107403 113.583676,270.778304 155.456393,300.778966" id="Fill-3" sketch:type="MSShapeGroup"></path>
                <path d="M217.685909,298.233264 C216.583727,299.792189 215.89944,300.951728 215.665582,301.31961 C215.659481,301.38465 215.654397,301.265749 215.665582,301.31961 C215.665582,301.31961 215.655414,301.32774 215.665582,301.31961 C215.660498,301.328756 215.661515,301.313513 215.665582,301.31961 C245.236371,274.756916 271.747692,283.190759 297.229023,273.576035 C297.568625,273.378883 297.957032,273.188845 298.411529,273.004904 C298.975838,272.779297 299.537096,272.518121 300.078019,272.23662 C306.588412,268.833205 311.678374,261.452195 315.48517,251.71044 C315.512622,251.665725 315.527874,251.608815 315.549226,251.561052 C315.870526,250.758216 316.171491,249.923876 316.468388,249.086487 C316.479573,249.079374 316.471439,249.067179 316.48059,249.059049 C317.015412,247.524514 317.526848,245.927988 318.013882,244.295894 C318.063704,244.130245 318.12471,243.961548 318.169448,243.791835 C318.295528,243.34062 318.413474,242.879244 318.545654,242.43616 C318.678851,241.960555 318.815099,241.495114 318.937112,241.036786 C319.057091,240.563214 319.173003,240.102854 319.287898,239.639445 C319.413978,239.151645 319.530907,238.680106 319.649869,238.189258 C319.731211,237.859994 319.803402,237.50634 319.88576,237.155734 C322.92896,223.995321 324.304653,208.746517 324.324988,193.865595 C324.324988,193.865595 324.324988,193.868644 324.324988,193.865595 C324.324988,193.865595 324.376843,193.711126 324.324988,193.865595 C313.224885,203.896981 301.304246,212.81151 290.852844,218.665099 C278.250968,225.722942 261.726384,231.391575 245.294327,234.535846 C236.59584,220.258576 229.701107,204.216083 226.473872,190.142062 C223.781458,178.373908 222.35391,163.688106 222.379329,148.63239 C221.4561,149.464697 220.55524,150.304118 219.642178,151.145572 C219.373751,151.395569 219.110407,151.654712 218.837912,151.911823 C218.192261,152.522588 217.549661,153.121158 216.917229,153.747167 C216.621348,154.027651 216.327501,154.313217 216.040771,154.602848 C215.398171,155.228857 214.766755,155.850801 214.145507,156.479858 C213.892331,156.729855 213.636104,156.988999 213.380895,157.243061 C212.587812,158.045897 211.808965,158.845684 211.037234,159.65665 C210.953859,159.731852 210.874551,159.809087 210.80541,159.889371 C209.903533,160.826352 209.018941,161.771462 208.145534,162.718606 C208.07436,162.786694 208.019454,162.862913 207.947263,162.938115 C207.159265,163.793796 206.390585,164.639315 205.625972,165.500077 C205.468372,165.675888 205.313823,165.851699 205.15724,166.024461 C204.462785,166.813069 203.77748,167.602694 203.089125,168.398417 C202.966096,168.556951 202.838999,168.713453 202.694618,168.870972 C201.916787,169.794742 201.137939,170.71343 200.385528,171.638216 C200.385528,171.648378 200.374343,171.655492 200.368243,171.655492 C197.952392,174.635131 195.68804,177.613755 193.595522,180.580183 C193.565019,180.618801 193.546717,180.653353 193.51418,180.684857 C190.035802,185.660408 187.081062,190.59226 184.81366,195.345253 C184.49236,196.03935 184.175127,196.73548 183.877213,197.418399 C183.870095,197.445838 183.847726,197.46413 183.838575,197.492585 C183.842642,197.497666 183.840609,197.500715 183.841626,197.502747 C183.568114,198.121643 183.30477,198.745619 183.059728,199.352319 C183.056677,199.360449 183.061761,199.36553 183.061761,199.36553 C183.045493,199.387888 183.044476,199.415326 183.034308,199.437684 C182.768931,200.096213 182.513721,200.755758 182.294098,201.40514 L182.292065,201.409205 C182.259528,201.499651 182.236142,201.579935 182.205639,201.67343 C182.207672,201.68156 182.192421,201.682576 182.190387,201.687657 C181.89654,202.531143 181.631163,203.375645 181.38612,204.185595 C181.3546,204.331935 181.317997,204.463031 181.280376,204.595143 C181.260041,204.639858 181.252923,204.689654 181.228521,204.743516 C180.970261,205.675415 180.738436,206.605282 180.558468,207.519905 C180.42222,208.158109 180.320543,208.791232 180.220899,209.417241 C180.178195,209.68553 180.156843,209.947722 180.121256,210.210931 C180.072451,210.595072 180.03483,210.9721 179.995176,211.356242 C179.967723,211.636727 179.967723,211.908065 179.949421,212.197696 C179.922985,212.545253 179.914851,212.901956 179.901633,213.252561 C179.898583,213.529997 179.899599,213.795238 179.909767,214.072674 C179.912817,214.424295 179.919935,214.766771 179.93417,215.115344 C179.953488,215.369406 179.973824,215.639728 179.996193,215.897855 C180.03178,216.25151 180.079568,216.601099 180.115155,216.94764 C180.146675,217.187474 180.186329,217.429341 180.221916,217.66003 C180.296141,218.043155 180.379516,218.413069 180.465941,218.799244 C180.51373,218.97099 180.54525,219.176272 180.601172,219.360213 C180.74047,219.927279 180.917388,220.475037 181.113625,221.008567 C181.243772,221.3734 181.336299,221.694535 181.418657,222.00449 C191.298634,247.437117 215.353433,261.714387 215.665582,301.31961" id="Fill-4" sketch:type="MSShapeGroup"></path>
                <path d="M583.950679,253.080343 C582.848498,254.638251 582.165227,255.79779 581.930352,256.165672 C581.924252,256.231728 581.919168,256.110795 581.930352,256.165672 C581.930352,256.165672 581.920185,256.173802 581.930352,256.165672 C581.925269,256.175835 581.926285,256.160591 581.930352,256.165672 C611.502158,229.60501 638.012463,238.037838 663.493793,228.423114 C663.833395,228.224945 664.221802,228.035923 664.677316,227.850966 C665.240608,227.625359 665.801866,227.364183 666.343806,227.082682 C672.854199,223.679267 677.943145,216.299273 681.74994,206.557518 C681.777393,206.510771 681.792645,206.455894 681.813997,206.406097 C682.136314,205.604278 682.436261,204.770954 682.733159,203.933566 C682.74536,203.925436 682.736209,203.913241 682.74536,203.907143 C683.280182,202.371592 683.792636,200.775066 684.278653,199.140939 C684.328475,198.976307 684.389481,198.808626 684.434219,198.637897 C684.560299,198.188715 684.679261,197.726322 684.810425,197.281205 C684.944639,196.807634 685.078853,196.342192 685.201882,195.883864 C685.321861,195.410292 685.437773,194.948916 685.551652,194.485507 C685.678748,193.998724 685.795677,193.527185 685.915656,193.034304 C685.995981,192.706056 686.069189,192.351386 686.150531,192.002812 C689.19373,178.841383 690.569423,163.592579 690.590775,148.711657 C690.590775,148.711657 690.590775,148.714706 690.590775,148.711657 C690.590775,148.711657 690.641614,148.558204 690.590775,148.711657 C679.489655,158.744059 667.570034,167.658588 657.117614,173.512177 C644.515738,180.570021 627.991155,186.238653 611.560114,189.381908 C602.861627,175.104638 595.965877,159.062145 592.738642,144.988124 C590.046229,133.21997 588.618681,118.535185 588.6441,103.478452 C587.720871,104.311775 586.821027,105.15018 585.907966,105.991634 C585.639538,106.241631 585.375177,106.50179 585.102682,106.758901 C584.457032,107.369666 583.815448,107.96722 583.181999,108.593229 C582.887135,108.873713 582.592271,109.159279 582.305541,109.449926 C581.663958,110.074919 581.032543,110.696863 580.410278,111.326936 C580.158118,111.575917 579.900875,111.836077 579.645665,112.089123 C578.853599,112.891959 578.073735,113.692762 577.302005,114.502712 C577.217613,114.577914 577.139321,114.656165 577.070181,114.736449 C576.168304,115.67343 575.283712,116.617524 574.410304,117.564668 C574.340147,117.632756 574.284225,117.709991 574.212034,117.785194 C573.425052,118.639858 572.655355,119.486393 571.891759,120.346139 C571.732126,120.52195 571.57961,120.698777 571.422011,120.870523 C570.727555,121.660148 570.042251,122.449773 569.354913,123.244479 C569.230866,123.40403 569.10377,123.559516 568.959388,123.71805 C568.182574,124.640804 567.40271,125.560508 566.650298,126.485294 C566.650298,126.495456 566.640131,126.501554 566.63403,126.501554 C564.217162,129.48221 561.95281,132.459817 559.86131,135.427261 C559.830806,135.465879 559.811488,135.500431 559.779968,135.531935 C556.300573,140.507486 553.346849,145.438322 551.077414,150.192331 C550.758147,150.886428 550.439897,151.582558 550.143,152.265477 C550.134866,152.292916 550.112497,152.311208 550.103346,152.337631 C550.10843,152.344744 550.105379,152.347793 550.106396,152.349826 C549.832884,152.967705 549.56954,153.592697 549.325515,154.198381 C549.321448,154.206511 549.326532,154.212609 549.326532,154.212609 C549.31128,154.234966 549.309247,154.262405 549.299079,154.283746 C549.034718,154.943291 548.779508,155.60182 548.559885,156.252219 L548.556835,156.255267 C548.524298,156.345713 548.500913,156.425997 548.471426,156.520508 C548.472443,156.527622 548.457191,156.529654 548.456175,156.534736 C548.162327,157.378222 547.895933,158.221708 547.651908,159.032674 C547.619371,159.179013 547.582767,159.310109 547.545147,159.442222 C547.524811,159.48592 547.517694,159.535716 547.494308,159.590594 C547.236048,160.522493 547.004224,161.451344 546.823238,162.365968 C546.686991,163.004171 546.585314,163.637294 546.48567,164.264319 C546.443982,164.532609 546.421613,164.793784 546.386026,165.056993 C546.337221,165.441134 546.299601,165.819179 546.259946,166.202304 C546.232494,166.482789 546.232494,166.755143 546.214192,167.043758 C546.187756,167.391315 546.180638,167.749034 546.166403,168.09964 C546.163353,168.377075 546.16437,168.6413 546.175554,168.918736 C546.178605,169.271374 546.184705,169.613849 546.199957,169.962422 C546.219276,170.216484 546.238594,170.486806 546.26198,170.744934 C546.29655,171.098588 546.344339,171.447161 546.379926,171.794718 C546.411445,172.034552 546.4511,172.275403 546.487703,172.506092 C546.561928,172.889217 546.644286,173.259131 546.730712,173.646322 C546.7785,173.818068 546.81002,174.02335 546.865943,174.206275 C547.006257,174.773341 547.182159,175.322115 547.378396,175.854629 C547.508543,176.220479 547.601069,176.541613 547.683428,176.851569 C557.563404,202.284195 581.61922,216.562482 581.930352,256.165672" id="Fill-5" sketch:type="MSShapeGroup"></path>
                <path d="M714.139222,290.790263 C713.912482,292.007728 713.825039,292.875604 713.786402,293.158121 C713.801654,293.198771 713.76505,293.12865 713.786402,293.158121 C713.786402,293.158121 713.783352,293.164219 713.786402,293.158121 C713.786402,293.164219 713.782335,293.155072 713.786402,293.158121 C723.998863,269.458198 741.924559,267.228549 754.334265,254.63317 C754.479663,254.423823 754.656582,254.208378 754.875188,253.975657 C755.146666,253.689075 755.407976,253.383185 755.650985,253.068148 C758.562004,249.293802 759.554374,243.558097 759.151732,236.780739 C759.154782,236.74517 759.147665,236.707569 759.147665,236.674032 C759.118178,236.113064 759.069373,235.538883 759.017518,234.965719 C759.020568,234.956573 759.013451,234.953524 759.015484,234.946411 C758.914824,233.89561 758.78061,232.815338 758.624027,231.719823 C758.607759,231.608035 758.600641,231.493199 758.578272,231.381412 C758.530484,231.079586 758.474562,230.776744 758.431857,230.477968 C758.382035,230.162931 758.334247,229.851959 758.283408,229.5481 C758.223419,229.236112 758.167496,228.932254 758.108524,228.628396 C758.049551,228.306245 757.990578,227.997306 757.927538,227.674139 C757.88585,227.456662 757.833995,227.230038 757.787223,227.001383 C756.001771,218.414086 752.663708,209.048343 748.626105,200.267959 C748.626105,200.267959 748.628139,200.269991 748.626105,200.267959 C748.626105,200.267959 748.616954,200.163285 748.626105,200.267959 C744.811175,209.20078 740.20723,217.694582 735.637856,223.987191 C730.12695,231.574499 721.923631,239.40774 713.09093,245.726771 C704.077243,239.672981 695.647184,232.085672 689.917672,224.665028 C685.127658,218.457784 680.289855,210.185524 676.210565,201.300467 C675.892315,202.043344 675.590333,202.782157 675.281235,203.527066 C675.189725,203.747592 675.104316,203.971167 675.013824,204.196774 C674.800301,204.733353 674.583729,205.25977 674.381391,205.802446 C674.282764,206.046346 674.187188,206.295326 674.096695,206.545323 C673.888257,207.086984 673.685919,207.625595 673.489682,208.165223 C673.40834,208.3827 673.328015,208.605258 673.246673,208.823752 C672.997564,209.512768 672.755572,210.195687 672.520698,210.883687 C672.492228,210.951775 672.466809,211.017832 672.44749,211.084904 C672.170928,211.881643 671.906567,212.679397 671.648307,213.474103 C671.624921,213.534062 671.61272,213.595037 671.590351,213.659061 C671.360561,214.377548 671.137888,215.084857 670.920298,215.799279 C670.874544,215.946635 670.831839,216.092975 670.786084,216.236266 C670.590864,216.89073 670.402761,217.543161 670.212625,218.197625 C670.183138,218.325672 670.151618,218.452703 670.108914,218.583799 C669.901492,219.339888 669.692037,220.093944 669.500884,220.843935 C669.501901,220.850032 669.497834,220.855114 669.493767,220.858162 C668.880653,223.271752 668.355999,225.643675 667.927937,227.960721 C667.921837,227.992225 667.919803,228.017631 667.909635,228.045069 C667.21213,231.924089 666.811521,235.633394 666.766783,239.053069 C666.765767,239.551031 666.768817,240.045944 666.777968,240.530694 C666.783052,240.548987 666.772884,240.566263 666.774918,240.584555 C666.781018,240.587604 666.780001,240.58862 666.781018,240.590653 C666.788136,241.028656 666.80237,241.467675 666.821689,241.892467 C666.824739,241.898564 666.82779,241.900597 666.82779,241.900597 C666.824739,241.917873 666.831857,241.934133 666.83084,241.950393 C666.854226,242.41177 666.882695,242.869081 666.930484,243.312165 L666.929467,243.314198 C666.935568,243.376189 666.942685,243.43005 666.950819,243.494074 C666.953869,243.498139 666.944719,243.50322 666.946752,243.506269 C667.001658,244.084514 667.074865,244.652597 667.150107,245.197306 C667.172476,245.292833 667.185694,245.381247 667.198912,245.467628 C667.199928,245.500148 667.209079,245.529619 667.210096,245.570269 C667.310757,246.189164 667.426669,246.798913 667.57105,247.388337 C667.663577,247.80195 667.774405,248.202352 667.88625,248.599705 C667.936072,248.769418 667.993011,248.929985 668.042833,249.093601 C668.119091,249.334452 668.200432,249.567173 668.279741,249.803959 C668.340747,249.976721 668.413955,250.137288 668.483095,250.313099 C668.562403,250.526511 668.65493,250.737891 668.741355,250.947238 C668.814563,251.112886 668.88777,251.268372 668.970129,251.429956 C669.066722,251.635238 669.164332,251.836455 669.268043,252.036656 C669.349385,252.181979 669.434794,252.335433 669.517152,252.481773 C669.635098,252.681973 669.758128,252.874044 669.872006,253.068148 C669.957415,253.201276 670.044857,253.333388 670.130266,253.458387 C670.277698,253.664685 670.427164,253.861838 670.583747,254.065087 C670.657971,254.153501 670.732195,254.265288 670.816587,254.358783 C671.051462,254.655527 671.306672,254.930931 671.565949,255.192106 C671.74185,255.371982 671.884198,255.536614 672.017396,255.695149 C684.763653,268.009028 702.828647,269.890103 713.786402,293.158121" id="Fill-6" sketch:type="MSShapeGroup"></path>
                <path d="M248.281773,88.2215185 C248.645778,89.2956928 248.964028,90.0273914 249.058587,90.2702747 C249.089091,90.2956809 249.029101,90.2570635 249.058587,90.2702747 C249.058587,90.2702747 249.058587,90.2773885 249.058587,90.2702747 C249.061638,90.275356 249.053504,90.2702747 249.058587,90.2702747 C246.622401,66.7878287 259.939068,57.0033914 264.220696,41.4080473 C264.243065,41.1753264 264.286786,40.9232969 264.35796,40.6387474 C264.44642,40.2901743 264.51861,39.9294062 264.571483,39.5696544 C265.208999,35.2546647 263.438798,30.2323663 260.088533,25.0007208 C260.075315,24.9702334 260.05193,24.9438109 260.036678,24.9173885 C259.763166,24.481418 259.467286,24.0464638 259.170388,23.6115096 C259.167338,23.6043959 259.16022,23.6043959 259.159204,23.5952496 C258.60913,22.8015598 258.020419,21.9987238 257.405271,21.1938552 C257.342231,21.1125554 257.284275,21.0241418 257.217168,20.9438582 C257.045334,20.7253648 256.864348,20.5078877 256.696581,20.2883781 C256.516612,20.0597223 256.338677,19.8320827 256.161759,19.6125731 C255.974673,19.3900148 255.795721,19.1725377 255.611685,18.9560768 C255.422565,18.7264047 255.234462,18.5038464 255.041276,18.2751905 C254.911129,18.1217371 254.767764,17.9621861 254.627449,17.8016189 C249.365653,11.7417312 242.514641,5.7529808 235.366732,0.543692762 C235.366732,0.543692762 235.368765,0.54470901 235.366732,0.543692762 C235.366732,0.543692762 235.311826,0.463409158 235.366732,0.543692762 C236.31233,9.37895421 236.432309,18.2172644 235.595505,25.2822216 C234.584834,33.8014298 231.535534,43.7179793 227.305761,52.7066942 C217.403415,51.8967445 207.282464,49.6020561 199.38926,46.2342097 C192.790408,43.4161536 185.230706,38.9710842 178.003488,33.6967563 C178.08178,34.4315037 178.170239,35.1571049 178.255648,35.8898198 C178.282084,36.1072969 178.314621,36.3237578 178.342074,36.5432674 C178.410197,37.0666352 178.474254,37.5849217 178.554579,38.1082895 C178.584065,38.3481241 178.619652,38.5889749 178.65829,38.8288095 C178.734548,39.355226 178.813856,39.8745288 178.898248,40.3938316 C178.931802,40.6031787 178.966372,40.8165908 178.999925,41.0289867 C179.10872,41.6885318 179.219548,42.3419793 179.340544,42.9964431 C179.347661,43.0635155 179.356812,43.1275391 179.372064,43.1895303 C179.506278,43.9496839 179.651676,44.70374 179.802159,45.4547474 C179.808259,45.5126736 179.825544,45.5655185 179.838762,45.6275096 C179.97501,46.3043309 180.112274,46.9679409 180.258689,47.6366322 C180.288176,47.7748419 180.318679,47.9089867 180.346132,48.0441477 C180.482379,48.6538966 180.623711,49.2595805 180.765042,49.8662806 C180.799612,49.9821329 180.829099,50.096969 180.855535,50.2219675 C181.027369,50.9180975 181.19717,51.6142275 181.378156,52.2981625 C181.38324,52.3022275 181.382223,52.3093412 181.380189,52.31239 C181.9689,54.5135835 182.610484,56.6416071 183.303922,58.6832496 C183.313073,58.7106883 183.323241,58.7320295 183.327308,58.7574357 C184.502697,62.1679645 185.840769,65.3091876 187.334408,68.0591551 C187.555047,68.4565081 187.778737,68.8508124 188.003444,69.2329217 C188.014629,69.2461329 188.014629,69.2634092 188.025813,69.2776366 C188.02988,69.2776366 188.02988,69.2786529 188.031914,69.2786529 C188.233235,69.627226 188.441673,69.9717341 188.648078,70.2999823 C188.651128,70.3050635 188.655195,70.3060798 188.655195,70.3060798 C188.660279,70.319291 188.67248,70.3304697 188.679598,70.3426647 C188.903288,70.7014003 189.132061,71.0530222 189.367952,71.3863516 L189.367952,71.388384 C189.400489,71.4361477 189.429976,71.4757814 189.465563,71.5225288 C189.46963,71.5245613 189.464546,71.531675 189.468613,71.5347238 C189.769578,71.9717105 190.081727,72.391421 190.386758,72.7938552 C190.445731,72.8599114 190.49657,72.9249513 190.545375,72.9879586 C190.561643,73.0123486 190.581979,73.0326736 190.600281,73.0641773 C190.957168,73.5133589 191.323206,73.9493294 191.701445,74.3548124 C191.959705,74.6444431 192.227116,74.9157814 192.494527,75.1830547 C192.608406,75.2958582 192.727368,75.3984993 192.84023,75.5062216 C193.007997,75.6647563 193.176782,75.8141448 193.346583,75.966582 C193.472662,76.077353 193.602809,76.1738966 193.736006,76.2836514 C193.894623,76.4188124 194.063407,76.5458434 194.227107,76.6749069 C194.358271,76.773483 194.486384,76.8639291 194.623649,76.9574239 C194.794466,77.0793737 194.961217,77.1942097 195.134068,77.310062 C195.263198,77.3893294 195.399446,77.473678 195.531626,77.5539616 C195.713628,77.6606677 195.899698,77.76026 196.077633,77.8639173 C196.204729,77.9330222 196.33386,77.998062 196.456889,78.0600532 C196.667361,78.1596455 196.874782,78.2490753 197.090338,78.3415539 C197.188965,78.3781388 197.298776,78.4350487 197.406554,78.4726499 C197.728871,78.6037459 198.054238,78.710452 198.378589,78.8019143 C198.599228,78.8679705 198.785298,78.9350428 198.963233,79.0041477 C214.643895,83.1453589 229.910731,76.5824284 249.058587,90.2702747" id="Fill-7" sketch:type="MSShapeGroup"></path>
                <path d="M344.185771,132.292136 C343.704838,132.992331 343.40794,133.511634 343.305246,133.677282 C343.303213,133.706753 343.301179,133.653908 343.305246,133.677282 C343.305246,133.677282 343.301179,133.680331 343.305246,133.677282 C343.305246,133.682363 343.303213,133.67525 343.305246,133.677282 C356.317898,121.679456 368.17143,125.28104 379.459636,120.85223 C379.609101,120.761784 379.779919,120.675403 379.983274,120.590038 C380.231366,120.486381 380.481492,120.36748 380.720433,120.2374 C383.598916,118.684573 385.822597,115.368555 387.461634,111.010883 C387.471802,110.989542 387.478919,110.964136 387.487053,110.941778 C387.628384,110.583043 387.756498,110.209064 387.882578,109.837117 C387.885628,109.832035 387.882578,109.82797 387.888678,109.822889 C388.118469,109.137938 388.337075,108.421483 388.544496,107.692833 C388.564832,107.618647 388.590251,107.544461 388.610587,107.468242 C388.662442,107.266009 388.714297,107.060727 388.77022,106.861542 C388.825126,106.650162 388.883082,106.442848 388.935954,106.237566 C388.984759,106.02517 389.035597,105.818871 389.082369,105.612573 C389.135241,105.395096 389.18608,105.1827 389.237935,104.964207 C389.270472,104.816851 389.301992,104.660349 389.335545,104.503846 C390.614645,98.6278996 391.138282,91.8291994 391.061008,85.2032614 C391.061008,85.2032614 391.061008,85.2052939 391.061008,85.2032614 C391.061008,85.2032614 391.08236,85.1341566 391.061008,85.2032614 C386.176434,89.734712 380.921754,93.7722659 376.301541,96.4399173 C370.731662,99.6563427 363.405818,102.275214 356.108443,103.770115 C352.154215,97.4653117 348.991037,90.3627533 347.471979,84.1148597 C346.203047,78.8903279 345.481139,72.3609335 345.406914,65.6567445 C345.001222,66.0327563 344.604681,66.4118168 344.201023,66.7918936 C344.084094,66.9046972 343.968182,67.0215657 343.849219,67.137418 C343.56554,67.4128213 343.28186,67.6831433 343.004282,67.9666765 C342.875151,68.0906588 342.743988,68.2217548 342.618925,68.3518346 C342.336262,68.6343516 342.0597,68.9138198 341.785172,69.1983693 C341.674343,69.3121891 341.561482,69.4280414 341.449637,69.5428774 C341.101901,69.905678 340.758231,70.2664461 340.42168,70.6312792 C340.384059,70.6648154 340.348472,70.700384 340.318986,70.736969 C339.923461,71.1576957 339.537088,71.5845199 339.151731,72.0113442 C339.120211,72.0408154 339.094792,72.0753678 339.062255,72.1109365 C338.718586,72.4960945 338.382035,72.8761713 338.0465,73.2643781 C337.975326,73.3426292 337.910252,73.4239291 337.841112,73.4991315 C337.534047,73.8548183 337.235115,74.2115214 336.933134,74.5672083 C336.878228,74.6413944 336.823323,74.7104993 336.7613,74.7816366 C336.418647,75.1982984 336.078029,75.6108951 335.747578,76.0285731 C335.747578,76.0316219 335.742494,76.0346706 335.739443,76.0346706 C334.683017,77.3761182 333.690647,78.7155332 332.777586,80.0488508 C332.763351,80.066127 332.753183,80.0813708 332.740982,80.0955982 C331.221924,82.3313442 329.93469,84.5437164 328.952488,86.6727563 C328.812174,86.9847445 328.676943,87.2957164 328.546796,87.6016071 C328.544763,87.6148183 328.533578,87.6219321 328.530528,87.6351433 C328.533578,87.6371758 328.531545,87.6392083 328.533578,87.6402245 C328.412582,87.916644 328.298704,88.1971285 328.193976,88.4674505 L328.193976,88.4745643 C328.189909,88.4826942 328.188892,88.4959055 328.185842,88.5050517 C328.06993,88.8007799 327.959102,89.0944756 327.865559,89.3871551 L327.863525,89.3871551 C327.851324,89.427805 327.841156,89.46439 327.827938,89.5060561 C327.827938,89.5101211 327.821837,89.5101211 327.822854,89.5141861 C327.694741,89.8901979 327.580862,90.267226 327.478168,90.6290103 C327.46495,90.6950665 327.447665,90.7540089 327.432414,90.811935 C327.424279,90.83226 327.422246,90.8536012 327.410045,90.8800236 C327.302267,91.2946529 327.204657,91.7092821 327.129415,92.1188301 C327.071459,92.4043959 327.029772,92.6869129 326.988084,92.9653648 C326.971816,93.0862984 326.962665,93.2021507 326.949447,93.3190192 C326.929111,93.4907651 326.917927,93.6594623 326.899625,93.830192 C326.889457,93.9551905 326.890474,94.0761241 326.88539,94.2051876 C326.873189,94.3606736 326.875222,94.5192083 326.870139,94.6746942 C326.870139,94.7986765 326.873189,94.9155451 326.877256,95.0405436 C326.87929,95.1970458 326.886407,95.3484668 326.895558,95.5039527 C326.905726,95.6177725 326.917927,95.7376898 326.928095,95.8535421 C326.94538,96.0100443 326.969782,96.1665465 326.985034,96.3189838 C327.001302,96.4267061 327.019604,96.5334121 327.03994,96.6350369 C327.072476,96.8047504 327.11213,96.9693826 327.154835,97.1411285 C327.174153,97.2173471 327.191439,97.3077932 327.216858,97.3901093 C327.283965,97.6421388 327.36429,97.8850222 327.454783,98.1207917 C327.513755,98.2833914 327.558493,98.4256662 327.596114,98.5618434 C332.142103,109.830003 342.937175,116.046393 343.305246,133.677282" id="Fill-8" sketch:type="MSShapeGroup"></path>
                <path d="M548.873051,284.716148 C548.647328,285.935645 548.559885,286.803521 548.521248,287.085022 C548.534466,287.125672 548.499896,287.055551 548.521248,287.085022 C548.521248,287.085022 548.517181,287.093152 548.521248,287.085022 C548.520231,287.092136 548.517181,287.081973 548.521248,287.085022 C558.731676,263.387131 576.659405,261.156467 589.069111,248.561087 C589.214509,248.352756 589.391428,248.135279 589.610034,247.903575 C589.880495,247.616993 590.141806,247.311102 590.384814,246.997081 C593.295833,243.220703 594.290237,237.486015 593.885561,230.708656 C593.888612,230.672071 593.881494,230.63447 593.881494,230.600934 C593.853025,230.039965 593.803203,229.466801 593.751347,228.89262 C593.754398,228.88449 593.746263,228.881442 593.750331,228.873312 C593.648653,227.823527 593.515456,226.743256 593.358873,225.646724 C593.342605,225.536969 593.333454,225.4201 593.313118,225.308313 C593.26533,225.00852 593.209408,224.703645 593.165686,224.404869 C593.115865,224.090848 593.069093,223.77886 593.016221,223.475001 C592.958265,223.16403 592.901326,222.860171 592.84337,222.556313 C592.784397,222.235179 592.724407,221.924207 592.662384,221.602056 C592.61968,221.385595 592.567824,221.156939 592.520036,220.9293 C590.734584,212.342003 587.397537,202.977276 583.360951,194.195876 C583.360951,194.195876 583.361968,194.198925 583.360951,194.195876 C583.360951,194.195876 583.349767,194.091202 583.360951,194.195876 C579.545005,203.128697 574.942076,211.622499 570.371685,217.915108 C564.860779,225.502417 556.658477,233.335657 547.825776,239.654688 C538.812089,233.600898 530.38203,226.012573 524.651501,218.591929 C519.861487,212.384685 515.023684,204.113442 510.945411,195.228384 C510.627161,195.971261 510.324163,196.710074 510.015064,197.454984 C509.923554,197.67551 509.838146,197.899084 509.747653,198.124691 C509.534131,198.66127 509.317558,199.187687 509.115221,199.729347 C509.016594,199.974263 508.921017,200.223244 508.830524,200.472225 C508.621069,201.014901 508.419748,201.553513 508.223511,202.094157 C508.143186,202.310617 508.061844,202.53216 507.981519,202.751669 C507.731393,203.440685 507.489402,204.122588 507.254527,204.81262 C507.226058,204.879693 507.201655,204.946765 507.182336,205.012821 C506.905774,205.810576 506.640397,206.607315 506.382137,207.403037 C506.358751,207.461979 506.347566,207.521938 506.325197,207.587994 C506.095407,208.304449 505.871717,209.011758 505.654128,209.727196 C505.60939,209.874552 505.566685,210.019876 505.52093,210.163167 C505.324693,210.818647 505.13659,211.471078 504.947471,212.125542 C504.916968,212.252573 504.885448,212.379604 504.842743,212.512733 C504.635322,213.266789 504.425867,214.021861 504.233697,214.770836 C504.23573,214.77795 504.231663,214.784047 504.228613,214.785064 C503.614482,217.199669 503.089828,219.570576 502.662783,221.889654 C502.655666,221.919126 502.653633,221.946564 502.643465,221.972987 C501.945959,225.85099 501.545351,229.562328 501.500613,232.982003 C501.500613,233.477932 501.503663,233.973861 501.512814,234.457595 C501.516881,234.475888 501.506713,234.49418 501.509764,234.512473 C501.514848,234.515521 501.513831,234.517554 501.514848,234.51857 C501.521965,234.956573 501.5362,235.396609 501.556535,235.820384 C501.558569,235.827498 501.561619,235.82953 501.561619,235.82953 C501.558569,235.84579 501.565686,235.86205 501.564669,235.877294 C501.588055,236.338671 501.617542,236.798015 501.664313,237.240083 L501.663296,237.242115 C501.669397,237.304106 501.676514,237.357968 501.685665,237.421991 C501.687699,237.427072 501.679565,237.431137 501.680581,237.435202 C501.735487,238.012431 501.808695,238.580514 501.884953,239.126239 C501.906305,239.22075 501.919523,239.308148 501.933758,239.394529 C501.934774,239.429081 501.943925,239.458552 501.943925,239.49717 C502.044586,240.117081 502.161515,240.727846 502.30488,241.316254 C502.397406,241.729867 502.508234,242.131285 502.620079,242.526606 C502.668884,242.697335 502.727857,242.857903 502.776662,243.021518 C502.85292,243.262369 502.934262,243.49509 503.014587,243.73086 C503.075593,243.904638 503.148801,244.065205 503.216924,244.241016 C503.295216,244.454428 503.388759,244.665808 503.476201,244.875155 C503.548392,245.040804 503.622617,245.195273 503.704975,245.357873 C503.800552,245.564171 503.899179,245.763356 504.001873,245.964573 C504.083214,246.109897 504.168623,246.262334 504.251999,246.40969 C504.367911,246.609891 504.491957,246.801962 504.606852,246.997081 C504.691244,247.13021 504.779703,247.262322 504.864096,247.387321 C505.011527,247.593619 505.160993,247.788739 505.317576,247.991988 C505.392817,248.080402 505.466025,248.193205 505.5494,248.2867 C505.786308,248.583445 506.040501,248.858848 506.300795,249.120024 C506.476696,249.2999 506.619045,249.464532 506.751225,249.624083 C519.497483,261.935929 537.563493,263.818021 548.521248,287.085022" id="Fill-9" sketch:type="MSShapeGroup"></path>
                <path d="M27.3634179,232.02673 L27.3634179,688 L754.777577,688 L754.777577,248.606818 L708.087393,255.360804 L670.212625,218.197625 L590.127571,221.383563 L432.848147,300.797258 L373.048717,287.09925 L341.92125,303.256579 C341.92125,303.256579 302.602664,254.964467 300.144109,256.185997 C297.68657,257.408544 223.142925,246.696272 223.142925,246.696272 L183.841626,197.502747 C183.841626,197.502747 119.109833,241.033737 113.375238,240.623173 C107.640642,240.214641 27.3634179,232.02673 27.3634179,232.02673" id="Fill-10" sketch:type="MSShapeGroup"></path>
                <path d="M1074.73854,337.264307 C1074.51281,338.481773 1074.42435,339.351681 1074.38673,339.631149 C1074.39995,339.671799 1074.36538,339.60371 1074.38673,339.631149 C1074.38673,339.631149 1074.38267,339.638263 1074.38673,339.631149 C1074.38673,339.638263 1074.38267,339.629117 1074.38673,339.631149 C1084.59818,315.933258 1102.52387,313.701578 1114.9346,301.10823 C1115.07898,300.898883 1115.25793,300.682422 1115.47552,300.449702 C1115.74598,300.164136 1116.00729,299.858245 1116.2503,299.543208 C1119.16234,295.767846 1120.15471,290.033158 1119.75105,283.255799 C1119.7541,283.22023 1119.748,283.181613 1119.74596,283.148077 C1119.71851,282.586092 1119.66869,282.013944 1119.61683,281.44078 C1119.6209,281.430617 1119.61175,281.428585 1119.6148,281.420455 C1119.51312,280.370671 1119.38094,279.288366 1119.22334,278.193867 C1119.20809,278.083096 1119.19894,277.967244 1119.17759,277.85444 C1119.1298,277.554647 1119.07489,277.249773 1119.03219,276.952012 C1118.98135,276.639007 1118.93458,276.326003 1118.88171,276.021129 C1118.82375,275.710157 1118.76681,275.408331 1118.70784,275.103456 C1118.64988,274.782322 1118.58989,274.47135 1118.52889,274.149199 C1118.48618,273.932739 1118.43331,273.703066 1118.38552,273.476443 C1116.60007,264.88813 1113.26404,255.522387 1109.22644,246.743019 C1109.22644,246.743019 1109.22745,246.746068 1109.22644,246.743019 C1109.22644,246.743019 1109.21627,246.637329 1109.22644,246.743019 C1105.41151,255.67584 1100.80655,264.169643 1096.23717,270.462251 C1090.72626,278.04956 1082.52396,285.881784 1073.69126,292.200815 C1064.67758,286.147025 1056.24752,278.5587 1050.51597,271.139072 C1045.72697,264.931829 1040.88917,256.660585 1036.8109,247.775527 C1036.49163,248.517388 1036.18965,249.257217 1035.88055,250.002127 C1035.78904,250.221637 1035.70363,250.445211 1035.61416,250.671835 C1035.39962,251.207397 1035.18304,251.733814 1034.98071,252.27649 C1034.88106,252.52039 1034.7865,252.769371 1034.69703,253.019368 C1034.48757,253.562044 1034.28523,254.09964 1034.09001,254.639267 C1034.00867,254.856744 1033.92835,255.079303 1033.84599,255.298812 C1033.59688,255.988845 1033.35489,256.669731 1033.12103,257.357731 C1033.09154,257.42582 1033.06612,257.492892 1033.04681,257.558948 C1032.77024,258.356703 1032.50588,259.154458 1032.24762,259.95018 C1032.22424,260.009123 1032.21305,260.069081 1032.19068,260.134121 C1031.96089,260.851592 1031.7372,261.558901 1031.52063,262.27434 C1031.47284,262.421696 1031.43115,262.567019 1031.38642,262.71031 C1031.19018,263.36579 1031.00309,264.017205 1030.81194,264.671669 C1030.78347,264.799716 1030.75093,264.925731 1030.70925,265.057843 C1030.50081,265.814948 1030.29135,266.569004 1030.09918,267.317979 C1030.10122,267.325093 1030.09715,267.331191 1030.09308,267.332207 C1029.47997,269.745796 1028.95531,272.118736 1028.52725,274.436798 C1028.52014,274.466269 1028.51912,274.491675 1028.50793,274.52013 C1027.81144,278.399149 1027.41084,282.108455 1027.3661,285.52813 C1027.3661,286.024059 1027.36813,286.521004 1027.3783,287.005755 C1027.38237,287.024047 1027.3722,287.040307 1027.37423,287.059616 C1027.38033,287.061648 1027.37932,287.062665 1027.38033,287.065713 C1027.38643,287.5027 1027.4027,287.943752 1027.42202,288.367527 C1027.42405,288.373625 1027.42609,288.375657 1027.42609,288.375657 C1027.42405,288.391917 1027.43117,288.408177 1027.43016,288.425453 C1027.45252,288.88683 1027.48201,289.344142 1027.5298,289.78621 L1027.5298,289.789258 C1027.53488,289.850233 1027.54098,289.905111 1027.55115,289.969134 C1027.55318,289.972183 1027.54505,289.977264 1027.54607,289.982346 C1027.60097,290.557542 1027.67418,291.127657 1027.74942,291.673383 C1027.77077,291.766877 1027.78501,291.855291 1027.79924,291.940656 C1027.79924,291.975208 1027.80941,292.004679 1027.80941,292.045329 C1027.91109,292.663208 1028.027,293.272957 1028.17138,293.863397 C1028.26188,294.275994 1028.37372,294.678428 1028.48556,295.073749 C1028.53437,295.243462 1028.59436,295.40403 1028.64316,295.568662 C1028.71942,295.808496 1028.79975,296.041217 1028.88007,296.278003 C1028.94108,296.450765 1029.0153,296.611332 1029.08241,296.787143 C1029.16172,297.000555 1029.25424,297.211935 1029.34169,297.422298 C1029.41388,297.587947 1029.48709,297.7414 1029.56944,297.905016 C1029.66604,298.111315 1029.76365,298.309483 1029.86736,298.511716 C1029.94768,298.656024 1030.03309,298.808461 1030.11748,298.956833 C1030.23441,299.155001 1030.35744,299.350121 1030.47234,299.543208 C1030.55673,299.677353 1030.64519,299.808449 1030.72958,299.934464 C1030.87803,300.140762 1031.02648,300.334866 1031.18306,300.539131 C1031.2583,300.626529 1031.33151,300.740349 1031.4159,300.833843 C1031.65179,301.129572 1031.90599,301.404975 1032.16628,301.666151 C1032.34117,301.846027 1032.48453,302.011675 1032.61671,302.17021 C1045.36297,314.483072 1063.42796,316.365164 1074.38673,339.631149" id="Fill-11" sketch:type="MSShapeGroup"></path>
                <path d="M1242.19077,343.160579 C1242.98588,345.510145 1243.68034,347.114801 1243.88776,347.64325 C1243.95182,347.701176 1243.82167,347.614795 1243.88776,347.64325 C1243.88776,347.64325 1243.88878,347.660526 1243.88776,347.64325 C1243.89386,347.655445 1243.87759,347.644266 1243.88776,347.64325 C1238.60868,296.250564 1267.77581,274.868703 1277.17892,240.74309 C1277.23078,240.236999 1277.3294,239.683143 1277.48294,239.063232 C1277.67816,238.297997 1277.8327,237.509388 1277.95167,236.724845 C1279.35888,227.281867 1275.49718,216.286062 1268.17133,204.827864 C1268.1449,204.762824 1268.09609,204.704898 1268.06152,204.644939 C1267.46569,203.692715 1266.81801,202.738458 1266.16524,201.786233 C1266.16728,201.767941 1266.14694,201.767941 1266.14694,201.752697 C1264.9441,200.014913 1263.65585,198.255787 1262.31168,196.494629 C1262.17543,196.31577 1262.0463,196.122682 1261.90192,195.945855 C1261.52469,195.468219 1261.1312,194.989566 1260.76415,194.510913 C1260.36862,194.008886 1259.98225,193.510925 1259.59384,193.029223 C1259.18815,192.541424 1258.79161,192.06582 1258.39202,191.591232 C1257.97616,191.08514 1257.57148,190.601406 1257.14546,190.098363 C1256.86076,189.761985 1256.54353,189.414428 1256.23951,189.06179 C1244.73575,175.787557 1229.75768,162.665761 1214.12887,151.249229 C1214.12887,151.249229 1214.13192,151.251261 1214.12887,151.249229 C1214.12887,151.249229 1214.00686,151.077483 1214.12887,151.249229 C1216.17665,170.589448 1216.42067,189.932715 1214.57015,205.391882 C1212.33935,224.030889 1205.64594,245.725755 1196.36891,265.38914 C1174.69844,263.59343 1152.55314,258.547758 1135.28733,251.161666 C1120.85323,244.97678 1104.32153,235.23096 1088.51173,223.674186 C1088.68255,225.281891 1088.87472,226.86927 1089.06181,228.47291 C1089.11773,228.947498 1089.18687,229.423102 1089.24991,229.90582 C1089.39734,231.050115 1089.53461,232.184248 1089.70746,233.328544 C1089.7766,233.851911 1089.85082,234.38036 1089.93827,234.903728 C1090.10298,236.05717 1090.2738,237.196384 1090.45987,238.331533 C1090.52698,238.788845 1090.60324,239.257335 1090.67441,239.718712 C1090.91132,241.165849 1091.15738,242.597743 1091.41767,244.02862 C1091.43292,244.172928 1091.45427,244.316219 1091.48579,244.450363 C1091.77964,246.113962 1092.09586,247.767397 1092.42224,249.409654 C1092.43953,249.536685 1092.47816,249.652538 1092.50155,249.786682 C1092.79743,251.268372 1093.09738,252.72364 1093.41868,254.185004 C1093.4807,254.48683 1093.54781,254.782558 1093.61085,255.079303 C1093.90775,256.41262 1094.21278,257.736792 1094.52289,259.068077 C1094.59407,259.320106 1094.66117,259.574168 1094.71811,259.845507 C1095.09127,261.368863 1095.46137,262.891202 1095.85791,264.389152 C1095.86808,264.397282 1095.86808,264.412526 1095.86402,264.41964 C1097.14413,269.238688 1098.54219,273.89717 1100.06023,278.366629 C1100.0765,278.42862 1100.09989,278.473335 1100.10701,278.533294 C1102.67537,285.99662 1105.59554,292.874588 1108.85532,298.894842 C1109.34032,299.763734 1109.82938,300.629578 1110.31845,301.46595 C1110.34184,301.495421 1110.34489,301.533022 1110.36624,301.56351 C1110.37539,301.562493 1110.37742,301.568591 1110.37946,301.568591 C1110.81972,302.331793 1111.27523,303.083817 1111.72566,303.805353 C1111.73075,303.814499 1111.74091,303.814499 1111.74091,303.814499 C1111.75312,303.848035 1111.77955,303.872425 1111.79684,303.899864 C1112.28692,304.681359 1112.78209,305.452691 1113.29759,306.182357 L1113.29963,306.187439 C1113.36877,306.291096 1113.43587,306.377477 1113.51213,306.480118 C1113.52027,306.485199 1113.5101,306.502476 1113.5162,306.505524 C1114.1771,307.460798 1114.86037,308.3866 1115.52636,309.263622 C1115.65549,309.410978 1115.76428,309.55122 1115.87511,309.68943 C1115.90765,309.744307 1115.95239,309.790038 1115.99102,309.857111 C1116.77495,310.842871 1117.57312,311.798145 1118.39569,312.684313 C1118.96203,313.319468 1119.55074,313.910925 1120.13132,314.495267 C1120.38348,314.746281 1120.63971,314.966806 1120.88983,315.205625 C1121.25689,315.553182 1121.62496,315.880414 1121.99811,316.215775 C1122.27163,316.460691 1122.55836,316.665973 1122.84712,316.909873 C1123.19282,317.202552 1123.56191,317.485069 1123.91981,317.768603 C1124.21061,317.984047 1124.48819,318.185264 1124.78915,318.385465 C1125.16129,318.651722 1125.52733,318.907817 1125.90455,319.157814 C1126.18518,319.332609 1126.48615,319.518582 1126.77491,319.693377 C1127.17247,319.926097 1127.57613,320.144591 1127.96962,320.373247 C1128.24313,320.521619 1128.52884,320.665926 1128.79727,320.805152 C1129.25787,321.020597 1129.71135,321.216733 1130.18415,321.420999 C1130.40072,321.503315 1130.64068,321.627297 1130.87555,321.708597 C1131.57814,321.997211 1132.2909,322.230948 1133.00162,322.433182 C1133.48459,322.575456 1133.89435,322.724845 1134.28276,322.87525 C1168.58459,331.974736 1202.01504,317.64462 1243.88776,347.64325" id="Fill-12" sketch:type="MSShapeGroup"></path>
                <path d="M881.090184,296.293247 C881.8853,298.642812 882.579756,300.249501 882.787177,300.778966 C882.852251,300.833843 882.721087,300.748479 882.787177,300.778966 C882.787177,300.778966 882.788194,300.795226 882.787177,300.778966 C882.794295,300.789129 882.775993,300.778966 882.787177,300.778966 C877.508095,249.383232 906.674209,228.000355 916.077319,193.876774 C916.130192,193.370682 916.228818,192.815811 916.382351,192.197932 C916.578588,191.432697 916.733137,190.643072 916.851083,189.859545 C918.259313,180.416567 914.395578,169.419746 907.071767,157.961548 C907.044314,157.897524 906.996526,157.838582 906.960939,157.77964 C906.36511,156.827415 905.718443,155.872142 905.065675,154.919917 C905.065675,154.901625 905.047373,154.901625 905.047373,154.886381 C903.842498,153.149613 902.555264,151.389471 901.211091,149.628313 C901.076878,149.449453 900.946731,149.256366 900.800315,149.079539 C900.425126,148.601903 900.030619,148.12325 899.664581,147.644597 C899.267023,147.14257 898.881666,146.643592 898.493259,146.163923 C898.087567,145.676124 897.690009,145.20052 897.292451,144.724916 C896.876591,144.21984 896.470899,143.73509 896.043855,143.232047 C895.761192,142.895669 895.443959,142.548112 895.139944,142.195474 C883.634149,128.921241 868.657093,115.799445 853.028285,104.382913 C853.028285,104.382913 853.031336,104.384945 853.028285,104.382913 C853.028285,104.382913 852.90729,104.211167 853.028285,104.382913 C855.075048,123.723131 855.32009,143.066399 853.469565,158.526582 C851.239783,177.164573 844.545354,198.860455 835.268324,218.52384 C813.597855,216.727114 791.451538,211.682458 774.186744,204.29535 C759.752644,198.110464 743.219927,188.364644 727.412168,176.80787 C727.581969,178.415575 727.774139,180.00397 727.961225,181.60761 C728.017147,182.081182 728.087304,182.556786 728.149328,183.04052 C728.29676,184.184815 728.435041,185.317932 728.607892,186.462227 C728.677032,186.986612 728.75024,187.515061 728.836666,188.038428 C729.002399,189.19187 729.173217,190.330068 729.359287,191.464201 C729.426394,191.922529 729.502651,192.391019 729.574842,192.853412 C729.81175,194.300549 730.056792,195.731427 730.317086,197.162304 C730.332338,197.307628 730.35369,197.450919 730.38521,197.584047 C730.679057,199.248662 730.995273,200.901081 731.321657,202.544355 C731.338942,202.670369 731.37758,202.786222 731.400965,202.920366 C731.696846,204.402056 731.996794,205.857323 732.318094,207.318688 C732.3791,207.620514 732.448241,207.916242 732.509247,208.212987 C732.807161,209.547321 733.111176,210.871492 733.423325,212.202777 C733.493483,212.45379 733.56059,212.707852 733.616512,212.979191 C733.990684,214.502547 734.361806,216.025903 734.756314,217.523852 C734.766482,217.530966 734.767498,217.547226 734.762415,217.55434 C736.044564,222.371356 737.44161,227.030854 738.958634,231.501329 C738.975919,231.562304 738.998288,231.608035 739.006422,231.666978 C741.573772,239.130304 744.494959,246.007256 747.754731,252.029542 C748.239732,252.896402 748.728799,253.763261 749.217866,254.598617 C749.241252,254.630121 749.243286,254.666706 749.266672,254.697194 C749.275823,254.697194 749.276839,254.703291 749.27989,254.703291 C749.720152,255.465477 750.174649,256.217501 750.625079,256.940053 C750.630163,256.949199 750.640331,256.948183 750.640331,256.948183 C750.651515,256.981719 750.678968,257.005093 750.695237,257.032532 C751.186338,257.814027 751.681506,258.587391 752.197009,259.316041 L752.20006,259.322139 C752.2692,259.423764 752.33529,259.512177 752.411548,259.614818 C752.420699,259.618883 752.410532,259.635143 752.415615,259.641241 C753.077534,260.596514 753.759788,261.520284 754.424757,262.397306 C754.553888,262.545678 754.664716,262.682871 754.774527,262.822097 C754.806047,262.880024 754.851802,262.924739 754.890439,262.991811 C755.674371,263.976555 756.472537,264.931829 757.295106,265.819013 C757.862465,266.453152 758.450159,267.043592 759.031753,267.628951 C759.281879,267.878948 759.540139,268.101507 759.790265,268.340325 C760.156303,268.687882 760.524375,269.015114 760.898547,269.350476 C761.172058,269.594375 761.456755,269.80169 761.746535,270.043557 C762.092237,270.336236 762.460309,270.617737 762.820246,270.90127 C763.10901,271.116715 763.387605,271.318948 763.68857,271.520165 C764.060709,271.785406 764.42573,272.041501 764.804986,272.292514 C765.084598,272.466292 765.385563,272.653282 765.674326,272.827061 C766.071884,273.061814 766.475543,273.278275 766.868017,273.508963 C767.143562,273.656319 767.428258,273.800626 767.696686,273.93782 C768.158301,274.153264 768.609748,274.350417 769.082547,274.555699 C769.300136,274.638015 769.540095,274.760981 769.774969,274.842281 C770.477559,275.129879 771.190316,275.364632 771.902057,275.566866 C772.384007,275.710157 772.793766,275.858529 773.182173,276.010966 C807.48502,285.107403 840.91446,270.778304 882.787177,300.778966" id="Fill-13" sketch:type="MSShapeGroup"></path>
                <path d="M945.015676,298.233264 C943.914512,299.792189 943.230224,300.951728 942.996366,301.31961 C942.990266,301.38465 942.984165,301.265749 942.996366,301.31961 C942.996366,301.31961 942.986198,301.32774 942.996366,301.31961 C942.991282,301.328756 942.992299,301.313513 942.996366,301.31961 C972.568172,274.756916 999.07746,283.190759 1024.55981,273.576035 C1024.89941,273.378883 1025.28782,273.188845 1025.74231,273.004904 C1026.30662,272.779297 1026.86788,272.518121 1027.40779,272.23662 C1033.92021,268.833205 1039.00916,261.452195 1042.81595,251.71044 C1042.84341,251.665725 1042.85866,251.608815 1042.88001,251.561052 C1043.20233,250.758216 1043.50228,249.923876 1043.79917,249.086487 C1043.81036,249.079374 1043.80222,249.067179 1043.81137,249.059049 C1044.3462,247.524514 1044.85865,245.927988 1045.34467,244.295894 C1045.39449,244.130245 1045.45651,243.961548 1045.49922,243.791835 C1045.62733,243.34062 1045.74426,242.879244 1045.87746,242.43616 C1046.00964,241.960555 1046.14487,241.495114 1046.2679,241.036786 C1046.38787,240.563214 1046.50379,240.102854 1046.61767,239.639445 C1046.74476,239.151645 1046.86169,238.680106 1046.98065,238.189258 C1047.06301,237.859994 1047.13419,237.50634 1047.21654,237.155734 C1050.25974,223.995321 1051.63645,208.746517 1051.65577,193.865595 C1051.65577,193.865595 1051.65577,193.868644 1051.65577,193.865595 C1051.65577,193.865595 1051.70763,193.711126 1051.65577,193.865595 C1040.55567,203.896981 1028.63605,212.81151 1018.18363,218.665099 C1005.58175,225.722942 989.057168,231.391575 972.626128,234.535846 C963.927641,220.258576 957.031891,204.216083 953.805673,190.142062 C951.112243,178.373908 949.684694,163.688106 949.710114,148.63239 C948.786884,149.464697 947.886024,150.304118 946.972963,151.145572 C946.704535,151.395569 946.441191,151.654712 946.167679,151.911823 C945.522029,152.522588 944.880445,153.121158 944.246996,153.747167 C943.952132,154.027651 943.657268,154.313217 943.371555,154.602848 C942.728955,155.228857 942.097539,155.850801 941.477308,156.479858 C941.223115,156.729855 940.966889,156.988999 940.711679,157.243061 C939.918596,158.045897 939.139749,158.845684 938.368019,159.65665 C938.283627,159.731852 938.204318,159.809087 938.136195,159.889371 C937.234318,160.826352 936.349726,161.771462 935.475301,162.718606 C935.405144,162.786694 935.350238,162.862913 935.277031,162.938115 C934.491066,163.793796 933.721369,164.639315 932.957773,165.500077 C932.799157,165.675888 932.644607,165.851699 932.488024,166.024461 C931.793569,166.813069 931.108264,167.602694 930.41991,168.398417 C930.29688,168.556951 930.169784,168.713453 930.025402,168.870972 C929.247571,169.794742 928.468723,170.71343 927.716312,171.638216 C927.716312,171.648378 927.705127,171.655492 927.699027,171.655492 C925.283176,174.635131 923.019841,177.613755 920.927323,180.580183 C920.895803,180.618801 920.877501,180.653353 920.845981,180.684857 C917.366587,185.660408 914.411846,190.59226 912.143427,195.345253 C911.824161,196.03935 911.505911,196.73548 911.207997,197.418399 C911.199863,197.445838 911.17851,197.46413 911.169359,197.492585 C911.173427,197.497666 911.171393,197.500715 911.17241,197.502747 C910.898898,198.121643 910.635554,198.745619 910.390512,199.352319 C910.388478,199.360449 910.392545,199.36553 910.392545,199.36553 C910.376277,199.387888 910.374243,199.415326 910.364076,199.437684 C910.100732,200.096213 909.843488,200.755758 909.625899,201.40514 L909.623866,201.409205 C909.589295,201.499651 909.56591,201.579935 909.536423,201.67343 C909.538457,201.68156 909.522188,201.682576 909.521172,201.687657 C909.228341,202.531143 908.961947,203.375645 908.716905,204.185595 C908.685385,204.331935 908.648781,204.463031 908.61116,204.595143 C908.590825,204.639858 908.582691,204.689654 908.559305,204.743516 C908.301045,205.675415 908.069221,206.605282 907.890269,207.519905 C907.753004,208.158109 907.651327,208.791232 907.551684,209.417241 C907.508979,209.68553 907.487627,209.947722 907.45204,210.210931 C907.403235,210.595072 907.365614,210.9721 907.32596,211.356242 C907.298507,211.636727 907.298507,211.908065 907.280205,212.197696 C907.253769,212.545253 907.245635,212.901956 907.232417,213.252561 C907.22835,213.529997 907.230384,213.795238 907.240551,214.072674 C907.244618,214.424295 907.250719,214.766771 907.264954,215.115344 C907.284272,215.369406 907.304608,215.639728 907.327994,215.897855 C907.361547,216.25151 907.410352,216.601099 907.444922,216.94764 C907.477459,217.187474 907.516097,217.429341 907.5527,217.66003 C907.627941,218.043155 907.7103,218.413069 907.796726,218.799244 C907.844514,218.97099 907.876034,219.176272 907.931956,219.360213 C908.071254,219.927279 908.248173,220.475037 908.443393,221.008567 C908.57354,221.3734 908.666066,221.694535 908.749441,222.00449 C918.629418,247.437117 942.684217,261.714387 942.996366,301.31961" id="Fill-14" sketch:type="MSShapeGroup"></path>
                <path d="M1311.28146,253.080343 C1310.1803,254.638251 1309.49601,255.79779 1309.26114,256.165672 C1309.25504,256.231728 1309.24995,256.110795 1309.26114,256.165672 C1309.26114,256.165672 1309.25097,256.173802 1309.26114,256.165672 C1309.25707,256.175835 1309.25707,256.160591 1309.26114,256.165672 C1338.83294,229.60501 1365.34325,238.037838 1390.82458,228.423114 C1391.16418,228.224945 1391.55157,228.035923 1392.0081,227.850966 C1392.57139,227.625359 1393.13265,227.364183 1393.67459,227.082682 C1400.18397,223.679267 1405.27393,216.299273 1409.07971,206.557518 C1409.10919,206.510771 1409.12343,206.455894 1409.14478,206.406097 C1409.46608,205.604278 1409.76705,204.770954 1410.06394,203.933566 C1410.07614,203.925436 1410.06699,203.913241 1410.07614,203.907143 C1410.61097,202.371592 1411.1224,200.775066 1411.60944,199.140939 C1411.65926,198.976307 1411.72027,198.808626 1411.76399,198.637897 C1411.89108,198.188715 1412.01005,197.726322 1412.14121,197.281205 C1412.27441,196.807634 1412.40964,196.342192 1412.53267,195.883864 C1412.65163,195.410292 1412.76856,194.948916 1412.88244,194.485507 C1413.00953,193.998724 1413.12646,193.527185 1413.24644,193.034304 C1413.32677,192.706056 1413.39997,192.351386 1413.48233,192.002812 C1416.52451,178.841383 1417.90021,163.592579 1417.92156,148.711657 C1417.92156,148.711657 1417.92156,148.714706 1417.92156,148.711657 C1417.92156,148.711657 1417.9724,148.558204 1417.92156,148.711657 C1406.82146,158.744059 1394.8998,167.658588 1384.4484,173.512177 C1371.84652,180.570021 1355.32092,186.238653 1338.88988,189.381908 C1330.19241,175.104638 1323.29666,159.062145 1320.06943,144.988124 C1317.37701,133.21997 1315.94946,118.535185 1315.97488,103.478452 C1315.05165,104.311775 1314.15181,105.15018 1313.23875,105.991634 C1312.97032,106.241631 1312.70596,106.50179 1312.43347,106.758901 C1311.78782,107.369666 1311.14522,107.96722 1310.51278,108.593229 C1310.21792,108.873713 1309.92306,109.159279 1309.63633,109.449926 C1308.99474,110.074919 1308.36333,110.696863 1307.74106,111.326936 C1307.48789,111.575917 1307.23166,111.836077 1306.97747,112.089123 C1306.18438,112.891959 1305.40452,113.692762 1304.63381,114.502712 C1304.5484,114.577914 1304.47011,114.656165 1304.40097,114.736449 C1303.5001,115.67343 1302.6145,116.617524 1301.74109,117.564668 C1301.67093,117.632756 1301.61501,117.709991 1301.54282,117.785194 C1300.75482,118.639858 1299.98716,119.486393 1299.22254,120.346139 C1299.06291,120.52195 1298.91039,120.698777 1298.75381,120.870523 C1298.05834,121.660148 1297.37303,122.449773 1296.68468,123.244479 C1296.56063,123.40403 1296.43354,123.559516 1296.29119,123.71805 C1295.51234,124.640804 1294.73451,125.560508 1293.98108,126.485294 C1293.98108,126.495456 1293.97091,126.501554 1293.96481,126.501554 C1291.54896,129.48221 1289.28359,132.459817 1287.19209,135.427261 C1287.16159,135.465879 1287.14227,135.500431 1287.10974,135.531935 C1283.63136,140.507486 1280.67763,145.438322 1278.4082,150.192331 C1278.08791,150.886428 1277.77068,151.582558 1277.47378,152.265477 C1277.46565,152.292916 1277.44328,152.311208 1277.43515,152.337631 C1277.43921,152.344744 1277.43616,152.347793 1277.43718,152.349826 C1277.16265,152.967705 1276.90032,153.592697 1276.6563,154.198381 C1276.65223,154.206511 1276.65732,154.212609 1276.65732,154.212609 C1276.64308,154.234966 1276.64003,154.262405 1276.63088,154.283746 C1276.36449,154.943291 1276.11029,155.60182 1275.88965,156.252219 L1275.88762,156.255267 C1275.85508,156.345713 1275.8317,156.425997 1275.80221,156.520508 C1275.80221,156.527622 1275.78798,156.529654 1275.78696,156.534736 C1275.49311,157.378222 1275.22672,158.221708 1274.98269,159.032674 C1274.95016,159.179013 1274.91253,159.310109 1274.87593,159.442222 C1274.8556,159.48592 1274.84949,159.535716 1274.82509,159.590594 C1274.56683,160.522493 1274.33501,161.451344 1274.15402,162.365968 C1274.01778,163.004171 1273.9161,163.637294 1273.81645,164.264319 C1273.77477,164.532609 1273.7524,164.793784 1273.71783,165.056993 C1273.66801,165.441134 1273.63038,165.819179 1273.59073,166.202304 C1273.56328,166.482789 1273.56328,166.755143 1273.54498,167.043758 C1273.51854,167.391315 1273.51041,167.749034 1273.49719,168.09964 C1273.49414,168.377075 1273.49515,168.6413 1273.50634,168.918736 C1273.50939,169.271374 1273.51549,169.613849 1273.53074,169.962422 C1273.55108,170.216484 1273.56938,170.486806 1273.59276,170.744934 C1273.62733,171.098588 1273.67614,171.447161 1273.71071,171.794718 C1273.74325,172.034552 1273.78188,172.275403 1273.81849,172.506092 C1273.8917,172.889217 1273.97609,173.259131 1274.06048,173.646322 C1274.10928,173.818068 1274.1408,174.02335 1274.19571,174.206275 C1274.33704,174.773341 1274.51396,175.322115 1274.70918,175.854629 C1274.83933,176.220479 1274.93287,176.541613 1275.01421,176.851569 C1284.89419,202.284195 1308.95,216.562482 1309.26114,256.165672" id="Fill-15" sketch:type="MSShapeGroup"></path>
                <path d="M1441.47102,290.790263 C1441.24327,292.007728 1441.15582,292.875604 1441.11719,293.158121 C1441.13244,293.198771 1441.09583,293.12865 1441.11719,293.158121 C1441.11719,293.158121 1441.11414,293.164219 1441.11719,293.158121 C1441.11719,293.164219 1441.11312,293.155072 1441.11719,293.158121 C1451.32863,269.458198 1469.25534,267.228549 1481.66505,254.63317 C1481.81045,254.423823 1481.98838,254.208378 1482.20597,253.975657 C1482.47745,253.689075 1482.73978,253.383185 1482.98177,253.068148 C1485.89279,249.293802 1486.88617,243.558097 1486.48252,236.780739 C1486.48455,236.74517 1486.47947,236.707569 1486.47947,236.674032 C1486.44896,236.113064 1486.39914,235.538883 1486.3483,234.965719 C1486.35135,234.956573 1486.34424,234.953524 1486.34627,234.946411 C1486.24561,233.89561 1486.11139,232.815338 1485.95481,231.719823 C1485.93854,231.608035 1485.93041,231.493199 1485.90906,231.381412 C1485.86127,231.079586 1485.80535,230.776744 1485.76264,230.477968 C1485.71282,230.162931 1485.66503,229.851959 1485.61318,229.5481 C1485.55319,229.236112 1485.49828,228.932254 1485.43829,228.628396 C1485.38033,228.306245 1485.32136,227.997306 1485.25832,227.674139 C1485.21562,227.456662 1485.16478,227.230038 1485.11801,227.001383 C1483.33256,218.414086 1479.99551,209.048343 1475.95689,200.267959 C1475.95689,200.267959 1475.95994,200.269991 1475.95689,200.267959 C1475.95689,200.267959 1475.94774,200.163285 1475.95689,200.267959 C1472.14196,209.20078 1467.53801,217.694582 1462.96864,223.987191 C1457.45773,231.574499 1449.25441,239.40774 1440.42273,245.726771 C1431.40701,239.672981 1422.97797,232.085672 1417.24846,224.665028 C1412.45946,218.457784 1407.62166,210.185524 1403.54135,201.300467 C1403.2231,202.043344 1402.92112,202.782157 1402.611,203.527066 C1402.51949,203.747592 1402.43408,203.971167 1402.34461,204.196774 C1402.13109,204.733353 1401.91451,205.25977 1401.71116,205.802446 C1401.61355,206.046346 1401.51696,206.295326 1401.42748,206.545323 C1401.21904,207.086984 1401.0167,207.625595 1400.81945,208.165223 C1400.73912,208.3827 1400.6588,208.605258 1400.57746,208.823752 C1400.32835,209.512768 1400.08737,210.195687 1399.85047,210.883687 C1399.82301,210.951775 1399.79759,211.017832 1399.77827,211.084904 C1399.50171,211.881643 1399.23735,212.679397 1398.97909,213.474103 C1398.95469,213.534062 1398.9435,213.595037 1398.92114,213.659061 C1398.69134,214.377548 1398.46867,215.084857 1398.25108,215.799279 C1398.20431,215.946635 1398.16262,216.092975 1398.11687,216.236266 C1397.92165,216.89073 1397.73355,217.543161 1397.54341,218.197625 C1397.51392,218.325672 1397.48139,218.452703 1397.4397,218.583799 C1397.23228,219.339888 1397.02282,220.093944 1396.83167,220.843935 C1396.83269,220.850032 1396.82862,220.855114 1396.82455,220.858162 C1396.21042,223.271752 1395.68678,225.643675 1395.25974,227.960721 C1395.25262,227.992225 1395.25059,228.017631 1395.24042,228.045069 C1394.54291,231.924089 1394.14231,235.633394 1394.09757,239.053069 C1394.09655,239.551031 1394.0996,240.045944 1394.10977,240.530694 C1394.11384,240.548987 1394.10367,240.566263 1394.1057,240.584555 C1394.1118,240.587604 1394.11079,240.58862 1394.1118,240.590653 C1394.11892,241.028656 1394.13315,241.467675 1394.15349,241.892467 C1394.15552,241.898564 1394.15857,241.900597 1394.15857,241.900597 C1394.15552,241.917873 1394.16264,241.934133 1394.16162,241.950393 C1394.18501,242.41177 1394.21246,242.869081 1394.26025,243.312165 L1394.26025,243.314198 C1394.26635,243.376189 1394.27347,243.43005 1394.28262,243.494074 C1394.28465,243.498139 1394.27652,243.50322 1394.27754,243.506269 C1394.33244,244.084514 1394.40565,244.652597 1394.48089,245.197306 C1394.50326,245.292833 1394.51648,245.381247 1394.53071,245.467628 C1394.53071,245.500148 1394.54088,245.529619 1394.54088,245.570269 C1394.64154,246.189164 1394.75745,246.798913 1394.90183,247.388337 C1394.99334,247.80195 1395.10417,248.202352 1395.21805,248.599705 C1395.26686,248.769418 1395.3238,248.929985 1395.37463,249.093601 C1395.44987,249.334452 1395.53122,249.567173 1395.61052,249.803959 C1395.67255,249.976721 1395.74474,250.137288 1395.81388,250.313099 C1395.89319,250.526511 1395.98673,250.737891 1396.07316,250.947238 C1396.14535,251.112886 1396.21855,251.268372 1396.30091,251.429956 C1396.39751,251.635238 1396.4941,251.836455 1396.59883,252.036656 C1396.67915,252.181979 1396.76558,252.335433 1396.84794,252.481773 C1396.96487,252.681973 1397.08891,252.874044 1397.20381,253.068148 C1397.28922,253.201276 1397.37666,253.333388 1397.46105,253.458387 C1397.60848,253.664685 1397.75795,253.861838 1397.91453,254.065087 C1397.98876,254.153501 1398.06298,254.265288 1398.14737,254.358783 C1398.38326,254.655527 1398.63746,254.930931 1398.89775,255.192106 C1399.07263,255.371982 1399.21498,255.536614 1399.34818,255.695149 C1412.09342,268.009028 1430.15943,269.890103 1441.11719,293.158121" id="Fill-16" sketch:type="MSShapeGroup"></path>
                <path d="M1356.09672,88.2215185 C1356.46072,89.2956928 1356.77897,90.0273914 1356.87455,90.2702747 C1356.90404,90.2956809 1356.84303,90.2570635 1356.87455,90.2702747 C1356.87455,90.2702747 1356.87455,90.2773885 1356.87455,90.2702747 C1356.87658,90.275356 1356.86845,90.2702747 1356.87455,90.2702747 C1354.43735,66.7878287 1367.75401,57.0033914 1372.03564,41.4080473 C1372.05801,41.1753264 1372.10173,40.9232969 1372.17392,40.6387474 C1372.26137,40.2901743 1372.33356,39.9294062 1372.38643,39.5696544 C1373.02394,35.2546647 1371.25374,30.2323663 1367.90348,25.0007208 C1367.89026,24.9702334 1367.86688,24.9438109 1367.85264,24.9173885 C1367.57811,24.481418 1367.28223,24.0464638 1366.98533,23.6115096 C1366.98228,23.6043959 1366.97517,23.6043959 1366.97415,23.5952496 C1366.42408,22.8015598 1365.83435,21.9987238 1365.22123,21.1938552 C1365.15718,21.1125554 1365.09922,21.0241418 1365.03211,20.9438582 C1364.85926,20.7253648 1364.67929,20.5078877 1364.51153,20.2883781 C1364.33156,20.0597223 1364.15362,19.8320827 1363.9767,19.6125731 C1363.79064,19.3900148 1363.61067,19.1725377 1363.42663,18.9560768 C1363.23751,18.7264047 1363.04941,18.5038464 1362.85622,18.2751905 C1362.72607,18.1217371 1362.58271,17.9621861 1362.4424,17.8016189 C1357.17958,11.7417312 1350.32959,5.7529808 1343.18168,0.543692762 C1343.18168,0.543692762 1343.18371,0.54470901 1343.18168,0.543692762 C1343.18168,0.543692762 1343.12576,0.463409158 1343.18168,0.543692762 C1344.12728,9.37895421 1344.24725,18.2172644 1343.41045,25.2822216 C1342.39978,33.8014298 1339.35048,43.7179793 1335.12071,52.7066942 C1325.21836,51.8967445 1315.09741,49.6020561 1307.20421,46.2342097 C1300.60535,43.4161536 1293.04565,38.9710842 1285.81945,33.6967563 C1285.89673,34.4315037 1285.98417,35.1571049 1286.07059,35.8898198 C1286.09703,36.1072969 1286.12957,36.3237578 1286.15702,36.5432674 C1286.22413,37.0666352 1286.2892,37.5849217 1286.36952,38.1082895 C1286.39901,38.3481241 1286.4346,38.5889749 1286.47324,38.8288095 C1286.55051,39.355226 1286.6288,39.8745288 1286.71319,40.3938316 C1286.74675,40.6031787 1286.7803,40.8165908 1286.81385,41.0289867 C1286.92367,41.6885318 1287.03449,42.3419793 1287.15549,42.9964431 C1287.16159,43.0635155 1287.17176,43.1275391 1287.18701,43.1895303 C1287.32021,43.9496839 1287.46662,44.70374 1287.6171,45.4547474 C1287.62219,45.5126736 1287.64049,45.5655185 1287.65371,45.6275096 C1287.78996,46.3043309 1287.92722,46.9679409 1288.07364,47.6366322 C1288.10312,47.7748419 1288.13362,47.9089867 1288.16108,48.0441477 C1288.29733,48.6538966 1288.43866,49.2595805 1288.57999,49.8662806 C1288.61456,49.9821329 1288.64303,50.096969 1288.67048,50.2219675 C1288.84232,50.9180975 1289.01212,51.6142275 1289.1931,52.2981625 C1289.19717,52.3022275 1289.19717,52.3093412 1289.19514,52.31239 C1289.78283,54.5135835 1290.42441,56.6416071 1291.11989,58.6832496 C1291.12802,58.7106883 1291.13717,58.7320295 1291.14124,58.7574357 C1292.31764,62.1679645 1293.65572,65.3091876 1295.14935,68.0591551 C1295.36999,68.4565081 1295.59368,68.8508124 1295.81839,69.2329217 C1295.83059,69.2461329 1295.83059,69.2634092 1295.83974,69.2776366 C1295.84483,69.2776366 1295.84483,69.2786529 1295.84686,69.2786529 C1296.04818,69.627226 1296.25662,69.9717341 1296.46302,70.2999823 C1296.46607,70.3050635 1296.47014,70.3060798 1296.47014,70.3060798 C1296.47522,70.319291 1296.48743,70.3304697 1296.49454,70.3426647 C1296.71823,70.7014003 1296.94599,71.0530222 1297.1829,71.3863516 L1297.1829,71.388384 C1297.21544,71.4361477 1297.24492,71.4757814 1297.27949,71.5225288 C1297.28458,71.5245613 1297.27949,71.531675 1297.28356,71.5347238 C1297.58351,71.9717105 1297.89769,72.391421 1298.2017,72.7938552 C1298.26068,72.8599114 1298.3105,72.9249513 1298.36032,72.9879586 C1298.37659,73.0123486 1298.39692,73.0326736 1298.41624,73.0641773 C1298.77211,73.5133589 1299.13815,73.9493294 1299.51639,74.3548124 C1299.77465,74.6444431 1300.04206,74.9157814 1300.30947,75.1830547 C1300.42335,75.2958582 1300.54231,75.3984993 1300.65619,75.5062216 C1300.82294,75.6647563 1300.99173,75.8141448 1301.16255,75.966582 C1301.28761,76.077353 1301.41776,76.1738966 1301.55197,76.2836514 C1301.70957,76.4188124 1301.87835,76.5458434 1302.04205,76.6749069 C1302.17322,76.773483 1302.30133,76.8639291 1302.43859,76.9574239 C1302.60941,77.0793737 1302.77616,77.1942097 1302.94901,77.310062 C1303.07916,77.3893294 1303.21439,77.473678 1303.34657,77.5539616 C1303.52857,77.6606677 1303.71464,77.76026 1303.89258,77.8639173 C1304.01968,77.9330222 1304.14881,77.998062 1304.27183,78.0600532 C1304.48231,78.1596455 1304.68973,78.2490753 1304.90528,78.3415539 C1305.00391,78.3781388 1305.11372,78.4350487 1305.2215,78.4726499 C1305.5428,78.6037459 1305.86918,78.710452 1306.19353,78.8019143 C1306.41519,78.8679705 1306.60024,78.9350428 1306.77818,79.0041477 C1322.45884,83.1453589 1337.72568,76.5824284 1356.87455,90.2702747" id="Fill-17" sketch:type="MSShapeGroup"></path>
                <path d="M1452.00072,132.292136 C1451.51978,132.992331 1451.22289,133.511634 1451.12019,133.677282 C1451.11816,133.706753 1451.11613,133.653908 1451.12019,133.677282 C1451.12019,133.677282 1451.11613,133.680331 1451.12019,133.677282 C1451.12019,133.682363 1451.11816,133.67525 1451.12019,133.677282 C1464.13284,121.679456 1475.98536,125.28104 1487.2756,120.85223 C1487.42405,120.761784 1487.59487,120.675403 1487.7972,120.590038 C1488.04631,120.486381 1488.29644,120.36748 1488.5364,120.2374 C1491.41386,118.684573 1493.63754,115.368555 1495.27658,111.010883 C1495.28675,110.989542 1495.29386,110.964136 1495.302,110.941778 C1495.44333,110.583043 1495.57144,110.209064 1495.69752,109.837117 C1495.70057,109.832035 1495.69752,109.82797 1495.70362,109.822889 C1495.93341,109.137938 1496.15202,108.421483 1496.35944,107.692833 C1496.37978,107.618647 1496.4052,107.544461 1496.42655,107.468242 C1496.4784,107.266009 1496.52924,107.060727 1496.58517,106.861542 C1496.64109,106.650162 1496.69803,106.442848 1496.7509,106.237566 C1496.7997,106.02517 1496.85054,105.818871 1496.89731,105.612573 C1496.95019,105.395096 1497.00001,105.1827 1497.05186,104.964207 C1497.08542,104.816851 1497.11694,104.660349 1497.15151,104.503846 C1498.42959,98.6278996 1498.95221,91.8291994 1498.87595,85.2032614 C1498.87595,85.2032614 1498.87595,85.2052939 1498.87595,85.2032614 C1498.87595,85.2032614 1498.89629,85.1341566 1498.87595,85.2032614 C1493.99138,89.734712 1488.7367,93.7722659 1484.11649,96.4399173 C1478.54763,99.6563427 1471.22076,102.275214 1463.92339,103.770115 C1459.96916,97.4653117 1456.80598,90.3627533 1455.28693,84.1148597 C1454.01799,78.8903279 1453.29608,72.3609335 1453.22186,65.6567445 C1452.81617,66.0327563 1452.41963,66.4118168 1452.01597,66.7918936 C1451.89904,66.9046972 1451.78313,67.0215657 1451.66417,67.137418 C1451.38049,67.4128213 1451.09681,67.6831433 1450.81821,67.9666765 C1450.68908,68.0906588 1450.55792,68.2217548 1450.43387,68.3518346 C1450.15121,68.6343516 1449.87566,68.9138198 1449.60012,69.1983693 C1449.49031,69.3121891 1449.37643,69.4280414 1449.26458,69.5428774 C1448.91583,69.905678 1448.57216,70.2664461 1448.23663,70.6312792 C1448.19901,70.6648154 1448.16342,70.700384 1448.13393,70.736969 C1447.73841,71.1576957 1447.35102,71.5845199 1446.96668,72.0113442 C1446.93516,72.0408154 1446.91075,72.0753678 1446.8772,72.1109365 C1446.53252,72.4960945 1446.19698,72.8761713 1445.86145,73.2643781 C1445.79027,73.3426292 1445.7252,73.4239291 1445.65504,73.4991315 C1445.34899,73.8548183 1445.04904,74.2115214 1444.7491,74.5672083 C1444.69419,74.6413944 1444.63827,74.7104993 1444.57625,74.7816366 C1444.23359,75.1982984 1443.89399,75.6108951 1443.56252,76.0285731 C1443.56252,76.0316219 1443.55846,76.0346706 1443.55439,76.0346706 C1442.49796,77.3761182 1441.50559,78.7155332 1440.59253,80.0488508 C1440.5783,80.066127 1440.56813,80.0813708 1440.55593,80.0955982 C1439.03687,82.3313442 1437.74964,84.5437164 1436.76845,86.6727563 C1436.62712,86.9847445 1436.49189,87.2957164 1436.36276,87.6016071 C1436.35971,87.6148183 1436.34954,87.6219321 1436.34547,87.6351433 C1436.34852,87.6371758 1436.34751,87.6392083 1436.34954,87.6402245 C1436.22854,87.916644 1436.11365,88.1971285 1436.00994,88.4674505 L1436.00994,88.4745643 C1436.00485,88.4826942 1436.00384,88.4959055 1435.99977,88.5050517 C1435.88488,88.8007799 1435.77405,89.0944756 1435.6805,89.3871551 L1435.67847,89.3871551 C1435.66627,89.427805 1435.6561,89.46439 1435.64288,89.5060561 C1435.64288,89.5101211 1435.63678,89.5101211 1435.6378,89.5141861 C1435.50969,89.8901979 1435.39581,90.267226 1435.29311,90.6290103 C1435.2799,90.6950665 1435.26261,90.7540089 1435.24736,90.811935 C1435.23923,90.83226 1435.23719,90.8536012 1435.22499,90.8800236 C1435.11721,91.2946529 1435.0196,91.7092821 1434.94436,92.1188301 C1434.88641,92.4043959 1434.8437,92.6869129 1434.80303,92.9653648 C1434.78676,93.0862984 1434.77863,93.2021507 1434.76439,93.3190192 C1434.74406,93.4907651 1434.73287,93.6594623 1434.71457,93.830192 C1434.70542,93.9551905 1434.70542,94.0761241 1434.70135,94.2051876 C1434.68813,94.3606736 1434.68915,94.5192083 1434.68508,94.6746942 C1434.68508,94.7986765 1434.68712,94.9155451 1434.6922,95.0405436 C1434.69525,95.1970458 1434.70135,95.3484668 1434.7105,95.5039527 C1434.72067,95.6177725 1434.73287,95.7376898 1434.74304,95.8535421 C1434.76033,96.0100443 1434.78473,96.1665465 1434.79998,96.3189838 C1434.81625,96.4267061 1434.83557,96.5334121 1434.85387,96.6350369 C1434.88742,96.8047504 1434.92708,96.9693826 1434.96876,97.1411285 C1434.9891,97.2173471 1435.0074,97.3077932 1435.0318,97.3901093 C1435.09789,97.6421388 1435.17924,97.8850222 1435.26871,98.1207917 C1435.3287,98.2833914 1435.37446,98.4256662 1435.41004,98.5618434 C1439.95807,109.830003 1450.75314,116.046393 1451.12019,133.677282" id="Fill-18" sketch:type="MSShapeGroup"></path>
                <path d="M1276.20384,284.716148 C1275.9771,285.935645 1275.88965,286.803521 1275.85203,287.085022 C1275.86627,287.125672 1275.83068,287.055551 1275.85203,287.085022 C1275.85203,287.085022 1275.84797,287.093152 1275.85203,287.085022 C1275.85102,287.092136 1275.84797,287.081973 1275.85203,287.085022 C1286.06246,263.387131 1303.99019,261.156467 1316.3999,248.561087 C1316.54529,248.352756 1316.72221,248.135279 1316.94082,247.903575 C1317.2123,247.616993 1317.47259,247.311102 1317.71458,246.997081 C1320.62662,243.220703 1321.62102,237.486015 1321.21533,230.708656 C1321.2194,230.672071 1321.2133,230.63447 1321.21228,230.600934 C1321.18381,230.039965 1321.13399,229.466801 1321.08315,228.89262 C1321.0862,228.88449 1321.07705,228.881442 1321.08111,228.873312 C1320.97944,227.823527 1320.84624,226.743256 1320.68966,225.646724 C1320.67339,225.536969 1320.66424,225.4201 1320.6439,225.308313 C1320.59611,225.00852 1320.54019,224.703645 1320.49647,224.404869 C1320.44767,224.090848 1320.39988,223.77886 1320.34802,223.475001 C1320.28803,223.16403 1320.23313,222.860171 1320.17314,222.556313 C1320.11518,222.235179 1320.05621,221.924207 1319.99317,221.602056 C1319.95046,221.385595 1319.89861,221.156939 1319.85184,220.9293 C1318.06638,212.342003 1314.72934,202.977276 1310.69174,194.195876 C1310.69174,194.195876 1310.69275,194.198925 1310.69174,194.195876 C1310.69174,194.195876 1310.68055,194.091202 1310.69174,194.195876 C1306.87579,203.128697 1302.27286,211.622499 1297.70247,217.915108 C1292.19258,225.502417 1283.98824,233.335657 1275.15758,239.654688 C1266.14287,233.600898 1257.71281,226.012573 1251.98229,218.591929 C1247.19227,212.384685 1242.35447,204.113442 1238.27518,195.228384 C1237.95795,195.971261 1237.65596,196.710074 1237.34585,197.454984 C1237.25434,197.67551 1237.16893,197.899084 1237.07844,198.124691 C1236.8639,198.66127 1236.64936,199.187687 1236.446,199.729347 C1236.34738,199.974263 1236.2518,200.223244 1236.16029,200.472225 C1235.95185,201.014901 1235.75053,201.553513 1235.5543,202.094157 C1235.47295,202.310617 1235.39263,202.53216 1235.3123,202.751669 C1235.06218,203.440685 1234.82019,204.122588 1234.58531,204.81262 C1234.55684,204.879693 1234.53142,204.946765 1234.5121,205.012821 C1234.23656,205.810576 1233.9722,206.607315 1233.71394,207.403037 C1233.68954,207.461979 1233.67835,207.521938 1233.65598,207.587994 C1233.42619,208.304449 1233.2025,209.011758 1232.98491,209.727196 C1232.93916,209.874552 1232.89747,210.019876 1232.85171,210.163167 C1232.65548,210.818647 1232.46636,211.471078 1232.27826,212.125542 C1232.24775,212.252573 1232.21623,212.379604 1232.17353,212.512733 C1231.96611,213.266789 1231.75665,214.021861 1231.5655,214.770836 C1231.56753,214.77795 1231.56346,214.784047 1231.5594,214.785064 C1230.94527,217.199669 1230.42163,219.570576 1229.99357,221.889654 C1229.98645,221.919126 1229.98442,221.946564 1229.97425,221.972987 C1229.27674,225.85099 1228.87613,229.562328 1228.8314,232.982003 C1228.83038,233.477932 1228.83445,233.973861 1228.8436,234.457595 C1228.84868,234.475888 1228.83851,234.49418 1228.84055,234.512473 C1228.84563,234.515521 1228.84461,234.517554 1228.84665,234.51857 C1228.85275,234.956573 1228.86597,235.396609 1228.88732,235.820384 C1228.88935,235.827498 1228.8924,235.82953 1228.8924,235.82953 C1228.89037,235.84579 1228.89647,235.86205 1228.89647,235.877294 C1228.91782,236.338671 1228.94731,236.798015 1228.9951,237.240083 L1228.99408,237.242115 C1229.00018,237.304106 1229.0073,237.357968 1229.01645,237.421991 C1229.0195,237.427072 1229.01035,237.431137 1229.01137,237.435202 C1229.06729,238.012431 1229.1405,238.580514 1229.21574,239.126239 C1229.23709,239.22075 1229.25031,239.308148 1229.26454,239.394529 C1229.26556,239.429081 1229.27471,239.458552 1229.27573,239.49717 C1229.37537,240.117081 1229.4923,240.727846 1229.63465,241.316254 C1229.72819,241.729867 1229.83902,242.131285 1229.95086,242.526606 C1230.00069,242.697335 1230.05762,242.857903 1230.10745,243.021518 C1230.1837,243.262369 1230.26403,243.49509 1230.34537,243.73086 C1230.40638,243.904638 1230.47958,244.065205 1230.54873,244.241016 C1230.626,244.454428 1230.71853,244.665808 1230.80597,244.875155 C1230.88019,245.040804 1230.9534,245.195273 1231.03474,245.357873 C1231.13235,245.564171 1231.22895,245.763356 1231.33266,245.964573 C1231.414,246.109897 1231.49941,246.262334 1231.58278,246.40969 C1231.69869,246.609891 1231.82376,246.801962 1231.93764,246.997081 C1232.02203,247.13021 1232.11049,247.262322 1232.19488,247.387321 C1232.34231,247.593619 1232.49279,247.788739 1232.64836,247.991988 C1232.7236,248.080402 1232.79681,248.193205 1232.8812,248.2867 C1233.11709,248.583445 1233.37129,248.858848 1233.63158,249.120024 C1233.80748,249.2999 1233.94983,249.464532 1234.08201,249.624083 C1246.82827,261.935929 1264.89428,263.818021 1275.85203,287.085022" id="Fill-19" sketch:type="MSShapeGroup"></path>
                <path d="M754.694202,232.02673 L754.694202,688 L1482.10836,688 L1482.10836,248.606818 L1435.41818,255.360804 L1397.54341,218.197625 L1317.45836,221.383563 L1160.17893,300.797258 L1100.3795,287.09925 L1069.25203,303.256579 C1069.25203,303.256579 1029.93345,254.964467 1027.47591,256.185997 C1025.01735,257.408544 950.472693,246.696272 950.472693,246.696272 L911.17241,197.502747 C911.17241,197.502747 846.440618,241.033737 840.706022,240.623173 C834.971426,240.214641 754.694202,232.02673 754.694202,232.02673" id="Fill-20" sketch:type="MSShapeGroup"></path>
            </g>
            <g id="Name-+-Rectangle-177" sketch:type="MSLayerGroup" transform="translate(570.000000, 414.000000)"></g>
        </g>
    </g>
</svg>