<?xml version="1.0" encoding="UTF-8" standalone="no"?>
<svg width="134px" height="32px" viewBox="0 0 134 32" version="1.1" xmlns="http://www.w3.org/2000/svg" xmlns:xlink="http://www.w3.org/1999/xlink" xmlns:sketch="http://www.bohemiancoding.com/sketch/ns">
    <!-- Generator: Sketch 3.3 (11970) - http://www.bohemiancoding.com/sketch -->
    <title>Artboard 1</title>
    <desc>Created with Sketch.</desc>
    <defs>
        <linearGradient x1="13.8662626%" y1="78.3218776%" x2="99.9775221%" y2="37.66319%" id="linearGradient-1">
            <stop stop-color="#5F2385" offset="4.29448%"></stop>
            <stop stop-color="#9452BA" offset="96.93%"></stop>
        </linearGradient>
        <linearGradient x1="98.9898991%" y1="100.377967%" x2="-2.03328518%" y2="29.6428817%" id="linearGradient-2">
            <stop stop-color="#5F2385" offset="4.29448%"></stop>
            <stop stop-color="#FFFFFF" offset="100%"></stop>
        </linearGradient>
        <linearGradient x1="95.6133825%" y1="142.318477%" x2="24.4299008%" y2="-12.0389871%" id="linearGradient-3">
            <stop stop-color="#5F2385" offset="4.29448%"></stop>
            <stop stop-color="#FFFFFF" offset="100%"></stop>
        </linearGradient>
        <linearGradient x1="31.9766974%" y1="12.2294195%" x2="63.4636481%" y2="106.573606%" id="linearGradient-4">
            <stop stop-color="#4F1374" offset="23.31%"></stop>
            <stop stop-color="#5F2385" offset="84.05%"></stop>
        </linearGradient>
        <linearGradient x1="-12.9994136%" y1="47.141476%" x2="92.9768683%" y2="53.1410639%" id="linearGradient-5">
            <stop stop-color="#4F1374" offset="23.31%"></stop>
            <stop stop-color="#5F2385" offset="84.05%"></stop>
        </linearGradient>
    </defs>
    <g id="Page-1" stroke="none" stroke-width="1" fill="none" fill-rule="evenodd" sketch:type="MSPage">
        <g id="Artboard-1" sketch:type="MSArtboardGroup">
            <g id="logo_black" sketch:type="MSLayerGroup">
                <g id="Group" transform="translate(0.000000, 0.810726)" sketch:type="MSShapeGroup">
                    <path d="M22.6360916,29.6714626 C22.753377,30.0292375 22.8472054,30.2916058 22.8706625,30.3631607 L22.8706625,30.3631607 C22.3311494,22.4682619 26.8114535,19.3436947 28.4065356,14.1678849 C28.4065356,14.0963299 28.4299927,14.0009233 28.4534498,13.9055167 C28.4769069,13.7862584 28.5238211,13.6670001 28.5238211,13.5477418 C28.7818491,12.1166423 28.2657931,10.3993229 27.210224,8.61044855 C27.210224,8.61044855 27.210224,8.58659692 27.186767,8.58659692 C27.0929386,8.44348694 26.9991103,8.30037702 26.9052819,8.13341541 L26.9052819,8.13341541 C26.7410823,7.87104714 26.5534256,7.58482724 26.3423117,7.29860737 C26.3188547,7.27475571 26.2953975,7.25090405 26.2719405,7.20320074 C26.2250263,7.13164577 26.154655,7.06009079 26.1077408,6.98853582 C26.0608267,6.91698084 25.9904554,6.82157421 25.9435412,6.75001923 C25.896627,6.67846426 25.8262558,6.60690929 25.7793416,6.53535431 C25.7089703,6.46379934 25.6620561,6.3683927 25.5916849,6.29683773 C25.5447707,6.24913442 25.4978565,6.17757944 25.4509423,6.12987612 C23.785489,4.03093021 21.6039796,1.95583596 19.3051848,0.143109948 L19.3051848,0.143109948 C19.3051848,0.143109948 19.2817278,0.119258291 19.3051848,0.143109948 C19.5162986,3.10071555 19.4693845,6.08217281 19.1175281,8.41963531 C18.6953005,11.2579826 17.5693602,14.5495114 16.0915635,17.507117 C12.8310281,17.1254905 9.54703549,16.2429791 6.96675564,15.0265446 C4.83216048,14.0009233 2.39262315,12.4267138 0.0703712691,10.5901361 C0.0938283586,10.8286528 0.117285449,11.091021 0.140742538,11.3295376 C0.140742538,11.4010926 0.164199628,11.4726476 0.164199628,11.5442025 C0.187656718,11.7111641 0.187656718,11.9019774 0.211113807,12.068939 C0.211113807,12.1404939 0.234570897,12.2359006 0.234570897,12.3074555 C0.258027987,12.4744172 0.281485077,12.6652304 0.304942166,12.832192 C0.304942166,12.9037471 0.328399256,12.975302 0.328399256,13.046857 C0.351856346,13.2615219 0.375313435,13.5000385 0.422227615,13.7147034 L0.422227615,13.7862584 C0.469141794,14.0486266 0.492598884,14.2871432 0.539513063,14.5495114 L0.539513063,14.5972147 C0.586427242,14.8357313 0.609884332,15.0503963 0.656798512,15.2650611 C0.656798512,15.3127645 0.680255601,15.3604678 0.680255601,15.4081711 C0.727169781,15.6228361 0.750626869,15.8136493 0.797541054,16.0283142 C0.797541054,16.0760176 0.820998142,16.0998692 0.820998142,16.1475725 C0.86791232,16.3860891 0.914826497,16.6246057 0.961740675,16.8392706 L0.961740675,16.8392706 C1.1259403,17.578672 1.31359702,18.2942217 1.52471083,18.9859198 L1.52471083,19.0097715 C1.87656718,20.1546511 2.2753377,21.2279757 2.7444795,22.1581904 C2.81485077,22.3013003 2.88522203,22.4205586 2.9555933,22.5636685 C2.9555933,22.5636685 2.9555933,22.5636685 2.9555933,22.5875202 L2.9555933,22.5875202 C3.02596457,22.7067785 3.07287875,22.8260367 3.14325002,22.9452951 L3.14325002,22.9452951 C3.14325002,22.9452951 3.14325002,22.9452951 3.14325002,22.9691467 C3.21362129,23.088405 3.28399256,23.2076633 3.35436383,23.3269216 L3.35436383,23.3269216 C3.35436383,23.3507733 3.37782092,23.3507733 3.37782092,23.3746249 L3.37782092,23.3746249 C3.47164928,23.5177348 3.56547763,23.6608448 3.659306,23.8039547 C3.68276308,23.8278064 3.68276308,23.8516581 3.70622017,23.8755098 C3.70622017,23.8755098 3.70622017,23.8993614 3.72967726,23.8993614 C3.84696271,24.0424714 3.96424816,24.2094329 4.08153361,24.3525429 L4.08153361,24.3525429 C4.17536197,24.4479496 4.24573324,24.5433561 4.3395616,24.6387628 C4.38647578,24.6864661 4.40993286,24.7103178 4.45684704,24.7580211 C4.50376122,24.8057244 4.57413249,24.8534277 4.62104667,24.9249827 C4.66796085,24.972686 4.69141794,24.9965377 4.73833212,25.044241 C4.7852463,25.0919443 4.83216048,25.1396476 4.90253175,25.1873509 C4.94944593,25.2112026 4.99636011,25.2589059 5.01981719,25.2827576 C5.06673138,25.3304609 5.13710264,25.3781642 5.18401682,25.4020158 C5.23093101,25.4258675 5.27784518,25.4497192 5.30130227,25.4974225 C5.34821645,25.5451258 5.41858772,25.5689775 5.48895899,25.6166808 C5.53587317,25.6405324 5.58278735,25.6643841 5.60624444,25.6882357 C5.67661571,25.7120874 5.74698697,25.7597907 5.81735825,25.7836424 C5.84081534,25.807494 5.88772951,25.807494 5.9111866,25.8313457 C6.00501496,25.879049 6.12230042,25.9267523 6.21612877,25.950604 C6.28650004,25.9744556 6.35687131,25.9983073 6.40378549,26.022159 C11.5174311,27.5725168 16.6076195,25.5689775 22.753377,30.3631607" id="Shape" fill="url(#linearGradient-1)"></path>
                    <g id="Shape">
                        <path d="M19.1644423,8.44348694 C18.7422147,11.2818342 17.6162743,14.573363 16.1384777,17.5309687 C21.9089218,18.2226668 27.4917091,17.3163038 28.4534498,13.9055167 C29.5090189,10.184658 24.7472296,4.4364084 19.352099,0.166961606 C19.5632128,3.14841886 19.5162986,6.08217281 19.1644423,8.44348694 L19.1644423,8.44348694 L19.1644423,8.44348694 Z" fill="url(#linearGradient-2)"></path>
                        <path d="M7.01366982,15.0503963 C4.87907466,14.0247749 2.43953733,12.4505655 0.117285449,10.6139879 C0.633341422,17.5548203 2.69756531,24.7580211 6.33341422,25.950604 C9.66432094,27.0239286 13.4878266,22.8021851 16.1384777,17.5309687 C12.8779423,17.1493421 9.57049263,16.2668308 7.01366982,15.0503963 L7.01366982,15.0503963 L7.01366982,15.0503963 Z" fill="url(#linearGradient-3)"></path>
                    </g>
                    <g id="Shape">
                        <path d="M11.6112594,21.6334539 C3.11979293,18.4373317 0.117285449,10.6378395 0.117285449,10.6378395 L0.117285449,10.6378395 C0.422227615,14.8834346 1.33705412,19.2244364 2.81485077,22.253597 C2.88522203,22.3728553 2.9555933,22.5159652 3.00250748,22.6352235 C3.00250748,22.6590752 3.02596457,22.6590752 3.02596457,22.6590752 C3.09633584,22.7783335 3.16670711,22.8975918 3.21362129,23.0168501 C3.21362129,23.0407017 3.23707838,23.0407017 3.23707838,23.0645534 C3.30744965,23.1838117 3.37782092,23.2792183 3.42473509,23.3984765 C3.42473509,23.4223282 3.44819218,23.4223282 3.44819218,23.4461799 C3.51856346,23.5415865 3.58893472,23.6608448 3.659306,23.7562515 C3.70622017,23.8278064 3.75313435,23.8755098 3.80004853,23.9470647 C3.80004853,23.9709163 3.82350562,23.9709163 3.82350562,23.994768 C3.84696271,24.0424714 3.89387689,24.0901746 3.91733398,24.1140263 C3.98770525,24.2094329 4.08153361,24.3048396 4.15190487,24.4002462 C4.7852463,25.1634993 5.51241608,25.7120874 6.30995713,25.9744556 C6.3803284,25.9983073 6.45069967,26.022159 6.49761385,26.0460106 C11.6112594,27.5963684 16.7014479,25.5928291 22.8472054,30.3870124 C22.4015207,29.719166 18.038502,24.066323 11.6112594,21.6334539 L11.6112594,21.6334539 L11.6112594,21.6334539 Z" fill="url(#linearGradient-4)"></path>
                        <path d="M28.4534498,13.9055167 C29.5090189,10.184658 24.7472296,4.4364084 19.352099,0.166961606 L19.352099,0.166961606 C19.352099,0.166961606 24.043517,7.03623913 21.955836,15.9806109 C20.3372968,22.8975918 22.6830058,29.8145726 22.8706625,30.3393091 L22.8706625,30.3393091 C22.3311494,22.4444103 26.8114535,19.3198431 28.4065356,14.1440332 C28.4065356,14.0963299 28.4299927,14.0009233 28.4534498,13.9055167 L28.4534498,13.9055167 L28.4534498,13.9055167 Z" fill="url(#linearGradient-5)"></path>
                    </g>
                    <path d="M7.01366982,15.0503963 C4.87907466,14.0247749 2.43953733,12.4505655 0.117285449,10.6139879 C0.633341422,17.5548203 2.69756531,24.7580211 6.33341422,25.950604 C9.66432094,27.0239286 13.4878266,22.8021851 16.1384777,17.5309687 C12.8779423,17.1493421 9.57049263,16.2668308 7.01366982,15.0503963" id="Shape"></path>
                </g>
                <g id="Group" transform="translate(34.000000, 3.000000)" fill="#000000" sketch:type="MSShapeGroup">
                    <path d="M9.63745261,13.077566 C9.63745261,11.8250146 9.31742333,10.9899803 8.72308319,10.5260724 C8.08302478,10.0621643 7.21437391,9.78381956 6.02569377,9.78381956 C5.29419826,9.78381956 4.6084213,9.83021029 4.0140813,9.96938279 C3.37402275,10.0621643 2.77968275,10.2477275 2.18534261,10.4332907 C1.77387652,9.73742882 1.59100261,8.90239441 1.59100261,7.97457853 C2.27677957,7.74262456 3.05399348,7.55706132 3.92264435,7.46427971 C4.74557667,7.32510735 5.56850913,7.27871662 6.34572304,7.27871662 C8.40305406,7.27871662 9.95748188,7.74262456 11.0547251,8.71683118 C12.1062497,9.69103794 12.6548713,11.1755434 12.6548713,13.2631293 L12.6548713,23.2835412 C11.9233758,23.4691044 11.0547251,23.6082768 10.0489187,23.79384 C8.99739406,23.9794031 7.94586928,24.0721847 6.89434464,24.0721847 C5.88853841,24.0721847 4.97416913,23.9794031 4.15123667,23.79384 C3.32830435,23.6082768 2.64252725,23.2835412 2.0939058,22.866024 C1.5452842,22.4485069 1.08809942,21.8918174 0.76807029,21.2887369 C0.448041014,20.6392659 0.310885507,19.8506224 0.310885507,18.9228063 C0.310885507,18.0413812 0.49375942,17.2527376 0.859507101,16.5568757 C1.22525493,15.8610138 1.72815797,15.3043243 2.32249812,14.8404163 C2.96255652,14.3765084 3.64833362,14.0517728 4.47126594,13.8198188 C5.29419826,13.5878649 6.11713072,13.4950832 6.98578159,13.4950832 C7.62584014,13.4950832 8.17446159,13.4950832 8.58592783,13.541474 C8.99739406,13.5878649 9.36314174,13.5878649 9.63745261,13.6342556 L9.63745261,13.077566 L9.63745261,13.077566 Z M9.63745261,16.0929678 C9.31742333,16.0465771 8.95167565,16.0001862 8.44877246,15.9537954 C7.99158783,15.9074046 7.58012159,15.9074046 7.26009232,15.9074046 C5.97997536,15.9074046 5.01988754,16.1393587 4.33411058,16.6496574 C3.64833362,17.1135653 3.32830435,17.8558181 3.32830435,18.8300249 C3.32830435,19.4794959 3.4197413,19.9434038 3.64833362,20.3145303 C3.87692594,20.6856566 4.15123667,20.9640015 4.51698435,21.1495646 C4.83701362,21.3351278 5.24847986,21.4743001 5.65994609,21.4743001 C6.07141217,21.5206909 6.48287841,21.5206909 6.84862623,21.5206909 C7.30581087,21.5206909 7.80871391,21.4743001 8.3116171,21.4279094 C8.81452014,21.3815185 9.27170478,21.2887369 9.63745261,21.1959554 L9.63745261,16.0929678 L9.63745261,16.0929678 Z" id="Shape"></path>
                    <path d="M17.1352809,0.691223529 C17.3638733,0.644832794 17.5924657,0.598441912 17.9124949,0.598441912 C18.1868057,0.598441912 18.4611164,0.552051176 18.6897088,0.552051176 C18.9183012,0.552051176 19.1926119,0.552051176 19.4669228,0.598441912 C19.7412335,0.598441912 20.0155443,0.644832794 20.2441367,0.691223529 L20.2441367,23.7010584 C20.0155443,23.7474491 19.7412335,23.79384 19.4669228,23.79384 C19.1926119,23.79384 18.9183012,23.8402307 18.6897088,23.8402307 C18.4611164,23.8402307 18.2325241,23.8402307 17.9124949,23.79384 C17.6381841,23.79384 17.3638733,23.7474491 17.1352809,23.7010584 L17.1352809,0.691223529 L17.1352809,0.691223529 Z M21.0213506,15.3043243 L26.0503817,7.55706132 C26.3246926,7.51067059 26.5990033,7.46427971 26.8733142,7.46427971 C27.1476249,7.46427971 27.4219357,7.41788897 27.6962465,7.41788897 C28.0162758,7.41788897 28.2905865,7.41788897 28.5648974,7.46427971 C28.8392081,7.46427971 29.113519,7.51067059 29.4335483,7.55706132 L24.404517,15.0723703 L30.3021991,23.6546675 C30.0278883,23.7010584 29.7535775,23.7474491 29.4792667,23.7474491 C29.2049559,23.7474491 28.9306451,23.79384 28.6563343,23.79384 C28.3820235,23.79384 28.0619942,23.79384 27.7876835,23.7474491 C27.5133726,23.7474491 27.1933433,23.7010584 26.9190326,23.6546675 L21.0213506,15.3043243 L21.0213506,15.3043243 Z" id="Shape"></path>
                    <path d="M34.8283271,16.3713126 C34.8740457,18.1341628 35.3312303,19.4331051 36.1541626,20.2217487 C37.0228135,21.0567829 38.257212,21.4279094 39.9487954,21.4279094 C41.4117862,21.4279094 42.7833401,21.1495646 44.1091757,20.6392659 C44.2920496,20.9640015 44.4292049,21.3351278 44.5206419,21.7990357 C44.6120788,22.2629437 44.7035158,22.6804609 44.7035158,23.1443688 C44.0177387,23.4227135 43.2862433,23.6546675 42.4633109,23.79384 C41.6403786,23.9330124 40.7260093,24.025794 39.7659214,24.025794 C38.3029306,24.025794 37.068532,23.8402307 36.0627258,23.4227135 C35.011201,23.0051965 34.1882687,22.4485069 33.5024916,21.7062541 C32.8167146,20.9640015 32.35953,20.0825763 32.0395007,19.0619788 C31.7194714,18.0413812 31.5823161,16.9280022 31.5823161,15.7218415 C31.5823161,14.5156807 31.7194714,13.4023016 32.0395007,12.3817041 C32.35953,11.3611066 32.8167146,10.4332907 33.4110548,9.69103794 C34.0511132,8.94878515 34.8283271,8.29931412 35.7426965,7.88179691 C36.7027842,7.41788897 37.8000274,7.185935 39.0801445,7.185935 C40.1773877,7.185935 41.1374754,7.37149809 41.9604078,7.74262456 C42.7833401,8.11375088 43.4691172,8.62404971 44.0177387,9.27352074 C44.5663603,9.92299191 44.9778265,10.7116354 45.2978558,11.6394513 C45.5721667,12.5672674 45.709322,13.541474 45.709322,14.6084624 C45.709322,14.8868071 45.709322,15.2115426 45.6636035,15.5362782 C45.6636035,15.8610138 45.6178851,16.1393587 45.6178851,16.3713126 L34.8283271,16.3713126 L34.8283271,16.3713126 Z M42.6461848,14.0517728 C42.6461848,13.4486925 42.5547478,12.8920029 42.4175925,12.3817041 C42.2804371,11.8714054 42.0518448,11.3611066 41.7318155,10.9899803 C41.4117862,10.5724631 41.0460386,10.2941182 40.5888538,10.0157735 C40.1316691,9.78381956 39.5830475,9.64464721 38.9429891,9.64464721 C37.7085904,9.64464721 36.7027842,10.0157735 36.0627258,10.8044171 C35.3769487,11.5930606 34.9654826,12.660049 34.8283271,14.0517728 L42.6461848,14.0517728 L42.6461848,14.0517728 Z" id="Shape"></path>
                    <path d="M49.732547,7.55706132 C49.9611393,7.51067059 50.1897316,7.46427971 50.4183239,7.46427971 C50.6469162,7.46427971 50.8755086,7.41788897 51.104101,7.41788897 C51.3326933,7.41788897 51.5612857,7.41788897 51.7441594,7.46427971 C51.9270333,7.46427971 52.1556257,7.51067059 52.384218,7.55706132 C52.4299365,7.88179691 52.5213733,8.29931412 52.5670919,8.80961279 C52.6128103,9.31991162 52.6585288,9.78381956 52.6585288,10.1549459 C52.8414026,9.78381956 53.1157135,9.45908397 53.4357428,9.08795765 C53.7557719,8.71683118 54.1215197,8.39209574 54.5329859,8.11375088 C54.944452,7.83540618 55.4016367,7.60345221 55.9502583,7.41788897 C56.4988799,7.23232574 57.09322,7.13954412 57.7332784,7.13954412 C59.5620171,7.13954412 60.8878526,7.64984294 61.7565035,8.71683118 C62.6251543,9.78381956 63.0366204,11.3147159 63.0366204,13.4023016 L63.0366204,23.6082768 C62.8080281,23.6546675 62.5337174,23.7010584 62.2594065,23.7010584 C61.9850958,23.7010584 61.7107849,23.7474491 61.4821926,23.7474491 C61.2536003,23.7474491 61.025008,23.7474491 60.7049787,23.7010584 C60.430668,23.7010584 60.1563571,23.6546675 59.9277648,23.6082768 L59.9277648,14.2837268 C59.9277648,12.7992213 59.6991725,11.6858422 59.2419878,10.9899803 C58.7848032,10.2941182 58.0533077,9.92299191 57.09322,9.92299191 C56.4988799,9.92299191 55.9502583,10.0157735 55.4473552,10.2477275 C54.944452,10.4796815 54.4872674,10.7580263 54.0758012,11.2219343 C53.6643351,11.6394513 53.3900242,12.2425318 53.1157135,12.9383937 C52.8871212,13.6342556 52.7499657,14.46929 52.7499657,15.4434966 L52.7499657,23.6082768 C52.5213733,23.6546675 52.292781,23.7010584 51.9727517,23.7010584 C51.698441,23.7010584 51.4241301,23.7474491 51.1955378,23.7474491 C50.9669455,23.7474491 50.6926348,23.7474491 50.4183239,23.7010584 C50.1440132,23.7010584 49.8697023,23.6546675 49.64111,23.6082768 L49.64111,7.55706132 L49.732547,7.55706132 L49.732547,7.55706132 Z" id="Shape"></path>
                    <path d="M69.8486719,16.3713126 C69.8943903,18.1341628 70.3515751,19.4331051 71.1745074,20.2217487 C72.0431583,21.0567829 73.2775568,21.4279094 74.96914,21.4279094 C76.4321309,21.4279094 77.8036849,21.1495646 79.1295203,20.6392659 C79.3123942,20.9640015 79.4495493,21.3351278 79.540987,21.7990357 C79.6324232,22.2629437 79.7238609,22.6804609 79.7238609,23.1443688 C79.0380841,23.4227135 78.3065884,23.6546675 77.4836557,23.79384 C76.6607233,23.9330124 75.7463539,24.025794 74.7862662,24.025794 C73.3232752,24.025794 72.0888767,23.8402307 71.0830704,23.4227135 C70.0315458,23.0051965 69.2086133,22.4485069 68.5228364,21.7062541 C67.8370594,20.9640015 67.3798748,20.0825763 67.0598455,19.0619788 C66.7398162,18.0413812 66.6026609,16.9280022 66.6026609,15.7218415 C66.6026609,14.5156807 66.7398162,13.4023016 67.0598455,12.3817041 C67.3798748,11.3611066 67.8370594,10.4332907 68.4313994,9.69103794 C69.071458,8.94878515 69.8486719,8.29931412 70.7630412,7.88179691 C71.723129,7.41788897 72.8203722,7.185935 74.1004891,7.185935 C75.1977323,7.185935 76.1578201,7.37149809 76.9807525,7.74262456 C77.8036849,8.11375088 78.4894623,8.62404971 79.0380841,9.27352074 C79.5867043,9.92299191 79.998171,10.7116354 80.3182,11.6394513 C80.5925116,12.5672674 80.7296667,13.541474 80.7296667,14.6084624 C80.7296667,14.8868071 80.7296667,15.2115426 80.6839478,15.5362782 C80.6839478,15.8610138 80.6382304,16.1393587 80.6382304,16.3713126 L69.8486719,16.3713126 L69.8486719,16.3713126 Z M77.712248,14.0517728 C77.712248,13.4486925 77.620811,12.8920029 77.4836557,12.3817041 C77.3465003,11.8714054 77.117908,11.3611066 76.7978787,10.9899803 C76.4778494,10.5724631 76.1121017,10.2941182 75.654917,10.0157735 C75.1977323,9.78381956 74.6491107,9.64464721 74.0090523,9.64464721 C72.7746536,9.64464721 71.7688474,10.0157735 71.128789,10.8044171 C70.4430119,11.5930606 70.0315458,12.660049 69.8943903,14.0517728 L77.712248,14.0517728 L77.712248,14.0517728 Z" id="Shape"></path>
                    <path d="M91.1991957,24.025794 C89.9647971,24.025794 88.8675536,23.79384 87.9531841,23.3763228 C87.0388145,22.9588056 86.2616014,22.3557253 85.621542,21.6134725 C84.9814841,20.8712199 84.5243,19.9897947 84.2499884,18.9691972 C83.9299594,17.9485997 83.7928043,16.8352206 83.7928043,15.6290599 C83.7928043,14.4228991 83.9299594,13.30952 84.2499884,12.2889225 C84.5700174,11.268325 85.0272029,10.3868999 85.621542,9.64464721 C86.2616014,8.90239441 86.9930971,8.29931412 87.9531841,7.83540618 C88.8675536,7.41788897 89.9647971,7.185935 91.1991957,7.185935 C92.4335942,7.185935 93.5308377,7.41788897 94.4452058,7.83540618 C95.3595754,8.25292324 96.1367899,8.85600368 96.7768478,9.64464721 C97.4169072,10.3868999 97.8740913,11.268325 98.1484014,12.2889225 C98.4684319,13.30952 98.605587,14.4228991 98.605587,15.6290599 C98.605587,16.8352206 98.4684319,17.9485997 98.1484014,18.9691972 C97.8283725,19.9897947 97.3711884,20.8712199 96.7768478,21.6134725 C96.1367899,22.3557253 95.4052942,22.9588056 94.4452058,23.3763228 C93.5308377,23.8402307 92.4335942,24.025794 91.1991957,24.025794 L91.1991957,24.025794 L91.1991957,24.025794 Z M91.1991957,21.5670818 C92.6164681,21.5670818 93.6679928,21.0567829 94.3537696,19.9897947 C95.0395464,18.9228063 95.3595754,17.4846918 95.3595754,15.6290599 C95.3595754,13.7734279 95.0395464,12.3353134 94.3537696,11.268325 C93.6679928,10.2477275 92.6164681,9.73742882 91.1991957,9.73742882 C89.7819232,9.73742882 88.7303986,10.2477275 88.0446217,11.268325 C87.3588449,12.2889225 87.0388145,13.7734279 87.0388145,15.6290599 C87.0388145,17.4846918 87.3588449,18.9228063 88.0446217,19.9897947 C88.7303986,21.0567829 89.7819232,21.5670818 91.1991957,21.5670818 L91.1991957,21.5670818 L91.1991957,21.5670818 Z" id="Shape"></path>
                </g>
            </g>
        </g>
    </g>
</svg>